<svg width="512" height="512" xmlns="http://www.w3.org/2000/svg">
    <g fill="#000000" transform="translate(0,500) scale(0.10000000149011612,-0.10000000149011612) " id="logo">
        <path id="svg_27" fill="#00007f" d="m1671.82474,1214.79609c-3.53222,-1.10802 -3.20617,-3.9207 1.63026,-12.78489c6.57537,-11.93256 12.00955,-25.56977 14.45494,-36.39431l0.92381,-4.26163l7.98826,-0.2557l7.98826,-0.2557l-0.43474,1.96035c-2.11933,10.73931 -11.14008,29.49047 -20.32386,42.19013c-5.97761,8.26756 -9.12944,10.82454 -12.22692,9.80175l-0.00001,0z"/>
        <path id="svg_39" fill="#00007f" d="m1689.21414,1214.88133c-1.19552,-0.42616 -2.44538,-2.55698 -2.44538,-4.1764c0,-0.5114 1.35855,-3.4093 3.04315,-6.30721c6.84708,-12.01779 13.31376,-28.04152 15.48744,-38.09896l1.14118,-5.36965l7.82523,0c6.79273,0 7.82523,0.17047 7.82523,1.36372c0,2.21605 -4.12998,13.97814 -7.17313,20.37059c-3.74959,7.92663 -15.81349,26.84826 -18.91097,29.57571c-2.55407,2.30128 -4.99945,3.23884 -6.79273,2.64221l-0.00002,-0.00001z"/>
        <path id="svg_40" fill="#00007f" d="m1706.49486,1213.17667c-0.10868,-0.5114 1.30421,-4.00593 3.20617,-7.75616c6.57537,-13.04058 13.3681,-33.07024 14.34626,-42.10489l0.32605,-3.15361l32.71381,-0.34093c29.0729,-0.2557 33.0942,-0.5114 36.40906,-1.87512c5.05379,-1.96035 7.93391,-6.05151 8.31431,-11.5064c0.43474,-6.73337 -1.24986,-10.22791 -6.358,-12.95535c-1.35855,-0.68186 -12.22692,-1.10802 -37.22419,-1.44895l-35.32222,-0.5114l-3.04315,-2.21605c-1.6846,-1.27849 -3.47788,-3.15361 -3.96696,-4.26163c-0.48908,-1.10802 -8.20562,-20.62628 -17.11769,-43.38338c-8.91207,-22.7571 -17.82414,-45.42897 -19.78044,-50.45769l-3.64091,-9.20512l27.93172,0l27.93172,0l11.08574,29.23477l11.08574,29.14954l20.86728,0.5114c16.51993,0.42616 22.00846,0.85233 26.0841,2.04558c23.47569,6.73337 37.4959,23.35373 41.89759,49.60536c1.52157,8.86419 1.63026,24.71745 0.27171,32.64408c-1.79328,10.56884 -4.45603,17.64314 -9.83588,25.99594c-5.37985,8.52326 -10.92272,13.72245 -18.85663,17.81361c-9.12944,4.60256 -10.97706,4.77302 -60.97159,5.02872c-34.61578,0.08523 -46.1906,-0.08523 -46.35362,-0.85233l0.00002,0.00001z"/>
    </g>
</svg>
