<svg width="512" height="512" xmlns="http://www.w3.org/2000/svg">
  <path stroke="#HIGHLIGHTS" fill="#HAIR" id="svg_14" d="m283.14468,97.70372c0,-0.71355 0.27722,-2.2684 -4.32529,-6.42191c-4.08682,-3.68811 -11.24808,-11.09104 -16.21985,-14.2709c-3.8823,-2.48304 -5.48893,-3.29466 -6.48794,-3.56773c-1.41282,-0.38617 -2.16265,-0.71355 -3.24397,-1.42709c-1.08132,-0.71355 -3.31534,-2.05334 -5.40662,-2.85418c-3.37208,-1.29132 -3.9938,-2.46801 -5.40662,-2.85418c-0.99901,-0.27307 -2.57645,-0.65922 -2.16265,0c0.58521,0.93229 2.97939,2.94837 5.40662,5.70836c1.9569,2.22518 3.24397,3.56773 4.32529,4.99482c1.08132,1.42709 1.2685,2.03556 2.16265,2.85418c1.41378,1.29437 0.31671,2.34963 1.08132,2.85418c0.76461,0.50455 1.18261,-0.07379 0,-0.71355c-3.01508,-1.63107 -7.81673,-4.08833 -12.97588,-7.13545c-5.69733,-3.36497 -9.9608,-6.21792 -12.97588,-7.849c-2.36522,-1.27953 -3.4086,-1.59451 -5.40662,-2.14064c-1.41282,-0.38617 -3.24397,-1.42709 -3.24397,-1.42709c-1.08132,0 -2.57645,0.05432 -2.16265,0.71355c0.58521,0.93229 3.17749,3.60209 10.81324,9.98963c4.28816,3.58719 6.90435,6.68735 9.73191,9.27609c1.7883,1.63726 3.24397,2.14064 3.24397,2.14064c0,0.71355 -0.92208,-0.12351 -2.16265,-0.71355c-1.96152,-0.93292 -6.55852,-3.49907 -12.97588,-6.42191c-7.65545,-3.48673 -16.29856,-7.76473 -21.62647,-9.98963c-3.2945,-1.37576 -5.40662,-2.14064 -6.48794,-2.14064c-1.08132,0 -1.39804,-0.20899 -2.16265,-0.71355c-0.76461,-0.50455 -2.16265,0 -3.24397,-0.71355c0,0 -1.08132,0 -1.08132,0c0,0 1.99268,1.50627 4.32529,3.56773c5.05284,4.46548 11.89456,8.56254 17.30118,12.84381c5.40662,4.28127 9.02493,6.92528 10.81324,8.56254c1.41378,1.29437 2.16265,2.14064 2.16265,2.14064c0,0.71355 0,0.71355 0,0.71355c0,0.71355 1.23735,1.3801 2.16265,2.85418c1.30857,2.08467 2.16265,4.28127 2.16265,4.99482l1.08132,0.71355l0,0" transform="rotate(-12.560647964477539 236.64938354492196,82.36250305175774) "/>
</svg>