<svg width="512" height="512" xmlns="http://www.w3.org/2000/svg">
    <g id="fringe">
    <path fill="#HAIR" stroke-width="1.5" id="svg_28" d="m270,86.52573c0.44444,0 1.33333,0 4,0c3.55556,0 5.49867,-1.32454 7.11111,4.30815c0.5099,1.78121 0.88889,4.30815 0.88889,8.61629c0,2.15407 0,2.15407 0,4.30815c0,2.15407 0,2.15407 0,4.30815c0,0 0,2.15407 0,4.30815c0,2.15407 0,6.46222 0,10.77037l0,0l0,2.15407l0,2.15407" stroke="null"/>
    <path fill="#HAIR" stroke-width="1.5" id="svg_32" d="m259,86.52573c0.44444,0 1.33333,0 4,0c3.55556,0 5.49867,-1.32454 7.11111,4.30815c0.5099,1.78121 0.88889,4.30814 0.88889,8.61629c0,2.15407 0,2.15407 0,4.30815c0,2.15407 0,2.15407 0,4.30814c0,0 0,2.15408 0,4.30815c0,2.15407 0,6.46222 0,10.77037l0,0l0,2.15407l0,2.15408" stroke="null"/>
    <path fill="#HAIR" stroke-width="1.5" id="svg_44" d="m246,86.52573c0.44444,0 1.33333,0 4,0c3.55556,0 5.49867,-1.32454 7.11111,4.30815c0.5099,1.78121 0.88889,4.30814 0.88889,8.61629c0,2.15407 0,2.15407 0,4.30815c0,2.15407 0,2.15407 0,4.30814c0,0 0,2.15408 0,4.30815c0,2.15407 0,6.46222 0,10.77037l0,0l0,2.15407l0,2.15408" stroke="null"/>
    <path fill="#HAIR" stroke-width="1.5" id="svg_46" d="m246,86.52573c-0.66666,0 -2,0 -6,0c-5.33334,0 -8.24801,-1.32454 -10.66666,4.30815c-0.76485,1.78121 -1.33334,4.30814 -1.33334,8.61629c0,2.15407 0,2.15407 0,4.30815c0,2.15407 0,2.15407 0,4.30814c0,0 0,2.15408 0,4.30815c0,2.15407 0,6.46222 0,10.77037l0,0l0,2.15407l0,2.15408" stroke="null"/>
    <path fill="#HAIR" stroke-width="1.5" id="svg_47" d="m238,87.52573c-0.88888,0 -2.66666,0 -8,0c-7.11112,0 -10.99734,-1.32454 -14.22222,4.30815c-1.0198,1.78121 -1.77778,4.30814 -1.77778,8.61629c0,2.15407 0,2.15407 0,4.30815c0,2.15407 0,2.15407 0,4.30814c0,0 0,2.15408 0,4.30815c0,2.15407 0,6.46222 0,10.77037l0,0l0,2.15407l0,2.15408" stroke="null"/>
    <path fill="#HAIR" stroke-width="1.5" id="svg_48" d="m249,86.52573c-0.29629,0 -0.88889,0 -2.66667,0c-2.37037,0 -3.66578,-1.32454 -4.74074,4.30815c-0.33993,1.78121 -0.59259,4.30814 -0.59259,8.61629c0,2.15407 0,2.15407 0,4.30815c0,2.15407 0,2.15407 0,4.30814c0,0 0,2.15408 0,4.30815c0,2.15407 0,6.46222 0,10.77037l0,0l0,2.15407l0,2.15408" stroke="null"/>
    <path fill="#HAIR" stroke-width="1.5" id="svg_29" d="m190,53.52573c-0.88888,0 -2.66666,0 -8,0c-7.11112,0 -10.99734,-1.32454 -14.22222,4.30815c-1.0198,1.78121 -1.77778,4.30814 -1.77778,8.61629c0,2.15407 0,2.15407 0,4.30815c0,2.15407 0,2.15407 0,4.30814c0,0 0,2.15408 0,4.30815c0,2.15407 0,6.46222 0,10.77037l0,0l0,2.15407l0,2.15408" stroke="null" transform="rotate(132.9455108642578 178,73.92166900634767) "/>
    <path fill="#HAIR" stroke-width="1.5" id="svg_41" d="m319,41.52573c-0.88888,0 -2.66666,0 -8,0c-7.11112,0 -10.99734,-1.32454 -14.22222,4.30815c-1.0198,1.78121 -1.77778,4.30814 -1.77778,8.61629c0,2.15407 0,2.15407 0,4.30815c0,2.15407 0,2.15407 0,4.30814c0,0 0,2.15408 0,4.30815c0,2.15407 0,6.46222 0,10.77037l0,0l0,2.15407l0,2.15408" stroke="null" transform="rotate(174.03916931152344 307,61.92166900634766) "/>
    <path fill="#HAIR" stroke-width="1.5" id="svg_42" d="m227,83.52573c-0.88888,0 -2.66666,0 -8,0c-7.11112,0 -10.99734,-1.32454 -14.22222,4.30815c-1.0198,1.78121 -1.77778,4.30814 -1.77778,8.61629c0,2.15407 0,2.15407 0,4.30815c0,2.15407 0,2.15407 0,4.30814c0,0 0,2.15408 0,4.30815c0,2.15407 0,6.46222 0,10.77037l0,0l0,2.15407l0,2.15408" stroke="null"/>
    <path fill="#HAIR" stroke-width="1.5" id="svg_43" d="m287,81.52573c0.44444,0 1.33333,0 4,0c3.55556,0 5.49867,-1.32454 7.11111,4.30815c0.5099,1.78121 0.88889,4.30815 0.88889,8.61629c0,2.15407 0,2.15407 0,4.30815c0,2.15407 0,2.15407 0,4.30815c0,0 0,2.15407 0,4.30815c0,2.15407 0,6.46222 0,10.77037l0,0l0,2.15407l0,2.15407" stroke="null"/>
  </g>
</svg>