<svg width="512" height="512" xmlns="http://www.w3.org/2000/svg">
        <g id="feature">        
                <path fill="none" stroke-width="4" stroke-opacity="0.3" fill-opacity="null" id="svg_40" d="m216.71583,69.35014c0,0 1.99203,-2.0049 5.6399,-6.38427c5.17675,-6.21482 9.28883,-11.48131 11.90647,-14.18727c3.61409,-3.73604 4.38659,-4.25618 5.01325,-4.25618c0,0 0,0.70936 0,1.41873c0,2.83745 -1.50786,6.93973 -3.75994,12.05918c-2.12736,4.83594 -3.13328,7.803 -3.75994,9.22173c0,0 0,0.70936 0.62666,-0.70936c0.62666,-1.41873 5.33866,-7.4896 6.89322,-9.93109c1.63864,-2.57356 3.13328,-5.67491 3.75994,-6.38427c0,0 0.1235,1.42563 0,2.83745c-0.31486,3.59946 -1.87997,8.51236 -3.75994,12.76855c-1.87997,4.25618 -3.73184,5.35509 -4.38659,7.803c-0.18159,0.67893 -0.18159,0.67893 0,0c0.65475,-2.44791 3.97586,-4.78312 6.26656,-8.51236c2.08601,-3.39601 3.75994,-5.67491 5.01325,-7.09364c1.25331,-1.41873 1.68786,-2.512 2.50662,-2.12809c0.57896,0.27147 0,1.41873 0,4.96555c0,2.83745 -0.93137,5.54988 -1.25331,7.09364c-0.28795,1.38078 -0.44311,1.21096 0,0.70936c0.44311,-0.5016 1.6031,-1.78709 3.75994,-3.54682c1.13675,-0.92746 1.87997,-0.70936 1.87997,-0.70936c0,0.70936 -0.05709,3.52582 -1.25331,7.803c-1.97467,7.06059 -4.12321,14.29855 -5.6399,18.44345c-1.07247,2.93089 -1.87997,4.25618 -1.25331,4.25618c1.25331,0 0,-2.83745 0.62666,-3.54682l0,-0.70936l0,0" transform="rotate(44.921329498291016 234.8888549804688,69.70483398437501) " stroke="#HIGHLIGHTS"/>
                <path fill="none" stroke-width="4" stroke-opacity="0.3" fill-opacity="null" id="svg_41" d="m302.37083,72.30303c0,0 -2.32876,1.38392 -6.59325,4.40686c-6.0518,4.2899 -10.85896,7.92519 -13.91907,9.79304c-4.225,2.57888 -5.12808,2.93792 -5.86066,2.93792c0,0 0,-0.48965 0,-0.97931c0,-1.95861 1.76274,-4.79028 4.3955,-8.32408c2.48696,-3.3381 3.66291,-5.38617 4.39549,-6.36548c0,0 0,-0.48965 -0.73258,0.48965c-0.73258,0.9793 -6.24107,5.16984 -8.05841,6.85513c-1.91563,1.77645 -3.66291,3.91721 -4.3955,4.40686c0,0 -0.14437,-0.98407 0,-1.95861c0.36809,-2.48459 2.19775,-5.87582 4.3955,-8.81373c2.19775,-2.93791 4.36265,-3.69646 5.12808,-5.38617c0.21229,-0.46865 0.21229,-0.46865 0,0c-0.76543,1.68971 -4.64793,3.30164 -7.32583,5.87582c-2.43861,2.34416 -4.39549,3.91722 -5.86066,4.89652c-1.46516,0.9793 -1.97316,1.73395 -2.93033,1.46895c-0.67682,-0.18738 0,-0.9793 0,-3.42757c0,-1.95861 1.08881,-3.83091 1.46517,-4.89652c0.33662,-0.95311 0.51801,-0.83589 0,-0.48965c-0.51802,0.34623 -1.87409,1.23357 -4.3955,2.44826c-1.32891,0.6402 -2.19775,0.48965 -2.19775,0.48965c0,-0.48965 0.06674,-2.43376 1.46517,-5.38617c2.30845,-4.87371 4.82017,-9.86985 6.59324,-12.73095c1.25375,-2.0231 2.19775,-2.93792 1.46517,-2.93792c-1.46517,0 0,1.95861 -0.73259,2.44826l0,0.48966l0,0" transform="rotate(61.5237922668457 281.12591552734375,72.0581893920898) " stroke="#HIGHLIGHTS"/>
        </g>
</svg>