<svg width="512" height="512" xmlns="http://www.w3.org/2000/svg">
    <path fill="none" stroke="#HIGHLIGHTS" stroke-width="8" fill-opacity="null" id="svg_7" d="m213.5,99.45313c0,-2 -0.02241,-3.44437 3,-9c3.05996,-5.62463 7,-8 10,-11c2,-2 3,-3 3,-3c1,0 1.14429,-0.06586 2,2c1.21015,2.92157 3.61065,6.15927 5,9c1.5841,3.23892 2.29289,5.29291 3,6c0.70711,0.70709 1,0 2,0c0,0 -0.30745,-2.186 1,-4c1.65381,-2.29453 4,-5 6,-6c2,-1 3,-1 4,-1c1,0 2,0 2,0c1,1 2.1731,1.85272 3,3c1.30745,1.814 3,3 5,3c1,0 3.81266,-1.20682 6,-3c2.78832,-2.28589 6.82375,-3.48627 9,-4c2.91975,-0.68927 5,0 6,0c1,0 1,1 1,1c1,0 2,0 3,0c0,0 1,0 2,0c0,0 0,0 0,1c0,1 0,1 0,2c0,0 0,0 0,1c0,0 0.48626,1.82376 1,4c0.4595,1.9465 0,4 0,5l0,1l0,1l0,0"/>
</svg>