<svg width="512" height="512" xmlns="http://www.w3.org/2000/svg">
    <g id="stubble">
        <path stroke="null" fill-opacity="0.2" d="m193.06401,261.82277c0.21724,0 0.21724,0 0.43449,0c0,0 0.28088,-0.10827 0.4345,0c0.15362,0.10827 0.21724,0.15312 0.21724,0.15312c0.21725,0 0.4345,0.15312 0.65175,0.15312c0,0 0.21724,0.15311 0.43449,0.15311c0,0 0.21725,0.15312 0.4345,0.15312c0,0 0.15064,0.07025 0.43449,0.15312c0.20072,0.0586 0.44032,0.11794 0.65174,0.15312c0.47278,0.07866 0.65175,0.15311 0.86899,0.30623c0.21725,0.15312 0.36791,0.22337 0.65175,0.30624c0.20071,0.05859 0.65174,0.15311 1.08623,0.30623c0.4345,0.15312 0.83701,0.33274 1.08624,0.45935c0.39409,0.20019 0.86899,0.15312 1.30349,0.30624c0.43449,0.15312 0.87461,0.25718 1.30348,0.30623c0.67813,0.07756 1.09186,0.25719 1.52073,0.30624c0.67814,0.07756 1.30838,0.2501 1.95524,0.30623c1.77806,0.15427 2.38974,0.45936 3.69322,0.45936c0.86899,0 1.93521,0.22909 2.82423,0.30623c1.29372,0.11225 2.39235,0.14068 3.91046,0.30624c1.30593,0.14243 2.39189,0.24521 4.12772,0.30623c2.1806,0.07665 3.69322,0.15312 5.43121,0.15312c1.73798,0 3.04147,0 4.5622,0c1.30349,0 2.38974,0 3.25873,0c0.65174,0 1.30348,0 1.95522,0c0.86899,0 1.52916,-0.07358 2.17249,0c0.67813,0.07756 1.30348,0.45936 1.73798,0.76559c0.21725,0.15311 0.43449,0.45935 0.65174,0.61247c0.21725,0.15312 0.4345,0.30623 0.4345,0.30623c0.21725,0 0.21725,0.15312 0.43449,0.15312c0.21725,0 0.4345,0 0.65175,0c0.43449,0 0.8307,-0.07446 1.30348,-0.15312c0.42288,-0.07036 1.08624,0 1.30349,0c0.43449,0 0.86899,0 1.08623,0c0.4345,0 0.86899,0 0.86899,0c0.21725,0 0.86899,0 1.52075,0c1.52073,0 2.82422,-0.15312 4.9967,-0.15312c1.08624,0 2.58696,0.07598 3.47597,0.15312c0.64687,0.05613 1.30348,0 1.73798,0c0.21724,0 0.4345,0 0.4345,0c0.21724,0 0.44613,-0.08277 0.86898,-0.15312c0.4728,-0.07866 0.869,-0.15311 1.08624,-0.15311c0.21726,0 0.65174,0 1.08624,0c0.65174,0 1.52155,-0.02288 2.17249,0c2.18061,0.07665 2.58058,0.22867 3.25871,0.30623c0.85778,0.09811 1.73801,0 2.60699,0c0.869,0 2.17249,0 2.82423,0c0.86898,0 1.30348,0 1.73798,0c0.21724,0 1.32248,0.03155 2.38973,-0.30623c1.77261,-0.56103 3.25687,-0.92812 4.77945,-1.07183c1.73601,-0.16385 3.04149,-0.30623 4.56221,-0.30623c1.52075,0 2.42432,-0.0935 3.04149,-0.30624c0.70364,-0.24255 1.30348,-0.45935 1.52072,-0.61247c0.4345,-0.30624 0.869,-0.45935 1.08624,-0.45935c0.4345,0 0.84262,-0.07556 1.52075,-0.15312c0.42888,-0.04905 0.86898,0 1.08624,0c0.43448,0 0.65755,0.03518 0.86898,0c0.4728,-0.07866 0.83071,-0.22757 1.30348,-0.30623c0.42288,-0.07036 0.83071,-0.07446 1.30351,-0.15312c0.42285,-0.07035 0.88762,-0.06438 1.30348,-0.15312c0.74968,-0.15998 1.04795,-0.53381 1.52075,-0.61247c0.6343,-0.10554 1.2771,-0.07555 1.95522,-0.15311c0.64332,-0.07358 1.30348,0 1.95522,0c0.4345,0 1.10328,0.03217 1.73798,-0.15312c0.44881,-0.13102 0.66337,-0.23588 1.08624,-0.30624c0.4728,-0.07866 0.65755,-0.27105 0.869,-0.30623c0.47277,-0.07866 0.68481,-0.18905 1.08624,-0.30624c0.28385,-0.08286 0.39619,-0.22757 0.86898,-0.30623c0.42288,-0.07036 0.58513,-0.22337 0.869,-0.30624c0.20069,-0.05859 0.43448,-0.15311 0.65174,-0.15311c0.21724,0 0.65174,-0.15312 0.86898,-0.15312c0.21726,0 0.66337,-0.08276 1.08624,-0.15312c0.4728,-0.07866 0.39621,-0.38069 0.869,-0.45935c0.42285,-0.07035 0.66829,-0.09453 0.86898,-0.15312c0.28387,-0.08287 0.21726,-0.30623 0.4345,-0.30623c0,0 0.21724,0 0.21724,0c0,0.15311 0,0.30623 0.21726,0.30623c0,0 0,0 0,0.15312c0,0 0,0 0,0.15312c0,0 0,0 0,0.15311c0,0 0,0 0,0.15312c0,0 0,0.15312 0,0.15312c0,0.15312 -0.09968,0.10617 -0.21726,0.30623c-0.08315,0.14147 0,0.15312 0,0.30624c0,0.15312 -0.21724,0.15312 -0.21724,0.30623c0,0.15312 -0.13411,0.16477 -0.21724,0.30624c-0.11759,0.20006 -0.4345,0.30623 -0.4345,0.30623c-0.21726,0.15312 -0.4345,0.30624 -0.65174,0.61247c0,0 -0.13413,0.31789 -0.21726,0.45936c-0.11756,0.20005 -0.31692,0.25928 -0.4345,0.45935c-0.08313,0.14147 -0.21724,0.30623 -0.43448,0.45935c0,0 -0.13413,0.16477 -0.21726,0.30624c-0.11756,0.20005 -0.13411,0.31788 -0.21724,0.45935c-0.11756,0.20006 -0.15066,0.22337 -0.4345,0.30623c-0.20072,0.05859 -0.21724,0.15312 -0.65174,0.30624c0,0 -0.21724,0.15312 -0.21724,0.15312c-0.21726,0.15311 -0.32028,0.3291 -0.4345,0.45935c-0.25539,0.29125 -0.65174,0.30622 -0.869,0.45935c-0.21724,0.15312 -0.43448,0.30623 -0.65174,0.45935c-0.21724,0.15311 -0.43448,0.30624 -0.43448,0.45936c0,0 -0.13413,0.16477 -0.21726,0.30623c-0.11756,0.20006 -0.21724,0.30624 -0.21724,0.30624c-0.21726,0.15312 -0.21726,0.30623 -0.4345,0.45935c0,0 -0.13409,0.16477 -0.21724,0.30624c-0.11759,0.20006 -0.06364,0.35108 -0.21726,0.45935c-0.15362,0.10827 -0.15063,0.22336 -0.43448,0.30624c-0.20072,0.05861 -0.28088,0.04484 -0.4345,0.15311c-0.15362,0.10827 -0.21726,0.15311 -0.4345,0.30624c-0.21724,0.15311 -0.36789,0.37649 -0.65174,0.45935c-0.20069,0.05859 -0.43448,0.15311 -0.65174,0.30624c-0.21726,0.15313 -0.36771,0.3347 -0.65174,0.61246c-0.17965,0.17569 -0.45102,0.24765 -0.65174,0.30624c-0.28385,0.08286 -0.47211,0.28368 -0.65176,0.45935c-0.28406,0.27776 -0.58495,0.48783 -0.86898,0.76559c-0.17963,0.17565 -0.4345,0.30624 -0.65174,0.45935c0,0 -0.21726,0.15311 -0.4345,0.30624c-0.21724,0.15311 -0.4345,0.15311 -0.65174,0.30624c-0.21724,0.15311 -0.36789,0.22336 -0.65174,0.30622c-0.20072,0.05861 -0.39637,-0.13812 -0.65174,0.15313c-0.1142,0.13025 -0.4345,0.15311 -0.65174,0.30622c-0.21726,0.15313 -0.52549,0.37037 -0.869,0.61248c-0.34351,0.24211 -0.53418,0.25929 -0.65174,0.45935c-0.08313,0.14145 -0.23381,0.24765 -0.4345,0.30624c-0.28385,0.08286 -0.56861,0.3179 -0.65174,0.45935c-0.11756,0.20006 -0.21724,0.15311 -0.21724,0.15311c-0.21726,0.15313 -0.23379,0.09454 -0.4345,0.15313c-0.28385,0.08286 -0.15066,0.22336 -0.4345,0.30622c-0.20069,0.05859 -0.45105,0.09454 -0.65174,0.15313c-0.28385,0.08286 -0.61976,0.33275 -0.869,0.45935c-0.39407,0.20017 -0.86898,0.30624 -1.08622,0.45935c-0.21726,0.15313 -0.69218,0.25916 -1.08624,0.45935c-0.4985,0.25322 -0.60766,0.3455 -0.869,0.45935c-0.5844,0.25455 -0.83699,0.33275 -1.08624,0.45937c-0.39407,0.20019 -0.39619,0.38069 -0.86898,0.45935c-0.21145,0.03518 -0.44613,0.08276 -0.869,0.15311c-0.47277,0.07866 -0.83699,0.17962 -1.08624,0.30624c-0.39407,0.20019 -0.58513,0.22336 -0.86898,0.30624c-0.40143,0.1172 -0.61976,0.1796 -0.869,0.30622c-0.39409,0.20019 -0.58513,0.37649 -0.86898,0.45935c-0.20069,0.05859 -0.4345,0.15313 -0.65174,0.15313c-0.21726,0 -0.23381,0.09452 -0.4345,0.15311c-0.28385,0.08288 -0.45102,0.09454 -0.65174,0.15313c-0.28385,0.08286 -0.36789,0.22336 -0.65174,0.30622c-0.20072,0.05861 -0.66829,0.09452 -0.869,0.15313c-0.28385,0.08286 -0.4345,0.15311 -0.65174,0.30622c0,0 -0.15063,0.07025 -0.4345,0.15313c-0.20069,0.05859 -0.28086,-0.10827 -0.43448,0c-0.15362,0.10827 -0.21726,0.15311 -0.4345,0.15311c-0.21726,0 -0.21726,0 -0.65174,0.15313c0,0 -0.45102,0.09452 -0.65174,0.15311c-0.28385,0.08286 -0.65176,0.30624 -1.08624,0.45935c-0.4345,0.15311 -0.86898,0.15311 -1.08624,0.30624c-0.21726,0.15313 -0.4345,0.15311 -0.869,0.15311c-0.43448,0 -0.65174,0 -0.86898,0c-0.21726,0 -0.4345,0 -0.65174,0c-0.21726,0 -0.4345,0 -0.4345,0c-0.21724,0.15313 -0.4345,0.15313 -0.65174,0.15313c-0.21726,0 -0.21726,0 -0.4345,0.15311c0,0 -0.21724,0 -0.21724,0c-0.21726,0 -0.36789,0.07025 -0.65174,0.15311c-0.20072,0.05861 -0.36789,0.07025 -0.65176,0.15313c-0.40141,0.11718 -0.66829,0.09452 -0.86898,0.15311c-0.28385,0.08286 -0.49812,0.19797 -0.65174,0.30624c-0.15362,0.10827 -0.4345,0 -0.65174,0c-0.21726,0 -0.4345,0 -0.65176,0c-0.21724,0 -0.43448,0.15311 -0.65174,0.15311c-0.21724,0 -0.43448,0 -0.65174,0c-0.21724,0 -0.4345,0 -0.65174,0c-0.21724,0 -0.4345,0 -0.65174,0c-0.21724,0 -0.4345,0 -0.65174,0c-0.4345,0 -0.65174,0 -1.08624,0c-0.4345,0 -0.58513,0.07025 -0.869,0.15313c-0.40141,0.11718 -0.65174,0 -0.86898,0c-0.21724,0 -0.4345,0 -0.65174,0c-0.21726,0 -0.4345,0 -0.65174,0c-0.21726,0 -0.4345,0 -0.65174,0c0,0 -0.21726,0 -0.21726,0c-0.21724,0 -0.21724,0 -0.4345,0c0,0 -0.21724,0.15311 -0.43448,0.15311c-0.21726,0 -0.4345,0 -0.65174,0c-0.21726,0 -0.21726,0.15311 -0.4345,0.15311c-0.21726,0 -0.45105,-0.05859 -0.65174,0c-0.28387,0.08288 -0.4345,0.15313 -0.65174,0.15313c0,0 -0.21726,0 -0.21726,0c-0.21724,0 -0.21724,0 -0.43449,0c0,0 -0.21725,0 -0.21725,0c-0.21725,0 -0.21725,0 -0.43449,0c0,0 -0.21725,0 -0.21725,0c-0.21725,0 -0.4345,0 -0.86899,0c-0.21725,0 -0.4345,0 -0.65175,0c-0.43449,0 -0.86899,0 -1.30348,0c-0.21725,0 -0.4345,-0.15313 -0.65174,-0.15313c-0.21725,0 -0.21725,0 -0.4345,0c-0.21725,0 -0.43449,0 -0.65174,0c0,0 -0.21725,0 -0.4345,0c-0.21724,0 -0.43449,0 -0.65174,0c-0.43449,0 -0.65174,-0.15311 -0.86899,-0.15311c-0.21725,0 -0.43449,0 -0.43449,0c-0.21725,0 -0.21725,-0.15311 -0.4345,-0.15311c-0.21725,0 -0.43449,0 -0.65174,0c-0.21725,0 -0.36789,-0.07025 -0.65174,-0.15313c-0.40142,-0.1172 -0.65175,-0.15311 -0.86899,-0.15311c-0.21725,0 -0.46757,-0.03595 -0.86899,-0.15313c-0.28385,-0.08286 -0.66829,-0.09452 -0.86899,-0.15311c-0.28385,-0.08286 -0.36789,-0.22336 -0.65175,-0.30624c-0.20071,-0.05859 -0.43449,-0.15311 -0.65174,-0.15311c-0.43449,0 -0.65755,0.03518 -0.86899,0c-0.47278,-0.07866 -0.65174,-0.15311 -0.86899,-0.15311c-0.21725,0 -0.43449,0 -0.65174,0c-0.21725,0 -0.4345,0 -0.65174,0c0,0 -0.15064,-0.07025 -0.4345,-0.15313c-0.20072,-0.05859 -0.49813,0.10827 -0.65174,0c-0.15361,-0.10827 -0.4345,-0.15311 -0.65175,-0.15311c0,0 -0.45102,0.05859 -0.65174,0c-0.28386,-0.08288 -0.46756,-0.18906 -0.86899,-0.30624c-0.28385,-0.08286 -0.43449,-0.30624 -0.86899,-0.30624c-0.43449,0 -0.65174,0 -1.30348,0c-0.65175,0 -1.01965,-0.22336 -1.30349,-0.30622c-0.20072,-0.05859 -0.22005,0.02453 -0.43449,0c-0.67814,-0.07757 -0.95304,-0.29363 -1.52075,-0.45937c-0.40142,-0.1172 -0.66828,-0.09452 -0.86899,-0.15311c-0.28383,-0.08286 -0.21724,-0.15311 -0.43449,-0.15311c-0.21725,0 -0.06362,-0.04486 -0.21725,-0.15313c-0.15362,-0.10827 -0.21725,0 -0.21725,0c-0.21724,0 -0.21724,0 -0.21724,0c-0.21725,-0.15311 -0.21725,-0.15311 -0.4345,-0.15311c0,0 -0.21725,0 -0.43449,-0.15311c0,0 -0.21725,-0.15313 -0.65175,-0.15313c0,0 -0.21724,-0.15311 -0.43449,-0.15311c-0.21725,0 -0.4345,-0.15313 -0.4345,-0.15313c-0.21724,0 -0.43449,-0.15311 -0.43449,-0.15311c-0.21725,0 -0.4345,-0.15311 -0.4345,-0.15311c-0.21724,0 -0.43449,-0.15313 -0.43449,-0.15313c-0.21725,-0.15311 -0.40252,-0.17962 -0.65174,-0.30622c-0.39409,-0.20021 -0.80241,-0.22338 -1.08624,-0.30624c-0.20072,-0.05859 -0.46757,-0.18906 -0.86899,-0.30624c-0.28385,-0.08286 -0.44032,-0.27105 -0.65175,-0.30624c-0.47278,-0.07866 -0.58515,-0.22336 -0.86899,-0.30622c-0.20071,-0.05859 -0.4749,0.04708 -0.86899,-0.15313c-0.24922,-0.1266 -0.65755,-0.27105 -0.86899,-0.30624c-0.47278,-0.07866 -0.86898,-0.30622 -1.30348,-0.45935c-0.4345,-0.15313 -0.65173,-0.30622 -0.86899,-0.45935c-0.21725,-0.15311 -0.66828,-0.24765 -0.86899,-0.30624c-0.28385,-0.08286 -0.75142,-0.25928 -0.86899,-0.45935c-0.08313,-0.14145 -0.09944,-0.0703 -2.17249,-1.37805c-0.68679,-0.43324 -1.45674,-0.8186 -1.95522,-1.07183c-0.39409,-0.20019 -0.65175,-0.45935 -1.08624,-0.61246c0,0 -0.21725,-0.15313 -0.4345,-0.30624c-0.21724,-0.15311 -0.43449,-0.30624 -0.65174,-0.45935c-0.43451,-0.30624 -0.45104,-0.40076 -0.65174,-0.45935c-0.28386,-0.08288 -0.40252,-0.33273 -0.65175,-0.45935c-0.39409,-0.20019 -0.86899,-0.30624 -1.30348,-0.61248c-0.4345,-0.30624 -0.91392,-0.58378 -1.30349,-0.9187c-0.4966,-0.42694 -0.86899,-0.76559 -1.08623,-0.9187c-0.4345,-0.30624 -0.65176,-0.45937 -1.08624,-0.76559c-0.21725,-0.15313 -0.4345,-0.30624 -0.65174,-0.45935c-0.21725,-0.15313 -0.4345,-0.30624 -0.65175,-0.45936c-0.21724,-0.15312 -0.28088,-0.35109 -0.43449,-0.45935c-0.15362,-0.10827 -0.4345,-0.15312 -0.4345,-0.30624c0,0 -0.15044,-0.1816 -0.43449,-0.45935c-0.17965,-0.17567 -0.4721,-0.43681 -0.65174,-0.61247c-0.28405,-0.27776 -0.47211,-0.43681 -0.65175,-0.61247c-0.28405,-0.27776 -0.54013,-0.43237 -0.65174,-0.76559c-0.04992,-0.14902 -0.32288,-0.43237 -0.43449,-0.76559c-0.09982,-0.29804 -0.21725,-0.61247 -0.4345,-0.9187c-0.21725,-0.30624 -0.21725,-0.45936 -0.43449,-0.61247c0,0 -0.21725,-0.15312 -0.21725,-0.15312l0,0l0,0" id="svg_47" opacity="undefined" stroke-opacity="null" stroke-dasharray="null" stroke-width="null" fill="#000000"/>
    </g>
</svg>