<svg width="512" height="512" xmlns="http://www.w3.org/2000/svg">
    <g id="hair-bg">
        <ellipse fill="#HAIR" stroke-width="8" fill-opacity="null" cx="339.99291" cy="228.36707" rx="24.56405" ry="21" transform="rotate(35.09581756591797 339.992919921875,228.36706542968756) " stroke="#HAIR"/>
        <ellipse fill="#HAIR" stroke-width="8" fill-opacity="null" cx="164.99291" cy="235.36707" rx="24.56405" ry="21" transform="rotate(35.09581756591797 164.99290466308585,235.36706542968756) " stroke="#HAIR"/>
        <ellipse fill="#HAIR" stroke-width="8" fill-opacity="null" cx="339.99291" cy="108.36707" rx="24.56405" ry="21" transform="rotate(35.09581756591797 339.992919921875,108.36706542968756) " stroke="#HAIR"/>
        <ellipse fill="#HAIR" stroke-width="8" fill-opacity="null" cx="175.49291" cy="113.86706" rx="29.28524" ry="26.84896" transform="rotate(35.09581756591797 175.49288940429688,113.86706542968747) " stroke="#HAIR"/>
        <ellipse stroke="#HAIR" fill="#HAIR" stroke-width="8" fill-opacity="null" cx="314.24034" cy="256.78418" rx="24.03333" ry="21"/>
        <ellipse stroke="#HAIR" fill="#HAIR" stroke-width="8" fill-opacity="null" cx="193.24034" cy="260.78418" rx="24.03333" ry="21"/>
        <ellipse fill="#HAIR" stroke-width="8" fill-opacity="null" cx="310.99291" cy="250.36707" rx="24.56405" ry="21" stroke="#HAIR"/>
        <ellipse fill="#HAIR" stroke-width="8" fill-opacity="null" cx="198.99291" cy="246.36707" rx="24.56405" ry="21" transform="rotate(35.09581756591797 198.99290466308605,246.36706542968747) " stroke="#HAIR"/>
        <ellipse fill="#HAIR" stroke-width="8" fill-opacity="null" cx="340.99291" cy="188.36707" rx="24.56405" ry="21" stroke="#HAIR"/>
        <ellipse fill="#HAIR" stroke-width="8" fill-opacity="null" cx="163.99291" cy="194.36707" rx="24.56405" ry="21" stroke="#HAIR"/>
        <ellipse fill="#HAIR" stroke-width="8" fill-opacity="null" cx="161.99291" cy="156.36707" rx="24.56405" ry="21" transform="rotate(35.09581756591797 161.99290466308597,156.36706542968747) " stroke="#HAIR"/>
        <ellipse fill="#HAIR" stroke-width="8" fill-opacity="null" cx="341.99291" cy="147.36707" rx="24.56405" ry="21" stroke="#HAIR"/>

    </g>
</svg>        