<svg width="512" height="512" xmlns="http://www.w3.org/2000/svg">
  <g stroke="null" id="hair-bg">
        <ellipse stroke="#HAIR" transform="rotate(35.09581756591797 339.992919921875,228.36706542968756) " ry="21" rx="24.56405" id="svg_50" cy="228.36707" cx="339.99291" fill-opacity="null" stroke-width="8" fill="#HAIR"/>
        <ellipse stroke="#HAIR" transform="rotate(35.09581756591797 164.99290466308585,235.36706542968756) " ry="21" rx="24.56405" id="svg_49" cy="235.36707" cx="164.99291" fill-opacity="null" stroke-width="8" fill="#HAIR"/>
        <ellipse stroke="#HAIR" transform="rotate(35.09581756591797 339.992919921875,108.36706542968756) " ry="21" rx="24.56405" id="svg_48" cy="108.36707" cx="339.99291" fill-opacity="null" stroke-width="8" fill="#HAIR"/>
        <ellipse stroke="#HAIR" transform="rotate(35.09581756591797 175.49288940429688,113.86706542968747) " ry="26.84896" rx="29.28524" id="svg_47" cy="113.86706" cx="175.49291" fill-opacity="null" stroke-width="8" fill="#HAIR"/>
        <ellipse ry="21" rx="24.03333" id="svg_25" cy="256.78418" cx="314.24034" fill-opacity="null" stroke-width="8" fill="#HAIR" stroke="#HAIR"/>
        <ellipse ry="21" rx="24.03333" id="svg_24" cy="260.78418" cx="193.24034" fill-opacity="null" stroke-width="8" fill="#HAIR" stroke="#HAIR"/>
        <ellipse stroke="#HAIR" ry="21" rx="24.56405" id="svg_45" cy="250.36707" cx="310.99291" fill-opacity="null" stroke-width="8" fill="#HAIR"/>
        <ellipse stroke="#HAIR" transform="rotate(35.09581756591797 198.99290466308605,246.36706542968747) " ry="21" rx="24.56405" id="svg_44" cy="246.36707" cx="198.99291" fill-opacity="null" stroke-width="8" fill="#HAIR"/>
        <ellipse stroke="#HAIR" ry="21" rx="24.56405" id="svg_36" cy="188.36707" cx="340.99291" fill-opacity="null" stroke-width="8" fill="#HAIR"/>
        <ellipse stroke="#HAIR" ry="21" rx="24.56405" id="svg_35" cy="194.36707" cx="163.99291" fill-opacity="null" stroke-width="8" fill="#HAIR"/>
        <ellipse stroke="#HAIR" transform="rotate(35.09581756591797 161.99290466308597,156.36706542968747) " ry="21" rx="24.56405" id="svg_34" cy="156.36707" cx="161.99291" fill-opacity="null" stroke-width="8" fill="#HAIR"/>
        <ellipse stroke="#HAIR" ry="21" rx="24.56405" id="svg_33" cy="147.36707" cx="341.99291" fill-opacity="null" stroke-width="8" fill="#HAIR"/>
 
  </g>
</svg>        
