<svg width="512" height="512" xmlns="http://www.w3.org/2000/svg">
    <g id="hair-bg">
        <path fill="#HAIR" stroke-width="4" stroke-opacity="null" id="svg_55" d="m338.65957,200.45313c0,0 -0.87296,2.07217 0,6c1.17526,5.28799 5.71855,8.54914 6.92435,12c1.00328,2.87127 0,4 0,4c0,0 0,1 0,2c0,1 -0.44163,3.07612 0,4c1.24914,2.61312 2.30812,3 3.46217,4c1.15406,1 1.68354,0.69343 2.30812,2c0.44163,0.92387 0.88891,2.02674 1.15406,3c0.59289,2.17625 1.55358,3.70545 3.46217,6c1.50887,1.81399 2.30812,3 2.30812,4c0,1 1.15406,1 1.15406,1c0,0 0.35379,1.4588 -1.15406,2c-1.06621,0.38269 -2.30812,1 -3.46217,1c-1.15406,0 -2.30812,0 -3.46217,0c0,0 -1.15406,0 -1.15406,0c0,0 -1.15406,0 -1.15406,0c-1.15406,-1 -1.15406,-2 -3.46217,-3c-2.30812,-1 -3.25877,-1.48626 -5.77029,-2c-2.24637,-0.45951 -3.46217,0 -4.61623,0c-1.15406,0 -2.30812,0 -3.46217,0c0,0 0,0 -1.15406,0c-1.15406,0 -0.80027,0.4588 -2.30812,1c-2.13242,0.76536 -3.46217,0 -4.61623,0c-1.15406,0 -3.46217,0 -4.61623,0c-1.15406,0 -2.30812,0 -2.30812,0c-1.15406,0 -1.15406,0 -2.30812,0c0,0 0,0 0,0c-1.15406,0 -1.15406,0 -2.30812,0c-1.15406,0 -2.30812,0 -2.30812,0c-1.15406,0 -1.15406,0 -1.15406,0l-1.15406,0" stroke="#HAIR"/>
        <path fill="#HAIR" stroke="#HAIR" stroke-width="4" stroke-opacity="null" id="svg_54" d="m161.5,195.45313c0,0 0.75643,2.07217 0,6c-1.01837,5.28799 -4.95517,8.54915 -6,12c-0.86935,2.87128 0,4 0,4c0,0 0,1 0,2c0,1 0.38268,3.07613 0,4c-1.08239,2.61313 -2,3 -3,4c-1,1 -1.4588,0.69344 -2,2c-0.38268,0.92387 -0.77025,2.02675 -1,3c-0.51374,2.17625 -1.34619,3.70546 -3,6c-1.30745,1.814 -2,3 -2,4c0,1 -1,1 -1,1c0,0 -0.30656,1.4588 1,2c0.92388,0.38269 2,1 3,1c1,0 2,0 3,0c0,0 1,0 1,0c0,0 1,0 1,0c1,-1 1,-2 3,-3c2,-1 2.82375,-1.48625 5,-2c1.9465,-0.4595 3,0 4,0c1,0 2,0 3,0c0,0 0,0 1,0c1,0 0.69344,0.4588 2,1c1.84776,0.76537 3,0 4,0c1,0 3,0 4,0c1,0 2,0 2,0c1,0 1,0 2,0c0,0 0,0 0,0c1,0 1,0 2,0c1,0 2,0 2,0c1,0 1,0 1,0l1,0"/>
    </g>
</svg>        
