<svg width="512" height="512" xmlns="http://www.w3.org/2000/svg">
    <g id="hair-bg">
        <ellipse stroke="#HAIR" transform="rotate(35.09581756591797 339.992919921875,228.36706542968756) " ry="21" rx="24.56405" id="svg_50" cy="228.36707" cx="339.99291" stroke-width="8" fill="#HAIR"/>
        <ellipse stroke="#HAIR" transform="rotate(35.09581756591797 164.99290466308585,235.36706542968756) " ry="21" rx="24.56405" id="svg_49" cy="235.36707" cx="164.99291" stroke-width="8" fill="#HAIR"/>
        <ellipse stroke="#HAIR" transform="rotate(35.09581756591797 339.9929199218751,108.36707305908205) " ry="21" rx="24.56405" id="svg_48" cy="108.36707" cx="339.99291" stroke-width="8" fill="#HAIR"/>
        <ellipse stroke="#HAIR" transform="rotate(35.09581756591797 175.49291992187494,113.86705780029298) " ry="26.84896" rx="29.28524" id="svg_47" cy="113.86706" cx="175.49291" stroke-width="8" fill="#HAIR"/>
        <ellipse ry="21" rx="24.03333" id="svg_25" cy="256.78418" cx="314.24034" stroke-width="8" fill="#HAIR" stroke="#HAIR"/>
        <ellipse ry="21" rx="24.03333" id="svg_24" cy="260.78418" cx="193.24034" stroke-width="8" fill="#HAIR" stroke="#HAIR"/>
        <ellipse stroke="#HAIR" ry="21" rx="24.56405" id="svg_45" cy="250.36707" cx="310.99291" stroke-width="8" fill="#HAIR"/>
        <ellipse stroke="#HAIR" transform="rotate(35.09581756591797 198.99290466308605,246.36706542968747) " ry="21" rx="24.56405" id="svg_44" cy="246.36707" cx="198.99291" stroke-width="8" fill="#HAIR"/>
        <ellipse stroke="#HAIR" ry="21" rx="24.56405" id="svg_36" cy="188.36707" cx="340.99291" stroke-width="8" fill="#HAIR"/>
        <ellipse stroke="#HAIR" ry="21" rx="24.56405" id="svg_35" cy="194.36707" cx="163.99291" stroke-width="8" fill="#HAIR"/>
        <ellipse stroke="#HAIR" ry="21" rx="24.56405" id="svg_34" cy="156.36707" cx="161.99291" stroke-width="8" fill="#HAIR"/>
        <ellipse stroke="#HAIR" ry="21" rx="24.56405" id="svg_33" cy="147.36707" cx="341.99291" stroke-width="8" fill="#HAIR"/>
        <ellipse stroke="#HAIR" ry="21" rx="24.56405" id="svg_38" cy="176.36707" cx="147.99291" stroke-width="8" fill="#HAIR"/>
        <ellipse stroke="#HAIR" ry="21" rx="24.56405" id="svg_39" cy="203.36707" cx="144.99291" stroke-width="8" fill="#HAIR"/>
        <ellipse stroke="#HAIR" ry="21" rx="24.56405" id="svg_40" cy="133.36707" cx="151.99291" stroke-width="8" fill="#HAIR"/>
        <ellipse stroke="#HAIR" ry="21" rx="24.56405" id="svg_41" cy="154.36707" cx="140.99291" stroke-width="8" fill="#HAIR"/>
        <ellipse stroke="#HAIR" ry="21" rx="24.56405" id="svg_42" cy="104.36707" cx="156.99291" stroke-width="8" fill="#HAIR"/>
        <ellipse stroke="#HAIR" ry="21" rx="24.56405" id="svg_43" cy="135.36707" cx="359.99291" stroke-width="8" fill="#HAIR"/>
        <ellipse stroke="#HAIR" ry="21" rx="24.56405" id="svg_53" cy="170.36707" cx="369.99291" stroke-width="8" fill="#HAIR"/>
        <ellipse stroke="#HAIR" ry="21" rx="24.56405" id="svg_54" cy="209.36707" cx="371.99291" stroke-width="8" fill="#HAIR"/>
        <ellipse stroke="#HAIR" ry="21" rx="24.56405" id="svg_55" cy="231.36707" cx="144.99291" stroke-width="8" fill="#HAIR"/>
        <ellipse stroke="#HAIR" ry="21" rx="24.56405" id="svg_56" cy="116.36707" cx="361.99291" stroke-width="8" fill="#HAIR"/>
        <ellipse stroke="#HAIR" ry="21" rx="24.56405" id="svg_57" cy="45.36707" cx="231.99291" stroke-width="8" fill="#HAIR"/>
        <ellipse stroke="#HAIR" ry="21" rx="24.56405" id="svg_58" cy="47.16849" cx="277.59182" stroke-width="8" fill="#HAIR"/>
        <ellipse stroke="#HAIR" ry="21" rx="24.56405" id="svg_68" cy="215.16687" cx="133.5932" stroke-width="8" fill="#HAIR"/>
        <ellipse stroke="#HAIR" ry="21" rx="24.56405" id="svg_69" cy="182.36719" cx="132.79321" stroke-width="8" fill="#HAIR"/>
        <ellipse stroke="#HAIR" ry="21" rx="24.56405" id="svg_70" cy="191.1671" cx="384.79078" stroke-width="8" fill="#HAIR"/>
        <ellipse stroke="#HAIR" ry="21" rx="24.56405" id="svg_71" cy="230.36672" cx="377.59086" stroke-width="8" fill="#HAIR"/>
    </g>
</svg>        