<svg width="512" height="512" xmlns="http://www.w3.org/2000/svg">
<g stroke="null" id="hair">
   <path stroke="null" d="m163,94.36747l0,45.63253l28.30769,-42.59036s34.37362,7.30121 63.6923,7.30121s63.69229,-7.30121 63.69229,-7.30121l28.30769,42.59036l0,-45.63253c0,-30.57866 -41.18971,-55.36747 -92,-55.36747c-50.81028,0 -92.00001,24.78881 -92.00001,55.36747l0.00002,0z" fill="#HAIR" id="svg_43"/>
   <path stroke="#HIGHLIGHTS" fill="#HAIR" stroke-width="2" id="svg_65" d="m264.97025,85.61102c0,0 0,-0.61404 0,-1.84211c0,-1.84211 -0.45435,-3.10189 0,-5.52632c0.35919,-1.91668 2.12733,-4.29825 2.83645,-5.52632c0.70911,-1.22807 2.12733,-1.84211 2.83645,-3.07018c0.70911,-1.22807 2.49112,-2.20684 3.54556,-3.68421c1.17891,-1.65175 2.12733,-3.07018 2.83645,-3.68421c1.41823,-1.22807 3.41272,-3.19716 4.96379,-4.29825c1.97724,-1.40361 3.60118,-2.3271 5.67289,-3.07018c1.46492,-0.52544 3.56387,-1.03136 4.96379,-1.22807c2.21345,-0.31103 3.58351,-0.33188 4.96379,-0.61404c1.54321,-0.31545 2.12733,-0.61404 2.83645,-0.61404c0.70911,0 0.70911,0 0.70911,0c0,0 0,0.61404 -0.70911,0.61404c0,0 0,0.61404 0,0.61404c0,0 -0.70911,0.61404 -0.70911,0.61404c-0.70911,1.22807 -1.74357,1.65386 -2.12733,2.45614c-0.27136,0.56729 -0.70911,1.22807 -0.70911,2.45614c0,0.61404 0.16292,1.85853 0,2.45614c-0.3643,1.3363 -0.70911,1.84211 -0.70911,2.45614c0,0.61404 0,1.22807 0,1.84211c0,0.61404 0,1.84211 0,2.45614c0,0.61404 0,1.22807 0,2.45614c0,0.61404 -0.16292,1.24449 0,1.84211c0.3643,1.3363 1.03445,1.65386 1.41823,2.45614c0.27136,0.56729 -0.50142,2.02195 0,2.45614c0.50142,0.43419 0.70911,0.61404 0.70911,1.22807c0,0.61404 -0.27136,0.66078 0,1.22807c0.38377,0.80228 0.70911,0.61404 0.70911,1.22807c0,0 0,0 0,0c0,0.61404 0.43775,1.27481 0.70911,1.84211c0.38377,0.80228 1.41823,2.45614 2.12733,3.07018c0.70911,0.61404 0.70911,1.22807 1.41823,1.22807l0,0"/>
   <path stroke="#HIGHLIGHTS" fill="none" stroke-width="2" id="svg_66" d="m233.88525,81.45313c0,0 0,-1 0,-2c0,-2 -2.01093,-4 -4.02186,-6c-3.01639,-3 -6.24072,-4.81266 -8.04372,-7c-2.29836,-2.78833 -3.09294,-3.61732 -4.02186,-4c-1.3137,-0.54119 -1.29995,-0.29289 -2.01093,-1c-0.71097,-0.70711 -0.8574,-1.1731 -2.01093,-2c-1.82391,-1.30745 -3.95564,-1.14429 -6.03279,-2c-2.93753,-1.21015 -5.85557,-3.48626 -8.04372,-4c-1.95714,-0.45951 -3.01639,0 -3.01639,0c0,0 -1.00546,0 -1.00546,0l-1.00546,0l0,0"/>
   <path stroke="#HIGHLIGHTS" fill="none" stroke-width="2" id="svg_67" d="m216.79236,92.45313c0,-2 0.12301,-3.066 -1.00546,-5c-1.81961,-3.11848 -3.81562,-5.22021 -7.03825,-8c-3.79791,-3.27601 -4.90819,-5.19028 -8.04372,-7c-1.94456,-1.12234 -2.01093,-2 -3.01639,-2c-1.00546,0 -0.8574,-1.1731 -2.01093,-2c-1.82391,-1.30745 -4.02186,-2 -6.03279,-3c-2.01093,-1 -3.01639,-1 -4.02186,-2c0,0 -1.00546,0 -3.01639,0c-1.00546,0 -3.09294,-0.61732 -4.02186,-1c-1.3137,-0.54119 -1.00546,-1 -2.01093,-1l0,0"/>
   <path stroke="#HIGHLIGHTS" fill="none" stroke-width="2" id="svg_68" d="m249.97268,89.45313c0,0 0.18744,-2.0058 0,-5c-0.5037,-8.04668 -5.22415,-13.89171 -9.04918,-21c-2.12174,-3.94297 -4.02186,-7 -4.02186,-9c0,0 -0.46131,-0.69344 -1.00546,-2c-0.38478,-0.92388 -1.50161,-3.87856 -2.01093,-7c-0.64423,-3.94835 -0.49615,-6.87856 -1.00546,-10c-0.16107,-0.98709 0,-1 -1.00546,-1l0,-1l0,1"/>
   <path stroke="#HIGHLIGHTS" fill="none" stroke-width="2" id="svg_69" d="m260.02733,87.45313c0,-1 0,-3 0,-6c0,-5 0,-10 0,-12c0,-1 -0.71095,-2.29289 0,-3c0.71095,-0.70711 0.62068,-1.07612 1.00546,-2c0.54416,-1.30656 1.00546,-3 2.01093,-4c1.00546,-1 2.18497,-1.85273 3.01639,-3c1.3146,-1.81399 3.36448,-3.70546 5.02732,-6c1.3146,-1.81399 2.70725,-4.18601 4.02186,-6c1.66285,-2.29454 2.86831,-3.1731 4.02186,-4c1.82391,-1.30745 3.01639,-1 5.02732,-2c2.01093,-1 3.3109,-1.29289 4.02186,-2c0.71095,-0.70711 2.01093,0 2.01093,0c1.00546,0 1.00546,0 1.00546,0l1.00546,0"/>
   <path stroke="#HIGHLIGHTS" fill="none" stroke-width="2" id="svg_70" d="m274.10383,94.45313c0,-1 0.32897,-2.74183 5.02732,-9c4.33794,-5.77809 10.21082,-13.87389 15.08197,-20c3.11842,-3.92184 5.67835,-7.97252 10.05464,-9c2.93569,-0.68926 8.04372,0 10.05464,0c3.01639,0 5.02732,0 6.03279,0c2.01093,0 3.01639,-1 4.02186,-1l0,0l1.00546,0l0,0"/>
   <path stroke="#HIGHLIGHTS" fill="none" stroke-width="2" id="svg_71" d="m251.98361,86.45313c0,-1 0,-2 0,-4c0,-6 0,-9 0,-13c0,-3 0,-5 0,-6c0,-1 0,-2 0,-3c0,-1 0,-3 0,-7c0,-2 -0.43285,-5.133 1.00546,-9c0.78004,-2.09718 4.1959,-5.85273 5.02732,-7c1.3146,-1.81399 1.62615,-3.07612 2.01093,-4c0.54416,-1.30656 3.01639,-2 4.02186,-3c1.00546,-1 2.01093,-1 3.01639,-2l0,0l0,0l0,0"/>
   <path stroke="#HIGHLIGHTS" fill="none" stroke-width="2" id="svg_72" d="m198.694,92.45313c0,-1 0.28743,-2.21168 -2.01093,-5c-4.50747,-5.46835 -7.25108,-5.71412 -10.05464,-8c-3.29894,-2.68979 -5.02732,-3 -5.02732,-3c-1.00546,0 -1.00546,0 -1.00546,0c-1.00546,0 -1.00546,0 -2.01093,0c0,0 -1.00546,0 -1.00546,0c-1.00546,0 -1.00546,0 -2.01093,1c0,0 0,0 -1.00546,0l0,0"/>
   <path stroke="#HIGHLIGHTS" fill="none" stroke-width="2" id="svg_73" d="m177.57924,103.45313c0,0 0,0 -1.00546,0c-1.00546,0 -3.01639,0 -4.02186,0l0,0l-1.00546,0l-1.00546,0"/>
   <path stroke="#HIGHLIGHTS" fill="none" stroke-width="2" id="svg_74" d="m229.86339,93.45313c0,-1 0.43285,-3.133 -1.00546,-7c-0.78004,-2.09718 -4.74979,-7.22273 -8.04372,-11c-2.79498,-3.20512 -4.02186,-5 -5.02732,-5c0,0 0,-1 0,-1l0,-1l0,-1"/>
   <path stroke="#HIGHLIGHTS" fill="none" stroke-width="2" id="svg_75" d="m244.94536,93.45313c0,-2 -1.6955,-6.75211 -5.02732,-17c-3.82646,-11.76933 -6.83379,-21.09316 -11.06011,-30c-1.91908,-4.04439 -6.03279,-9 -7.03825,-10l-1.00546,0"/>
   <path stroke="#HIGHLIGHTS" fill="none" stroke-width="2" id="svg_76" d="m294.21312,93.45313c0,-1 2.2395,-3.78492 6.03279,-8c4.29373,-4.77115 6.40254,-10.56393 10.05464,-14c2.63357,-2.47779 5.08111,-5.5405 7.03825,-6c2.18813,-0.51374 2.92367,-2.49623 7.03825,-3c1.99587,-0.24437 4.02186,0 6.03279,0c3.01639,0 4.02186,0 6.03279,0c1.00546,0 2.01093,1 3.01639,2l1.00546,0l0,0l1.00546,0"/>
   <path stroke="#HIGHLIGHTS" fill="none" stroke-width="2" id="svg_77" d="m267.06558,92.45313c0,0 -1.06146,-5.39223 2.01093,-12c3.04327,-6.54514 5.91404,-13.07278 9.04918,-18c1.93861,-3.04673 4.58311,-7.51928 8.04372,-10c3.64781,-2.6149 5.41631,-3.91761 8.04372,-5c0.92894,-0.38268 3.01639,-1 4.02186,-1c2.01093,0 3.01639,-1 4.02186,-1l1.00546,0l0,0l0,0"/>
   <path stroke="#HIGHLIGHTS" fill="none" stroke-width="2" id="svg_78" d="m252.98908,93.45313c0,-2 0,-4 0,-10c0,-9 0,-18 0,-24c0,-6 0,-10 0,-13c0,-3 2.62811,-4.297 5.02732,-7c1.48792,-1.67633 3.01639,-3 4.02186,-3c1.00546,0 1.00546,0 2.01093,0l0,0l0,0l1.00546,0"/>
  </g>
</svg>