<svg width="512" height="512" xmlns="http://www.w3.org/2000/svg">
  <g id="hair" stroke="null">
   <path d="m161.00001,93.36747l0,45.63253l28.92308,-42.59036s35.12088,7.30121 65.07693,7.30121s65.07691,-7.30121 65.07691,-7.30121l28.92308,42.59036l0,-45.63253c0,-30.57866 -42.08513,-55.36747 -94,-55.36747c-51.91486,0 -94.00001,24.78881 -94.00001,55.36747l0.00002,0l-0.00001,0z" fill="#HAIR" id="svg_43" stroke="null"/>
   <path stroke="#HAIR" transform="rotate(9.67651081085205 222.8800964355469,104.18246459960926) " d="m190.61949,99.09742c1.26512,0 1.26512,0 2.53024,0c1.26512,0 2.53024,0 3.79537,1c0,0 0,0 0,1c0,1 1.26512,1 1.26512,2c0,1 -0.48414,1.07613 0,2c0.68468,1.30656 0.29684,2.15224 1.26512,4c0.68468,1.30656 2.53024,3 2.53024,4c0,1 0.78098,2.07613 1.26512,3c0.68468,1.30656 1.26512,2 1.26512,3c0,0 0,1 0,1c0,1 0,1 0,1c-1.26512,0 -1.26512,0 -2.53024,0c0,0 -1.26512,1 -1.26512,1c-1.26512,0 -1.26512,0 -1.26512,0c0,0 0,1 -1.26512,1c0,0 -0.87728,0.4588 -2.53024,1c-1.16882,0.38269 -3.79537,1 -5.06049,2c0,0 -1.26512,0 -1.26512,0c1.26512,0 1.26512,0 1.26512,0c1.26512,0 1.26512,0 2.53024,0c1.26512,0 2.62655,0.38269 3.79537,0c1.65296,-0.5412 3.57239,-1.48625 6.32561,-2c2.46256,-0.4595 3.79537,-1 5.06049,-2c1.26512,-1 3.30329,-0.92807 6.32561,-3c2.1371,-1.46507 2.34393,-2.1731 3.79537,-3c2.29492,-1.30745 2.1424,-1.4588 3.79537,-2c1.16882,-0.38269 0.87728,-0.4588 2.53024,-1c1.16882,-0.38269 1.63567,-0.29289 2.53024,-1c0.89458,-0.70711 2.62654,-0.61731 3.79537,-1c1.65296,-0.5412 3.79537,-1 6.32561,-3c1.26512,-1 2.53024,-1 3.79537,-2c0,0 0.87728,-0.4588 2.53024,-1c1.16882,-0.38269 2.0461,-1.07613 2.53024,-2c0.68468,-1.30656 1.63567,-2.29289 2.53024,-3c0.89458,-0.70711 1.26512,-1 1.26512,-2c0,0 0,-1 1.26512,-2c0,0 -0.38896,-1.186 1.26512,-3c1.04613,-1.14726 1.26512,-2 1.26512,-3c0,0 0,-1 0,-1c0,-1 0.78098,-3.07613 1.26512,-4c0.68468,-1.30656 1.26512,-2 1.26512,-3c0,0 0,0 0,1l0,1l0,1" id="svg_32" stroke-width="1.5" fill="#HAIR"/>
  </g>
</svg>