<svg width="512" height="512" xmlns="http://www.w3.org/2000/svg">
  <g
     id="hair">
    <path
       fill="#HAIR"
       d="m163.00001,97.68674l0,53.31326l28.15385,-49.75903s34.18681,8.53012 63.34615,8.53012s63.34615,-8.53012 63.34615,-8.53012l28.15385,49.75903l0,-53.31326c0,-35.72557 -40.96586,-64.68675 -91.5,-64.68675c-50.53414,0 -91.5,28.96118 -91.5,64.68675z"
       id="path32" />
    <path
       d="m 208.1645,54.114368 c 2,-1 4.34619,-2.70546 6,-5 2.6149,-3.62799 5.5635,-7.7025 8,-13 1.32138,-2.87297 3,-5 4,-7 1,-2 3,-4 4,-6 1,-2 2,-3 3,-4 1,-1 1.29289,-1.29289 2,-2 0.70711,-0.70711 1,0 2,0 0,0 1.32144,0.80901 3,4 2.50706,4.76599 3.77025,8.02675 4,9 0.51374,2.17625 1,2 2,2 0,0 0,0 1,0 0,0 0.45881,0.30656 1,-1 0.38268,-0.92387 0.77025,-1.02675 1,-2 1.02749,-4.35251 3.09544,-8.97734 4,-13 1.11866,-4.97479 1.33749,-8.3100102 3,-11.0000002 0.7435,-1.203 2,-1 2,-1 0,0 -0.38268,1.07613 0,2 0.5412,1.30656 1.61065,2.15927 3,5.0000002 1.58411,3.23892 3.33749,6.31001 5,9 0.7435,1.203 2,2 3,3 0,0 0.1731,0.85274 1,2 1.30745,1.814 1.33749,4.31001 3,7 0.7435,1.203 0,2 1,2 1,0 0,-2 0,-3 0,-6 -1.14805,-10.22836 0,-13 0.5412,-1.30656 0.29289,-2.29289 1,-3 0.70711,-0.70711 1,0 2,0 1,0 1.51301,0.59399 3,3 1.66251,2.68999 3,5 4,8 1,3 3,6 4,8 1,2 2.29289,2.29289 3,3 0.70711,0.70711 0,1 1,1 1,0 1,-2 1,1 0,1 1.8819,6.07278 5,11 1.92806,3.04672 3.75532,7.13202 6,11 1.80972,3.11847 2,4 3,5 0,0 0,0 0,0 0,-1 0,-2 0,-3 0,-1 0,-1 0,-1 v -1"
       stroke-width="null"
       stroke="#HAIR"
       fill="#HAIR"
       id="path34" />
  </g>
</svg>
