<svg width="512" height="512" xmlns="http://www.w3.org/2000/svg">
    <g id="full-beard">
        <path  fill="#HAIR" d="m313.07692,48l0,-1c0,-16.569 -14.46415,-30 -32.30769,-30l-47.38462,0c-40.38677,0 -73.35138,29.491 -75.29092,66.546c-0.056,0.812 -0.09369,1.629 -0.09369,2.454l0,109c0,50.258 43.876,91 98,91c54.124,0 98,-40.742 98,-91l0,-109c0,-20.987 -18.32169,-38 -40.92308,-38zm16.15385,168l-27.46154,25.5l-16.69231,-13.5l-58.15385,0l-16.69231,13.5l-27.46154,-25.5l0,-75.368l10.30723,-17.632l94.15431,0c14.27462,0 25.84615,-10.745 25.84615,-24l0,6.382c0,4.999 1.34508,9.919 3.91354,14.313l12.24031,20.937l0,75.368z"/>
    </g>
    <ellipse stroke="null" ry="51" rx="68.62499" id="svg_30" cy="131.45312" cx="255.37499" stroke-width="null" fill="#SKIN"/>
    <path id="svg_53" d="m212.77747,76.45313c30.40239,14.63241 38.61925,26.82608 38.20842,26.54982c0.41083,0.27626 28.34818,-19.8433 27.93733,-20.11957c0.41085,0.27627 6.16265,-5.21089 5.7518,-5.48715" stroke-width="1.5" fill="#HAIR"/>
</svg>