<svg width="512" height="512" xmlns="http://www.w3.org/2000/svg">
  <g
     transform="translate(0,748) scale(0.10000000149011612,-0.10000000149011612) "
     fill="#HAIR"
     id="hair">
    <path
       d="m 2619.6497,7328.0981 c 278.2568,-40.3398 511.5428,-134.8861 682.994,-278.5966 91.3469,-78.1583 122.2643,-114.7163 167.2351,-197.9171 60.4295,-113.4556 84.3202,-209.2626 84.3202,-336.5851 0,-97.0676 -30.9174,-271.0329 -70.2668,-389.531 -14.0534,-45.3823 -40.7548,-147.4923 -57.6189,-226.9113 -16.864,-79.4189 -33.7281,-153.7954 -36.5387,-163.8804 -12.6481,-36.5579 -32.3228,40.3398 -54.8082,206.7414 -25.2961,206.7414 -30.9174,238.2569 -56.2135,317.6759 -25.2961,83.2008 2.8107,74.3764 -522.7855,150.0135 -223.4486,31.5155 -366.7931,83.2008 -505.9215,181.529 -40.7548,28.9943 -73.0775,46.6429 -73.0775,39.0792 0,-35.2973 47.7815,-88.2433 119.4537,-133.6255 43.5654,-26.473 73.0775,-50.4248 64.6455,-52.946 -26.7014,-7.5637 -189.7206,35.2973 -247.3394,65.5522 -30.9174,17.6486 -96.9683,63.0309 -147.5604,102.11 -57.6188,45.3823 -101.1843,69.334 -119.4537,66.8128 -26.7014,-3.7818 -28.1067,-11.3456 -23.8907,-231.9538 4.216,-216.8263 2.8106,-235.7356 -37.9441,-390.7916 -23.8908,-89.5039 -46.3762,-200.4383 -51.9975,-248.3418 -5.6214,-46.6429 -12.6481,-83.2008 -15.4587,-80.6796 -2.8107,2.5213 -22.4854,80.6796 -44.9708,173.9654 -22.4854,93.2857 -67.4562,243.2993 -99.779,332.8032 -50.5921,141.1892 -28.4798,201.2133 -48.1545,386.5242 -25.2961,257.1661 90.7601,395.5492 152.5949,457.3195 283.0181,247.3591 165.6876,236.1616 731.7354,252.8942 92.7523,2.5212 186.9098,1.2606 210.8006,-1.2607 z"
       id="path21"
       />
  </g>
</svg>
