<svg width="512" height="512" xmlns="http://www.w3.org/2000/svg">
  <g id="hair">
   <path fill="#HAIR" d="m161,83.10843l0,47.89157l29.38461,-44.6988s35.68131,7.66265 66.11539,7.66265s66.11539,-7.66265 66.11539,-7.66265l29.38461,44.6988l0,-47.89157c0,-32.09246 -42.75671,-58.10843 -95.5,-58.10843c-52.74328,0 -95.5,26.01597 -95.5,58.10843z" stroke="null"/>
   <path fill="#HAIR" stroke-width="1.5" id="svg_34" d="m178.97043,97.45313c1.02688,0 2.05376,0 3.08065,0c2.05376,0 3.95631,0.1731 5.13441,1c1.86276,1.30745 4.26386,1.23463 6.16129,2c1.34168,0.5412 2.05376,1 3.08065,1c1.02688,0 1.73896,0.4588 3.08065,1c0.94871,0.38268 3.08065,0 4.10753,0c1.02688,0 3.08065,0 5.13441,0c1.02688,0 3.08065,0 4.10753,0c1.02688,0 2.13194,0.38268 3.08065,0c1.34168,-0.5412 3.08065,-1 4.10753,-1c1.02688,0 2.05376,0 2.05376,0c1.02688,0 2.05376,0 3.08065,0c1.02688,0 2.05376,0 3.08065,0c0,0 1.02688,0 2.05376,0c1.02688,0 1.73896,0.4588 3.08065,1c0.94871,0.38268 2.05376,0 3.08065,0c1.02688,0 2.05376,0 3.08065,0c2.05376,0 3.08065,0 5.13441,0c2.05376,0 4.16246,0.5405 6.16129,1c2.23475,0.51374 3.92654,2.48626 6.16129,3c1.99883,0.4595 4.10753,1 5.13441,1c2.05376,0 3.08065,0 4.10753,0c2.05376,0 2.05376,0 4.10753,0c1.02688,0 0.71209,-0.4588 2.05376,-1c0.94873,-0.38268 1.02688,0 2.05376,0c1.02688,0 2.05376,0 4.10753,0c3.08065,0 6.27116,-0.08099 10.26882,-1c2.23474,-0.51374 4.29853,-0.69255 6.16129,-2c1.17812,-0.8269 2.13192,-0.61732 3.08065,-1c1.34167,-0.5412 1.87279,-1.48626 4.10753,-2c0.9994,-0.22975 0.8459,-1.48626 3.08065,-2c0.9994,-0.22975 1.73897,-1.4588 3.08065,-2c0.94873,-0.38268 1.10504,0.38268 2.05376,0c1.34167,-0.5412 2.35455,-0.29289 3.08065,-1c0.7261,-0.70711 1.02688,-1 3.08065,-2c0,0 0.71209,-0.4588 2.05376,-1c1.89742,-0.76537 3.1588,-0.61732 4.10753,-1c2.68338,-1.08239 3.1588,-2.61732 4.10753,-3c2.68338,-1.08239 3.27165,-2.69255 5.13441,-4c1.17812,-0.8269 3.08065,-2 5.13441,-3c0,0 1.32767,0.70711 2.05376,0c0.7261,-0.70711 0,-1 0,-1c0,-2 0,-3 0,-5c0,0 0,-1 0,-2c0,0 0,-1 0,-2c0,0 0,-1 0,-1c0,-1 0,-1 -2.05376,-1c-4.10753,0 -10.30617,-0.80825 -19.51075,0c-11.43449,1.00406 -24.61022,3.49949 -35.94086,4c-11.28411,0.49846 -18.90254,0.39294 -24.64516,-2c-4.72042,-1.96699 -8.14742,-4.14429 -10.26882,-5c-3.00011,-1.21015 -5.13441,-1 -6.16129,-1c-1.02688,0 -4.13404,0.32037 -6.16129,0c-3.20535,-0.50654 -5.13441,-1 -6.16129,-1c-2.05376,0 -3.98282,-0.49346 -7.18817,-1c-5.06811,-0.80091 -9.24194,-1 -13.34946,-1c-3.08065,0 -6.16129,0 -8.21505,0c-2.05376,0 -4.10753,0 -5.13441,0c-1.02688,0 -3.08065,0 -3.08065,0l-1.02688,0l0,0" stroke="null"/>
  </g>
</svg>