<svg id="Layer_2" enable-background="new 0 0 512 512" height="512" viewBox="0 0 512 512" width="512"
     xmlns="http://www.w3.org/2000/svg">
    <g>
        <g>
            <circle cx="256" cy="256" fill="#6e83b7" r="246"/>
        </g>
        <g>
            <path d="m502 256c0 8.49-.43 16.88-1.27 25.15-4.18 41.1-18.47 79.21-40.35 111.8-36.28 54.04-93.43 92.9-159.91 105.04-14.43 2.63-29.29 4.01-44.47 4.01s-30.04-1.38-44.47-4.01c-66.48-12.14-123.63-51-159.91-105.04-21.88-32.59-36.17-70.7-40.35-111.8-.84-8.27-1.27-16.66-1.27-25.15 0-60.04 21.51-115.05 57.24-157.76 24.92-29.79 56.77-53.59 93.07-68.93 29.41-12.43 61.75-19.31 95.69-19.31s66.28 6.88 95.69 19.31c36.3 15.34 68.15 39.14 93.07 68.93 35.73 42.71 57.24 97.72 57.24 157.76z"
                  fill="#000000"/>
        </g>
        <g>
            <circle cx="256" cy="256" fill="#edeff1" r="230"/>
        </g>
        <path d="m350.979 243.698 65.875-24.796 83.875 62.248c.84-8.27 1.27-16.66 1.27-25.15 0-60.04-21.51-115.05-57.24-157.76l-36.046 102.357-63.874 24.042-78.839-58.145v-73.989l85.69-63.195c-29.41-12.43-61.75-19.31-95.69-19.31s-66.28 6.88-95.69 19.31l85.69 63.195v73.989l-78.84 58.145-63.874-24.042-36.046-102.357c-35.73 42.71-57.24 97.72-57.24 157.76 0 8.49.43 16.88 1.27 25.15l83.875-62.248 65.875 24.796 29.726 94.135-34.256 49.408-104.87 5.709c36.28 54.04 93.43 92.9 159.91 105.04l-37.387-101.107 33.199-47.883h97.317l33.198 47.883-37.387 101.107c66.48-12.14 123.63-51 159.91-105.04l-104.871-5.708-34.256-49.408z"
              fill="#000000"/>
    </g>
</svg>