<svg id="Layer_2" enable-background="new 0 0 512 512" height="512" viewBox="0 0 512 512" width="512"
     xmlns="http://www.w3.org/2000/svg">
    <g>
        <g>
            <g>
                <path d="m256 303h44l98.846 21.665c27.533 6.035 47.154 30.421 47.154 58.609v85.726h-66v33h-124-124v-33h-66v-85.726c0-28.187 19.621-52.574 47.154-58.609l98.846-21.665z"
                      fill="#ffb0aa"/>
            </g>
            <g>
                <path d="m66 469h66v33h-66z" fill="#ffd3b3" transform="matrix(-1 0 0 -1 198 971)"/>
            </g>
            <g>
                <path d="m66 449h66v20h-66z" fill="#ff7b7b"/>
            </g>
            <g>
                <path d="m380 449h66v20h-66z" fill="#ff7b7b"/>
            </g>
            <g>
                <path d="m380 469h66v33h-66z" fill="#ffd3b3"/>
            </g>
            <g>
                <path d="m300 303h-88l-23.78 5.212c2.673 35.067 32.04 62.788 67.78 62.788s65.107-27.721 67.78-62.788z"
                      fill="#ff7b7b"/>
            </g>
            <g>
                <path d="m212 267v36c0 24.301 19.699 44 44 44s44-19.699 44-44v-36z" fill="#ffd3b3"/>
            </g>
            <g>
                <path d="m212 285.188c13.499 5.851 28.376 9.812 44 9.812s30.501-3.961 44-9.812v-18.188h-88z"
                      fill="#fcb98b"/>
            </g>
            <g>
                <path d="m347 113.5v74.5c0 50.258-40.742 91-91 91-50.258 0-91-40.742-91-91v-74.5z" fill="#ffd3b3"/>
            </g>
            <g>
                <path d="m151 176h14v-50h-14c-5.523 0-10 4.477-10 10v30c0 5.523 4.477 10 10 10z" fill="#ffd3b3"/>
            </g>
            <g>
                <path d="m361 176h-14v-50h14c5.523 0 10 4.477 10 10v30c0 5.523-4.477 10-10 10z" fill="#ffd3b3"/>
            </g>
            <g>
                <path d="m165 101v79.182l18.909-54.182h144.182l18.909 54.182v-79.182c0-50.258-40.742-91-91-91-50.258 0-91 40.742-91 91z"
                      fill="#6e83b7"/>
            </g>
            <g>
                <path d="m310 423v36c0 13.255 10.745 24 24 24s24-10.745 24-24v-36z" fill="#ffe352"/>
            </g>
        </g>
        <g>
            <path d="m342.41 216.59c-1.69 5.16-3.85 10.11-6.4 14.81l-27.8-27.79 10.61-10.61z" fill="#ffb0aa"/>
        </g>
        <g>
            <path d="m327.58 244.19c-3.1 3.95-6.51 7.63-10.21 11l-30.37-30.37 10.61-10.61z" fill="#ffb0aa"/>
        </g>
        <g>
            <path d="m336.01 231.4c-2.45 4.51-5.27 8.79-8.43 12.79l-29.97-29.98 10.6-10.6z" fill="#edeff1"/>
        </g>
        <g>
            <path d="m169.59 216.59c1.69 5.16 3.85 10.11 6.4 14.81l27.8-27.79-10.61-10.61z" fill="#ffb0aa"/>
        </g>
        <g>
            <path d="m184.42 244.19c3.1 3.95 6.51 7.63 10.21 11l30.37-30.37-10.61-10.61z" fill="#ffb0aa"/>
        </g>
        <g>
            <path d="m175.99 231.4c2.45 4.51 5.27 8.79 8.43 12.79l29.97-29.98-10.6-10.6z" fill="#ffffff"/>
        </g>
        <g>
            <path d="m166.238 86c-.81 4.88-1.238 9.89-1.238 15v25h182v-25c0-5.11-.428-10.12-1.238-15z" fill="#ffb0aa"/>
        </g>
        <g>
            <path d="m165 98.5h182v15h-182z" fill="#edeff1"/>
        </g>
    </g>
</svg>