<svg id="Layer_2" enable-background="new 0 0 512 512" height="512" viewBox="0 0 512 512" width="512"
     xmlns="http://www.w3.org/2000/svg">
    <g>
        <g>
            <path d="m320.94 171h-67.585v-23.894l-67.355 38.894 67.355 38.894v-23.894h67.585z" fill="#98ca69"/>
            <path d="m326 326-67.355-38.894v23.894h-67.585v30h67.585v23.894z" fill="#ffb0aa"/>
        </g>
        <g>
            <g>
                <path d="m44 274v87h42v-43h16v43h42v-87z" fill="#ffffff"/>
            </g>
            <g>
                <path d="m44 351h42v10h-42z" fill="#001489"/>
            </g>
            <g>
                <path d="m102 351h42v10h-42z" fill="#001489"/>
            </g>
            <g>
                <g>
                    <path d="m138 96h-4v-30h4c3.314 0 6 2.686 6 6v18c0 3.314-2.686 6-6 6z" fill="#ffd3b3"/>
                </g>
                <g>
                    <path d="m50 96h4v-30h-4c-3.314 0-6 2.686-6 6v18c0 3.314 2.686 6 6 6z" fill="#ffd3b3"/>
                </g>
                <g>
                    <path d="m44 141h100v133h-100z" fill="#ffffff"/>
                </g>
                <g>
                    <path d="m94 168c14.888 0 27-12.112 27-27h-54c0 14.888 12.112 27 27 27z" fill="#001489"/>
                </g>
                <g>
                    <path d="m94 158c-9.389 0-17-7.611-17-17v-12h34v12c0 9.389-7.611 17-17 17z" fill="#fcb98b"/>
                </g>
                <g>
                    <path d="m44 274h100v10h-100z" fill="#001489"/>
                </g>
                <g>
                    <path d="m94 137c-22.091 0-40-17.909-40-40v-47.286h80v47.286c0 22.091-17.909 40-40 40z"
                          fill="#ffd3b3"/>
                </g>
                <g>
                    <path d="m94 10c-24.3 0-44 19.699-44 44v12h4v30l8-30h64l8 30v-30h4v-12c0-24.301-19.699-44-44-44z"
                          fill="#000000"/>
                </g>
                <g>
                    <g>
                        <path d="m178 202h-34v-61h4c16.569 0 30 13.431 30 30z" fill="#ffffff"/>
                    </g>
                </g>
                <g>
                    <g>
                        <path d="m161 305c-9.389 0-17-7.611-17-17v-86h34v86c0 9.389-7.611 17-17 17z" fill="#ffd3b3"/>
                    </g>
                </g>
                <g>
                    <path d="m144 192h34v10h-34z" fill="#001489"/>
                </g>
                <g>
                    <g>
                        <path d="m10 202h34v-61h-4c-16.569 0-30 13.431-30 30z" fill="#ffffff"/>
                    </g>
                </g>
                <g>
                    <g>
                        <path d="m27 305c9.389 0 17-7.611 17-17v-86h-34v86c0 9.389 7.611 17 17 17z" fill="#ffd3b3"/>
                    </g>
                </g>
                <g>
                    <path d="m10 192h34v10h-34z" fill="#001489" transform="matrix(-1 0 0 -1 54 394)"/>
                </g>
            </g>
            <g>
                <path d="m102 361h42v40h-42z" fill="#ffd3b3"/>
            </g>
            <g>
                <path d="m102 401h42v81h-42z" fill="#ffffff"/>
            </g>
            <g>
                <path d="m44 361h42v40h-42z" fill="#ffd3b3"/>
            </g>
            <g>
                <path d="m44 401h42v81h-42z" fill="#ffffff"/>
            </g>
            <g>
                <path d="m99 502h48v-9c0-13.255-10.745-24-24-24-13.255 0-24 10.745-24 24z" fill="#000000"/>
            </g>
            <g>
                <path d="m41 502h48v-9c0-13.255-10.745-24-24-24-13.255 0-24 10.745-24 24z" fill="#000000"/>
            </g>
        </g>
        <g>
            <g>
                <path d="m468 274v87h-42v-43h-16v43h-42v-87z" fill="#ffffff"/>
            </g>
            <g>
                <path d="m426 351h42v10h-42z" fill="#001489"/>
            </g>
            <g>
                <path d="m368 351h42v10h-42z" fill="#001489"/>
            </g>
            <g>
                <g>
                    <path d="m374 96h4v-30h-4c-3.314 0-6 2.686-6 6v18c0 3.314 2.686 6 6 6z" fill="#ffd3b3"/>
                </g>
                <g>
                    <path d="m462 96h-4v-30h4c3.314 0 6 2.686 6 6v18c0 3.314-2.686 6-6 6z" fill="#ffd3b3"/>
                </g>
                <g>
                    <path d="m368 141h100v133h-100z" fill="#ffffff"/>
                </g>
                <g>
                    <path d="m418 168c-14.888 0-27-12.112-27-27h54c0 14.888-12.112 27-27 27z" fill="#001489"/>
                </g>
                <g>
                    <path d="m418 158c9.389 0 17-7.611 17-17v-12h-34v12c0 9.389 7.611 17 17 17z" fill="#fcb98b"/>
                </g>
                <g>
                    <path d="m368 274h100v10h-100z" fill="#001489"/>
                </g>
                <g>
                    <path d="m418 137c22.091 0 40-17.909 40-40v-47.286h-80v47.286c0 22.091 17.909 40 40 40z"
                          fill="#ffd3b3"/>
                </g>
                <g>
                    <g>
                        <path d="m334 202h34v-61h-4c-16.569 0-30 13.431-30 30z" fill="#ffffff"/>
                    </g>
                </g>
                <g>
                    <g>
                        <path d="m351 305c9.389 0 17-7.611 17-17v-86h-34v86c0 9.389 7.611 17 17 17z" fill="#ffd3b3"/>
                    </g>
                </g>
                <g>
                    <path d="m334 192h34v10h-34z" fill="#001489" transform="matrix(-1 0 0 -1 702 394)"/>
                </g>
                <g>
                    <g>
                        <path d="m502 202h-34v-61h4c16.569 0 30 13.431 30 30z" fill="#ffffff"/>
                    </g>
                </g>
                <g>
                    <g>
                        <path d="m485 305c-9.389 0-17-7.611-17-17v-86h34v86c0 9.389-7.611 17-17 17z" fill="#ffd3b3"/>
                    </g>
                </g>
                <g>
                    <path d="m468 192h34v10h-34z" fill="#001489"/>
                </g>
            </g>
            <g>
                <path d="m368 361h42v40h-42z" fill="#ffd3b3"/>
            </g>
            <g>
                <path d="m368 401h42v81h-42z" fill="#ffffff"/>
            </g>
            <g>
                <path d="m426 361h42v40h-42z" fill="#ffd3b3"/>
            </g>
            <g>
                <path d="m426 401h42v81h-42z" fill="#ffffff"/>
            </g>
            <g>
                <path d="m413 502h-48v-9c0-13.255 10.745-24 24-24 13.255 0 24 10.745 24 24z" fill="#000000"/>
            </g>
            <g>
                <path d="m471 502h-48v-9c0-13.255 10.745-24 24-24 13.255 0 24 10.745 24 24z" fill="#000000"/>
            </g>
        </g>
        <g>
            <path d="m439.503 25.615c-2.001-8.933-9.966-15.615-19.503-15.615h-52v26c0 7.272 2.589 13.939 6.894 19.133-.586 2.864-.894 5.829-.894 8.867v2h4v30l8-30h64l8 30v-30h4v-2c0-16.488-9.075-30.85-22.497-38.385z"
                  fill="#754100"/>
        </g>
    </g>
</svg>