<svg width="512" height="512" xmlns="http://www.w3.org/2000/svg">
  <g id="small-beard">
   <path d="m170.61887,233.13769l0.52149,3.46237c3.49362,6.74288 8.73951,13.48576 13.26607,20.22865l15.49634,15.27121l11.4112,7.34492l11.11775,3.69569l12.94045,3.2326l13.10017,1.84703l13.87777,0.38031l19.41425,-3.51124l17.71249,-5.64439l10.2126,-6.63401l10.88708,-9.49332l8.90561,-10.57206l6.05575,-9.9919l4.40637,-9.54157l-0.86728,0.28483l-7.14734,2.95688l-11.07621,6.16439l-12.71015,6.81189l-19.78,5.51688l-17.40751,4.43066c0,0 -11.49837,-12.81795 -17.86617,-12.03057c-5.32387,0.65829 -15.09254,12.97145 -15.09254,12.97145l-17.56776,-3.31674l-12.55301,-2.73973l-9.59937,-4.1096l-14.76826,-6.84931l-12.88979,-10.16532z" fill="#HAIR"/>
   <path d="m201.07606,224.52463l10.07364,-5.65709l11.9052,-4.11426l14.65253,-2.57141l16.5835,-0.19921l13.6374,0.19921l12.82098,2.57141l8.24205,2.05712l9.15784,3.59997l3.66312,4.11426l-12.20321,-2.90974l-12.20082,-2.56859l-9.31116,-0.96322l-16.05372,0l-16.3748,0.32107l-11.55868,1.60537l-11.55867,2.24752l-11.4752,2.26759" fill="#HAIR"/>
  </g>
</svg>
