<svg width="512" height="512" xmlns="http://www.w3.org/2000/svg">

    <g id="svg_1" stroke="null">
        <rect fill="#00007f" stroke-width="1.5" x="235.41931" y="434.03156" width="57.98316" height="56.13659" id="svg_31" transform="rotate(20.074995040893555 264.4108886718751,462.0998229980469) " stroke="#0000bf"/>
        <text fill="#ffffff" stroke-width="0" x="233.89133" y="474.54818" id="svg_8" font-size="20" font-family="Arvo, sans-serif" text-anchor="start" xml:space="preserve" font-style="italic" font-weight="bold" stroke="#0000bf">B&amp;M</text>
        <path fill="none" stroke-width="1.5" d="m264.59662,454.53078c-1.56161,-0.4768 1.30506,-0.48091 1.96275,-0.51368c1.70809,-0.01838 1.93957,-1.19569 1.76395,-1.94507c-0.24986,-0.30715 -0.00541,-0.97394 -0.88548,-0.87433c-1.7584,-0.04684 -3.4978,-0.29814 -5.02779,-0.79931c-0.0939,0.84238 -0.83134,1.61311 -1.32177,2.40983c-0.645,0.4033 1.63966,1.8431 0.0494,1.19988c-1.03009,-0.54986 0.00743,0.57197 -1.27153,0.25612c-1.73554,-0.02056 -3.53363,0.15746 -5.22909,-0.08145c-0.56977,-0.13722 -2.35368,0.03393 -1.05412,-0.4246c0.73807,-0.07729 1.38456,0.29297 1.94236,-0.13326c1.32057,0.31346 3.42234,0.31561 3.90184,-0.67225c0.79793,-0.74767 1.28683,-1.58588 1.31662,-2.46419c-0.93442,-0.41319 -1.67457,-0.94744 -2.09955,-1.58321c-0.98274,-0.93008 -2.77619,-1.4401 -4.24652,-2.0844c-1.95091,-0.72945 -4.19722,-1.56939 -4.57945,-3.00816c-0.46472,-1.06733 0.00252,-2.23613 1.32046,-3.04563c0.88884,-0.73041 2.54133,-1.40926 2.16317,-2.41203c-0.96089,-0.98151 -3.03878,0.12701 -3.9824,0.60387c-1.13666,0.46181 -2.35969,1.58057 -3.91143,1.07873c-0.19558,-0.75967 1.56073,-1.23639 1.99291,-1.94506c0.89503,-0.7977 1.42486,-1.72484 2.15887,-2.54576c1.32767,-0.70961 3.52289,-0.71395 4.83495,0.01865c1.67432,0.74853 2.71844,1.93189 2.55449,3.16199c0.16142,0.84943 -0.47186,1.95625 0.94014,2.54596c2.04103,0.6514 4.44746,0.80767 6.52204,1.43201c2.59446,0.6878 4.54083,1.92897 6.72433,2.95041c1.34353,0.70085 2.72475,1.38099 4.00208,2.12177c-0.85387,-0.14666 -1.64354,-0.39621 -2.46097,-0.59888c1.05786,0.78998 1.53318,1.76182 1.78366,2.7327c0.41182,1.02902 1.56411,2.03499 0.98601,3.12431c-0.50413,0.90584 -2.11026,-0.55918 -2.89562,-0.81559c-0.89765,-0.48581 -1.78563,-1.08728 -3.08697,-1.17112c-0.23484,0.8735 -0.47618,1.78217 -0.20901,2.65716c0.15658,0.77491 2.84978,0.30989 2.4596,0.88358c-2.25616,-0.14136 -4.52139,-0.02223 -6.78303,-0.03915l-0.33491,-0.01983l0,0l0,0l0.00001,-0.00001z" id="svg_29" stroke="#56aaff"/>
        <text fill="#ffffff" stroke="#0000bf" stroke-width="0" fill-opacity="null" x="242.81241" y="482.64434" id="svg_33" font-size="6" font-family="Arvo, sans-serif" text-anchor="start" xml:space="preserve">Waste Services</text>

    </g>

</svg>