<svg xmlns="http://www.w3.org/2000/svg">
    <path d="m13.89 7.513c0.0606 0.0248 0.15985 0.0248 0.22049 0l3.0909-1.2926c0.0441-0.0193 0.0441-0.04823 0-0.06615l-3.0909-1.294c-0.0606-0.0248-0.15985-0.0248-0.22049 0l-3.0923 1.294c-0.0427 0.01792-0.0427 0.04685 0 0.06615zm6.6118-1.6261c0.11438 0.05099 0.19293 0.16536 0.19293 0.29903 0 0.13505-0.0799 0.24942-0.19431 0.30042l-6.259 2.6169c-0.13229 0.0565-0.35002 0.0565-0.48369 0l-6.2577-2.6169c-0.11576-0.05099-0.19568-0.16536-0.19568-0.30042 0-0.13367 0.0799-0.24942 0.19568-0.29903l6.2577-2.6169c0.13367-0.0565 0.3514-0.0565 0.48369 0zm7.0928-0.32797c0.24115 0.10749 0.40514 0.34726 0.40514 0.62701 0 0.28112-0.16674 0.5209-0.4079 0.62838l-13.086 5.4722c-0.27837 0.11576-0.7345 0.11576-1.0129 0l-13.084-5.4722c-0.24116-0.10611-0.40928-0.34726-0.40928-0.62838 0-0.27974 0.16812-0.5209 0.40928-0.62701l13.084-5.4722c0.27836-0.11575 0.73449-0.11575 1.0129 0zm-13.969-3.8806-10.512 4.3959c-0.14745 0.06201-0.14745 0.16261 0 0.22462l10.512 4.3959c0.20671 0.08682 0.54295 0.08682 0.74827 0l10.513-4.3959c0.14745-0.06202 0.14745-0.16261 0-0.22462l-10.513-4.3959c-0.20532-0.08544-0.54156-0.08544-0.74827 0" fill="#0f0c0c"/>
    <path d="m3 14.461v2.045c0 1.1576 0.81441 1.6509 1.8686 1.6509 1.0542 0 1.87-0.49334 1.87-1.6509v-2.045h-1.2471v1.9444c0 0.44511-0.10887 0.84474-0.62287 0.84474-0.51263 0-0.62288-0.39963-0.62288-0.84474v-1.9444h-1.2457m19.013 1.819c0-0.62839 0.35278-1.0873 0.87505-1.0873 0.55397 0 0.86679 0.47542 0.86679 1.0294 0 0.66972-0.32935 1.119-0.86679 1.119-0.47542 0-0.87505-0.45062-0.87505-1.0611m0.88746-1.9017c-1.1934 0-2.1029 0.69316-2.1029 1.8934 0 1.192 0.9095 1.8865 2.1029 1.8865 1.192 0 2.1015-0.69453 2.1015-1.8865 0-1.2003-0.9095-1.8934-2.1015-1.8934m-10.815-0.0014c-0.51263 0-0.99081 0.20808-1.283 0.69453-0.1943-0.47267-0.61736-0.69453-1.13-0.69453-0.56913 0-1.068 0.23013-1.3188 0.74965h-0.0138v-0.66559h-1.1369v3.6132h1.2485v-1.5255c0-0.77722 0.26321-1.1314 0.70693-1.1314 0.35416 0 0.50023 0.30592 0.50023 0.7152v1.9417h1.2485v-1.5255c0-0.77722 0.26321-1.1314 0.70694-1.1314 0.35416 0 0.50023 0.30592 0.50023 0.7152v1.9417h1.2485v-2.1291c0-0.97841-0.23702-1.5682-1.2774-1.5682m3.7304 2.8732c-0.43546 0-0.79788-0.41341-0.79788-0.96463 0-0.56637 0.31832-0.98667 0.79788-0.98667 0.50712 0 0.79099 0.43546 0.79099 0.93569 0 0.6022-0.29765 1.0156-0.79099 1.0156m0.49472-2.8746c-0.50023 0-0.92329 0.1447-1.2416 0.54708h-0.0138v-1.7432h-1.2554v4.892h1.1507v-0.64492h0.0138c0.15985 0.40239 0.66559 0.72898 1.2416 0.72898 1.0749 0 1.6509-0.88883 1.6509-1.9568 0-0.87368-0.54846-1.8231-1.5462-1.8231m2.989 0.75103h-0.0138v-0.66559h-1.1383v3.6132h1.2485v-1.5255c0-0.70831 0.32659-1.1314 0.9095-1.1314 0.14607 0 0.28112 0 0.4203 0.04272l1e-3 -1.0514c-0.11162-0.01654-0.2384-0.0303-0.35967-0.0303-0.54157 0-0.853 0.29077-1.068 0.74828" fill="#0f0c0c" fill-rule="evenodd"/>
</svg>
