<?xml version="1.0" standalone="no"?>
<!DOCTYPE svg PUBLIC "-//W3C//DTD SVG 20010904//EN"
        "http://www.w3.org/TR/2001/REC-SVG-20010904/DTD/svg10.dtd">
<svg version="1.0" xmlns="http://www.w3.org/2000/svg"
     width="500.000000pt" height="500.000000pt" viewBox="0 0 500.000000 500.000000"
     preserveAspectRatio="xMidYMid meet">

    <g transform="translate(0.000000,500.000000) scale(0.100000,-0.100000)"
       fill="#0000ff" stroke="none">
        <path d="M935 3522 c-63 -5 -71 -11 -85 -51 -18 -54 -9 -69 41 -73 l43 -3 11
-55 c7 -30 20 -102 30 -160 28 -165 32 -179 68 -201 29 -17 48 -19 192 -17
l160 3 80 101 c231 291 328 420 329 434 1 13 -30 15 -235 18 -265 3 -255 5
-265 -72 l-7 -46 97 0 c66 0 96 -4 96 -12 0 -9 -76 -107 -172 -223 -9 -11 -26
-31 -37 -45 -34 -43 -32 -48 -107 310 -9 41 -19 78 -22 81 -8 8 -169 16 -217
11z"/>
        <path d="M1778 3414 c-101 -128 -103 -133 -84 -140 12 -5 406 189 444 219 28
22 5 27 -133 27 l-144 0 -83 -106z"/>
        <path d="M2788 3462 c-38 -3 -68 -30 -68 -61 0 -8 -9 -50 -21 -93 l-21 -78
-77 -1 c-42 0 -92 -5 -111 -12 -92 -32 -132 -210 -55 -245 15 -7 76 -12 145
-12 102 0 123 3 138 18 11 11 37 97 71 237 30 121 56 225 58 231 5 15 -13 20
-59 16z"/>
        <path d="M4102 3451 c-17 -10 -114 -415 -110 -456 l3 -30 69 0 69 0 13 45 c13
42 12 46 -8 61 l-22 17 19 78 c9 44 28 120 41 169 33 124 33 125 -18 125 -24
0 -49 -4 -56 -9z"/>
        <path d="M1712 3220 c-95 -22 -158 -175 -97 -235 21 -22 33 -25 98 -25 45 0
78 5 86 13 11 10 14 10 18 0 3 -8 21 -13 43 -13 28 0 43 6 57 23 21 27 68 210
59 232 -4 12 -27 15 -118 14 -62 -1 -128 -5 -146 -9z"/>
        <path d="M2060 3217 c-20 -10 -29 -28 -47 -97 -30 -118 -29 -148 1 -156 57
-14 69 -4 89 76 10 41 23 80 29 87 12 15 104 18 112 4 4 -5 -1 -38 -9 -73 -22
-92 -21 -98 18 -98 58 0 72 19 101 140 15 60 24 114 21 120 -9 15 -284 13
-315 -3z"/>
        <path d="M2919 3220 c-72 -22 -119 -87 -119 -167 0 -73 25 -93 114 -93 37 0
76 5 86 10 13 7 21 7 25 0 10 -17 74 -11 93 8 20 20 76 227 67 243 -7 11 -229
11 -266 -1z"/>
        <path d="M3260 3217 c-20 -10 -29 -28 -47 -97 -30 -117 -30 -148 1 -156 55
-14 69 -3 86 66 26 102 32 110 90 110 27 0 51 -3 53 -7 3 -5 -1 -39 -9 -78
-18 -97 -19 -95 20 -95 55 0 72 24 101 139 14 57 24 110 21 117 -7 19 -279 20
-316 1z"/>
        <path d="M3686 3220 c-45 -14 -63 -37 -81 -105 -19 -70 -15 -105 15 -135 18
-18 34 -20 154 -20 145 0 171 8 164 54 -3 20 -10 21 -113 24 -143 4 -166 22
-27 22 142 0 153 7 181 115 8 29 7 41 -2 47 -16 10 -254 9 -291 -2z"/>
        <path d="M989 2785 c-19 -10 -34 -38 -63 -115 -54 -145 -55 -144 76 -150 137
-6 132 -1 163 -165 8 -44 39 -224 70 -400 30 -176 63 -337 72 -357 18 -42 74
-103 113 -123 56 -29 136 -35 448 -35 283 0 321 2 350 18 19 10 82 81 157 177
69 88 145 185 168 215 24 30 160 205 303 389 142 183 289 372 326 420 71 91
80 114 49 131 -26 13 -1079 14 -1115 0 -35 -13 -51 -41 -83 -143 -20 -66 -24
-93 -16 -105 9 -15 38 -17 244 -20 128 -1 238 -7 243 -12 12 -12 -1 -31 -192
-269 -338 -420 -403 -494 -417 -480 -7 8 -32 102 -55 209 -23 107 -48 222 -56
255 -7 33 -36 168 -64 300 -40 195 -54 243 -71 258 -19 15 -50 17 -323 17
-238 -1 -306 -4 -327 -15z"/>
        <path d="M3374 2791 c-24 -10 -51 -41 -159 -180 -44 -57 -137 -176 -207 -265
-121 -153 -142 -186 -117 -186 10 0 324 159 614 310 61 32 214 110 340 175
245 125 258 133 250 145 -7 11 -694 11 -721 1z"/>
    </g>
</svg>
