<svg width="512" height="512" xmlns="http://www.w3.org/2000/svg">
    <g stroke="null">
        <title>background</title>
        <rect fill="none" id="canvas_background" height="514" width="514" y="-1" x="-1" stroke="null"/>
    </g>

    <g stroke="null">
        <ellipse fill="#7f3f00" stroke-width="8" fill-opacity="null" cx="339.99291" cy="228.36707" id="svg_50" rx="24.56405" ry="21" transform="rotate(35.09581756591797 339.992919921875,228.36706542968756) " stroke="#7f3f00"/>
        <ellipse fill="#7f3f00" stroke-width="8" fill-opacity="null" cx="164.99291" cy="235.36707" id="svg_49" rx="24.56405" ry="21" transform="rotate(35.09581756591797 164.99290466308585,235.36706542968756) " stroke="#7f3f00"/>
        <ellipse fill="#7f3f00" stroke-width="8" fill-opacity="null" cx="339.99291" cy="108.36707" id="svg_48" rx="24.56405" ry="21" transform="rotate(35.09581756591797 339.992919921875,108.36706542968756) " stroke="#7f3f00"/>
        <ellipse fill="#7f3f00" stroke-width="8" fill-opacity="null" cx="175.49291" cy="113.86706" id="svg_47" rx="29.28524" ry="26.84896" transform="rotate(35.09581756591797 175.49288940429688,113.86706542968747) " stroke="#7f3f00"/>
        <ellipse stroke="#7f3f00" fill="#7f3f00" stroke-width="8" fill-opacity="null" cx="314.24034" cy="256.78418" id="svg_25" rx="24.03333" ry="21"/>
        <ellipse stroke="#7f3f00" fill="#7f3f00" stroke-width="8" fill-opacity="null" cx="193.24034" cy="260.78418" id="svg_24" rx="24.03333" ry="21"/>
        <ellipse fill="#7f3f00" stroke-width="8" fill-opacity="null" cx="310.99291" cy="250.36707" id="svg_45" rx="24.56405" ry="21" stroke="#7f3f00"/>
        <ellipse fill="#7f3f00" stroke-width="8" fill-opacity="null" cx="198.99291" cy="246.36707" id="svg_44" rx="24.56405" ry="21" transform="rotate(35.09581756591797 198.99290466308605,246.36706542968747) " stroke="#7f3f00"/>
        <ellipse fill="#7f3f00" stroke-width="8" fill-opacity="null" cx="340.99291" cy="188.36707" id="svg_36" rx="24.56405" ry="21" stroke="#7f3f00"/>
        <ellipse fill="#7f3f00" stroke-width="8" fill-opacity="null" cx="163.99291" cy="194.36707" id="svg_35" rx="24.56405" ry="21" stroke="#7f3f00"/>
        <ellipse fill="#7f3f00" stroke-width="8" fill-opacity="null" cx="161.99291" cy="156.36707" id="svg_34" rx="24.56405" ry="21" transform="rotate(35.09581756591797 161.99290466308597,156.36706542968747) " stroke="#7f3f00"/>
        <ellipse fill="#7f3f00" stroke-width="8" fill-opacity="null" cx="341.99291" cy="147.36707" id="svg_33" rx="24.56405" ry="21" stroke="#7f3f00"/>
        <g id="shirt" stroke="null">
            <title>Shirt</title>
            <g id="svg_1" stroke="null">
                <g id="svg_2" stroke="null">
                    <title>Chest</title>
                    <path id="svg_3" fill="#ffffff" d="m248.74181,310.00899l44,0l98.846,21.665c27.533,6.035 47.154,30.421 47.154,58.609l0,85.726l-66,0l0,33l-124,0l-124,0l0,-33l-66,0l0,-85.726c0,-28.187 19.621,-52.574 47.154,-58.609l98.846,-21.665l44,0z" stroke="null"/>
                </g>
            </g>
            <line transform="rotate(-7.897456169128418 264.5000000000003,440.4531250000001) " id="svg_39" y2="346.02338" x2="370.53749" y1="534.88287" x1="158.4625" stroke-width="37" fill="none" stroke="#0000ff"/>
            <path d="m329.89,362.513c0.0606,0.0248 0.15985,0.0248 0.22049,0l3.0909,-1.2926c0.0441,-0.0193 0.0441,-0.04823 0,-0.06615l-3.0909,-1.294c-0.0606,-0.0248 -0.15985,-0.0248 -0.22049,0l-3.0923,1.294c-0.0427,0.01792 -0.0427,0.04685 0,0.06615l3.0923,1.2926zm6.6118,-1.6261c0.11438,0.05099 0.19293,0.16536 0.19293,0.29903c0,0.13505 -0.0799,0.24942 -0.19431,0.30042l-6.259,2.6169c-0.13229,0.0565 -0.35002,0.0565 -0.48369,0l-6.2577,-2.6169c-0.11576,-0.05099 -0.19568,-0.16536 -0.19568,-0.30042c0,-0.13367 0.0799,-0.24942 0.19568,-0.29903l6.2577,-2.6169c0.13367,-0.0565 0.3514,-0.0565 0.48369,0l6.26038,2.6169zm7.0928,-0.32797c0.24115,0.10749 0.40514,0.34726 0.40514,0.62701c0,0.28112 -0.16674,0.5209 -0.4079,0.62838l-13.086,5.4722c-0.27837,0.11576 -0.7345,0.11576 -1.0129,0l-13.084,-5.4722c-0.24116,-0.10611 -0.40928,-0.34726 -0.40928,-0.62838c0,-0.27974 0.16812,-0.5209 0.40928,-0.62701l13.084,-5.4722c0.27836,-0.11575 0.73449,-0.11575 1.0129,0l13.08876,5.4722zm-13.969,-3.8806l-10.512,4.3959c-0.14745,0.06201 -0.14745,0.16261 0,0.22462l10.512,4.3959c0.20671,0.08682 0.54295,0.08682 0.74827,0l10.513,-4.3959c0.14745,-0.06202 0.14745,-0.16261 0,-0.22462l-10.513,-4.3959c-0.20532,-0.08544 -0.54156,-0.08544 -0.74827,0" fill="#ffffff" id="svg_11" stroke="null"/>
            <path d="m319,370.461l0,2.045c0,1.1576 0.81441,1.6509 1.8686,1.6509c1.0542,0 1.87,-0.49334 1.87,-1.6509l0,-2.045l-1.2471,0l0,1.9444c0,0.44511 -0.10887,0.84474 -0.62287,0.84474c-0.51263,0 -0.62288,-0.39963 -0.62288,-0.84474l0,-1.9444l-1.2457,0m19.013,1.819c0,-0.62839 0.35278,-1.0873 0.87505,-1.0873c0.55397,0 0.86679,0.47542 0.86679,1.0294c0,0.66972 -0.32935,1.119 -0.86679,1.119c-0.47542,0 -0.87505,-0.45062 -0.87505,-1.0611m0.88746,-1.9017c-1.1934,0 -2.1029,0.69316 -2.1029,1.8934c0,1.192 0.9095,1.8865 2.1029,1.8865c1.192,0 2.1015,-0.69453 2.1015,-1.8865c0,-1.2003 -0.9095,-1.8934 -2.1015,-1.8934m-10.815,-0.0014c-0.51263,0 -0.99081,0.20808 -1.283,0.69453c-0.1943,-0.47267 -0.61736,-0.69453 -1.13,-0.69453c-0.56913,0 -1.068,0.23013 -1.3188,0.74965l-0.0138,0l0,-0.66559l-1.1369,0l0,3.6132l1.2485,0l0,-1.5255c0,-0.77722 0.26321,-1.1314 0.70693,-1.1314c0.35416,0 0.50023,0.30592 0.50023,0.7152l0,1.9417l1.2485,0l0,-1.5255c0,-0.77722 0.26321,-1.1314 0.70694,-1.1314c0.35416,0 0.50023,0.30592 0.50023,0.7152l0,1.9417l1.2485,0l0,-2.1291c0,-0.97841 -0.23702,-1.5682 -1.2774,-1.5682m3.7304,2.8732c-0.43546,0 -0.79788,-0.41341 -0.79788,-0.96463c0,-0.56637 0.31832,-0.98667 0.79788,-0.98667c0.50712,0 0.79099,0.43546 0.79099,0.93569c0,0.6022 -0.29765,1.0156 -0.79099,1.0156m0.49472,-2.8746c-0.50023,0 -0.92329,0.1447 -1.2416,0.54708l-0.0138,0l0,-1.7432l-1.2554,0l0,4.892l1.1507,0l0,-0.64492l0.0138,0c0.15985,0.40239 0.66559,0.72898 1.2416,0.72898c1.0749,0 1.6509,-0.88883 1.6509,-1.9568c0,-0.87368 -0.54846,-1.8231 -1.5462,-1.8231m2.989,0.75103l-0.0138,0l0,-0.66559l-1.1383,0l0,3.6132l1.2485,0l0,-1.5255c0,-0.70831 0.32659,-1.1314 0.9095,-1.1314c0.14607,0 0.28112,0 0.4203,0.04272l0.001,-1.0514c-0.11162,-0.01654 -0.2384,-0.0303 -0.35967,-0.0303c-0.54157,0 -0.853,0.29077 -1.068,0.74828" fill="#ffffff" fill-rule="evenodd" id="svg_23" stroke="null"/>
            <text font-weight="bold" transform="rotate(-50.243595123291016 261.8359374999997,441.20312499999994) " xml:space="preserve" text-anchor="start" font-family="'Trebuchet MS', Gadget, sans-serif" font-size="29" id="svg_41" y="451.45313" x="189.5" stroke-width="0" fill="#ffffff" stroke="#0000ff">STORETON</text>
        </g>
        <g id="skin-light" stroke="null">
            <title>Skin</title>
            <g id="svg_8" stroke="null">
                <title>Bottom Neck</title>
                <path id="svg_9" fill="#ffd3b3" d="m205.50529,273.84762l0,36c0,24.301 19.699,44 44,44s44,-19.699 44,-44l0,-36l-88,0z" stroke="null"/>
            </g>
            <g id="svg_10" stroke="null">
                <title>Top Neck</title>
                <path id="svg_12" fill="#fcb98b" d="m205.50529,292.03562c13.499,5.851 28.376,9.812 44,9.812s30.501,-3.961 44,-9.812l0,-18.188l-88,0l0,18.188z" stroke="null"/>
            </g>
            <g id="svg_13" stroke="null">
                <title>Face</title>
                <path id="svg_14" fill="#ffd3b3" d="m340.50529,82.84763l0,105.25925c0,53.98081 -40.742,97.74074 -91,97.74074c-50.258,0 -91,-43.75992 -91,-97.74074l0,-105.25925l182,0z" stroke="null"/>
            </g>
            <g id="svg_19" stroke="null">
                <title>Left Arm</title>
                <path id="svg_20" fill="#ffd3b3" d="m125.50529,508.84762l-66,0l0,-33l66,0l0,33z" stroke="null"/>
            </g>
            <g id="svg_21" stroke="null">
                <title>Right Arm</title>
                <path id="svg_22" fill="#ffd3b3" d="m371.75091,475.84762l66,0l0,33l-66,0l0,-33z" stroke="null"/>
            </g>
        </g>
        <g id="svg_25" stroke="null">
            <title>Simple Collar</title>
            <line stroke-width="10" id="svg_51" y2="369.96189" x2="251.73684" y1="341.9619" x1="220.73684" fill="none" stroke="#0000ff"/>
            <line stroke-width="26" transform="rotate(11.289350509643555 259.7267456054687,357.6950378417968) " id="svg_52" y2="374.19273" x2="246.60205" y1="341.19741" x1="272.85144" fill="none" stroke="#0000ff"/>
            <g id="svg_26" stroke="null">
                <path id="svg_27" fill="#0000ff" d="m250.73684,348.50877l-30,30l-31.996,-70.056l17.996,-11.944l44,52z" stroke="#b2b2b2"/>
            </g>
            <g id="svg_28" stroke="null">
                <path id="svg_33" fill="#0000ff" d="m250.73684,348.50877l30,30l31.996,-70.056l-17.996,-11.944l-44,52z" stroke="#b2b2b2"/>
            </g>
        </g>
        <text transform="rotate(34.41077423095703 61.179687499999986,224.203125) " xml:space="preserve" text-anchor="start" font-family="Helvetica, Arial, sans-serif" font-size="24" id="svg_7" y="232.45313" x="54.5" fill-opacity="null" stroke-opacity="null" stroke-width="0" fill="#7f3f00" stroke="#0000ff"/>
        <text font-style="italic" xml:space="preserve" text-anchor="start" font-family="'Palatino Linotype', 'Book Antiqua', Palatino, serif" font-size="17" id="svg_24" y="381.45313" x="147.5" stroke-width="0" fill="#0000ff" stroke="#0000ff">T</text>
        <text font-style="italic" xml:space="preserve" text-anchor="start" font-family="'Palatino Linotype', 'Book Antiqua', Palatino, serif" font-size="17" id="svg_30" y="391.45313" x="155.5" stroke-width="0" fill="#0000ff" stroke="#0000ff">R</text>
        <text font-style="italic" xml:space="preserve" text-anchor="start" font-family="'Palatino Linotype', 'Book Antiqua', Palatino, serif" font-size="17" id="svg_31" y="401.45313" x="163.5" stroke-width="0" fill="#0000ff" stroke="#0000ff">F</text>
        <text font-style="italic" xml:space="preserve" text-anchor="start" font-family="'Palatino Linotype', 'Book Antiqua', Palatino, serif" font-size="17" id="svg_32" y="410.45313" x="172.5" stroke-width="0" fill="#0000ff" stroke="#0000ff">C</text>
        <line id="svg_35" y2="211.45313" x2="93.5" y1="305.45313" x1="28.5" stroke-opacity="null" stroke-width="3" fill="none" stroke="null"/>
        <line id="svg_36" y2="81.45313" x2="110.5" y1="160.45313" x1="48.5" stroke-opacity="null" stroke-width="3" fill="none" stroke="null"/>
        <path transform="rotate(52.28608703613281 364.9164123535156,325.3844604492187) " id="svg_43" d="m383.17558,339.74806l0,-28.72722l-36.51835,28.72722l36.51835,0z" stroke-opacity="null" stroke-width="0" fill="#0000ff" stroke="#0000ff"/>
        <rect id="svg_45" height="17.54386" width="64.91228" y="459.02906" x="60.82456" stroke-opacity="null" stroke-width="0" fill="#0000ff" stroke="#0000ff"/>
        <rect id="svg_46" height="17.54386" width="64.91228" y="458.15187" x="373.10526" stroke-opacity="null" stroke-width="0" fill="#0000ff" stroke="#0000ff"/>
        <g id="svg_4">
            <title>Simple Hair</title>
            <path d="m158,109.04217l0,51.95783l28.30769,-48.49398s34.37363,8.31325 63.69231,8.31325s63.69231,-8.31325 63.69231,-8.31325l28.30769,48.49398l0,-51.95783c0,-34.81729 -41.18972,-63.04217 -92.00001,-63.04217c-50.81029,0 -92.00001,28.22488 -92.00001,63.04217l0.00002,0z" fill="#7f3f00" id="svg_5"/>
        </g>
        <ellipse fill="#7f3f00" stroke-width="8" fill-opacity="null" cx="203.5" cy="77.95313" id="svg_26" rx="32.5" ry="19.5" stroke="#7f3f00"/>
        <ellipse fill="#7f3f00" stroke-width="8" fill-opacity="null" cx="213.20269" cy="58.33773" id="svg_27" rx="21.13649" ry="21" transform="rotate(-35.09581756591797 213.20268249511716,58.337730407714844) " stroke="#7f3f00"/>
        <ellipse fill="#7f3f00" stroke-width="8" fill-opacity="null" cx="257.5" cy="51.45313" id="svg_28" rx="14.5" ry="21" stroke="#7f3f00" transform="rotate(90.2156753540039 257.5,51.45312881469725) "/>
        <ellipse fill="#7f3f00" stroke-width="8" fill-opacity="null" cx="305.99291" cy="61.36707" id="svg_30" rx="24.56405" ry="21" stroke="#7f3f00"/>
        <ellipse stroke="#7f3f00" fill="#7f3f00" stroke-width="8" fill-opacity="null" cx="187.24034" cy="89.78418" id="svg_31" rx="24.03333" ry="21" transform="rotate(35.09581756591797 187.2403411865235,89.7841796875) "/>
        <ellipse stroke="#7f3f00" fill="#7f3f00" stroke-width="8" fill-opacity="null" cx="313.24034" cy="81.78418" id="svg_32" rx="24.03333" ry="21"/>
        <ellipse stroke="#7f3f00" fill="#7f3f00" stroke-width="8" fill-opacity="null" cx="246.74034" cy="86.78419" id="svg_46" rx="30.41302" ry="26.70523" transform="rotate(35.09581756591797 246.74034118652344,86.7841873168945) "/>
        <ellipse fill="#7f3f00" stroke-width="8" fill-opacity="null" cx="327.99291" cy="83.36707" id="svg_51" rx="24.56405" ry="21" transform="rotate(35.09581756591797 327.99291992187494,83.3670654296875) " stroke="#7f3f00"/>
        <ellipse fill="#7f3f00" stroke-width="8" fill-opacity="null" cx="176.99291" cy="86.36707" id="svg_52" rx="24.56405" ry="21" transform="rotate(114.24739074707031 176.99290466308594,86.36707305908203) " stroke="#7f3f00"/>
    </g>
</svg>