<svg width="512" height="512" xmlns="http://www.w3.org/2000/svg">
    <g stroke="null">
        <title>background</title>
        <rect stroke="null" x="-1" y="-1" width="514" height="514" id="canvas_background" fill="none"/>
    </g>

    <g stroke="null">
        <ellipse stroke="#7f3f00" transform="rotate(35.09581756591797 339.992919921875,228.36706542968756) " ry="21" rx="24.56405" id="svg_50" cy="228.36707" cx="339.99291" fill-opacity="null" stroke-width="8" fill="#7f3f00"/>
        <ellipse stroke="#7f3f00" transform="rotate(35.09581756591797 164.99290466308585,235.36706542968756) " ry="21" rx="24.56405" id="svg_49" cy="235.36707" cx="164.99291" fill-opacity="null" stroke-width="8" fill="#7f3f00"/>
        <ellipse stroke="#7f3f00" transform="rotate(35.09581756591797 339.992919921875,108.36706542968756) " ry="21" rx="24.56405" id="svg_48" cy="108.36707" cx="339.99291" fill-opacity="null" stroke-width="8" fill="#7f3f00"/>
        <ellipse stroke="#7f3f00" transform="rotate(35.09581756591797 175.49288940429688,113.86706542968747) " ry="26.84896" rx="29.28524" id="svg_47" cy="113.86706" cx="175.49291" fill-opacity="null" stroke-width="8" fill="#7f3f00"/>
        <ellipse ry="21" rx="24.03333" id="svg_25" cy="256.78418" cx="314.24034" fill-opacity="null" stroke-width="8" fill="#7f3f00" stroke="#7f3f00"/>
        <ellipse ry="21" rx="24.03333" id="svg_24" cy="260.78418" cx="193.24034" fill-opacity="null" stroke-width="8" fill="#7f3f00" stroke="#7f3f00"/>
        <ellipse stroke="#7f3f00" ry="21" rx="24.56405" id="svg_45" cy="250.36707" cx="310.99291" fill-opacity="null" stroke-width="8" fill="#7f3f00"/>
        <ellipse stroke="#7f3f00" transform="rotate(35.09581756591797 198.99290466308605,246.36706542968747) " ry="21" rx="24.56405" id="svg_44" cy="246.36707" cx="198.99291" fill-opacity="null" stroke-width="8" fill="#7f3f00"/>
        <ellipse stroke="#7f3f00" ry="21" rx="24.56405" id="svg_36" cy="188.36707" cx="340.99291" fill-opacity="null" stroke-width="8" fill="#7f3f00"/>
        <ellipse stroke="#7f3f00" ry="21" rx="24.56405" id="svg_35" cy="194.36707" cx="163.99291" fill-opacity="null" stroke-width="8" fill="#7f3f00"/>
        <ellipse stroke="#7f3f00" transform="rotate(35.09581756591797 161.99290466308597,156.36706542968747) " ry="21" rx="24.56405" id="svg_34" cy="156.36707" cx="161.99291" fill-opacity="null" stroke-width="8" fill="#7f3f00"/>
        <ellipse stroke="#7f3f00" ry="21" rx="24.56405" id="svg_33" cy="147.36707" cx="341.99291" fill-opacity="null" stroke-width="8" fill="#7f3f00"/>
        <g stroke="null" id="shirt">
            <title>Shirt</title>
            <g stroke="null" id="svg_1">
                <g stroke="null" id="svg_2">
                    <title>Chest</title>
                    <path stroke="null" d="m249.74181,310.31668l44,0l98.846,21.665c27.533,6.035 47.154,30.421 47.154,58.609l0,85.726l-66,0l0,33l-124,0l-124,0l0,-33l-66,0l0,-85.726c0,-28.187 19.621,-52.574 47.154,-58.609l98.846,-21.665l44,0z" fill="#ffffff" id="svg_3"/>
                </g>
            </g>
            <g id="svg_6" stroke="null">
                <path id="svg_7" fill="#0000ff" d="m393.846,332.77168l-98.846,-22.02808l-44,0l-44,0l-98.846,22.02808c-27.533,6.13614 -47.154,30.93082 -47.154,59.59122l0,66.82749l20,0l0,-66.82749c0,-18.96052 13.221,-35.6679 31.436,-39.72782l96.73,-21.5563l83.668,0l96.73,21.5563c18.215,4.0589 31.436,20.7673 31.436,39.72782l0,66.82749l20,0l0,-66.82749c0,-28.6604 -19.621,-53.45508 -47.154,-59.59122z" stroke="null"/>
                <path id="svg_51" fill="#ffffff" d="m387.95552,339.88899l-94.42395,-22.02808l-42.03158,0l-42.03157,0l-94.42395,22.02808c-26.30126,6.13614 -45.04448,30.93082 -45.04448,59.59122l0,66.82749l19.10527,0l0,-66.82749c0,-18.96052 12.62953,-35.6679 30.02965,-39.72782l92.40261,-21.5563l79.92495,0l92.40261,21.5563c17.40012,4.0589 30.02965,20.7673 30.02965,39.72782l0,66.82749l19.10527,0l0,-66.82749c0,-28.6604 -18.74322,-53.45508 -45.04448,-59.59122z" stroke="null"/>
                <path id="svg_52" fill="#0000ff" d="m384.32051,342.29638l-91.56261,-20.36843l-40.7579,0l-40.75789,0l-91.56261,20.36843c-25.50425,5.67383 -43.67949,28.60041 -43.67949,55.10146l0,61.79254l18.52631,0l0,-61.79254c0,-17.53198 12.24682,-32.9806 29.11966,-36.73462l89.60253,-19.9322l77.50299,0l89.60252,19.9322c16.87284,3.75309 29.11967,19.20264 29.11967,36.73462l0,61.79254l18.52631,0l0,-61.79254c0,-26.50106 -18.17524,-49.42764 -43.67949,-55.10146z" stroke="null"/>
                <path id="svg_53" fill="#ffffff" d="m380.05776,350.0893l-87.92092,-19.01053l-39.13684,0l-39.13684,0l-87.92092,19.01053c-24.48988,5.29557 -41.94224,26.69372 -41.94224,51.42804l0,57.67304l17.78947,0l0,-57.67304c0,-16.36319 11.75974,-30.78188 27.9615,-34.28565l86.03879,-18.60338l74.42048,0l86.03879,18.60338c16.20177,3.50289 27.9615,17.92246 27.9615,34.28565l0,57.67304l17.78947,0l0,-57.67304c0,-24.73432 -17.45236,-46.13246 -41.94224,-51.42804z" stroke="null"/>
            </g>
        </g>
        <g stroke="null" id="skin-light">
            <title>Skin</title>
            <g stroke="null" id="svg_8">
                <title>Bottom Neck</title>
                <path stroke="null" d="m205.50529,287.84762l0,36c0,24.301 19.699,44 44,44s44,-19.699 44,-44l0,-36l-88,0z" fill="#ffd3b3" id="svg_9"/>
            </g>
            <g stroke="null" id="svg_10">
                <title>Top Neck</title>
                <path stroke="null" d="m205.50529,292.03562c13.499,5.851 28.376,9.812 44,9.812s30.501,-3.961 44,-9.812l0,-18.188l-88,0l0,18.188z" fill="#fcb98b" id="svg_12"/>
            </g>
            <g stroke="null" id="svg_13">
                <title>Face</title>
                <path stroke="null" d="m340.50529,82.84763l0,105.25925c0,53.98081 -40.742,97.74074 -91,97.74074c-50.258,0 -91,-43.75992 -91,-97.74074l0,-105.25925l182,0z" fill="#ffd3b3" id="svg_14"/>
            </g>
            <g stroke="null" id="svg_19">
                <title>Left Arm</title>
                <path stroke="null" d="m125.50529,508.84762l-66,0l0,-33l66,0l0,33z" fill="#ffd3b3" id="svg_20"/>
            </g>
            <g stroke="null" id="svg_21">
                <title>Right Arm</title>
                <path stroke="null" d="m371.75091,475.84762l69,0l0,33l-69,0l0,-33z" fill="#ffd3b3" id="svg_22"/>
            </g>
        </g>
        <text stroke="#0000ff" fill="#0000ff" stroke-width="0" x="315.5" y="398.45313" id="svg_24" font-size="17" font-family="'Palatino Linotype', 'Book Antiqua', Palatino, serif" text-anchor="start" xml:space="preserve" font-style="italic">T</text>
        <text stroke="#0000ff" fill="#0000ff" stroke-width="0" x="324.5" y="406.45313" id="svg_30" font-size="17" font-family="'Palatino Linotype', 'Book Antiqua', Palatino, serif" text-anchor="start" xml:space="preserve" font-style="italic">R</text>
        <text stroke="#0000ff" fill="#0000ff" stroke-width="0" x="337.5" y="412.45313" id="svg_31" font-size="17" font-family="'Palatino Linotype', 'Book Antiqua', Palatino, serif" text-anchor="start" xml:space="preserve" font-style="italic">F</text>
        <text stroke="#0000ff" fill="#0000ff" stroke-width="0" x="343.5" y="418.45313" id="svg_32" font-size="17" font-family="'Palatino Linotype', 'Book Antiqua', Palatino, serif" text-anchor="start" xml:space="preserve" font-style="italic">C</text>
        <rect stroke="#0000ff" fill="#0000ff" stroke-width="0" stroke-opacity="null" x="60.82456" y="459.02906" width="64.91228" height="17.54386" id="svg_45"/>
        <rect stroke="#0000ff" fill="#0000ff" stroke-width="0" stroke-opacity="null" x="373.10526" y="458.15187" width="67.91228" height="17.54386" id="svg_46"/>
        <path stroke="null" id="svg_11" fill="#0000ff" d="m160.89,399.513c0.0606,0.0248 0.15985,0.0248 0.22049,0l3.0909,-1.2926c0.0441,-0.0193 0.0441,-0.04823 0,-0.06615l-3.0909,-1.294c-0.0606,-0.0248 -0.15985,-0.0248 -0.22049,0l-3.0923,1.294c-0.0427,0.01792 -0.0427,0.04685 0,0.06615l3.0923,1.2926zm6.6118,-1.6261c0.11438,0.05099 0.19293,0.16536 0.19293,0.29903c0,0.13505 -0.0799,0.24942 -0.19431,0.30042l-6.259,2.6169c-0.13229,0.0565 -0.35002,0.0565 -0.48369,0l-6.2577,-2.6169c-0.11576,-0.05099 -0.19568,-0.16536 -0.19568,-0.30042c0,-0.13367 0.0799,-0.24942 0.19568,-0.29903l6.2577,-2.6169c0.13367,-0.0565 0.3514,-0.0565 0.48369,0l6.26038,2.6169zm7.0928,-0.32797c0.24115,0.10749 0.40514,0.34726 0.40514,0.62701c0,0.28112 -0.16674,0.5209 -0.4079,0.62838l-13.086,5.4722c-0.27837,0.11576 -0.7345,0.11576 -1.0129,0l-13.084,-5.4722c-0.24116,-0.10611 -0.40928,-0.34726 -0.40928,-0.62838c0,-0.27974 0.16812,-0.5209 0.40928,-0.62701l13.084,-5.4722c0.27836,-0.11575 0.73449,-0.11575 1.0129,0l13.08876,5.4722zm-13.969,-3.8806l-10.512,4.3959c-0.14745,0.06201 -0.14745,0.16261 0,0.22462l10.512,4.3959c0.20671,0.08682 0.54295,0.08682 0.74827,0l10.513,-4.3959c0.14745,-0.06202 0.14745,-0.16261 0,-0.22462l-10.513,-4.3959c-0.20532,-0.08544 -0.54156,-0.08544 -0.74827,0"/>
        <path stroke="null" id="svg_23" fill-rule="evenodd" fill="#0000ff" d="m152,407.461l0,2.045c0,1.1576 0.81441,1.6509 1.8686,1.6509c1.0542,0 1.87,-0.49334 1.87,-1.6509l0,-2.045l-1.2471,0l0,1.9444c0,0.44511 -0.10887,0.84474 -0.62287,0.84474c-0.51263,0 -0.62288,-0.39963 -0.62288,-0.84474l0,-1.9444l-1.2457,0m19.013,1.819c0,-0.62839 0.35278,-1.0873 0.87505,-1.0873c0.55397,0 0.86679,0.47542 0.86679,1.0294c0,0.66972 -0.32935,1.119 -0.86679,1.119c-0.47542,0 -0.87505,-0.45062 -0.87505,-1.0611m0.88746,-1.9017c-1.1934,0 -2.1029,0.69316 -2.1029,1.8934c0,1.192 0.9095,1.8865 2.1029,1.8865c1.192,0 2.1015,-0.69453 2.1015,-1.8865c0,-1.2003 -0.9095,-1.8934 -2.1015,-1.8934m-10.815,-0.0014c-0.51263,0 -0.99081,0.20808 -1.283,0.69453c-0.1943,-0.47267 -0.61736,-0.69453 -1.13,-0.69453c-0.56913,0 -1.068,0.23013 -1.3188,0.74965l-0.0138,0l0,-0.66559l-1.1369,0l0,3.6132l1.2485,0l0,-1.5255c0,-0.77722 0.26321,-1.1314 0.70693,-1.1314c0.35416,0 0.50023,0.30592 0.50023,0.7152l0,1.9417l1.2485,0l0,-1.5255c0,-0.77722 0.26321,-1.1314 0.70694,-1.1314c0.35416,0 0.50023,0.30592 0.50023,0.7152l0,1.9417l1.2485,0l0,-2.1291c0,-0.97841 -0.23702,-1.5682 -1.2774,-1.5682m3.7304,2.8732c-0.43546,0 -0.79788,-0.41341 -0.79788,-0.96463c0,-0.56637 0.31832,-0.98667 0.79788,-0.98667c0.50712,0 0.79099,0.43546 0.79099,0.93569c0,0.6022 -0.29765,1.0156 -0.79099,1.0156m0.49472,-2.8746c-0.50023,0 -0.92329,0.1447 -1.2416,0.54708l-0.0138,0l0,-1.7432l-1.2554,0l0,4.892l1.1507,0l0,-0.64492l0.0138,0c0.15985,0.40239 0.66559,0.72898 1.2416,0.72898c1.0749,0 1.6509,-0.88883 1.6509,-1.9568c0,-0.87368 -0.54846,-1.8231 -1.5462,-1.8231m2.989,0.75103l-0.0138,0l0,-0.66559l-1.1383,0l0,3.6132l1.2485,0l0,-1.5255c0,-0.70831 0.32659,-1.1314 0.9095,-1.1314c0.14607,0 0.28112,0 0.4203,0.04272l0.001,-1.0514c-0.11162,-0.01654 -0.2384,-0.0303 -0.35967,-0.0303c-0.54157,0 -0.853,0.29077 -1.068,0.74828"/>
        <line fill="none" stroke-width="19" x1="200.02991" y1="321.80356" x2="255.02991" y2="387.80356" id="svg_35" transform="rotate(-2.1129188537597656 227.52990722656145,354.8035583496094) " stroke="#0000ff"/>
        <g id="svg_4">
            <title>Simple Hair</title>
            <path id="svg_5" fill="#7f3f00" d="m158,109.04217l0,51.95783l28.30769,-48.49398s34.37363,8.31325 63.69231,8.31325s63.69231,-8.31325 63.69231,-8.31325l28.30769,48.49398l0,-51.95783c0,-34.81729 -41.18972,-63.04217 -92.00001,-63.04217c-50.81029,0 -92.00001,28.22488 -92.00001,63.04217l0.00002,0z"/>
        </g>
        <ellipse stroke="#7f3f00" ry="19.5" rx="32.5" id="svg_26" cy="77.95313" cx="203.5" fill-opacity="null" stroke-width="8" fill="#7f3f00"/>
        <ellipse stroke="#7f3f00" ry="21" rx="21.13649" id="svg_27" cy="62.33773" cx="213.20269" fill-opacity="null" stroke-width="8" fill="#7f3f00"/>
        <ellipse transform="rotate(90.2156753540039 257.5,59.45312881469726) " stroke="#7f3f00" ry="21" rx="14.5" id="svg_28" cy="59.45313" cx="257.5" fill-opacity="null" stroke-width="8" fill="#7f3f00"/>
        <ellipse stroke="#7f3f00" ry="21" rx="24.56405" id="svg_30" cy="70.36707" cx="303.99291" fill-opacity="null" stroke-width="8" fill="#7f3f00"/>
        <ellipse ry="21" rx="24.03333" id="svg_31" cy="89.78418" cx="187.24034" fill-opacity="null" stroke-width="8" fill="#7f3f00" stroke="#7f3f00"/>
        <ellipse ry="21" rx="24.03333" id="svg_32" cy="81.78418" cx="313.24034" fill-opacity="null" stroke-width="8" fill="#7f3f00" stroke="#7f3f00"/>
        <ellipse ry="26.70523" rx="30.41302" id="svg_46" cy="86.78419" cx="246.74034" fill-opacity="null" stroke-width="8" fill="#7f3f00" stroke="#7f3f00"/>
        <ellipse stroke="#7f3f00" ry="21" rx="24.56405" id="svg_51" cy="83.36707" cx="327.99291" fill-opacity="null" stroke-width="8" fill="#7f3f00"/>
        <ellipse stroke="#7f3f00" ry="21" rx="24.56405" id="svg_52" cy="86.36707" cx="176.99291" fill-opacity="null" stroke-width="8" fill="#7f3f00"/>
        <path fill="#0000ff" stroke-width="19" d="m186.39546,327.47833l0,-13.4441l19.36678,13.4441l-19.36678,0z" id="svg_16" transform="rotate(-46.21990203857422 196.078857421875,320.75628662109375) "/>
        <path fill="#0000ff" stroke-width="19" d="m298.20031,329.76427l0,-18.88994l23.59118,18.88994l-23.59118,0z" id="svg_17"/>
        <line fill="none" stroke-width="19" x1="248.71549" y1="317.85487" x2="305.31846" y2="391.14467" id="svg_18" transform="rotate(83.163818359375 277.0169677734375,354.499755859375) " stroke="#0000ff"/>
        <path fill="#0000ff" stroke-width="19" d="m294.09775,329.76427l0,-18.88994l23.59118,18.88994l-23.59118,0z" id="svg_29" transform="rotate(-6.207199573516846 305.893341064453,320.3193054199217) "/>
        <path d="m242.5,110.45313c0,1 0,1 0,3c0,1 0.61732,2.07613 1,3c0.54119,1.30656 1.29289,1.29289 2,2c0.70711,0.70711 3.02675,0.77025 4,1c2.17625,0.51375 2.87856,2.49345 6,3c0.98709,0.16019 2,1 4,1c1,0 3.15224,0.23463 5,1c1.30656,0.5412 3.02675,1.77025 4,2c2.17625,0.51375 2.82375,1.48625 5,2c0.97325,0.22975 2,1 3,1c0,0 1,0 2,0c1,0 2,0 2,0c1,0 2,0 3,0c0,0 1,0 2,0c2,0 3,0 5,0c1,0 3,0 4,0c0,0 1,0 1,0c0,0 1,0 1,0c1,0 1,0 2,0c0,0 1,0 0,0c0,0 -2.81266,-0.2068 -5,-2c-2.78832,-2.28587 -5.21168,-3.71413 -8,-6c-2.18734,-1.7932 -3,-3 -3,-3c-1,0 -0.29289,-0.29289 -1,-1c-0.70711,-0.70711 -1.07612,0.38269 -2,0c-1.30656,-0.5412 -2,-2 -4,-4c-2,-2 -2.69255,-4.186 -4,-6c-0.8269,-1.14726 -2,-2 -2,-3c0,0 0,-1 0,-1c-1,-1 -1,-2 -1,-3l0,-1l0,0l0,0" id="svg_15" stroke-width="19" fill="#7f3f00"/>
        <path d="m348.5,197.45313c0,0 0,1 0,2c0,0 0,1 1,1c0,0 0,1 1,1c0,0 1,0 1,0c1,0 2.07612,0.61731 3,1c1.30656,0.5412 2,1 3,2c1,1 3,2 3,2c1,0 2,0 2,0c1,0 1.29289,0.29289 2,1c0.70711,0.70711 2,0 3,0c1,0 3,0 4,0c1,0 2.69344,-0.4588 4,-1c0.92388,-0.38269 3,-1 3,-1c1,-1 1,-1 1,-1c0,0 1,0 0,0c0,0 -0.69344,-0.4588 -2,-1c-0.92388,-0.38269 -3.29289,-0.29289 -4,-1c-0.70711,-0.70711 -1,-1 -1,-1c-1,0 -1.07612,-0.61731 -2,-1c-1.30656,-0.5412 -2.4588,-2.69344 -3,-4c-0.38268,-0.92387 -0.61732,-2.07613 -1,-3c-0.5412,-1.30656 -1.4588,-1.69344 -2,-3c-0.38268,-0.92387 0,-2 0,-2l0,-1l0,0l-1,0" id="svg_37" stroke-width="8" fill="#7f3f00"/>
        <path d="m322.5,261.45313c0,0 0,1 0,2c0,0 0,1 1,1c0,0 0,1 1,1c0,0 1,0 1,0c1,0 2.07612,0.6173 3,1c1.30656,0.54119 2,1 3,2c1,1 3,2 3,2c1,0 2,0 2,0c1,0 1.29289,0.29289 2,1c0.70711,0.7071 2,0 3,0c1,0 3,0 4,0c1,0 2.69344,-0.45881 4,-1c0.92388,-0.3827 3,-1 3,-1c1,-1 1,-1 1,-1c0,0 1,0 0,0c0,0 -0.69344,-0.45881 -2,-1c-0.92388,-0.3827 -3.29289,-0.2929 -4,-1c-0.70711,-0.70711 -1,-1 -1,-1c-1,0 -1.07612,-0.61731 -2,-1c-1.30656,-0.5412 -2.4588,-2.69344 -3,-4c-0.38268,-0.92388 -0.61732,-2.07613 -1,-3c-0.5412,-1.30657 -1.4588,-1.69344 -2,-3c-0.38268,-0.92388 0,-2 0,-2l0,-1l0,0l-1,0" id="svg_38" stroke-width="8" fill="#7f3f00"/>
        <path d="m156.5,174.45313c0,0 0,1 0,2c0,0 0,1 -0.93993,1c0,0 0,1 -0.93993,1c0,0 -0.93993,0 -0.93993,0c-0.93993,0 -1.95141,0.6173 -2.81979,1c-1.22807,0.54119 -1.87986,1 -2.81979,2c-0.93993,1 -2.81979,2 -2.81979,2c-0.93993,0 -1.87986,0 -1.87986,0c-0.93993,0 -1.21523,0.29289 -1.87986,1c-0.66463,0.7071 -1.87986,0 -2.81979,0c-0.93993,0 -2.81979,0 -3.75972,0c-0.93993,0 -2.53164,-0.45881 -3.75972,-1c-0.86838,-0.3827 -2.81979,-1 -2.81979,-1c-0.93993,-1 -0.93993,-1 -0.93993,-1c0,0 -0.93993,0 0,0c0,0 0.65178,-0.45881 1.87986,-1c0.86838,-0.3827 3.09508,-0.2929 3.75972,-1c0.66463,-0.70711 0.93993,-1 0.93993,-1c0.93993,0 1.01148,-0.61731 1.87986,-1c1.22807,-0.5412 2.3111,-2.69344 2.81979,-4c0.35969,-0.92388 0.58024,-2.07613 0.93993,-3c0.50869,-1.30657 1.37117,-1.69344 1.87986,-3c0.35969,-0.92388 0,-2 0,-2l0,-1l0,0l0.93993,0" id="svg_39" stroke-width="8" fill="#7f3f00"/>
        <path d="m168.5,257.45313c0,0 0,1 0,2c0,0 0,1 -1.32155,1c0,0 0,1 -1.32155,1c0,0 -1.32155,0 -1.32155,0c-1.32155,0 -2.74371,0.6173 -3.96466,1c-1.72669,0.54119 -2.64311,1 -3.96466,2c-1.32155,1 -3.96466,2 -3.96466,2c-1.32155,0 -2.64311,0 -2.64311,0c-1.32155,0 -1.70863,0.29289 -2.64311,1c-0.93448,0.7071 -2.64311,0 -3.96466,0c-1.32155,0 -3.96466,0 -5.28622,0c-1.32155,0 -3.55953,-0.45881 -5.28622,-1c-1.22096,-0.3827 -3.96466,-1 -3.96466,-1c-1.32155,-1 -1.32155,-1 -1.32155,-1c0,0 -1.32155,0 0,0c0,0 0.91642,-0.45881 2.64311,-1c1.22096,-0.3827 4.35173,-0.2929 5.28622,-1c0.93448,-0.70711 1.32155,-1 1.32155,-1c1.32155,0 1.42215,-0.61731 2.64311,-1c1.72669,-0.5412 3.24944,-2.69344 3.96466,-4c0.50573,-0.92388 0.81582,-2.07613 1.32155,-3c0.71523,-1.30657 1.92788,-1.69344 2.64311,-3c0.50573,-0.92388 0,-2 0,-2l0,-1l0,0l1.32155,0" id="svg_40" stroke-width="8" fill="#7f3f00"/>
        <path transform="rotate(-19.629074096679688 202.7222290039062,112.61026000976568) " d="m223.5,112.45313c0,0 0,1 0,2c0,0 0,1 -1.32155,1c0,0 0,1 -1.32156,1c0,0 -1.32155,0 -1.32155,0c-1.32156,0 -2.74371,0.6173 -3.96467,1c-1.72669,0.54119 -2.64311,1 -3.96466,2c-1.32156,1 -3.96467,2 -3.96467,2c-1.32155,0 -2.64311,0 -2.64311,0c-1.32155,0 -1.70862,0.29289 -2.64311,1c-0.93448,0.7071 -2.64311,0 -3.96466,0c-1.32156,0 -3.96467,0 -5.28622,0c-1.32156,0 -3.55953,-0.45881 -5.28622,-1c-1.22096,-0.3827 -3.96467,-1 -3.96467,-1c-1.32155,-1 -1.32155,-1 -1.32155,-1c0,0 -1.32156,0 0,0c0,0 0.91642,-0.45881 2.64311,-1c1.22096,-0.3827 4.35173,-0.2929 5.28622,-1c0.93448,-0.70711 1.32155,-1 1.32155,-1c1.32156,0 1.42215,-0.61731 2.64311,-1c1.72669,-0.5412 3.24944,-2.69344 3.96467,-4c0.50573,-0.92388 0.81582,-2.07613 1.32155,-3c0.71523,-1.30657 1.92789,-1.69344 2.64311,-3c0.50573,-0.92388 0,-2 0,-2l0,-1l0,0l1.32156,0" id="svg_41" stroke-width="8" fill="#7f3f00"/>
        <path d="m182.5,100.45313c0,-1 -0.28978,-2.04291 0,-3c1.04483,-3.45084 3.513,-4.59399 5,-7c1.66251,-2.68999 2,-4 2,-4c1,0 1,0 1,0c1,0 1.29289,-0.70711 2,0c0.70711,0.70711 0.4588,1.69344 1,3c0.38269,0.92388 -0.05147,3.2987 1,5c1.17557,1.90211 3.07613,1.61732 4,2c1.30656,0.5412 1,1 2,1c1,0 1,-2 2,-6c1,-4 0.69255,-7.186 2,-9c0.8269,-1.14727 2.07613,-1.38268 3,-1c1.30656,0.5412 2.48625,2.82375 3,5c0.22975,0.97325 0.4588,1.69344 1,3c0.38269,0.92388 1,1 2,1c1,0 3.2068,-1.81266 5,-4c2.28587,-2.78832 3.70546,-5.34619 6,-7c1.814,-1.30745 4.14935,-2.52573 5,-2c1.90211,1.17557 0.59399,5.50433 3,10c0.66731,1.24688 1,3 2,4c0,0 1.2242,0.09718 2,-2c1.4305,-3.867 1.09789,-6.82443 3,-8c1.70131,-1.05146 3.18875,-1.58471 4,-1c2.56537,1.84901 1.61731,5.07612 2,6c0.5412,1.30656 1,2 2,2c0,0 1.15224,0.76537 3,0c2.61313,-1.08239 3.95517,-3.54916 5,-7c0.57956,-1.91418 1,-3 2,-4c0,0 -0.22977,1.02675 0,2c0.51373,2.17625 -0.41422,3.58578 1,5c0.70709,0.70711 1.07611,0.38268 2,0c1.30655,-0.5412 0.78986,-5.07844 2,-8c1.71143,-4.13171 2,-6 3,-6c0,0 0.5405,0.0535 1,2c0.51373,2.17625 1,4 1,4c0,1 1,1 1,0c0,-2 1.48627,-3.82375 2,-6c0.22977,-0.97325 1,-1 2,-1c0,0 0.51944,2.03873 1,5c0.50653,3.12144 1.48627,5.82375 2,8c0.68927,2.91975 0,4 1,4c1,0 1,0 1,-2c0,-2 0,-3 0,-1c0,1 0.49622,3.90778 1,8c0.12219,0.99251 0,3 0,4l0,1l0,0l0,0" id="svg_58" fill-opacity="null" stroke-width="8" stroke="#723904" fill="none"/>
    </g>
</svg>