<svg width="512" height="512" xmlns="http://www.w3.org/2000/svg">
    <g>
        <title>background</title>
        <rect fill="none" id="canvas_background" height="514" width="514" y="-1" x="-1"/>
    </g>

    <g>
        <ellipse stroke="#000000" transform="rotate(35.09581756591797 347.9929199218749,260.3670654296875) " ry="21" rx="24.56405" id="svg_50" cy="260.36707" cx="347.99291" fill-opacity="null" stroke-width="8" fill="null"/>
        <ellipse stroke="#000000" transform="rotate(35.09581756591797 166.99290466308588,254.3670654296875) " ry="21" rx="24.56405" id="svg_49" cy="254.36707" cx="166.99291" fill-opacity="null" stroke-width="8" fill="null"/>
        <ellipse stroke="#000000" transform="rotate(35.09581756591797 339.992919921875,108.36706542968756) " ry="21" rx="24.56405" id="svg_48" cy="108.36707" cx="339.99291" fill-opacity="null" stroke-width="8" fill="null"/>
        <ellipse stroke="#000000" transform="rotate(35.09581756591797 175.49288940429688,113.86706542968747) " ry="26.84896" rx="29.28524" id="svg_47" cy="113.86706" cx="175.49291" fill-opacity="null" stroke-width="8" fill="null"/>
        <ellipse transform="rotate(35.09581756591797 314.2403259277344,256.7841796875) " ry="21" rx="24.03333" id="svg_25" cy="256.78418" cx="314.24034" fill-opacity="null" stroke-width="8" fill="null" stroke="#000000"/>
        <ellipse transform="rotate(35.09581756591797 193.24032592773443,260.7841796875) " ry="21" rx="24.03333" id="svg_24" cy="260.78418" cx="193.24034" fill-opacity="null" stroke-width="8" fill="null" stroke="#000000"/>
        <ellipse stroke="#000000" transform="rotate(35.09581756591797 310.99291992187506,250.36706542968747) " ry="21" rx="24.56405" id="svg_45" cy="250.36707" cx="310.99291" fill-opacity="null" stroke-width="8" fill="null"/>
        <ellipse stroke="#000000" transform="rotate(35.09581756591797 198.99290466308605,246.36706542968747) " ry="21" rx="24.56405" id="svg_44" cy="246.36707" cx="198.99291" fill-opacity="null" stroke-width="8" fill="null"/>
        <ellipse stroke="#000000" transform="rotate(35.09581756591797 342.99291992187506,232.36706542968744) " ry="21" rx="24.56405" id="svg_36" cy="232.36707" cx="342.99291" fill-opacity="null" stroke-width="8" fill="null"/>
        <ellipse stroke="#000000" transform="rotate(35.09581756591797 165.99290466308594,234.36706542968753) " ry="21" rx="24.56405" id="svg_35" cy="234.36707" cx="165.99291" fill-opacity="null" stroke-width="8" fill="null"/>
        <ellipse stroke="#000000" transform="rotate(35.09581756591797 166.99290466308594,202.36706542968747) " ry="21" rx="24.56405" id="svg_34" cy="202.36707" cx="166.99291" fill-opacity="null" stroke-width="8" fill="null"/>
        <ellipse stroke="#000000" transform="rotate(35.09581756591797 338.99291992187494,201.36706542968747) " ry="21" rx="24.56405" id="svg_33" cy="201.36707" cx="338.99291" fill-opacity="null" stroke-width="8" fill="null"/>
        <g id="shirt">
            <title>Shirt</title>
            <g id="svg_1">
                <g id="svg_2">
                    <title>Chest</title>
                    <path id="svg_3" fill="#0000ff" d="m254.74181,307.00899l44,0l98.846,21.665c27.533,6.035 47.154,30.421 47.154,58.609l0,85.726l-66,0l0,33l-124,0l-124,0l0,-33l-66,0l0,-85.726c0,-28.187 19.621,-52.574 47.154,-58.609l98.846,-21.665l44,0z"/>
                </g>
                <g id="svg_4">
                    <title>Left Sleeve</title>
                    <path id="svg_5" d="m130.9286,473.52537l-66,0l0,-20l66,0l0,20z" fill="#ffffff"/>
                </g>
                <g id="svg_6">
                    <title>Right Sleeve</title>
                    <path id="svg_29" fill="#ffffff" d="m378.92691,452.49199l66,0l0,20l-66,0l0,-20z"/>
                </g>
            </g>
            <path d="m175.89,391.513c0.0606,0.0248 0.15985,0.0248 0.22049,0l3.0909,-1.2926c0.0441,-0.0193 0.0441,-0.04823 0,-0.06615l-3.0909,-1.294c-0.0606,-0.0248 -0.15985,-0.0248 -0.22049,0l-3.0923,1.294c-0.0427,0.01792 -0.0427,0.04685 0,0.06615l3.0923,1.2926zm6.6118,-1.6261c0.11438,0.05099 0.19293,0.16536 0.19293,0.29903c0,0.13505 -0.0799,0.24942 -0.19431,0.30042l-6.259,2.6169c-0.13229,0.0565 -0.35002,0.0565 -0.48369,0l-6.2577,-2.6169c-0.11576,-0.05099 -0.19568,-0.16536 -0.19568,-0.30042c0,-0.13367 0.0799,-0.24942 0.19568,-0.29903l6.2577,-2.6169c0.13367,-0.0565 0.3514,-0.0565 0.48369,0l6.26038,2.6169zm7.0928,-0.32797c0.24115,0.10749 0.40514,0.34726 0.40514,0.62701c0,0.28112 -0.16674,0.5209 -0.4079,0.62838l-13.086,5.4722c-0.27837,0.11576 -0.7345,0.11576 -1.0129,0l-13.084,-5.4722c-0.24116,-0.10611 -0.40928,-0.34726 -0.40928,-0.62838c0,-0.27974 0.16812,-0.5209 0.40928,-0.62701l13.084,-5.4722c0.27836,-0.11575 0.73449,-0.11575 1.0129,0l13.08876,5.4722zm-13.969,-3.8806l-10.512,4.3959c-0.14745,0.06201 -0.14745,0.16261 0,0.22462l10.512,4.3959c0.20671,0.08682 0.54295,0.08682 0.74827,0l10.513,-4.3959c0.14745,-0.06202 0.14745,-0.16261 0,-0.22462l-10.513,-4.3959c-0.20532,-0.08544 -0.54156,-0.08544 -0.74827,0" fill="#ffffff" id="svg_11"/>
            <path d="m166,404.461l0,2.045c0,1.1576 0.81441,1.6509 1.8686,1.6509c1.0542,0 1.87,-0.49334 1.87,-1.6509l0,-2.045l-1.2471,0l0,1.9444c0,0.44511 -0.10887,0.84474 -0.62287,0.84474c-0.51263,0 -0.62288,-0.39963 -0.62288,-0.84474l0,-1.9444l-1.2457,0m19.013,1.819c0,-0.62839 0.35278,-1.0873 0.87505,-1.0873c0.55397,0 0.86679,0.47542 0.86679,1.0294c0,0.66972 -0.32935,1.119 -0.86679,1.119c-0.47542,0 -0.87505,-0.45062 -0.87505,-1.0611m0.88746,-1.9017c-1.1934,0 -2.1029,0.69316 -2.1029,1.8934c0,1.192 0.9095,1.8865 2.1029,1.8865c1.192,0 2.1015,-0.69453 2.1015,-1.8865c0,-1.2003 -0.9095,-1.8934 -2.1015,-1.8934m-10.815,-0.0014c-0.51263,0 -0.99081,0.20808 -1.283,0.69453c-0.1943,-0.47267 -0.61736,-0.69453 -1.13,-0.69453c-0.56913,0 -1.068,0.23013 -1.3188,0.74965l-0.0138,0l0,-0.66559l-1.1369,0l0,3.6132l1.2485,0l0,-1.5255c0,-0.77722 0.26321,-1.1314 0.70693,-1.1314c0.35416,0 0.50023,0.30592 0.50023,0.7152l0,1.9417l1.2485,0l0,-1.5255c0,-0.77722 0.26321,-1.1314 0.70694,-1.1314c0.35416,0 0.50023,0.30592 0.50023,0.7152l0,1.9417l1.2485,0l0,-2.1291c0,-0.97841 -0.23702,-1.5682 -1.2774,-1.5682m3.7304,2.8732c-0.43546,0 -0.79788,-0.41341 -0.79788,-0.96463c0,-0.56637 0.31832,-0.98667 0.79788,-0.98667c0.50712,0 0.79099,0.43546 0.79099,0.93569c0,0.6022 -0.29765,1.0156 -0.79099,1.0156m0.49472,-2.8746c-0.50023,0 -0.92329,0.1447 -1.2416,0.54708l-0.0138,0l0,-1.7432l-1.2554,0l0,4.892l1.1507,0l0,-0.64492l0.0138,0c0.15985,0.40239 0.66559,0.72898 1.2416,0.72898c1.0749,0 1.6509,-0.88883 1.6509,-1.9568c0,-0.87368 -0.54846,-1.8231 -1.5462,-1.8231m2.989,0.75103l-0.0138,0l0,-0.66559l-1.1383,0l0,3.6132l1.2485,0l0,-1.5255c0,-0.70831 0.32659,-1.1314 0.9095,-1.1314c0.14607,0 0.28112,0 0.4203,0.04272l0.001,-1.0514c-0.11162,-0.01654 -0.2384,-0.0303 -0.35967,-0.0303c-0.54157,0 -0.853,0.29077 -1.068,0.74828" fill="#ffffff" fill-rule="evenodd" id="svg_23"/>
        </g>
        <g id="skin-light">
            <title>Skin</title>
            <g id="svg_8">
                <title>Bottom Neck</title>
                <path id="svg_9" fill="#ffd3b3" d="m211.25968,270.84762l0,36c0,24.301 19.699,44 44,44s44,-19.699 44,-44l0,-36l-88,0z"/>
            </g>
            <g id="svg_10">
                <title>Top Neck</title>
                <path id="svg_12" fill="#fcb98b" d="m211.25968,289.03562c13.499,5.851 28.376,9.812 44,9.812s30.501,-3.961 44,-9.812l0,-18.188l-88,0l0,18.188z"/>
            </g>
            <g id="svg_13">
                <title>Face</title>
                <path id="svg_14" fill="#ffd3b3" d="m346.25968,93.84762l0,98c0,50.258 -40.742,91 -91,91c-50.258,0 -91,-40.742 -91,-91l0,-98l182,0z"/>
            </g>
            <g id="svg_15">
                <title>Left Ear</title>
                <path id="svg_16" fill="#ffd3b3" d="m150.25968,179.84762l14,0l0,-50l-14,0c-5.523,0 -10,4.477 -10,10l0,30c0,5.523 4.477,10 10,10z"/>
            </g>
            <g id="svg_17">
                <title>Right Ear</title>
                <path id="svg_18" fill="#ffd3b3" d="m360.25968,179.84762l-14,0l0,-50l14,0c5.523,0 10,4.477 10,10l0,30c0,5.523 -4.477,10 -10,10z"/>
            </g>
            <g id="svg_19">
                <title>Left Arm</title>
                <path id="svg_20" fill="#ffd3b3" d="m131.25968,505.84762l-66,0l0,-33l66,0l0,33z"/>
            </g>
            <g id="svg_21">
                <title>Right Arm</title>
                <path id="svg_22" fill="#ffd3b3" d="m379.25968,472.84762l66,0l0,33l-66,0l0,-33z"/>
            </g>
        </g>
        <g id="svg_37">
            <title>Simple Collar</title>
            <g id="svg_38">
                <path d="m256,356l-30,30l-31.996,-70.056l17.996,-11.944l44,52z" fill="#0000ff" id="svg_39" stroke-dasharray="5,5"/>
            </g>
            <g id="svg_40">
                <path d="m256,356l30,30l31.996,-70.056l-17.996,-11.944l-44,52z" fill="#0000ff" id="svg_41" stroke-dasharray="5,5"/>
            </g>
        </g>
        <g id="svg_7">
            <line fill="none" stroke-width="4.5" x1="204" y1="312.45313" x2="252" y2="364.45312" id="svg_42" stroke="#ffffff"/>
            <line fill="none" stroke-width="3.5" x1="258" y1="365.45313" x2="306" y2="310.45312" id="svg_43" stroke="#ffffff"/>
        </g>
        <g id="svg_4">
            <title>Simple Hair</title>
            <path id="svg_5" fill="#000000" d="m163,109.04217l0,51.95783l28.30769,-48.49398s34.37363,8.31325 63.69231,8.31325s63.69231,-8.31325 63.69231,-8.31325l28.30769,48.49398l0,-51.95783c0,-34.81729 -41.18972,-63.04217 -92.00001,-63.04217c-50.81029,0 -92.00001,28.22488 -92.00001,63.04217l0.00002,0z"/>
        </g>
        <ellipse stroke="#000000" ry="19.5" rx="32.5" id="svg_26" cy="77.95313" cx="203.5" fill-opacity="null" stroke-width="8" fill="null"/>
        <ellipse stroke="#000000" transform="rotate(-35.09581756591797 213.20268249511716,58.337730407714844) " ry="21" rx="21.13649" id="svg_27" cy="58.33773" cx="213.20269" fill-opacity="null" stroke-width="8" fill="null"/>
        <ellipse transform="rotate(90.2156753540039 257.5,51.45312881469725) " stroke="#000000" ry="21" rx="14.5" id="svg_28" cy="51.45313" cx="257.5" fill-opacity="null" stroke-width="8" fill="null"/>
        <ellipse stroke="#000000" transform="rotate(35.09581756591797 305.99291992187494,61.36706924438476) " ry="21" rx="24.56405" id="svg_30" cy="61.36707" cx="305.99291" fill-opacity="null" stroke-width="8" fill="null"/>
        <ellipse transform="rotate(35.09581756591797 187.2403411865235,89.7841796875) " ry="21" rx="24.03333" id="svg_31" cy="89.78418" cx="187.24034" fill-opacity="null" stroke-width="8" fill="null" stroke="#000000"/>
        <ellipse transform="rotate(35.09581756591797 313.2403259277344,81.78417968749999) " ry="21" rx="24.03333" id="svg_32" cy="81.78418" cx="313.24034" fill-opacity="null" stroke-width="8" fill="null" stroke="#000000"/>
        <ellipse transform="rotate(35.09581756591797 246.74034118652344,86.7841873168945) " ry="26.70523" rx="30.41302" id="svg_46" cy="86.78419" cx="246.74034" fill-opacity="null" stroke-width="8" fill="null" stroke="#000000"/>
        <ellipse stroke="#000000" transform="rotate(35.09581756591797 327.99291992187494,83.3670654296875) " ry="21" rx="24.56405" id="svg_51" cy="83.36707" cx="327.99291" fill-opacity="null" stroke-width="8" fill="null"/>
        <ellipse stroke="#000000" transform="rotate(114.24739074707031 184.9929046630859,78.36707305908205) " ry="21" rx="24.56405" id="svg_52" cy="78.36707" cx="184.99291" fill-opacity="null" stroke-width="8" fill="null"/>
    </g>
</svg>