<svg width="512" height="512" xmlns="http://www.w3.org/2000/svg">
    <g id="shirt">
        <g id="chest">
            <path fill="#0000ff" d="m255.74181,313.00899l44,0l98.846,21.665c27.533,6.035 47.154,30.421 47.154,58.609l0,85.726l-66,0l0,33l-124,0l-124,0l0,-33l-66,0l0,-85.726c0,-28.187 19.621,-52.574 47.154,-58.609l98.846,-21.665l44,0z"/>
        </g>
    </g>

    <g id="shoulders">
        <path fill="#ffffff" d="m398.5978,332.77168l-99.36623,-22.02808l-44.23158,0l-44.23158,0l-99.36623,22.02808c-27.67791,6.13614 -47.40218,30.93082 -47.40218,59.59122l0,66.82749l20.10526,0l0,-66.82749c0,-18.96052 13.29058,-35.6679 31.60145,-39.72782l97.2391,-21.5563l84.10835,0l97.2391,21.5563c18.31087,4.0589 31.60145,20.7673 31.60145,39.72782l0,66.82749l20.10526,0l0,-66.82749c0,-28.6604 -19.72427,-53.45508 -47.40218,-59.59122l0.00001,0z" stroke="null"/>
        <path fill="#0000ff" d="m392.67631,339.88899l-94.92091,-22.02808l-42.2528,0l-42.25279,0l-94.92091,22.02808c-26.43969,6.13614 -45.28155,30.93082 -45.28155,59.59122l0,66.82749l19.20582,0l0,-66.82749c0,-18.96052 12.696,-35.6679 30.1877,-39.72782l92.88893,-21.5563l80.3456,0l92.88893,21.5563c17.4917,4.0589 30.1877,20.7673 30.1877,39.72782l0,66.82749l19.20582,0l0,-66.82749c0,-28.6604 -18.84187,-53.45508 -45.28155,-59.59122l0.00001,0z" stroke="null"/>
        <path fill="#ffffff" d="m389.02217,342.29638l-92.04451,-20.36843l-40.97241,0l-40.9724,0l-92.04451,20.36843c-25.63848,5.67383 -43.90938,28.60041 -43.90938,55.10146l0,61.79254l18.62382,0l0,-61.79254c0,-17.53198 12.31128,-32.9806 29.27292,-36.73462l90.07412,-19.9322l77.91089,0l90.07411,19.9322c16.96164,3.75309 29.27293,19.20264 29.27293,36.73462l0,61.79254l18.62382,0l0,-61.79254c0,-26.50106 -18.2709,-49.42764 -43.90938,-55.10146l-0.00002,0z" stroke="null"/>
        <path fill="#0000ff" d="m384.73699,350.0893l-88.38366,-19.01053l-39.34282,0l-39.34282,0l-88.38366,19.01053c-24.61877,5.29557 -42.16299,26.69372 -42.16299,51.42804l0,57.67304l17.8831,0l0,-57.67304c0,-16.36319 11.82163,-30.78188 28.10866,-34.28565l86.49162,-18.60338l74.81216,0l86.49162,18.60338c16.28704,3.50289 28.10866,17.92246 28.10866,34.28565l0,57.67304l17.8831,0l0,-57.67304c0,-24.73432 -17.54421,-46.13246 -42.16299,-51.42804l0.00002,0z" stroke="null"/>
    </g>

    <g id="tranmere-logo">    
        <text stroke="#ffffff" fill="#ffffff" stroke-width="0" x="299.5" y="387.45313" font-size="17" font-family="'Palatino Linotype', 'Book Antiqua', Palatino, serif" text-anchor="start" xml:space="preserve" font-style="italic">T</text>
        <text stroke="#ffffff" fill="#ffffff" stroke-width="0" x="309.5" y="399.45313" font-size="17" font-family="'Palatino Linotype', 'Book Antiqua', Palatino, serif" text-anchor="start" xml:space="preserve" font-style="italic">R</text>
        <text stroke="#ffffff" fill="#ffffff" stroke-width="0" x="321.5" y="406.45313" font-size="17" font-family="'Palatino Linotype', 'Book Antiqua', Palatino, serif" text-anchor="start" xml:space="preserve" font-style="italic">F</text>
        <text stroke="#ffffff" fill="#ffffff" stroke-width="0" x="328.5" y="416.45313" font-size="17" font-family="'Palatino Linotype', 'Book Antiqua', Palatino, serif" text-anchor="start" xml:space="preserve" font-style="italic">C</text>
        <text fill="#ffffff" stroke="#ffffff" stroke-width="0" stroke-opacity="null" fill-opacity="null" x="174.5" y="466.45313" font-size="29" font-family="'Trebuchet MS', Gadget, sans-serif" text-anchor="start" xml:space="preserve">CATHEDRAL</text>
   </g>    

    <g id="logo">
        <path fill="#ffffff" d="m181.54822,397.81831c-0.15671,0.24789 -0.43452,0.59155 -0.69096,0.79437l-20.61479,0c-0.14959,-0.16338 -0.50575,-0.52958 -0.66247,-0.79437l21.96822,0m-1.53863,1.62254c-0.25644,0.28169 -0.6411,0.55211 -1.05425,0.73239l-16.88219,0c-0.33479,-0.18028 -0.66959,-0.4507 -0.98301,-0.73239l18.91945,0m-2.33644,1.50423c-1.82356,1.07606 -3.82521,1.62254 -5.34247,1.70141c0,-0.44507 0,-1.05352 0.15671,-1.70141l5.18575,0m5.79836,-8.44507c0.15671,1.31831 -0.38466,2.92394 -1.41041,4.54648l-7.59342,0c0.27781,-0.3831 0.6411,-0.7493 1.04712,-1.12113c2.20822,-2.03944 5.5989,-3.30704 7.95671,-3.42535m-14.73096,10.15211c-1.46027,-0.07887 -3.46904,-0.62535 -5.30685,-1.70141l5.23562,0c0.09973,0.64225 0.09973,1.25634 0.07123,1.70141m1.82356,0.12394c-0.59123,-0.44507 -1.10411,-1.05352 -1.63836,-1.82535l3.25534,0c-0.51288,0.7662 -1.07562,1.38028 -1.61699,1.82535m-3.87507,-5.72958l-7.62192,0c-1.03288,-1.62254 -1.53863,-3.22817 -1.38904,-4.54648c2.33644,0.11831 5.75562,1.38028 7.96384,3.42535c0.37753,0.37183 0.76219,0.73803 1.04712,1.12113m7.1589,0l-6.57479,0c-0.09973,-0.46761 -0.09973,-0.91268 -0.09973,-1.44225c0,-2.84507 1.58849,-5.78592 3.38356,-7.10423c1.7737,1.31831 3.39068,4.26479 3.39068,7.10423c0.00712,0.52958 -0.04986,0.98028 -0.09973,1.44225" id="XMLID_11_"/>
        <path fill="#ffffff" d="m182.90877,403.80704c0.31342,0 0.56274,0.20282 0.56274,0.46761c0,0.24225 -0.24932,0.44507 -0.56274,0.44507c-0.31342,0 -0.56274,-0.20282 -0.56274,-0.44507c0,-0.26479 0.25644,-0.46761 0.56274,-0.46761zm0,0.06197c-0.28493,0 -0.48438,0.18028 -0.48438,0.40563c0,0.20282 0.20658,0.3831 0.48438,0.3831c0.25644,0 0.48438,-0.18028 0.48438,-0.3831c0.00712,-0.21972 -0.22795,-0.40563 -0.48438,-0.40563zm0.12822,0.41127c0.02849,0 0.09973,0.0169 0.09973,0.10141l0,0.14085l-0.09973,0l0,-0.06197c0,-0.10141 -0.02849,-0.14648 -0.09973,-0.14648l-0.12822,0l0,0.20282l-0.09973,0l0,-0.50704l0.20658,0c0.12822,0 0.22795,0.06197 0.22795,0.14648c0,0.05634 -0.05699,0.12394 -0.10685,0.12394l0,-0.00001zm-0.22795,-0.18592l0,0.14085l0.09973,0c0.04986,0 0.12822,-0.02254 0.12822,-0.06197c0,-0.04507 -0.05699,-0.07887 -0.09973,-0.07887l-0.12822,0" id="XMLID_16_"/>
        <path fill="#ffffff" d="m181.51973,408.5c1.07562,0 1.98027,-0.34366 1.98027,-1.19437c0,-0.48451 -0.43452,-0.81127 -1.1326,-0.95775c-0.71945,-0.14085 -1.63836,-0.11831 -1.63836,-0.48451c0.04986,-0.24225 0.33479,-0.30423 0.76932,-0.30423c0.66959,0 0.69808,0.28169 0.72658,0.46761l1.09699,0c-0.07836,-0.67042 -0.76932,-1.13803 -1.87342,-1.13803c-1.15397,0 -1.82356,0.48451 -1.82356,1.12113c0,0.3662 0.22795,0.69296 0.6126,0.8507c0.27781,0.10141 0.66247,0.18028 1.1326,0.24789c0.48438,0.03944 0.9189,0.07887 0.9474,0.34366c0,0.18028 -0.22795,0.40563 -0.74795,0.40563c-0.74795,0 -0.89753,-0.32676 -0.89753,-0.54648l-1.15397,0c0.02849,0.69859 0.76932,1.18873 2.00164,1.18873" id="XMLID_17_"/>
        <path fill="#ffffff" d="m176.69726,408.5c0.49151,0 0.92603,-0.12394 1.28931,-0.30423l0,0.22535l1.10411,0l0,-3.49296l-1.11123,0l0,0.26479c-0.35616,-0.20282 -0.79068,-0.30423 -1.28931,-0.30423c-1.2537,0 -2.30795,0.79437 -2.30795,1.80845c0.00712,0.99155 1.06137,1.80282 2.31507,1.80282l0,0.00001zm-1.22521,-1.80845c0,-0.55211 0.59123,-1.01972 1.28219,-1.01972c0.66959,0 1.23233,0.46761 1.23233,1.01972c0,0.52394 -0.56274,0.99718 -1.23233,0.99718c-0.69808,0 -1.28219,-0.47324 -1.28219,-0.99718" id="XMLID_20_"/>
        <path fill="#ffffff" d="m172.95041,403.72817l0,1.45915c-0.38466,-0.20282 -0.81918,-0.30423 -1.31068,-0.30423c-1.26082,0 -2.28658,0.79437 -2.28658,1.80845c0,0.99718 1.02575,1.80282 2.28658,1.80282c0.48438,0 0.9474,-0.12394 1.31068,-0.30423l0,0.22535l1.07562,0l0,-4.69296l-1.07562,0l0,0.00563l0,0.00002zm-2.53589,2.96338c0,-0.55211 0.59123,-1.01972 1.2537,-1.01972c0.69808,0 1.28931,0.46761 1.28931,1.01972c0,0.52394 -0.59123,0.99718 -1.28931,0.99718c-0.66959,0 -1.2537,-0.47324 -1.2537,-0.99718" id="XMLID_23_"/>
        <path fill="#ffffff" d="m167.82164,408.41549l1.07562,0l0,-3.49296l-1.07562,0l0,3.49296zm0,-3.81408l1.07562,0l0,-0.87324l-1.07562,0l0,0.87324" id="XMLID_26_"/>
        <path fill="#ffffff" d="m164.86548,408.5c0.48438,0 0.9189,-0.12394 1.31068,-0.30423l0,0.22535l1.10411,0l0,-4.69296l-1.10411,0l0,1.45915c-0.38466,-0.20282 -0.81918,-0.30423 -1.31068,-0.30423c-1.26082,0 -2.30795,0.79437 -2.30795,1.80845c0,0.99718 1.04712,1.80845 2.30795,1.80845l0,0.00002zm-1.26082,-1.80845c0,-0.55211 0.59123,-1.01972 1.31068,-1.01972c0.66959,0 1.26082,0.46761 1.26082,1.01972c0,0.52394 -0.59123,0.99718 -1.26082,0.99718c-0.71945,0 -1.31068,-0.47324 -1.31068,-0.99718" id="XMLID_29_"/>
        <path fill="#ffffff" d="m159.77945,408.5c0.51288,0 0.9474,-0.12394 1.33205,-0.30423l0,0.22535l1.07562,0l0,-3.49296l-1.07562,0l0,0.26479c-0.38466,-0.20282 -0.84767,-0.30423 -1.33205,-0.30423c-1.26082,0 -2.27945,0.79437 -2.27945,1.80845c0,0.99155 1.02575,1.80282 2.27945,1.80282l0,0.00001zm-1.23233,-1.80845c0,-0.55211 0.59123,-1.01972 1.26082,-1.01972c0.71945,0 1.31068,0.46761 1.31068,1.01972c0,0.52394 -0.59123,0.99718 -1.31068,0.99718c-0.66959,0 -1.26082,-0.47324 -1.26082,-0.99718" id="XMLID_32_"/>
    </g>
  <g id="sleeves">
   <rect stroke="#0000ff" fill="#ffffff" stroke-width="0" stroke-opacity="null" x="63.82454" y="458.02906" width="68.08997" height="21.54386"/>
   <rect stroke="#0000ff" fill="#ffffff" stroke-width="0" stroke-opacity="null" x="378.92495" y="458.15187" width="67.09259" height="21.54386"/>
  </g>
</svg>