<svg width="512" height="512" xmlns="http://www.w3.org/2000/svg">
    <g id="shirt">
        <g id="chest">
            <path fill="#0000ff" d="m255.74181,313.00899l44,0l98.846,21.665c27.533,6.035 47.154,30.421 47.154,58.609l0,85.726l-66,0l0,33l-124,0l-124,0l0,-33l-66,0l0,-85.726c0,-28.187 19.621,-52.574 47.154,-58.609l98.846,-21.665l44,0z"/>
        </g>
        <g id="left-sleeve">
            <path d="m131.9286,479.52537l-66,0l0,-20l66,0l0,20z" fill="#0000ff"/>
        </g>
        <g id="right-sleeve">
            <path fill="#0000ff" d="m379.92691,458.49199l66,0l0,20l-66,0l0,-20z"/>
        </g>
    </g>
    <g id="logos">
        <line stroke="#ff0000" fill="none" stroke-width="4" x1="154.5" y1="328.45312" x2="153.5" y2="510.45313"/>
        <line stroke="#ff0000" fill="none" stroke-width="4" x1="187.5" y1="320.45312" x2="186.5" y2="509.45313"/>
        <line stroke="#ff0000" fill="none" stroke-width="4" x1="219.5" y1="327.45312" x2="218.5" y2="509.45313"/>
        <line fill="none" stroke-width="4" x1="255.5" y1="359.45312" x2="255.5" y2="509.56425" stroke="#ff0000"/>
        <line stroke="#ff0000" fill="none" stroke-width="4" x1="324.5" y1="321.45312" x2="323.5" y2="510.45313"/>
        <line stroke="#ff0000" fill="none" stroke-width="4" x1="363.16666" y1="328.45312" x2="362.16666" y2="511.45313"/>
        <rect fill="#ffffff" stroke-width="null" stroke-opacity="null" x="327.50001" y="370.89757" width="32.11111" height="47.44444" stroke="null"/>
        <line fill="none" stroke-width="4" x1="291.5" y1="326.78644" x2="290.5" y2="509.67535" stroke="#ff0000"/>
        <line stroke="#ff0000" fill="none" stroke-width="4" x1="154.5" y1="328.45312" x2="153.5" y2="510.45313"/>
        <line stroke="#ff0000" fill="none" stroke-width="4" x1="120.5" y1="335.45312" x2="118.5" y2="458.45313"/>
        <line stroke="#ff0000" fill="none" stroke-width="4" x1="83.5" y1="354.45312" x2="81.5" y2="460.45313"/>
        <line stroke="#ff0000" fill="none" stroke-width="4" x1="394.5" y1="336.45312" x2="393.5" y2="456.45313"/>
        <line stroke="#ff0000" fill="none" stroke-width="4" x1="431.5" y1="358.45312" x2="430.5" y2="456.45313"/>
        <text stroke="#ffffff" fill="#ffffff" stroke-width="0" x="165.5" y="446.45313" font-size="20" font-family="'Times New Roman', Times, serif" text-anchor="start" xml:space="preserve">HUGH FOULERTON</text>
        <text stroke="#ffffff" fill="#ffffff" stroke-width="0" x="206.5" y="473.45313" font-size="20" font-family="'Times New Roman', Times, serif" text-anchor="start" xml:space="preserve">CUTLERY</text>
        <g fill="#0000ff" transform="translate(0,263) scale(0.10000000149011612,-0.10000000149011612) " stroke="null">
            <path d="m3267.57835,-1312.03057l0,-240.85844l170.09973,0l170.09973,0l0,240.6451l0,240.85844l-170.09973,0.21334l-170.09973,0l0,-240.85844l0,0.00001l0,-0.00001zm325.6843,216.53792c0.6804,-5.33345 0.9072,-33.92072 0,-63.36135c-0.9072,-29.65396 -2.04119,-106.45559 -2.49479,-170.88362c-1.134,-104.96223 -1.58759,-117.7625 -4.98959,-121.1759c-2.04119,-2.13338 -4.536,-3.84008 -5.66999,-3.84008c-2.72159,0 -32.43235,-16.21368 -36.28794,-19.84042c-1.58759,-1.49336 -6.35039,-3.84008 -10.43279,-5.33345c-4.0824,-1.28003 -11.79358,-5.54679 -17.00997,-9.38687c-5.21639,-3.84008 -11.11318,-7.8935 -13.38118,-9.17353c-2.04119,-1.06669 -17.00997,-10.45356 -33.11275,-20.69377c-16.32958,-10.45356 -31.29835,-18.77373 -33.33955,-18.77373c-2.04119,0 -7.03079,1.7067 -10.88638,3.84008c-8.16478,4.26676 -7.25759,3.62674 -26.53556,16.85369c-8.16478,5.76012 -19.73157,13.01361 -26.08196,16.42702c-6.12359,3.41341 -16.55638,9.81354 -23.13356,14.29364c-6.57719,4.69343 -12.70078,8.32018 -13.83477,8.32018c-1.134,0 -3.402,1.49336 -5.21639,3.41341c-1.58759,1.7067 -6.57719,5.12011 -10.88638,7.25349c-4.536,2.13338 -10.20599,5.54679 -12.70078,7.46682c-2.49479,1.7067 -9.52559,6.40013 -15.87598,10.24022l-11.33998,6.82681l-0.4536,171.73697c-0.2268,94.50867 0,173.87035 0.4536,176.4304c1.134,4.4801 2.04119,4.69343 21.09237,3.84008c22.67997,-1.06669 132.451,-1.28003 162.61535,-0.21334c96.16306,2.98673 118.16261,3.84008 118.84302,4.69343c0.4536,0.42667 2.72159,0.85335 4.98959,0.85335c2.9484,0 4.3092,-2.34672 5.66999,-9.81354l-0.00003,0.00001z" stroke="null"/>
            <path d="m3294.11391,-1104.23949c-0.6804,-0.85335 -1.58759,-36.26744 -2.04119,-78.29499l-0.6804,-76.80163l6.12359,-1.49336c3.402,-0.85335 23.81396,-1.28003 45.35993,-1.28003l39.23634,0.42667l0.6804,5.33345c2.49479,19.84042 17.23677,40.32085 34.47355,48.21436c4.98959,2.13338 9.52559,5.54679 9.97919,7.25349c0.6804,1.7067 1.3608,23.89384 1.81439,49.0677l0.6804,45.86764l-62.36991,0.21334c-34.24675,0.21334 -64.6379,0.85335 -67.3595,1.7067c-2.72159,0.85335 -5.44319,0.64002 -5.89679,-0.21334zm99.56504,-41.17421c4.3092,-13.44028 4.0824,-19.2004 -0.9072,-19.2004c-2.49479,0 -5.66999,2.98673 -7.93798,7.68016c-3.6288,7.04015 -4.536,7.46682 -11.33998,6.1868c-3.8556,-0.85335 -7.71118,-1.92004 -8.39158,-2.56005c-0.4536,-0.42667 -1.3608,-17.92038 -1.81439,-39.04083l-0.9072,-37.97414l5.89679,-3.62674c5.89679,-3.62674 7.93798,-10.24022 3.8556,-12.58694c-1.134,-0.64002 -9.97919,-0.64002 -19.50477,0.21334c-18.59757,1.49336 -24.04076,5.12011 -15.64918,10.45356c2.26799,1.49336 5.44319,3.62674 6.57719,4.69343c2.72159,2.13338 4.536,78.50833 1.81439,80.0017c-0.9072,0.42667 -4.98959,0.64002 -8.61838,0c-4.98959,-0.64002 -7.93798,-2.77339 -9.97919,-7.25349c-1.81439,-3.84008 -4.536,-6.1868 -7.48439,-6.1868c-4.0824,0 -4.3092,0.85335 -2.9484,11.30691c2.9484,19.62709 1.134,18.77373 40.14354,18.13371l34.24675,-0.64002l2.9484,-9.6002l-0.00002,0z" stroke="null"/>
            <path d="m3464.44045,-1104.45284l-22.22637,-0.64002l0,-7.8935c0,-4.26676 -0.6804,-26.24055 -1.134,-48.64103l-1.134,-40.96087l8.84519,-3.20007c11.79358,-4.4801 24.49436,-15.14699 29.93755,-25.3872c4.3092,-8.10684 4.536,-8.10684 9.97919,-4.69343c5.66999,3.41341 5.66999,3.62674 5.66999,37.97414c0,18.77373 0.6804,37.97414 1.3608,42.2409c1.3608,7.25349 0.9072,8.32018 -4.3092,10.02687c-7.48439,2.77339 -9.52559,5.97346 -6.12359,9.81354c4.0824,4.69343 38.78274,4.26676 49.21553,-0.21334c10.88638,-4.90677 18.82437,-16.64035 18.82437,-27.73392c0,-11.30691 -4.98959,-22.82715 -12.47398,-28.1606l-5.89679,-4.4801l7.48439,-12.37359c8.84519,-14.93365 9.97919,-16.42702 19.50477,-24.74719c3.8556,-3.62674 7.25759,-7.68016 7.25759,-9.17353c0,-3.20007 -9.75239,-5.54679 -16.78318,-3.84008c-5.66999,1.28003 -15.19558,12.58694 -19.27797,22.61381c-1.134,2.98673 -6.12359,10.66689 -10.88638,16.85369l-8.39158,11.30691l-1.58759,-6.61348c-0.6804,-3.41341 -0.9072,-11.94692 -0.2268,-18.5604c0.9072,-10.45356 1.81439,-12.58694 6.35039,-14.0803c7.25759,-2.77339 7.03079,-9.81354 -0.2268,-11.52025c-2.9484,-0.64002 -11.33998,-0.64002 -18.37077,0l-12.92758,1.49336l1.3608,-8.10684c0.6804,-4.26676 2.04119,-8.53351 2.72159,-9.38687c1.81439,-1.49336 85.27667,-3.84008 86.18387,-2.34672c0.4536,0.64002 0.9072,33.2807 1.134,72.53487c0.2268,39.25416 0.6804,75.30827 0.6804,80.0017l0.2268,8.53351l-46.26713,0c-25.62836,0 -56.47312,-0.21334 -68.4935,-0.64002l0,0.00003l-0.00001,0.00002z" stroke="null"/>
            <path d="m3512.29517,-1159.70734c0,-6.82681 -0.4536,-14.93365 -0.9072,-18.13371c-0.6804,-5.54679 -0.2268,-5.97346 6.57719,-5.97346c11.56678,0 15.42238,4.05341 16.78318,17.49371c0.9072,10.45356 0.4536,12.16025 -4.3092,15.36033c-2.9484,1.92004 -8.16478,3.41341 -11.56678,3.41341c-6.12359,0 -6.35039,-0.21334 -6.57719,-12.16025l0,-0.00001l0,-0.00002z" stroke="null"/>
            <path d="m3409.78174,-1226.69543c-4.536,-4.90677 -3.8556,-7.8935 3.6288,-18.34706c2.9484,-4.05341 7.03079,-7.04015 9.52559,-7.04015c2.72159,0 5.89679,-1.06669 7.25759,-2.34672c1.58759,-1.49336 3.8556,-0.21334 7.25759,5.12011c2.49479,4.05341 4.76279,7.8935 4.76279,8.53351c0,1.92004 -9.52559,10.88023 -15.87598,14.93365c-7.25759,4.69343 -11.79358,4.4801 -16.55638,-0.85335l0,0.00001z" stroke="null"/>
            <path d="m3462.39925,-1238.64234c-9.07199,-5.33345 -24.26756,-26.02722 -29.03036,-40.10752c-2.49479,-7.04015 -5.21639,-18.77373 -6.12359,-26.02722c-1.3608,-12.80027 -1.3608,-13.44028 4.3092,-15.787c4.536,-1.92004 7.48439,-1.92004 13.38118,0.21334c17.46357,6.61348 28.34996,19.2004 32.43235,38.18747l1.58759,7.46682l-10.65959,-8.96019c-5.89679,-4.69343 -14.28837,-9.81354 -18.82437,-11.30691c-7.03079,-2.13338 -8.39158,-1.92004 -11.11318,1.49336c-1.58759,2.13338 -2.9484,4.4801 -2.9484,5.33345c0,0.64002 6.35039,4.26676 14.28837,7.8935c10.20599,4.69343 16.32958,9.38687 21.77277,16.42702l7.25759,9.6002l-4.536,9.6002c-2.49479,5.33345 -4.76279,9.6002 -5.21639,9.38687c-0.4536,0 -3.402,-1.7067 -6.57719,-3.41341l0.00001,0.00001l0.00001,0.00001z" stroke="null"/>
            <path d="m3292.29951,-1276.61648c0,0 -0.2268,-34.34739 -0.4536,-76.16161c-0.4536,-79.57502 -0.4536,-80.42837 9.29879,-85.76181c7.03079,-3.84008 31.97876,-19.41374 53.07112,-33.2807c10.88638,-7.04015 20.41197,-12.80027 21.31917,-12.80027c0.6804,0 8.61838,-5.12011 17.69037,-11.30691c15.87598,-11.30691 31.29835,-20.69377 33.79315,-20.69377c0.6804,0 1.3608,40.74753 1.3608,90.66859l0.2268,90.88193l-9.75239,3.84008c-17.46357,7.04015 -28.34996,20.90711 -33.79315,42.66757l-2.49479,10.88023l-17.23677,0c-9.52559,0 -29.71075,0.42667 -45.13313,0.64002c-15.19558,0.21334 -27.66956,0.42667 -27.89636,0.42667l0,-0.00001l-0.00001,-0.00001zm97.52385,-49.49438c1.134,-2.13338 2.72159,-8.32018 3.6288,-13.86696c1.3608,-8.32018 0.9072,-10.24022 -1.81439,-10.24022c-1.81439,0 -4.98959,2.34672 -6.80399,5.12011c-3.8556,5.54679 -12.92758,7.8935 -22.67997,6.1868c-6.35039,-1.28003 -6.35039,-1.28003 -5.66999,-15.36033l0.6804,-14.0803l7.48439,-0.64002c6.12359,-0.64002 7.71118,0.21334 9.52559,4.69343c2.49479,6.1868 7.93798,7.25349 9.97919,2.13338c2.26799,-5.33345 1.58759,-27.30724 -0.9072,-30.72065c-2.04119,-2.77339 -2.9484,-2.56005 -6.35039,1.28003c-2.04119,2.56005 -7.71118,5.12011 -12.24718,5.76012l-8.61838,1.28003l0,-16.42702c0,-15.14699 0.4536,-16.64035 6.12359,-20.90711c4.0824,-2.98673 5.44319,-5.54679 4.536,-8.10684c-1.3608,-2.98673 -4.3092,-3.41341 -20.18516,-2.98673c-17.00997,0.64002 -18.82437,1.06669 -18.82437,4.90677c0,2.34672 2.26799,5.12011 5.21639,6.40013c4.536,1.92004 4.98959,3.62674 5.44319,21.33379c0.9072,45.01429 -0.4536,61.4413 -5.21639,65.70806c-4.98959,4.4801 -5.21639,6.1868 -1.58759,9.6002c1.81439,1.7067 11.56678,2.56005 29.48395,2.56005c22.90677,0 26.98916,-0.42667 28.80356,-3.62674l-0.00003,0.00003l-0.00002,-0.00001z" stroke="null"/>
            <path d="m3488.70801,-1282.16327c-0.9072,-2.34672 -0.9072,-4.90677 -0.2268,-5.54679c1.81439,-1.7067 -7.03079,-17.28037 -16.55638,-28.80061c-5.66999,-6.82681 -11.33998,-11.30691 -18.37077,-13.86696c-5.66999,-1.92004 -10.88638,-4.69343 -11.79358,-5.76012c-2.49479,-3.20007 -2.26799,-180.48383 0,-180.48383c2.04119,0 17.00997,8.74685 36.74154,21.54712c6.80399,4.4801 31.07155,18.77373 53.75151,31.78734c22.90677,13.01361 41.95793,24.53386 42.63833,25.3872c0.4536,1.06669 1.58759,36.69411 2.04119,79.36168l1.134,77.65498l-20.86557,0.42667c-11.56678,0.21334 -31.29835,0.85335 -43.99914,1.49336c-21.99957,1.28003 -23.13356,1.06669 -24.49436,-3.20007l0.00002,0.00002l0.00001,0.00001zm48.76192,-46.50765c7.48439,-3.41341 9.29879,-3.62674 11.56678,-1.06669c4.536,5.33345 6.57719,0.85335 6.57719,-15.36033c0,-12.58694 -0.6804,-15.787 -3.402,-15.787c-1.81439,0 -4.76279,3.20007 -6.35039,7.04015c-3.8556,8.10684 -7.93798,11.73358 -16.78318,14.0803c-17.23677,4.69343 -31.52515,-16.42702 -29.71075,-44.16093c1.3608,-23.46717 11.33998,-35.62742 29.25715,-35.62742c7.71118,0 10.43279,1.28003 15.87598,7.04015c9.97919,10.45356 18.14397,8.96019 12.02038,-2.13338c-9.29879,-16.85369 -21.54597,-23.04048 -38.78274,-18.98707c-14.28837,3.41341 -21.77277,9.38687 -29.25715,23.46717c-5.44319,10.02687 -6.57719,14.50697 -6.57719,27.94726c0.2268,21.54712 5.89679,36.48077 18.37077,48.42769c8.39158,7.8935 11.11318,9.17353 19.05117,9.17353c5.21639,0 13.38118,-1.92004 18.14397,-4.05341l0.00001,-0.00002z" stroke="null"/>
        </g>
        <ellipse fill="none" stroke-width="4" fill-opacity="null" cx="171.8335" cy="395.8326" rx="14.72219" ry="16.38886" stroke="#ffffff"/>
        <text fill="#ffffff" stroke-width="0" stroke-opacity="null" fill-opacity="null" x="168.49974" y="402.11085" font-size="20" font-family="Helvetica, Arial, sans-serif" text-anchor="start" xml:space="preserve" transform="matrix(0.8002500534057617,0,0,0.7351994514465332,33.38008873164654,106.73117110133171) " stroke="#ffffff">L</text>
    </g>
    <g id="sleeves">
        <g>
            <path stroke="null" d="m131.9286,479.52537l-66,0l0,-20l66,0l0,20z" fill="#ff0000"/>
        </g>
        <g>
            <path stroke="null" fill="#ff0000" d="m379.92691,458.49199l66,0l0,20l-66,0l0,-20z"/>
        </g>
    </g>
</svg>