<svg width="512" height="512" xmlns="http://www.w3.org/2000/svg">
  <g fill="#SKIN" transform="translate(0,748) scale(0.10000000149011612,-0.10000000149011612) ">
    <path
       d="m 2294.7738,7096.0397 c -224.322,-44.2049 -388.3841,-136.6332 -511.6956,-231.0708 -116.355,-147.6844 -162.7503,-46.1769 -179.5033,-348.2039 22.301,-69.3212 37.2245,-371.4069 49.031,-443.7421 0,0 -32.7956,1.0047 0,0 17.0537,0 71.6085,32.7414 70.2967,89.0021 0,25.1164 40.5824,90.1039 1.2277,172.4856 -35.4193,75.3492 12.6851,158.7356 4.8142,184.8567 -22.301,81.3771 -34.2399,86.7748 107.4371,195.2776 140.3652,106.4935 148.8017,104.2284 241.9412,104.2284 85.2685,0 150.8597,22.9885 264.9884,-58.3886 56.4085,-39.1816 118.0642,-74.3445 137.7416,-78.3632 19.6773,-3.0139 43.2902,-7.0326 52.4729,-9.0419 41.9784,-10.0465 118.0642,21.0978 211.2037,87.4051 114.1287,81.3771 188.0723,58.3886 273.3409,58.3886 90.5159,0 142.0259,-6.0872 278.4556,-106.5528 179.7199,-133.6192 35.7078,-104.0272 80.2741,-329.7596 6.1018,-62.843 4.7899,17.5295 6.1018,-62.843 2.6236,-87.405 41.3524,-114.5926 64.9653,-312.725 64.2793,139.6472 0,0 0,0 11.8065,70.3259 0.2166,212.6125 25.1413,294.9943 -8.6173,163.7589 17.2702,303.6619 -14.2136,391.067 -61.6558,177.824 -159.1638,257.3104 -481.8725,355.7667 -249.2466,75.3492 -463.0739,90.419 -682.1485,47.2188 z"
       />
  </g>
  <g fill="#HAIR" transform="translate(0,748) scale(0.10000000149011612,-0.10000000149011612) ">
    <path opacity="0.2"
       d="m 2294.7738,7096.0397 c -224.322,-44.2049 -388.3841,-136.6332 -511.6956,-231.0708 -116.355,-147.6844 -162.7503,-46.1769 -179.5033,-348.2039 22.301,-69.3212 37.2245,-371.4069 49.031,-443.7421 0,0 -32.7956,1.0047 0,0 17.0537,0 71.6085,32.7414 70.2967,89.0021 0,25.1164 40.5824,90.1039 1.2277,172.4856 -35.4193,75.3492 12.6851,158.7356 4.8142,184.8567 -22.301,81.3771 -34.2399,86.7748 107.4371,195.2776 140.3652,106.4935 148.8017,104.2284 241.9412,104.2284 85.2685,0 150.8597,22.9885 264.9884,-58.3886 56.4085,-39.1816 118.0642,-74.3445 137.7416,-78.3632 19.6773,-3.0139 43.2902,-7.0326 52.4729,-9.0419 41.9784,-10.0465 118.0642,21.0978 211.2037,87.4051 114.1287,81.3771 188.0723,58.3886 273.3409,58.3886 90.5159,0 142.0259,-6.0872 278.4556,-106.5528 179.7199,-133.6192 35.7078,-104.0272 80.2741,-329.7596 6.1018,-62.843 4.7899,17.5295 6.1018,-62.843 2.6236,-87.405 41.3524,-114.5926 64.9653,-312.725 64.2793,139.6472 0,0 0,0 11.8065,70.3259 0.2166,212.6125 25.1413,294.9943 -8.6173,163.7589 17.2702,303.6619 -14.2136,391.067 -61.6558,177.824 -159.1638,257.3104 -481.8725,355.7667 -249.2466,75.3492 -463.0739,90.419 -682.1485,47.2188 z"
       />
  </g>  
</svg>