<svg width="512" height="512" xmlns="http://www.w3.org/2000/svg">
  <g stroke="null" id="hair">
   <path stroke="null" id="svg_34" fill="#HAIR" d="m157.8071,91.61772l0,52.19586l19.71732,-28.82433c63.7025,-8.86938 75.17273,-30.38265 75.17273,-30.38265s11.47023,21.51327 75.17274,30.38265l19.71732,28.82433l0,-52.19586c0,-33.12949 -42.48364,-59.98614 -94.89006,-59.98614c-52.40641,0 -94.89005,26.85665 -94.89005,59.98614z"/>
   <rect stroke="null" fill="#HAIR" stroke-width="0" x="173.03403" y="80.45313" width="169.15182" height="43" id="svg_66"/>
   <ellipse stroke="null" fill="#ffd3b3" stroke-width="0" cx="254" cy="139.45312" id="svg_65" rx="98.5" ry="38"/>
   <path stroke="null" fill="#ffd3b3" stroke-width="0" id="svg_47" d="m240.07591,123.45313c1.03141,0 1.03141,0 3.09424,0c0,0 1.03141,0 2.06283,0c0,0 0.71522,-0.4588 2.06283,-1c0.9529,-0.38269 3.09424,-2 4.12565,-3c1.03141,-1 1.03141,-2 2.06283,-3c1.03141,-1 1.03141,-2 2.06283,-3c1.03141,-1 1.03141,-3 2.06283,-4c1.03141,-1 1.66813,-3.07613 2.06283,-4c0.55819,-1.30656 2.56436,-1.82375 3.09424,-4c0.23697,-0.97325 0.8662,-3.01291 1.03141,-4c0.52245,-3.12144 1.53295,-3.82375 2.06283,-6c0.47394,-1.9465 0.47322,-2.69344 1.03141,-4c0.3947,-0.92388 0,-2 0,-2c0,-1 0,-1 0,-1c0,0 -0.72932,0.29289 0,1c0.72932,0.70711 0.71431,1.186 2.06283,3c0.85288,1.14727 1.66813,2.07612 2.06283,3c0.5582,1.30656 0.63671,1.07612 1.03141,2c0.5582,1.30656 1.50463,1.69344 2.06283,3c0.3947,0.92388 0.63671,2.07612 1.03141,3c0.5582,1.30656 1.03141,2 1.03141,2c1.03141,1 1.03141,2 1.03141,2c1.03141,1 1.03141,2 1.03141,2c1.03141,1 1.03141,2 2.06283,3c1.03141,1 1.03141,1 1.03141,2c0,0 1.03141,1 1.03141,1c0,0 0,1 1.03141,1c0,0 0,1 0,1c0,0 1.03141,0 1.03141,1c0,0 1.03141,1 1.03141,1c1.03141,0 1.03141,0 0,0c0,0 0,0 -2.06283,0c-1.03141,0 -5.15707,0 -8.25131,0c-5.15707,0 -9.28272,0 -12.37696,0c-3.09424,0 -7.21989,0 -9.28272,0c-1.03141,0 -2.77805,-0.4588 -4.12565,-1c-0.9529,-0.38269 -2.06283,0 -3.09424,-1l0,0"/>
  </g>
</svg>