<svg width="512" height="512" xmlns="http://www.w3.org/2000/svg">
    <g id="hair">
        <path fill="#HAIR" d="m163.00001,97.68674l0,53.31326l28.15385,-49.75903s34.18681,8.53012 63.34615,8.53012s63.34615,-8.53012 63.34615,-8.53012l28.15385,49.75903l0,-53.31326c0,-35.72557 -40.96586,-64.68675 -91.5,-64.68675c-50.53414,0 -91.5,28.96118 -91.5,64.68675z"/>
    </g>
   <path d="m270,95.45313c1,0 2,0 6,0c3,0 7.08025,-0.68926 10,0c2.17625,0.51374 2.81266,2.20681 5,4c2.78832,2.28588 5,3 8,6c2,2 3,3 4,4c1,1 1,2 1,2c0,1 0,2 0,3c0,2 0,3 0,5c0,2 0,3 0,4l0,1l0,0l0,0" id="svg_6" stroke-opacity="null" stroke-width="4" fill="#HAIR"/>
  <path d="m252,100.45313c1,0 2,0 6,0c3,0 7.08025,-0.68927 10,0c2.17625,0.51374 2.81266,2.2068 5,4c2.78832,2.28588 5,3 8,6c2,2 3,3 4,4c1,1 1,2 1,2c0,1 0,2 0,3c0,2 0,3 0,5c0,2 0,3 0,4l0,1l0,0l0,0" id="svg_7" stroke-opacity="null" stroke-width="4" fill="#HAIR"/> 
</svg>