  <svg width="512" height="512" xmlns="http://www.w3.org/2000/svg">
    <g id="hair">
        <path fill="#HAIR" d="m163.00001,97.68674l0,53.31326l28.15385,-49.75903s34.18681,8.53012 63.34615,8.53012s63.34615,-8.53012 63.34615,-8.53012l28.15385,49.75903l0,-53.31326c0,-35.72557 -40.96586,-64.68675 -91.5,-64.68675c-50.53414,0 -91.5,28.96118 -91.5,64.68675z"/>

        <path transform="rotate(17.53034019470215 318.893096923828,82.08505249023439) " d="m308,79c0,0 -0.90211,0.82443 1,2c0.85065,0.52573 1.85273,1.1731 3,2c1.81399,1.30745 2.69344,1.4588 4,2c0.92388,0.38269 3,0 4,0c1,0 3,0 5,0c1,0 2.45881,-0.69344 3,-2c0.38268,-0.92387 1,-2 1,-2c0,-1 1,-1 1,-2l0,0" id="svg_14" stroke-width="4" stroke="#HIGHLIGHTS" fill="none"/>
        <path transform="rotate(17.53034019470215 179.89311218261713,89.08505249023439) " d="m169,86c0,0 -0.90211,0.82443 1,2c0.85065,0.52573 1.85273,1.1731 3,2c1.81399,1.30745 2.69344,1.4588 4,2c0.92388,0.38269 3,0 4,0c1,0 3,0 5,0c1,0 2.45881,-0.69344 3,-2c0.38268,-0.92387 1,-2 1,-2c0,-1 1,-1 1,-2l0,0" id="svg_22" stroke-width="4" stroke="#HIGHLIGHTS" fill="none"/>
        <path transform="rotate(17.53034019470215 258.89309692382824,79.08505249023429) " d="m248,76c0,0 -0.90211,0.82443 1,2c0.85065,0.52573 1.85273,1.1731 3,2c1.81399,1.30745 2.69344,1.4588 4,2c0.92388,0.38269 3,0 4,0c1,0 3,0 5,0c1,0 2.45881,-0.69344 3,-2c0.38268,-0.92387 1,-2 1,-2c0,-1 1,-1 1,-2l0,0" id="svg_34" stroke-width="4" stroke="#HIGHLIGHTS" fill="none"/>
        <path stroke="#HIGHLIGHTS" transform="rotate(17.53034019470215 210.05953979492188,44.55820465087898) " d="m204.13786,41.47317c0,0 -0.4904,0.82443 0.54362,2c0.46243,0.52573 1.00717,1.1731 1.63085,2c0.98612,1.30745 1.4642,1.4588 2.17447,2c0.50224,0.38269 1.63085,0 2.17447,0c0.54362,0 1.63085,0 2.71808,0c0.54362,0 1.33665,-0.69344 1.63085,-2c0.20803,-0.92387 0.54362,-2 0.54362,-2c0,-1 0.54362,-1 0.54362,-2l0,0" id="svg_36" stroke-width="4" fill="none"/>
        <path transform="rotate(17.53034019470215 216.8931121826173,72.08505249023435) " d="m206,69c0,0 -0.90211,0.82443 1,2c0.85065,0.52573 1.85273,1.1731 3,2c1.81399,1.30745 2.69344,1.4588 4,2c0.92388,0.38269 3,0 4,0c1,0 3,0 5,0c1,0 2.45881,-0.69344 3,-2c0.38268,-0.92387 1,-2 1,-2c0,-1 1,-1 1,-2l0,0" id="svg_37" stroke-width="4" stroke="#HIGHLIGHTS" fill="none"/>
        <path stroke="#HIGHLIGHTS" transform="rotate(50.52988815307617 287.5758056640625,54.08953094482424) " d="m276.68271,52.0579c0,0 -0.90211,0.54292 1,1.31709c0.85065,0.34622 1.85273,0.77254 3,1.31709c1.81399,0.86101 2.69344,0.96068 4,1.31709c0.92388,0.25202 3,0 4,0c1,0 3,0 5,0c1,0 2.45881,-0.45666 3,-1.31709c0.38268,-0.60841 1,-1.31709 1,-1.31709c0,-0.65854 1,-0.65854 1,-1.31709l0,0" id="svg_48" stroke-width="4" fill="none"/>
        <ellipse ry="8.5" rx="9" id="svg_54" cy="84.5" cx="163" stroke-width="4" stroke="null" fill="#HAIR"/>
        <ellipse ry="8.5" rx="9" id="svg_55" cy="52.5" cx="175" stroke-width="4" stroke="null" fill="#HAIR"/>
        <ellipse ry="8.5" rx="9" id="svg_56" cy="27.5" cx="214" stroke-width="4" stroke="null" fill="#HAIR"/>
        <ellipse ry="8.5" rx="9" id="svg_57" cy="102.5" cx="346" stroke-width="4" stroke="null" fill="#HAIR"/>
        <ellipse ry="8.5" rx="9" id="svg_58" cy="70.5" cx="165" stroke-width="4" stroke="null" fill="#HAIR"/>
        <ellipse ry="8.5" rx="9" id="svg_59" cy="103.5" cx="165" stroke-width="4" stroke="null" fill="#HAIR"/>
        <ellipse ry="8.5" rx="9" id="svg_60" cy="85.5" cx="349" stroke-width="4" stroke="null" fill="#HAIR"/>
        <ellipse ry="8.5" rx="9" id="svg_61" cy="38.5" cx="193" stroke-width="4" stroke="null" fill="#HAIR"/>
        <ellipse ry="8.5" rx="9" id="svg_62" cy="73.5" cx="351" stroke-width="4" stroke="null" fill="#HAIR"/>
        <ellipse ry="8.5" rx="9" id="svg_63" cy="113.5" cx="350" stroke-width="4" stroke="null" fill="#HAIR"/>
        <ellipse ry="8.5" rx="9" id="svg_64" cy="96.5" cx="353" stroke-width="4" stroke="null" fill="#HAIR"/>
        <ellipse ry="8.5" rx="9" id="svg_65" cy="23.5" cx="229" stroke-width="4" stroke="null" fill="#HAIR"/>
        <ellipse ry="8.5" rx="9" id="svg_66" cy="38.5" cx="324" stroke-width="4" stroke="null" fill="#HAIR"/>
        <ellipse ry="8.5" rx="9" id="svg_67" cy="52.5" cx="339" stroke-width="4" stroke="null" fill="#HAIR"/>
        <ellipse ry="8.5" rx="9" id="svg_68" cy="30.5" cx="309" stroke-width="4" stroke="null" fill="#HAIR"/>
        <ellipse ry="8.5" rx="9" id="svg_69" cy="18.5" cx="255" stroke-width="4" stroke="null" fill="#HAIR"/>
        <ellipse ry="8.5" rx="9" id="svg_70" cy="19.5" cx="284" stroke-width="4" stroke="null" fill="#HAIR"/>
        <path stroke="#HIGHLIGHTS" transform="rotate(17.53034019470215 184.7106628417969,59.079765319824226) " d="m177.09077,55.99472c0,0 -0.63104,0.82443 0.69952,2c0.59504,0.52573 1.29601,1.1731 2.09855,2c1.26891,1.30745 1.8841,1.4588 2.79806,2c0.64627,0.38269 2.09855,0 2.79806,0c0.69952,0 2.09855,0 3.49758,0c0.69952,0 1.71997,-0.69344 2.09855,-2c0.26769,-0.92387 0.69952,-2 0.69952,-2c0,-1 0.69952,-1 0.69952,-2l0,0" id="svg_71" stroke-width="4" fill="none"/>
        <path transform="rotate(-27.600526809692383 251.8931121826172,48.085044860839794) " d="m241,45c0,0 -0.90211,0.82443 1,2c0.85065,0.52573 1.85273,1.1731 3,2c1.81399,1.30745 2.69344,1.4588 4,2c0.92388,0.38269 3,0 4,0c1,0 3,0 5,0c1,0 2.45881,-0.69344 3,-2c0.38268,-0.92387 1,-2 1,-2c0,-1 1,-1 1,-2l0,0" id="svg_72" stroke-width="4" stroke="#HIGHLIGHTS" fill="none"/>
    </g>
</svg>        