
<svg width="512" height="512" xmlns="http://www.w3.org/2000/svg">
    <g id="hair">
        <path id="svg_5" fill="#HAIR" d="m165,83.36747l0,45.63253l27.84615,-42.59036s33.81319,7.30121 62.65384,7.30121s62.65384,-7.30121 62.65384,-7.30121l27.84615,42.59036l0,-45.63253c0,-30.57866 -40.51814,-55.36747 -90.5,-55.36747c-49.98186,0 -90.5,24.78881 -90.5,55.36747l0.00002,0z"/>
        <path d="m270,82.45313c1,0 2,0 6,0c3,0 7.08025,-0.68927 10,0c2.17625,0.51374 2.81266,2.2068 5,4c2.78832,2.28588 5,3 8,6c2,2 3,3 4,4c1,1 1,2 1,2c0,1 0,2 0,3c0,2 0,3 0,5c0,2 0,3 0,4l0,1l0,0l0,0" id="svg_7" stroke-width="4" fill="#HAIR"/>
        <path d="m229,86.45313c1,0 2,0 6,0c3,0 7.08025,-0.68927 10,0c2.17625,0.51374 2.81266,2.2068 5,4c2.78832,2.28588 5,3 8,6c2,2 3,3 4,4c1,1 1,2 1,2c0,1 0,2 0,3c0,2 0,3 0,5c0,2 0,3 0,4l0,1l0,0l0,0" id="svg_13" stroke-width="4" fill="#HAIR"/>
        <path d="m263,82.45313c-0.85294,0 -1.70588,0 -5.11765,0c-2.55882,0 -6.03904,-0.68927 -8.52941,0c-1.85621,0.51374 -2.39903,2.2068 -4.26471,4c-2.37827,2.28588 -4.26471,3 -6.82353,6c-1.70588,2 -2.55882,3 -3.41176,4c-0.85294,1 -0.85294,2 -0.85294,2c0,1 0,2 0,3c0,2 0,3 0,5c0,2 0,3 0,4l0,1l0,0l0,0" id="svg_14" stroke-width="4" fill="#HAIR" stroke="null"/>
        <path d="m272,80.45313c-0.91176,0 -1.82353,0 -5.47059,0c-2.73529,0 -6.45552,-0.68927 -9.11765,0c-1.98423,0.51374 -2.56448,2.2068 -4.55882,4c-2.54229,2.28588 -4.55882,3 -7.29412,6c-1.82353,2 -2.73529,3 -3.64706,4c-0.91176,1 -0.91176,2 -0.91176,2c0,1 0,2 0,3c0,2 0,3 0,5c0,2 0,3 0,4l0,1l0,0l0,0" id="svg_25" stroke-width="4" fill="#HAIR" stroke="null"/>
        <path d="m249,82.45313c0.5,0 1,0 3,0c1.5,0 3.54012,-0.68927 5,0c1.08812,0.51374 1.40633,2.2068 2.5,4c1.39416,2.28588 2.5,3 4,6c1,2 1.5,3 2,4c0.5,1 0.5,2 0.5,2c0,1 0,2 0,3c0,2 0,3 0,5c0,2 0,3 0,4l0,1l0,0l0,0" id="svg_26" stroke-width="4" fill="#HAIR" stroke="null"/>
        <path d="m214,78.45313c-0.85294,0 -1.70588,0 -5.11765,0c-2.55882,0 -6.03904,-0.68927 -8.52941,0c-1.85621,0.51374 -2.39903,2.2068 -4.26471,4c-2.37827,2.28588 -4.26471,3 -6.82353,6c-1.70588,2 -2.55882,3 -3.41176,4c-0.85294,1 -0.85294,2 -0.85294,2c0,1 0,2 0,3c0,2 0,3 0,5c0,2 0,3 0,4l0,1l0,0l0,0" id="svg_27" stroke-width="4" fill="#HAIR" stroke="null"/>
        <path stroke="null" d="m317,80.45313c-0.47059,0 -0.94118,0 -2.82353,0c-1.41176,0 -3.33188,-0.68927 -4.70588,0c-1.02412,0.51374 -1.3236,2.2068 -2.35294,4c-1.31215,2.28588 -2.35294,3 -3.76471,6c-0.94118,2 -1.41176,3 -1.88235,4c-0.47059,1 -0.47059,2 -0.47059,2c0,1 0,2 0,3c0,2 0,3 0,5c0,2 0,3 0,4l0,1l0,0l0,0" id="svg_28" stroke-width="4" fill="#HAIR"/>
        <path d="m222,88.45313c1,0 2,0 6,0c3,0 7.08025,-0.68927 10,0c2.17625,0.51374 2.81266,2.2068 5,4c2.78832,2.28588 5,3 8,6c2,2 3,3 4,4c1,1 1,2 1,2c0,1 0,2 0,3c0,2 0,3 0,5c0,2 0,3 0,4l0,1l0,0l0,0" id="svg_32" stroke-width="4" fill="#HAIR"/>
        <path d="m323,72.45313c-0.79412,0 -1.58824,0 -4.76471,0c-2.38235,0 -5.62255,-0.68927 -7.94118,0c-1.7282,0.51374 -2.23358,2.2068 -3.97059,4c-2.21425,2.28588 -3.97059,3 -6.35294,6c-1.58824,2 -2.38235,3 -3.17647,4c-0.79412,1 -0.79412,2 -0.79412,2c0,1 0,2 0,3c0,2 0,3 0,5c0,2 0,3 0,4l0,1l0,0l0,0" id="svg_41" stroke-width="4" fill="#HAIR" stroke="null"/>
    </g>
</svg>        