<svg width="512" height="512" xmlns="http://www.w3.org/2000/svg">
<g stroke="null" id="hair">
   <path stroke="null" fill="#HAIR" d="m163.00001,92.68674l0,53.31326l28.15385,-49.75903s34.18681,8.53012 63.34615,8.53012s63.34615,-8.53012 63.34615,-8.53012l28.15385,49.75903l0,-53.31326c0,-35.72557 -40.96586,-64.68675 -91.5,-64.68675c-50.53414,0 -91.5,28.96118 -91.5,64.68675z" id="svg_36"/>
  </g>
  <ellipse ry="53" rx="76" id="svg_45" cy="125.45313" cx="258" stroke-width="2" fill="#SKIN"/>
  <path stroke="#HAIR" transform="rotate(2.9478535652160645 234.68235778808628,62.331359863280944) " d="m283.6653,57.74712c0,0 -1.36064,0 -1.36064,0c-1.36063,0 -2.55603,-1.52141 -6.80318,-2.03743c-4.0292,-0.48954 -8.27303,-0.31656 -12.24574,-1.01872c-2.96108,-0.52336 -6.80318,-1.01872 -9.52446,-1.01872c-2.72127,0 -5.75327,-1.16954 -9.52446,0c-1.77776,0.55133 -4.08191,1.01872 -5.44255,2.03743c-1.36064,1.01872 -3.29119,2.46413 -5.44255,4.07487c-2.15135,1.61074 -5.58323,3.97944 -6.80318,5.09359c-3.11026,2.84053 -5.27608,5.16084 -6.80319,7.13103c-2.46238,3.17685 -6.10417,3.89531 -6.80319,6.1123c-0.62521,1.98294 -1.9849,3.76257 -2.72127,5.09359c-1.04139,1.88234 0,4.07487 0,6.1123c0,2.03743 -0.67142,3.95115 -1.36064,7.13102c-0.65385,3.01669 0,6.11231 0,7.13103c0,1.01872 0,2.03743 0,3.05615c0,0 0,0 -1.36064,-1.01872c0,0 0,0 -1.36063,-1.01872c-1.36064,-1.01872 -3.69294,-4.2905 -6.80319,-7.13103c-2.43988,-2.22828 -6.14057,-4.67998 -8.16382,-7.13102c-2.26207,-2.74033 -1.36064,-4.07487 -2.72128,-6.1123c-1.36063,-2.03743 -0.92474,-4.10117 -1.36063,-6.1123c-0.68922,-3.17987 -1.36064,-6.1123 -1.36064,-11.2059c0,-4.07487 0,-8.14974 0,-12.22461c0,-4.07487 1.36064,-7.13102 2.72127,-9.16846c1.36064,-2.03743 2.72128,-3.05615 4.08191,-4.07487c1.36064,-1.01873 4.48142,-3.79627 9.52447,-8.14975c4.45746,-3.84797 7.0912,-5.82107 10.88509,-8.14974c2.97618,-1.82676 6.80319,-3.05615 9.52446,-3.05615c2.72128,0 6.56338,-0.49536 9.52447,-1.01872c2.64847,-0.4681 6.80318,-1.01872 10.88509,-2.03743l1.36064,-1.01872l1.36064,0l0,0" id="svg_32" stroke-width="2" fill="#HAIR"/>
  <path stroke="#HAIR" transform="rotate(2.9478535652160645 275.0130920410156,58.828453063965505) " d="m236.3439,54.65748c0,0 1.07415,0 1.07415,0c1.07414,0 2.01784,-1.38426 5.37072,-1.85377c3.18082,-0.44541 6.53108,-0.28802 9.6673,-0.92689c2.3376,-0.47618 5.37072,-0.92689 7.51901,-0.92689c2.14828,0 4.54187,-1.06411 7.51901,0c1.40344,0.50163 3.22243,0.92689 4.29658,1.85377c1.07415,0.92689 2.5982,2.242 4.29658,3.70754c1.69837,1.46554 4.40764,3.62071 5.37072,4.63443c2.45537,2.58447 4.16516,4.69562 5.37072,6.4882c1.94391,2.89047 4.81889,3.54417 5.37072,5.56131c0.49357,1.80419 1.56696,3.42339 2.14828,4.63443c0.82212,1.71266 0,3.70754 0,5.56131c0,1.85377 0.53005,3.59497 1.07415,6.48819c0.51618,2.74475 0,5.56132 0,6.4882c0,0.92689 0,1.85377 0,2.78065c0,0 0,0 1.07415,-0.92689c0,0 0,0 1.07414,-0.92689c1.07415,-0.92689 2.91536,-3.90373 5.37072,-6.4882c1.92614,-2.02741 4.84762,-4.2581 6.44486,-6.48819c1.78577,-2.4933 1.07415,-3.70754 2.14829,-5.56131c1.07414,-1.85377 0.73003,-3.73147 1.07414,-5.56131c0.5441,-2.89322 1.07415,-5.56131 1.07415,-10.19574c0,-3.70754 0,-7.41508 0,-11.12262c0,-3.70754 -1.07415,-6.48819 -2.14828,-8.34197c-1.07415,-1.85377 -2.14829,-2.78065 -3.22243,-3.70754c-1.07415,-0.9269 -3.53782,-3.45406 -7.51902,-7.41509c-3.51891,-3.50109 -5.59809,-5.29633 -8.59315,-7.41508c-2.34952,-1.66209 -5.37072,-2.78065 -7.51901,-2.78065c-2.14829,0 -5.18141,-0.45071 -7.51902,-0.92689c-2.09081,-0.4259 -5.37072,-0.92689 -8.59315,-1.85377l-1.07415,-0.92689l-1.07415,0l0,0" id="svg_30" stroke-width="2" fill="#HAIR"/>
</svg>