<svg width="512" height="512" xmlns="http://www.w3.org/2000/svg">
<g id="hair">
   <path fill="#HAIR" d="m160.60607,105.75695l0,59.71475l29.23077,-55.73375s35.49449,9.55436 65.76922,9.55436s65.76922,-9.55436 65.76922,-9.55436l29.23077,55.73375l0,-59.71475c0,-40.01524 -42.53285,-72.45389 -94.99998,-72.45389c-52.46713,0 -94.99998,32.43865 -94.99998,72.45389z"/>
   <ellipse fill="#HAIR" stroke-width="5" cx="255.33708" cy="109.67275" rx="43.62419" ry="22.43472"/>
   <path fill="#HAIR" stroke-width="5" d="m265.18053,121.00001c0,0.4762 -0.11237,0.96513 0,1.42857c0.25125,1.03632 0.48906,1.42857 0.97812,1.90476c0.48907,0.47619 0.48907,1.42857 0.48907,1.90476c0,0.95238 0,1.42857 0,1.90476c0,0.47619 0,0.47619 0,0.95238c0,0.4762 0,0.4762 0,0.95238c0,0 -0.08466,0.40606 -0.48907,0.95238c-0.63943,0.86381 -1.06908,1.28217 -1.95624,1.90476c-0.56109,0.39377 -1.12136,0.61567 -1.46718,0.95238c-0.34582,0.33672 -0.33914,0.69466 -0.97812,0.95238c-0.45183,0.18223 -0.48906,0 -0.97812,0c0,0 -0.48907,0.4762 -0.48907,0.4762l-0.48906,0"/>
   <path fill="#HAIR" stroke-width="5" d="m283.66703,118.14286c0,0.4762 -0.11237,0.96513 0,1.42857c0.25124,1.03632 0.48906,1.42858 0.97812,1.90477c0.48906,0.47619 0.48906,1.42857 0.48906,1.90476c0,0.95238 0,1.42857 0,1.90476c0,0.47619 0,0.47619 0,0.95238c0,0.47619 0,0.47619 0,0.95238c0,0 -0.08466,0.40606 -0.48906,0.95238c-0.63943,0.86381 -1.06909,1.28217 -1.95625,1.90476c-0.56109,0.39377 -1.12136,0.61567 -1.46717,0.95239c-0.34582,0.33671 -0.33914,0.69466 -0.97813,0.95238c-0.45183,0.18222 -0.48906,0 -0.97812,0c0,0 -0.48906,0.47619 -0.48906,0.47619l-0.48906,0"/>
   <path fill="#703600" stroke-width="5" d="m277.30919,119.14283c0,0.4762 -0.11237,0.96513 0,1.42857c0.25124,1.03632 0.48906,1.42858 0.97812,1.90477c0.48906,0.47619 0.48906,1.42857 0.48906,1.90476c0,0.95238 0,1.42857 0,1.90476c0,0.47619 0,0.47619 0,0.95238c0,0.47619 0,0.47619 0,0.95238c0,0 -0.08466,0.40606 -0.48906,0.95238c-0.63943,0.86381 -1.06909,1.28217 -1.95625,1.90476c-0.56109,0.39377 -1.12136,0.61567 -1.46717,0.95239c-0.34582,0.33671 -0.33914,0.69466 -0.97813,0.95238c-0.45183,0.18222 -0.48906,0 -0.97812,0c0,0 -0.48906,0.47619 -0.48906,0.47619l-0.48906,0"/>
   <path fill="#HAIR" stroke-width="5" d="m276.69568,118.86145c0,0.4762 -0.11237,0.96513 0,1.42857c0.25124,1.03632 0.48906,1.42858 0.97812,1.90477c0.48906,0.47619 0.48906,1.42857 0.48906,1.90476c0,0.95238 0,1.42857 0,1.90476c0,0.47619 0,0.47619 0,0.95238c0,0.47619 0,0.47619 0,0.95238c0,0 -0.08466,0.40606 -0.48906,0.95238c-0.63943,0.86381 -1.06909,1.28217 -1.95625,1.90476c-0.56109,0.39377 -1.12136,0.61567 -1.46717,0.95239c-0.34582,0.33671 -0.33914,0.69466 -0.97813,0.95238c-0.45183,0.18222 -0.48906,0 -0.97812,0c0,0 -0.48906,0.47619 -0.48906,0.47619l-0.48906,0"/>
   <path fill="#HAIR" stroke-width="5" d="m270.80054,120.70477c0,0.4762 -0.11237,0.96513 0,1.42857c0.25124,1.03632 0.48906,1.42858 0.97812,1.90477c0.48906,0.47619 0.48906,1.42857 0.48906,1.90476c0,0.95238 0,1.42857 0,1.90476c0,0.47619 0,0.47619 0,0.95238c0,0.47619 0,0.47619 0,0.95238c0,0 -0.08466,0.40606 -0.48906,0.95238c-0.63943,0.86381 -1.06909,1.28217 -1.95625,1.90476c-0.56109,0.39377 -1.12136,0.61567 -1.46717,0.95239c-0.34582,0.33671 -0.33914,0.69466 -0.97813,0.95238c-0.45183,0.18222 -0.48906,0 -0.97812,0c0,0 -0.48906,0.47619 -0.48906,0.47619l-0.48906,0"/>
   <path fill="#HAIR" stroke-width="5" d="m241.77675,118.19478c0,0.4762 -0.11237,0.96513 0,1.42857c0.25124,1.03632 0.48906,1.42858 0.97812,1.90477c0.48906,0.47619 0.48906,1.42857 0.48906,1.90476c0,0.95238 0,1.42857 0,1.90476c0,0.47619 0,0.47619 0,0.95238c0,0.47619 0,0.47619 0,0.95238c0,0 -0.08466,0.40606 -0.48906,0.95238c-0.63943,0.86381 -1.06909,1.28217 -1.95625,1.90476c-0.56109,0.39377 -1.12136,0.61567 -1.46717,0.95239c-0.34582,0.33671 -0.33914,0.69466 -0.97813,0.95238c-0.45183,0.18222 -0.48906,0 -0.97812,0c0,0 -0.48906,0.47619 -0.48906,0.47619l-0.48906,0"/>
  </g>
</svg>