 <svg width="512" height="512" xmlns="http://www.w3.org/2000/svg">
    <g id="hair">
        <path id="svg_5" fill="#HAIR" d="m162,91.04217l0,51.95783l28.46154,-48.49398s34.56044,8.31325 64.03846,8.31325s64.03846,-8.31325 64.03846,-8.31325l28.46154,48.49398l0,-51.95783c0,-34.81729 -41.41357,-63.04217 -92.5,-63.04217c-51.08643,0 -92.5,28.22488 -92.5,63.04217z"/>
        <ellipse ry="33" rx="66.5" id="svg_11" cy="104.45313" cx="252.5" stroke-width="1.5" fill="#SKIN"/>
        <path d="m257,67.45313c1,0 1,0 2,0c3,0 5.22836,-1.14805 8,0c2.61313,1.08239 3.34619,2.70546 5,5c1.30745,1.814 1.69255,4.186 3,6c0.8269,1.14726 1.69255,3.186 3,5c0.8269,1.14726 2.2565,3.797 3,5c1.66251,2.68999 1.4588,3.69344 2,5c0.76537,1.84776 0,3 0,3c0,1 0,2 0,2l0,1" id="svg_23" stroke-width="1.5" fill="#HAIR"/>
        <path d="m234,65.45313c1,0 1,0 2,0c3,0 5.22836,-1.14805 8,0c2.61313,1.08238 3.34619,2.70545 5,5c1.30745,1.81399 1.69255,4.186 3,6c0.8269,1.14726 1.69255,3.186 3,5c0.8269,1.14726 2.2565,3.79699 3,5c1.66251,2.68998 1.4588,3.69343 2,5c0.76537,1.84776 0,3 0,3c0,1 0,2 0,2l0,1" id="svg_24" stroke-width="1.5" fill="#HAIR"/>
        <path d="m232,69.45313c1,0 1,0 2,0c3,0 5.22836,-1.14805 8,0c2.61313,1.08238 3.34619,2.70545 5,5c1.30745,1.81399 1.69255,4.186 3,6c0.8269,1.14726 1.69255,3.186 3,5c0.8269,1.14726 2.2565,3.79699 3,5c1.66251,2.68998 1.4588,3.69343 2,5c0.76537,1.84776 0,3 0,3c0,1 0,2 0,2l0,1" id="svg_25" stroke-width="1.5" fill="#HAIR"/>
        <path d="m250,66.45313c1,0 1,0 2,0c3,0 5.22836,-1.14805 8,0c2.61313,1.08238 3.34619,2.70545 5,5c1.30745,1.81399 1.69255,4.186 3,6c0.8269,1.14726 1.69255,3.186 3,5c0.8269,1.14726 2.2565,3.79699 3,5c1.66251,2.68998 1.4588,3.69343 2,5c0.76537,1.84776 0,3 0,3c0,1 0,2 0,2l0,1" id="svg_26" stroke-width="1.5" fill="#HAIR"/>
        <path transform="rotate(-54.967647552490234 244.17010498046872,85.19801330566403) " d="m261,69.45313c-1.27789,0 -1.27789,0 -2.55578,0c-3.83367,0 -6.68126,-1.14805 -10.22311,0c-3.33929,1.08238 -4.27606,2.70545 -6.38944,5c-1.67078,1.81399 -2.16289,4.186 -3.83367,6c-1.05669,1.14726 -2.16289,3.186 -3.83367,5c-1.05669,1.14726 -2.88356,3.79699 -3.83367,5c-2.1245,2.68998 -1.86418,3.69343 -2.55578,5c-0.97806,1.84776 0,3 0,3c0,1 0,2 0,2l0,1" id="svg_27" stroke-width="1.5" fill="#HAIR"/>
        <path transform="rotate(42.535186767578125 223.17007446289062,82.19801330566403) " d="m210,66.45313c1,0 1,0 2,0c3,0 5.22836,-1.14805 8,0c2.61313,1.08238 3.34619,2.70545 5,5c1.30745,1.81399 1.69255,4.186 3,6c0.8269,1.14726 1.69255,3.186 3,5c0.8269,1.14726 2.2565,3.79699 3,5c1.66251,2.68998 1.4588,3.69343 2,5c0.76537,1.84776 0,3 0,3c0,1 0,2 0,2l0,1" id="svg_28" stroke-width="1.5" fill="#HAIR"/>
        <path d="m218,68.45313c1.11389,0 1.11389,0 2.22779,0c3.34168,0 5.82384,-1.14805 8.91116,0c2.91075,1.08238 3.7273,2.70545 5.56947,5c1.45636,1.81399 1.88532,4.186 3.34168,6c0.92108,1.14726 1.88532,3.186 3.34168,5c0.92108,1.14726 2.5135,3.79699 3.34168,5c1.85186,2.68998 1.62495,3.69343 2.22779,5c0.85254,1.84776 0,3 0,3c0,1 0,2 0,2l0,1" id="svg_30" stroke-width="1.5" fill="#HAIR"/>
        <path d="m234,65.45313c1,0 1,0 2,0c3,0 5.22836,-1.14805 8,0c2.61313,1.08238 3.34619,2.70545 5,5c1.30745,1.81399 1.69255,4.186 3,6c0.8269,1.14726 1.69255,3.186 3,5c0.8269,1.14726 2.2565,3.79699 3,5c1.66251,2.68998 1.4588,3.69343 2,5c0.76537,1.84776 0,3 0,3c0,1 0,2 0,2l0,1" id="svg_32" stroke-width="1.5" fill="#HAIR"/>
        <path d="m243,65.45313c1,0 1,0 2,0c3,0 5.22836,-1.14805 8,0c2.61313,1.08238 3.34619,2.70545 5,5c1.30745,1.81399 1.69255,4.186 3,6c0.8269,1.14726 1.69255,3.186 3,5c0.8269,1.14726 2.2565,3.79699 3,5c1.66251,2.68998 1.4588,3.69343 2,5c0.76537,1.84776 0,3 0,3c0,1 0,2 0,2l0,1" id="svg_44" stroke-width="1.5" fill="none"/>
        <path transform="rotate(29.390201568603516 266.1701049804687,87.19801330566408) " d="m253,71.45313c1,0 1,0 2,0c3,0 5.22836,-1.14805 8,0c2.61313,1.08238 3.34619,2.70545 5,5c1.30745,1.81399 1.69255,4.186 3,6c0.8269,1.14726 1.69255,3.186 3,5c0.8269,1.14726 2.2565,3.79699 3,5c1.66251,2.68998 1.4588,3.69343 2,5c0.76537,1.84776 0,3 0,3c0,1 0,2 0,2l0,1" id="svg_45" stroke-width="1.5" fill="#HAIR"/>
        <path d="m240,62.45313c1,0 1,0 2,0c3,0 5.22836,-1.14805 8,0c2.61313,1.08238 3.34619,2.70545 5,5c1.30745,1.81399 1.69255,4.186 3,6c0.8269,1.14726 1.69255,3.186 3,5c0.8269,1.14726 2.2565,3.79699 3,5c1.66251,2.68998 1.4588,3.69343 2,5c0.76537,1.84776 0,3 0,3c0,1 0,2 0,2l0,1" id="svg_47" stroke-width="1.5" fill="#HAIR"/>

    </g>
</svg>
