<svg width="512" height="512" xmlns="http://www.w3.org/2000/svg">
  <g stroke="null" id="hair">
   <g stroke="null" fill="#HAIR" transform="translate(0,748) scale(0.10000000149011612,-0.10000000149011612) ">
    <path stroke="null" id="svg_4" d="m2518.34955,7267.87785c-299.00877,-16.00515 -586.21456,-112.03608 -781.61942,-261.08408c-115.4069,-89.02867 -182.29043,-181.05831 -213.76505,-296.09536c-36.72037,-139.04478 -24.9174,-223.07184 77.37507,-503.16205c32.78604,-90.02899 64.26066,-191.06153 72.12931,-224.07216c7.86865,-33.01063 17.04875,-78.02513 22.29451,-100.03222l9.18009,-40.01289l18.36019,35.01127c10.49153,19.00612 30.16316,87.02803 43.27759,152.04897c18.36019,92.02963 32.78604,130.04188 64.26066,173.05573c48.52335,65.02095 49.83479,96.03093 13.11443,192.06185c-35.40893,89.02867 -26.22884,134.04317 32.78604,179.05767c61.63778,47.01515 124.58699,51.01643 304.25453,20.00645c191.47053,-34.01095 301.63165,-41.01321 444.57883,-27.0087c144.25862,13.00419 243.92821,32.01031 373.76096,71.02287c135.07853,40.01289 171.7989,44.01417 228.1909,26.00837c51.14624,-16.00515 86.55518,-62.01997 86.55518,-112.03608c0,-15.00484 -18.36019,-76.02448 -40.65471,-137.04413c-44.58903,-118.03802 -44.58903,-158.0509 -1.31144,-205.06604c35.40893,-38.01225 51.14624,-81.0261 74.75219,-199.06411c18.36019,-98.03157 40.65471,-153.04929 59.01488,-153.04929c5.24576,0 13.11443,30.00966 18.36019,68.02191c3.93432,37.01192 26.22884,119.03833 48.52335,182.05863c20.98307,63.0203 56.392,165.05315 77.37507,226.07281c62.94922,185.0596 85.24372,470.15141 44.58903,574.18492c-28.85172,76.02448 -83.93228,114.03673 -182.29043,130.04188c-41.96615,7.00225 -102.29247,10.00322 -132.45563,6.00194c-51.14624,-5.00161 -55.08056,-4.00129 -64.26066,22.00709c-11.80297,37.01192 -64.26066,88.02835 -127.20987,122.03931c-112.78402,62.01997 -325.2376,92.02963 -569.16581,79.02545l0,-0.00002z"/>
   </g>
  </g>
</svg>