<svg width="512" height="512" xmlns="http://www.w3.org/2000/svg">
  <g stroke="null" id="hair">
   <path stroke="null" id="svg_43" fill="#HAIR" d="m163.61661,85.60105l0,39.223l28.30769,-36.60813s34.37362,6.27568 63.69231,6.27568s63.6923,-6.27568 63.6923,-6.27568l28.30769,36.60813l0,-39.223c0,-26.28359 -41.18971,-47.59057 -92,-47.59057c-50.81029,0 -92.00001,21.30698 -92.00001,47.59057l0.00002,0l-0.00002,0l0.00002,0z"/>
   <ellipse stroke="null" ry="63.77047" rx="79" id="svg_65" cy="120.61543" cx="255.93668" stroke-width="null" fill="#SKIN"/>
   <path stroke="null" id="svg_67" d="m222.77999,46.35774l19.03796,-11.30088l26.92408,0l19.03796,11.30088l0,15.98206l-19.03796,11.30088l-26.92408,0l-19.03796,-11.30088l0,-15.98206z" stroke-width="null" fill="#HAIR"/>
  </g>
</svg>
