<svg width="512" height="512" xmlns="http://www.w3.org/2000/svg">
    <g id="hair">
        <path stroke="null" id="svg_5" fill="#HAIR" d="m162.99999,95.42771l0,55.57229l28.30769,-51.86747s34.37363,8.89156 63.69231,8.89156s63.69231,-8.89156 63.69231,-8.89156l28.30769,51.86747l0,-55.57229c0,-37.23936 -41.18971,-67.42771 -92,-67.42771c-50.81029,0 -92,30.18835 -92,67.42771z"/>
        <ellipse fill="#SKIN" stroke-width="1.5" cx="255.5" cy="104.95313" id="svg_25" rx="67" ry="33.5"/>

        <path fill="#HAIR" stroke-width="1.5" id="svg_27" d="m270.5,67.45313c1,0 2.07844,-0.21014 5,1c2.06586,0.85571 3.69255,2.186 5,4c0.8269,1.14726 1.23463,1.15224 2,3c0.5412,1.30656 1.49346,2.87856 2,6c0.48055,2.96126 1,6 1,8c0,3 0,6 0,9c0,1 -1,3 -1,3c0,0 1,-1 2,-2c2,-2 5.20681,-5.81265 7,-8c2.28588,-2.78833 3,-5 3,-6c0,-1 0,-3 0,-7c0,-4 1,-9 1,-13c0,-4 0,-7 0,-8c0,-2 0,-3 0,-3c0,-1 0,-1 -1,-2l-1,0l0,0l0,0" transform="rotate(27.704469680786133 284,76.95312499999996) "/>
        <path fill="#HAIR" stroke-width="1.5" id="svg_30" d="m218.99644,81.97758c-1.14788,0 -2.38581,-0.17643 -5.73942,0.83953c-2.37137,0.7184 -4.23862,1.83522 -5.73942,3.35813c-0.94919,0.96316 -1.41721,0.96733 -2.29577,2.51859c-0.62124,1.0969 -1.71432,2.41663 -2.29577,5.03719c-0.55162,2.48606 -1.14788,5.03719 -1.14788,6.71625c0,2.51859 0,5.03719 0,7.55578c0,0.83953 1.14788,2.51859 1.14788,2.51859c0,0 -1.14788,-0.83953 -2.29577,-1.67906c-2.29577,-1.67906 -5.97682,-4.87991 -8.03519,-6.71625c-2.62393,-2.3409 -3.44365,-4.19766 -3.44365,-5.03719c0,-0.83953 0,-2.51859 0,-5.87672c0,-3.35813 -1.14788,-7.55578 -1.14788,-10.91391c0,-3.35813 0,-5.87672 0,-6.71625c0,-1.67906 0,-2.51859 0,-2.51859c0,-0.83953 0,-0.83953 1.14788,-1.67906l1.14788,0l0,0l0,0" transform="rotate(-36.99455642700195 203.5,89.95313262939452) " stroke="null"/>
        <path fill="#HAIR" stroke-width="1.5" id="svg_45" d="m231.37293,78.52071c-1.08103,0 -2.24685,-0.17642 -5.40513,0.83953c-2.23325,0.7184 -3.99174,1.83522 -5.40512,3.35813c-0.89389,0.96316 -1.33466,0.96733 -2.16205,2.51859c-0.58505,1.0969 -1.61447,2.41664 -2.16205,5.03719c-0.51948,2.48606 -1.08102,5.03719 -1.08102,6.71625c0,2.5186 0,5.03719 0,7.55579c0,0.83953 1.08102,2.51859 1.08102,2.51859c0,0 -1.08102,-0.83953 -2.16204,-1.67906c-2.16205,-1.67907 -5.62869,-4.87991 -7.56718,-6.71625c-2.47109,-2.3409 -3.24307,-4.19766 -3.24307,-5.03719c0,-0.83953 0,-2.5186 0,-5.87672c0,-3.35813 -1.08102,-7.55578 -1.08102,-10.91391c0,-3.35813 0,-5.87672 0,-6.71625c0,-1.67906 0,-2.51859 0,-2.51859c0,-0.83954 0,-0.83954 1.08102,-1.67907l1.08103,0l0,0l0,0" transform="rotate(-36.99455642700195 216.77909851074222,86.49626922607422) " stroke="null"/>
        <path fill="#HAIR" stroke-width="1.5" id="svg_54" d="m202.63307,87.45183c-0.47401,0 -0.98519,-0.17642 -2.37003,0.83953c-0.97923,0.7184 -1.75029,1.83522 -2.37003,3.35813c-0.39195,0.96316 -0.58522,0.96733 -0.94801,2.51859c-0.25653,1.0969 -0.70791,2.41664 -0.94801,5.03719c-0.22778,2.48606 -0.474,5.03719 -0.474,6.71625c0,2.5186 0,5.03719 0,7.55579c0,0.83953 0.474,2.51859 0.474,2.51859c0,0 -0.474,-0.83953 -0.94801,-1.67906c-0.94801,-1.67907 -2.46806,-4.87991 -3.31804,-6.71625c-1.08352,-2.3409 -1.42202,-4.19766 -1.42202,-5.03719c0,-0.83953 0,-2.5186 0,-5.87672c0,-3.35813 -0.474,-7.55578 -0.474,-10.91391c0,-3.35813 0,-5.87672 0,-6.71625c0,-1.67906 0,-2.51859 0,-2.51859c0,-0.83954 0,-0.83954 0.474,-1.67907l0.47401,0l0,0l0,0" transform="rotate(-36.99455642700195 196.2339935302734,95.42737579345706) " stroke="null"/>
        <path fill="#HAIR" stroke-width="1.5" id="svg_55" d="m248.99644,75.97758c-1.14789,0 -2.38581,-0.17642 -5.73943,0.83953c-2.37137,0.7184 -4.23862,1.83522 -5.73942,3.35813c-0.94918,0.96316 -1.41721,0.96733 -2.29577,2.51859c-0.62123,1.0969 -1.71432,2.41664 -2.29577,5.03719c-0.55161,2.48606 -1.14788,5.03719 -1.14788,6.71625c0,2.5186 0,5.03719 0,7.55579c0,0.83953 1.14788,2.51859 1.14788,2.51859c0,0 -1.14788,-0.83953 -2.29576,-1.67906c-2.29577,-1.67907 -5.97682,-4.87991 -8.0352,-6.71625c-2.62392,-2.3409 -3.44365,-4.19766 -3.44365,-5.03719c0,-0.83953 0,-2.5186 0,-5.87672c0,-3.35813 -1.14788,-7.55578 -1.14788,-10.91391c0,-3.35813 0,-5.87672 0,-6.71625c0,-1.67906 0,-2.51859 0,-2.51859c0,-0.83954 0,-0.83954 1.14788,-1.67907l1.14789,0l0,0l0,0" transform="rotate(-36.99455642700195 233.5,83.95313262939455) " stroke="null"/>
        <path fill="#HAIR" stroke-width="1.5" id="svg_56" d="m264.99644,73.97758c-1.14789,0 -2.38581,-0.17642 -5.73943,0.83953c-2.37137,0.7184 -4.23862,1.83522 -5.73942,3.35813c-0.94918,0.96316 -1.41721,0.96733 -2.29577,2.51859c-0.62123,1.0969 -1.71432,2.41664 -2.29577,5.03719c-0.55161,2.48606 -1.14788,5.03719 -1.14788,6.71625c0,2.5186 0,5.03719 0,7.55579c0,0.83953 1.14788,2.51859 1.14788,2.51859c0,0 -1.14788,-0.83953 -2.29576,-1.67906c-2.29577,-1.67907 -5.97682,-4.87991 -8.0352,-6.71625c-2.62392,-2.3409 -3.44365,-4.19766 -3.44365,-5.03719c0,-0.83953 0,-2.5186 0,-5.87672c0,-3.35813 -1.14788,-7.55578 -1.14788,-10.91391c0,-3.35813 0,-5.87672 0,-6.71625c0,-1.67906 0,-2.51859 0,-2.51859c0,-0.83954 0,-0.83954 1.14788,-1.67907l1.14789,0l0,0l0,0" transform="rotate(-36.99455642700195 249.5,81.95313262939453) " stroke="null"/>
        <path fill="#HAIR" stroke-width="1.5" id="svg_57" d="m267.78051,69.00185c0.75324,0 1.56557,-0.21015 3.76622,1c1.5561,0.85571 2.78139,2.186 3.76622,4c0.62286,1.14726 0.92998,1.15223 1.50649,3c0.40766,1.30656 1.12494,2.87855 1.50649,6c0.36197,2.96125 0.75324,6 0.75324,8c0,3 0,6 0,9c0,1 -0.75324,3 -0.75324,3c0,0 0.75324,-1 1.50649,-2c1.50649,-2 3.922,-5.81266 5.27271,-8c1.72183,-2.78834 2.25973,-5 2.25973,-6c0,-1 0,-3 0,-7c0,-4 0.75324,-9 0.75324,-13c0,-4 0,-7 0,-8c0,-2 0,-3 0,-3c0,-1 0,-1 -0.75324,-2l-0.75324,0l0,0l0,0" transform="rotate(27.704469680786133 277.9493103027344,78.50184631347653) " stroke="null"/>
        <path fill="#HAIR" stroke-width="1.5" id="svg_58" d="m252.5,70.45313c1,0 2.07844,-0.21015 5,1c2.06586,0.85571 3.69255,2.186 5,4c0.8269,1.14726 1.23463,1.15223 2,3c0.5412,1.30656 1.49346,2.87855 2,6c0.48055,2.96125 1,6 1,8c0,3 0,6 0,9c0,1 -1,3 -1,3c0,0 1,-1 2,-2c2,-2 5.20681,-5.81266 7,-8c2.28588,-2.78834 3,-5 3,-6c0,-1 0,-3 0,-7c0,-4 1,-9 1,-13c0,-4 0,-7 0,-8c0,-2 0,-3 0,-3c0,-1 0,-1 -1,-2l-1,0l0,0l0,0" transform="rotate(27.704469680786133 266,79.95312499999997) "/>
        <path fill="#HAIR" stroke-width="1.5" id="svg_59" d="m237.5,73.45313c1,0 2.07844,-0.21015 5,1c2.06586,0.85571 3.69255,2.186 5,4c0.8269,1.14726 1.23463,1.15223 2,3c0.5412,1.30656 1.49346,2.87855 2,6c0.48055,2.96125 1,6 1,8c0,3 0,6 0,9c0,1 -1,3 -1,3c0,0 1,-1 2,-2c2,-2 5.20681,-5.81266 7,-8c2.28588,-2.78834 3,-5 3,-6c0,-1 0,-3 0,-7c0,-4 1,-9 1,-13c0,-4 0,-7 0,-8c0,-2 0,-3 0,-3c0,-1 0,-1 -1,-2l-1,0l0,0l0,0" transform="rotate(27.704469680786133 251,82.95312499999994) "/>
        <path fill="#HAIR" stroke-width="1.5" id="svg_60" d="m252.5,70.45313c1,0 2.07844,-0.21015 5,1c2.06586,0.85571 3.69255,2.186 5,4c0.8269,1.14726 1.23463,1.15223 2,3c0.5412,1.30656 1.49346,2.87855 2,6c0.48055,2.96125 1,6 1,8c0,3 0,6 0,9c0,1 -1,3 -1,3c0,0 1,-1 2,-2c2,-2 5.20681,-5.81266 7,-8c2.28588,-2.78834 3,-5 3,-6c0,-1 0,-3 0,-7c0,-4 1,-9 1,-13c0,-4 0,-7 0,-8c0,-2 0,-3 0,-3c0,-1 0,-1 -1,-2l-1,0l0,0l0,0" transform="rotate(27.704469680786133 266,79.95312499999997) "/>
        <path fill="#HAIR" stroke-width="1.5" id="svg_61" d="m294.50764,71.68796c0.80325,0 1.66952,-0.21015 4.01627,1c1.65941,0.85571 2.96606,2.186 4.01627,4c0.66421,1.14726 0.99172,1.15223 1.60651,3c0.43472,1.30656 1.19963,2.87855 1.60651,6c0.386,2.96125 0.80325,6 0.80325,8c0,3 0,6 0,9c0,1 -0.80325,3 -0.80325,3c0,0 0.80325,-1 1.60651,-2c1.60651,-2 4.18239,-5.81266 5.62278,-8c1.83614,-2.78834 2.40976,-5 2.40976,-6c0,-1 0,-3 0,-7c0,-4 0.80325,-9 0.80325,-13c0,-4 0,-7 0,-8c0,-2 0,-3 0,-3c0,-1 0,-1 -0.80325,-2l-0.80325,0l0,0l0,0" transform="rotate(27.704469680786133 305.3515625,81.18796539306635) " stroke="null"/>
        <path fill="#HAIR" stroke-width="1.5" id="svg_62" d="m282.5,68.45313c1,0 2.07844,-0.21015 5,1c2.06586,0.85571 3.69255,2.186 5,4c0.8269,1.14726 1.23463,1.15223 2,3c0.5412,1.30656 1.49346,2.87855 2,6c0.48055,2.96125 1,6 1,8c0,3 0,6 0,9c0,1 -1,3 -1,3c0,0 1,-1 2,-2c2,-2 5.20681,-5.81266 7,-8c2.28588,-2.78834 3,-5 3,-6c0,-1 0,-3 0,-7c0,-4 1,-9 1,-13c0,-4 0,-7 0,-8c0,-2 0,-3 0,-3c0,-1 0,-1 -1,-2l-1,0l0,0l0,0" transform="rotate(27.704469680786133 295.99999999999994,77.95312500000001) "/>

    </g>
</svg>
