<svg width="512" height="512" xmlns="http://www.w3.org/2000/svg">
    <g id="hair">
        <path id="svg_23" fill="#HAIR" d="m162.00001,88.90964l0,60.09036l28.15385,-56.08433s34.18681,9.61446 63.34615,9.61446s63.34615,-9.61446 63.34615,-9.61446l28.15385,56.08433l0,-60.09036c0,-40.26695 -40.96586,-72.90963 -91.5,-72.90963c-50.53414,0 -91.5,32.64268 -91.5,72.90963z" stroke="null"/>
        <path stroke="#HAIR" stroke-width="7" d="m369.29786,177.5c0,-1 0.16387,-3.00604 0,-10c-0.28189,-12.03119 -3.71399,-27.18633 -8.44947,-45c-4.30054,-16.17755 -7.73386,-25.22885 -10.13936,-30c-2.65643,-5.26885 -4.50638,-8 -5.63298,-8c-0.5633,0 -1.1266,0 -2.25319,-1c-1.1266,-1 -1.68989,-1 -2.25319,-2c-0.5633,-1 -1.51721,-1.4588 -2.25319,-2c-1.04084,-0.76537 -2.25319,-1 -2.25319,-2l-0.5633,0l0,0l0,0" id="svg_46" opacity="undefined" fill="none"/>
        <path stroke-width="7" d="m125.5,163.5c0,-1 -0.29091,-3.00604 0,-10c0.50043,-12.03119 6.59329,-27.18633 15,-45c7.63458,-16.17755 13.72961,-25.22885 18,-30c4.71585,-5.26885 8,-8 10,-8c1,0 2,0 4,-1c2,-1 3,-1 4,-2c1,-1 2.69344,-1.4588 4,-2c1.84776,-0.76537 4,-1 4,-2l1,0l0,0l0,0" id="svg_51" opacity="undefined" stroke="#HAIR" fill="none"/>
        <path stroke-width="7" d="m191.5,130.5c0,-1 -0.29091,-3.00604 0,-10c0.50043,-12.03119 6.59329,-27.18633 15,-45c7.63458,-16.17755 13.72961,-25.22885 18,-30c4.71585,-5.26885 8,-8 10,-8c1,0 2,0 4,-1c2,-1 3,-1 4,-2c1,-1 2.69344,-1.4588 4,-2c1.84776,-0.76537 4,-1 4,-2l1,0l0,0l0,0" id="svg_52" opacity="undefined" stroke="#HAIR" fill="none"/>
        <path stroke-width="7" d="m204.5,129.5c0,-1 -0.29091,-3.00604 0,-10c0.50043,-12.03119 6.59329,-27.18633 15,-45c7.63458,-16.17755 13.72961,-25.22885 18,-30c4.71585,-5.26885 8,-8 10,-8c1,0 2,0 4,-1c2,-1 3,-1 4,-2c1,-1 2.69344,-1.4588 4,-2c1.84776,-0.76537 4,-1 4,-2l1,0l0,0l0,0" id="svg_53" opacity="undefined" stroke="#HAIR" fill="none"/>
        <path stroke-width="7" d="m191.5,130.5c0,-1 -0.29091,-3.00604 0,-10c0.50043,-12.03119 6.59329,-27.18633 15,-45c7.63458,-16.17755 13.72961,-25.22885 18,-30c4.71585,-5.26885 8,-8 10,-8c1,0 2,0 4,-1c2,-1 3,-1 4,-2c1,-1 2.69344,-1.4588 4,-2c1.84776,-0.76537 4,-1 4,-2l1,0l0,0l0,0" id="svg_54" opacity="undefined" stroke="#HAIR" fill="none"/>
        <path stroke-width="7" d="m211.5,125.5c0,-1 -0.29091,-3.00604 0,-10c0.50043,-12.03119 6.59329,-27.18633 15,-45c7.63458,-16.17755 13.72961,-25.22885 18,-30c4.71585,-5.26885 8,-8 10,-8c1,0 2,0 4,-1c2,-1 3,-1 4,-2c1,-1 2.69344,-1.4588 4,-2c1.84776,-0.76537 4,-1 4,-2l1,0l0,0l0,0" id="svg_55" opacity="undefined" stroke="#HAIR" fill="none"/>
        <path stroke-width="7" d="m222.5,126.5c0,-1 -0.29091,-3.00604 0,-10c0.50043,-12.03119 6.59329,-27.18633 15,-45c7.63458,-16.17755 13.72961,-25.22885 18,-30c4.71585,-5.26885 8,-8 10,-8c1,0 2,0 4,-1c2,-1 3,-1 4,-2c1,-1 2.69344,-1.4588 4,-2c1.84776,-0.76537 4,-1 4,-2l1,0l0,0l0,0" id="svg_56" opacity="undefined" stroke="#HAIR" fill="none"/>
        <path stroke-width="7" d="m211.5,125.5c0,-1 -0.29091,-3.00604 0,-10c0.50043,-12.03119 6.59329,-27.18633 15,-45c7.63458,-16.17755 13.72961,-25.22885 18,-30c4.71585,-5.26885 8,-8 10,-8c1,0 2,0 4,-1c2,-1 3,-1 4,-2c1,-1 2.69344,-1.4588 4,-2c1.84776,-0.76537 4,-1 4,-2l1,0l0,0l0,0" id="svg_57" opacity="undefined" stroke="#HAIR" fill="none"/>
        <path stroke-width="7" d="m233.5,126.5c0,-1 -0.29091,-3.00604 0,-10c0.50043,-12.03119 6.59329,-27.18633 15,-45c7.63458,-16.17755 13.72961,-25.22885 18,-30c4.71585,-5.26885 8,-8 10,-8c1,0 2,0 4,-1c2,-1 3,-1 4,-2c1,-1 2.69344,-1.4588 4,-2c1.84776,-0.76537 4,-1 4,-2l1,0l0,0l0,0" id="svg_58" opacity="undefined" stroke="#HAIR" fill="none"/>
        <path stroke="#HAIR" stroke-width="7" d="m309.31294,126.5c0,-1 0.13,-3.00604 0,-10c-0.22363,-12.03119 -2.94642,-27.18633 -6.70323,-45c-3.41176,-16.17755 -6.13552,-25.22885 -8.04388,-30c-2.10743,-5.26885 -3.57506,-8 -4.46882,-8c-0.44688,0 -0.89376,0 -1.78753,-1c-0.89376,-1 -1.34065,-1 -1.78753,-2c-0.44688,-1 -1.20365,-1.4588 -1.78753,-2c-0.82573,-0.76537 -1.78753,-1 -1.78753,-2l-0.44688,0l0,0l0,0" id="svg_59" opacity="undefined" fill="none"/>
        <path stroke="#HAIR" stroke-width="7" d="m292.31294,122.5c0,-1 0.13,-3.00604 0,-10c-0.22364,-12.03119 -2.94643,-27.18633 -6.70324,-45c-3.41176,-16.17755 -6.13552,-25.22885 -8.04388,-30c-2.10743,-5.26885 -3.57506,-8 -4.46882,-8c-0.44688,0 -0.89377,0 -1.78753,-1c-0.89376,-1 -1.34065,-1 -1.78753,-2c-0.44688,-1 -1.20365,-1.4588 -1.78753,-2c-0.82573,-0.76537 -1.78753,-1 -1.78753,-2l-0.44688,0l0,0l0,0" id="svg_60" opacity="undefined" fill="none"/>
        <path stroke="#HAIR" stroke-width="7" d="m309.31294,126.5c0,-1 0.13,-3.00604 0,-10c-0.22364,-12.03119 -2.94643,-27.18633 -6.70324,-45c-3.41176,-16.17755 -6.13552,-25.22885 -8.04388,-30c-2.10743,-5.26885 -3.57506,-8 -4.46882,-8c-0.44688,0 -0.89377,0 -1.78753,-1c-0.89376,-1 -1.34065,-1 -1.78753,-2c-0.44688,-1 -1.20365,-1.4588 -1.78753,-2c-0.82573,-0.76537 -1.78753,-1 -1.78753,-2l-0.44688,0l0,0l0,0" id="svg_61" opacity="undefined" fill="none"/>
        <path stroke="#HAIR" stroke-width="7" d="m281.31294,121.5c0,-1 0.13,-3.00604 0,-10c-0.22364,-12.03119 -2.94643,-27.18633 -6.70324,-45c-3.41176,-16.17755 -6.13552,-25.22885 -8.04388,-30c-2.10743,-5.26885 -3.57506,-8 -4.46882,-8c-0.44688,0 -0.89377,0 -1.78753,-1c-0.89376,-1 -1.34065,-1 -1.78753,-2c-0.44688,-1 -1.20365,-1.4588 -1.78753,-2c-0.82573,-0.76537 -1.78753,-1 -1.78753,-2l-0.44688,0l0,0l0,0" id="svg_62" opacity="undefined" fill="none"/>
        <path stroke-width="7" d="m125.5,163.5c0,-1 -0.29091,-3.00604 0,-10c0.50043,-12.03119 6.59329,-27.18633 15,-45c7.63458,-16.17755 13.72961,-25.22885 18,-30c4.71585,-5.26885 8,-8 10,-8c1,0 2,0 4,-1c2,-1 3,-1 4,-2c1,-1 2.69344,-1.4588 4,-2c1.84776,-0.76537 4,-1 4,-2l1,0l0,0l0,0" id="svg_63" opacity="undefined" stroke="#HAIR" fill="none"/>
        <path transform="rotate(-5.727925777435303 366.4353637695316,127.49999999999979) " stroke="#HAIR" stroke-width="7" d="m383.29786,177.5c0,-1 0.16387,-3.00604 0,-10c-0.28189,-12.03119 -3.71398,-27.18633 -8.44946,-45c-4.30055,-16.17755 -7.73386,-25.22885 -10.13936,-30c-2.65643,-5.26885 -4.50638,-8 -5.63298,-8c-0.5633,0 -1.12659,0 -2.25319,-1c-1.1266,-1 -1.68989,-1 -2.25319,-2c-0.5633,-1 -1.51721,-1.4588 -2.25319,-2c-1.04084,-0.76537 -2.25319,-1 -2.25319,-2l-0.5633,0l0,0l0,0" id="svg_64" opacity="undefined" fill="none"/>
        <path stroke="#HAIR" stroke-width="7" d="m361.29786,198.5c0,-1 0.16387,-3.00604 0,-10c-0.28189,-12.03119 -3.71398,-27.18633 -8.44946,-45c-4.30055,-16.17755 -7.73386,-25.22885 -10.13936,-30c-2.65643,-5.26885 -4.50638,-8 -5.63298,-8c-0.5633,0 -1.12659,0 -2.25319,-1c-1.1266,-1 -1.68989,-1 -2.25319,-2c-0.5633,-1 -1.51721,-1.4588 -2.25319,-2c-1.04084,-0.76537 -2.25319,-1 -2.25319,-2l-0.5633,0l0,0l0,0" id="svg_65" opacity="undefined" fill="none"/>
        <path stroke="#HAIR" transform="rotate(-13.543815612792969 357.93533325195307,101.00000000000003) " stroke-width="7" d="m378.57095,154.48433c0,-1.06969 0.20054,-3.21552 0,-10.69687c-0.34496,-12.8696 -4.54501,-29.08085 -10.34008,-48.13589c-5.26282,-17.30491 -9.46436,-26.98696 -12.4081,-32.0906c-3.25082,-5.63602 -5.51471,-8.55749 -6.89339,-8.55749c-0.68934,0 -1.37867,0 -2.75735,-1.06969c-1.37868,-1.06969 -2.06801,-1.06969 -2.75735,-2.13937c-0.68934,-1.06969 -1.85669,-1.56046 -2.75735,-2.13937c-1.27373,-0.81871 -2.75735,-1.06969 -2.75735,-2.13937l-0.68934,0l0,0l0,0" id="svg_66" opacity="undefined" fill="none"/>
        <path transform="rotate(-5.727925777435303 359.43536376953176,136.50000000000037) " stroke="#HAIR" stroke-width="7" d="m376.29786,186.5c0,-1 0.16387,-3.00604 0,-10c-0.28189,-12.03119 -3.71398,-27.18633 -8.44946,-45c-4.30055,-16.17755 -7.73386,-25.22885 -10.13936,-30c-2.65643,-5.26885 -4.50638,-8 -5.63298,-8c-0.5633,0 -1.12659,0 -2.25319,-1c-1.1266,-1 -1.68989,-1 -2.25319,-2c-0.5633,-1 -1.51721,-1.4588 -2.25319,-2c-1.04084,-0.76537 -2.25319,-1 -2.25319,-2l-0.5633,0l0,0l0,0" id="svg_67" opacity="undefined" fill="none"/>
        <path stroke-width="7" d="m140.5,169.5c0,-1 -0.29091,-3.00604 0,-10c0.50043,-12.03119 6.59329,-27.18633 15,-45c7.63458,-16.17755 13.72961,-25.22885 18,-30c4.71585,-5.26885 8,-8 10,-8c1,0 2,0 4,-1c2,-1 3,-1 4,-2c1,-1 2.69344,-1.4588 4,-2c1.84776,-0.76537 4,-1 4,-2l1,0l0,0l0,0" id="svg_68" opacity="undefined" stroke="#HAIR" fill="none"/>
        <path stroke-width="7" d="m144.5,184.5c0,-1 -0.29091,-3.00604 0,-10c0.50043,-12.03119 6.59329,-27.18633 15,-45c7.63458,-16.17755 13.72961,-25.22885 18,-30c4.71585,-5.26885 8,-8 10,-8c1,0 2,0 4,-1c2,-1 3,-1 4,-2c1,-1 2.69344,-1.4588 4,-2c1.84776,-0.76537 4,-1 4,-2l1,0l0,0l0,0" id="svg_69" opacity="undefined" stroke="#HAIR" fill="none"/>
        <path stroke-width="7" d="m132.5,173.5c0,-1 -0.29091,-3.00604 0,-10c0.50043,-12.03119 6.59329,-27.18633 15,-45c7.63458,-16.17755 13.72961,-25.22885 18,-30c4.71585,-5.26885 8,-8 10,-8c1,0 2,0 4,-1c2,-1 3,-1 4,-2c1,-1 2.69344,-1.4588 4,-2c1.84776,-0.76537 4,-1 4,-2l1,0l0,0l0,0" id="svg_70" opacity="undefined" stroke="#HAIR" fill="none"/>
        <path stroke-width="7" d="m132.5,187.5c0,-1 -0.29091,-3.00604 0,-10c0.50043,-12.03119 6.59329,-27.18633 15,-45c7.63458,-16.17755 13.72961,-25.22885 18,-30c4.71585,-5.26885 8,-8 10,-8c1,0 2,0 4,-1c2,-1 3,-1 4,-2c1,-1 2.69344,-1.4588 4,-2c1.84776,-0.76537 4,-1 4,-2l1,0l0,0l0,0" id="svg_71" opacity="undefined" stroke="#HAIR" fill="none"/>
        <path stroke-width="7" d="m151.5,184.5c0,-1 -0.29091,-3.00604 0,-10c0.50043,-12.03119 6.59329,-27.18633 15,-45c7.63458,-16.17755 13.72961,-25.22885 18,-30c4.71585,-5.26885 8,-8 10,-8c1,0 2,0 4,-1c2,-1 3,-1 4,-2c1,-1 2.69344,-1.4588 4,-2c1.84776,-0.76537 4,-1 4,-2l1,0l0,0l0,0" id="svg_72" opacity="undefined" stroke="#HAIR" fill="none"/>
    </g>
</svg>