<svg width="512" height="512" xmlns="http://www.w3.org/2000/svg">
  <g transform="translate(0,748) scale(0.10000000149011612,-0.10000000149011612) " fill="#HAIR" id="hair">
   <path d="m2446.8272,7249.7217c-20.63026,-3.05307 -101.86192,-16.28304 -180.51479,-29.51302c-77.36349,-13.22998 -190.82993,-31.5484 -251.43133,-40.70761c-306.87516,-46.81375 -471.91726,-213.71494 -510.59901,-513.93355c-9.02574,-77.34445 2.57878,-135.35279 74.7847,-366.36847c45.1287,-142.47662 52.86504,-189.29038 59.312,-308.36012c5.15757,-127.21127 7.73634,-141.45894 33.52417,-154.68891c14.18331,-8.14153 29.656,-15.26536 34.81356,-15.26536c3.86817,0 11.60451,48.84913 15.47271,109.91054c5.15757,61.06141 20.63026,144.512 36.10296,190.30806c46.4181,131.28204 45.1287,171.98964 -1.28939,291.05939c-48.99687,122.12283 -46.4181,165.88349 10.31513,221.85646c92.83618,90.57443 184.38298,97.69826 428.07795,30.5307l161.17393,-43.76068l193.40872,0l193.40872,0l161.17393,42.74298c233.37985,63.09679 324.92663,60.04372 415.18404,-15.26536c73.49532,-61.06141 77.36349,-106.85747 23.20905,-240.17489c-45.1287,-112.96361 -47.70748,-154.68891 -12.89392,-244.24564c30.94539,-77.34445 50.28627,-188.27268 51.57565,-278.84711c0,-35.61915 3.86817,-64.11449 10.31513,-64.11449c5.15757,0 21.91965,7.12383 36.10296,15.26536c24.49844,13.22998 28.36661,27.47764 34.81356,154.68891c6.44695,122.12283 15.47271,164.86581 67.04836,328.71393c54.15444,165.88349 60.60141,201.50266 61.89079,300.2186c1.28939,227.9626 -91.5468,391.81072 -281.08733,492.56204c-70.91653,38.67223 -137.96488,56.99065 -251.43133,72.256c-52.86504,7.12383 -159.88454,23.40687 -237.24803,37.65453c-139.25428,24.42457 -301.7176,35.61915 -375.21291,27.47764l0.00003,0.00004l-0.00001,0.00003z" id="svg_45"/>
  </g>
</svg>