 <svg width="512" height="512" xmlns="http://www.w3.org/2000/svg">
    <g id="hair">
        <path fill="#HAIR" d="m163.00001,97.68674l0,53.31326l28.15385,-49.75903s34.18681,8.53012 63.34615,8.53012s63.34615,-8.53012 63.34615,-8.53012l28.15385,49.75903l0,-53.31326c0,-35.72557 -40.96586,-64.68675 -91.5,-64.68675c-50.53414,0 -91.5,28.96118 -91.5,64.68675z"/>
        <path stroke="null" fill="#HAIR" stroke-width="4" stroke-opacity="null" id="svg_6" d="m278.57922,84.79714c0.94882,0.44822 1.89764,0.89644 5.69293,2.68931c2.84646,1.34466 7.0088,2.47899 9.48822,4.48218c1.84803,1.49308 1.73729,3.48429 3.05584,6.27153c1.68082,3.55305 3.4779,5.26392 5.05816,9.6314c1.05351,2.91166 1.58025,4.36748 2.10701,5.82331c0.52675,1.45583 0.10469,2.46344 0.10469,2.46344c-0.42207,1.00761 -0.84414,2.01522 -1.26621,3.02283c-0.84414,2.01522 -1.26621,3.02283 -2.11034,5.03805c-0.84414,2.01522 -1.26621,3.02283 -1.68827,4.03044l-0.42207,1.00761l0,0l0,0"/>
        <path stroke="null" fill="#HAIR" stroke-width="4" stroke-opacity="null" id="svg_7" d="m250.23076,93.25672c1.03846,0 2.07693,0 6.23077,0c3.11538,0 7.35257,-0.76013 10.38462,0c2.25995,0.56655 2.92084,2.43367 5.19231,4.41121c2.89556,2.52088 5.19231,3.30841 8.30769,6.61682c2.07693,2.20561 3.11538,3.30841 4.15384,4.41121c1.03846,1.1028 1.03846,2.20561 1.03846,2.20561c0,1.1028 0,2.20561 0,3.30841c0,2.20561 0,3.30841 0,5.51402c0,2.20561 0,3.30841 0,4.41121l0,1.1028l0,0l0,0"/>
        <path stroke="null" fill="#HAIR" stroke-width="4" stroke-opacity="null" id="svg_33" d="m204.33569,126.4545c0.10478,-1.4678 0.20957,-2.9356 0.62869,-8.80681c0.31434,-4.4034 0.16912,-10.43851 1.0478,-14.67801c0.65492,-3.15993 2.12847,-3.9808 3.84769,-7.07142c2.19161,-3.93978 3.01676,-7.13832 5.82394,-11.34103c1.87147,-2.80181 2.80719,-4.20271 3.74292,-5.60362c0.93572,-1.4009 1.76668,-1.33401 1.76668,-1.33401c0.83095,0.0669 1.6619,0.13379 2.49285,0.20069c1.6619,0.13379 2.49285,0.20069 4.15475,0.33448c1.6619,0.13379 2.49285,0.20069 3.32381,0.26759l0.83095,0.0669l0,0l0,0"/>

    </g>
</svg>
