<svg width="512" height="512" xmlns="http://www.w3.org/2000/svg">

  <g stroke="null" id="hair">
   <path stroke="#HAIR" id="svg_22" stroke-width="0" fill="#HAIR" d="m198.44767,90.45269s8.6821,31.61641 132.70825,31.61641l19.84406,29.99482l0,-41.34465l0,-26.75162c0,-26.86411 -33.3169,-48.64116 -74.41653,-48.64116l-45.88827,0c-17.80918,0 -32.24646,9.4367 -32.24646,21.07738l0,34.04882l-0.00105,0l0,0.00001z"/>
   <path stroke="#HAIR" id="svg_23" stroke-width="0" fill="#HAIR" d="m198.44767,90.45269s2.4809,24.32059 -26.04526,31.61641l-12.4024,29.99482l0,-41.34465l0,-29.18402c0,-13.87964 17.21414,-25.1307 38.44766,-25.1307l0,34.04814l0,0.00001z"/>
   <ellipse stroke="#HAIR" id="svg_24" fill="#HAIR" stroke-width="0" cx="266.51923" cy="70.54771" rx="81.3324" ry="42.09459"/>
  </g>

</svg>            
