<svg width="512" height="512" xmlns="http://www.w3.org/2000/svg">
  <g stroke="null" id="hair" fill="#HAIR" transform="translate(0,748) scale(0.10000000149011612,-0.10000000149011612) ">
   <path stroke="null" id="svg_13" d="m2500.60747,7211.30065c-409.71081,-48.37271 -731.10073,-203.72352 -878.30221,-425.12168c-82.1875,-122.79226 -106.72108,-283.72454 -66.24067,-430.70315c28.21362,-105.11762 133.70802,-404.65631 142.29477,-404.65631c3.68004,0 11.04011,26.97709 15.94683,59.53564c28.21362,213.95621 154.56157,386.98166 329.97667,452.09877c106.72108,39.07026 214.66883,53.95417 462.45801,60.46589c310.34981,8.3722 399.89737,23.25611 517.65858,85.58248c52.7472,27.90733 61.33396,25.1166 154.56157,-43.72149c106.72108,-79.07077 138.61473,-139.53666 168.05503,-324.65529c17.17351,-102.32688 25.76026,-136.74592 50.29384,-195.35132c8.58675,-21.39562 18.40019,-6.51171 49.06716,84.65224c136.16138,392.56313 89.54757,790.70773 -109.17444,941.40732c-61.33396,46.51222 -117.76119,67.90784 -213.44216,80.93126c-39.25373,5.58147 -88.3209,18.60489 -110.40112,27.90733c-90.77425,41.861 -311.57649,55.81466 -512.75185,31.62831z"/>
  </g>
</svg>