<svg width="512" height="512" xmlns="http://www.w3.org/2000/svg">
  <g id="hair">
   <path d="m164.25968,150.84762l0,-73.04217c0,-15.80346 17.013,-28.61446 38,-28.61446l0,43.20934c0,3.76431 -1.249,7.46913 -3.634,10.77786l-34.366,47.66943z" fill="#HAIR" id="svg_23" stroke="#HAIR"/>
   <path d="m349.25968,150.84762l0,-73.04217c0,-15.80346 -17.013,-28.61446 -38,-28.61446l0,43.20934c0,3.76431 1.249,7.46913 3.634,10.77786l34.366,47.66943z" fill="#HAIR" id="svg_34" stroke="#HAIR"/>
   <path d="m315.22439,107.6669l-75.37647,0c-29.04361,0 -52.58823,-14.14597 -52.58823,-31.59582l0,-24.22346l122.70588,0c14.52224,0 26.29412,7.07272 26.29412,15.79791l0,27.38304c0,6.98004 -9.41768,12.63833 -21.03529,12.63833l-0.00001,0z" fill="#HAIR" id="svg_36" stroke="#HAIR"/>
   <ellipse fill="#HAIR" stroke-width="10" cx="259" cy="62.95313" id="svg_37" rx="72.5" ry="22.5" stroke="#HAIR"/>
  </g>
</svg>