<svg width="512" height="512" xmlns="http://www.w3.org/2000/svg">
    <g id="hair">
        <path d="m163,92.36747l0,45.63253l28.30769,-42.59036s34.37363,7.30121 63.69231,7.30121s63.69231,-7.30121 63.69231,-7.30121l28.30769,42.59036l0,-45.63253c0,-30.57866 -41.18972,-55.36747 -92.00001,-55.36747c-50.81029,0 -92.00001,24.78881 -92.00001,55.36747l0.00002,0z" fill="#HAIR" id="svg_5" stroke="null"/>
        <ellipse stroke="null" fill="#HAIR" stroke-width="null" cx="255" cy="81.45313" id="svg_26" rx="43" ry="24"/>
        <path transform="rotate(-31.95555877685547 242.00000000000003,96.92166900634768) " d="m251,76.52573c-0.66666,0 -2,0 -6,0c-5.33334,0 -8.24801,-1.32454 -10.66666,4.30815c-0.76485,1.78121 -1.33334,4.30814 -1.33334,8.61629c0,2.15407 0,2.15407 0,4.30815c0,2.15407 0,2.15407 0,4.30814c0,0 0,2.15408 0,4.30815c0,2.15407 0,6.46222 0,10.77037l0,0l0,2.15407l0,2.15408" id="svg_46" stroke-width="1.5" fill="#HAIR"/>
        <path transform="rotate(-161.41018676757812 518,-146.07833862304685) " d="m530,-166.47427c-0.88888,0 -2.66666,0 -8,0c-7.11112,0 -10.99734,-1.32454 -14.22222,4.30815c-1.0198,1.78121 -1.77778,4.30814 -1.77778,8.61629c0,2.15407 0,2.15407 0,4.30815c0,2.15407 0,2.15407 0,4.30814c0,0 0,2.15408 0,4.30815c0,2.15407 0,6.46222 0,10.77037l0,0l0,2.15407l0,2.15408" id="svg_47" stroke-width="null" fill="#HAIR"/>
        <path transform="rotate(-33.69961166381836 232.99999999999997,98.92166900634767) " d="m242,78.52573c-0.66666,0 -2,0 -6,0c-5.33334,0 -8.24801,-1.32454 -10.66666,4.30815c-0.76485,1.78121 -1.33334,4.30814 -1.33334,8.61629c0,2.15407 0,2.15407 0,4.30815c0,2.15407 0,2.15407 0,4.30814c0,0 0,2.15408 0,4.30815c0,2.15407 0,6.46222 0,10.77037l0,0l0,2.15407l0,2.15408" id="svg_28" stroke-width="1.5" fill="#HAIR"/>
        <path transform="rotate(35.13572692871094 273,96.9216690063477) " d="m282,76.52573c-0.66666,0 -2,0 -6,0c-5.33334,0 -8.24801,-1.32454 -10.66666,4.30815c-0.76485,1.78121 -1.33334,4.30814 -1.33334,8.61629c0,2.15407 0,2.15407 0,4.30815c0,2.15407 0,2.15407 0,4.30814c0,0 0,2.15408 0,4.30815c0,2.15407 0,6.46222 0,10.77037l0,0l0,2.15407l0,2.15408" id="svg_30" stroke-width="1.5" fill="#HAIR"/>
        <path transform="rotate(-31.95555877685547 257,95.92166900634764) " d="m266,75.52573c-0.66666,0 -2,0 -6,0c-5.33334,0 -8.24801,-1.32454 -10.66666,4.30815c-0.76485,1.78121 -1.33334,4.30814 -1.33334,8.61629c0,2.15407 0,2.15407 0,4.30815c0,2.15407 0,2.15407 0,4.30814c0,0 0,2.15408 0,4.30815c0,2.15407 0,6.46222 0,10.77037l0,0l0,2.15407l0,2.15408" id="svg_32" stroke-width="1.5" fill="#HAIR"/>
        <path transform="rotate(21.397905349731445 285,108.92166137695318) " d="m297,88.52573c-0.88888,0 -2.66666,0 -8,0c-7.11112,0 -10.99734,-1.32454 -14.22222,4.30815c-1.0198,1.78121 -1.77778,4.30814 -1.77778,8.61629c0,2.15407 0,2.15407 0,4.30815c0,2.15407 0,2.15407 0,4.30814c0,0 0,2.15408 0,4.30815c0,2.15407 0,6.46222 0,10.77037l0,0l0,2.15407l0,2.15408" id="svg_48" stroke-width="null" fill="#HAIR" stroke="null"/>
        <ellipse fill="#HAIR" stroke="null" stroke-width="1.5" stroke-opacity="null" cx="191.5" cy="73.45313" id="svg_43" rx="23" ry="25"/>
        <ellipse fill="#HAIR" stroke="null" stroke-width="1.5" stroke-opacity="null" cx="216.5" cy="58.45313" id="svg_49" rx="23" ry="25"/>
        <ellipse fill="#HAIR" stroke="null" stroke-width="1.5" stroke-opacity="null" cx="242.5" cy="53.45313" id="svg_50" rx="23" ry="25"/>
        <ellipse fill="#HAIR" stroke="null" stroke-width="1.5" stroke-opacity="null" cx="276.5" cy="54.45313" id="svg_51" rx="23" ry="25"/>
        <ellipse fill="#HAIR" stroke="null" stroke-width="1.5" stroke-opacity="null" cx="303.5" cy="62.45313" id="svg_52" rx="23" ry="25"/>
        <ellipse fill="#HAIR" stroke="null" stroke-width="1.5" stroke-opacity="null" cx="327.5" cy="78.45313" id="svg_53" rx="23" ry="25"/>
    </g>
</svg>