<svg width="512" height="512" xmlns="http://www.w3.org/2000/svg">
  <g transform="translate(0,748) scale(0.10000000149011612,-0.10000000149011612) " fill="#HAIR" id="hair">
   <path d="m2570.19945,7196.92433c-26.84819,-5.58147 -110.21887,-13.95367 -185.11118,-18.60489c-144.13236,-10.23269 -260.0035,-32.55855 -360.33093,-68.83808c-33.91349,-12.09318 -81.95762,-25.1166 -107.39275,-28.83758c-60.76168,-9.30244 -146.9585,-38.14002 -210.54631,-70.69857c-131.41481,-67.90784 -228.91612,-286.51527 -228.91612,-515.35539c-1.41306,-87.44297 4.23918,-113.48982 38.15268,-181.39766c55.10943,-109.76884 120.11032,-274.42209 130.00175,-332.09725c5.65225,-26.97709 14.13063,-49.30295 19.78288,-49.30295c7.06531,0 18.36982,36.27953 26.84819,81.86151c25.43512,121.86201 56.5225,222.32841 80.54456,255.81721c18.36982,24.18635 40.97882,34.41904 122.93644,54.88442c56.5225,13.95367 138.48012,40.00051 185.11118,58.6054c73.47925,28.83758 93.26213,32.55855 183.69812,32.55855c185.11118,0 346.2003,40.93075 515.76781,131.16446l86.19681,45.58197l0,-30.69806c0,-34.41904 -42.39188,-92.09419 -97.50131,-131.16446c-40.97882,-28.83758 -45.218,-27.90733 59.34862,-9.30244c98.91438,18.60489 168.15443,81.86151 223.26386,207.4445c21.19594,48.37271 49.45719,93.95468 62.17474,102.32688c21.19594,13.95367 24.02206,13.02342 42.39188,-2.79073c49.45719,-42.79124 72.06619,-260.46843 36.73962,-359.07433c-7.06531,-22.32587 -11.30449,-42.79124 -7.06531,-45.58197c14.13063,-10.23269 118.69724,77.21028 145.54544,121.86201l28.26125,49.30295l0,-62.32637c1.41306,-33.4888 -11.30449,-117.21079 -26.84819,-186.04888c-28.26125,-122.79226 -35.32656,-269.77087 -15.54369,-314.4226c9.89143,-21.39562 11.30449,-22.32587 19.78288,-4.65122c5.65225,10.23269 22.609,60.46589 38.15268,110.69908c15.54369,50.2332 56.5225,150.69959 91.84905,222.32841c69.24007,141.39715 96.08825,236.28207 84.78374,297.6782c-32.50043,163.72301 -69.24007,318.14358 -87.60987,368.37678c-35.32656,93.02444 -122.93644,146.97861 -286.85168,178.60692c-35.32656,6.51171 -84.78374,23.25611 -108.80581,37.20978c-25.43512,14.88391 -79.1315,32.55855 -120.11032,40.93075c-90.43599,18.60489 -310.87375,26.04684 -378.70074,13.95367l0.00003,-0.00002z" id="svg_25"/>
  </g>
</svg>