<svg width="512" height="512" xmlns="http://www.w3.org/2000/svg">
    <g>
        <title>background</title>
        <rect x="-1" y="-1" width="514" height="514" id="canvas_background" fill="none"/>
    </g>

    <g>
        <title>Layer 1</title>
        <ellipse stroke="null" ry="70.5" rx="98" id="svg_35" cy="84.95312" cx="257" stroke-width="4" fill="#a8890d"/>
        <g id="svg_1">
            <g id="svg_2">
                <path d="m258.04762,307.84762l44,0l98.846,21.665c27.533,6.035 47.154,30.421 47.154,58.609l0,85.726l-66,0l0,33l-124,0l-124,0l0,-33l-66,0l0,-85.726c0,-28.187 19.621,-52.574 47.154,-58.609l98.846,-21.665l44,0z" fill="#ffffff" id="svg_3"/>
            </g>
            <g id="svg_6">
                <path d="m400.89362,329.51262l-98.846,-21.665l-44,0l-44,0l-98.846,21.665c-27.533,6.035 -47.154,30.421 -47.154,58.609l0,65.726l20,0l0,-65.726c0,-18.648 13.221,-35.08 31.436,-39.073l96.73,-21.201l83.668,0l96.73,21.201c18.215,3.992 31.436,20.425 31.436,39.073l0,65.726l20,0l0,-65.726c0,-28.188 -19.621,-52.574 -47.154,-58.609z" fill="#ffffff" id="svg_7"/>
            </g>
            <g id="svg_8">
                <path d="m134.04762,506.84762l-66,0l0,-33l66,0l0,33z" fill="#ffd3b3" id="svg_9"/>
            </g>
            <g id="svg_12">
                <path d="m382.04762,473.84762l66,0l0,33l-66,0l0,-33z" fill="#ffd3b3" id="svg_13"/>
            </g>
            <g id="svg_10">
                <!-- Left Sleeve -->
                <path id="svg_11" fill="#0000ff" d="m134.04762,473.84762l-66,0l0,-20l66,0l0,20z"/>
            </g>
            <g stroke="null" id="svg_16">
                <path stroke="null" d="m214.04762,271.84762l0,27.45c0,18.52951 19.699,33.55 44,33.55s44,-15.02049 44,-33.55l0,-27.45l-88,0z" fill="#ffd3b3" id="svg_17"/>
            </g>
            <g id="svg_18">
                <path d="m214.04762,290.03562c13.499,5.851 28.376,9.812 44,9.812s30.501,-3.961 44,-9.812l0,-18.188l-88,0l0,18.188z" fill="#fcb98b" id="svg_19"/>
            </g>
            <g id="svg_20">
                <path d="m349.04762,94.84762l0,98c0,50.258 -40.742,91 -91,91c-50.258,0 -91,-40.742 -91,-91l0,-98l182,0z" fill="#ffd3b3" id="svg_21"/>
            </g>
            <g id="svg_24">
                <path d="m153.04762,180.84762l14,0l0,-50l-14,0c-5.523,0 -10,4.477 -10,10l0,30c0,5.523 4.477,10 10,10z" fill="#ffd3b3" id="svg_25"/>
            </g>
            <g id="svg_26">
                <path d="m363.04762,180.84762l-14,0l0,-50l14,0c5.523,0 10,4.477 10,10l0,30c0,5.523 -4.477,10 -10,10z" fill="#ffd3b3" id="svg_27"/>
            </g>
            <g id="svg_28">
                <!-- Right Sleeve -->
                <path d="m382.04762,453.84762l66,0l0,20l-66,0l0,-20z" fill="#0000ff" id="svg_29"/>
            </g>
        </g>
        <g id="svg_25">
            <title>Simple Collar</title>
            <g id="svg_26">
                <path id="svg_27" fill="#0000ff" d="m256,346l-30,30l-31.996,-70.056l17.996,-11.944l44,52z"/>
            </g>
            <g id="svg_28">
                <path id="svg_33" fill="#0000ff" d="m256,346l30,30l31.996,-70.056l-17.996,-11.944l-44,52z"/>
            </g>
            <path stroke="null" id="svg_45" d="m270.24949,331.38423l-5.03707,19.92873l-17.83192,0.12724l-5.66208,-19.85239l28.53106,-0.20358l0.00001,0z" stroke-width="20.5" fill="#007f00"/>
        </g>
        <g id="svg_44">
            <title>Stripes</title>
            <rect id="svg_30" height="19" width="242" y="402.85313" x="139.2" stroke-width="20.5" fill="#0000ff"/>
            <rect id="svg_32" height="19" width="242" y="466.85313" x="137.2" stroke-width="20.5" fill="#007f00"/>
        </g>
        <g id="svg_47">
            <title>Sponsor</title>
            <text fill="#007f00" stroke-width="0" stroke-opacity="null" x="184.2" y="456.85312" id="svg_31" font-size="39" font-family="Helvetica, Arial, sans-serif" text-anchor="start" xml:space="preserve" font-weight="bold">WIRRAL</text>
        </g>
        <g stroke="null" id="svg_4">
            <title>Simple Hair</title>
            <path stroke="null" d="m164,97.43373l0,41.56627l28.61538,-38.79518s34.74725,6.6506 64.38462,6.6506s64.38462,-6.6506 64.38462,-6.6506l28.61538,38.79518l0,-41.56627c0,-27.85384 -41.63743,-50.43375 -93,-50.43375c-51.36257,0 -93,22.57991 -93,50.43375z" fill="#a8890d" id="svg_5"/>
            <path transform="rotate(17.53034019470215 318.893096923828,82.08505249023439) " d="m308,79c0,0 -0.90211,0.82443 1,2c0.85065,0.52573 1.85273,1.1731 3,2c1.81399,1.30745 2.69344,1.4588 4,2c0.92388,0.38269 3,0 4,0c1,0 3,0 5,0c1,0 2.45881,-0.69344 3,-2c0.38268,-0.92387 1,-2 1,-2c0,-1 1,-1 1,-2l0,0" id="svg_14" stroke-width="4" stroke="#8e740c" fill="none"/>
            <path transform="rotate(17.53034019470215 179.89311218261713,89.08505249023439) " d="m169,86c0,0 -0.90211,0.82443 1,2c0.85065,0.52573 1.85273,1.1731 3,2c1.81399,1.30745 2.69344,1.4588 4,2c0.92388,0.38269 3,0 4,0c1,0 3,0 5,0c1,0 2.45881,-0.69344 3,-2c0.38268,-0.92387 1,-2 1,-2c0,-1 1,-1 1,-2l0,0" id="svg_22" stroke-width="4" stroke="#8e740c" fill="none"/>
            <path transform="rotate(17.53034019470215 258.89309692382824,79.08505249023429) " d="m248,76c0,0 -0.90211,0.82443 1,2c0.85065,0.52573 1.85273,1.1731 3,2c1.81399,1.30745 2.69344,1.4588 4,2c0.92388,0.38269 3,0 4,0c1,0 3,0 5,0c1,0 2.45881,-0.69344 3,-2c0.38268,-0.92387 1,-2 1,-2c0,-1 1,-1 1,-2l0,0" id="svg_34" stroke-width="4" stroke="#8e740c" fill="none"/>
            <path stroke="#8e740c" transform="rotate(17.53034019470215 210.05953979492188,44.55820465087898) " d="m204.13786,41.47317c0,0 -0.4904,0.82443 0.54362,2c0.46243,0.52573 1.00717,1.1731 1.63085,2c0.98612,1.30745 1.4642,1.4588 2.17447,2c0.50224,0.38269 1.63085,0 2.17447,0c0.54362,0 1.63085,0 2.71808,0c0.54362,0 1.33665,-0.69344 1.63085,-2c0.20803,-0.92387 0.54362,-2 0.54362,-2c0,-1 0.54362,-1 0.54362,-2l0,0" id="svg_36" stroke-width="4" fill="none"/>
            <path transform="rotate(17.53034019470215 216.8931121826173,72.08505249023435) " d="m206,69c0,0 -0.90211,0.82443 1,2c0.85065,0.52573 1.85273,1.1731 3,2c1.81399,1.30745 2.69344,1.4588 4,2c0.92388,0.38269 3,0 4,0c1,0 3,0 5,0c1,0 2.45881,-0.69344 3,-2c0.38268,-0.92387 1,-2 1,-2c0,-1 1,-1 1,-2l0,0" id="svg_37" stroke-width="4" stroke="#8e740c" fill="none"/>
            <path stroke="#8e740c" transform="rotate(50.52988815307617 287.5758056640625,54.08953094482424) " d="m276.68271,52.0579c0,0 -0.90211,0.54292 1,1.31709c0.85065,0.34622 1.85273,0.77254 3,1.31709c1.81399,0.86101 2.69344,0.96068 4,1.31709c0.92388,0.25202 3,0 4,0c1,0 3,0 5,0c1,0 2.45881,-0.45666 3,-1.31709c0.38268,-0.60841 1,-1.31709 1,-1.31709c0,-0.65854 1,-0.65854 1,-1.31709l0,0" id="svg_48" stroke-width="4" fill="none"/>
            <ellipse ry="8.5" rx="9" id="svg_54" cy="84.5" cx="163" stroke-width="4" stroke="null" fill="#a8890d"/>
            <ellipse ry="8.5" rx="9" id="svg_55" cy="52.5" cx="175" stroke-width="4" stroke="null" fill="#a8890d"/>
            <ellipse ry="8.5" rx="9" id="svg_56" cy="27.5" cx="214" stroke-width="4" stroke="null" fill="#a8890d"/>
            <ellipse ry="8.5" rx="9" id="svg_57" cy="102.5" cx="346" stroke-width="4" stroke="null" fill="#a8890d"/>
            <ellipse ry="8.5" rx="9" id="svg_58" cy="70.5" cx="165" stroke-width="4" stroke="null" fill="#a8890d"/>
            <ellipse ry="8.5" rx="9" id="svg_59" cy="103.5" cx="165" stroke-width="4" stroke="null" fill="#a8890d"/>
            <ellipse ry="8.5" rx="9" id="svg_60" cy="85.5" cx="349" stroke-width="4" stroke="null" fill="#a8890d"/>
            <ellipse ry="8.5" rx="9" id="svg_61" cy="38.5" cx="193" stroke-width="4" stroke="null" fill="#a8890d"/>
            <ellipse ry="8.5" rx="9" id="svg_62" cy="73.5" cx="351" stroke-width="4" stroke="null" fill="#a8890d"/>
            <ellipse ry="8.5" rx="9" id="svg_63" cy="113.5" cx="350" stroke-width="4" stroke="null" fill="#a8890d"/>
            <ellipse ry="8.5" rx="9" id="svg_64" cy="96.5" cx="353" stroke-width="4" stroke="null" fill="#a8890d"/>
            <ellipse ry="8.5" rx="9" id="svg_65" cy="23.5" cx="229" stroke-width="4" stroke="null" fill="#a8890d"/>
            <ellipse ry="8.5" rx="9" id="svg_66" cy="38.5" cx="324" stroke-width="4" stroke="null" fill="#a8890d"/>
            <ellipse ry="8.5" rx="9" id="svg_67" cy="52.5" cx="339" stroke-width="4" stroke="null" fill="#a8890d"/>
            <ellipse ry="8.5" rx="9" id="svg_68" cy="30.5" cx="309" stroke-width="4" stroke="null" fill="#a8890d"/>
            <ellipse ry="8.5" rx="9" id="svg_69" cy="18.5" cx="255" stroke-width="4" stroke="null" fill="#a8890d"/>
            <ellipse ry="8.5" rx="9" id="svg_70" cy="19.5" cx="284" stroke-width="4" stroke="null" fill="#a8890d"/>
            <path stroke="#8e740c" transform="rotate(17.53034019470215 184.7106628417969,59.079765319824226) " d="m177.09077,55.99472c0,0 -0.63104,0.82443 0.69952,2c0.59504,0.52573 1.29601,1.1731 2.09855,2c1.26891,1.30745 1.8841,1.4588 2.79806,2c0.64627,0.38269 2.09855,0 2.79806,0c0.69952,0 2.09855,0 3.49758,0c0.69952,0 1.71997,-0.69344 2.09855,-2c0.26769,-0.92387 0.69952,-2 0.69952,-2c0,-1 0.69952,-1 0.69952,-2l0,0" id="svg_71" stroke-width="4" fill="none"/>
            <path transform="rotate(-27.600526809692383 251.8931121826172,48.085044860839794) " d="m241,45c0,0 -0.90211,0.82443 1,2c0.85065,0.52573 1.85273,1.1731 3,2c1.81399,1.30745 2.69344,1.4588 4,2c0.92388,0.38269 3,0 4,0c1,0 3,0 5,0c1,0 2.45881,-0.69344 3,-2c0.38268,-0.92387 1,-2 1,-2c0,-1 1,-1 1,-2l0,0" id="svg_72" stroke-width="4" stroke="#8e740c" fill="none"/>

        </g>
        <g stroke="null" id="svg_46">
            <g stroke="null" id="svg_49" transform="matrix(0.22145502029027803,0,0,-0.32480431753741107,61.818739155659685,350.7354108093955) ">
                <g stroke="null" id="svg_50">
                    <g stroke="null" id="svg_51">
                        <path id="svg_52" fill="#0000ff" fill-rule="nonzero" d="m483.2069,-77.31691c-5.469,0 -10.354,-2.49 -13.588,-6.398l-37.212,-44.878l21.115,0l28.229,34.022c2.119,2.523 5.286,4.131 8.855,4.131l7.447,0l-31.506,-38.153l22.646,0c5.282,0 9.522,4.279 9.522,9.555l0,41.721l-15.508,0z"/>
                    </g>
                    <g stroke="null" id="svg_53">
                        <path fill="#0000ff" fill-rule="nonzero" d="m435.40029,-83.71531l-37.204,-44.878l21.1,0l28.227,34.023c2.121,2.522 5.3,4.13 8.847,4.13l7.682,0l0,13.123l-15.073,0c-5.463,0 -10.358,-2.49 -13.579,-6.398" id="path3384"/>
                    </g>
                </g>
            </g>
        </g>
        <g id="svg_107" stroke="null">
            <g id="svg_77" transform="matrix(0.8713370418683226,0,0,0.6711841559453615,-1739.060372279746,-1277.9081643364625) " stroke="null">
                <title>Crest</title>
                <g id="svg_78" fill="#000000" transform="translate(0,769) scale(0.10000000149011612,-0.10000000149011612) " stroke="null">
                    <path fill="#ff0000" id="svg_105" d="m24087.06748,-16781.79914c0,-2.34097 2.3632,-10.72942 3.98013,-14.04579c1.86569,-3.83658 5.59706,-7.73819 9.51501,-9.9491c3.10948,-1.82075 11.25632,-4.42182 13.68171,-4.42182c0.80846,0 1.43036,-0.26011 1.43036,-0.52021c0,-0.71529 -5.65925,-2.08086 -8.64435,-2.08086c-3.48262,0 -8.58216,2.92621 -10.82099,6.24257c-1.86569,2.73113 -1.92788,2.79615 -3.10948,1.6907c-2.3632,-2.21091 -2.86072,-4.16172 -2.79853,-11.89991c0,-5.46225 -0.24876,-8.06332 -0.99503,-9.81905c-0.80846,-1.88578 -0.93284,-3.96664 -0.74628,-10.14418l0.24876,-7.73819l-5.65925,1.49562c-5.47268,1.43059 -14.17923,4.81198 -15.60959,6.04749c-0.37314,0.32513 -5.16174,2.92621 -10.63442,5.78739c-14.30361,7.47808 -20.336,9.23381 -31.21917,9.23381c-10.94537,0 -19.15439,-2.6661 -34.76398,-11.31466c-10.94537,-6.04749 -14.86331,-7.80322 -21.45541,-9.49391c-2.86072,-0.78032 -5.53487,-1.49562 -5.90801,-1.62567c-0.49752,-0.13005 -0.6219,2.14588 -0.43533,7.86824c0.18657,6.50268 0,8.45348 -0.80846,10.07916c-0.74628,1.49562 -0.99503,3.90161 -0.99503,9.55894c0,7.67316 -0.31095,9.03873 -2.54977,11.6398l-1.24379,1.43059l-1.74131,-2.53605c-2.30101,-3.31637 -7.52494,-6.50268 -10.82099,-6.50268c-2.79853,0 -9.01749,1.36556 -9.01749,2.01583c0,0.19508 1.1816,0.58524 2.67415,0.78032c4.72641,0.71529 10.69661,2.99123 14.49017,5.52728c5.78363,3.90161 9.88814,11.44472 11.13194,20.48344c0.37314,2.53605 0.31095,3.05626 -0.55971,3.05626c-0.55971,0 -0.99503,-0.39016 -0.99503,-0.78032c0,-1.88578 -3.17167,-7.80322 -5.65925,-10.59937c-4.72641,-5.3322 -10.07471,-7.67316 -23.13453,-10.07916c-4.04232,-0.78032 -8.45778,-1.82075 -9.82595,-2.27594c-4.04232,-1.49562 -9.5772,-4.81198 -11.44288,-6.82781l-1.61693,-1.75572l1.67912,-1.43059c0.93284,-0.71529 2.3632,-1.43059 3.29605,-1.43059c3.35824,-0.19508 3.48262,-0.26011 3.29605,-1.6907c-0.31095,-2.34097 1.05722,-6.63273 2.3632,-7.34803c0.68409,-0.39016 1.24379,-1.23551 1.24379,-1.9508c0,-0.65027 0.55971,-1.62567 1.30598,-2.14588c1.30598,-0.9754 1.30598,-0.9754 -0.6219,-3.70653c-1.43036,-2.08086 -1.92788,-3.51145 -1.92788,-5.46225c0,-4.03166 0.68409,-4.6169 2.61196,-2.08086l1.67912,2.14588l-1.55474,0.71529c-1.43036,0.71529 -2.17664,3.38139 -0.87065,3.38139c1.43036,0 5.47268,-4.74696 7.08961,-8.32343l1.8035,-3.90161l-1.86569,-2.53605c-3.98013,-5.20214 -6.40553,-12.6152 -6.40553,-19.31296l0,-3.6415l-3.10948,1.62567c-1.67912,0.91038 -4.91298,3.38139 -7.1518,5.59231c-2.23883,2.21091 -4.04232,3.6415 -4.04232,3.18631c0,-0.39016 -1.43036,-2.21091 -3.17167,-3.96664c-2.73634,-2.73113 -3.17167,-3.51145 -2.92291,-5.13712c0.37314,-2.47102 -0.12438,-2.47102 -2.48758,0.06503c-2.3632,2.53605 -3.66919,5.3322 -4.22889,8.9737l-0.43533,2.73113l-1.1816,-2.79615c-2.23883,-5.26717 -5.41049,-7.67316 -10.07471,-7.67316c-2.42539,0 -3.23386,-0.39016 -5.41049,-2.40599c-1.36817,-1.30054 -2.92291,-3.18631 -3.42043,-4.22674c-1.05722,-2.08086 -1.86569,-2.34097 -2.30101,-0.65027c-0.18657,0.58524 -0.37314,0.06503 -0.43533,-1.17048c-0.18657,-3.31637 0.06219,-5.85241 0.68409,-7.67316c0.6219,-1.62567 0.6219,-1.56064 2.3632,1.23551c2.73634,4.55188 5.28611,6.43765 8.51997,6.43765c4.53984,0 7.52494,2.27594 10.01252,7.41306l1.24379,2.53605l0.31095,-2.01583c0.18657,-1.62567 -0.18657,-2.73113 -1.67912,-5.00706c-1.99007,-2.92621 -4.1667,-7.67316 -6.21896,-13.65563c-0.80846,-2.40599 -2.3632,-4.48685 -5.9702,-8.2584l-4.91298,-5.00706l0,-4.16172c0,-4.55188 -1.67912,-11.18461 -3.66919,-14.566c-1.24379,-2.01583 -1.24379,-2.08086 0,-3.6415c1.43036,-2.01583 1.49255,-2.6661 0.18657,-4.94204c-0.99503,-1.82075 -0.99503,-1.88578 2.17664,-6.69776c3.17167,-4.94204 7.64932,-14.24087 8.45778,-17.62226c0.43533,-1.6907 0.55971,-1.75572 1.55474,-0.78032c1.05722,0.9754 1.11941,0.78032 1.86569,-3.31637l0.80846,-4.3568l0.99503,2.21091c2.05226,4.29177 3.42043,5.91744 6.71648,7.86824c1.86569,1.10546 3.98013,2.86118 4.72641,3.83658l1.30598,1.88578l1.11941,-3.90161c1.1816,-3.96664 1.1816,-3.96664 -0.37314,-12.74525c-0.87065,-4.87701 -1.74131,-11.6398 -1.92788,-15.08622c-0.31095,-6.95787 -0.31095,-6.95787 2.23883,7.67316c0.74628,4.09669 1.36817,7.54311 1.43036,7.60814c0.12438,0.13005 1.05722,-1.23551 2.11445,-2.92621c2.54977,-4.16172 6.65429,-8.06332 10.63442,-10.20921l3.17167,-1.62567l0,-23.99489l0,-23.99489l-1.86569,-0.45519c-1.43036,-0.32513 -2.30101,-0.06503 -4.04232,1.43059c-1.1816,0.9754 -2.17664,2.21091 -2.17664,2.6661c0,0.58524 -0.55971,0.52021 -1.99007,-0.32513c-2.30101,-1.23551 -9.14187,-1.56064 -13.05981,-0.58524l-2.3632,0.52021l0,-4.29177c0,-3.38139 0.18657,-4.29177 0.93284,-4.29177c0.74628,0 0.93284,-1.23551 0.93284,-7.21798c0,-7.08792 0,-7.21798 -1.8035,-9.10375c-2.05226,-2.14588 -3.73138,-2.34097 -5.9702,-0.84535c-1.67912,1.10546 -1.99007,2.79615 -0.93284,4.81198c0.6219,1.23551 0.74628,1.17048 2.54977,-0.52021c1.05722,-0.9754 2.42539,-1.9508 3.10948,-2.21091c1.05722,-0.45519 1.1816,-0.13005 1.1816,3.05626c0,1.88578 0.18657,3.96664 0.37314,4.55188c0.24876,0.58524 0.18657,0.9754 -0.12438,0.91038c-1.30598,-0.26011 -2.23883,0.19508 -4.29108,2.08086c-3.10948,2.86118 -5.09955,6.69776 -6.40553,12.35509l-1.1816,4.81198l-0.37314,-3.57647c-0.24876,-2.01583 -0.87065,-5.00706 -1.43036,-6.69776c-0.87065,-2.60107 -1.11941,-2.99123 -1.92788,-2.27594c-1.24379,1.10546 -3.91794,6.69776 -3.91794,8.32343c0,0.71529 -0.31095,1.30054 -0.68409,1.30054c-0.49752,0 -0.55971,-1.30054 -0.24876,-4.29177c0.6219,-6.11252 1.92788,-10.40429 3.98013,-12.81028l1.8035,-2.01583l1.30598,4.42182c0.74628,2.40599 1.30598,5.20214 1.36817,6.17755c0,1.10546 0.49752,0.13005 1.49255,-2.86118c0.74628,-2.47102 1.61693,-5.07209 1.86569,-5.65733c0.31095,-0.84535 -0.06219,-1.23551 -2.11445,-1.82075c-3.10948,-0.84535 -6.21896,-3.51145 -7.27618,-6.3076c-1.05722,-2.60107 -1.1816,-15.93157 -0.18657,-19.11788c1.43036,-4.3568 5.90801,-7.93327 11.06975,-8.77862c2.30101,-0.39016 2.54977,-0.58524 2.61196,-2.47102c0.55971,-15.67146 1.99007,-21.84901 6.84085,-29.71725l2.05226,-3.38139l1.05722,2.60107c1.92788,4.74696 8.70654,9.29883 13.7439,9.29883c1.55474,0 1.74131,0.19508 1.43036,1.30054c-0.6219,2.08086 -0.49752,6.76279 0.18657,7.0229c0.37314,0.13005 0.55971,0.58524 0.37314,1.10546c-0.18657,0.45519 0.6219,2.01583 1.86569,3.38139l2.17664,2.47102l0.06219,-4.29177c0,-9.68899 2.73634,-28.09158 5.3483,-36.67512c2.11445,-6.82781 5.3483,-12.16001 11.13194,-18.27253c9.76377,-10.27424 18.96782,-16.32173 33.83114,-22.10911c7.71151,-2.99123 7.83589,-3.18631 1.43036,-2.21091c-2.30101,0.32513 -9.70158,0.91038 -16.48024,1.30054c-8.3334,0.45519 -12.87324,0.9754 -13.99266,1.56064c-1.92788,1.10546 -4.1667,3.90161 -6.65429,8.51851c-2.61196,4.74696 -5.72144,8.64857 -7.96027,9.88407c-2.42539,1.30054 -9.45282,1.36556 -12.06478,0.06503c-1.05722,-0.52021 -2.3632,-2.14588 -3.42043,-4.3568c-1.61693,-3.31637 -1.74131,-4.03166 -1.74131,-12.09499l0,-8.51851l-2.48758,-4.3568l-2.54977,-4.42182l1.36817,-2.53605c1.36817,-2.53605 1.36817,-2.60107 0.24876,-3.90161c-1.11941,-1.23551 -1.11941,-1.43059 -0.12438,-3.6415c1.74131,-3.70653 6.40553,-8.45348 10.01252,-10.07916c3.29605,-1.56064 3.29605,-1.56064 4.22889,-5.78739c1.8035,-7.9983 4.72641,-14.3059 8.58216,-18.33756c5.41049,-5.65733 9.14187,-5.78739 16.85338,-0.52021c2.05226,1.36556 4.60203,2.73113 5.72144,2.92621c4.04232,0.84535 7.7737,2.34097 8.83092,3.57647c1.05722,1.23551 1.05722,1.43059 0.06219,4.03166c-0.99503,2.73113 -0.99503,2.86118 0.24876,3.90161c0.93284,0.78032 1.11941,1.49562 0.87065,2.99123l-0.37314,1.9508l3.91794,-0.9754c9.82595,-2.34097 22.26387,-7.283 34.20427,-13.5906c11.62945,-6.04749 21.76636,-8.2584 31.21917,-6.76279c6.34334,0.9754 11.38069,2.86118 21.57979,7.9983c13.18419,6.63273 25.55992,11.31466 33.14705,12.6152c2.3632,0.39016 2.48758,0.32513 2.11445,-1.17048c-0.24876,-1.04043 0,-1.9508 0.80846,-2.86118c1.11941,-1.23551 1.11941,-1.49562 0.24876,-4.09669c-0.49752,-1.56064 -0.74628,-3.12129 -0.55971,-3.44642c0.6219,-1.04043 4.7886,-2.99123 8.08465,-3.77155c1.74131,-0.45519 5.16174,-2.08086 7.71151,-3.6415c2.54977,-1.62567 5.59706,-3.12129 6.77867,-3.31637c7.08961,-1.43059 13.80609,6.56771 17.72403,21.13371l1.49255,5.39722l3.54481,2.01583c3.85575,2.14588 9.45282,8.06332 10.07471,10.53434c0.18657,0.91038 0,2.14588 -0.6219,2.99123c-0.87065,1.30054 -0.80846,1.62567 0.31095,3.96664l1.24379,2.53605l-2.3632,4.03166l-2.3632,4.03166l-0.06219,7.80322c-0.06219,8.84365 -0.43533,11.31466 -2.3632,14.76109c-1.61693,3.05626 -3.66919,3.96664 -9.01749,4.03166c-3.66919,0 -4.66422,-0.26011 -6.90304,-1.82075c-1.49255,-1.04043 -3.54481,-3.38139 -4.85079,-5.65733c-4.22889,-7.08792 -7.58713,-11.70483 -9.14187,-12.29007c-0.87065,-0.32513 -8.3334,-1.04043 -16.66681,-1.62567c-8.27122,-0.52021 -15.85834,-1.17048 -16.91557,-1.36556c-3.17167,-0.71529 -1.55474,0.19508 5.28611,2.86118c14.55236,5.72236 23.56985,11.6398 33.27143,21.84901c8.39559,8.84365 10.69661,13.85071 13.68171,29.26206c1.99007,10.46932 2.79853,17.68729 2.79853,24.38505l0,5.52728l1.86569,-1.88578c1.86569,-1.88578 3.98013,-7.21798 3.48262,-8.84365c-0.12438,-0.52021 -0.43533,-1.6907 -0.6219,-2.6661c-0.37314,-1.6907 -0.24876,-1.82075 1.43036,-1.82075c1.05722,0 3.42043,-0.58524 5.28611,-1.30054c3.73138,-1.49562 8.14684,-5.85241 8.83092,-8.84365l0.43533,-1.75572l1.1816,1.56064c1.99007,2.6661 4.66422,8.58354 6.03239,13.26547c1.36817,4.81198 1.8035,8.84365 1.86569,16.12665c0.06219,3.90161 0.18657,4.3568 1.30598,4.3568c1.86569,0 6.90304,1.9508 8.83092,3.44642c3.35824,2.60107 4.22889,5.72236 4.22889,15.02119c0,7.283 -0.18657,8.64857 -1.30598,10.79445c-1.24379,2.34097 -5.03736,5.20214 -6.84085,5.20214c-2.11445,0.06503 -2.61196,1.04043 -1.55474,3.12129c0.55971,1.10546 1.30598,3.57647 1.74131,5.46225l0.68409,3.44642l0.74628,-3.57647c0.37314,-1.9508 1.05722,-4.68193 1.49255,-6.04749c0.80846,-2.47102 0.80846,-2.47102 2.05226,-1.30054c2.79853,2.6661 5.22393,11.18461 4.72641,16.51681c-0.18657,2.14588 -0.24876,2.14588 -1.24379,-1.36556c-0.6219,-1.9508 -1.86569,-4.6169 -2.86072,-5.85241l-1.8035,-2.21091l-1.05722,3.6415c-0.55971,2.01583 -1.1816,5.07209 -1.43036,6.69776l-0.37314,3.05626l-1.11941,-4.55188c-1.8035,-7.54311 -4.85079,-12.35509 -8.89311,-14.11082c-1.92788,-0.84535 -1.92788,-0.91038 -1.74131,-5.07209c0.24876,-4.81198 0.93284,-5.07209 4.35327,-1.75572c2.11445,2.01583 3.23386,1.56064 3.23386,-1.36556c0,-1.9508 -2.17664,-3.83658 -4.35327,-3.83658c-0.74628,0 -2.17664,0.84535 -3.17167,1.88578c-1.8035,1.88578 -1.8035,2.01583 -1.8035,9.10375c0,5.98247 0.18657,7.21798 0.93284,7.21798c0.74628,0 0.93284,0.91038 0.93284,4.29177l0,4.3568l-1.99007,-0.58524c-1.11941,-0.32513 -4.1667,-0.58524 -6.71648,-0.58524c-3.66919,0 -5.16174,0.32513 -6.90304,1.36556c-2.05226,1.30054 -2.23883,1.30054 -1.99007,0.26011c0.49752,-1.88578 -3.48262,-4.68193 -5.9702,-4.16172l-1.92788,0.45519l0,23.92986l0,23.99489l3.17167,1.6907c3.98013,2.08086 8.89311,6.76279 11.00756,10.59937l1.61693,2.92621l0.55971,-2.14588c0.24876,-1.17048 1.1816,-6.11252 2.05226,-10.98953l1.49255,-8.90867l-0.31095,6.50268c-0.12438,3.57647 -0.99503,10.33926 -1.86569,15.02119c-1.43036,7.93327 -1.49255,8.71359 -0.6219,11.31466c0.49752,1.49562 0.93284,3.31637 0.93284,4.03166c0,1.04043 0.37314,0.84535 2.3632,-1.17048c1.24379,-1.30054 3.66919,-3.31637 5.41049,-4.42182c2.30101,-1.49562 3.48262,-2.92621 4.72641,-5.52728l1.67912,-3.51145l0.74628,3.83658c0.43533,2.14588 0.87065,4.03166 0.99503,4.29177c0.18657,0.26011 1.30598,-0.65027 2.61196,-2.01583c1.24379,-1.30054 1.61693,-1.62567 0.87065,-0.65027c-1.11941,1.30054 -1.36817,2.14588 -1.05722,3.31637c1.1816,3.90161 5.03736,11.6398 8.20903,16.64686l3.48262,5.46225l-1.05722,2.34097c-1.05722,2.21091 -0.99503,2.34097 0.12438,4.03166l1.24379,1.75572l-1.74131,3.83658c-2.05226,4.48685 -3.10948,9.36386 -3.10948,14.11082c0,3.44642 0,3.44642 -4.22889,7.34803c-4.47765,4.22674 -5.22393,5.52728 -8.20903,13.46055c-0.99503,2.79615 -2.86072,6.63273 -4.04232,8.51851c-1.43036,2.27594 -2.17664,4.16172 -2.17664,5.65733l0.06219,2.21091l1.30598,-2.60107c2.61196,-5.26717 5.53487,-7.47808 10.07471,-7.47808c2.42539,0 3.23386,-0.39016 5.3483,-2.34097c1.36817,-1.30054 3.04729,-3.31637 3.79356,-4.55188c0.74628,-1.30054 1.43036,-2.14588 1.55474,-2.01583c0.74628,0.78032 1.43036,7.54311 0.93284,9.23381c-0.31095,1.10546 -0.6219,1.43059 -0.6219,0.84535c-0.06219,-1.6907 -0.87065,-1.43059 -2.11445,0.71529c-0.55971,0.9754 -2.17664,2.92621 -3.54481,4.22674c-2.11445,1.9508 -2.92291,2.34097 -5.3483,2.34097c-1.55474,0 -3.607,0.45519 -4.60203,0.9754c-2.17664,1.17048 -4.66422,4.48685 -5.72144,7.54311l-0.74628,2.21091l-0.49752,-2.86118c-0.68409,-4.03166 -2.79853,-8.2584 -4.91298,-9.88407l-1.8035,-1.30054l0,2.08086c0,1.62567 -0.6219,2.6661 -2.73634,4.74696c-1.43036,1.49562 -2.86072,3.25134 -3.10948,3.90161c-0.37314,1.10546 -0.80846,0.84535 -3.98013,-2.34097c-3.10948,-3.18631 -9.14187,-7.67316 -10.32347,-7.67316c-0.18657,0 -0.37314,1.88578 -0.37314,4.16172c0,6.76279 -2.9851,15.08622 -7.08961,19.76815l-1.30598,1.49562l2.11445,4.16172c1.92788,3.90161 4.97517,7.54311 7.02742,8.2584c0.6219,0.26011 0.43533,0.78032 -0.6219,1.9508l-1.43036,1.6907l1.55474,1.62567c0.87065,0.9754 1.61693,2.14588 1.61693,2.73113c0,0.52021 0.31095,0.9754 0.68409,0.9754c0.93284,0 2.42539,4.09669 2.42539,6.69776c0,2.01583 0.12438,2.14588 2.23883,2.21091c2.48758,0.06503 4.91298,1.62567 6.34334,4.09669c0.80846,1.43059 0.74628,1.49562 -0.06219,0.45519c-0.80846,-1.04043 -0.93284,-1.04043 -1.74131,0c-1.43036,1.75572 -6.84085,5.07209 -10.69661,6.56771c-1.92788,0.78032 -6.84085,2.01583 -10.88318,2.73113c-13.05981,2.40599 -18.34593,4.74696 -23.13453,10.14418c-2.3632,2.73113 -5.59706,8.64857 -5.59706,10.40429c0,0.45519 -0.43533,0.91038 -0.93284,1.17048c-0.68409,0.26011 -0.93284,-0.06503 -0.93284,-1.10546l0.00005,-0.00005zm-53.1721,-52.41161c1.86569,-0.45519 1.86569,-0.45519 -1.61693,-2.14588c-4.10451,-1.9508 -8.20903,-5.59231 -9.26625,-8.2584c-0.80846,-2.08086 -2.48758,-2.6661 -7.58713,-2.6661c-4.91298,0 -9.01749,2.53605 -10.1369,6.37263c-0.37314,1.30054 0,1.6907 3.54481,3.38139c2.17664,1.04043 5.47268,2.34097 7.33837,2.86118c3.48262,0.9754 14.30361,1.23551 17.72403,0.45519l0,-0.00001zm10.1369,-3.96664c3.607,-1.88578 6.21896,-3.90161 9.45282,-7.283c5.16174,-5.39722 5.16174,-5.46225 -1.74131,-7.67316c-5.28611,-1.75572 -12.43792,-1.6907 -17.59965,0c-4.35327,1.43059 -9.76377,4.68193 -10.32347,6.17755c-0.43533,1.23551 2.23883,4.87701 5.16174,7.283c1.99007,1.56064 7.58713,4.03166 9.32844,4.09669c0.43533,0 2.9851,-1.17048 5.72144,-2.60107l-0.00001,-0.00001zm-39.67696,-4.16172c0,-1.56064 4.7886,-5.52728 7.21399,-5.98247c1.24379,-0.26011 4.1667,-0.26011 6.52991,-0.06503c4.1667,0.39016 4.35327,0.32513 7.83589,-2.14588c5.9702,-4.09669 10.51004,-5.39722 18.22155,-5.07209c5.22393,0.26011 7.33837,0.65027 10.51004,2.08086c4.47765,1.88578 4.10451,2.08086 6.65429,-3.05626c3.66919,-7.41306 4.91298,-18.27253 3.04729,-27.37629c-1.55474,-7.60814 -4.7886,-13.5906 -10.94537,-20.02826c-5.22393,-5.46225 -7.40056,-6.89284 -7.40056,-4.74696c0,1.75572 -2.48758,6.17755 -5.09955,9.16878l-2.54977,2.92621l1.67912,1.82075c2.48758,2.73113 1.1816,2.99123 -1.67912,0.32513c-5.3483,-5.07209 -13.24638,-7.47808 -21.14446,-6.50268c-3.29605,0.45519 -3.48262,0.58524 -4.41546,3.05626c-0.6219,1.56064 -0.99503,4.55188 -0.99503,7.73819c0,5.39722 -0.87065,7.0229 -1.36817,2.79615c-0.37314,-2.53605 0.31095,-8.71359 1.05722,-10.72942c0.31095,-0.78032 0.12438,-1.17048 -0.49752,-1.17048c-1.55474,0 -9.26625,4.3568 -13.18419,7.41306c-2.05226,1.62567 -3.85575,2.6661 -3.91794,2.27594c-0.49752,-1.43059 9.26625,-8.12835 15.73397,-10.79445c3.85575,-1.56064 5.22393,-1.75572 11.56726,-1.82075c6.96523,0 7.27618,0.06503 11.62945,2.34097l4.47765,2.27594l2.42539,-2.60107c1.36817,-1.49562 3.23386,-4.42182 4.1667,-6.50268c1.99007,-4.6169 2.05226,-4.55188 -5.53487,-7.21798c-28.91816,-10.07916 -57.46318,16.71189 -51.11984,48.05481c1.67912,8.32343 7.27618,17.81735 13.43295,22.95446c2.54977,2.08086 3.66919,2.27594 3.66919,0.58524l-0.00001,0zm-17.53746,-19.6381c-1.11941,-3.18631 -1.36817,-5.3322 -1.36817,-12.74525l-0.06219,-8.84365l-2.30101,-0.39016c-3.17167,-0.52021 -5.47268,0.45519 -5.47268,2.47102c0,2.34097 2.3632,9.9491 4.47765,14.37092c1.92788,3.96664 5.53487,9.62397 5.90801,9.23381c0.12438,-0.13005 -0.43533,-1.9508 -1.1816,-4.09669l-0.00001,0zm79.72705,0.39016c3.66919,-5.65733 7.46275,-15.60643 7.46275,-19.57307c0,-2.40599 -1.86569,-3.44642 -5.03736,-2.92621c-2.17664,0.39016 -2.42539,0.26011 -2.42539,-0.91038c0,-1.6907 2.30101,-6.50268 3.10948,-6.50268c0.37314,0 0.6219,-0.32513 0.6219,-0.71529c0,-0.45519 -0.68409,-0.58524 -1.86569,-0.32513c-2.23883,0.45519 -2.30101,-0.13005 -0.68409,-3.90161c1.92788,-4.42182 5.03736,-6.3076 12.12697,-7.283l3.54481,-0.45519l1.49255,-3.77155c0.74628,-2.01583 2.17664,-4.74696 3.04729,-5.98247c0.87065,-1.17048 1.61693,-2.34097 1.61693,-2.53605c0,-0.19508 -12.37573,-0.39016 -27.4878,-0.32513c-27.23904,0 -27.4878,0 -24.12956,1.17048c11.00756,3.6415 21.02008,13.07039 25.31116,23.79981c4.1667,10.27424 4.35327,23.86484 0.55971,33.03362c-0.99503,2.27594 0.24876,0.9754 2.73634,-2.79615zm-79.97581,-25.03532c0.24876,-1.23551 1.55474,-4.6169 2.9851,-7.60814c4.53984,-9.55894 14.11704,-18.07745 24.12956,-21.39382c3.35824,-1.17048 3.10948,-1.17048 -24.12956,-1.17048c-21.89073,-0.06503 -27.4878,0.13005 -27.05247,0.78032c3.17167,5.39722 4.66422,8.32343 5.16174,10.20921c0.55971,2.21091 0.74628,2.34097 2.73634,2.08086c2.67415,-0.32513 8.39559,1.36556 10.57223,3.18631c1.74131,1.43059 4.10451,5.65733 4.10451,7.41306c0,0.84535 -0.37314,0.9754 -1.92788,0.65027l-1.99007,-0.45519l1.67912,2.21091c0.87065,1.23551 1.8035,3.18631 1.99007,4.29177c0.49752,2.73113 1.24379,2.6661 1.74131,-0.19508zm-61.81645,-22.10911c1.8035,-1.23551 2.79853,-2.27594 2.17664,-2.27594c-0.74628,0 -0.93284,-0.32513 -0.6219,-1.30054c0.31095,-1.04043 0.12438,-1.30054 -0.93284,-1.30054c-1.30598,0 -1.36817,-0.06503 -0.37314,-1.62567l0.99503,-1.62567l-2.17664,0l-2.17664,0l0,-7.93327l0,-7.9983l-1.30598,1.62567c-0.68409,0.91038 -1.8035,2.73113 -2.48758,4.09669l-1.24379,2.47102l1.86569,2.99123c2.05226,3.25134 3.42043,8.77862 3.04729,12.6152c-0.12438,1.43059 -0.18657,2.53605 -0.12438,2.53605c0.06219,0 1.55474,-1.04043 3.35824,-2.27594l0,0.00001zm205.53659,-2.14588c0,-4.55188 0.80846,-7.34803 3.29605,-11.31466l1.43036,-2.34097l-1.24379,-2.53605c-0.68409,-1.36556 -1.8035,-3.18631 -2.48758,-4.09669l-1.30598,-1.62567l0,7.9983l0,7.93327l-2.30101,0c-2.11445,0 -2.17664,0.06503 -1.24379,1.17048c1.36817,1.56064 1.30598,2.08086 -0.24876,2.08086c-0.99503,0 -1.1816,0.26011 -0.87065,1.30054c0.31095,0.9754 0.12438,1.30054 -0.6219,1.30054c-0.87065,0 4.1667,4.22674 5.28611,4.48685c0.18657,0.06503 0.31095,-1.88578 0.31095,-4.3568l-0.00001,0zm-131.53098,-47.59962l0,-39.01608l-9.32844,0l-9.32844,0l0,-1.62567l0,-1.62567l-27.67437,0l-27.67437,0l0,1.49562c-0.06219,1.17048 0,79.0726 0,79.65784c0,0.06503 16.66681,0.13005 37.0028,0.13005l37.0028,0l0,-39.01608l0.00002,-0.00001zm128.4215,-1.62567l0,-40.31662l-27.79875,-0.19508l-27.86094,-0.13005l0,1.62567l0,1.62567l-9.32844,0l-9.32844,0l0,39.01608l0,39.01608l37.18937,-0.13005l37.12718,-0.19508l0,-40.31662l0.00002,0zm-96.26948,34.72431c5.22393,-2.6661 7.96027,-10.14418 7.52494,-20.22334c-0.31095,-6.95787 -0.87065,-7.80322 -3.54481,-5.26717l-1.99007,1.82075l1.30598,2.60107c1.05722,2.08086 1.24379,3.25134 0.87065,5.85241c-0.99503,8.12835 -4.60203,13.26547 -9.26625,13.3305c-3.29605,0 -5.65925,-2.21091 -8.27122,-7.80322c-1.43036,-3.18631 -1.61693,-4.3568 -1.67912,-10.40429c0,-8.06332 0.43533,-9.23381 6.77867,-17.16708c2.23883,-2.79615 4.35327,-6.17755 4.72641,-7.47808c0.31095,-1.30054 0.6219,-7.80322 0.6219,-14.50098l0,-12.22504l-1.86569,0l-1.86569,0l0,11.70483c0,13.5906 -0.24876,14.69606 -5.03736,19.96323c-5.41049,5.98247 -7.7737,13.39552 -7.21399,22.69436c0.49752,8.45348 3.79356,14.50098 9.45282,17.2321c3.29605,1.56064 6.15677,1.56064 9.45282,-0.13005l0.00001,0zm39.24163,-115.48761c-0.18657,-41.55213 -0.24876,-42.2024 -1.55474,-45.90893c-6.15677,-16.972 -18.84344,-28.15661 -38.12222,-33.68389l-4.91298,-1.43059l-6.40553,2.14588c-16.1071,5.3322 -27.54999,14.50098 -33.39581,26.85607c-4.35327,9.23381 -4.41546,9.49391 -4.41546,54.29738l0,39.79641l44.46555,0l44.52774,0l-0.18657,-42.07234l0.00002,0.00001zm-89.86395,-27.50634c0.24876,-13.78568 0.31095,-14.89114 1.86569,-19.37799c2.54977,-7.41306 5.16174,-11.70483 11.13194,-17.9474l5.47268,-5.78739l0,-26.2058c0,-14.43595 -0.12438,-26.27083 -0.31095,-26.27083c-0.18657,0 -2.05226,0.71529 -4.1667,1.56064c-2.17664,0.91038 -10.07471,4.03166 -17.59965,6.89284c-19.52753,7.54311 -28.85597,13.39552 -38.61973,24.12495c-6.28115,6.89284 -9.14187,12.68023 -11.56726,23.2796c-1.11941,4.94204 -1.36817,8.45348 -1.67912,30.10741l-0.37314,24.58013l27.36342,0.13005c15.04988,0.13005 27.54999,0.06503 27.79875,-0.13005c0.18657,-0.19508 0.49752,-6.89284 0.68409,-14.95617l-0.00002,0.00001zm147.20275,-2.79615c0,-27.24623 -1.55474,-39.14614 -6.5921,-49.81053c-4.04232,-8.58354 -15.48521,-19.70312 -27.17685,-26.33586c-3.79356,-2.14588 -39.17944,-16.64686 -40.67199,-16.64686c-0.06219,0 -0.18657,11.83488 -0.18657,26.33586l0,26.33586l1.99007,1.75572c5.65925,5.07209 10.32347,11.31466 12.93543,17.29713c3.17167,7.34803 3.73138,11.11958 3.73138,25.62056l0,13.20044l27.54999,0.13005c15.11207,0.13005 27.67437,0.13005 27.98531,0c0.24876,-0.13005 0.43533,-8.19338 0.43533,-17.88237zm-99.06801,-64.11643c-0.24876,-11.76985 -1.11941,-17.29713 -2.61196,-17.29713c-1.55474,0 -2.3632,5.46225 -2.67415,17.29713l-0.24876,12.09499l2.92291,0l2.9851,0l-0.37314,-12.09499zm-112.37658,-18.27253c1.99007,-2.92621 5.90801,-5.00706 13.99266,-7.47808c9.01749,-2.79615 17.10214,-4.03166 32.33859,-4.87701c17.66184,-0.9754 23.13453,-2.40599 41.35608,-10.72942c20.8957,-9.55894 23.01015,-9.55894 42.28892,-0.84535c20.95789,9.49391 24.75146,10.46932 46.33124,11.89991c15.92053,1.04043 18.71907,1.43059 28.60721,4.3568c10.82099,3.12129 14.49017,5.52728 16.16929,10.72942l0.87065,2.47102l0.99503,-2.47102c0.74628,-1.9508 0.93284,-4.3568 0.87065,-10.40429c-0.12438,-8.38846 0.31095,-10.20921 3.91794,-15.60643l1.24379,-1.82075l-2.23883,-3.57647c-1.24379,-1.9508 -3.42043,-4.42182 -4.91298,-5.52728c-6.52991,-5.07209 -12.68668,-6.37263 -33.08486,-7.08792c-17.03995,-0.65027 -19.90067,-1.10546 -31.46793,-5.20214c-6.71648,-2.40599 -20.58475,-8.51851 -22.01511,-9.81905c-1.49255,-1.17048 -10.88318,-5.00706 -15.11207,-6.11252c-3.54481,-0.91038 -6.15677,-1.04043 -12.12697,-0.84535c-8.70654,0.39016 -13.24638,1.62567 -21.57979,6.04749c-13.86828,7.283 -28.54502,12.94033 -38.68192,14.95617c-3.17167,0.58524 -8.64435,0.9754 -14.80112,0.9754c-23.81861,0 -34.45303,3.38139 -40.11228,12.68023l-2.17664,3.51145l1.86569,2.86118c2.9851,4.6169 3.29605,6.11252 3.35824,15.08622c0.06219,5.65733 0.37314,9.10375 0.93284,10.40429l0.87065,1.9508l0.43533,-1.75572c0.31095,-0.9754 1.11941,-2.6661 1.86569,-3.77155l0.00001,-0.00003zm45.08745,-49.55043l1.67912,-3.96664l-1.43036,-1.23551c-0.80846,-0.65027 -3.04729,-1.62567 -4.91298,-2.21091c-1.86569,-0.52021 -4.10451,-1.30054 -4.91298,-1.62567l-1.49255,-0.65027l1.61693,2.14588c2.67415,3.38139 5.3483,8.45348 5.78363,10.79445c0.49752,2.79615 1.43036,2.01583 3.66919,-3.25134l0,0.00001zm135.82206,-3.05626c1.05722,-1.6907 2.48758,-3.6415 3.17167,-4.29177c1.86569,-1.75572 1.49255,-2.21091 -1.05722,-1.23551c-1.30598,0.45519 -2.73634,0.84535 -3.23386,0.91038c-0.49752,0 -2.17664,0.65027 -3.66919,1.36556c-2.61196,1.36556 -2.73634,1.56064 -2.42539,3.6415c0.18657,1.23551 1.11941,3.57647 2.05226,5.26717l1.67912,2.99123l0.74628,-2.73113c0.43533,-1.49562 1.67912,-4.16172 2.73634,-5.91744l-0.00001,0.00001z" stroke="null"/>
                    <path id="svg_104" d="m24022.39031,-16865.68372l0,-6.50268l-1.86569,0c-1.24379,0 -1.86569,0.32513 -1.86569,0.9754c0,1.49562 -2.92291,1.23551 -3.73138,-0.32513c-0.37314,-0.78032 -1.30598,-1.30054 -2.17664,-1.30054c-0.87065,0 -1.8035,-0.52021 -2.17664,-1.30054c-0.55971,-1.10546 -1.11941,-1.17048 -6.03239,-0.84535l-5.41049,0.39016l1.36817,-1.88578c0.74628,-1.04043 2.17664,-2.99123 3.10948,-4.29177l1.67912,-2.47102l23.94299,0l23.94299,0l1.55474,2.47102c0.87065,1.30054 1.67912,2.60107 1.74131,2.92621c0.12438,0.26011 -1.74131,0.45519 -4.1667,0.45519c-3.98013,0 -4.41546,0.13005 -4.41546,1.30054c0,0.84535 -0.43533,1.30054 -1.24379,1.30054c-0.68409,0 -1.24379,0.45519 -1.24379,0.9754c0,0.71529 -1.1816,0.9754 -5.41049,1.10546l-5.47268,0.19508l-0.55971,2.47102c-0.49752,1.88578 -0.87065,2.40599 -2.05226,2.40599c-1.43036,0 -1.99007,1.49562 -0.80846,2.27594c0.37314,0.19508 0.6219,0.84535 0.6219,1.36556c0,1.88578 -3.29605,0.78032 -4.66422,-1.49562c-0.68409,-1.17048 -1.43036,-2.08086 -1.67912,-2.14588c-0.31095,0 -0.49752,1.88578 -0.49752,4.22674c0,3.77155 -0.12438,4.22674 -1.24379,4.22674c-1.1816,0 -1.24379,-0.45519 -1.24379,-6.50268z" stroke="null"/>
                    <path fill="#ff0000" id="svg_103" d="m23995.02689,-16931.3608c-0.87065,-0.26011 -5.65925,-0.52021 -10.63442,-0.58524c-9.01749,-0.06503 -9.07968,-0.06503 -11.56726,-1.9508c-1.55474,-1.17048 -2.86072,-2.92621 -3.54481,-4.6169c-1.49255,-3.96664 -0.55971,-5.39722 5.84582,-9.10375c5.59706,-3.25134 11.19413,-7.93327 11.19413,-9.49391c0,-1.88578 -2.67415,-2.73113 -9.51501,-2.99123l-6.71648,-0.19508l-1.24379,2.14588c-1.11941,1.75572 -1.1816,2.08086 -0.31095,2.08086c0.80846,0 0.87065,0.26011 0.24876,1.62567c-0.49752,1.23551 -0.49752,1.88578 -0.06219,2.34097c0.49752,0.52021 0.49752,1.17048 0,2.34097c-0.55971,1.23551 -0.49752,1.75572 0.24876,2.21091c0.68409,0.52021 0.68409,0.78032 0.06219,1.04043c-0.43533,0.19508 -1.86569,1.30054 -3.10948,2.53605c-1.86569,1.75572 -2.79853,2.21091 -4.85079,2.21091c-1.43036,0 -3.48262,0.39016 -4.66422,0.91038c-2.61196,1.17048 -5.03736,0.45519 -7.33837,-2.14588c-0.93284,-1.04043 -2.86072,-2.21091 -4.29108,-2.60107c-5.90801,-1.6907 -6.09458,-8.64857 -0.37314,-13.5906c1.92788,-1.6907 2.11445,-2.08086 1.55474,-3.31637c-0.93284,-1.6907 -1.24379,-1.6907 -3.85575,0.13005c-1.8035,1.30054 -2.11445,1.88578 -2.30101,4.55188c-0.24876,3.83658 -1.67912,5.00706 -6.09458,5.00706c-2.79853,0 -3.48262,-0.26011 -4.53984,-1.6907c-1.55474,-2.08086 -1.8035,-7.0229 -0.37314,-7.86824c0.49752,-0.32513 2.61196,-2.92621 4.72641,-5.72236c2.05226,-2.86118 5.03736,-6.69776 6.52991,-8.58354c1.49255,-1.82075 2.73634,-3.6415 2.73634,-4.09669c0,-0.39016 -1.1816,-2.79615 -2.54977,-5.26717c-1.74131,-3.05626 -2.92291,-4.48685 -3.73138,-4.48685c-2.67415,0 -5.47268,-1.88578 -6.71648,-4.42182c-1.8035,-3.6415 -1.11941,-4.03166 7.27618,-4.03166l7.08961,0l4.60203,5.07209c3.607,3.90161 4.53984,5.46225 4.60203,6.95787c0,1.62567 0.37314,2.14588 1.99007,2.79615c1.05722,0.39016 1.99007,0.71529 2.05226,0.58524c0,-0.06503 0.37314,-0.9754 0.80846,-1.9508c0.43533,-1.04043 1.30598,-2.01583 1.99007,-2.21091c1.24379,-0.32513 2.11445,-1.88578 1.55474,-2.86118c-0.18657,-0.26011 -2.23883,-1.17048 -4.53984,-1.88578c-4.35327,-1.43059 -5.09955,-2.01583 -5.09955,-4.3568c0,-1.17048 0.43533,-1.49562 2.79853,-1.82075c1.49255,-0.26011 5.09955,-0.32513 7.89808,-0.13005c2.86072,0.19508 8.27122,0.39016 12.06478,0.39016c6.77867,0 6.90304,0.06503 9.95033,2.21091c5.90801,4.22674 9.01749,10.07916 9.20406,17.49221l0.06219,3.44642l-3.23386,-0.13005c-1.8035,-0.06503 -3.29605,-0.06503 -3.29605,0.06503c0,0.13005 0.80846,1.88578 1.8035,3.83658c0.99503,1.9508 1.99007,4.87701 2.23883,6.43765c0.24876,1.49562 1.11941,3.57647 1.86569,4.55188c0.93284,1.10546 1.30598,2.27594 1.11941,3.12129c-0.49752,2.01583 -5.03736,6.50268 -9.76377,9.75402c-4.97517,3.38139 -4.66422,3.90161 2.61196,3.90161c4.97517,0 8.83092,0.9754 9.70158,2.53605c0.24876,0.39016 -0.12438,1.6907 -0.80846,2.92621c-1.67912,2.79615 -1.61693,4.03166 0.24876,5.91744c1.55474,1.6907 1.1816,1.88578 -1.55474,0.9754l0,-0.00005z" stroke="null"/>
                    <path fill="#007f00" id="svg_102" d="m24085.82368,-16928.17448c-1.99007,-0.84535 -4.85079,-3.70653 -5.90801,-5.85241c-0.68409,-1.36556 -1.1816,-1.56064 -2.92291,-1.36556c-3.54481,0.39016 -7.1518,-0.9754 -8.9553,-3.44642c-1.24379,-1.75572 -1.61693,-2.99123 -1.61693,-5.85241l-0.06219,-3.57647l-3.04729,-1.75572c-5.03736,-2.86118 -6.5921,-7.15295 -4.47765,-12.42012l0.93284,-2.40599l1.24379,1.62567c0.87065,1.04043 1.1816,1.23551 0.93284,0.52021c-0.37314,-1.36556 0.31095,-1.49562 1.36817,-0.39016c0.43533,0.45519 0.74628,0.65027 0.80846,0.45519c0.55971,-3.05626 -0.12438,-3.70653 -2.11445,-2.01583c-1.11941,1.04043 -2.11445,-0.13005 -1.1816,-1.36556c0.31095,-0.45519 0.74628,-2.34097 0.87065,-4.22674c0.37314,-3.96664 1.8035,-6.3076 4.91298,-8.2584c1.74131,-1.10546 3.10948,-1.30054 8.14684,-1.17048l5.9702,0.13005l0.74628,-1.88578c0.43533,-1.17048 0.68409,-3.90161 0.49752,-6.76279c-0.18657,-4.22674 -0.49752,-5.26717 -2.23883,-7.86824c-1.05722,-1.62567 -1.99007,-3.05626 -1.99007,-3.12129c0,-0.06503 5.47268,-0.06503 12.12697,0.06503l12.18916,0.19508l-1.86569,1.56064c-3.54481,3.12129 -4.7886,8.90867 -2.9851,13.52558c0.68409,1.6907 1.43036,2.21091 3.79356,2.92621c1.55474,0.39016 3.91794,1.75572 5.16174,2.92621c2.23883,2.14588 2.23883,2.14588 5.28611,1.36556c6.09458,-1.6907 9.82595,1.75572 9.82595,9.03873c0,1.62567 0.6219,4.03166 1.55474,5.91744c0.87065,1.75572 1.55474,3.96664 1.55474,4.87701c0,2.40599 -1.99007,5.46225 -4.60203,7.15295c-1.86569,1.23551 -2.23883,1.82075 -2.23883,3.70653c0,4.48685 -2.79853,7.80322 -7.96027,9.42889c-2.11445,0.65027 -2.86072,1.30054 -3.54481,2.99123c-1.05722,2.60107 -3.35824,3.70653 -6.84085,3.18631c-1.8035,-0.19508 -2.9851,0.06503 -4.41546,0.9754c-2.3632,1.49562 -6.84085,2.14588 -8.9553,1.17048l0.00003,-0.00003zm0.18657,-49.81053c0.24876,-0.19508 0.12438,-0.78032 -0.31095,-1.30054c-0.37314,-0.45519 -0.49752,-1.04043 -0.24876,-1.30054c0.18657,-0.26011 0.80846,0.13005 1.30598,0.84535c0.93284,1.23551 0.93284,1.23551 0.55971,-0.06503c-0.37314,-1.04043 -0.24876,-1.17048 0.37314,-0.52021c0.43533,0.39016 1.1816,0.58524 1.61693,0.39016c0.49752,-0.19508 0.87065,0 0.87065,0.45519c0,0.39016 0.24876,0.58524 0.6219,0.32513c0.99503,-0.65027 0,-2.14588 -1.24379,-1.82075c-0.74628,0.19508 -1.36817,-0.19508 -1.92788,-1.17048c-0.74628,-1.49562 -0.74628,-1.49562 0.80846,-0.45519c1.1816,0.84535 1.74131,0.91038 2.30101,0.32513c0.37314,-0.39016 0.68409,-0.52021 0.68409,-0.26011c0,0.26011 0.6219,0.19508 1.30598,-0.26011c0.87065,-0.45519 1.1816,-0.45519 0.93284,0c-0.37314,0.65027 2.48758,1.82075 3.04729,1.23551c0.12438,-0.13005 -0.18657,-1.62567 -0.74628,-3.31637c-0.74628,-2.27594 -0.80846,-3.70653 -0.37314,-5.52728c0.31095,-1.36556 0.37314,-3.05626 0.12438,-3.70653c-0.24876,-0.71529 -0.49752,-0.9754 -0.49752,-0.65027c-0.06219,0.39016 -2.3632,0.58524 -5.9702,0.52021c-6.71648,-0.13005 -6.40553,-0.52021 -6.40553,6.69776c0,2.60107 -0.31095,5.26717 -0.68409,6.04749c-0.6219,1.10546 -0.55971,1.36556 0.18657,1.36556c0.49752,0 1.11941,-0.26011 1.30598,-0.65027c0.18657,-0.32513 0.68409,-0.65027 0.99503,-0.65027c0.99503,0 -0.06219,1.30054 -1.55474,2.01583c-1.1816,0.58524 -1.1816,0.58524 0.37314,0.39016c1.1816,-0.19508 1.55474,0 1.30598,0.65027c-0.31095,0.84535 0.55971,1.17048 1.24379,0.39016l0.00003,0.00004z" stroke="null"/>
                    <path id="svg_101" d="m23990.92237,-17015.24538l-3.79356,-10.98953l3.48262,3.31637c1.92788,1.82075 5.16174,4.16172 7.21399,5.20214c3.54481,1.75572 4.10451,1.82075 12.93543,1.82075l9.14187,0l0,-3.57647l0,-3.57647l-11.3185,0l-11.38069,0l1.99007,-1.30054c3.42043,-2.14588 4.22889,-4.55188 4.22889,-13.00536l0,-7.47808l-8.83092,-0.32513c-7.64932,-0.26011 -8.76873,-0.45519 -8.27122,-1.30054c0.37314,-0.52021 0.6219,-8.32343 0.6219,-17.81735c0,-14.82611 -0.12438,-17.03702 -1.05722,-18.07745c-0.93284,-1.10546 -0.74628,-1.17048 5.47268,-1.17048c5.9702,0 6.34334,0.06503 5.03736,1.04043c-1.30598,0.91038 -1.36817,1.43059 -1.36817,9.49391l0,8.51851l2.79853,-0.32513l2.79853,-0.39016l0,2.40599l0,2.34097l-2.79853,-0.19508l-2.79853,-0.26011l0,6.56771l0,6.56771l3.607,0c1.99007,0 3.91794,-0.32513 4.35327,-0.78032c0.55971,-0.58524 0.74628,-6.63273 0.74628,-23.08452c0,-23.5397 -0.24876,-25.81564 -2.92291,-27.44131c-0.80846,-0.52021 1.49255,-0.65027 9.01749,-0.71529l10.07471,0l0,-3.70653c0,-4.68193 -0.87065,-7.93327 -2.48758,-9.81905l-1.30598,-1.43059l11.00756,0l11.00756,0l-1.30598,1.49562c-0.68409,0.78032 -1.43036,2.14588 -1.67912,3.05626c-0.49752,2.08086 -0.74628,24.05992 -0.24876,24.05992c0.18657,0 2.79853,-3.18631 5.84582,-7.15295l5.47268,-7.15295l2.54977,0.52021c3.23386,0.58524 5.53487,0.52021 9.39063,-0.06503l3.10948,-0.52021l-5.90801,6.37263c-3.23386,3.51145 -9.14187,9.88407 -13.122,14.17584c-5.90801,6.3076 -7.33837,8.2584 -7.64932,10.27424c-0.24876,1.30054 -0.31095,2.40599 -0.12438,2.40599c0.12438,0 0.93284,-1.56064 1.8035,-3.38139c1.8035,-4.16172 5.84582,-8.51851 10.07471,-10.79445c2.67415,-1.49562 3.91794,-1.75572 8.39559,-1.75572c4.66422,0 5.65925,0.19508 8.51997,1.88578c1.8035,1.04043 3.85575,2.53605 4.60203,3.38139l1.36817,1.56064l-1.74131,1.43059c-0.93284,0.78032 -2.17664,2.53605 -2.79853,3.90161l-1.05722,2.60107l-0.49752,-2.47102c-0.99503,-5.65733 -3.73138,-8.32343 -8.58216,-8.32343c-5.28611,0 -8.45778,3.90161 -9.01749,10.98953c-0.31095,4.16172 -0.24876,4.22674 1.24379,4.22674c0.87065,0 2.79853,0.45519 4.29108,0.9754c5.72144,2.14588 9.39063,6.04749 11.3185,12.09499c0.68409,2.01583 1.30598,2.86118 2.05226,2.86118c1.05722,0 1.1816,-0.45519 0.99503,-3.77155c-0.18657,-3.51145 -0.12438,-3.77155 1.49255,-4.3568c2.05226,-0.84535 2.42539,-0.52021 1.43036,1.17048c-0.6219,1.04043 -0.6219,1.82075 0.06219,3.96664c0.68409,2.27594 0.68409,2.79615 -0.24876,4.22674c-0.55971,0.91038 -1.86569,2.14588 -2.86072,2.6661c-1.61693,0.84535 -1.86569,1.36556 -1.86569,3.70653c0,4.6169 -1.30598,7.80322 -4.66422,11.24964c-4.22889,4.42182 -7.89808,5.72236 -17.10214,6.17755l-7.1518,0.32513l0.06219,3.25134l0,3.25134l9.63939,0c8.9553,0 9.76377,-0.13005 12.5623,-1.62567c1.67912,-0.84535 4.66422,-3.12129 6.65429,-5.07209c3.607,-3.38139 3.66919,-3.44642 2.86072,-1.30054c-0.43533,1.17048 -2.11445,6.17755 -3.79356,11.11958c-2.11445,6.37263 -3.17167,8.77862 -3.607,8.32343c-0.93284,-0.9754 -62.74929,-0.9754 -63.61995,-0.06503c-0.43533,0.45519 -1.86569,-3.05626 -4.35327,-10.40429l-0.00002,-0.00001zm28.98035,-30.23747l0,-15.2813l-2.48758,0l-2.48758,0l0,15.2813l0,15.2813l2.48758,0l2.48758,0l0,-15.2813zm24.81365,14.3059c3.42043,-1.82075 4.91298,-8.32343 2.79853,-11.89991c-0.55971,-0.9754 -2.67415,-3.18631 -4.72641,-4.94204c-3.79356,-3.18631 -7.33837,-8.19338 -7.33837,-10.20921c0,-0.65027 -0.18657,-1.30054 -0.43533,-1.43059c-0.37314,-0.26011 -0.55971,27.76645 -0.24876,29.32709c0.18657,0.58524 8.51997,-0.06503 9.95033,-0.84535l0.00001,0.00001zm-24.81365,-51.69631c0,-17.75232 -0.12438,-18.27253 -3.35824,-14.24087l-1.61693,2.01583l0,14.24087l0,14.24087l2.48758,0l2.48758,0l0,-16.2567l0.00001,0z" stroke="null"/>
                    <path fill="#56aaff" id="svg_100" d="m23959.26787,-17069.54276c-5.90801,-6.24257 -9.63939,-15.08622 -9.63939,-23.01949c0,-1.82075 -0.12438,-3.31637 -0.37314,-3.31637c-0.18657,0 -1.30598,0.71529 -2.48758,1.56064c-2.73634,1.9508 -5.41049,5.72236 -6.96523,9.75402l-1.11941,3.12129l-1.67912,-3.90161c-3.10948,-7.283 -3.17167,-15.21627 -0.12438,-20.6135c1.8035,-3.25134 6.34334,-7.34803 10.19909,-9.23381c1.36817,-0.65027 2.54977,-1.56064 2.54977,-2.01583c0,-0.45519 -0.93284,-1.88578 -2.11445,-3.25134c-2.05226,-2.27594 -2.3632,-2.40599 -5.90801,-2.40599c-2.11445,0 -3.79356,-0.13005 -3.79356,-0.19508c0,-0.58524 2.86072,-4.55188 4.91298,-6.89284c2.54977,-2.86118 6.65429,-4.94204 9.70158,-4.94204c3.29605,0 7.7737,1.82075 11.3185,4.6169l3.29605,2.53605l3.66919,-1.30054c2.42539,-0.84535 5.41049,-1.30054 8.3334,-1.30054c7.52494,0 12.18916,3.25134 15.36083,10.53434c1.86569,4.3568 1.67912,5.07209 -1.05722,4.3568c-4.60203,-1.10546 -10.88318,-0.32513 -13.43295,1.62567c-0.99503,0.84535 -0.99503,0.9754 0.18657,3.77155c1.86569,4.48685 2.67415,11.44472 1.92788,16.58184c-0.68409,4.74696 -3.29605,10.9245 -6.21896,14.76109l-1.8035,2.34097l-0.18657,-5.59231c-0.24876,-5.00706 -0.43533,-5.72236 -1.8035,-6.89284l-1.55474,-1.30054l-1.67912,2.14588c-2.86072,3.57647 -4.85079,10.79445 -5.65925,20.41842l-0.12438,1.9508l-3.73138,-3.90161l0,0.00002z" stroke="null"/>
                    <path fill="#ff0000" id="svg_99" d="m24116.91848,-17061.41441c-1.1816,-0.19508 -3.607,-0.26011 -5.41049,-0.13005c-3.79356,0.39016 -6.52991,-0.65027 -7.96027,-2.92621c-1.67912,-2.6661 -0.99503,-4.16172 3.10948,-6.56771c5.9702,-3.44642 8.02246,-6.11252 5.47268,-6.89284c-1.74131,-0.52021 -7.96027,-0.65027 -8.70654,-0.19508c-0.31095,0.26011 -0.55971,2.01583 -0.49752,4.03166c0.12438,4.68193 -1.55474,6.50268 -6.52991,7.08792c-2.86072,0.32513 -3.73138,0.13005 -5.59706,-1.10546c-1.1816,-0.78032 -2.73634,-1.75572 -3.42043,-2.14588c-1.99007,-1.10546 -1.99007,-4.81198 0,-6.76279c1.43036,-1.43059 2.17664,-3.90161 1.11941,-3.90161c-1.30598,0.06503 -3.23386,2.47102 -3.42043,4.22674c-0.24876,2.40599 -2.67415,3.57647 -5.16174,2.40599c-1.30598,-0.65027 -1.55474,-1.17048 -1.55474,-3.38139c0,-1.43059 0.18657,-2.60107 0.49752,-2.60107c0.24876,0 2.23883,-2.40599 4.41546,-5.26717l3.98013,-5.26717l-1.43036,-2.79615c-0.99503,-1.9508 -1.99007,-2.92621 -3.17167,-3.18631c-2.05226,-0.39016 -3.66919,-2.01583 -3.66919,-3.70653c0,-1.10546 0.49752,-1.23551 4.60203,-1.23551l4.53984,0l2.92291,3.25134c1.55474,1.75572 2.86072,3.6415 2.86072,4.16172c0,0.45519 0.43533,1.10546 0.99503,1.30054c1.36817,0.52021 1.49255,0.52021 1.49255,-0.52021c0,-0.45519 0.6219,-1.30054 1.43036,-1.88578l1.36817,-0.9754l-2.17664,-0.9754c-1.1816,-0.52021 -2.67415,-1.10546 -3.29605,-1.30054c-0.68409,-0.26011 -1.05722,-0.91038 -0.93284,-1.56064c0.18657,-1.04043 1.1816,-1.17048 8.9553,-1.30054c8.27122,-0.13005 8.89311,-0.06503 10.69661,1.36556c3.607,2.79615 5.72144,6.89284 5.72144,11.37969c0,1.30054 -0.24876,1.49562 -1.92788,1.23551c-2.11445,-0.32513 -2.05226,-0.58524 -0.24876,4.68193c0.55971,1.62567 1.30598,3.18631 1.61693,3.57647c1.74131,1.82075 -0.06219,4.74696 -5.16174,8.2584c-1.30598,0.91038 -2.17664,1.82075 -1.92788,2.01583c0.18657,0.26011 1.99007,0.45519 3.91794,0.45519c3.98013,0 6.46772,1.30054 5.16174,2.6661c-0.99503,1.04043 -1.05722,3.31637 -0.06219,4.3568c0.80846,0.84535 0.68409,0.84535 -2.61196,0.13005l0.00004,0z" stroke="null"/>
                    <path fill="#ff0000" id="svg_98" d="m24101.99298,-17105.69767c-0.80846,-0.32513 -3.79356,-0.58524 -6.65429,-0.45519c-4.35327,0.13005 -5.3483,0 -6.84085,-1.17048c-2.23883,-1.75572 -3.17167,-4.3568 -2.05226,-5.78739c0.49752,-0.58524 2.11445,-1.75572 3.66919,-2.60107c4.10451,-2.21091 6.52991,-4.48685 6.15677,-5.65733c-0.43533,-1.17048 -8.45778,-2.08086 -9.5772,-1.10546c-0.37314,0.32513 -0.6219,2.21091 -0.55971,4.22674c0.06219,3.12129 -0.12438,3.77155 -1.43036,4.87701c-0.87065,0.65027 -2.11445,1.23551 -2.79853,1.23551c-0.68409,0 -2.17664,0.32513 -3.29605,0.78032c-1.8035,0.65027 -2.17664,0.58524 -3.98013,-0.9754c-1.05722,-0.9754 -2.3632,-1.75572 -2.79853,-1.75572c-1.43036,0 -2.79853,-1.9508 -2.79853,-3.96664c0,-1.30054 0.6219,-2.60107 1.8035,-3.83658c1.05722,-1.17048 1.55474,-2.14588 1.24379,-2.6661c-0.68409,-1.17048 -3.91794,1.10546 -3.42043,2.40599c0.68409,1.9508 -0.74628,3.51145 -3.23386,3.51145c-1.30598,0 -2.67415,-0.32513 -3.10948,-0.78032c-0.80846,-0.84535 -1.05722,-4.81198 -0.24876,-5.20214c0.24876,-0.06503 2.23883,-2.53605 4.47765,-5.3322l3.98013,-5.13712l-1.55474,-2.99123c-1.11941,-2.21091 -1.99007,-3.05626 -3.48262,-3.44642c-2.11445,-0.58524 -3.607,-2.60107 -3.04729,-4.16172c0.24876,-0.65027 1.49255,-0.91038 4.66422,-0.91038l4.29108,0l2.86072,3.51145c1.55474,1.88578 2.86072,3.90161 2.86072,4.48685c0,0.52021 0.43533,1.17048 0.99503,1.36556c1.36817,0.52021 1.49255,0.52021 1.49255,-0.58524c0,-0.52021 0.55971,-1.23551 1.24379,-1.62567c1.8035,-1.04043 1.55474,-1.75572 -1.05722,-2.6661c-2.86072,-0.91038 -3.91794,-1.75572 -3.91794,-2.92621c0,-0.71529 1.8035,-0.91038 9.20406,-0.91038l9.14187,0l2.42539,2.08086c2.79853,2.40599 4.66422,6.37263 4.72641,9.88407c0,2.47102 -0.06219,2.47102 -1.92788,2.08086c-1.67912,-0.32513 -1.86569,-0.26011 -1.49255,0.78032c0.24876,0.58524 0.87065,2.27594 1.36817,3.70653c0.43533,1.43059 1.1816,3.25134 1.55474,4.09669c1.05722,2.14588 -0.24876,4.3568 -4.35327,7.21798l-3.29605,2.34097l3.91794,0.39016c2.17664,0.26011 4.41546,0.65027 5.03736,0.91038c1.1816,0.52021 1.43036,1.9508 0.43533,2.60107c-0.93284,0.58524 -0.74628,2.34097 0.43533,3.70653c1.11941,1.30054 1.11941,1.36556 -1.05722,0.45519l0.00001,0z" stroke="null"/>
                    <path id="svg_97" d="m23922.63821,-17172.22009c0.18657,-0.52021 -0.49752,-2.6661 -1.55474,-4.87701c-1.05722,-2.14588 -1.92788,-4.48685 -1.92788,-5.20214c0,-1.88578 2.9851,-4.09669 5.22393,-3.83658c1.67912,0.19508 2.23883,0.78032 4.29108,4.94204c2.86072,5.65733 4.53984,6.37263 3.91794,1.6907c-0.18657,-1.6907 -0.37314,-3.83658 -0.37314,-4.87701c0,-0.9754 -0.43533,-2.21091 -0.93284,-2.73113c-0.49752,-0.52021 -0.68409,-1.10546 -0.49752,-1.36556c0.68409,-0.71529 8.02246,-0.39016 8.76873,0.39016c1.11941,1.17048 0.93284,4.87701 -0.31095,5.65733c-0.6219,0.39016 -0.80846,0.71529 -0.37314,0.71529c1.11941,0 2.17664,2.47102 1.74131,3.90161c-0.49752,1.56064 -4.1667,2.86118 -7.1518,2.40599c-1.24379,-0.13005 -2.79853,0 -3.35824,0.32513c-0.93284,0.58524 -1.05722,0.45519 -0.74628,-0.65027c0.49752,-1.62567 -2.92291,-9.10375 -4.41546,-9.68899c-1.24379,-0.52021 -2.92291,0.58524 -3.17167,2.01583c-0.37314,1.82075 3.42043,9.49391 4.66422,9.49391c0.74628,0.06503 0.37314,0.45519 -1.05722,1.30054c-2.61196,1.49562 -3.17167,1.56064 -2.73634,0.39016l0.00001,0z" stroke="null"/>
                    <path id="svg_96" d="m24126.24692,-17174.23592c-0.87065,-0.52021 -2.79853,-1.10546 -4.29108,-1.36556c-1.43036,-0.26011 -2.3632,-0.65027 -1.99007,-0.84535c1.05722,-0.71529 1.61693,-9.62397 0.68409,-10.79445c-1.05722,-1.30054 -3.48262,-1.23551 -4.04232,0.13005c-0.93284,2.6661 -1.11941,9.23381 -0.24876,10.33926c0.80846,1.04043 0.68409,1.10546 -1.24379,0.71529c-1.11941,-0.26011 -2.54977,-0.45519 -3.10948,-0.45519c-0.80846,0 -0.80846,-0.13005 -0.12438,-0.58524c0.49752,-0.39016 0.99503,-2.40599 1.24379,-5.26717c0.37314,-3.83658 0.68409,-4.94204 1.86569,-5.91744c1.8035,-1.56064 3.85575,-1.56064 5.65925,-0.06503c1.30598,1.10546 1.43036,1.6907 1.30598,6.50268c-0.06219,4.22674 0.06219,5.3322 0.80846,5.3322c1.05722,0 4.41546,-9.23381 3.85575,-10.79445c-0.31095,-0.84535 -0.12438,-0.9754 0.68409,-0.58524c0.6219,0.26011 1.74131,0.65027 2.54977,0.78032c1.30598,0.32513 1.99007,1.49562 0.74628,1.49562c-0.74628,0 -2.73634,3.90161 -2.23883,4.42182c0.24876,0.19508 1.43036,-0.65027 2.73634,-1.9508c1.86569,-1.9508 2.54977,-2.21091 3.73138,-1.75572c1.36817,0.52021 1.36817,0.58524 -1.05722,2.86118c-2.17664,2.01583 -2.42539,2.60107 -2.11445,4.48685c0.55971,3.6415 -2.11445,5.26717 -5.41049,3.31637z" stroke="null"/>
                    <path id="svg_95" d="m24091.48294,-17177.42223c-3.42043,-3.83658 -1.74131,-10.9245 2.73634,-11.83488c4.35327,-0.84535 7.64932,3.05626 6.77867,7.86824c-0.87065,5.07209 -6.46772,7.34803 -9.51501,3.96664z" stroke="null"/>
                    <path id="svg_94" d="m24102.30392,-17176.51186c-0.18657,-0.32513 -0.06219,-0.65027 0.24876,-0.65027c0.43533,0 0.68409,-1.88578 0.68409,-5.00706c0,-3.70653 -0.24876,-5.26717 -1.05722,-6.17755c-0.93284,-1.10546 -0.80846,-1.17048 3.10948,-1.17048c2.86072,0 4.35327,0.32513 5.03736,1.04043c1.36817,1.43059 1.24379,4.6169 -0.18657,5.59231c-1.24379,0.78032 -1.24379,0.78032 0,1.6907c2.86072,2.08086 0.18657,5.3322 -4.35327,5.3322c-1.74131,0 -3.29605,-0.26011 -3.48262,-0.65027l-0.00001,-0.00001z" stroke="null"/>
                    <path id="svg_93" d="m23961.94203,-17177.0971c0.74628,-0.45519 0.74628,-1.36556 0.06219,-5.59231c-0.49752,-2.79615 -1.1816,-5.13712 -1.61693,-5.3322c-1.61693,-0.65027 -0.74628,-1.36556 2.30101,-1.75572c1.67912,-0.26011 4.22889,-0.84535 5.65925,-1.36556c4.7886,-1.82075 9.26625,1.17048 9.26625,6.11252c0,2.99123 -1.43036,5.13712 -4.10451,6.3076c-2.73634,1.23551 -6.28115,1.23551 -5.3483,0.06503c0.49752,-0.65027 0.37314,-2.08086 -0.55971,-5.39722c-1.43036,-5.00706 -2.11445,-6.04749 -3.10948,-5.00706c-0.99503,1.04043 0.55971,10.59937 1.8035,11.11958c0.80846,0.26011 0.74628,0.45519 -0.24876,0.84535c-1.67912,0.71529 -5.16174,0.71529 -4.10451,0l0,-0.00001z" stroke="null"/>
                    <path id="svg_92" d="m24080.22662,-17179.24298c-2.61196,-0.78032 -2.9851,-1.10546 -1.99007,-1.75572c0.43533,-0.26011 1.36817,-2.60107 2.05226,-5.20214c0.99503,-3.70653 1.11941,-4.87701 0.55971,-5.65733c-0.93284,-1.10546 -0.49752,-1.10546 2.67415,-0.19508c2.05226,0.58524 2.23883,0.78032 1.43036,1.43059c-0.55971,0.45519 -1.11941,1.82075 -1.36817,3.05626l-0.37314,2.27594l2.30101,-2.79615c1.8035,-2.21091 2.61196,-2.6661 3.66919,-2.34097c0.68409,0.26011 1.36817,0.52021 1.49255,0.58524c0.12438,0.06503 -0.99503,1.36556 -2.42539,2.92621c-1.86569,2.01583 -2.3632,2.92621 -1.86569,3.44642c0.37314,0.39016 0.68409,1.30054 0.68409,2.08086c0,2.79615 -2.23883,3.51145 -6.84085,2.14588l-0.00001,-0.00001z" stroke="null"/>
                    <path id="svg_91" d="m23980.28795,-17182.03914c0.68409,-1.75572 -2.11445,-10.14418 -3.54481,-10.72942c-1.43036,-0.52021 -1.1816,-0.71529 3.54481,-2.34097c3.607,-1.23551 3.66919,-1.23551 4.60203,0.06503c0.6219,0.91038 0.87065,0.9754 0.80846,0.32513c-0.24876,-1.88578 0,-2.40599 1.55474,-3.12129c2.3632,-1.10546 3.29605,-0.9754 4.97517,0.84535c1.99007,2.01583 1.99007,4.09669 -0.06219,6.37263c-1.8035,2.01583 -1.74131,4.03166 0.06219,4.03166c0.80846,0 1.30598,-0.52021 1.43036,-1.43059c0.24876,-1.82075 1.11941,-1.9508 1.55474,-0.26011c0.43533,1.6907 -0.68409,2.6661 -3.04729,2.6661c-3.98013,0 -5.22393,-3.77155 -2.42539,-7.283c1.24379,-1.56064 1.43036,-2.14588 0.87065,-3.18631c-0.99503,-1.9508 -3.29605,-1.36556 -3.54481,0.91038c-0.24876,1.88578 -1.24379,2.21091 -3.17167,0.9754c-2.48758,-1.56064 -4.10451,1.04043 -2.54977,4.09669c0.87065,1.62567 1.8035,1.56064 2.42539,-0.19508c0.55971,-1.49562 0.55971,-1.49562 1.24379,0.32513c0.93284,2.60107 0.87065,3.38139 -0.24876,2.40599c-0.49752,-0.45519 -1.30598,-0.65027 -1.8035,-0.45519c-0.74628,0.32513 -0.80846,0.71529 -0.18657,2.34097c0.80846,2.34097 2.86072,2.73113 3.35824,0.71529c0.43533,-1.62567 1.1816,-1.6907 1.61693,0c0.24876,1.04043 -0.24876,1.43059 -2.92291,2.34097c-1.74131,0.58524 -3.54481,1.23551 -4.04232,1.43059c-0.68409,0.26011 -0.80846,0.06503 -0.49752,-0.84535l0.00001,0z" stroke="null"/>
                    <path id="svg_90" d="m24001.4946,-17190.55765c0.37314,-1.10546 -3.04729,-9.36386 -4.29108,-10.40429c-0.74628,-0.58524 -0.12438,-1.10546 3.23386,-2.6661c8.02246,-3.70653 8.76873,-3.90161 10.19909,-2.40599c1.30598,1.43059 1.61693,3.12129 0.87065,5.00706c-0.31095,0.78032 -0.18657,1.10546 0.55971,1.10546c1.05722,0 1.99007,2.6661 1.36817,4.22674c-0.37314,1.04043 -1.92788,1.82075 -8.3334,4.48685c-2.86072,1.17048 -3.85575,1.30054 -3.607,0.65027z" stroke="null"/>
                    <path id="svg_89" d="m24048.50993,-17191.92321c-1.74131,-0.78032 -1.92788,-1.10546 -1.11941,-1.56064c0.6219,-0.32513 0.87065,-1.10546 0.6219,-2.21091c-0.24876,-1.62567 -0.31095,-1.62567 -1.49255,-0.58524c-0.6219,0.65027 -0.99503,1.56064 -0.87065,2.01583c0.43533,1.17048 0,1.10546 -3.98013,-0.58524c-4.29108,-1.82075 -4.1667,-1.6907 -2.92291,-2.6661c0.55971,-0.39016 1.49255,-2.73113 2.05226,-5.13712c0.93284,-3.57647 0.99503,-4.48685 0.31095,-5.3322c-0.99503,-1.23551 -2.79853,-1.36556 -3.66919,-0.19508c-1.36817,1.75572 -3.23386,9.10375 -2.48758,10.01413c0.80846,1.04043 0.37314,1.04043 -2.67415,0.13005c-2.23883,-0.71529 -2.30101,-0.84535 -1.24379,-1.82075c0.6219,-0.58524 1.55474,-2.73113 2.17664,-4.74696c1.36817,-4.81198 2.42539,-5.98247 5.22393,-5.52728c1.11941,0.26011 2.48758,0.71529 2.9851,1.17048c1.11941,0.9754 1.11941,4.29177 -0.06219,7.73819c-1.05722,3.18631 -1.1816,5.20214 -0.31095,5.20214c0.31095,0 1.8035,-0.91038 3.35824,-2.01583c2.54977,-1.9508 2.73634,-2.21091 2.42539,-4.42182c-0.18657,-1.30054 -0.74628,-3.05626 -1.24379,-3.90161c-0.87065,-1.49562 -0.87065,-1.56064 0.18657,-1.04043c0.68409,0.26011 1.67912,0.65027 2.30101,0.78032c0.55971,0.19508 1.05722,0.65027 1.05722,0.9754c0,0.32513 -0.31095,0.39016 -0.6219,0.19508c-0.93284,-0.58524 -1.49255,1.49562 -0.87065,2.99123c0.49752,1.17048 0.6219,1.17048 1.99007,0.19508c0.80846,-0.58524 1.30598,-1.43059 1.11941,-1.9508c-0.43533,-1.17048 0.18657,-1.17048 3.10948,0.13005c1.74131,0.78032 2.17664,1.17048 1.49255,1.49562c-2.42539,0.9754 -6.84085,4.94204 -6.52991,5.78739c0.18657,0.45519 0.31095,1.43059 0.31095,2.08086c0,0.65027 0.43533,1.6907 0.99503,2.27594c1.43036,1.43059 0.93284,1.62567 -1.61693,0.52021l-0.00002,0.00001z" stroke="null"/>
                    <path fill="#ffff00" id="svg_88" d="m23914.05604,-16806.70441c-3.85575,-1.43059 -5.53487,-2.92621 -6.84085,-6.04749c-1.11941,-2.6661 -1.24379,-4.03166 -0.99503,-11.50974c0.24876,-7.08792 0.49752,-9.10375 1.74131,-11.96493l1.43036,-3.44642l-1.43036,-2.01583l-1.36817,-1.9508l1.92788,0.45519c1.74131,0.39016 1.92788,0.26011 1.92788,-1.10546c0,-0.84535 -0.55971,-2.6661 -1.24379,-4.09669c-0.68409,-1.36556 -1.11941,-2.6661 -0.93284,-2.79615c0.12438,-0.19508 1.1816,0.06503 2.30101,0.58524c1.11941,0.52021 2.23883,0.84535 2.48758,0.78032c0.24876,-0.13005 0.74628,0.78032 1.05722,1.9508c1.05722,3.18631 4.47765,6.37263 7.89808,7.283l2.9851,0.78032l-2.67415,0.45519c-2.3632,0.39016 -5.22393,1.6907 -8.14684,3.6415c-0.49752,0.32513 -1.92788,1.04043 -3.10948,1.49562l-2.17664,0.91038l3.10948,2.08086c4.41546,2.92621 10.26128,4.68193 17.28871,5.07209c3.29605,0.19508 6.03239,0.45519 6.03239,0.52021c0,0.13005 -0.99503,1.6907 -2.17664,3.57647c-1.99007,3.12129 -3.42043,6.82781 -3.42043,9.10375c0,1.30054 -4.10451,5.3322 -6.40553,6.37263c-2.23883,1.04043 -6.34334,0.9754 -9.26625,-0.13005l0,-0.00001z" stroke="null"/>
                    <path fill="#ffff00" id="svg_87" d="m24114.49308,-16809.69564c-2.42539,-0.78032 -6.5921,-5.13712 -6.5921,-6.89284c0,-2.34097 -1.8035,-6.95787 -3.73138,-9.49391c-1.05722,-1.30054 -1.86569,-2.53605 -1.86569,-2.6661c0,-0.13005 2.73634,-0.45519 6.09458,-0.65027c6.96523,-0.39016 12.81105,-2.14588 17.22652,-5.07209l3.10948,-2.08086l-2.79853,-1.23551c-1.55474,-0.71529 -3.29605,-1.75572 -3.91794,-2.34097c-0.6219,-0.52021 -2.92291,-1.49562 -5.22393,-2.08086c-4.04232,-1.10546 -4.04232,-1.10546 -1.8035,-1.49562c3.54481,-0.58524 6.34334,-2.79615 7.96027,-6.17755c0.80846,-1.6907 1.74131,-3.12129 2.05226,-3.18631c0.37314,-0.06503 1.67912,-0.58524 3.04729,-1.17048l2.3632,-1.04043l-1.24379,2.14588c-0.68409,1.17048 -1.49255,3.25134 -1.67912,4.68193l-0.49752,2.47102l2.05226,-0.45519l1.99007,-0.45519l-1.24379,1.82075l-1.30598,1.88578l1.49255,4.55188c1.30598,3.83658 1.55474,5.78739 1.55474,12.55017c0,8.90867 -0.87065,11.83488 -4.1667,14.3059c-3.29605,2.47102 -8.83092,3.31637 -12.87324,2.08086l-0.00001,0.00001z" stroke="null"/>
                    <path fill="#ffff00" id="svg_86" d="m23865.3616,-16861.19687c2.11445,-7.67316 7.08961,-14.3059 11.62945,-15.60643c5.03736,-1.36556 13.55733,0.9754 13.55733,3.83658c0,0.78032 0.55971,3.05626 1.1816,5.07209c0.68409,1.9508 1.05722,3.51145 0.80846,3.38139c-8.64435,-4.74696 -12.31354,-5.3322 -17.16433,-2.86118c-1.86569,0.9754 -3.79356,2.47102 -4.35327,3.38139c-0.55971,0.84535 -1.30598,1.43059 -1.61693,1.23551c-0.24876,-0.19508 -1.43036,0.45519 -2.48758,1.43059l-2.05226,1.75572l0.49752,-1.62567l0.00001,0.00001z" stroke="null"/>
                    <path fill="#ffff00" id="svg_85" d="m24183.89666,-16859.5712c-0.49752,-0.52021 -1.30598,-1.04043 -1.74131,-1.17048c-0.43533,-0.13005 -1.92788,-1.30054 -3.35824,-2.6661c-5.22393,-4.94204 -10.57223,-4.81198 -20.52256,0.71529c-0.18657,0.13005 0.12438,-1.30054 0.80846,-3.12129c0.6219,-1.75572 1.1816,-4.09669 1.1816,-5.13712c0,-1.6907 0.31095,-1.9508 4.04232,-3.25134c6.40553,-2.14588 10.19909,-1.62567 14.36579,2.14588c2.30101,2.01583 5.59706,7.93327 6.77867,11.96493c0.43533,1.62567 -0.24876,1.88578 -1.55474,0.52021l0.00001,0.00002z" stroke="null"/>
                    <path id="svg_84" d="m24184.8917,-16972.91293c-1.74131,-1.75572 -4.47765,-3.70653 -6.03239,-4.3568c-1.55474,-0.71529 -2.86072,-1.43059 -2.86072,-1.62567c0,-0.65027 2.54977,-1.23551 5.65925,-1.23551c3.04729,0 8.39559,2.92621 8.51997,4.6169c0,0.52021 0.24876,1.56064 0.43533,2.34097c0.43533,1.49562 0.43533,1.49562 -2.17664,0.52021c-3.54481,-1.30054 -3.607,-1.30054 -1.55474,0.9754c2.73634,2.99123 1.61693,2.27594 -1.99007,-1.23551l0.00001,0.00001z" stroke="null"/>
                    <path id="svg_83" d="m23867.10291,-16971.41731c1.61693,-2.01583 1.30598,-2.27594 -1.49255,-1.23551c-1.92788,0.71529 -2.48758,0.78032 -2.23883,0.13005c1.30598,-3.38139 1.36817,-3.44642 0.24876,-2.47102c-0.55971,0.45519 -1.05722,0.65027 -1.05722,0.32513c0,-0.32513 1.36817,-1.56064 3.10948,-2.79615c3.23386,-2.27594 7.58713,-3.25134 10.82099,-2.40599c2.30101,0.58524 1.99007,1.17048 -1.1816,2.60107c-1.55474,0.65027 -4.29108,2.53605 -6.09458,4.16172c-1.74131,1.6907 -2.73634,2.40599 -2.11445,1.6907z" stroke="null"/>
                    <path fill="#ffff00" id="svg_82" d="m23862.56307,-16983.5123c0,-0.13005 0.43533,-1.62567 0.93284,-3.38139c1.67912,-5.72236 4.72641,-10.14418 9.07968,-13.00536l1.61693,-1.04043l2.23883,3.51145l2.23883,3.51145l-1.61693,0.45519c-2.61196,0.65027 -6.84085,3.51145 -8.64435,5.72236c-0.93284,1.17048 -1.86569,2.01583 -2.05226,2.01583c-0.18657,-0.06503 -1.11941,0.45519 -2.05226,1.17048c-0.99503,0.71529 -1.74131,1.17048 -1.74131,1.04043l0,-0.00001z" stroke="null"/>
                    <path fill="#ffff00" id="svg_81" d="m24189.49373,-16984.81283c-0.93284,-0.71529 -1.67912,-1.10546 -1.67912,-0.91038c0,0.19508 -0.99503,-0.71529 -2.17664,-2.14588c-1.1816,-1.36556 -3.79356,-3.38139 -5.78363,-4.3568c-1.92788,-1.04043 -3.66919,-1.9508 -3.79356,-2.01583c-0.24876,-0.19508 4.35327,-7.34803 4.72641,-7.34803c0.12438,0 0.06219,0.32513 -0.12438,0.65027c-0.18657,0.39016 -0.12438,0.65027 0.18657,0.65027c1.30598,0 6.46772,5.59231 7.83589,8.38846c1.36817,2.73113 3.04729,7.93327 2.67415,8.2584c-0.06219,0.06503 -0.87065,-0.45519 -1.86569,-1.17048z" stroke="null"/>
                    <path id="svg_80" d="m23875.12536,-17016.09073c-0.74628,-0.84535 -1.92788,-3.05626 -2.54977,-4.94204l-1.1816,-3.44642l-0.93284,2.79615l-0.93284,2.86118l-0.06219,-3.96664c-0.06219,-2.14588 0.37314,-5.52728 0.93284,-7.47808l1.05722,-3.51145l0.74628,2.60107c1.05722,3.70653 2.67415,6.69776 4.04232,7.67316c0.99503,0.65027 1.24379,1.49562 1.24379,4.81198c0,2.27594 -0.24876,4.09669 -0.49752,4.09669c-0.31095,0 -1.11941,-0.65027 -1.86569,-1.49562l0,0.00002z" stroke="null"/>
                    <path id="svg_79" d="m24176.86924,-17018.62677c0,-3.57647 0.18657,-4.22674 1.8035,-5.65733c0.99503,-0.9754 2.23883,-3.18631 2.86072,-5.26717c1.11941,-3.51145 1.11941,-3.51145 1.92788,-1.9508c0.49752,0.91038 0.93284,3.96664 1.05722,6.82781c0.18657,4.68193 0.12438,5.00706 -0.6219,3.12129c-0.93284,-2.60107 -1.67912,-3.38139 -1.67912,-1.75572c-0.06219,2.6661 -3.48262,8.71359 -4.91298,8.71359c-0.24876,0 -0.49752,-1.82075 -0.43533,-4.03166l0.00001,-0.00001z" stroke="null"/>
                </g>
            </g>
        </g>
        <g id="svg_23">
            <title>Wirral Logo</title>
            <g stroke="null" transform="translate(0,117) scale(0.10000000149011612,-0.10000000149011612) " fill="#000000" id="svg_2">
                <path fill="#007f00" stroke="null" d="m1615.15652,-3117.13651c-8.43752,-4.2114 -10.78128,-10.2277 -10.78128,-27.67495l0,-22.26028l-10.78128,12.63421c-21.56256,26.47169 -42.18762,9.62607 -29.06258,-22.86191l7.96877,-19.25214l-18.2813,4.2114c-16.4063,3.00815 -18.75005,2.40652 -23.90632,-12.03259c-6.09377,-17.44725 -7.50002,-16.24399 43.12512,-36.69938c26.71882,-10.82933 27.18758,-10.82933 33.75009,0c3.28126,6.61792 5.15626,14.4391 3.28126,17.44725c-1.87501,3.60978 0,4.81303 4.68751,2.40652c18.2813,-9.02444 22.03131,0.60163 22.03131,56.55315c0,56.55315 -0.9375,58.35804 -22.03131,47.52871l0.00001,0.00001zm17.3438,-50.53686c0,-33.69124 -1.87501,-45.12219 -7.03127,-47.52871c-3.75001,-2.40652 -7.96877,-1.20326 -9.37503,1.80489c-1.40625,3.60978 -7.03127,8.42281 -11.71878,12.03259c-8.43752,5.41466 -8.43752,4.81303 -3.75001,-12.63421c2.81251,-10.2277 3.28126,-20.45539 0.9375,-23.46354c-4.68751,-6.01629 -67.50019,16.24399 -67.50019,23.46354c0.46875,14.4391 7.96877,18.04888 24.84382,11.43096c9.37503,-3.60978 18.2813,-5.41466 19.68755,-3.60978c1.40625,1.80489 -0.9375,13.23584 -5.15626,25.26843c-11.71878,31.28472 -3.28126,40.30916 18.2813,19.25214l16.4063,-16.24399l2.81251,27.67495c2.81251,21.65865 5.15626,27.07332 12.65629,27.07332c7.96877,0 8.90627,-4.2114 8.90627,-44.52057l0,-0.00002z" id="svg_3"/>
                <path fill="#007f00" stroke="null" d="m1647.96911,-3129.1691c1.87501,-10.82933 3.28126,-35.49613 3.28126,-55.34989l0,-36.09776l14.06254,2.40652c9.37503,1.80489 13.59379,0.60163 12.65629,-4.2114c-1.40625,-3.60978 0.46875,-10.82933 3.28126,-16.24399c5.15626,-9.62607 8.43752,-9.02444 38.43761,4.81303c17.81255,8.42281 35.15635,16.24399 38.43761,17.44725c4.68751,2.40652 4.21876,6.61792 -1.40625,21.05702c-7.03127,18.04888 -7.50002,18.04888 -21.56256,8.42281c-17.81255,-11.43096 -19.68755,-9.62607 -13.12504,15.04073c3.75001,14.4391 3.75001,21.05702 -0.46875,27.67495c-8.43752,12.63421 -14.06254,11.43096 -29.06258,-7.21955l-13.12504,-16.24399l0,25.26843c0,16.24399 -2.34376,25.26843 -5.62502,25.26843c-3.28126,0 -11.25003,1.80489 -17.3438,4.2114c-10.78128,3.60978 -11.25003,2.40652 -8.43752,-16.24399l-0.00001,0z" id="svg_4"/>
                <path fill="#007f00" stroke="null" d="m1725.31307,-3247.69006c-20.15631,-7.82118 -36.5626,-17.44725 -36.5626,-21.05702c0,-3.60978 3.28126,-12.03259 7.96877,-18.04888c6.56252,-9.62607 6.56252,-10.82933 0.46875,-10.82933c-4.21876,0 -9.84378,-4.2114 -13.12504,-9.02444c-4.68751,-7.21955 -1.40625,-16.24399 19.2188,-51.13849l25.31257,-42.11405l11.25003,14.4391l11.25003,14.4391l-10.78128,17.44725l-10.31253,16.84562l19.2188,1.80489c10.78128,1.20326 19.2188,4.2114 19.2188,7.21955c0,2.40652 1.40625,9.02444 2.81251,14.4391c1.87501,6.01629 -2.34376,12.03259 -13.12504,19.25214l-15.46879,10.2277l15.46879,9.62607c12.18753,7.21955 15.00004,12.03259 14.06254,24.06517c-0.9375,7.82118 -3.28126,15.04073 -6.09377,16.24399c-2.34376,0.60163 -21.09381,-5.41466 -40.78136,-13.83747l0.00002,0z" id="svg_11"/>
                <path fill="#007f00" stroke="null" d="m1520,-3255.51124c0,-15.64236 2.34376,-18.65051 14.06254,-21.65865c17.81255,-4.81303 17.81255,-10.2277 0,-26.47169c-12.18753,-10.82933 -13.12504,-14.4391 -8.43752,-27.07332c4.21876,-12.03259 7.50002,-13.83747 20.62506,-10.82933c16.87505,3.60978 20.62506,-3.60978 8.90627,-16.24399c-3.75001,-4.2114 -7.03127,-10.82933 -7.03127,-15.04073c0,-7.82118 17.81255,-30.68309 20.62506,-26.47169c0.9375,1.20326 11.71878,19.85377 23.90632,40.91079c17.3438,30.08146 21.09381,40.91079 17.3438,48.13034c-2.34376,5.41466 -8.43752,8.42281 -13.12504,7.82118c-7.03127,-1.80489 -7.50002,-0.60163 -2.34376,7.21955c11.71878,18.04888 3.75001,28.27658 -32.34384,43.31731c-19.2188,7.82118 -36.5626,14.4391 -38.43761,14.4391c-2.34376,0 -3.75001,-8.42281 -3.75001,-18.04888l0,0.00001z" id="svg_12"/>
                <path fill="#007f00" stroke="null" d="m1656.40663,-3333.12142c-7.96877,-10.2277 -9.84378,-10.82933 -15.00004,-3.00815c-2.81251,4.81303 -7.96877,8.42281 -10.78128,8.42281c-6.09377,0 -49.68764,-72.79714 -49.68764,-82.42321c0,-5.41466 23.43757,-22.26028 25.78132,-18.65051c0.9375,1.20326 5.62502,10.82933 10.78128,22.26028l9.37503,20.45539l5.62502,-25.26843c4.68751,-21.65865 6.56252,-24.6668 18.75005,-24.6668c13.12504,0 14.06254,1.80489 14.06254,21.05702c0,24.6668 5.15626,27.07332 15.93754,6.01629c8.43752,-16.84562 15.93754,-18.65051 28.12508,-7.21955c7.96877,7.82118 7.03127,10.82933 -15.93754,51.13849c-13.59379,24.06517 -25.31257,43.31731 -26.25007,43.31731c-0.9375,0 -6.09377,-5.41466 -10.78128,-11.43096l-0.00001,0.00002z" id="svg_13"/>
            </g>
        </g>
    </g>
</svg>