<?xml version="1.0" encoding="UTF-8" standalone="no"?>
<svg
   xmlns:svg="http://www.w3.org/2000/svg"
   xmlns="http://www.w3.org/2000/svg"
   width="102.23937"
   height="100"
   id="svg3433"
   version="1.1"
   >

  <g

     id="layer1"
     transform="translate(-356.86786,-450.09729)">
    <g
       id="g15077"
       transform="matrix(33.264643,7.2065469,7.2065469,-33.264643,-3118.3135,7341.9771)"
       style="fill:#f15b2b;fill-opacity:1">
      <g
         transform="translate(59.681,219.339)"
         id="g3946"
         style="fill:#f15b2b;fill-opacity:1">
        <path
           id="path3948"
           style="fill:#f15b2b;fill-opacity:1;fill-rule:nonzero;stroke:none"
           d="m 0,0 c -0.102,0.475 -0.85,0.328 -0.85,0.328 l -1.584,-0.34 0.235,-1.094 c 0.147,-0.684 0.832,-0.575 0.832,-0.575 l 0.5,0.107 c 0.09,0.019 0.149,0.108 0.129,0.199 l -0.043,0.203 c -0.02,0.091 -0.11,0.148 -0.2,0.129 l -0.281,-0.061 c -0.242,-0.052 -0.282,0.134 -0.282,0.134 l -0.134,0.624 0.81,0.174 c 0.27,0.058 0.318,-0.191 0.318,-0.191 0.02,-0.091 0.109,-0.151 0.199,-0.132 l 0.275,0.06 c 0.091,0.019 0.146,0.11 0.127,0.201 L 0,0 z m 0.193,-0.962 c -0.02,0.091 -0.109,0.148 -0.199,0.128 l -0.387,-0.083 c -0.091,-0.019 -0.148,-0.108 -0.129,-0.199 l 0.044,-0.203 c 0.02,-0.09 0.108,-0.148 0.199,-0.129 l 0.387,0.084 c 0.09,0.019 0.148,0.108 0.129,0.198 l -0.044,0.204 z m -2.957,1.137 2.052,0.441 C -0.317,0.701 0.228,0.54 0.324,0.097 l 0.191,-0.89 C 0.6,-1.189 0.371,-1.573 -0.025,-1.658 l -1.422,-0.305 c -0.395,-0.085 -0.888,0.143 -0.973,0.539 l -0.344,1.599"
            />
      </g>
      <g
         transform="translate(57.465,217)"
         id="g3950"
         style="fill:#f15b2b;fill-opacity:1">
        <path
           id="path3952"
           style="fill:#f15b2b;fill-opacity:1;fill-rule:nonzero;stroke:none"
           d="m 0,0 0.309,0.066 c 0,0 0.147,0.027 0.167,-0.066 L 0.486,-0.045 0.368,-0.07 c 0,0 -0.009,0.048 -0.062,0.037 L 0.148,-0.067 0.174,-0.189 c 0,0 0.008,-0.037 0.055,-0.026 l 0.116,0.025 c 0,0 0.047,0.007 0.037,0.049 l 0.121,0.026 0.008,-0.04 c 0,0 0.01,-0.106 -0.098,-0.129 L 0.209,-0.328 c 0,0 -0.134,-0.021 -0.162,0.112 L 0,0"
           />
      </g>
      <g
         transform="translate(58.277,216.962)"
         id="g3954"
         style="fill:#f15b2b;fill-opacity:1">
        <path
           id="path3956"
           style="fill:#f15b2b;fill-opacity:1;fill-rule:nonzero;stroke:none"
           d="m 0,0 -0.126,-0.027 c -0.037,-0.008 -0.031,-0.035 -0.031,-0.035 l 0.006,-0.028 c 0.005,-0.025 0.052,-0.012 0.052,-0.012 l 0.155,0.033 -0.01,0.051 C 0.039,0.01 0,0 0,0 m -0.292,0.033 -0.007,0.033 c 0,0 -0.024,0.077 0.051,0.093 l 0.221,0.047 c 0,0 0.146,0.038 0.169,-0.065 l 0.054,-0.255 -0.332,-0.071 c 0,0 -0.115,-0.029 -0.129,0.035 0,0 -0.014,0.065 -0.017,0.081 -0.004,0.016 -0.001,0.076 0.059,0.089 0.06,0.013 0.244,0.052 0.244,0.052 0,0 0.003,0.059 -0.067,0.043 L -0.131,0.097 c 0,0 -0.044,-0.004 -0.037,-0.038 L -0.292,0.033"
            />
      </g>
      <g
         transform="translate(58.754,217.276)"
         id="g3958"
         style="fill:#f15b2b;fill-opacity:1">
        <path
           id="path3960"
           style="fill:#f15b2b;fill-opacity:1;fill-rule:nonzero;stroke:none"
           d="m 0,0 0.021,-0.095 -0.14,-0.031 c 0,0 -0.052,-0.01 -0.042,-0.061 l 0.045,-0.206 -0.128,-0.027 c 0,0 -0.052,0.239 -0.055,0.254 -0.006,0.027 0.005,0.103 0.118,0.127 L 0,0"
            />
      </g>
      <g
         transform="translate(59.6,217.458)"
         id="g3962"
         style="fill:#f15b2b;fill-opacity:1">
        <path
           id="path3964"
           style="fill:#f15b2b;fill-opacity:1;fill-rule:nonzero;stroke:none"
           d="m 0,0 0.021,-0.096 -0.14,-0.03 c 0,0 -0.053,-0.01 -0.042,-0.06 l 0.045,-0.207 -0.129,-0.027 c 0,0 -0.051,0.239 -0.054,0.254 -0.006,0.028 0.004,0.103 0.118,0.127 L 0,0"
            />
      </g>
      <g
         transform="translate(59.176,217.134)"
         id="g3966"
         style="fill:#f15b2b;fill-opacity:1">
        <path
           id="path3968"
           style="fill:#f15b2b;fill-opacity:1;fill-rule:nonzero;stroke:none"
           d="m 0,0 c 0.002,-0.013 -0.004,-0.032 -0.027,-0.037 -0.024,-0.006 -0.12,-0.026 -0.134,-0.029 -0.012,-0.003 -0.043,0 -0.053,0.021 L -0.23,0.029 c -0.005,0.027 -0.01,0.051 -0.01,0.051 0,0 0.142,0.03 0.155,0.033 0.014,0.003 0.059,0.004 0.065,-0.021 C -0.014,0.066 -0.003,0.013 0,0 M -0.086,0.215 C -0.118,0.208 -0.193,0.192 -0.262,0.177 l -0.015,0.071 -0.13,-0.027 0.016,-0.074 -0.001,0 c 0,0 0.033,-0.153 0.054,-0.251 0.021,-0.098 0.144,-0.073 0.144,-0.073 0,0 0.148,0.032 0.242,0.052 0.093,0.02 0.087,0.111 0.084,0.122 C 0.13,0.008 0.099,0.153 0.099,0.153 0.082,0.231 -0.023,0.228 -0.086,0.215"
            />
      </g>
      <g
         transform="translate(59.839,217.141)"
         id="g3970"
         style="fill:#f15b2b;fill-opacity:1">
        <path
           id="path3972"
           style="fill:#f15b2b;fill-opacity:1;fill-rule:nonzero;stroke:none"
           d="M 0,0 -0.13,-0.028 -0.206,0.324 -0.076,0.352 0,0"
            />
      </g>
      <g
         transform="translate(60.462,217.276)"
         id="g3974"
         style="fill:#f15b2b;fill-opacity:1">
        <path
           id="path3976"
           style="fill:#f15b2b;fill-opacity:1;fill-rule:nonzero;stroke:none"
           d="M 0,0 -0.13,-0.028 -0.206,0.324 -0.076,0.352 0,0"
            />
      </g>
      <g
         transform="translate(60,217.176)"
         id="g3978"
         style="fill:#f15b2b;fill-opacity:1">
        <path
           id="path3980"
           style="fill:#f15b2b;fill-opacity:1;fill-rule:nonzero;stroke:none"
           d="m 0,0 -0.13,-0.028 -0.076,0.352 c 0,0 0.228,0.049 0.269,0.058 C 0.104,0.39 0.228,0.399 0.245,0.319 0.262,0.239 0.3,0.065 0.3,0.065 L 0.175,0.038 c 0,0 -0.039,0.183 -0.043,0.202 C 0.127,0.259 0.113,0.282 0.065,0.272 0.018,0.261 -0.053,0.246 -0.053,0.246 L 0,0"
            />
      </g>
    </g>
  </g>
</svg>
