<svg width="615" height="769" xmlns="http://www.w3.org/2000/svg" preserveAspectRatio="xMidYMid meet">
    <metadata>Created by potrace 1.16, written by Peter Selinger 2001-2019</metadata>

    <g>
        <title>background</title>
        <rect fill="none" id="canvas_background" height="602" width="802" y="-1" x="-1"/>
    </g>
    <g>
        <title>Crest</title>
        <g id="svg_1" fill="#000000" transform="translate(0,769) scale(0.10000000149011612,-0.10000000149011612) ">
            <path fill="#ff0000" id="svg_2" d="m4040,7100c0,-36 38,-165 64,-216c30,-59 90,-119 153,-153c50,-28 181,-68 220,-68c13,0 23,-4 23,-8c0,-11 -91,-32 -139,-32c-56,0 -138,45 -174,96c-30,42 -31,43 -50,26c-38,-34 -46,-64 -45,-183c0,-84 -4,-124 -16,-151c-13,-29 -15,-61 -12,-156l4,-119l-91,23c-88,22 -228,74 -251,93c-6,5 -83,45 -171,89c-230,115 -327,142 -502,142c-176,0 -308,-41 -559,-174c-176,-93 -239,-120 -345,-146c-46,-12 -89,-23 -95,-25c-8,-2 -10,33 -7,121c3,100 0,130 -13,155c-12,23 -16,60 -16,147c0,118 -5,139 -41,179l-20,22l-28,-39c-37,-51 -121,-100 -174,-100c-45,0 -145,21 -145,31c0,3 19,9 43,12c76,11 172,46 233,85c93,60 159,176 179,315c6,39 5,47 -9,47c-9,0 -16,-6 -16,-12c0,-29 -51,-120 -91,-163c-76,-82 -162,-118 -372,-155c-65,-12 -136,-28 -158,-35c-65,-23 -154,-74 -184,-105l-26,-27l27,-22c15,-11 38,-22 53,-22c54,-3 56,-4 53,-26c-5,-36 17,-102 38,-113c11,-6 20,-19 20,-30c0,-10 9,-25 21,-33c21,-15 21,-15 -10,-57c-23,-32 -31,-54 -31,-84c0,-62 11,-71 42,-32l27,33l-25,11c-23,11 -35,52 -14,52c23,0 88,-73 114,-128l29,-60l-30,-39c-64,-80 -103,-194 -103,-297l0,-56l-50,25c-27,14 -79,52 -115,86c-36,34 -65,56 -65,49c0,-6 -23,-34 -51,-61c-44,-42 -51,-54 -47,-79c6,-38 -2,-38 -40,1c-38,39 -59,82 -68,138l-7,42l-19,-43c-36,-81 -87,-118 -162,-118c-39,0 -52,-6 -87,-37c-22,-20 -47,-49 -55,-65c-17,-32 -30,-36 -37,-10c-3,9 -6,1 -7,-18c-3,-51 1,-90 11,-118c10,-25 10,-24 38,19c44,70 85,99 137,99c73,0 121,35 161,114l20,39l5,-31c3,-25 -3,-42 -27,-77c-32,-45 -67,-118 -100,-210c-13,-37 -38,-69 -96,-127l-79,-77l0,-64c0,-70 -27,-172 -59,-224c-20,-31 -20,-32 0,-56c23,-31 24,-41 3,-76c-16,-28 -16,-29 35,-103c51,-76 123,-219 136,-271c7,-26 9,-27 25,-12c17,15 18,12 30,-51l13,-67l16,34c33,66 55,91 108,121c30,17 64,44 76,59l21,29l18,-60c19,-61 19,-61 -6,-196c-14,-75 -28,-179 -31,-232c-5,-107 -5,-107 36,118c12,63 22,116 23,117c2,2 17,-19 34,-45c41,-64 107,-124 171,-157l51,-25l0,-369l0,-369l-30,-7c-23,-5 -37,-1 -65,22c-19,15 -35,34 -35,41c0,9 -9,8 -32,-5c-37,-19 -147,-24 -210,-9l-38,8l0,-66c0,-52 3,-66 15,-66c12,0 15,-19 15,-111c0,-109 0,-111 -29,-140c-33,-33 -60,-36 -96,-13c-27,17 -32,43 -15,74c10,19 12,18 41,-8c17,-15 39,-30 50,-34c17,-7 19,-2 19,47c0,29 3,61 6,70c4,9 3,15 -2,14c-21,-4 -36,3 -69,32c-50,44 -82,103 -103,190l-19,74l-6,-55c-4,-31 -14,-77 -23,-103c-14,-40 -18,-46 -31,-35c-20,17 -63,103 -63,128c0,11 -5,20 -11,20c-8,0 -9,-20 -4,-66c10,-94 31,-160 64,-197l29,-31l21,68c12,37 21,80 22,95c0,17 8,2 24,-44c12,-38 26,-78 30,-87c5,-13 -1,-19 -34,-28c-50,-13 -100,-54 -117,-97c-17,-40 -19,-245 -3,-294c23,-67 95,-122 178,-135c37,-6 41,-9 42,-38c9,-241 32,-336 110,-457l33,-52l17,40c31,73 140,143 221,143c25,0 28,3 23,20c-10,32 -8,104 3,108c6,2 9,9 6,17c-3,7 10,31 30,52l35,38l1,-66c0,-149 44,-432 86,-564c34,-105 86,-187 179,-281c157,-158 305,-251 544,-340c124,-46 126,-49 23,-34c-37,5 -156,14 -265,20c-134,7 -207,15 -225,24c-31,17 -67,60 -107,131c-42,73 -92,133 -128,152c-39,20 -152,21 -194,1c-17,-8 -38,-33 -55,-67c-26,-51 -28,-62 -28,-186l0,-131l-40,-67l-41,-68l22,-39c22,-39 22,-40 4,-60c-18,-19 -18,-22 -2,-56c28,-57 103,-130 161,-155c53,-24 53,-24 68,-89c29,-123 76,-220 138,-282c87,-87 147,-89 271,-8c33,21 74,42 92,45c65,13 125,36 142,55c17,19 17,22 1,62c-16,42 -16,44 4,60c15,12 18,23 14,46l-6,30l63,-15c158,-36 358,-112 550,-209c187,-93 350,-127 502,-104c102,15 183,44 347,123c212,102 411,174 533,194c38,6 40,5 34,-18c-4,-16 0,-30 13,-44c18,-19 18,-23 4,-63c-8,-24 -12,-48 -9,-53c10,-16 77,-46 130,-58c28,-7 83,-32 124,-56c41,-25 90,-48 109,-51c114,-22 222,101 285,325l24,83l57,31c62,33 152,124 162,162c3,14 0,33 -10,46c-14,20 -13,25 5,61l20,39l-38,62l-38,62l-1,120c-1,136 -7,174 -38,227c-26,47 -59,61 -145,62c-59,0 -75,-4 -111,-28c-24,-16 -57,-52 -78,-87c-68,-109 -122,-180 -147,-189c-14,-5 -134,-16 -268,-25c-133,-8 -255,-18 -272,-21c-51,-11 -25,3 85,44c234,88 379,179 535,336c135,136 172,213 220,450c32,161 45,272 45,375l0,85l30,-29c30,-29 64,-111 56,-136c-2,-8 -7,-26 -10,-41c-6,-26 -4,-28 23,-28c17,0 55,-9 85,-20c60,-23 131,-90 142,-136l7,-27l19,24c32,41 75,132 97,204c22,74 29,136 30,248c1,60 3,67 21,67c30,0 111,30 142,53c54,40 68,88 68,231c0,112 -3,133 -21,166c-20,36 -81,80 -110,80c-34,1 -42,16 -25,48c9,17 21,55 28,84l11,53l12,-55c6,-30 17,-72 24,-93c13,-38 13,-38 33,-20c45,41 84,172 76,254c-3,33 -4,33 -20,-21c-10,-30 -30,-71 -46,-90l-29,-34l-17,56c-9,31 -19,78 -23,103l-6,47l-18,-70c-29,-116 -78,-190 -143,-217c-31,-13 -31,-14 -28,-78c4,-74 15,-78 70,-27c34,31 52,24 52,-21c0,-30 -35,-59 -70,-59c-12,0 -35,13 -51,29c-29,29 -29,31 -29,140c0,92 3,111 15,111c12,0 15,14 15,66l0,67l-32,-9c-18,-5 -67,-9 -108,-9c-59,0 -83,5 -111,21c-33,20 -36,20 -32,4c8,-29 -56,-72 -96,-64l-31,7l0,368l0,369l51,26c64,32 143,104 177,163l26,45l9,-33c4,-18 19,-94 33,-169l24,-137l-5,100c-2,55 -16,159 -30,231c-23,122 -24,134 -10,174c8,23 15,51 15,62c0,16 6,13 38,-18c20,-20 59,-51 87,-68c37,-23 56,-45 76,-85l27,-54l12,59c7,33 14,62 16,66c3,4 21,-10 42,-31c20,-20 26,-25 14,-10c-18,20 -22,33 -17,51c19,60 81,179 132,256l56,84l-17,36c-17,34 -16,36 2,62l20,27l-28,59c-33,69 -50,144 -50,217c0,53 0,53 -68,113c-72,65 -84,85 -132,207c-16,43 -46,102 -65,131c-23,35 -35,64 -35,87l1,34l21,-40c42,-81 89,-115 162,-115c39,0 52,-6 86,-36c22,-20 49,-51 61,-70c12,-20 23,-33 25,-31c12,12 23,116 15,142c-5,17 -10,22 -10,13c-1,-26 -14,-22 -34,11c-9,15 -35,45 -57,65c-34,30 -47,36 -86,36c-25,0 -58,7 -74,15c-35,18 -75,69 -92,116l-12,34l-8,-44c-11,-62 -45,-127 -79,-152l-29,-20l0,32c0,25 -10,41 -44,73c-23,23 -46,50 -50,60c-6,17 -13,13 -64,-36c-50,-49 -147,-118 -166,-118c-3,0 -6,29 -6,64c0,104 -48,232 -114,304l-21,23l34,64c31,60 80,116 113,127c10,4 7,12 -10,30l-23,26l25,25c14,15 26,33 26,42c0,8 5,15 11,15c15,0 39,63 39,103c0,31 2,33 36,34c40,1 79,25 102,63c13,22 12,23 -1,7c-13,-16 -15,-16 -28,0c-23,27 -110,78 -172,101c-31,12 -110,31 -175,42c-210,37 -295,73 -372,156c-38,42 -90,133 -90,160c0,7 -7,14 -15,18c-11,4 -15,-1 -15,-17zm-855,-806c30,-7 30,-7 -26,-33c-66,-30 -132,-86 -149,-127c-13,-32 -40,-41 -122,-41c-79,0 -145,39 -163,98c-6,20 0,26 57,52c35,16 88,36 118,44c56,15 230,19 285,7zm163,-61c58,-29 100,-60 152,-112c83,-83 83,-84 -28,-118c-85,-27 -200,-26 -283,0c-70,22 -157,72 -166,95c-7,19 36,75 83,112c32,24 122,62 150,63c7,0 48,-18 92,-40zm-638,-64c0,-24 77,-85 116,-92c20,-4 67,-4 105,-1c67,6 70,5 126,-33c96,-63 169,-83 293,-78c84,4 118,10 169,32c72,29 66,32 107,-47c59,-114 79,-281 49,-421c-25,-117 -77,-209 -176,-308c-84,-84 -119,-106 -119,-73c0,27 -40,95 -82,141l-41,45l27,28c40,42 19,46 -27,5c-86,-78 -213,-115 -340,-100c-53,7 -56,9 -71,47c-10,24 -16,70 -16,119c0,83 -14,108 -22,43c-6,-39 5,-134 17,-165c5,-12 2,-18 -8,-18c-25,0 -149,67 -212,114c-33,25 -62,41 -63,35c-8,-22 149,-125 253,-166c62,-24 84,-27 186,-28c112,0 117,1 187,36l72,35l39,-40c22,-23 52,-68 67,-100c32,-71 33,-70 -89,-111c-465,-155 -924,257 -822,739c27,128 117,274 216,353c41,32 59,35 59,9zm-282,-302c-18,-49 -22,-82 -22,-196l-1,-136l-37,-6c-51,-8 -88,7 -88,38c0,36 38,153 72,221c31,61 89,148 95,142c2,-2 -7,-30 -19,-63zm1282,6c59,-87 120,-240 120,-301c0,-37 -30,-53 -81,-45c-35,6 -39,4 -39,-14c0,-26 37,-100 50,-100c6,0 10,-5 10,-11c0,-7 -11,-9 -30,-5c-36,7 -37,-2 -11,-60c31,-68 81,-97 195,-112l57,-7l24,-58c12,-31 35,-73 49,-92c14,-18 26,-36 26,-39c0,-3 -199,-6 -442,-5c-438,0 -442,0 -388,18c177,56 338,201 407,366c67,158 70,367 9,508c-16,35 4,15 44,-43zm-1286,-385c4,-19 25,-71 48,-117c73,-147 227,-278 388,-329c54,-18 50,-18 -388,-18c-352,-1 -442,2 -435,12c51,83 75,128 83,157c9,34 12,36 44,32c43,-5 135,21 170,49c28,22 66,87 66,114c0,13 -6,15 -31,10l-32,-7l27,34c14,19 29,49 32,66c8,42 20,41 28,-3zm-994,-340c29,-19 45,-35 35,-35c-12,0 -15,-5 -10,-20c5,-16 2,-20 -15,-20c-21,0 -22,-1 -6,-25l16,-25l-35,0l-35,0l0,-122l0,-123l-21,25c-11,14 -29,42 -40,63l-20,38l30,46c33,50 55,135 49,194c-2,22 -3,39 -2,39c1,0 25,-16 54,-35zm3305,-33c0,-70 13,-113 53,-174l23,-36l-20,-39c-11,-21 -29,-49 -40,-63l-21,-25l0,123l0,122l-37,0c-34,0 -35,1 -20,18c22,24 21,32 -4,32c-16,0 -19,4 -14,20c5,15 2,20 -10,20c-14,0 67,65 85,69c3,1 5,-29 5,-67zm-2115,-732l0,-600l-150,0l-150,0l0,-25l0,-25l-445,0l-445,0l0,23c-1,18 0,1216 0,1225c0,1 268,2 595,2l595,0l0,-600zm2065,-25l0,-620l-447,-3l-448,-2l0,25l0,25l-150,0l-150,0l0,600l0,600l598,-2l597,-3l0,-620zm-1548,534c84,-41 128,-156 121,-311c-5,-107 -14,-120 -57,-81l-32,28l21,40c17,32 20,50 14,90c-16,125 -74,204 -149,205c-53,0 -91,-34 -133,-120c-23,-49 -26,-67 -27,-160c0,-124 7,-142 109,-264c36,-43 70,-95 76,-115c5,-20 10,-120 10,-223l0,-188l-30,0l-30,0l0,180c0,209 -4,226 -81,307c-87,92 -125,206 -116,349c8,130 61,223 152,265c53,24 99,24 152,-2zm631,-1776c-3,-639 -4,-649 -25,-706c-99,-261 -303,-433 -613,-518l-79,-22l-103,33c-259,82 -443,223 -537,413c-70,142 -71,146 -71,835l0,612l715,0l716,0l-3,-647zm-1445,-423c4,-212 5,-229 30,-298c41,-114 83,-180 179,-276l88,-89l0,-403c0,-222 -2,-404 -5,-404c-3,0 -33,11 -67,24c-35,14 -162,62 -283,106c-314,116 -464,206 -621,371c-101,106 -147,195 -186,358c-18,76 -22,130 -27,463l-6,378l440,2c242,2 443,1 447,-2c3,-3 8,-106 11,-230zm2367,-43c0,-419 -25,-602 -106,-766c-65,-132 -249,-303 -437,-405c-61,-33 -630,-256 -654,-256c-1,0 -3,182 -3,405l0,405l32,27c91,78 166,174 208,266c51,113 60,171 60,394l0,203l443,2c243,2 445,2 450,0c4,-2 7,-126 7,-275zm-1593,-986c-4,-181 -18,-266 -42,-266c-25,0 -38,84 -43,266l-4,186l47,0l48,0l-6,-186zm-1807,-281c32,-45 95,-77 225,-115c145,-43 275,-62 520,-75c284,-15 372,-37 665,-165c336,-147 370,-147 680,-13c337,146 398,161 745,183c256,16 301,22 460,67c174,48 233,85 260,165l14,38l16,-38c12,-30 15,-67 14,-160c-2,-129 5,-157 63,-240l20,-28l-36,-55c-20,-30 -55,-68 -79,-85c-105,-78 -204,-98 -532,-109c-274,-10 -320,-17 -506,-80c-108,-37 -331,-131 -354,-151c-24,-18 -175,-77 -243,-94c-57,-14 -99,-16 -195,-13c-140,6 -213,25 -347,93c-223,112 -459,199 -622,230c-51,9 -139,15 -238,15c-383,0 -554,52 -645,195l-35,54l30,44c48,71 53,94 54,232c1,87 6,140 15,160l14,30l7,-27c5,-15 18,-41 30,-58zm725,-762l27,-61l-23,-19c-13,-10 -49,-25 -79,-34c-30,-8 -66,-20 -79,-25l-24,-10l26,33c43,52 86,130 93,166c8,43 23,31 59,-50zm2184,-47c17,-26 40,-56 51,-66c30,-27 24,-34 -17,-19c-21,7 -44,13 -52,14c-8,0 -35,10 -59,21c-42,21 -44,24 -39,56c3,19 18,55 33,81l27,46l12,-42c7,-23 27,-64 44,-91z"/>
            <path id="svg_3" d="m3000,5810l0,-100l-30,0c-20,0 -30,5 -30,15c0,23 -47,19 -60,-5c-6,-12 -21,-20 -35,-20c-14,0 -29,-8 -35,-20c-9,-17 -18,-18 -97,-13l-87,6l22,-29c12,-16 35,-46 50,-66l27,-38l385,0l385,0l25,38c14,20 27,40 28,45c2,4 -28,7 -67,7c-64,0 -71,2 -71,20c0,13 -7,20 -20,20c-11,0 -20,7 -20,15c0,11 -19,15 -87,17l-88,3l-9,38c-8,29 -14,37 -33,37c-23,0 -32,23 -13,35c6,3 10,13 10,21c0,29 -53,12 -75,-23c-11,-18 -23,-32 -27,-33c-5,0 -8,29 -8,65c0,58 -2,65 -20,65c-19,0 -20,-7 -20,-100z"/>
            <path fill="#ff0000" id="svg_4" d="m2560,4800c-14,-4 -91,-8 -171,-9c-145,-1 -146,-1 -186,-30c-25,-18 -46,-45 -57,-71c-24,-61 -9,-83 94,-140c90,-50 180,-122 180,-146c0,-29 -43,-42 -153,-46l-108,-3l-20,33c-18,27 -19,32 -5,32c13,0 14,4 4,25c-8,19 -8,29 -1,36c8,8 8,18 0,36c-9,19 -8,27 4,34c11,8 11,12 1,16c-7,3 -30,20 -50,39c-30,27 -45,34 -78,34c-23,0 -56,6 -75,14c-42,18 -81,7 -118,-33c-15,-16 -46,-34 -69,-40c-95,-26 -98,-133 -6,-209c31,-26 34,-32 25,-51c-15,-26 -20,-26 -62,2c-29,20 -34,29 -37,70c-4,59 -27,77 -98,77c-45,0 -56,-4 -73,-26c-25,-32 -29,-108 -6,-121c8,-5 42,-45 76,-88c33,-44 81,-103 105,-132c24,-28 44,-56 44,-63c0,-6 -19,-43 -41,-81c-28,-47 -47,-69 -60,-69c-43,0 -88,-29 -108,-68c-29,-56 -18,-62 117,-62l114,0l74,78c58,60 73,84 74,107c0,25 6,33 32,43c17,6 32,11 33,9c0,-1 6,-15 13,-30c7,-16 21,-31 32,-34c20,-5 34,-29 25,-44c-3,-4 -36,-18 -73,-29c-70,-22 -82,-31 -82,-67c0,-18 7,-23 45,-28c24,-4 82,-5 127,-2c46,3 133,6 194,6c109,0 111,1 160,34c95,65 145,155 148,269l1,53l-52,-2c-29,-1 -53,-1 -53,1c0,2 13,29 29,59c16,30 32,75 36,99c4,23 18,55 30,70c15,17 21,35 18,48c-8,31 -81,100 -157,150c-80,52 -75,60 42,60c80,0 142,15 156,39c4,6 -2,26 -13,45c-27,43 -26,62 4,91c25,26 19,29 -25,15z"/>
            <path fill="#007f00" id="svg_5" d="m4020,4849c-32,-13 -78,-57 -95,-90c-11,-21 -19,-24 -47,-21c-57,6 -115,-15 -144,-53c-20,-27 -26,-46 -26,-90l-1,-55l-49,-27c-81,-44 -106,-110 -72,-191l15,-37l20,25c14,16 19,19 15,8c-6,-21 5,-23 22,-6c7,7 12,10 13,7c9,-47 -2,-57 -34,-31c-18,16 -34,-2 -19,-21c5,-7 12,-36 14,-65c6,-61 29,-97 79,-127c28,-17 50,-20 131,-18l96,2l12,-29c7,-18 11,-60 8,-104c-3,-65 -8,-81 -36,-121c-17,-25 -32,-47 -32,-48c0,-1 88,-1 195,1l196,3l-30,24c-57,48 -77,137 -48,208c11,26 23,34 61,45c25,6 63,27 83,45c36,33 36,33 85,21c98,-26 158,27 158,139c0,25 10,62 25,91c14,27 25,61 25,75c0,37 -32,84 -74,110c-30,19 -36,28 -36,57c0,69 -45,120 -128,145c-34,10 -46,20 -57,46c-17,40 -54,57 -110,49c-29,-3 -48,1 -71,15c-38,23 -110,33 -144,18zm3,-766c4,-3 2,-12 -5,-20c-6,-7 -8,-16 -4,-20c3,-4 13,2 21,13c15,19 15,19 9,-1c-6,-16 -4,-18 6,-8c7,6 19,9 26,6c8,-3 14,0 14,7c0,6 4,9 10,5c16,-10 0,-33 -20,-28c-12,3 -22,-3 -31,-18c-12,-23 -12,-23 13,-7c19,13 28,14 37,5c6,-6 11,-8 11,-4c0,4 10,3 21,-4c14,-7 19,-7 15,0c-6,10 40,28 49,19c2,-2 -3,-25 -12,-51c-12,-35 -13,-57 -6,-85c5,-21 6,-47 2,-57c-4,-11 -8,-15 -8,-10c-1,6 -38,9 -96,8c-108,-2 -103,-8 -103,103c0,40 -5,81 -11,93c-10,17 -9,21 3,21c8,0 18,-4 21,-10c3,-5 11,-10 16,-10c16,0 -1,20 -25,31c-19,9 -19,9 6,6c19,-3 25,0 21,10c-5,13 9,18 20,6z"/>
            <path id="svg_6" d="m2494,3510l-61,-169l56,51c31,28 83,64 116,80c57,27 66,28 208,28l147,0l0,-55l0,-55l-182,0l-183,0l32,-20c55,-33 68,-70 68,-200l0,-115l-142,-5c-123,-4 -141,-7 -133,-20c6,-8 10,-128 10,-274c0,-228 -2,-262 -17,-278c-15,-17 -12,-18 88,-18c96,0 102,1 81,16c-21,14 -22,22 -22,146l0,131l45,-5l45,-6l0,37l0,36l-45,-3l-45,-4l0,101l0,101l58,0c32,0 63,-5 70,-12c9,-9 12,-102 12,-355c0,-362 -4,-397 -47,-422c-13,-8 24,-10 145,-11l162,0l0,-57c0,-72 -14,-122 -40,-151l-21,-22l177,0l177,0l-21,23c-11,12 -23,33 -27,47c-8,32 -12,370 -4,370c3,0 45,-49 94,-110l88,-110l41,8c52,9 89,8 151,-1l50,-8l-95,98c-52,54 -147,152 -211,218c-95,97 -118,127 -123,158c-4,20 -5,37 -2,37c2,0 15,-24 29,-52c29,-64 94,-131 162,-166c43,-23 63,-27 135,-27c75,0 91,3 137,29c29,16 62,39 74,52l22,24l-28,22c-15,12 -35,39 -45,60l-17,40l-8,-38c-16,-87 -60,-128 -138,-128c-85,0 -136,60 -145,169c-5,64 -4,65 20,65c14,0 45,7 69,15c92,33 151,93 182,186c11,31 21,44 33,44c17,0 19,-7 16,-58c-3,-54 -2,-58 24,-67c33,-13 39,-8 23,18c-10,16 -10,28 1,61c11,35 11,43 -4,65c-9,14 -30,33 -46,41c-26,13 -30,21 -30,57c0,71 -21,120 -75,173c-68,68 -127,88 -275,95l-115,5l1,50l0,50l155,0c144,0 157,-2 202,-25c27,-13 75,-48 107,-78c58,-52 59,-53 46,-20c-7,18 -34,95 -61,171c-34,98 -51,135 -58,128c-15,-15 -1009,-15 -1023,-1c-7,7 -30,-47 -70,-160zm466,-465l0,-235l-40,0l-40,0l0,235l0,235l40,0l40,0l0,-235zm399,220c55,-28 79,-128 45,-183c-9,-15 -43,-49 -76,-76c-61,-49 -118,-126 -118,-157c0,-10 -3,-20 -7,-22c-6,-4 -9,427 -4,451c3,9 137,-1 160,-13zm-399,-795c0,-273 -2,-281 -54,-219l-26,31l0,219l0,219l40,0l40,0l0,-250z"/>
            <path fill="#56aaff" id="svg_7" d="m1985,2675c-95,-96 -155,-232 -155,-354c0,-28 -2,-51 -6,-51c-3,0 -21,11 -40,24c-44,30 -87,88 -112,150l-18,48l-27,-60c-50,-112 -51,-234 -2,-317c29,-50 102,-113 164,-142c22,-10 41,-24 41,-31c0,-7 -15,-29 -34,-50c-33,-35 -38,-37 -95,-37c-34,0 -61,-2 -61,-3c0,-9 46,-70 79,-106c41,-44 107,-76 156,-76c53,0 125,28 182,71l53,39l59,-20c39,-13 87,-20 134,-20c121,0 196,50 247,162c30,67 27,78 -17,67c-74,-17 -175,-5 -216,25c-16,13 -16,15 3,58c30,69 43,176 31,255c-11,73 -53,168 -100,227l-29,36l-3,-86c-4,-77 -7,-88 -29,-106l-25,-20l-27,33c-46,55 -78,166 -91,314l-2,30l-60,-60z"/>
            <path fill="#ff0000" id="svg_8" d="m4520,2800c-19,-3 -58,-4 -87,-2c-61,6 -105,-10 -128,-45c-27,-41 -16,-64 50,-101c96,-53 129,-94 88,-106c-28,-8 -128,-10 -140,-3c-5,4 -9,31 -8,62c2,72 -25,100 -105,109c-46,5 -60,2 -90,-17c-19,-12 -44,-27 -55,-33c-32,-17 -32,-74 0,-104c23,-22 35,-60 18,-60c-21,1 -52,38 -55,65c-4,37 -43,55 -83,37c-21,-10 -25,-18 -25,-52c0,-22 3,-40 8,-40c4,0 36,-37 71,-81l64,-81l-23,-43c-16,-30 -32,-45 -51,-49c-33,-6 -59,-31 -59,-57c0,-17 8,-19 74,-19l73,0l47,50c25,27 46,56 46,64c0,7 7,17 16,20c22,8 24,8 24,-8c0,-7 10,-20 23,-29l22,-15l-35,-15c-19,-8 -43,-17 -53,-20c-11,-4 -17,-14 -15,-24c3,-16 19,-18 144,-20c133,-2 143,-1 172,21c58,43 92,106 92,175c0,20 -4,23 -31,19c-34,-5 -33,-9 -4,72c9,25 21,49 26,55c28,28 -1,73 -83,127c-21,14 -35,28 -31,31c3,4 32,7 63,7c64,0 104,20 83,41c-16,16 -17,51 -1,67c13,13 11,13 -42,2z"/>
            <path fill="#ff0000" id="svg_9" d="m4280,2119c-13,-5 -61,-9 -107,-7c-70,2 -86,0 -110,-18c-36,-27 -51,-67 -33,-89c8,-9 34,-27 59,-40c66,-34 105,-69 99,-87c-7,-18 -136,-32 -154,-17c-6,5 -10,34 -9,65c1,48 -2,58 -23,75c-14,10 -34,19 -45,19c-11,0 -35,5 -53,12c-29,10 -35,9 -64,-15c-17,-15 -38,-27 -45,-27c-23,0 -45,-30 -45,-61c0,-20 10,-40 29,-59c17,-18 25,-33 20,-41c-11,-18 -63,17 -55,37c11,30 -12,54 -52,54c-21,0 -43,-5 -50,-12c-13,-13 -17,-74 -4,-80c4,-1 36,-39 72,-82l64,-79l-25,-46c-18,-34 -32,-47 -56,-53c-34,-9 -58,-40 -49,-64c4,-10 24,-14 75,-14l69,0l46,54c25,29 46,60 46,69c0,8 7,18 16,21c22,8 24,8 24,-9c0,-8 9,-19 20,-25c29,-16 25,-27 -17,-41c-46,-14 -63,-27 -63,-45c0,-11 29,-14 148,-14l147,0l39,32c45,37 75,98 76,152c0,38 -1,38 -31,32c-27,-5 -30,-4 -24,12c4,9 14,35 22,57c7,22 19,50 25,63c17,33 -4,67 -70,111l-53,36l63,6c35,4 71,10 81,14c19,8 23,30 7,40c-15,9 -12,36 7,57c18,20 18,21 -17,7z"/>
            <path id="svg_10" d="m1396,1096c3,-8 -8,-41 -25,-75c-17,-33 -31,-69 -31,-80c0,-29 48,-63 84,-59c27,3 36,12 69,76c46,87 73,98 63,26c-3,-26 -6,-59 -6,-75c0,-15 -7,-34 -15,-42c-8,-8 -11,-17 -8,-21c11,-11 129,-6 141,6c18,18 15,75 -5,87c-10,6 -13,11 -6,11c18,0 35,38 28,60c-8,24 -67,44 -115,37c-20,-2 -45,0 -54,5c-15,9 -17,7 -12,-10c8,-25 -47,-140 -71,-149c-20,-8 -47,9 -51,31c-6,28 55,146 75,146c12,1 6,7 -17,20c-42,23 -51,24 -44,6z"/>
            <path id="svg_11" d="m4670,1065c-14,-8 -45,-17 -69,-21c-23,-4 -38,-10 -32,-13c17,-11 26,-148 11,-166c-17,-20 -56,-19 -65,2c-15,41 -18,142 -4,159c13,16 11,17 -20,11c-18,-4 -41,-7 -50,-7c-13,0 -13,-2 -2,-9c8,-6 16,-37 20,-81c6,-59 11,-76 30,-91c29,-24 62,-24 91,-1c21,17 23,26 21,100c-1,65 1,82 13,82c17,0 71,-142 62,-166c-5,-13 -2,-15 11,-9c10,4 28,10 41,12c21,5 32,23 12,23c-12,0 -44,60 -36,68c4,3 23,-10 44,-30c30,-30 41,-34 60,-27c22,8 22,9 -17,44c-35,31 -39,40 -34,69c9,56 -34,81 -87,51z"/>
            <path id="svg_12" d="m4111,1016c-55,-59 -28,-168 44,-182c70,-13 123,47 109,121c-14,78 -104,113 -153,61z"/>
            <path id="svg_13" d="m4285,1030c-3,-5 -1,-10 4,-10c7,0 11,-29 11,-77c0,-57 -4,-81 -17,-95c-15,-17 -13,-18 50,-18c46,0 70,5 81,16c22,22 20,71 -3,86c-20,12 -20,12 0,26c46,32 3,82 -70,82c-28,0 -53,-4 -56,-10z"/>
            <path id="svg_14" d="m2028,1021c12,-7 12,-21 1,-86c-8,-43 -19,-79 -26,-82c-26,-10 -12,-21 37,-27c27,-4 68,-13 91,-21c77,-28 149,18 149,94c0,46 -23,79 -66,97c-44,19 -101,19 -86,1c8,-10 6,-32 -9,-83c-23,-77 -34,-93 -50,-77c-16,16 9,163 29,171c13,4 12,7 -4,13c-27,11 -83,11 -66,0z"/>
            <path id="svg_15" d="m3930,988c-42,-12 -48,-17 -32,-27c7,-4 22,-40 33,-80c16,-57 18,-75 9,-87c-15,-17 -8,-17 43,-3c33,9 36,12 23,22c-9,7 -18,28 -22,47l-6,35l37,-43c29,-34 42,-41 59,-36c11,4 22,8 24,9c2,1 -16,21 -39,45c-30,31 -38,45 -30,53c6,6 11,20 11,32c0,43 -36,54 -110,33z"/>
            <path id="svg_16" d="m2323,945c11,-27 -34,-156 -57,-165c-23,-8 -19,-11 57,-36c58,-19 59,-19 74,1c10,14 14,15 13,5c-4,-29 0,-37 25,-48c38,-17 53,-15 80,13c32,31 32,63 -1,98c-29,31 -28,62 1,62c13,0 21,-8 23,-22c4,-28 18,-30 25,-4c7,26 -11,41 -49,41c-64,0 -84,-58 -39,-112c20,-24 23,-33 14,-49c-16,-30 -53,-21 -57,14c-4,29 -20,34 -51,15c-40,-24 -66,16 -41,63c14,25 29,24 39,-3c9,-23 9,-23 20,5c15,40 14,52 -4,37c-8,-7 -21,-10 -29,-7c-12,5 -13,11 -3,36c13,36 46,42 54,11c7,-25 19,-26 26,0c4,16 -4,22 -47,36c-28,9 -57,19 -65,22c-11,4 -13,1 -8,-13z"/>
            <path id="svg_17" d="m2664,814c6,-17 -49,-144 -69,-160c-12,-9 -2,-17 52,-41c129,-57 141,-60 164,-37c21,22 26,48 14,77c-5,12 -3,17 9,17c17,0 32,41 22,65c-6,16 -31,28 -134,69c-46,18 -62,20 -58,10z"/>
            <path id="svg_18" d="m3420,793c-28,-12 -31,-17 -18,-24c10,-5 14,-17 10,-34c-4,-25 -5,-25 -24,-9c-10,10 -16,24 -14,31c7,18 0,17 -64,-9c-69,-28 -67,-26 -47,-41c9,-6 24,-42 33,-79c15,-55 16,-69 5,-82c-16,-19 -45,-21 -59,-3c-22,27 -52,140 -40,154c13,16 6,16 -43,2c-36,-11 -37,-13 -20,-28c10,-9 25,-42 35,-73c22,-74 39,-92 84,-85c18,4 40,11 48,18c18,15 18,66 -1,119c-17,49 -19,80 -5,80c5,0 29,-14 54,-31c41,-30 44,-34 39,-68c-3,-20 -12,-47 -20,-60c-14,-23 -14,-24 3,-16c11,4 27,10 37,12c9,3 17,10 17,15c0,5 -5,6 -10,3c-15,-9 -24,23 -14,46c8,18 10,18 32,3c13,-9 21,-22 18,-30c-7,-18 3,-18 50,2c28,12 35,18 24,23c-39,15 -110,76 -105,89c3,7 5,22 5,32c0,10 7,26 16,35c23,22 15,25 -26,8z"/>
            <path fill="#ffff00" id="svg_19" d="m1258,6717c-62,-22 -89,-45 -110,-93c-18,-41 -20,-62 -16,-177c4,-109 8,-140 28,-184l23,-53l-23,-31l-22,-30l31,7c28,6 31,4 31,-17c0,-13 -9,-41 -20,-63c-11,-21 -18,-41 -15,-43c2,-3 19,1 37,9c18,8 36,13 40,12c4,-2 12,12 17,30c17,49 72,98 127,112l48,12l-43,7c-38,6 -84,26 -131,56c-8,5 -31,16 -50,23l-35,14l50,32c71,45 165,72 278,78c53,3 97,7 97,8c0,2 -16,26 -35,55c-32,48 -55,105 -55,140c0,20 -66,82 -103,98c-36,16 -102,15 -149,-2z"/>
            <path fill="#ffff00" id="svg_20" d="m4481,6671c-39,-12 -106,-79 -106,-106c0,-36 -29,-107 -60,-146c-17,-20 -30,-39 -30,-41c0,-2 44,-7 98,-10c112,-6 206,-33 277,-78l50,-32l-45,-19c-25,-11 -53,-27 -63,-36c-10,-8 -47,-23 -84,-32c-65,-17 -65,-17 -29,-23c57,-9 102,-43 128,-95c13,-26 28,-48 33,-49c6,-1 27,-9 49,-18l38,-16l-20,33c-11,18 -24,50 -27,72l-8,38l33,-7l32,-7l-20,28l-21,29l24,70c21,59 25,89 25,193c0,137 -14,182 -67,220c-53,38 -142,51 -207,32z"/>
            <path fill="#ffff00" id="svg_21" d="m475,5879c34,-118 114,-220 187,-240c81,-21 218,15 218,59c0,12 9,47 19,78c11,30 17,54 13,52c-139,-73 -198,-82 -276,-44c-30,15 -61,38 -70,52c-9,13 -21,22 -26,19c-4,-3 -23,7 -40,22l-33,27l8,-25z"/>
            <path fill="#ffff00" id="svg_22" d="m5597,5904c-8,-8 -21,-16 -28,-18c-7,-2 -31,-20 -54,-41c-84,-76 -170,-74 -330,11c-3,2 2,-20 13,-48c10,-27 19,-63 19,-79c0,-26 5,-30 65,-50c103,-33 164,-25 231,33c37,31 90,122 109,184c7,25 -4,29 -25,8z"/>
            <path id="svg_23" d="m5613,4161c-28,-27 -72,-57 -97,-67c-25,-11 -46,-22 -46,-25c0,-10 41,-19 91,-19c49,0 135,45 137,71c0,8 4,24 7,36c7,23 7,23 -35,8c-57,-20 -58,-20 -25,15c44,46 26,35 -32,-19z"/>
            <path id="svg_24" d="m503,4184c26,-31 21,-35 -24,-19c-31,11 -40,12 -36,2c21,-52 22,-53 4,-38c-9,7 -17,10 -17,5c0,-5 22,-24 50,-43c52,-35 122,-50 174,-37c37,9 32,18 -19,40c-25,10 -69,39 -98,64c-28,26 -44,37 -34,26z"/>
            <path fill="#ffff00" id="svg_25" d="m430,3998c0,-2 7,-25 15,-52c27,-88 76,-156 146,-200l26,-16l36,54l36,54l-26,7c-42,10 -110,54 -139,88c-15,18 -30,31 -33,31c-3,-1 -18,7 -33,18c-16,11 -28,18 -28,16z"/>
            <path fill="#ffff00" id="svg_26" d="m5687,3978c-15,-11 -27,-17 -27,-14c0,3 -16,-11 -35,-33c-19,-21 -61,-52 -93,-67c-31,-16 -59,-30 -61,-31c-4,-3 70,-113 76,-113c2,0 1,5 -2,10c-3,6 -2,10 3,10c21,0 104,86 126,129c22,42 49,122 43,127c-1,1 -14,-7 -30,-18z"/>
            <path id="svg_27" d="m632,3497c-12,-13 -31,-47 -41,-76l-19,-53l-15,43l-15,44l-1,-61c-1,-33 6,-85 15,-115l17,-54l12,40c17,57 43,103 65,118c16,10 20,23 20,74c0,35 -4,63 -8,63c-5,0 -18,-10 -30,-23z"/>
            <path id="svg_28" d="m5484,3458c0,-55 3,-65 29,-87c16,-15 36,-49 46,-81c18,-54 18,-54 31,-30c8,14 15,61 17,105c3,72 2,77 -10,48c-15,-40 -27,-52 -27,-27c-1,41 -56,134 -79,134c-4,0 -8,-28 -7,-62z"/>
        </g>
    </g>
</svg>