<?xml version="1.0" encoding="UTF-8" standalone="no"?>
<svg
        xmlns="http://www.w3.org/2000/svg"
        version="1.1"
        id="svg3424"
        viewBox="0 0 300 165.50339"
        height="165.50339"
        width="300">


    <g transform="translate(-148.40002,-446.44274)">
        <g transform="matrix(1.0073792,0,0,-1.0073792,-9.5773087,951.25202)">
            <g>

                <g transform="translate(242.8247,389.0898)">
                    <path
                            style="fill:#001489;fill-opacity:1;fill-rule:nonzero;stroke:none"
                            d="m 0,0 c -5.469,0 -10.354,-2.49 -13.588,-6.398 l -37.212,-44.878 21.115,0 28.229,34.022 c 2.119,2.523 5.286,4.131 8.855,4.131 l 7.447,0 -31.506,-38.153 22.646,0 c 5.282,0 9.522,4.279 9.522,9.555 L 15.508,0 0,0 Z"/>
                </g>
                <g transform="translate(195.0181,382.6914)">
                    <path
                            id="path3384"
                            style="fill:#001489;fill-opacity:1;fill-rule:nonzero;stroke:none"
                            d="m 0,0 -37.204,-44.878 21.1,0 28.227,34.023 c 2.121,2.522 5.3,4.13 8.847,4.13 l 7.682,0 0,13.123 -15.073,0 C 8.116,6.398 3.221,3.908 0,0"/>
                </g>

            </g>
        </g>
    </g>
</svg>
