<?xml version="1.0" standalone="no"?>
<!DOCTYPE svg PUBLIC "-//W3C//DTD SVG 20010904//EN"
        "http://www.w3.org/TR/2001/REC-SVG-20010904/DTD/svg10.dtd">
<svg version="1.0" xmlns="http://www.w3.org/2000/svg"
     width="500.000000pt" height="500.000000pt" viewBox="0 0 500.000000 500.000000"
     preserveAspectRatio="xMidYMid meet">
    <metadata>
        Created by potrace 1.16, written by Peter Selinger 2001-2019
    </metadata>
    <g transform="translate(0.000000,500.000000) scale(0.100000,-0.100000)"
       fill="#000000" stroke="none">
        <path d="M1005 3642 c-65 -13 -59 -46 30 -150 121 -140 221 -300 266 -427 l17
-50 147 -3 147 -3 -8 23 c-39 126 -205 346 -374 495 -110 97 -168 127 -225
115z"/>
        <path d="M1325 3643 c-22 -5 -45 -30 -45 -49 0 -6 25 -40 56 -74 126 -141 245
-329 285 -447 l21 -63 144 0 c125 0 144 2 144 16 0 26 -76 164 -132 239 -69
93 -291 315 -348 347 -47 27 -92 38 -125 31z"/>
        <path d="M1643 3623 c-2 -6 24 -47 59 -91 121 -153 246 -388 264 -494 l6 -37
602 -4 c535 -3 609 -6 670 -22 93 -23 146 -71 153 -135 8 -79 -23 -120 -117
-152 -25 -8 -225 -13 -685 -17 l-650 -6 -56 -26 c-31 -15 -64 -37 -73 -50 -9
-13 -151 -242 -315 -509 -164 -267 -328 -533 -364 -592 l-67 -108 514 0 514 0
204 343 204 342 384 6 c304 5 405 10 480 24 432 79 690 274 771 582 28 104 30
290 5 383 -33 124 -82 207 -181 305 -99 100 -201 161 -347 209 -168 54 -202
56 -1122 59 -637 1 -850 -1 -853 -10z"/>
    </g>
</svg>
