<svg id="Layer_2" enable-background="new 0 0 512 512" height="512" viewBox="0 0 512 512" width="512"
     xmlns="http://www.w3.org/2000/svg">
    <g>
        <g>
            <g>
                <g>
                    <path d="m191.799 196.907 4.817 1.753 13.149-36.127-4.817-1.753c-3.99-1.452-8.403.605-9.855 4.596l-7.889 21.676c-1.453 3.99.605 8.402 4.595 9.855z"
                          fill="#ffd3b3"/>
                </g>
                <g>
                    <path d="m297.77 235.477-4.817-1.753 13.149-36.127 4.817 1.753c3.99 1.452 6.048 5.865 4.595 9.855l-7.889 21.676c-1.452 3.991-5.864 6.048-9.855 4.596z"
                          fill="#ffd3b3"/>
                </g>
                <g>
                    <path d="m110.694 286.387h170.44v128.15h-170.44z" fill="#ffffff"
                          transform="matrix(.342 -.94 .94 .342 -200.419 414.696)"/>
                </g>
                <g>
                    <path d="m213.227 302.896c-17.928-6.525-27.205-26.42-20.68-44.348l65.028 23.668c-6.525 17.928-26.42 27.205-44.348 20.68z"
                          fill="#001489"/>
                </g>
                <g>
                    <path d="m217.61 290.853c11.306 4.115 23.808-1.714 27.923-13.021l5.26-14.451-40.943-14.902-5.26 14.451c-4.116 11.307 1.714 23.808 13.02 27.923z"
                          fill="#fcb98b"/>
                </g>
                <g>
                    <path d="m226.981 452.457-18.03 49.52h-57.28l5.44-14.94-19.26-7.02-7.99 21.96h-57.28l33.98-93.35z"
                          fill="#ffffff"/>
                </g>
                <g>
                    <path d="m158.168 372.489h12.815v128.15h-12.815z" fill="#001489"
                          transform="matrix(.342 -.94 .94 .342 -301.948 441.901)"/>
                </g>
                <g>
                    <path d="m226.814 265.565c26.603 9.683 56.018-4.034 65.701-30.637l20.725-56.942-96.337-35.064-20.725 56.942c-9.683 26.603 4.033 56.018 30.636 65.701z"
                          fill="#ffd3b3"/>
                </g>
                <g>
                    <path d="m282.478 112.629c29.263 10.651 44.351 43.007 33.7 72.271l-5.26 14.451-4.817-1.753-13.149 36.127 3.515-39.633-77.07-28.051-22.783 32.62 13.149-36.127-4.817-1.753 5.26-14.451c10.653-29.264 43.009-44.352 72.272-33.701z"
                          fill="#000000"/>
                </g>
                <g>
                    <g>
                        <path d="m59.24 432.746c10.814 5.274 23.856.784 29.131-10.031l52.245-107.118-39.161-19.1-52.245 107.118c-5.275 10.815-.784 23.857 10.03 29.131z"
                              fill="#ffd3b3"/>
                    </g>
                    <g>
                        <path d="m101.451 296.497 39.171 19.098 31.454-64.499-19.479-7.09c-12.325-4.486-26.048 1.057-31.8 12.845z"
                              fill="#ffffff"/>
                    </g>
                    <g>
                        <path d="m117.437 278.503h12.815v43.571h-12.815z" fill="#001489"
                              transform="matrix(.438 -.899 .899 .438 -200.343 279.961)"/>
                    </g>
                </g>
                <g>
                    <g>
                        <path d="m247.721 501.348c-11.674-2.911-18.779-14.734-15.868-26.409l28.832-115.64 42.277 10.541-28.832 115.64c-2.911 11.674-14.734 18.778-26.409 15.868z"
                              fill="#ffd3b3"/>
                    </g>
                    <g>
                        <path d="m302.965 369.842-42.282-10.548 17.364-69.627 19.479 7.09c12.325 4.486 19.275 17.553 16.104 30.28z"
                              fill="#ffffff"/>
                    </g>
                    <g>
                        <path d="m276.966 336.567h12.815v43.571h-12.815z" fill="#001489"
                              transform="matrix(.242 -.97 .97 .242 -132.888 546.616)"/>
                    </g>
                </g>
            </g>
            <g>
                <g>
                    <circle cx="406" cy="69" fill="#000000" r="59"/>
                </g>
                <g>
                    <path d="m465 69c0 2.036-.103 4.048-.305 6.032-1.003 9.857-4.43 18.998-9.677 26.814-8.701 12.961-22.408 22.281-38.352 25.193-3.461.63-7.025.961-10.666.961s-7.205-.331-10.666-.962c-15.944-2.912-29.651-12.232-38.352-25.193-5.248-7.816-8.675-16.957-9.677-26.814-.202-1.983-.305-3.995-.305-6.031 0-14.4 5.159-27.593 13.728-37.837 5.977-7.145 13.616-12.853 22.322-16.532 7.054-2.981 14.81-4.631 22.95-4.631s15.896 1.65 22.95 4.631c8.706 3.679 16.345 9.387 22.322 16.532 8.569 10.244 13.728 23.437 13.728 37.837z"
                          fill="#000000"/>
                </g>
                <g>
                    <circle cx="406" cy="69" fill="#edeff1" r="55.163"/>
                </g>
                <path d="m428.549 66.779 16.604-6.25 19.542 14.503c.202-1.984.305-3.996.305-6.032 0-14.4-5.159-27.593-13.728-37.837l-8.384 23.808-16.157 6.082-17.731-13.076v-18.633l19.95-14.713c-7.054-2.981-14.81-4.631-22.95-4.631s-15.896 1.65-22.95 4.631l19.95 14.713v18.633l-17.73 13.076-16.157-6.082-8.384-23.808c-8.57 10.244-13.729 23.437-13.729 37.837 0 2.036.103 4.048.305 6.032l19.542-14.503 16.604 6.25 6.67 21.121-8.748 12.617-24.391 1.328c8.701 12.961 22.408 22.281 38.353 25.192l-8.712-23.56 8.44-12.173h21.875l8.44 12.173-8.712 23.56c15.944-2.912 29.651-12.231 38.353-25.192l-24.391-1.328-8.748-12.617z"
                      fill="#000000"/>
            </g>
        </g>
        <g>
            <path d="m286.752 86h40.497v9.999h-40.497z" fill="#ffb0aa"
                  transform="matrix(.84 -.543 .543 .84 -.19 181.358)"/>
        </g>
        <g>
            <path d="m318.752 124h40.497v9.999h-40.497z" fill="#ffb0aa"
                  transform="matrix(.84 -.543 .543 .84 -15.699 204.835)"/>
        </g>
        <g>
            <path d="m307.165 101.5h34.67v10h-34.67z" fill="#ffb0aa"
                  transform="matrix(.836 -.548 .548 .836 -5.293 195.264)"/>
        </g>
    </g>
</svg>