<svg width="512" height="512" xmlns="http://www.w3.org/2000/svg">

 <g>
  <title>background</title>
  <rect fill="none" id="canvas_background" height="602" width="802" y="-1" x="-1"/>
 </g>
 <g>
  <title>Layer 1</title>
  <g id="svg_1">
   <g id="svg_2">
    <path id="svg_3" fill="#ffffff" d="m256,303l44,0l98.846,21.665c27.533,6.035 47.154,30.421 47.154,58.609l0,85.726l-66,0l0,33l-124,0l-124,0l0,-33l-66,0l0,-85.726c0,-28.187 19.621,-52.574 47.154,-58.609l98.846,-21.665l44,0z"/>
   </g>
   <g id="svg_4">
    <path id="svg_5" fill="#ff7b7b" d="m398.846,324.665l-98.846,-21.665l-44,0l-44,0l-98.846,21.665c-27.533,6.035 -47.154,30.421 -47.154,58.609l0,65.726l20,0l0,-65.726c0,-18.648 13.221,-35.08 31.436,-39.073l96.73,-21.201l83.668,0l96.73,21.201c18.215,3.992 31.436,20.425 31.436,39.073l0,65.726l20,0l0,-65.726c0,-28.188 -19.621,-52.574 -47.154,-58.609z"/>
   </g>
   <g id="svg_6">
    <path id="svg_7" fill="#001489" d="m398.846,324.665l-98.846,-21.665l-44,0l-44,0l-98.846,21.665c-27.533,6.035 -47.154,30.421 -47.154,58.609l0,65.726l20,0l0,-65.726c0,-18.648 13.221,-35.08 31.436,-39.073l96.73,-21.201l83.668,0l96.73,21.201c18.215,3.992 31.436,20.425 31.436,39.073l0,65.726l20,0l0,-65.726c0,-28.188 -19.621,-52.574 -47.154,-58.609z"/>
   </g>
   <g id="svg_8">
    <path id="svg_10" fill="#ffd3b3" d="m132,502l-66,0l0,-33l66,0l0,33z"/>
   </g>
   <g id="svg_11">
    <path id="svg_12" fill="#001489" d="m132,469l-66,0l0,-20l66,0l0,20z"/>
   </g>
   <g id="svg_13">
    <path id="svg_14" fill="#ffd3b3" d="m380,469l66,0l0,33l-66,0l0,-33z"/>
   </g>
   <g id="svg_15">
    <path id="svg_16" fill="#001489" d="m300,303l-88,0l-23.78,5.212c2.673,35.067 32.04,62.788 67.78,62.788s65.107,-27.721 67.78,-62.788l-23.78,-5.212z"/>
   </g>
   <g id="svg_17">
    <path id="svg_18" fill="#ffd3b3" d="m212,267l0,36c0,24.301 19.699,44 44,44s44,-19.699 44,-44l0,-36l-88,0z"/>
   </g>
   <g id="svg_19">
    <path id="svg_20" fill="#fcb98b" d="m212,285.188c13.499,5.851 28.376,9.812 44,9.812s30.501,-3.961 44,-9.812l0,-18.188l-88,0l0,18.188z"/>
   </g>
   <g id="svg_21">
    <path id="svg_22" fill="#ffd3b3" d="m347,90l0,98c0,50.258 -40.742,91 -91,91c-50.258,0 -91,-40.742 -91,-91l0,-98l182,0z"/>
   </g>
   <g id="svg_23">
    <path id="svg_24" fill="#754100" d="m165,176l0,-97c0,-20.987 17.013,-38 38,-38l0,57.382c0,4.999 -1.249,9.919 -3.634,14.313l-34.366,63.305z"/>
   </g>
   <g id="svg_25">
    <path id="svg_26" fill="#ffd3b3" d="m151,176l14,0l0,-50l-14,0c-5.523,0 -10,4.477 -10,10l0,30c0,5.523 4.477,10 10,10z"/>
   </g>
   <g id="svg_27">
    <path id="svg_28" fill="#ffd3b3" d="m361,176l-14,0l0,-50l14,0c5.523,0 10,4.477 10,10l0,30c0,5.523 -4.477,10 -10,10z"/>
   </g>
   <g id="svg_29">
    <path id="svg_30" fill="#001489" d="m380,449l66,0l0,20l-66,0l0,-20z"/>
   </g>
   <!--
// Badge
        <g>
            <path d="m310 423v36c0 13.255 10.745 24 24 24s24-10.745 24-24v-36z" fill="#001489"/>
        </g>
-->
   <g id="svg_34">
    <path id="svg_35" fill="#754100" d="m347,176l0,-97c0,-20.987 -17.013,-38 -38,-38l0,57.382c0,4.999 1.249,9.919 3.634,14.313l34.366,63.305z"/>
   </g>
   <g id="svg_36">
    <path id="svg_37" fill="#754100" d="m285,116l-86,0c-33.137,0 -60,-26.863 -60,-60l0,-46l140,0c16.569,0 30,13.431 30,30l0,52c0,13.255 -10.745,24 -24,24z"/>
   </g>
   <g id="svg_38">
    <text id="svg_39" fill="#001489" stroke="#000" x="308" y="475.453125" font-size="75" font-family="'Simonetta', serif">T</text>
    <text id="svg_40" fill="#001489" stroke="#000" x="314" y="469.453125" font-size="55" font-family="'Simonetta', serif">R</text>
    <text id="svg_41" fill="#001489" stroke="#000" x="303" y="460.453125" font-size="30" font-family="'Simonetta', serif">F</text>
    <text id="svg_42" fill="#001489" stroke="#000" x="340" y="460.453125" font-size="30" font-family="'Simonetta', serif">C</text>
   </g>
   <g id="svg_9" stroke="null">
    <path id="animal" fill="#00007f" d="m161.84197,435.87766c-0.28028,0.03515 -0.54956,0.91572 -1.09138,1.37486c-0.39593,0.33045 -0.89054,0.31064 -1.15308,0.71971c-0.09967,0.15212 -0.0677,0.41354 -0.18036,0.66325c-0.22182,0.50154 -0.9997,0.54607 -0.9997,1.09192c-0.0025,0.58953 0.64823,0.70181 1.21328,1.1209c0.4409,0.3362 0.48336,0.56822 1.01669,0.73207c0.45613,0.13146 1.13409,-0.29998 1.74435,-0.14467c0.50035,0.12677 0.97996,0.21838 1.09362,0.65728c0.09967,0.40524 -0.00724,1.03184 -0.61501,0.9594c-0.20459,-0.02003 -1.09337,-0.27442 -2.18325,-0.17535c-1.31719,0.12783 -2.81899,0.49387 -2.96587,1.74622c-0.08118,0.69883 0.934,1.524 1.91397,1.35632c0.67696,-0.11292 0.35696,-0.79492 0.72467,-1.12558c0.48411,-0.42462 3.22517,1.48011 5.77187,1.48011c1.07264,0 1.8705,-0.23138 2.66262,-0.93894c0.07394,-0.05433 0.16437,-0.16981 0.27853,-0.17748c0.10841,0.00767 0.29676,0.09822 0.35921,0.13678c2.05061,1.40639 3.60236,4.22834 11.14307,4.26072c1.0609,0.00511 2.26818,0.43741 3.25539,1.20463c0.87955,0.6935 1.39338,1.77392 1.89398,2.86861c0.75514,1.6431 2.10681,3.24146 4.15767,5.02027c0.11166,0.09524 1.80031,1.21464 1.9357,1.29816c0.02048,0.01278 0.14488,0.26483 0.10167,0.40545c-0.04971,1.06742 -0.23206,4.16826 2.47901,4.30909c0.66247,0.02855 0.48961,-0.36859 0.48961,-0.64216c-0.00175,-0.5401 -0.11741,-1.07722 0.21633,-1.63053c0.45613,-0.7604 -0.96822,-1.11024 -0.92676,-2.75505c0.02948,-1.22636 -1.17856,-1.01714 -1.79056,-1.95161c-0.35322,-0.54117 -0.66722,-0.82773 -0.64448,-1.48991c0.13814,-3.7251 -0.92975,-6.17334 -1.46158,-6.77459c-0.41542,-0.4536 -0.75914,-0.63363 -0.3797,-0.84328c2.26294,-1.27558 2.77553,-2.4606 2.77553,-2.4606c1.20329,-2.41202 2.28492,-4.61504 3.77697,-5.58509c0.30026,-0.2007 1.07114,-0.69137 1.54376,-0.88355c1.39238,-0.5597 2.1248,-0.89953 2.52972,-1.23488c0.63924,-0.53115 1.14558,-1.64054 0.53182,-2.31253c-0.76314,-0.82986 -2.08158,-0.17151 -2.66287,0.12293c-4.15942,2.10522 -4.77218,5.81903 -6.21327,7.95173c-1.14958,1.70403 -3.01808,2.95575 -4.68924,3.05801c-1.2515,0.07926 -2.60291,-0.137 -3.94684,-0.64045c-3.26988,-1.22252 -5.0582,-2.80107 -5.48186,-3.08017c-0.87805,-0.57824 -7.69708,-6.2886 -13.22315,-6.52169c0,0 -0.68595,-1.17182 -0.85856,-1.19014c-0.40368,-0.04474 -0.81759,0.69883 -1.11411,0.78576c-0.27728,0.07819 -0.7459,-0.80514 -1.02743,-0.76594" stroke="null"/>
   </g>
  </g>
 </g>
</svg>