<svg width="512" height="512" xmlns="http://www.w3.org/2000/svg">
    <g>
        <title>background</title>
        <rect x="-1" y="-1" width="514" height="514" id="canvas_background" fill="none"/>
    </g>

    <g id="shirt">
        <title>Shirt</title>
        <g transform="rotate(-0.06285365670919418 255.25967407231212,259.8476257324358) " id="svg_1">
            <g id="svg_2">
                <title>Chest</title>
                <path d="m255.25968,306.84762l44,0l98.846,21.665c27.533,6.035 47.154,30.421 47.154,58.609l0,85.726l-66,0l0,33l-124,0l-124,0l0,-33l-66,0l0,-85.726c0,-28.187 19.621,-52.574 47.154,-58.609l98.846,-21.665l44,0z" fill="#ffffff" id="svg_3"/>
            </g>
            <g id="svg_4">
                <title>Left Sleeve</title>
                <path fill="#ffffff" d="m131.25968,472.84762l-66,0l0,-20l66,0l0,20z" id="svg_5"/>
            </g>
            <g id="svg_6">
                <title>Right Sleeve</title>
                <path d="m379.25968,452.84762l66,0l0,20l-66,0l0,-20z" fill="#ffffff" id="svg_29"/>
            </g>
        </g>
    </g>
    <g id="skin-light">
        <title>Skin</title>
        <g id="svg_7">
            <title>Bottom Neck</title>
            <path id="svg_8" fill="#cccccc" d="m211.25968,270.84762l0,36c0,24.301 19.699,44 44,44s44,-19.699 44,-44l0,-36l-88,0z"/>
        </g>
        <g id="svg_9">
            <title>Top Neck</title>
            <path id="svg_10" fill="#cccccc" d="m211.25968,289.03562c13.499,5.851 28.376,9.812 44,9.812s30.501,-3.961 44,-9.812l0,-18.188l-88,0l0,18.188z"/>
        </g>
        <g id="svg_11">
            <title>Face</title>
            <path id="svg_12" fill="#cccccc" d="m346.25968,93.84762l0,98c0,50.258 -40.742,91 -91,91c-50.258,0 -91,-40.742 -91,-91l0,-98l182,0z"/>
        </g>
        <g id="svg_13">
            <title>Left Ear</title>
            <path id="svg_14" fill="#cccccc" d="m150.25968,179.84762l14,0l0,-50l-14,0c-5.523,0 -10,4.477 -10,10l0,30c0,5.523 4.477,10 10,10z"/>
        </g>
        <g id="svg_15">
            <title>Right Ear</title>
            <path id="svg_16" fill="#cccccc" d="m360.25968,179.84762l-14,0l0,-50l14,0c5.523,0 10,4.477 10,10l0,30c0,5.523 -4.477,10 -10,10z"/>
        </g>
        <g id="svg_17">
            <title>Left Arm</title>
            <path id="svg_18" fill="#cccccc" d="m131.25968,505.84762l-66,0l0,-33l66,0l0,33z"/>
        </g>
        <g id="svg_19">
            <title>Right Arm</title>
            <path id="svg_20" fill="#cccccc" d="m379.25968,472.84762l66,0l0,33l-66,0l0,-33z"/>
        </g>
    </g>
    <g>
        <title>Simple Hair</title>
        <path d="m165,101l0,75l28,-70s34,12 63,12s63,-12 63,-12l28,70l0,-75c0,-50.258 -40.742,-91 -91,-91c-50.258,0 -91,40.742 -91,91z" fill="#cccccc" id="svg_21"/>
    </g>
</svg>