  <svg width="512" height="512" xmlns="http://www.w3.org/2000/svg">

  <g id="hair">
   <path d="m165,88.36747l0,45.63253l28,-42.59036s34,7.30121 63,7.30121s63,-7.30121 63,-7.30121l28,42.59036l0,-45.63253c0,-30.57866 -40.742,-55.36747 -91,-55.36747c-50.258,0 -91,24.78881 -91,55.36747z" fill="#HAIR" id="svg_5"/>
   <ellipse fill="#SKIN" stroke-width="null" stroke-opacity="null" fill-opacity="null" cx="256" cy="94.45313" id="svg_25" rx="63" ry="20"/>
   <ellipse stroke="null" fill="#HAIR" stroke-width="null" cx="257" cy="77.45313" id="svg_26" rx="43" ry="24"/>
   <path transform="rotate(-31.95555877685547 244.00000000000009,92.92166900634764) " d="m253,72.52573c-0.66666,0 -2,0 -6,0c-5.33334,0 -8.24801,-1.32454 -10.66666,4.30815c-0.76485,1.78121 -1.33334,4.30814 -1.33334,8.61629c0,2.15407 0,2.15407 0,4.30815c0,2.15407 0,2.15407 0,4.30814c0,0 0,2.15408 0,4.30815c0,2.15407 0,6.46222 0,10.77037l0,0l0,2.15407l0,2.15408" id="svg_46" stroke-width="1.5" fill="#HAIR"/>
   <path transform="rotate(-161.41018676757812 372.8719482421875,414.16674804687506) " d="m532,-170.47427c-0.88888,0 -2.66666,0 -8,0c-7.11112,0 -10.99734,-1.32454 -14.22222,4.30815c-1.0198,1.78121 -1.77778,4.30814 -1.77778,8.61629c0,2.15407 0,2.15407 0,4.30815c0,2.15407 0,2.15407 0,4.30814c0,0 0,2.15408 0,4.30815c0,2.15407 0,6.46222 0,10.77037l0,0l0,2.15407l0,2.15408" id="svg_47" stroke-width="null" fill="#HAIR"/>
   <path transform="rotate(-33.69961166381836 235.00000000000003,94.92166900634766) " d="m244,74.52573c-0.66666,0 -2,0 -6,0c-5.33334,0 -8.24801,-1.32454 -10.66666,4.30815c-0.76485,1.78121 -1.33334,4.30814 -1.33334,8.61629c0,2.15407 0,2.15407 0,4.30815c0,2.15407 0,2.15407 0,4.30814c0,0 0,2.15408 0,4.30815c0,2.15407 0,6.46222 0,10.77037l0,0l0,2.15407l0,2.15408" id="svg_28" stroke-width="1.5" fill="#HAIR"/>
   <path transform="rotate(35.13572692871094 275.00000000000006,92.92166900634766) " d="m284,72.52573c-0.66666,0 -2,0 -6,0c-5.33334,0 -8.24801,-1.32454 -10.66666,4.30815c-0.76485,1.78121 -1.33334,4.30814 -1.33334,8.61629c0,2.15407 0,2.15407 0,4.30815c0,2.15407 0,2.15407 0,4.30814c0,0 0,2.15408 0,4.30815c0,2.15407 0,6.46222 0,10.77037l0,0l0,2.15407l0,2.15408" id="svg_30" stroke-width="1.5" fill="#HAIR"/>
   <path transform="rotate(-31.95555877685547 259,91.92166900634767) " d="m268,71.52573c-0.66666,0 -2,0 -6,0c-5.33334,0 -8.24801,-1.32454 -10.66666,4.30815c-0.76485,1.78121 -1.33334,4.30814 -1.33334,8.61629c0,2.15407 0,2.15407 0,4.30815c0,2.15407 0,2.15407 0,4.30814c0,0 0,2.15408 0,4.30815c0,2.15407 0,6.46222 0,10.77037l0,0l0,2.15407l0,2.15408" id="svg_32" stroke-width="1.5" fill="#HAIR"/>
   <path transform="rotate(21.397905349731445 289.99999999999994,96.92166900634777) " d="m302,76.52573c-0.88888,0 -2.66666,0 -8,0c-7.11112,0 -10.99734,-1.32454 -14.22222,4.30815c-1.0198,1.78121 -1.77778,4.30814 -1.77778,8.61629c0,2.15407 0,2.15407 0,4.30815c0,2.15407 0,2.15407 0,4.30814c0,0 0,2.15408 0,4.30815c0,2.15407 0,6.46222 0,10.77037l0,0l0,2.15407l0,2.15408" id="svg_48" stroke-width="null" fill="#HAIR"/>
  </g>

</svg>