<svg width="512" height="512" xmlns="http://www.w3.org/2000/svg">
    <g id="hair">
        <path d="m163,93.04217l0,51.95783l28.30769,-48.49398s34.37363,8.31325 63.69231,8.31325s63.69231,-8.31325 63.69231,-8.31325l28.30769,48.49398l0,-51.95783c0,-34.81729 -41.18972,-63.04217 -92.00001,-63.04217c-50.81029,0 -92.00001,28.22488 -92.00001,63.04217l0.00002,0z" fill="#HAIR" id="svg_5"/>
        <ellipse fill="#HAIR" stroke-width="8" fill-opacity="null" cx="208.5" cy="61.95313" id="svg_26" rx="32.5" ry="19.5" stroke="#HAIR"/>
        <ellipse fill="#HAIR" stroke-width="8" fill-opacity="null" cx="218.20269" cy="46.33773" id="svg_27" rx="21.13649" ry="21" stroke="#HAIR"/>
        <ellipse fill="#HAIR" stroke-width="8" fill-opacity="null" cx="262.5" cy="43.45313" id="svg_28" rx="14.5" ry="21" stroke="#HAIR" transform="rotate(90.2156753540039 262.50000000000006,43.45312881469726) "/>
        <ellipse fill="#HAIR" stroke-width="8" fill-opacity="null" cx="308.99291" cy="54.36707" id="svg_30" rx="24.56405" ry="21" stroke="#HAIR"/>
        <ellipse stroke="#HAIR" fill="#HAIR" stroke-width="8" fill-opacity="null" cx="192.24034" cy="73.78418" id="svg_31" rx="24.03333" ry="21"/>
        <ellipse stroke="#HAIR" fill="#HAIR" stroke-width="8" fill-opacity="null" cx="318.24034" cy="65.78418" id="svg_32" rx="24.03333" ry="21"/>
        <ellipse stroke="#HAIR" fill="#HAIR" stroke-width="8" fill-opacity="null" cx="251.74034" cy="70.78419" id="svg_46" rx="30.41302" ry="26.70523"/>
        <ellipse fill="#HAIR" stroke-width="8" fill-opacity="null" cx="332.99291" cy="67.36707" id="svg_51" rx="24.56405" ry="21" stroke="#HAIR"/>
        <ellipse fill="#HAIR" stroke-width="8" fill-opacity="null" cx="181.99291" cy="70.36707" id="svg_52" rx="24.56405" ry="21" stroke="#HAIR"/>
        <path fill="#HAIR" stroke-width="19" id="svg_15" d="m247.5,94.45313c0,1 0,1 0,3c0,1 0.61732,2.07613 1,3c0.54119,1.30656 1.29289,1.29289 2,2c0.70711,0.70711 3.02675,0.77025 4,1c2.17625,0.51375 2.87856,2.49345 6,3c0.98709,0.16019 2,1 4,1c1,0 3.15224,0.23463 5,1c1.30656,0.5412 3.02675,1.77025 4,2c2.17625,0.51375 2.82375,1.48625 5,2c0.97325,0.22975 2,1 3,1c0,0 1,0 2,0c1,0 2,0 2,0c1,0 2,0 3,0c0,0 1,0 2,0c2,0 3,0 5,0c1,0 3,0 4,0c0,0 1,0 1,0c0,0 1,0 1,0c1,0 1,0 2,0c0,0 1,0 0,0c0,0 -2.81266,-0.2068 -5,-2c-2.78832,-2.28587 -5.21168,-3.71413 -8,-6c-2.18734,-1.7932 -3,-3 -3,-3c-1,0 -0.29289,-0.29289 -1,-1c-0.70711,-0.70711 -1.07612,0.38269 -2,0c-1.30656,-0.5412 -2,-2 -4,-4c-2,-2 -2.69255,-4.186 -4,-6c-0.8269,-1.14726 -2,-2 -2,-3c0,0 0,-1 0,-1c-1,-1 -1,-2 -1,-3l0,-1l0,0l0,0"/>
        <path fill="#HAIR" stroke-width="8" id="svg_40" d="m173.5,241.45313c0,0 0,1 0,2c0,0 0,1 -1.32155,1c0,0 0,1 -1.32155,1c0,0 -1.32155,0 -1.32155,0c-1.32155,0 -2.74371,0.6173 -3.96466,1c-1.72669,0.54119 -2.64311,1 -3.96466,2c-1.32155,1 -3.96466,2 -3.96466,2c-1.32155,0 -2.64311,0 -2.64311,0c-1.32155,0 -1.70863,0.29289 -2.64311,1c-0.93448,0.7071 -2.64311,0 -3.96466,0c-1.32155,0 -3.96466,0 -5.28622,0c-1.32155,0 -3.55953,-0.45881 -5.28622,-1c-1.22096,-0.3827 -3.96466,-1 -3.96466,-1c-1.32155,-1 -1.32155,-1 -1.32155,-1c0,0 -1.32155,0 0,0c0,0 0.91642,-0.45881 2.64311,-1c1.22096,-0.3827 4.35173,-0.2929 5.28622,-1c0.93448,-0.70711 1.32155,-1 1.32155,-1c1.32155,0 1.42215,-0.61731 2.64311,-1c1.72669,-0.5412 3.24944,-2.69344 3.96466,-4c0.50573,-0.92388 0.81582,-2.07613 1.32155,-3c0.71523,-1.30657 1.92788,-1.69344 2.64311,-3c0.50573,-0.92388 0,-2 0,-2l0,-1l0,0l1.32155,0"/>
        <path fill="#HAIR" stroke-width="8" id="svg_41" d="m228.5,96.45313c0,0 0,1 0,2c0,0 0,1 -1.32155,1c0,0 0,1 -1.32156,1c0,0 -1.32155,0 -1.32155,0c-1.32156,0 -2.74371,0.6173 -3.96467,1c-1.72669,0.54119 -2.64311,1 -3.96466,2c-1.32156,1 -3.96467,2 -3.96467,2c-1.32155,0 -2.64311,0 -2.64311,0c-1.32155,0 -1.70862,0.29289 -2.64311,1c-0.93448,0.7071 -2.64311,0 -3.96466,0c-1.32156,0 -3.96467,0 -5.28622,0c-1.32156,0 -3.55953,-0.45881 -5.28622,-1c-1.22096,-0.3827 -3.96467,-1 -3.96467,-1c-1.32155,-1 -1.32155,-1 -1.32155,-1c0,0 -1.32156,0 0,0c0,0 0.91642,-0.45881 2.64311,-1c1.22096,-0.3827 4.35173,-0.2929 5.28622,-1c0.93448,-0.70711 1.32155,-1 1.32155,-1c1.32156,0 1.42215,-0.61731 2.64311,-1c1.72669,-0.5412 3.24944,-2.69344 3.96467,-4c0.50573,-0.92388 0.81582,-2.07613 1.32155,-3c0.71523,-1.30657 1.92789,-1.69344 2.64311,-3c0.50573,-0.92388 0,-2 0,-2l0,-1l0,0l1.32156,0" transform="rotate(-19.629074096679688 207.72222900390625,96.61026000976564) "/>
    </g>
</svg>
