<svg width="512" height="512" xmlns="http://www.w3.org/2000/svg">
  <g
     id="hair">  
       <g stroke="null" id="svg_62" fill="#HAIR" transform="translate(0 748) scale(0.1 -0.1)">
        <path stroke="null" id="svg_63" d="m1866.90863,7086.27362c-125.19158,-191.30192 -375.67406,-666.43693 -284.96633,-1019.29912l75.38419,-92.43584l43.07674,84.39787c72.69187,139.05556 161.53746,235.51039 278.65207,304.63628c164.22978,96.45474 305.57508,130.2139 698.64975,165.58063c261.15223,23.30986 340.57485,36.1705 456.34336,73.14479c47.11517,15.27198 87.49948,27.32885 88.84559,25.72129c43.07674,-29.74018 122.49936,-178.44127 133.26844,-251.58606c9.42297,-55.46156 4.03843,-84.39796 -39.0382,-255.60514c-12.11529,-48.22728 -18.84605,-89.22055 -14.80772,-91.63197c13.46161,-8.03788 127.884,37.77815 176.34518,71.53723c67.30733,47.42359 66.89218,140.58276 103.23817,226.58828c0,0 17.54158,114.03441 -4.246,205.85057c-35.86103,151.12211 -54.85395,180.53053 -80.40693,241.61845c-57.88425,135.84045 -197.44499,396.11329 -317.25203,425.85357c-492.5291,42.77424 134.98319,-31.71858 -250.52112,28.82116c-123.84547,15.27207 -474.60667,2.73405 -593.2212,-5.31013c-358.4398,3.37282 -440.36199,-121.72208 -469.34394,-137.88186z" fill="#HAIR"/>
    </g>
  </g>
</svg>
