<svg width="512" height="512" xmlns="http://www.w3.org/2000/svg">

    <g id="hair">
        <path d="m160.996104,100.305568l0,69.876434l19.532784,-38.588149c63.106295,-11.873752 74.469169,-40.674329 74.469169,-40.674329s11.362874,28.800577 74.469169,40.674329l19.532784,38.588149l0,-69.876434c0,-44.351618 -42.08602,-80.305568 -94.001953,-80.305568c-51.915933,0 -94.001953,35.95395 -94.001953,80.305568z" fill="#HAIR"/>
    </g>
    <path transform="rotate(-73.92318725585938 217.99999999999997,80.95312499999997) " d="m192,47.453125c4,0 8.157902,0.755814 16,6c7.150772,4.781891 15.521797,10.445099 23,18c6.485855,6.552383 8.462891,12.153778 11,20c1.656853,5.123947 2,9 2,14c0,4 0,6 0,8l0,1l0,0" id="svg_36" stroke-width="4" fill="#HAIR"/>
    <path d="m260,83.453125c4,0 8.157902,0.755814 16,6c7.150772,4.781891 15.521797,10.445099 23,18c6.485855,6.552383 8.462891,12.153778 11,20c1.656853,5.123947 2,9 2,14c0,4 0,6 0,8l0,1l0,0" id="svg_49" stroke-width="4" fill="#HAIR"/>
    <path d="m267,77.453125c4,0 8.157902,0.755814 16,6c7.150772,4.781891 15.521797,10.445099 23,18c6.485855,6.552383 8.462891,12.153778 11,20c1.656853,5.123947 2,9 2,14c0,4 0,6 0,8l0,1l0,0" id="svg_50" stroke-width="4" fill="#HAIR"/>
    <ellipse transform="rotate(-4.684284687042236 224.92193603515668,125.00049591064462) " ry="41.28415" rx="43.357469" id="svg_53" cy="125.000488" cx="224.92194" stroke-width="4" fill="#SKIN"/>
    <path d="m260,83.453125c4,0 8.157902,0.755814 16,6c7.150772,4.781891 15.521797,10.445099 23,18c6.485855,6.552383 8.462891,12.153778 11,20c1.656853,5.123947 2,9 2,14c0,4 0,6 0,8l0,1l0,0" id="svg_54" stroke-width="4" fill="#HAIR"/>
    <path d="m260,83.453125c4,0 8.157902,0.755814 16,6c7.150772,4.781891 15.521797,10.445099 23,18c6.485855,6.552383 8.462891,12.153778 11,20c1.656853,5.123947 2,9 2,14c0,4 0,6 0,8l0,1l0,0" id="svg_55" stroke-width="4" fill="#HAIR"/>
    <path d="m260,83.453125c4,0 8.157902,0.755814 16,6c7.150772,4.781891 15.521797,10.445099 23,18c6.485855,6.552383 8.462891,12.153778 11,20c1.656853,5.123947 2,9 2,14c0,4 0,6 0,8l0,1l0,0" id="svg_56" stroke-width="4" fill="#HAIR"/>
    <path transform="rotate(-75.29847717285156 212.00000000000003,98.95312500000001) " d="m186,65.453125c4,0 8.157902,0.755814 16,6c7.150772,4.781891 15.521797,10.445099 23,18c6.485855,6.552383 8.462891,12.153778 11,20c1.656853,5.123947 2,9 2,14c0,4 0,6 0,8l0,1l0,0" id="svg_57" stroke-width="4" fill="#HAIR"/>
    <path transform="rotate(-44.525569915771484 238.00000000000003,93.95312499999999) " d="m212,60.453125c4,0 8.157902,0.755814 16,6c7.150772,4.781891 15.521797,10.445099 23,18c6.485855,6.552383 8.462891,12.153778 11,20c1.656853,5.123947 2,9 2,14c0,4 0,6 0,8l0,1l0,0" id="svg_58" stroke-width="4" fill="#HAIR"/>
    <path d="m262,94.453125c4,0 8.157902,0.755814 16,6c7.150772,4.781891 15.521797,10.445099 23,18c6.485855,6.552383 8.462891,12.153778 11,20c1.656853,5.123947 2,9 2,14c0,4 0,6 0,8l0,1l0,0" id="svg_59" stroke-width="4" fill="#HAIR"/>

</svg>

