<svg width="512" height="512" xmlns="http://www.w3.org/2000/svg">
    <g id="hair">
        <path d="m165,90.04217l0,51.95783l28.30769,-48.49398s34.37363,8.31325 63.69231,8.31325s63.69231,-8.31325 63.69231,-8.31325l28.30769,48.49398l0,-51.95783c0,-34.81729 -41.18972,-63.04217 -92.00001,-63.04217c-50.81029,0 -92.00001,28.22488 -92.00001,63.04217l0.00002,0z" fill="#HAIR" id="svg_5" stroke="null"/>
        <path fill="#HAIR" stroke-width="4" stroke-opacity="null" id="svg_52" d="m290.41036,103.84785c1,1.18501 1.69255,2.59043 3,4.74004c1.65381,2.71905 3.19028,5.78464 5,9.48007c1.12234,2.2918 2.48626,5.71618 3,8.29506c0.4595,2.30662 1.5405,5.98844 2,8.29506c0.51374,2.57888 1.48626,4.53117 2,7.11005c0.22975,1.15331 0,2.37002 0,4.74004c0,1.18501 -0.48626,3.34616 -1,5.92504c-0.4595,2.30662 -1.61732,4.83025 -2,5.92504c-0.5412,1.54829 -1,2.37002 -1,2.37002c0,1.18501 0,1.18501 0,1.18501c0,0 0,0 1,0c0,0 0.61732,-0.09021 1,-1.18501c1.08239,-3.09658 3.45049,-4.08886 6,-7.11005c2.54951,-3.0212 4.1731,-6.93555 5,-8.29506c1.30745,-2.1496 2,-4.74004 3,-7.11005c1,-2.37002 1,-4.74004 2,-5.92504c1,-1.18501 2.4588,-3.19174 3,-4.74004c0.38268,-1.0948 0.4588,-3.19174 1,-4.74004c0.76537,-2.18962 -0.32037,-3.58562 0,-5.92504c0.50654,-3.69894 1,-5.92504 1,-8.29506c0,-2.37002 0,-4.74004 0,-7.11005c0,-2.37002 0,-3.55503 -1,-4.74004c-1,-1.18501 -2,-1.18501 -2,-1.18501c-1,-1.18501 -1,-1.18501 -2,-2.37002c-1,-1.18501 -2.4588,-3.19174 -3,-4.74004c-0.38268,-1.0948 -1,-2.37002 -1,-2.37002l0,-1.18501l-1,0" transform="rotate(29.325122833251953 307.4103698730469,123.40048980712892) " stroke="#HAIR"/>
        <path fill="#HAIR" stroke-width="4" stroke-opacity="null" id="svg_53" d="m229.47302,103.29389c0,1.03699 0,1.03699 0,2.07398c0,2.07398 0,3.11097 0,5.18495c0,1.03699 -0.4336,1.51276 1.41438,2.07398c1.30671,0.39685 2.82876,0 4.24314,0c1.41438,0 1.41438,0 2.82876,0c0,0 1.08942,2.10172 1.41438,3.11097c0.72663,2.25676 1.41438,3.11097 2.82876,4.14796c1.41438,1.03699 2.39516,2.54975 4.24314,3.11097c1.30671,0.39685 2.82876,1.03699 4.24314,2.07398c0,0 0.41426,1.34072 1.41438,2.07398c1.00012,0.73326 1.41438,0 1.41438,0c1.41438,0 2.82876,0 2.82876,0c1.41438,0 1.41438,1.03699 1.41438,1.03699c1.41438,1.03699 1.08942,2.10172 1.41438,3.11097c0.72662,2.25676 2.82876,3.11097 2.82876,3.11097c1.41438,1.03699 1.41438,2.07398 2.82876,3.11097c0,0 0,1.03699 1.41438,1.03699c0,0 0,1.03699 0,1.03699c1.41438,1.03699 1.41438,2.07398 2.82876,2.07398c0,0 0,1.03699 0,1.03699c1.41438,0 2.82876,0 4.24314,-1.03699c1.41438,-1.03699 1.41438,-3.11097 1.41438,-4.14796c0,-1.03699 0,-1.03699 0,-1.03699c0,-1.03699 -0.54126,-1.11593 0,-2.07398c0.76546,-1.3549 3.47768,-1.75608 4.24314,-3.11097c0.54126,-0.95805 1.41438,-1.03699 1.41438,-2.07398c0,0 -0.32496,-0.02774 0,-1.03699c0.72662,-2.25676 2.10214,-2.9282 2.82876,-5.18495c0.64991,-2.01851 0,-2.07398 0,-3.11097c0,0 0,0 0,-1.03699c0,-1.03699 0,-3.11097 0,-3.11097c0,-1.03699 0,-1.03699 0,-1.03699c0,-1.03699 0,-1.03699 0,-2.07398c0,-1.03699 0,-1.03699 0,-1.03699c0,-1.03699 -0.67967,-3.15115 0,-6.22195c0.71644,-3.23691 3.51652,-5.00218 4.24314,-7.25894c0.32496,-1.00925 0,-1.03699 0,-2.07398c0,0 1.41438,-1.03699 2.82876,-2.07398c1.41438,-1.03699 2.82876,-2.07398 4.24314,-3.11097l0,0l0,0l0,0" transform="rotate(12.913919448852539 261.98165893554676,116.77476501464845) " stroke="#HAIR"/>
        <path fill="#HAIR" stroke="#HAIR" stroke-width="4" stroke-opacity="null" id="svg_56" d="m185.43104,107.76345c0,1 0,3 0,4c0,2 0,3 0,4c0,1 0,2 0,3c0,1 0,2 0,4c0,1 -0.22975,2.02675 0,3c0.51374,2.17625 2,4 3,5c1,1 2,2 3,3c1,1 1.29289,1.29289 2,2c0.70711,0.70711 2,1 3,1c2,0 3.29289,0.29289 4,1c0.70711,0.70711 0.29289,1.29289 1,2c0.70711,0.70711 2.07612,0.61731 3,1c1.30656,0.5412 2.07612,1.61731 3,2c1.30656,0.5412 3,1 3,1c1,0 2,0 2,0c0,0 1,0 1,0c0,0 1,0 1,0c0,-1 -0.82443,-2.09789 -2,-4c-0.52573,-0.85065 -1,-2 -2,-3c0,0 0,0 0,0c-1,-1 -1.69255,-2.186 -3,-4c-0.8269,-1.14726 -1,-2 -2,-2c0,0 0,-1 0,-1c-1,-1 -1.186,-2.69255 -3,-4c-1.14727,-0.8269 -2,-2 -2,-3c0,0 0.38268,-0.07613 0,-1c-0.5412,-1.30656 -1.34619,-2.70546 -3,-5c-1.30745,-1.814 -2,-3 -2,-4c0,0 0,-1 0,-1c0,-1 0,-1 0,-1c0,-1 0,-1 0,-2c0,0 0,-2 0,-3l0,0l0,-1l0,0" transform="rotate(14.734225273132324 199.87997436523438,124.26345062255854) "/>
        <path fill="#HAIR" stroke="#HAIR" stroke-width="4" stroke-opacity="null" id="svg_57" d="m311.5,38.45313c0,1 0,3 0,4c0,2 0,3 0,4c0,1 0,2 0,3c0,1 0,2 0,4c0,1 -0.22975,2.02674 0,3c0.51374,2.17625 2,4 3,5c1,1 2,2 3,3c1,1 1.29289,1.29289 2,2c0.70711,0.7071 2,1 3,1c2,0 3.29289,0.29289 4,1c0.70711,0.7071 0.29289,1.29289 1,2c0.70711,0.7071 2.07612,0.6173 3,1c1.30656,0.54119 2.07612,1.6173 3,2c1.30656,0.54119 3,1 3,1c1,0 2,0 2,0c0,0 1,0 1,0c0,0 1,0 1,0c0,-1 -0.82443,-2.09789 -2,-4c-0.52573,-0.85065 -1,-2 -2,-3c0,0 0,0 0,0c-1,-1 -1.69255,-2.18601 -3,-4c-0.8269,-1.14727 -1,-2 -2,-2c0,0 0,-1 0,-1c-1,-1 -1.186,-2.69256 -3,-4c-1.14727,-0.82691 -2,-2 -2,-3c0,0 0.38268,-0.07613 0,-1c-0.5412,-1.30657 -1.34619,-2.70546 -3,-5c-1.30745,-1.814 -2,-3 -2,-4c0,0 0,-1 0,-1c0,-1 0,-1 0,-1c0,-1 0,-1 0,-2c0,0 0,-2 0,-3l0,0l0,-1l0,0" transform="rotate(-117.92601776123047 325.9489440917969,54.95313262939453) "/>
        <path fill="#HAIR" stroke="#HAIR" stroke-width="4" stroke-opacity="null" id="svg_58" d="m169.5,43.45313c0,1 0,3 0,4c0,2 0,3 0,4c0,1 0,2 0,3c0,1 0,2 0,4c0,1 -0.22975,2.02674 0,3c0.51374,2.17625 2,4 3,5c1,1 2,2 3,3c1,1 1.29289,1.29289 2,2c0.70711,0.7071 2,1 3,1c2,0 3.29289,0.29289 4,1c0.70711,0.7071 0.29289,1.29289 1,2c0.70711,0.7071 2.07612,0.6173 3,1c1.30656,0.54119 2.07612,1.6173 3,2c1.30656,0.54119 3,1 3,1c1,0 2,0 2,0c0,0 1,0 1,0c0,0 1,0 1,0c0,-1 -0.82443,-2.09789 -2,-4c-0.52573,-0.85065 -1,-2 -2,-3c0,0 0,0 0,0c-1,-1 -1.69255,-2.18601 -3,-4c-0.8269,-1.14727 -1,-2 -2,-2c0,0 0,-1 0,-1c-1,-1 -1.186,-2.69256 -3,-4c-1.14727,-0.82691 -2,-2 -2,-3c0,0 0.38268,-0.07613 0,-1c-0.5412,-1.30657 -1.34619,-2.70546 -3,-5c-1.30745,-1.814 -2,-3 -2,-4c0,0 0,-1 0,-1c0,-1 0,-1 0,-1c0,-1 0,-1 0,-2c0,0 0,-2 0,-3l0,0l0,-1l0,0" transform="rotate(-168.76031494140625 183.94894409179688,59.953132629394524) "/>
        <path fill="#HAIR" stroke="#HAIR" stroke-width="4" stroke-opacity="null" id="svg_59" d="m249.5,19.45313c0,1 0,3 0,4c0,2 0,3 0,4c0,1 0,2 0,3c0,1 0,2 0,4c0,1 -0.22975,2.02674 0,3c0.51374,2.17625 2,4 3,5c1,1 2,2 3,3c1,1 1.29289,1.29289 2,2c0.70711,0.7071 2,1 3,1c2,0 3.29289,0.29289 4,1c0.70711,0.7071 0.29289,1.29289 1,2c0.70711,0.7071 2.07612,0.6173 3,1c1.30656,0.54119 2.07612,1.6173 3,2c1.30656,0.54119 3,1 3,1c1,0 2,0 2,0c0,0 1,0 1,0c0,0 1,0 1,0c0,-1 -0.82443,-2.09789 -2,-4c-0.52573,-0.85065 -1,-2 -2,-3c0,0 0,0 0,0c-1,-1 -1.69255,-2.18601 -3,-4c-0.8269,-1.14727 -1,-2 -2,-2c0,0 0,-1 0,-1c-1,-1 -1.186,-2.69256 -3,-4c-1.14727,-0.82691 -2,-2 -2,-3c0,0 0.38268,-0.07613 0,-1c-0.5412,-1.30657 -1.34619,-2.70546 -3,-5c-1.30745,-1.814 -2,-3 -2,-4c0,0 0,-1 0,-1c0,-1 0,-1 0,-1c0,-1 0,-1 0,-2c0,0 0,-2 0,-3l0,0l0,-1l0,0" transform="rotate(-168.76031494140625 263.9489440917969,35.953132629394524) "/>
        <path fill="#HAIR" stroke-width="4" stroke-opacity="null" id="svg_60" d="m158.22841,72.4186c0,1.57785 0,4.73355 0,6.3114c0,3.1557 0,4.73355 0,6.3114c0,1.57785 0,3.1557 0,4.73355c0,1.57785 0,3.1557 0,6.3114c0,1.57785 -0.21022,3.19789 0,4.73355c0.47006,3.4338 1.82996,6.3114 2.74495,7.88925c0.91498,1.57785 1.82996,3.1557 2.74495,4.73355c0.91498,1.57785 1.18297,2.03999 1.82996,3.1557c0.64699,1.1157 1.82996,1.57785 2.74495,1.57785c1.82996,0 3.01294,0.46214 3.65993,1.57785c0.64699,1.1157 0.26799,2.03999 0.91498,3.1557c0.64699,1.1157 1.89961,0.97401 2.74495,1.57785c1.19548,0.85392 1.89961,2.55186 2.74495,3.1557c1.19548,0.85392 2.74495,1.57785 2.74495,1.57785c0.91498,0 1.82996,0 1.82996,0c0,0 0.91498,0 0.91498,0c0,0 0.91498,0 0.91498,0c0,-1.57785 -0.75434,-3.31016 -1.82996,-6.3114c-0.48103,-1.3422 -0.91498,-3.1557 -1.82996,-4.73355c0,0 0,0 0,0c-0.91498,-1.57785 -1.54865,-3.4492 -2.74495,-6.3114c-0.7566,-1.81022 -0.91498,-3.1557 -1.82996,-3.1557c0,0 0,-1.57785 0,-1.57785c-0.91498,-1.57785 -1.08517,-4.24846 -2.74495,-6.3114c-1.04973,-1.30474 -1.82996,-3.1557 -1.82996,-4.73355c0,0 0.35015,-0.12012 0,-1.57785c-0.49519,-2.06157 -1.23174,-4.26881 -2.74495,-7.88925c-1.19629,-2.86222 -1.82996,-4.73355 -1.82996,-6.3114c0,0 0,-1.57785 0,-1.57785c0,-1.57785 0,-1.57785 0,-1.57785c0,-1.57785 0,-1.57785 0,-3.1557c0,0 0,-3.1557 0,-4.73355l0,0l0,-1.57785l0,0" transform="rotate(35.158390045166016 171.44894409179693,98.45313262939449) " stroke="#HAIR"/>
        <path fill="#HAIR" stroke-width="4" stroke-opacity="null" id="svg_61" d="m376.54068,98.37198c0,1.27765 0,3.83294 0,5.11059c0,2.55529 0,3.83294 0,5.11059c0,1.27765 0,2.55529 0,3.83294c0,1.27765 0,2.55529 0,5.11059c0,1.27765 0.66132,2.58946 0,3.83294c-1.47884,2.78048 -5.75707,5.11059 -8.63558,6.38823c-2.87852,1.27765 -5.75707,2.55529 -8.63558,3.83294c-2.87852,1.27765 -3.72161,1.65186 -5.75703,2.5553c-2.03546,0.90342 -5.75707,1.27765 -8.63558,1.27765c-5.75707,0 -9.47868,0.3742 -11.5141,1.27765c-2.03542,0.90342 -0.84309,1.65185 -2.87852,2.55529c-2.03546,0.90342 -5.97618,0.78869 -8.63558,1.27765c-3.76097,0.69144 -5.97615,2.06633 -8.63558,2.55529c-3.76097,0.69144 -8.63555,1.27765 -8.63555,1.27765c-2.87855,0 -5.75707,0 -5.75707,0c0,0 -2.87852,0 -2.87852,0c0,0 -2.87852,0 -2.87852,0c0,-1.27765 2.37311,-2.68037 5.75703,-5.11059c1.51332,-1.08683 2.87852,-2.55529 5.75707,-3.83294c0,0 0,0 0,0c2.87852,-1.27765 4.87204,-2.79295 8.63555,-5.11059c2.38026,-1.46581 2.87855,-2.55529 5.75707,-2.55529c0,0 0,-1.27765 0,-1.27765c2.87852,-1.27765 3.41393,-3.44013 8.63555,-5.11059c3.30247,-1.0565 5.75707,-2.55529 5.75707,-3.83294c0,0 -1.10157,-0.09727 0,-1.27765c1.55786,-1.66933 3.87504,-3.45662 8.63558,-6.38823c3.76352,-2.31765 5.75703,-3.83294 5.75703,-5.11059c0,0 0,-1.27765 0,-1.27765c0,-1.27765 0,-1.27765 0,-1.27765c0,-1.27765 0,-1.27765 0,-2.55529c0,0 0,-2.55529 0,-3.83294l0,0l0,-1.27765l0,0" transform="rotate(-51.575862884521484 334.9490356445313,119.4531402587891) " stroke="#HAIR"/>
        <path fill="#HAIR" stroke-width="4" stroke-opacity="null" id="svg_62" d="m197.98965,158.58706c0,-1.59447 0,-4.78342 0,-6.37789c0,-3.18896 0,-4.78342 0,-6.3779c0,-1.59447 0,-3.18894 0,-4.78342c0,-1.59447 0,-3.18894 0,-6.37789c0,-1.59448 0.26562,-3.23159 0,-4.78342c-0.59397,-3.46998 -2.31232,-6.3779 -3.46848,-7.97237c-1.15615,-1.59448 -2.31232,-3.18896 -3.46847,-4.78342c-1.15615,-1.59449 -1.49478,-2.06148 -2.31231,-3.18896c-0.81754,-1.12745 -2.31232,-1.59448 -3.46848,-1.59448c-2.31232,0 -3.8071,-0.46699 -4.62463,-1.59448c-0.81752,-1.12744 -0.33863,-2.06147 -1.15615,-3.18894c-0.81754,-1.12745 -2.40033,-0.98427 -3.46847,-1.59448c-1.51059,-0.8629 -2.40032,-2.57873 -3.46847,-3.18894c-1.51059,-0.8629 -3.46846,-1.59448 -3.46846,-1.59448c-1.15616,0 -2.31232,0 -2.31232,0c0,0 -1.15615,0 -1.15615,0c0,0 -1.15615,0 -1.15615,0c0,1.59448 0.95316,3.34504 2.31231,6.3779c0.60782,1.35634 1.15615,3.18894 2.31232,4.78342c0,0 0,0 0,0c1.15615,1.59448 1.95685,3.48554 3.46846,6.3779c0.95603,1.8293 1.15617,3.18896 2.31232,3.18896c0,0 0,1.59447 0,1.59447c1.15615,1.59448 1.37121,4.29322 3.46846,6.3779c1.32643,1.31849 2.31232,3.18894 2.31232,4.78342c0,0 -0.44244,0.12138 0,1.59447c0.62571,2.0833 1.55641,4.31378 3.46848,7.97238c1.51161,2.89238 2.31231,4.78341 2.31231,6.37789c0,0 0,1.59448 0,1.59448c0,1.59447 0,1.59447 0,1.59447c0,1.59448 0,1.59448 0,3.18896c0,0 0,3.18894 0,4.78342l0,0l0,1.59447l0,0" transform="rotate(-150.38027954101562 181.28439331054685,132.27822875976562) " stroke="#HAIR"/>
        <path fill="#HAIR" stroke="#HAIR" stroke-width="4" stroke-opacity="null" id="svg_63" d="m159.8449,69.79791c0,1 0,3 0,4c0,2 0,3 0,4c0,1 0,2 0,3c0,1 0,2 0,4c0,1 -0.22975,2.02674 0,3c0.51374,2.17625 2,4 3,5c1,1 2,2 3,3c1,1 1.29289,1.29289 2,2c0.70711,0.7071 2,1 3,1c2,0 3.29289,0.29289 4,1c0.70711,0.7071 0.29289,1.29289 1,2c0.70711,0.7071 2.07612,0.6173 3,1c1.30656,0.54119 2.07612,1.6173 3,2c1.30656,0.54119 3,1 3,1c1,0 2,0 2,0c0,0 1,0 1,0c0,0 1,0 1,0c0,-1 -0.82443,-2.09789 -2,-4c-0.52573,-0.85065 -1,-2 -2,-3c0,0 0,0 0,0c-1,-1 -1.69255,-2.18601 -3,-4c-0.8269,-1.14727 -1,-2 -2,-2c0,0 0,-1 0,-1c-1,-1 -1.186,-2.69256 -3,-4c-1.14727,-0.82691 -2,-2 -2,-3c0,0 0.38268,-0.07613 0,-1c-0.5412,-1.30657 -1.34619,-2.70546 -3,-5c-1.30745,-1.814 -2,-3 -2,-4c0,0 0,-1 0,-1c0,-1 0,-1 0,-1c0,-1 0,-1 0,-2c0,0 0,-2 0,-3l0,0l0,-1l0,0" transform="rotate(-168.76031494140625 174.2938537597656,86.29791259765625) "/>
        <path fill="#HAIR" stroke="#HAIR" stroke-width="4" stroke-opacity="null" id="svg_64" d="m294.32755,32.55657c0,1 0,3 0,4c0,2 0,3 0,4c0,1 0,2 0,3c0,1 0,2 0,4c0,1 -0.22975,2.02674 0,3c0.51374,2.17625 2,4 3,5c1,1 2,2 3,3c1,1 1.29289,1.29289 2,2c0.70711,0.7071 2,1 3,1c2,0 3.29289,0.29289 4,1c0.70711,0.7071 0.29289,1.29289 1,2c0.70711,0.7071 2.07612,0.6173 3,1c1.30656,0.54119 2.07612,1.6173 3,2c1.30656,0.54119 3,1 3,1c1,0 2,0 2,0c0,0 1,0 1,0c0,0 1,0 1,0c0,-1 -0.82443,-2.09789 -2,-4c-0.52573,-0.85065 -1,-2 -2,-3c0,0 0,0 0,0c-1,-1 -1.69255,-2.18601 -3,-4c-0.8269,-1.14727 -1,-2 -2,-2c0,0 0,-1 0,-1c-1,-1 -1.186,-2.69256 -3,-4c-1.14727,-0.82691 -2,-2 -2,-3c0,0 0.38268,-0.07613 0,-1c-0.5412,-1.30657 -1.34619,-2.70546 -3,-5c-1.30745,-1.814 -2,-3 -2,-4c0,0 0,-1 0,-1c0,-1 0,-1 0,-1c0,-1 0,-1 0,-2c0,0 0,-2 0,-3l0,0l0,-1l0,0" transform="rotate(-168.76031494140625 308.7764892578125,49.05657196044921) "/>
        <ellipse fill="#HAIR" stroke-width="4" stroke-opacity="null" cx="252.55174" cy="87.93096" id="svg_65" rx="75.862" ry="32.06894" stroke="#HAIR"/>

    </g>
</svg>