
<svg width="512" height="512" xmlns="http://www.w3.org/2000/svg">
  <g stroke="null" id="hair">
   <path fill="#HAIR" d="m162.99999,81.36747l0,45.63253l28.30769,-42.59036s34.37363,7.30121 63.69231,7.30121s63.6923,-7.30121 63.6923,-7.30121l28.30769,42.59036l0,-45.63253c0,-30.57866 -41.18971,-55.36747 -92,-55.36747c-50.81029,0 -92.00001,24.78881 -92.00001,55.36747l0.00002,0z"/>
   <path fill="#SKIN" d="m170.99999,104.85542l0,36.14458l26,-33.73494s31.57143,5.78314 58.5,5.78314s58.49999,-5.78314 58.49999,-5.78314l26,33.73494l0,-36.14458c0,-24.22072 -37.83185,-43.85542 -84.5,-43.85542c-46.66814,0 -84.50001,19.6347 -84.50001,43.85542l0.00002,0z"/>
  </g>
</svg>