<svg width="512" height="512" xmlns="http://www.w3.org/2000/svg">
<g stroke="null" id="hair">
   <path id="svg_48" fill="#HAIR" d="m311.15622,90.05832s-8.54573,24.69515 -130.62387,24.69515l-19.53237,23.42853l0,-32.29373l0,-20.89532c0,-20.98319 32.79361,-37.99295 73.2477,-37.99295l45.16752,0c17.52945,0 31.73998,7.37088 31.73998,16.46325l0,26.59506l0.00103,0l0,0.00001l0.00001,0z"/>
   <path id="svg_49" fill="#HAIR" d="m311.15622,83.07159s-2.44194,19.75359 25.63618,25.67938l12.20761,24.36229l0,-33.58081l0,-23.70374c0,-11.27328 -16.94376,-20.41157 -37.84379,-20.41157l0,27.65447l0,-0.00001l0,-0.00001z"/>
   <path transform="rotate(-27.94554328918457 312.9142150878905,102.1102600097657) " d="m310.5,87.45313c0,0 0,1 0,2c0,2 0,3 0,5c0,1 0,2 0,3c0,1 0,2 0,3c0,1 -0.4588,1.69343 -1,3c-0.38268,0.92387 -0.29289,1.29289 -1,2c-0.70711,0.7071 -2.29289,0.29289 -3,1c-0.70711,0.7071 -1,1 -2,2c0,0 -0.07612,0.6173 -1,1c-1.30656,0.54119 -2,1 -2,1c0,0 -0.29289,0.29289 -1,1c-0.70711,0.7071 -2.07612,0.6173 -3,1c-1.30656,0.54119 -1.69344,1.4588 -3,2c-0.92388,0.38269 -2,1 -3,1c0,0 -1.70711,0.29289 -1,1c0.70711,0.7071 1,0 1,0c0,0 2,0 2,0c1,0 3,0 4,0c0,0 1,0 2,0c0,0 1,0 1,0c1,0 2,0 3,0c2,0 3,0 5,0c1,0 3.0535,0.4595 5,0c2.17625,-0.51375 3,-1 4,-2c2,-2 3.15224,-2.23464 5,-3c1.30656,-0.5412 2.1731,-1.85274 3,-3c1.30745,-1.814 3,-4 4,-5c1,-1 2.4588,-0.69344 3,-2c0.38268,-0.92388 1.4588,-1.69344 2,-3c0.76537,-1.84777 1.4588,-2.69344 2,-4c0.38268,-0.92388 1,-2 1,-3l0,-1l0,-1l0,0" id="svg_42" stroke-width="19" fill="#HAIR"/>
   <path transform="rotate(5.563987731933594 236.91024780273406,102.01839447021496) " d="m238.81586,87.36126c0,0 0,1 0,2c0,2 0,3 0,5c0,1 0,2 0,3c0,1 0,2 0,3c0,1 0.36215,1.69343 0.78933,3c0.30206,0.92387 0.23119,1.29289 0.78933,2c0.55814,0.7071 1.80985,0.29289 2.368,1c0.55814,0.7071 0.78933,1 1.57866,2c0,0 0.06008,0.6173 0.78933,1c1.03131,0.54119 1.57866,1 1.57866,1c0,0 0.23119,0.29289 0.78933,1c0.55814,0.7071 1.63875,0.6173 2.368,1c1.03131,0.54119 1.33669,1.4588 2.368,2c0.72925,0.38269 1.57866,1 2.368,1c0,0 1.34748,0.29289 0.78933,1c-0.55814,0.7071 -0.78933,0 -0.78933,0c0,0 -1.57866,0 -1.57866,0c-0.78933,0 -2.368,0 -3.15733,0c0,0 -0.78933,0 -1.57866,0c0,0 -0.78933,0 -0.78933,0c-0.78933,0 -1.57866,0 -2.368,0c-1.57866,0 -2.368,0 -3.94666,0c-0.78933,0 -2.41023,0.4595 -3.94666,0c-1.71778,-0.51375 -2.368,-1 -3.15733,-2c-1.57866,-2 -2.48816,-2.23464 -3.94666,-3c-1.03131,-0.5412 -1.7153,-1.85274 -2.368,-3c-1.03201,-1.814 -2.368,-4 -3.15733,-5c-0.78933,-1 -1.94081,-0.69344 -2.368,-2c-0.30206,-0.92388 -1.15148,-1.69344 -1.57866,-3c-0.60413,-1.84777 -1.15148,-2.69344 -1.57866,-4c-0.30206,-0.92388 -0.78933,-2 -0.78933,-3l0,-1l0,-1l0,0" id="svg_43" stroke-width="19" fill="#HAIR"/>
   <ellipse ry="23" rx="61" id="svg_50" cy="56" cx="257.5" opacity="undefined" fill="#HAIR"/>
  </g>
</svg>