<svg width="512" height="512" xmlns="http://www.w3.org/2000/svg">
    <g id="hair">
        <path stroke="null" d="m162.99999,79.14458l0,38.85542l28,-36.26506s34,6.21687 63,6.21687s62.99999,-6.21687 62.99999,-6.21687l28,36.26506l0,-38.85542c0,-26.03727 -40.74199,-47.14458 -91,-47.14458c-50.258,0 -91.00001,21.1073 -91.00001,47.14458l0.00002,0z" fill="#HAIR"/>
        <path transform="rotate(18.23560905456543 200.00000000000006,78.12320709228518) " stroke="null" d="m195,55.86623c0,0.80437 0,0.80437 0,1.60874c0,1.60874 0,2.41311 0,3.21748c0,0.80437 0,1.60874 0.33333,2.41311c0,0 0,0.80437 0,1.60874c0,0 0,0.80437 0,1.60874c0,0 0.33333,0.80437 0.33333,1.60874c0,1.60874 0.15293,2.16652 0.33333,3.21748c0.12756,0.74314 0.16209,1.46697 0.33333,3.21748c0.07659,0.78285 0.16449,1.51105 0.33333,4.02185c0.0534,0.79399 0.39103,2.29466 0.66667,3.21748c0.43582,1.45912 0.49542,3.0757 0.66667,4.82622c0.07659,0.78285 0.25674,2.43462 0.33333,3.21748c0.17124,1.75051 0.33333,2.41311 0.66667,4.02185c0.33333,1.60874 0.41154,2.53556 0.66667,4.02185c0.1804,1.05096 0.19526,1.27556 0.66667,2.41311c0.2357,0.56878 0.43097,0.23559 0.66667,0.80437c0.2357,0.56878 0.23115,1.17342 0.66667,1.60874c0.61592,0.61564 1,0 1.66667,0c0.33333,0 0.5391,-0.8656 0.66667,-1.60874c0.1804,-1.05096 0.49542,-1.46697 0.66667,-3.21748c0.15317,-1.56571 0.33333,-3.21748 0.33333,-4.82622c0,-0.80437 0,-1.60874 0,-1.60874c0,-0.80437 0,-0.80437 0,-1.60874c0,-0.80437 0,-1.60874 0,-2.41311c0,-0.80437 -0.20577,-2.47434 -0.33333,-3.21748c-0.1804,-1.05096 -0.5391,-2.47434 -0.66667,-3.21748c-0.1804,-1.05096 -0.20577,-0.8656 -0.33333,-1.60874c-0.1804,-1.05096 -0.33333,-1.60874 -0.33333,-1.60874c-0.33333,-1.60874 -0.66667,-2.41311 -1,-4.02185c-0.33333,-1.60874 -0.78206,-2.98056 -1.33333,-4.82622c-0.43582,-1.45912 -0.43097,-1.84433 -0.66667,-2.41311c-0.2357,-0.56878 0,-0.80437 0,-0.80437c-0.33333,0 -0.33333,-0.80437 -0.33333,-0.80437c0,-1.60874 -0.16209,-2.27134 -0.33333,-4.02185c-0.07659,-0.78285 -0.16209,-1.46697 -0.33333,-3.21748c-0.07659,-0.78285 -0.33333,-1.60874 -0.66667,-2.41311l0,-0.80437l0,0l0,-0.80437" id="svg_45" stroke-opacity="null" stroke-width="78" fill="#HIGHLIGHTS"/>
        <path stroke="null" transform="rotate(64.84590911865234 325.49999999999994,92.12319946289062) " d="m360.92056,96.12939c0,-0.14478 0,-0.14478 0,-0.28957c0,-0.28957 0,-0.43435 0,-0.57914c0,-0.14478 0,-0.28957 -2.36135,-0.43435c0,0 0,-0.14478 0,-0.28957c0,0 0,-0.14478 0,-0.28957c0,0 -2.36142,-0.14478 -2.36142,-0.28957c0,-0.28957 -1.08337,-0.38997 -2.36135,-0.57914c-0.90365,-0.13376 -1.14826,-0.26405 -2.36135,-0.57913c-0.54257,-0.14091 -1.16527,-0.27199 -2.36142,-0.72392c-0.37822,-0.14292 -2.7701,-0.41303 -4.72269,-0.57914c-3.0874,-0.26264 -3.50968,-0.55362 -4.72277,-0.8687c-0.54257,-0.14091 -1.81878,-0.43822 -2.36135,-0.57914c-1.21315,-0.31509 -2.36142,-0.43435 -4.72277,-0.72392c-2.36135,-0.28957 -2.9154,-0.45639 -4.72277,-0.72392c-1.27797,-0.18917 -1.38324,-0.2296 -4.72269,-0.43435c-1.66973,-0.10238 -3.05304,-0.04241 -4.72277,-0.14478c-1.66973,-0.10238 -1.63749,-0.21121 -4.72277,-0.28957c-4.36318,-0.11081 -7.08411,0 -11.80681,0c-2.36142,0 -3.81912,0.15581 -4.72277,0.28957c-1.27797,0.18917 -3.50961,0.26405 -4.72277,0.57914c-1.085,0.28182 -2.36135,0.57913 -2.36135,0.8687c0,0.14478 0,0.28957 0,0.28957c0,0.14478 0,0.14478 0,0.28957c0,0.14478 0,0.28957 0,0.43435c0,0.14478 1.4577,0.44537 2.36135,0.57914c1.27797,0.18917 3.81912,0.44537 4.72277,0.57914c1.27797,0.18917 1.4577,0.15581 2.36135,0.28957c1.27797,0.18917 2.36142,0.28957 2.36142,0.28957c2.36135,0.28957 4.72269,0.43435 7.08411,0.72392c2.36135,0.28957 5.5402,0.53649 9.44546,0.8687c3.0874,0.26264 3.05304,0.33198 4.72277,0.43435c1.66965,0.10238 0,0.14478 0,0.14478c2.36135,0 2.36135,0.14478 2.36135,0.14478c0,0.28957 1.14826,0.40883 2.36135,0.72392c0.54257,0.14091 1.14826,0.26405 2.36142,0.57914c0.54257,0.14091 2.36135,0.28957 4.72269,0.43435l0,0.14478l0,0l0,0.14478" id="svg_46" stroke-opacity="null" stroke-width="78" fill="#HIGHLIGHTS"/>
        <path d="m183,59.45313c0,0 -1,0 -2,1c-2,2 -2.41886,3.41886 -4,5c-1.58114,1.58114 -2.1731,1.85273 -3,3c-1.30745,1.814 -2.4588,2.69344 -3,4c-0.38268,0.92387 -1.77025,2.02675 -2,3c-0.51374,2.17625 -1.61732,3.07613 -2,4c-0.5412,1.30656 -1,2 -2,4c-1,2 -1.78985,3.07843 -3,6c-0.85571,2.06586 -1.45881,3.69344 -2,5c-0.38268,0.92387 0,3 0,4c0,0 0,1 0,1c-1,0 -1,1 -1,3c0,1 -0.31074,3.08025 -1,6c-0.51374,2.17625 -1,4 -2,6c-1,2 -1,3 -2,4l0,1l0,0" id="svg_48" stroke-width="7" stroke="#HIGHLIGHTS" fill="none"/>
        <path stroke="#HIGHLIGHTS" d="m321,49.45313c0,0 0.93103,0 1.86207,1c1.86207,2 2.25204,3.41886 3.72414,5c1.4721,1.58113 2.02323,1.85272 2.7931,3c1.21728,1.81399 2.28923,2.69343 2.7931,4c0.35629,0.92387 1.64816,2.02674 1.86207,3c0.47831,2.17625 1.50578,3.07612 1.86207,4c0.50388,1.30656 0.93103,2 1.86207,4c0.93103,2 1.66641,3.07843 2.7931,6c0.7967,2.06585 1.3582,3.69343 1.86207,5c0.35629,0.92387 0,3 0,4c0,0 0,1 0,1c0.93103,0 0.93103,1 0.93103,3c0,1 0.28931,3.08024 0.93103,6c0.47831,2.17625 0.93103,4 1.86207,6c0.93103,2 0.93103,3 1.86207,4l0,1l0,0" id="svg_49" stroke-width="7" fill="none"/>
        <path stroke="#HIGHLIGHTS" transform="rotate(4.112905979156494 176.64979553222662,86.04315185546872) " d="m149.10377,128.65138c0,0 0,-1.54939 0,-4.64817c0,-1.54939 0,-4.64817 0,-6.19756c0,-3.09878 0,-4.64817 0,-7.74695c0,-4.64817 0,-7.74695 0,-10.84573c0,-1.54939 -0.74906,-3.18168 0,-6.19756c0.83748,-3.37187 1.63015,-4.64817 3.26029,-7.74695c1.63015,-3.09878 2.51123,-6.28046 3.26029,-9.29634c0.83748,-3.37187 2.63646,-6.3155 3.26029,-7.74695c0.88223,-2.02438 2.63646,-3.21672 3.26029,-4.64817c0.88223,-2.02438 3.26029,-3.09878 4.89044,-4.64817c1.63015,-1.54939 4.89044,-3.09878 6.52058,-4.64817c1.63015,-1.54939 3.56351,-2.62242 6.52058,-4.64817c1.87022,-1.2812 3.3039,-1.19342 4.89044,-1.54939c3.54761,-0.79598 4.89044,-1.54939 6.52058,-3.09878c0,0 1.63015,0 3.26029,0c0,0 0,0 1.63015,0c0,0 0,-1.54939 1.63015,-1.54939c0,0 1.63015,0 3.26029,0c0,0 1.63015,0 1.63015,0l1.63015,0" id="svg_50" fill-opacity="null" stroke-opacity="null" stroke-width="7" fill="none"/>
        <path stroke="#HIGHLIGHTS" transform="rotate(4.112905979156494 290.9376525878908,85.94683837890595) " d="m317.1697,128.55507c0,0 0,-1.54939 0,-4.64817c0,-1.54939 0,-4.64817 0,-6.19756c0,-3.09878 0,-4.64817 0,-7.74695c0,-4.64817 0,-7.74695 0,-10.84573c0,-1.54939 0.71334,-3.18169 0,-6.19757c-0.79753,-3.37186 -1.55238,-4.64817 -3.10477,-7.74695c-1.55238,-3.09878 -2.39144,-6.28046 -3.10477,-9.29634c-0.79753,-3.37187 -2.5107,-6.3155 -3.10477,-7.74695c-0.84015,-2.02438 -2.51071,-3.21672 -3.10477,-4.64817c-0.84015,-2.02438 -3.10478,-3.09879 -4.65716,-4.64818c-1.55239,-1.54939 -4.65716,-3.09878 -6.20955,-4.64817c-1.55238,-1.54939 -3.39352,-2.62242 -6.20954,-4.64817c-1.78101,-1.2812 -3.1463,-1.19341 -4.65716,-1.54939c-3.37839,-0.79598 -4.65716,-1.54939 -6.20954,-3.09878c0,0 -1.55239,0 -3.10478,0c0,0 0,0 -1.55238,0c0,0 0,-1.54939 -1.55239,-1.54939c0,0 -1.55238,0 -3.10477,0c0,0 -1.55239,0 -1.55239,0l-1.55238,0" id="svg_51" fill-opacity="null" stroke-opacity="null" stroke-width="7" fill="none"/>
        <path stroke="#HIGHLIGHTS" transform="rotate(-117.48136138916016 210.9376220703125,82.94683837890625) " d="m237.1697,125.55507c0,0 0,-1.54939 0,-4.64817c0,-1.54939 0,-4.64817 0,-6.19756c0,-3.09878 0,-4.64817 0,-7.74695c0,-4.64817 0,-7.74695 0,-10.84573c0,-1.54939 0.71334,-3.18169 0,-6.19757c-0.79753,-3.37186 -1.55238,-4.64817 -3.10477,-7.74695c-1.55238,-3.09878 -2.39144,-6.28046 -3.10477,-9.29634c-0.79753,-3.37187 -2.5107,-6.3155 -3.10477,-7.74695c-0.84015,-2.02438 -2.51071,-3.21672 -3.10477,-4.64817c-0.84015,-2.02438 -3.10478,-3.09879 -4.65716,-4.64818c-1.55239,-1.54939 -4.65716,-3.09878 -6.20955,-4.64817c-1.55239,-1.54939 -3.39352,-2.62242 -6.20955,-4.64817c-1.78101,-1.2812 -3.1463,-1.19341 -4.65716,-1.54939c-3.37838,-0.79598 -4.65716,-1.54939 -6.20954,-3.09878c0,0 -1.55239,0 -3.10478,0c0,0 0,0 -1.55238,0c0,0 0,-1.54939 -1.55239,-1.54939c0,0 -1.55238,0 -3.10477,0c0,0 -1.5524,0 -1.5524,0l-1.55238,0" id="svg_52" fill-opacity="null" stroke-opacity="null" stroke-width="7" fill="none"/>
        <path stroke-opacity="0.5" d="m251,88.45313c0,-1 0,-2 0,-3c0,-2 0,-3 0,-4c0,0 0,-1 0,-1c0,-1 0,-1 0,-2c0,0 0,0 0,-1c0,-1 0,-3 0,-4c0,-1 0,-2 0,-3c0,-1 0,-2 0,-3c0,-1 0,-1 0,-2c0,-1 0,-2 0,-2c0,-1 0,-2 0,-2c0,-1 0,-2 0,-2c0,-1 0,-2 0,-3c0,-1 0,-2 0,-4c0,0 0,-1 0,-1c0,-1 0,-2 0,-3c0,-1 0,-2 0,-3c0,0 0,-1 0,-1c0,0 0,-1 0,-1c0,0 0,-1 0,-1c0,-1 0,-1 0,-2c0,0 0,0 0,-1l0,0l0,-1l0,-1" id="svg_53" stroke-width="7" stroke="#SKIN" fill="none"/>

    </g>
</svg>