<svg width="512" height="512" xmlns="http://www.w3.org/2000/svg">
    <g id="shirt">
        <g id="chest">
            <path fill="#ffffff" d="m255.74181,313.00899l44,0l98.846,21.665c27.533,6.035 47.154,30.421 47.154,58.609l0,85.726l-66,0l0,33l-124,0l-124,0l0,-33l-66,0l0,-85.726c0,-28.187 19.621,-52.574 47.154,-58.609l98.846,-21.665l44,0z"/>
        </g>
        <g id="left-sleeve">
            <path d="m131.9286,479.52537l-66,0l0,-20l66,0l0,20z" fill="#ffffff"/>
        </g>
        <g id="right-sleeve">
            <path fill="#ffffff" d="m379.92691,458.49199l66,0l0,20l-66,0l0,-20z"/>
        </g>
    </g>
    <g id="stripe">
        <line transform="rotate(-7.897456169128418 264.5000000000003,440.4531250000001) " y2="346.02338" x2="370.53749" y1="534.88287" x1="158.4625" stroke-width="37" fill="none" stroke="#0000ff"/>
        <path d="m329.89,362.513c0.0606,0.0248 0.15985,0.0248 0.22049,0l3.0909,-1.2926c0.0441,-0.0193 0.0441,-0.04823 0,-0.06615l-3.0909,-1.294c-0.0606,-0.0248 -0.15985,-0.0248 -0.22049,0l-3.0923,1.294c-0.0427,0.01792 -0.0427,0.04685 0,0.06615l3.0923,1.2926zm6.6118,-1.6261c0.11438,0.05099 0.19293,0.16536 0.19293,0.29903c0,0.13505 -0.0799,0.24942 -0.19431,0.30042l-6.259,2.6169c-0.13229,0.0565 -0.35002,0.0565 -0.48369,0l-6.2577,-2.6169c-0.11576,-0.05099 -0.19568,-0.16536 -0.19568,-0.30042c0,-0.13367 0.0799,-0.24942 0.19568,-0.29903l6.2577,-2.6169c0.13367,-0.0565 0.3514,-0.0565 0.48369,0l6.26038,2.6169zm7.0928,-0.32797c0.24115,0.10749 0.40514,0.34726 0.40514,0.62701c0,0.28112 -0.16674,0.5209 -0.4079,0.62838l-13.086,5.4722c-0.27837,0.11576 -0.7345,0.11576 -1.0129,0l-13.084,-5.4722c-0.24116,-0.10611 -0.40928,-0.34726 -0.40928,-0.62838c0,-0.27974 0.16812,-0.5209 0.40928,-0.62701l13.084,-5.4722c0.27836,-0.11575 0.73449,-0.11575 1.0129,0l13.08876,5.4722zm-13.969,-3.8806l-10.512,4.3959c-0.14745,0.06201 -0.14745,0.16261 0,0.22462l10.512,4.3959c0.20671,0.08682 0.54295,0.08682 0.74827,0l10.513,-4.3959c0.14745,-0.06202 0.14745,-0.16261 0,-0.22462l-10.513,-4.3959c-0.20532,-0.08544 -0.54156,-0.08544 -0.74827,0" fill="#ffffff" stroke="null"/>
        <path d="m319,370.461l0,2.045c0,1.1576 0.81441,1.6509 1.8686,1.6509c1.0542,0 1.87,-0.49334 1.87,-1.6509l0,-2.045l-1.2471,0l0,1.9444c0,0.44511 -0.10887,0.84474 -0.62287,0.84474c-0.51263,0 -0.62288,-0.39963 -0.62288,-0.84474l0,-1.9444l-1.2457,0m19.013,1.819c0,-0.62839 0.35278,-1.0873 0.87505,-1.0873c0.55397,0 0.86679,0.47542 0.86679,1.0294c0,0.66972 -0.32935,1.119 -0.86679,1.119c-0.47542,0 -0.87505,-0.45062 -0.87505,-1.0611m0.88746,-1.9017c-1.1934,0 -2.1029,0.69316 -2.1029,1.8934c0,1.192 0.9095,1.8865 2.1029,1.8865c1.192,0 2.1015,-0.69453 2.1015,-1.8865c0,-1.2003 -0.9095,-1.8934 -2.1015,-1.8934m-10.815,-0.0014c-0.51263,0 -0.99081,0.20808 -1.283,0.69453c-0.1943,-0.47267 -0.61736,-0.69453 -1.13,-0.69453c-0.56913,0 -1.068,0.23013 -1.3188,0.74965l-0.0138,0l0,-0.66559l-1.1369,0l0,3.6132l1.2485,0l0,-1.5255c0,-0.77722 0.26321,-1.1314 0.70693,-1.1314c0.35416,0 0.50023,0.30592 0.50023,0.7152l0,1.9417l1.2485,0l0,-1.5255c0,-0.77722 0.26321,-1.1314 0.70694,-1.1314c0.35416,0 0.50023,0.30592 0.50023,0.7152l0,1.9417l1.2485,0l0,-2.1291c0,-0.97841 -0.23702,-1.5682 -1.2774,-1.5682m3.7304,2.8732c-0.43546,0 -0.79788,-0.41341 -0.79788,-0.96463c0,-0.56637 0.31832,-0.98667 0.79788,-0.98667c0.50712,0 0.79099,0.43546 0.79099,0.93569c0,0.6022 -0.29765,1.0156 -0.79099,1.0156m0.49472,-2.8746c-0.50023,0 -0.92329,0.1447 -1.2416,0.54708l-0.0138,0l0,-1.7432l-1.2554,0l0,4.892l1.1507,0l0,-0.64492l0.0138,0c0.15985,0.40239 0.66559,0.72898 1.2416,0.72898c1.0749,0 1.6509,-0.88883 1.6509,-1.9568c0,-0.87368 -0.54846,-1.8231 -1.5462,-1.8231m2.989,0.75103l-0.0138,0l0,-0.66559l-1.1383,0l0,3.6132l1.2485,0l0,-1.5255c0,-0.70831 0.32659,-1.1314 0.9095,-1.1314c0.14607,0 0.28112,0 0.4203,0.04272l0.001,-1.0514c-0.11162,-0.01654 -0.2384,-0.0303 -0.35967,-0.0303c-0.54157,0 -0.853,0.29077 -1.068,0.74828" fill="#ffffff" fill-rule="evenodd" stroke="null"/>
        <text font-weight="bold" transform="rotate(-50.243595123291016 261.8359374999997,441.20312499999994) " xml:space="preserve" text-anchor="start" font-family="'Trebuchet MS', Gadget, sans-serif" font-size="29" y="451.45313" x="189.5" stroke-width="0" fill="#ffffff" stroke="#0000ff">STORETON</text>
    </g>

    <g id="logo">
        <text transform="rotate(34.41077423095703 61.179687499999986,224.203125) " xml:space="preserve" text-anchor="start" font-family="Helvetica, Arial, sans-serif" font-size="24" y="232.45313" x="54.5" fill-opacity="null" stroke-opacity="null" stroke-width="0" fill="#7f3f00" stroke="#0000ff"/>
        <text font-style="italic" xml:space="preserve" text-anchor="start" font-family="'Palatino Linotype', 'Book Antiqua', Palatino, serif" font-size="17" y="381.45313" x="147.5" stroke-width="0" fill="#0000ff" stroke="#0000ff">T</text>
        <text font-style="italic" xml:space="preserve" text-anchor="start" font-family="'Palatino Linotype', 'Book Antiqua', Palatino, serif" font-size="17" y="391.45313" x="155.5" stroke-width="0" fill="#0000ff" stroke="#0000ff">R</text>
        <text font-style="italic" xml:space="preserve" text-anchor="start" font-family="'Palatino Linotype', 'Book Antiqua', Palatino, serif" font-size="17" y="401.45313" x="163.5" stroke-width="0" fill="#0000ff" stroke="#0000ff">F</text>
        <text font-style="italic" xml:space="preserve" text-anchor="start" font-family="'Palatino Linotype', 'Book Antiqua', Palatino, serif" font-size="17" y="410.45313" x="172.5" stroke-width="0" fill="#0000ff" stroke="#0000ff">C</text>
    </g>

    <line y2="211.45313" x2="93.5" y1="305.45313" x1="28.5" stroke-opacity="null" stroke-width="3" fill="none" stroke="null"/>
    <line y2="81.45313" x2="110.5" y1="160.45313" x1="48.5" stroke-opacity="null" stroke-width="3" fill="none" stroke="null"/>
    <path transform="rotate(52.28608703613281 364.9164123535156,325.3844604492187) " d="m383.17558,339.74806l0,-28.72722l-36.51835,28.72722l36.51835,0z" stroke-opacity="null" stroke-width="0" fill="#0000ff" stroke="#0000ff"/>

    <g id="sleeves" stroke="null">
    <rect height="17.54386" width="65.25647" y="461.02906" x="65.82453" stroke-opacity="null" stroke-width="0" fill="#0000ff" id="svg_17" stroke="#0000ff"/>
    <rect height="17.54386" width="65.25647" y="460.15187" x="379.76107" stroke-opacity="null" stroke-width="0" fill="#0000ff" id="svg_18" stroke="#0000ff"/>
    </g>
</svg>