<svg width="512" height="512" xmlns="http://www.w3.org/2000/svg">
    <g id="shirt">
        <g id="chest">
            <path fill="#ffffff" d="m255.74181,313.00899l44,0l98.846,21.665c27.533,6.035 47.154,30.421 47.154,58.609l0,85.726l-66,0l0,33l-124,0l-124,0l0,-33l-66,0l0,-85.726c0,-28.187 19.621,-52.574 47.154,-58.609l98.846,-21.665l44,0z"/>
        </g>
        <g id="left-sleeve">
            <path d="m131.9286,479.52537l-66,0l0,-20l66,0l0,20z" fill="#ffffff"/>
        </g>
        <g id="right-sleeve">
            <path fill="#ffffff" d="m379.92691,458.49199l66,0l0,20l-66,0l0,-20z"/>
        </g>
    </g>



    <g id="stripes">
        <line stroke="#00007f" y2="428.68491" x2="167.86159" y1="512.22135" x1="167.13841" stroke-width="6" fill="none"/>
        <line transform="rotate(-1.2221590280532837 214.05331420898514,421.95199584960903) " y2="332.10899" x2="216.36258" y1="511.79501" x1="211.74404" stroke-width="6" fill="none" stroke="#00007f"/>
        <line stroke="#00007f" y2="347.06102" x2="301.73478" y1="499.84523" x1="211.26525" stroke-width="6" fill="none" transform="rotate(-31.445510864257812 256.5000305175782,423.45312499999994) "/>
        <line stroke="#00007f" y2="425.33179" x2="371.11436" y1="505.57447" x1="326.88567" stroke-width="6" fill="none" transform="rotate(-30.113733291625977 349.0000305175779,465.453125) "/>
        <line y2="347.91416" x2="336.21309" y1="498.99209" x1="246.78694" stroke-width="6" fill="none" transform="rotate(-31.445510864257812 291.5000305175781,423.45312500000006) " stroke="#00007f"/>       
    </g>
    <path d="m-9,420c0,0 300,0 300,100" fill="none" stroke="#00007f" stroke-width="6px" id="svg_44" transform="rotate(-86.26508331298828 140.99999999999997,470) "/>
    <path stroke="#00007f" transform="rotate(-95.72079467773438 371.22155761718756,467.6931762695313) " id="svg_47" stroke-width="6px" fill="none" d="m221.22155,521.17301c0,0 300,0 300,-106.95969"/>    

    <g id="piping">
        <path d="m26,426c0,0 300,0 300,100" fill="none" stroke="#ff0505" stroke-width="3px" id="svg_44" transform="rotate(-94.04907989501953 175.99999999999994,475.99999999999994) "/>
        <path stroke="#ff0505" transform="rotate(-86.4300308227539 334.2215576171875,477.69317626953125) " id="svg_47" stroke-width="3px" fill="none" d="m184.22155,531.17301c0,0 300,0 300,-106.95969"/>
    </g>


    <g fill="#000000" transform="translate(0,500) scale(0.10000000149011612,-0.10000000149011612) " id="logo">
        <path id="svg_27" fill="#00007f" d="m1671.82474,1214.79609c-3.53222,-1.10802 -3.20617,-3.9207 1.63026,-12.78489c6.57537,-11.93256 12.00955,-25.56977 14.45494,-36.39431l0.92381,-4.26163l7.98826,-0.2557l7.98826,-0.2557l-0.43474,1.96035c-2.11933,10.73931 -11.14008,29.49047 -20.32386,42.19013c-5.97761,8.26756 -9.12944,10.82454 -12.22692,9.80175l-0.00001,0z"/>
        <path id="svg_39" fill="#00007f" d="m1689.21414,1214.88133c-1.19552,-0.42616 -2.44538,-2.55698 -2.44538,-4.1764c0,-0.5114 1.35855,-3.4093 3.04315,-6.30721c6.84708,-12.01779 13.31376,-28.04152 15.48744,-38.09896l1.14118,-5.36965l7.82523,0c6.79273,0 7.82523,0.17047 7.82523,1.36372c0,2.21605 -4.12998,13.97814 -7.17313,20.37059c-3.74959,7.92663 -15.81349,26.84826 -18.91097,29.57571c-2.55407,2.30128 -4.99945,3.23884 -6.79273,2.64221l-0.00002,-0.00001z"/>
        <path id="svg_40" fill="#00007f" d="m1706.49486,1213.17667c-0.10868,-0.5114 1.30421,-4.00593 3.20617,-7.75616c6.57537,-13.04058 13.3681,-33.07024 14.34626,-42.10489l0.32605,-3.15361l32.71381,-0.34093c29.0729,-0.2557 33.0942,-0.5114 36.40906,-1.87512c5.05379,-1.96035 7.93391,-6.05151 8.31431,-11.5064c0.43474,-6.73337 -1.24986,-10.22791 -6.358,-12.95535c-1.35855,-0.68186 -12.22692,-1.10802 -37.22419,-1.44895l-35.32222,-0.5114l-3.04315,-2.21605c-1.6846,-1.27849 -3.47788,-3.15361 -3.96696,-4.26163c-0.48908,-1.10802 -8.20562,-20.62628 -17.11769,-43.38338c-8.91207,-22.7571 -17.82414,-45.42897 -19.78044,-50.45769l-3.64091,-9.20512l27.93172,0l27.93172,0l11.08574,29.23477l11.08574,29.14954l20.86728,0.5114c16.51993,0.42616 22.00846,0.85233 26.0841,2.04558c23.47569,6.73337 37.4959,23.35373 41.89759,49.60536c1.52157,8.86419 1.63026,24.71745 0.27171,32.64408c-1.79328,10.56884 -4.45603,17.64314 -9.83588,25.99594c-5.37985,8.52326 -10.92272,13.72245 -18.85663,17.81361c-9.12944,4.60256 -10.97706,4.77302 -60.97159,5.02872c-34.61578,0.08523 -46.1906,-0.08523 -46.35362,-0.85233l0.00002,0.00001z"/>
    </g>
    <g id="tranmere-logo">
        <path d="m316,370l29.756,0l0,34.75601l-29.756,0l0,-34.75601z" fill-opacity="0" fill="#fff" id="svg_5"/>
        <path d="m340.3425,372.22522l-19.09511,0l0,18.74927l9.60668,5.29068l9.60684,-5.29068l0,-18.74927l-0.1184,0l-0.00001,0z" id="svg_6"/>
        <path d="m342.87018,394.34864c-0.11609,0.05211 -0.94336,-0.00739 -1.20518,-0.14515c0.00787,-0.06834 0.01806,-0.1374 0.01806,-0.20537c0,-0.86423 -0.59093,-1.63163 -0.80088,-1.90354l-0.14357,-0.18879l-0.10127,0.16589c-0.94105,1.58547 -1.56239,2.63326 -5.59056,3.90662c-1.42315,0.42607 -2.20581,1.13361 -2.83503,1.70195c-0.49692,0.44897 -0.8563,0.77335 -1.33547,0.77335s-0.83855,-0.32438 -1.33516,-0.77335c-0.62922,-0.56834 -1.4125,-1.27588 -2.83688,-1.70268c-4.02585,-1.27281 -4.64735,-2.32042 -5.58855,-3.90589l-0.08614,-0.14479l-0.11562,0.11053l-0.04322,0.05734c-0.20979,0.27191 -0.80165,1.03967 -0.80165,1.90426c0,0.06762 0.01065,0.13632 0.01806,0.20429c-0.2612,0.13776 -1.08847,0.19726 -1.20533,0.14515l-0.32063,-0.14407l0.17259,0.34259c1.12398,2.19547 2.06039,3.17654 5.08098,4.30907c2.89493,1.11775 4.17034,2.10874 5.01491,2.76453c0.72956,0.56726 1.16998,0.90967 2.04681,0.90967c0.87652,0 1.31648,-0.34223 2.04604,-0.90931c0.84395,-0.65615 2.11906,-1.64714 5.01583,-2.76525c3.02043,-1.13217 3.95731,-2.11342 5.08005,-4.30871l0.17614,-0.34439l-0.32433,0.14605z" id="svg_7"/>
        <path fill="#00007f" d="m341.47096,394.40508l-0.06391,-0.05247l0.01605,-0.09016a1.07442,1.25496 0 0 0 0.02285,-0.26307c0,-0.70826 -0.4662,-1.35864 -0.6868,-1.64822c-0.93132,1.56582 -1.64436,2.62749 -5.65169,3.89508c-1.3773,0.41309 -2.13835,1.10062 -2.74997,1.65345c-0.51467,0.46448 -0.92021,0.83105 -1.48073,0.83105c-0.56021,0 -0.96636,-0.36657 -1.48027,-0.83105c-0.61208,-0.55283 -1.3736,-1.24036 -2.75275,-1.65417c-4.0047,-1.26668 -4.71759,-2.32854 -5.64953,-3.89435c-0.22013,0.2894 -0.68757,0.94032 -0.68757,1.64894c0,0.08655 0.00726,0.17508 0.023,0.26235l0.01621,0.08943l-0.06406,0.05283c-0.19513,0.16102 -0.83314,0.24432 -1.2183,0.2335c1.05111,1.99045 1.96731,2.88317 4.82472,3.95458c2.92611,1.13019 4.2182,2.1338 5.07264,2.79806c0.71613,0.55644 1.11055,0.86279 1.91575,0.86279c0.80474,0 1.19854,-0.30635 1.91467,-0.86243c0.85475,-0.6639 2.14576,-1.66788 5.07434,-2.79861c2.85741,-1.07087 3.7733,-1.96377 4.8238,-3.95422c-0.38516,0.01064 -1.02271,-0.07357 -1.21845,-0.23332l0,0.00001z" id="svg_8"/>
        <path fill="#fff" d="m330.87661,399.01419c1.31015,0 1.91945,-1.84638 4.3596,-2.55915c3.85172,-1.21782 4.64889,-2.18735 5.53961,-3.66248c0.26984,0.43112 0.54539,1.18897 0.3796,1.8426c0.24838,0.15777 0.69019,0.25893 1.04324,0.29192c-0.93194,1.6347 -1.79765,2.44015 -4.43216,3.42771c-5.19737,2.00632 -5.17839,3.50759 -6.88975,3.5862c-1.71136,-0.07862 -1.69299,-1.57988 -6.89006,-3.5862c-2.63466,-0.98756 -3.50068,-1.79283 -4.432,-3.42771c0.35351,-0.03318 0.79532,-0.13415 1.04355,-0.29192c-0.16579,-0.65363 0.10945,-1.41147 0.37883,-1.8426c0.89165,1.4753 1.68929,2.44484 5.54039,3.66248c2.4383,0.71277 3.04852,2.55915 4.35914,2.55915l0.00001,0z" id="svg_9"/>
        <path d="m321.16758,393.82881l0.83685,1.18013l-0.26181,0.25388l-0.26969,-0.37847l-0.7382,0.71619l-0.29994,-0.42175l0.73913,-0.71601l-0.26938,-0.37865l0.26305,-0.25532l-0.00001,0zm1.45557,1.60242l-0.58507,-0.39542l-0.65129,1.31681l0.40584,0.27461l0.22754,-0.45961l0.12319,0.08457c0.18972,0.12712 0.1888,0.20285 0.10451,0.37505c-0.05804,0.1163 -0.08969,0.20772 -0.09324,0.24342l0.41125,0.27786l0.0193,-0.04021c-0.04816,-0.03246 -0.01405,-0.08763 0.07101,-0.25929c0.13152,-0.26524 0.06854,-0.35179 -0.03689,-0.49099c0.16487,0.05608 0.29284,-0.02993 0.36663,-0.18103c0.1272,-0.25586 0.05017,-0.46646 -0.36277,-0.74577l-0.00001,0zm-0.04554,0.56167c-0.04492,0.09124 -0.12967,0.07916 -0.25425,-0.00559l-0.16039,-0.10819l0.12967,-0.26127l0.18864,0.12748c0.09448,0.06455 0.14187,0.15471 0.09633,0.24757zm1.63942,1.8426l-0.04909,-1.63272l-0.45046,-0.1859l-0.91727,1.23261l0.43317,0.17923l0.1076,-0.16841l0.44058,0.18211l-0.0054,0.21096l0.44088,0.18211l-0.00001,0.00001zm-0.70115,-0.83881l0.29269,-0.45709l-0.01389,0.57303l-0.27879,-0.11594l-0.00001,0zm1.95141,0.60981l0.08506,-0.33123l0.14248,-0.45402l0.42128,0.18031l-0.44799,1.42734l-0.41217,-0.17743l-0.23542,-0.98324l-0.08614,0.33376l-0.1414,0.45042l-0.42159,-0.18031l0.44814,-1.42662l0.41217,0.1767l0.23557,0.98432l0.00001,0zm0.42004,0.91616l0.53737,-1.38479l0.51575,0.27299l-0.10451,0.98486l0.56469,-0.74234l0.51622,0.27227l-0.53644,1.38515l-0.38361,-0.20213l0.16379,-0.42337l0.08845,-0.21313l0.1184,-0.23801l-0.00278,-0.00216l-0.58198,0.76398l-0.29716,-0.15741l0.10667,-1.01443l-0.00355,-0.00126l-0.06036,0.21295l-0.07518,0.22052l-0.18154,0.46917l-0.38423,-0.20285l0,-0.00001zm1.7021,0.92572l0.64805,-1.31879l1.0119,0.67797l-0.15175,0.30815l-0.60483,-0.40534l-0.09231,0.18806l0.51205,0.34295l-0.15221,0.30851l-0.51112,-0.34367l-0.10189,0.20736l0.62875,0.42193l-0.15098,0.30707l-1.03568,-0.6942l0.00002,0zm3.16461,1.68627l-0.03504,-1.51894l1.16612,-0.03805l0.00818,0.35503l-0.6973,0.02218l0.00448,0.21727l0.59093,-0.01893l0.00849,0.35413l-0.59016,0.01947l0.0054,0.23801l0.72524,-0.0229l0.00864,0.35431l-1.19499,0.03841l0.00001,0.00001zm4.54963,-3.1576c0.18818,0.46809 -0.00355,0.89452 -0.38655,1.10513c-0.40708,0.22286 -0.78668,0.10386 -0.97362,-0.36423c-0.17429,-0.43202 -0.01111,-0.86423 0.39195,-1.08511c0.46281,-0.25334 0.82203,-0.01893 0.96822,0.34421zm-0.9341,0.51172c0.07024,0.17616 0.20902,0.36838 0.41217,0.25676c0.18416,-0.10007 0.1888,-0.30851 0.09741,-0.53606c-0.07533,-0.18734 -0.22708,-0.3462 -0.41217,-0.23765c-0.19296,0.10494 -0.16796,0.34331 -0.09741,0.51695zm0.83916,-1.27588l0.44042,-0.19762l0.54539,0.83863l-0.06839,-1.05338l0.44166,-0.19834l0.0037,1.62676l-0.43965,0.1978l-0.92314,-1.21385l0.00001,0zm1.99988,0.74234l-0.40924,-1.44285l1.10746,-0.4286l0.09556,0.33592l-0.6621,0.25712l0.0582,0.2061l0.56021,-0.21691l0.09525,0.33628l-0.56021,0.21764l0.06484,0.22647l0.68927,-0.26704l0.09432,0.33682l-1.13355,0.43906l-0.00001,-0.00001zm2.99033,-2.92158a0.11686,0.1365 0 0 0 -0.11007,-0.02254c-0.03643,0.01298 -0.07147,0.03985 -0.10497,0.07609c-0.07564,0.0824 -0.09046,0.14154 -0.05912,0.18211c0.13322,0.16697 0.65453,-0.58962 0.97594,-0.1841c0.20562,0.25857 0.10189,0.60296 -0.18694,0.91526c-0.27679,0.30076 -0.5934,0.32366 -0.76136,0.13036l0.32958,-0.35611a0.15128,0.1767 0 0 0 0.12689,0.02705c0.04276,-0.01154 0.08629,-0.04219 0.12026,-0.07825c0.08568,-0.0934 0.11995,-0.18392 0.07811,-0.23657c-0.13446,-0.16913 -0.64558,0.60044 -0.98381,0.17508c-0.18787,-0.23693 -0.08954,-0.56455 0.17243,-0.84872c0.29192,-0.3159 0.54987,-0.3022 0.72971,-0.13307l-0.32665,0.35341zm-10.11595,4.30096l-0.61023,-0.3388l-0.55759,1.37307l0.42298,0.23567l0.19451,-0.47927l0.12967,0.0714c0.19729,0.10981 0.20269,0.18446 0.12967,0.36423c-0.05002,0.12261 -0.07518,0.21547 -0.07611,0.25171l0.42869,0.23837l0.01744,-0.04219c-0.05002,-0.02705 -0.02022,-0.08565 0.05326,-0.26488c0.11176,-0.27678 0.04322,-0.35684 -0.07163,-0.48558c0.16888,0.03985 0.28914,-0.05662 0.35397,-0.21547c0.10837,-0.26614 0.01683,-0.46935 -0.41464,-0.70826l0.00001,0zm-0.00664,0.56383c-0.03859,0.09466 -0.12211,0.09052 -0.25348,0.01803l-0.16672,-0.09268l0.11007,-0.27263l0.19806,0.10981c0.09803,0.05409 0.15221,0.14064 0.11207,0.23747zm4.02847,-0.46015c-0.04739,0.03318 -0.0724,-0.02849 -0.15854,-0.19924c-0.13322,-0.26343 -0.22878,-0.24198 -0.38408,-0.20321c0.12211,-0.14046 0.12118,-0.3114 0.0443,-0.46268c-0.12844,-0.25388 -0.32387,-0.27894 -0.7345,0.00523l-0.58105,0.40191l0.66179,1.30834l0.40461,-0.27894l-0.23156,-0.45637l0.12334,-0.08493c0.18756,-0.13036 0.24452,-0.09268 0.33082,0.07789c0.05882,0.11648 0.11099,0.19329 0.13662,0.21475l0.40847,-0.28237l-0.02022,-0.04039l0,0.00001zm-0.96513,-0.28255l-0.15947,0.11053l-0.13152,-0.25983l0.18818,-0.13073c0.09463,-0.06509 0.18416,-0.06834 0.23156,0.02434c0.04647,0.09052 -0.00355,0.16949 -0.12875,0.25568l0,0.00001zm6.72395,-2.4735c-0.05002,0.02705 -0.06931,-0.0366 -0.14264,-0.21547c-0.11099,-0.27714 -0.20748,-0.2656 -0.36571,-0.24414c0.13322,-0.12748 0.14557,-0.29715 0.08135,-0.45601c-0.10791,-0.26722 -0.29994,-0.31302 -0.7311,-0.07537l-0.61146,0.33772l0.55543,1.37343l0.42452,-0.2335l-0.19389,-0.47891l0.12875,-0.0714c0.19837,-0.10891 0.25085,-0.06617 0.32356,0.11378c0.04878,0.12225 0.09648,0.20429 0.11856,0.22899l0.43054,-0.23657l-0.01791,-0.04255zm-0.93796,-0.38605l-0.16765,0.09196l-0.11038,-0.27299l0.19806,-0.10891c0.09833,-0.05427 0.18941,-0.04886 0.22832,0.04832c0.03859,0.09647 -0.01791,0.16913 -0.14835,0.24162zm1.29826,-5.4966l0,-18.29759l-18.73975,0l0,18.29759c0.13338,0.07321 9.27077,5.10478 9.36988,5.15924l9.36988,-5.15924l-0.00001,0z" fill="#00007f" id="svg_10"/>
        <path fill="#fff" d="m332.31751,379.03448a3.59809,4.20269 0 0 0 -0.26691,-0.11846l0,-6.31467l7.79452,0l0,8.94432l-5.52865,0a3.8386,4.48361 0 0 0 -0.10621,-0.31663l5.36348,0l0,-8.31143l-7.25638,0l0,6.11687l0.00015,0zm-2.93475,0.03264c-0.9057,0.47927 -1.62044,1.37469 -1.9477,2.48144l-5.52649,0l0,-8.55142l7.4742,0l0,6.06999l-0.00001,-0.00001zm0.06669,7.78907a3.61723,4.22505 0 0 1 -0.29053,-0.15976l0,7.56819l-7.25036,-3.90481l0,-5.75084l5.61587,0a3.62279,4.23154 0 0 1 -0.10358,-0.31879l-5.78398,0l0,6.33324l7.81258,4.19583l0,-7.96307l0,0.00001zm2.66877,0.08998c1.05111,-0.44447 1.87453,-1.41923 2.22233,-2.66445l5.32396,0l0,6.13111l-7.54644,4.30114l0,-7.76779l0.00015,0l0,-0.00001zm-7.5449,-3.15724c1.31138,0 1.58169,-0.42193 1.58169,-0.9497c0,-0.47494 -0.36123,-0.81807 -0.7453,-0.81807c-0.18061,0 -0.31584,0.05301 -0.31584,0.28976c0,0.42247 0.48503,0.08006 0.48503,0.5541c0,0.2115 -0.23681,0.38298 -1.00557,0.38298c-0.76753,0 -1.0048,-0.17148 -1.0048,-0.38298c0,-0.47404 0.4855,-0.13163 0.4855,-0.5541c0,-0.23657 -0.13507,-0.28976 -0.31569,-0.28976c-0.38469,0 -0.74577,0.34313 -0.74577,0.81807c0,0.52777 0.27138,0.9497 1.58076,0.9497l-0.00001,0zm12.60565,0c-1.31,0 -1.58076,-0.42193 -1.58076,-0.9497c0,-0.47494 0.36123,-0.81807 0.7453,-0.81807c0.18092,0 0.31631,0.05301 0.31631,0.28976c0,0.42247 -0.4855,0.08006 -0.4855,0.5541c0,0.2115 0.23727,0.38298 1.00465,0.38298c0.76877,0 1.00588,-0.17148 1.00588,-0.38298c0,-0.47404 -0.48596,-0.13163 -0.48596,-0.5541c0,-0.23657 0.136,-0.28976 0.31662,-0.28976c0.38408,0 0.7453,0.34313 0.7453,0.81807c-0.00015,0.52777 -0.27108,0.9497 -1.58184,0.9497zm-6.05336,3.3976l0,6.10208c0,0.19798 -0.31662,1.78093 -0.33915,1.88731c-0.023,-0.10638 -0.33869,-1.68933 -0.33869,-1.88731l0,-6.12156c0.10096,0.0128 0.45632,0.05229 0.67784,0.01947l0,0.00001zm0,-8.4766l0,-3.37776c-0.52069,0 -0.81431,-0.50126 -0.81431,-0.91003c0,-0.48828 0.29361,-0.68662 0.5085,-0.68662c0.38454,0 0.37327,0.27714 0.37327,0.67274c0,0.27732 0.21411,0.48882 0.47423,0.51461c-0.20408,-0.34241 0.02208,-0.76488 0.02208,-1.00271c0,-0.31609 -0.18061,-0.93635 -0.94799,-0.93635c-0.54277,0 -1.06254,0.50126 -1.06254,1.43834c0,0.47512 0.18061,1.08169 0.76877,1.45078l0,2.85017c0.1749,-0.02001 0.51328,-0.04634 0.678,-0.01316l-0.00001,-0.00001z" id="svg_11"/>
        <path fill="#fff" d="m335.32713,374.3958c-0.18061,-0.18518 -0.53073,-0.11901 -0.67784,0.09196c-0.07873,-0.01334 -0.18061,0.14515 -0.16981,0.21078c-0.13507,0.10584 -0.29331,0.51497 -0.07842,0.75226c-0.19296,0.03967 -0.24962,0.14533 -0.24962,0.14533c-0.06761,0.02615 -0.51915,0.54075 -0.19111,0.72539c-0.02238,0.13181 0.18031,0.23765 0.27108,0.22395c0.05665,0.04003 0.22615,0.08006 0.2825,0.06635c-0.03442,0.03949 -0.22585,0.1978 0.18031,0.34295c0,0 0.1465,0.14533 0.22615,0.14533c0,0 0.03319,0.11901 -0.02208,0.10512c-0.04647,-0.01262 -0.19266,-0.06581 -0.23819,-0.05265c-0.07842,-0.11846 -0.25904,-0.25099 -0.40615,-0.23729c-0.09015,-0.13181 -0.33915,-0.0788 -0.29361,0.18464c-0.04554,0.14515 0.02208,0.31681 0.05604,0.35611c0.01142,0.13217 0.07904,0.25099 0.19173,0.23783c0.01235,0.11828 0.13631,0.25045 0.27138,0.1978c0.18061,0.05265 0.35042,-0.01316 0.29331,-0.23765c0,0 0.05696,-0.07952 0.15854,0.06563c-0.05665,0.25099 0.01081,0.48864 0.33885,0.38298c0.20284,0.18464 0.70038,0.15903 0.70038,-0.06563c0.10158,-0.02687 0.18061,-0.11901 0.04523,-0.22467c-0.14712,-0.13199 -0.27138,-0.26361 -0.50834,-0.2766c-0.113,-0.01316 -0.24807,-0.17202 -0.05665,-0.29048c0.01111,0.10512 0.09077,0.26361 0.27138,0.14515c0.04554,0.03949 0.13538,0.14533 0.22585,0.1053c0.05665,0.09268 0.06777,0.44861 0.67815,0.36928c0.25904,0 0.72308,-0.02578 0.67692,-0.34241c-0.01111,-0.14515 -0.02238,-0.26416 0.12489,-0.30346c0.07904,0.1713 -0.09046,0.25045 -0.05604,0.38244c0.02208,0.07898 0.12365,0.17148 0.24807,0.17148c0.136,0 0.33854,-0.14515 0.33854,-0.3956c0,-0.14533 -0.12396,-0.44879 -0.37296,-0.40931c0,0 -0.04461,-0.14533 0.02285,-0.14533c0.07904,0 0.24807,0.05319 0.23758,-0.09196c0.16919,-0.04003 0.18031,-0.26398 0.18031,-0.34349c0,-0.11846 -0.06777,-0.28976 -0.29331,-0.25045c-0.05696,0.01316 -0.38377,-0.26416 -0.41819,-0.27732l-0.02285,-0.18464c0.113,0.07934 0.42962,0.40931 0.56469,0.40931c0.06761,0 0.27169,-0.2115 0.01142,-0.31735c-0.1695,-0.06509 0.10158,-0.17075 -0.18061,-0.44807c-0.18061,-0.15831 0.04554,-0.52759 -0.49754,-0.52759l-0.15746,0.01316c0.0335,-0.09214 -0.04523,-0.51461 -0.33885,-0.55446c-0.18061,-0.1841 -0.24807,-0.14461 -0.452,-0.02633c-0.15823,0.11882 -0.36123,-0.03949 -0.36123,0.18446c0,0.31663 0.33885,0.13199 0.33885,0.37c-0.10158,0 -0.44073,0.09196 -0.48627,0.13145l-0.04492,-0.09196c0.07966,-0.01316 0.15792,-0.06563 0.15792,-0.17148c0,-0.19798 -0.16919,-0.39614 -0.29361,-0.39614c-0.09015,0.00018 -0.20315,0.06635 -0.22523,0.14587l-0.00003,0.00001z" id="svg_12"/>
        <path fill="#fff" d="m336.09482,378.16863c-0.16857,0 -0.30457,0.30346 -0.27046,0.55446c0.01142,0.06581 -0.113,0.01316 -0.16919,-0.04003c-0.06777,-0.06563 -0.19296,-0.03895 -0.1252,0.19834c0.05727,0.13199 -0.12427,0.63343 -0.11254,0.83069c0.44027,-0.25045 0.64373,0.11937 1.03892,-0.06581c-0.03412,-0.30346 -0.16919,-0.40876 -0.16919,-0.77804l0,-0.39614c0.00031,-0.0788 -0.05604,-0.30346 -0.19235,-0.30346l0.00001,-0.00001zm0.04523,-0.1713c0,0.06617 0.10189,0.17148 0.136,0.19816c0.07873,0.09214 0.20315,0.23711 0.35042,0.23711c0.07842,0 0.18061,-0.02633 0.18061,-0.11882c0,-0.15777 -0.22585,-0.11828 -0.22585,-0.25045c-0.04554,-0.05301 -0.18061,-0.11882 -0.26058,-0.10566c-0.06761,0.01316 -0.18061,-0.13145 -0.18061,0.03967l0.00001,-0.00001zm1.26507,-0.18482c-0.18061,0 -0.18061,0.09268 -0.18061,0.09268c-0.05665,0.01316 -0.19173,0.11882 -0.20346,0.15831c-0.05573,0.01262 -0.15761,0.03949 -0.15761,0.1053c0,0.05301 0.10189,0.185 0.1695,0.15813c0.07873,0.02687 0.13507,0.06635 0.16981,0.06635c0.12396,0 0.30457,-0.10566 0.30457,-0.22467c0,-0.09268 -0.07904,-0.14479 -0.07904,-0.18482c-0.00015,-0.06563 0.1008,-0.1713 -0.02316,-0.1713l0,0.00002z" id="svg_13"/>
        <path fill="#00007f" d="m327.78177,375.82026c0.24807,-0.02633 0.30442,-0.3956 0.18046,-0.65958c-0.01127,0.06581 -0.10189,0.1978 -0.28235,0.14515c0,-0.35665 -0.37203,-0.92319 -0.12381,-1.26668l-0.13523,0.06635s0.04477,-0.23783 0.12365,-0.26398c-0.12365,0.0788 -0.36138,0.30346 -0.27077,0.79175c-0.06761,-0.07934 -0.113,-0.27732 -0.113,-0.27732c-0.06854,0.14515 -0.05635,0.43563 0,0.58078c0.05665,0.10512 0.02254,0.39542 -0.04508,0.39542c-0.07966,0 -0.13554,-0.1978 -0.33915,0.06635c0.09092,-0.01316 0.19266,0.15831 0.19266,0.25045c0,0.18446 -0.26012,0.34349 -0.26012,0.87108c0,0.19311 0.09448,0.47187 0.19713,0.74541c0.12118,0.32402 0.2544,0.64064 0.2544,0.79788c0,0.17148 -0.136,0.2903 -0.19157,0.2903c-0.09077,0 -0.226,-0.02687 -0.249,-0.30364c-0.02516,-0.35756 -0.35938,-0.5312 -0.53644,-0.78471c-0.06391,-0.0934 -0.10713,-0.19636 -0.10713,-0.32312c0,-0.17202 0.11254,-0.22521 0.11254,-0.22521l0.15869,0.17202c-0.07981,-0.27732 0.02208,-0.54075 -0.07981,-0.72593c0.06761,0.04003 0.249,0.07898 0.33915,0.07898c-0.18061,-0.26361 -0.06761,-0.58024 -0.19188,-0.71241c0.05665,-0.01316 0.226,-0.06581 0.28235,-0.11846l-0.14727,-0.15813c0.0122,-0.09268 -0.08969,-0.2903 -0.16935,-0.36928l0.113,-0.11955c-0.06746,-0.05211 -0.21488,-0.25045 -0.23727,-0.30292l0.14634,-0.05319c-0.03334,-0.02578 -0.1573,-0.09214 -0.20269,-0.30292c-0.04539,-0.14515 -0.24823,-0.21132 -0.24823,-0.42193c-0.07966,0.09214 -0.15838,0.27678 -0.15838,0.35557l-0.16935,0.06635c-0.10189,-0.03949 -0.47423,-0.06635 -0.56469,0.23729c-0.10189,0.02633 -0.40661,0.15831 -0.40661,0.26398l0.07981,0.26361s0.04446,0 0.06746,-0.05265c0,0 0.1008,0 0.13507,0.07952c-0.03427,0.05193 -0.23696,0.13199 -0.23696,0.13199c-0.06746,0 -0.31662,-0.14515 -0.14727,-0.42247c-0.06761,0.03967 -0.15854,0.10584 -0.15854,0.27732c0,0.10512 0.10219,0.23729 0.26042,0.23729c0.10173,0 0.21473,-0.03949 0.30488,-0.10584l0.02285,0.07952s-0.15838,0.07934 -0.19173,0.07934c0,0 -0.046,0.02633 0.02254,0.09196c0.04554,0.05265 0.113,0.01316 0.18061,-0.03985c0.04508,0.0137 0.10173,0.14515 0.04508,0.185c-0.12381,0.06581 -0.19235,0.1978 -0.29408,0.1978c-0.11207,0 -0.203,0.02633 -0.45123,-0.42247c0,-0.11882 -0.02208,-0.21096 -0.07981,-0.21096c0,0 -0.21473,-0.17148 -0.19142,-0.43563c0.07888,-0.09214 0.31662,-0.51443 -0.06761,-0.62027c0.07842,0.0925 -0.113,0.23783 -0.01127,0.36982c0.0335,0.02633 -0.06839,0.15831 -0.11393,0.05265c-0.02208,-0.11882 -0.12396,-0.30364 -0.22507,-0.29048c-0.04508,0 -0.18015,0.13199 -0.24916,0.13199c0.10235,0 0.10235,0.17148 0.10235,0.17148c0,0.06635 0.21488,0.07898 0.22569,0.22467c0,0 -0.07888,0.13199 -0.24807,0.01316c-0.13616,-0.07934 -0.1817,0.23729 -0.22615,0.26343c0.16981,-0.02633 0.13554,0.10584 0.25934,0.10584c0.06761,0 0.113,-0.06581 0.15854,-0.02633c0,0 0.14742,0.18464 0.14742,0.23765c0,0 0.01065,0.47458 0.03319,0.58024l0.12396,-0.14515c0,0.06581 0.03427,0.38298 0.03427,0.38298l0.113,-0.1062c0.01142,0.14587 0.09108,0.34349 0.09108,0.34349l0.10173,-0.10566c0.08969,0.15831 -0.04647,0.75226 -0.41835,0.75226c-0.23742,0 -0.22615,-0.22467 -0.46342,-0.22467c-0.10173,0 -0.11269,0.2115 -0.15808,0.23765c0.07888,0 0.18046,0.17148 0.30442,0.15831c0.06839,0 0.05758,0.11901 -0.01081,0.11901c-0.113,0 -0.25672,0 -0.29547,0.09881a0.12535,0.14641 0 0 0 -0.00942,0.07248s0.04539,0.18464 0,0.21078c0.12427,-0.02633 0.28235,0.01334 0.37327,-0.10566c-0.1252,0.26416 0.16857,0.39614 0.18061,0.47494c-0.0122,-0.17148 0.13507,-0.23783 0.1008,-0.38244c0.113,-0.04003 0.28235,0 0.32788,0.07898c0.03242,-0.05734 0.23603,-0.23783 0.39272,-0.34926c0.06082,-0.04273 0.11485,-0.07519 0.14897,-0.08637c0.03705,0.02939 0.0636,0.0577 0.08614,0.08637c0.10806,0.13884 0.09355,0.28705 0.41125,0.6264c-0.113,0.14533 -0.53057,-0.01316 -0.53057,0.42193c0,0.13199 0.15808,0.4881 0.20362,0.55446c-0.18061,0.13163 -0.29454,0.10584 -0.36216,0.02578c0,0 -0.22615,-0.3819 -0.31584,-0.3819c-0.15854,0 -0.18154,0.15849 -0.21488,0.15849c0.14742,0 0.113,0.21078 0.22615,0.21078c-0.09108,0 -0.21535,-0.05319 -0.26042,-0.05319c-0.10096,0 -0.20856,0.24414 -0.226,0.26416c0.136,-0.03967 0.113,0.17148 0.33915,0.05265l0,0.10566c-0.113,0.06563 -0.1465,0.2903 -0.10219,0.40931c0.07966,-0.13199 0.15838,-0.0925 0.20392,-0.07934c0.09062,0.03949 0.18061,-0.09214 0.22554,-0.14533c0.06808,-0.05247 0.37342,-0.0925 0.86973,0.05319c0.16935,0.05265 0.34981,0.05265 0.34981,-0.15831c0,-0.15831 -0.19142,-0.17148 -0.19142,-0.43617c0,-0.07898 0.05635,-0.14461 0.113,-0.14461c0.07827,0 0.22569,0.09268 0.21488,0.33033c0,0.3956 0.43965,0.43509 0.43965,0.58024c0,0.13199 -0.21396,0.22413 -0.29331,0.22413c-0.10219,0 -0.35042,-0.31663 -0.49661,0.01316c0,0 -0.14681,-0.02633 -0.14681,0.13199c0.06761,-0.02669 0.23681,0.01316 0.23681,0.1053c0,0.11882 -0.226,-0.01316 -0.19173,0.25099c0,0 -0.05635,0.14461 -0.023,0.21096l0.12473,-0.11828c0.04461,0.11828 0.16981,0.01316 0.16981,0.01316s0.12396,-0.05301 0.12396,0.02578c0,0 -0.01081,0.14569 0.04461,0.18518l0.1252,0.14461l0.01081,-0.14461c0.05681,-0.06635 0.13507,-0.21096 0.16981,-0.3031c0.04508,-0.14569 0.3265,-0.21132 0.37203,-0.21132l0.07966,0.09214c0.04461,-0.02633 0.06746,-0.44825 0.19188,-0.50144l0.03427,0.13199c0.04508,-0.06581 0.113,-0.19834 0.113,-0.31663c0,-0.06581 -0.10219,-0.28994 -0.18061,-0.36928c0.06761,-0.03985 0.1573,-0.06563 0.19142,-0.02669c-0.04539,-0.09196 -0.04539,-0.25045 -0.34996,-0.15831c-0.07966,-0.07898 -0.06761,-0.31609 0.07888,-0.43509c0.04492,0.15831 0.28235,0.25099 0.39534,0.25099c0.20362,0 0.47392,-0.22413 0.47392,-0.96322c0,-0.15092 -0.00556,-0.40931 0.04261,-0.6264c0.02439,-0.10566 0.06036,-0.20213 0.11532,-0.27101c-0.11254,0.05301 -0.20223,0.07952 -0.30396,0.07952c-0.02254,-0.15849 0.04508,-0.26416 0.14604,-0.27732c-0.08969,-0.10566 -0.24823,-0.11882 -0.3265,0.01316c-0.10235,-0.1978 -0.19281,-0.91003 0.23696,-0.91003c0.15761,0 0.29315,0.21078 0.29315,0.34241c0,0.14515 -0.22569,0.23765 -0.27108,0.03985c-0.01081,0.15831 0.03427,0.38244 0.28327,0.38244c0.13507,0 0.29238,-0.14461 0.29238,-0.35611c-0.00046,-0.14461 -0.07888,-0.39506 -0.203,-0.48756l0.00004,-0.00002z" id="svg_14"/>
        <path fill="#fff" d="m325.04847,385.29343c-1.78453,0.66012 -0.47515,2.50704 -1.49076,2.74433c-0.18061,0.02578 -0.54262,-0.15849 -0.49723,-0.50181c-0.58723,1.26704 1.24269,1.84747 1.10761,2.32186c-0.06839,0.23765 -0.18154,0.63361 -0.61038,0.47548c0.85846,1.29319 1.87499,-0.26452 2.30368,-0.07916c0.33915,0.18518 0.79084,0.73855 0.29361,1.37235c1.96576,-0.36982 0.63354,-2.13741 1.10731,-2.66481c0.38423,-0.31735 0.58692,-0.34331 0.94892,0.13199c0.45076,-1.74252 -1.51361,-1.18789 -1.40061,-2.13741c0.09092,-0.63397 0.45169,-0.92391 0.76784,-0.76614c-1.21953,-1.18771 -1.82976,0.68662 -2.30399,0.37c-0.45215,-0.34349 -0.31662,-1.1347 -0.226,-1.26668z" id="svg_15"/>
        <path fill="#00007f" d="m336.26432,389.97719l0.07935,-0.11937l-0.07935,-0.02578c-0.06761,-0.11901 -0.08984,-0.25081 -0.53088,-0.25081c-0.21473,0 -0.49723,0.06545 -0.58677,0.06545c-0.10189,0 -0.37358,-0.01262 -0.37358,-0.39542c0,-0.1722 0.18061,-0.31663 0.36246,-0.31663c0.10065,0 0.25934,0.07916 0.25934,0.18446c0,0.06581 -0.03412,0.17148 -0.10189,0.17148c-0.07873,0 -0.19173,-0.13199 -0.13538,-0.21169c-0.0335,0.04021 -0.07842,0.07952 -0.07842,0.1722s0.10065,0.21096 0.20254,0.21096c0.07904,0 0.24838,-0.05247 0.29361,-0.31663c0.05635,0.06617 0.21504,0.10566 0.27108,0.10566c0.10189,0 0.31723,-0.11901 0.31723,-0.31663c0,-0.09232 -0.113,-0.26379 -0.18154,-0.34295c0.06839,0.15813 0.04492,0.35611 -0.13569,0.35611l-0.19111,-0.07952c0.06731,-0.14443 0.05604,-0.36874 -0.17012,-0.36874c-0.05604,0 -0.10158,0.01334 -0.19235,0.1053c0.113,-0.03949 0.15823,0.02669 0.15823,0.09268c0,0 -0.05635,0.10566 -0.12396,0.10566c-0.07904,0 -0.16981,-0.03949 -0.24807,-0.03949c-0.12535,0 -0.45231,0.13163 -0.45231,0.51389c0,0.1987 0.113,0.54165 0.50865,0.54165c0.05665,0 0.29361,-0.04021 0.29361,-0.04021c-0.03442,0.07898 -0.03442,0.14551 -0.03442,0.14551c0,0.05283 0.04554,0.21132 0.2825,0.21132c0.06761,0 0.25934,-0.07952 0.21473,-0.23765c0,0 -0.09046,0.13199 -0.1695,0.13199c-0.03412,0 -0.13507,-0.04021 -0.13507,-0.11901c0,-0.06545 0.05635,-0.18446 0.18061,-0.18446c0.07842,0 0.25904,0.07898 0.25904,0.25081c0,0.11828 -0.14619,0.26379 -0.38315,0.26379c-0.07966,0 -0.19266,-0.01262 -0.19266,-0.01262a0.84287,0.9845 0 0 0 -0.44058,-0.14587c-0.06808,0 -0.33915,0.07898 -0.3955,0.0669c0,0 0.07935,-0.14641 0.15792,-0.13271c-0.05604,-0.06617 -0.23665,-0.11864 -0.29331,-0.11864c0.05665,-0.07898 0.113,-0.14515 0.15823,-0.14515c-0.12396,0 -0.14712,-0.11864 -0.22585,-0.13163c0.04554,-0.03985 0.113,-0.07898 0.16981,-0.03985c-0.06777,-0.1053 -0.13569,-0.17148 -0.24962,-0.14551l0.02346,-0.06545c0.06761,0 0.09046,-0.06581 0.14619,-0.07952c-0.05573,-0.01334 -0.08984,-0.13199 -0.13507,-0.14515c0.01173,-0.03949 0.09077,-0.1841 0.06777,-0.31627c-0.07904,0.07898 -0.23758,0.06581 -0.27077,0.15777c-0.06839,0 -0.35011,0.01298 -0.3955,0.06617c-0.12489,0.01262 -0.3055,-0.02615 -0.31662,0.07898c0,0 -0.05635,0.15849 0.09108,0.1722l0.044,0l-0.01081,0.05211c-0.07873,0.0137 -0.22523,0.02669 -0.22523,0.02669c-0.04523,-0.01298 -0.09077,-0.14515 -0.02316,-0.21096c0,0 -0.13507,-0.02669 -0.14681,0.17148c0.01173,0.07916 0.05604,0.13199 0.10189,0.13199c0.09046,0 0.21473,-0.06617 0.28219,-0.04021c0,0 0.10189,0.11901 -0.09015,0.07952c-0.03412,0.02669 -0.11254,0.11864 -0.02285,0.18446c0.113,0.09196 0.13507,-0.01262 0.1695,-0.01262c0.07873,0.03913 0.07873,0.11792 0.07873,0.11792c-0.04461,0.02669 -0.20254,0.07916 -0.20254,0.07916c0.04554,0.03985 0.18061,0.02633 0.18061,0.02633s-0.22615,0.07898 -0.25934,0.13199l0.11192,0.06581l-0.25934,0.10566l-0.21473,-0.35684c0.12427,-0.11828 0.16919,-0.28976 0.10158,-0.38172c0.02254,0.09196 -0.26027,0.07898 -0.22615,0.25045c-0.06761,-0.17148 -0.21473,-0.09232 -0.25873,-0.17148c0.06761,0.11828 -0.07996,0.18446 0.03319,0.30292c-0.10189,0.02669 -0.14619,0.14515 -0.19204,0.15885c0.07904,0 0.10189,0.22431 0.24807,0.09232l0.01142,0.23765l0.07904,-0.01334c-0.00324,0.02957 0.00062,0.05986 0.00695,0.09232c0.01775,0.08168 0.05465,0.16372 0.03798,0.21132l0.113,-0.07862c-0.0335,0.14443 0,0.3159 0.02316,0.38208c0.01081,-0.07988 0.13507,-0.22431 0.13507,-0.22431c-0.01111,0.05283 0.01142,0.19762 0.04554,0.23729c0.07842,-0.01298 0.21504,0.02669 0.25996,0.03913c0.0335,0.04021 0.0335,0.13199 0.0335,0.13199c0,0.09268 -0.14588,0.32997 -0.14588,0.46196l-0.19296,0.10566c-0.06761,-0.18446 -0.23727,-0.21096 -0.24777,-0.26343c0.06761,0.11828 -0.03442,0.14515 0.04523,0.28976c-0.13631,0.01298 -0.19266,0.14515 -0.22585,0.17112c0.10158,0 0.13507,0.07952 0.22585,0.06653c-0.0687,0.13145 0.01081,0.17075 -0.01204,0.23693c0.10189,-0.06617 0.1695,-0.06617 0.21473,-0.19798c0.06761,0.07952 0.1695,0.09232 0.1695,0.09232l0.01204,-0.13145c0.06777,0.05211 0.15746,0 0.19204,0l0,-0.11901c0.13507,0.05247 0.15715,0 0.20254,-0.01262l-0.0335,-0.15885c0.07904,0.02633 0.18061,0.03949 0.23696,0.02633c-0.03412,-0.05283 -0.06761,-0.27714 -0.03412,-0.34295c0.05665,-0.0669 0.10158,-0.25045 0.06761,-0.29048c0.05665,0 0.15823,0.10602 0.15823,0.15849c0.06761,-0.05247 0.136,-0.1053 0.15823,-0.19726c0.02238,0.17112 0.07966,0.22359 0.12427,0.27678l0.09077,-0.15885c0.01111,0.03985 0.05665,0.15885 0.11269,0.22431l0.0335,-0.13145c0.05665,0.05139 0.04554,0.34295 0.03412,0.38244c-0.09046,0.03949 -0.25965,0.11828 -0.293,0.15813c-0.069,0 -0.13662,-0.11864 -0.13662,-0.11864c-0.044,-0.07898 -0.13507,-0.05319 -0.15792,-0.09232c0.03412,0.06581 -0.0335,0.18482 0.01173,0.25009c-0.136,0.05319 -0.11269,0.14587 -0.19142,0.19798c0.07873,-0.01298 0.15715,0.06653 0.25934,0.03985c-0.03473,0.11901 0.07842,0.18446 0.05635,0.30364c0.03412,-0.13199 0.136,-0.17148 0.15854,-0.29012c0,0 0.19142,-0.03985 0.24807,0l-0.01142,-0.07916c0.11331,-0.02615 0.24838,-0.01298 0.29361,0.01298l0,-0.13163c0.03442,0.01262 0.136,0.03985 0.19235,0.02615c0,0 -0.07935,-0.13145 -0.06839,-0.18446c0,0 0.113,-0.03949 0.16981,0c0.02285,-0.18446 -0.13538,-0.23729 -0.04554,-0.43563c0.10189,0.05283 0.5315,0.21169 0.5315,0.36982c0,0.05283 -0.07966,0.09232 -0.1695,0.13199c-0.10158,-0.07916 -0.19266,-0.09232 -0.21473,-0.13199c0.0335,0.07916 -0.07904,0.07916 0.0335,0.22431c-0.13538,0.03985 -0.15792,0.13163 -0.21411,0.17148c0.07873,0 0.06761,0.06617 0.21411,0.06617c0.01204,0.09196 0.136,0.19726 0.136,0.25045c0,-0.11901 0.06761,-0.15849 0.09077,-0.26416c0.07842,0.03949 0.15746,0.06617 0.20284,0.05319c-0.06777,-0.03949 -0.05696,-0.14551 -0.05696,-0.14551s0.1025,0.07952 0.19296,0.06617l0,-0.14551c0.05573,0.01334 0.12427,0.07916 0.12427,0.07916c0.01081,-0.06581 0.01081,-0.34259 0.01081,-0.34259c0.0335,0.01298 0.13538,0.07898 0.12427,0.14443c0.02285,-0.14443 -0.05665,-0.2894 -0.113,-0.34259c0,0 0.02238,-0.09232 0.10189,-0.03949c-0.03442,-0.14551 -0.21504,-0.23729 -0.31662,-0.22395l-0.20254,-0.18554c0,-0.19221 -0.12365,-0.47332 -0.1448,-0.58006a0.12072,0.141 0 0 1 -0.00278,-0.02669c0.21473,0.02741 0.70069,0.00036 0.75657,-0.42121l0.00005,0.00004zm2.51394,-4.07142l0.07811,-0.11738l-0.07811,-0.02578c-0.06669,-0.11738 -0.08954,-0.24721 -0.52425,-0.24721c-0.21133,0 -0.49028,0.06455 -0.57951,0.06455c-0.09972,0 -0.36725,-0.01262 -0.36725,-0.39037c0,-0.16931 0.17753,-0.31248 0.35644,-0.31248c0.10003,0 0.25657,0.07844 0.25657,0.18211c0,0.06509 -0.0335,0.16931 -0.10096,0.16931c-0.07811,0 -0.1888,-0.13 -0.13322,-0.20844c-0.0335,0.03895 -0.07811,0.07844 -0.07811,0.16931s0.10003,0.20826 0.19991,0.20826c0.07904,0 0.24576,-0.05211 0.29006,-0.31176c0.05635,0.06455 0.21226,0.1035 0.26768,0.1035c0.09972,0 0.31198,-0.11666 0.31198,-0.31248c0,-0.09106 -0.1113,-0.26091 -0.17784,-0.33862c0.06669,0.15561 0.04461,0.35143 -0.13415,0.35143l-0.18972,-0.07789c0.06761,-0.14299 0.05604,-0.36441 -0.16703,-0.36441c-0.05542,0 -0.10003,0.01298 -0.18972,0.10404c0.11223,-0.03895 0.15622,0.02578 0.15622,0.09142c0,0 -0.05511,0.10422 -0.12211,0.10422c-0.07873,0 -0.16734,-0.03931 -0.24545,-0.03931c-0.12303,0 -0.44629,0.13036 -0.44629,0.50758c0,0.19528 0.11223,0.5339 0.50202,0.5339c0.05542,0 0.28975,-0.03895 0.28975,-0.03895c-0.03319,0.07789 -0.03319,0.14299 -0.03319,0.14299c0,0.05229 0.0443,0.20826 0.27864,0.20826c0.06669,0 0.25687,-0.07844 0.21103,-0.23404c0,0 -0.08892,0.13 -0.16641,0.13c-0.0335,0 -0.13415,-0.03895 -0.13415,-0.11666c0,-0.06581 0.05542,-0.1832 0.17814,-0.1832c0.07811,0 0.25687,0.07844 0.25687,0.24793c0,0.11666 -0.14557,0.26073 -0.3796,0.26073c-0.07811,0 -0.18941,-0.0137 -0.18941,-0.0137c-0.16765,-0.11666 -0.32294,-0.14371 -0.43409,-0.14371c-0.06669,0 -0.33499,0.07898 -0.39102,0.06527c0,0 0.07904,-0.14299 0.15715,-0.13c-0.05542,-0.06455 -0.23434,-0.11666 -0.29037,-0.11666c0.05604,-0.07844 0.1113,-0.14299 0.15592,-0.14299c-0.12242,0 -0.14449,-0.11738 -0.22245,-0.13055c0.04461,-0.03877 0.1113,-0.07789 0.16672,-0.03877c-0.06669,-0.10476 -0.13415,-0.16949 -0.24545,-0.14371l0.02254,-0.06527c0.06761,0 0.08861,-0.06473 0.14526,-0.07789c-0.05665,-0.01316 -0.08923,-0.13 -0.13415,-0.14263c0.01173,-0.04003 0.08954,-0.1832 0.06761,-0.31302c-0.07873,0.07771 -0.23464,0.06527 -0.26799,0.15579c-0.06669,0 -0.34548,0.0137 -0.39041,0.06527c-0.12242,0.01298 -0.30025,-0.02633 -0.31198,0.07898c0,0 -0.05573,0.15561 0.08984,0.16877l0.0443,0l-0.01111,0.05175c-0.0778,0.01316 -0.22307,0.02633 -0.22307,0.02633c-0.0443,-0.01316 -0.08892,-0.14317 -0.02238,-0.20772c0,0 -0.13353,-0.02578 -0.14418,0.16877c0.0105,0.07844 0.05542,0.13 0.10003,0.13c0.08861,0 0.21164,-0.06473 0.27864,-0.03895c0,0 0.10003,0.1172 -0.09015,0.07844c-0.03226,0.02615 -0.1113,0.1172 -0.02208,0.18193c0.11223,0.09106 0.13415,-0.01316 0.16765,-0.01316c0.0778,0.03895 0.0778,0.1172 0.0778,0.1172c-0.04461,0.02633 -0.20022,0.07844 -0.20022,0.07844c0.04461,0.03895 0.17753,0.02633 0.17753,0.02633s-0.22276,0.07789 -0.25595,0.13036l0.11192,0.06473l-0.25657,0.10368l-0.21195,-0.35143c0.12334,-0.11666 0.16734,-0.28615 0.10065,-0.37775c0.02254,0.0916 -0.25626,0.07844 -0.22276,0.24721c-0.06777,-0.16895 -0.21226,-0.09052 -0.25687,-0.16895c0.06669,0.11738 -0.0778,0.18265 0.0335,0.29932c-0.10003,0.02633 -0.14557,0.14299 -0.18972,0.15615c0.07842,0 0.10096,0.22196 0.24514,0.0916l0.01111,0.23404l0.07873,-0.01316c-0.00355,0.02957 0,0.06113 0.00726,0.09106c0.01652,0.08114 0.05403,0.16102 0.03736,0.2088l0.11099,-0.07789c-0.0335,0.14263 0,0.31158 0.02238,0.37721c0.01081,-0.07825 0.13353,-0.22142 0.13353,-0.22142c-0.0105,0.05211 0.01204,0.19582 0.04523,0.23458c0.07749,-0.01316 0.21072,0.02633 0.25533,0.03895c0.03442,0.03877 0.03442,0.12982 0.03442,0.12982c0,0.0916 -0.14557,0.32582 -0.14557,0.45619l-0.18941,0.10422c-0.067,-0.18229 -0.23341,-0.2088 -0.24452,-0.26091c0.06638,0.1172 -0.03442,0.14335 0.0443,0.28669c-0.13415,0.01298 -0.18988,0.14299 -0.22338,0.16877c0.10003,0 0.13446,0.07862 0.22338,0.06581c-0.06669,0.13 0.01081,0.16913 -0.01111,0.23422c0.10003,-0.06509 0.16734,-0.06509 0.21133,-0.19474c0.06761,0.07789 0.16734,0.09052 0.16734,0.09052l0.01111,-0.13c0.067,0.05175 0.15653,0 0.18988,0l0,-0.11756c0.13291,0.05175 0.15561,0 0.20084,-0.01262l-0.03442,-0.15597c0.07904,0.02615 0.17876,0.03913 0.23464,0.02615c-0.03381,-0.05211 -0.067,-0.27371 -0.03381,-0.33898c0.05573,-0.06527 0.10034,-0.24721 0.06731,-0.28615c0.05511,0 0.1553,0.10368 0.1553,0.15633c0.06761,-0.05265 0.13446,-0.10476 0.15653,-0.19528c0.02238,0.16841 0.07873,0.22088 0.12334,0.27299l0.08861,-0.15615c0.01111,0.03895 0.05573,0.15615 0.1113,0.22142l0.03319,-0.13055c0.05696,0.05211 0.04461,0.33862 0.03442,0.37739c-0.08954,0.03985 -0.25626,0.11756 -0.29037,0.15669c-0.06731,0 -0.13384,-0.11684 -0.13384,-0.11684c-0.0443,-0.07862 -0.13322,-0.05247 -0.15561,-0.09196c0.03257,0.06545 -0.03412,0.1832 0.01142,0.24757c-0.13415,0.05211 -0.11223,0.14371 -0.19019,0.19546c0.07811,-0.01226 0.15592,0.06545 0.25687,0.03877c-0.0335,0.1172 0.07749,0.18247 0.05542,0.29968c0.0335,-0.13036 0.13415,-0.16913 0.15592,-0.28597c0,0 0.18941,-0.03913 0.24483,0l-0.01081,-0.07862c0.11099,-0.02578 0.24545,-0.01298 0.28975,0.0137l0,-0.13109c0.03319,0.01262 0.13415,0.03913 0.18988,0.02578c0,0 -0.0778,-0.13 -0.06669,-0.18139c0,0 0.1113,-0.03913 0.16672,0c0.02208,-0.1832 -0.13353,-0.23458 -0.04461,-0.43022c0.09972,0.05211 0.52409,0.20844 0.52409,0.36513c0,0.05211 -0.0778,0.09088 -0.16734,0.13c-0.10003,-0.07789 -0.1891,-0.09124 -0.21133,-0.13c0.0335,0.07789 -0.07873,0.07789 0.0335,0.22088c-0.13415,0.03913 -0.15622,0.13109 -0.21226,0.16931c0.07811,0 0.06669,0.06509 0.21226,0.06509c0.01111,0.09124 0.13322,0.1951 0.13322,0.24721c0,-0.1172 0.06669,-0.15597 0.08923,-0.26019c0.07811,0.03913 0.15622,0.06509 0.20084,0.05211c-0.06669,-0.03913 -0.05604,-0.14263 -0.05604,-0.14263s0.10003,0.07789 0.18941,0.06473l0,-0.14443c0.05635,0.01406 0.12303,0.07952 0.12303,0.07952c0.01111,-0.06545 0.01111,-0.3388 0.01111,-0.3388c0.0335,0.01298 0.13415,0.07789 0.12211,0.14263c0.02254,-0.14263 -0.05511,-0.28579 -0.11068,-0.33826c0,0 0.02208,-0.09106 0.09972,-0.03895c-0.03319,-0.14353 -0.21226,-0.23458 -0.31198,-0.22196l-0.20084,-0.18139c0,-0.19059 -0.12056,-0.46592 -0.14202,-0.57339a0.10852,0.12676 0 0 1 -0.00278,-0.02578c0.21195,0.02615 0.69066,0.00036 0.74685,-0.41616l0.00005,-0.00003z" id="svg_16"/>
        <path fill="#fff" d="m330.87661,387.01252c1.92331,0 3.48185,-1.8206 3.48185,-4.06781c0,-2.24577 -1.55853,-4.06745 -3.48185,-4.06745c-1.92254,0 -3.48262,1.82168 -3.48262,4.06745c0,2.24721 1.56008,4.06781 3.48262,4.06781z" id="svg_17"/>
        <path fill="#00007f" d="m330.87661,379.02979c-1.84829,0 -3.35248,1.75587 -3.35248,3.91473c0,2.15886 1.50419,3.91545 3.35248,3.91545c1.84829,0 3.35217,-1.75659 3.35217,-3.91545c0,-2.15886 -1.50389,-3.91473 -3.35217,-3.91473zm2.87794,3.91491c0,0.69095 -0.17969,1.33376 -0.48689,1.86856c0.08351,-1.06564 -0.2135,-2.262 -0.43471,-2.82872c0.09617,-0.37937 0.34826,-0.62568 0.52224,-0.74468a2.8568,3.33683 0 0 1 0.39936,1.70484zm-3.81837,-3.17582l0.09911,0.03841c0.06129,0.02254 0.13214,0.04904 0.20516,0.0788c-0.06144,0.0595 -0.1255,0.12496 -0.19281,0.19816c-0.16826,-0.07934 -0.32804,-0.13902 -0.39426,-0.15218a0.11779,0.13758 0 0 0 -0.06839,0.01064a2.83194,3.3078 0 0 1 0.35119,-0.17382l0,-0.00001zm0.41927,-0.1291c0.07255,-0.01551 0.14588,-0.02885 0.22029,-0.03768c-0.03643,0.02615 -0.07394,0.05463 -0.11254,0.08565a3.46919,4.05213 0 0 0 -0.10775,-0.04796l0,-0.00001zm-1.67632,5.47244c0.37142,0.10476 0.85815,0.13938 1.51871,0.01479c0.06715,0.16841 0.19327,0.5687 0.19327,0.90642c0,0.07844 -0.00756,0.15272 -0.02408,0.21872a2.87841,3.36208 0 0 1 -1.6879,-1.13993zm1.92408,1.17833c0.10806,-0.52813 -0.18355,-1.28562 -0.23233,-1.38118l-0.04183,-0.08204l-0.08074,0.01677c-0.87498,0.1832 -1.42408,0.07321 -1.80429,-0.1062a2.85911,3.33954 0 0 1 -0.44567,-1.79319c0,-0.2793 0.02979,-0.55049 0.08506,-0.81014c0.18293,0.06491 0.43672,0.08961 0.72292,-0.01893c0.2666,0.40895 0.63092,0.61811 1.02626,0.544a0.11856,0.13848 0 1 0 -0.0372,-0.27335c-0.44814,0.08402 -0.7274,-0.27371 -0.85398,-0.49405l-0.05357,-0.09376l-0.08876,0.04147c-0.27123,0.12712 -0.50109,0.0943 -0.65021,0.03462a2.89199,3.37794 0 0 1 1.43534,-1.93167a0.11809,0.13794 0 0 0 0.02995,0.26199c0.04739,0.0092 0.1411,0.04436 0.24684,0.09106c-0.0687,0.0815 -0.14079,0.17075 -0.21581,0.26686a5.54317,6.4746 0 0 0 -0.33375,-0.14172a0.11809,0.13794 0 0 0 -0.15005,0.08781a0.11809,0.13794 0 0 0 0.07472,0.17508c0.08815,0.03426 0.16765,0.06762 0.24066,0.10007a14.35977,16.7727 0 0 0 -0.45632,0.65002a0.11948,0.13956 0 0 0 0.02022,0.19474a0.11995,0.1401 0 0 0 0.16718,-0.0238a13.67082,15.96797 0 0 1 0.49939,-0.70754c0.11979,0.0669 0.20176,0.1291 0.24499,0.18626a0.11825,0.13812 0 1 0 0.17737,-0.1832c-0.05943,-0.07844 -0.15098,-0.15056 -0.25795,-0.21655a6.95489,8.12355 0 0 1 0.22615,-0.27335c0.11933,0.06365 0.22415,0.12946 0.26598,0.17797a0.1184,0.1383 0 1 0 0.16749,-0.19564c-0.05141,-0.05986 -0.14218,-0.12441 -0.2473,-0.18608c0.0741,-0.07681 0.14403,-0.14407 0.2101,-0.20267c0.08645,0.04778 0.16487,0.10133 0.22214,0.16138a0.11732,0.13704 0 0 0 0.16703,-0.01064a0.11763,0.1374 0 0 0 -0.00864,-0.1951a0.95355,1.11378 0 0 0 -0.15947,-0.13199a1.64591,1.92247 0 0 1 0.46327,-0.22593c0.8458,0.10368 1.58292,0.63722 2.04959,1.40931c-0.20717,0.14822 -0.47222,0.42391 -0.59665,0.84404c-0.31955,-0.00162 -0.70007,0.02939 -0.90878,0.24721a0.11917,0.1392 0 0 0 -0.00911,0.19564a0.11917,0.1392 0 0 0 0.16765,0.01046c0.16255,-0.17039 0.56948,-0.17797 0.74808,-0.17688c0.24422,0.64299 0.57472,2.05086 0.33499,3.12172c-0.52486,0.64714 -1.26662,1.05193 -2.08834,1.05193a2.70922,3.16446 0 0 1 -0.27262,-0.01479l0,-0.00002z" id="svg_18"/>
    </g>
    <g id="wirral-logo">
        <rect stroke="#ffffff" fill="#ffffff" stroke-width="6" x="155.00001" y="417.8782" width="201" height="41.57493" id="svg_28"/>
        <text fill="#00007f" stroke-width="0" stroke-opacity="null" x="190.2" y="452.85312" font-size="39" font-family="Helvetica, Arial, sans-serif" text-anchor="start" xml:space="preserve" font-weight="bold" id="svg_29">WIRRAL</text>
    </g>
    <g fill="#000000" transform="translate(0,117) scale(0.10000000149011612,-0.10000000149011612) " stroke="null" id="svg_31">
        <path d="m1675.15652,-3067.13651c-8.43752,-4.2114 -10.78128,-10.2277 -10.78128,-27.67495l0,-22.26028l-10.78128,12.63421c-21.56256,26.47169 -42.18762,9.62607 -29.06258,-22.86191l7.96877,-19.25214l-18.2813,4.2114c-16.4063,3.00815 -18.75005,2.40652 -23.90632,-12.03259c-6.09377,-17.44725 -7.50002,-16.24399 43.12512,-36.69938c26.71882,-10.82933 27.18758,-10.82933 33.75009,0c3.28126,6.61792 5.15626,14.4391 3.28126,17.44725c-1.87501,3.60978 0,4.81303 4.68751,2.40652c18.2813,-9.02444 22.03131,0.60163 22.03131,56.55315c0,56.55315 -0.9375,58.35804 -22.03131,47.52871l0.00001,0.00001zm17.3438,-50.53686c0,-33.69124 -1.87501,-45.12219 -7.03127,-47.52871c-3.75001,-2.40652 -7.96877,-1.20326 -9.37503,1.80489c-1.40625,3.60978 -7.03127,8.42281 -11.71878,12.03259c-8.43752,5.41466 -8.43752,4.81303 -3.75001,-12.63421c2.81251,-10.2277 3.28126,-20.45539 0.9375,-23.46354c-4.68751,-6.01629 -67.50019,16.24399 -67.50019,23.46354c0.46875,14.4391 7.96877,18.04888 24.84382,11.43096c9.37503,-3.60978 18.2813,-5.41466 19.68755,-3.60978c1.40625,1.80489 -0.9375,13.23584 -5.15626,25.26843c-11.71878,31.28472 -3.28126,40.30916 18.2813,19.25214l16.4063,-16.24399l2.81251,27.67495c2.81251,21.65865 5.15626,27.07332 12.65629,27.07332c7.96877,0 8.90627,-4.2114 8.90627,-44.52057l0,-0.00002z" stroke="null" fill="#00007f" id="svg_33"/>
        <path d="m1707.96911,-3079.1691c1.87501,-10.82933 3.28126,-35.49613 3.28126,-55.34989l0,-36.09776l14.06254,2.40652c9.37503,1.80489 13.59379,0.60163 12.65629,-4.2114c-1.40625,-3.60978 0.46875,-10.82933 3.28126,-16.24399c5.15626,-9.62607 8.43752,-9.02444 38.43761,4.81303c17.81255,8.42281 35.15635,16.24399 38.43761,17.44725c4.68751,2.40652 4.21876,6.61792 -1.40625,21.05702c-7.03127,18.04888 -7.50002,18.04888 -21.56256,8.42281c-17.81255,-11.43096 -19.68755,-9.62607 -13.12504,15.04073c3.75001,14.4391 3.75001,21.05702 -0.46875,27.67495c-8.43752,12.63421 -14.06254,11.43096 -29.06258,-7.21955l-13.12504,-16.24399l0,25.26843c0,16.24399 -2.34376,25.26843 -5.62502,25.26843c-3.28126,0 -11.25003,1.80489 -17.3438,4.2114c-10.78128,3.60978 -11.25003,2.40652 -8.43752,-16.24399l-0.00001,0z" stroke="null" fill="#00007f" id="svg_34"/>
        <path d="m1785.31307,-3197.69006c-20.15631,-7.82118 -36.5626,-17.44725 -36.5626,-21.05702c0,-3.60978 3.28126,-12.03259 7.96877,-18.04888c6.56252,-9.62607 6.56252,-10.82933 0.46875,-10.82933c-4.21876,0 -9.84378,-4.2114 -13.12504,-9.02444c-4.68751,-7.21955 -1.40625,-16.24399 19.2188,-51.13849l25.31257,-42.11405l11.25003,14.4391l11.25003,14.4391l-10.78128,17.44725l-10.31253,16.84562l19.2188,1.80489c10.78128,1.20326 19.2188,4.2114 19.2188,7.21955c0,2.40652 1.40625,9.02444 2.81251,14.4391c1.87501,6.01629 -2.34376,12.03259 -13.12504,19.25214l-15.46879,10.2277l15.46879,9.62607c12.18753,7.21955 15.00004,12.03259 14.06254,24.06517c-0.9375,7.82118 -3.28126,15.04073 -6.09377,16.24399c-2.34376,0.60163 -21.09381,-5.41466 -40.78136,-13.83747l0.00002,0z" stroke="null" fill="#00007f" id="svg_35"/>
        <path d="m1580,-3205.51124c0,-15.64236 2.34376,-18.65051 14.06254,-21.65865c17.81255,-4.81303 17.81255,-10.2277 0,-26.47169c-12.18753,-10.82933 -13.12504,-14.4391 -8.43752,-27.07332c4.21876,-12.03259 7.50002,-13.83747 20.62506,-10.82933c16.87505,3.60978 20.62506,-3.60978 8.90627,-16.24399c-3.75001,-4.2114 -7.03127,-10.82933 -7.03127,-15.04073c0,-7.82118 17.81255,-30.68309 20.62506,-26.47169c0.9375,1.20326 11.71878,19.85377 23.90632,40.91079c17.3438,30.08146 21.09381,40.91079 17.3438,48.13034c-2.34376,5.41466 -8.43752,8.42281 -13.12504,7.82118c-7.03127,-1.80489 -7.50002,-0.60163 -2.34376,7.21955c11.71878,18.04888 3.75001,28.27658 -32.34384,43.31731c-19.2188,7.82118 -36.5626,14.4391 -38.43761,14.4391c-2.34376,0 -3.75001,-8.42281 -3.75001,-18.04888l0,0.00001z" stroke="null" fill="#00007f" id="svg_37"/>
        <path d="m1716.40663,-3283.12142c-7.96877,-10.2277 -9.84378,-10.82933 -15.00004,-3.00815c-2.81251,4.81303 -7.96877,8.42281 -10.78128,8.42281c-6.09377,0 -49.68764,-72.79714 -49.68764,-82.42321c0,-5.41466 23.43757,-22.26028 25.78132,-18.65051c0.9375,1.20326 5.62502,10.82933 10.78128,22.26028l9.37503,20.45539l5.62502,-25.26843c4.68751,-21.65865 6.56252,-24.6668 18.75005,-24.6668c13.12504,0 14.06254,1.80489 14.06254,21.05702c0,24.6668 5.15626,27.07332 15.93754,6.01629c8.43752,-16.84562 15.93754,-18.65051 28.12508,-7.21955c7.96877,7.82118 7.03127,10.82933 -15.93754,51.13849c-13.59379,24.06517 -25.31257,43.31731 -26.25007,43.31731c-0.9375,0 -6.09377,-5.41466 -10.78128,-11.43096l-0.00001,0.00002z" stroke="null" fill="#00007f" id="svg_38"/>
    </g>

</svg>