<svg width="512" height="512" xmlns="http://www.w3.org/2000/svg">
    
    <g id="shirt">
        <g id="chest">
            <path fill="#0000ff" d="m255.74181,313.00899l44,0l98.846,21.665c27.533,6.035 47.154,30.421 47.154,58.609l0,85.726l-66,0l0,33l-124,0l-124,0l0,-33l-66,0l0,-85.726c0,-28.187 19.621,-52.574 47.154,-58.609l98.846,-21.665l44,0z"/>
        </g>
        <g id="left-sleeve">
            <path d="m131.9286,479.52537l-66,0l0,-20l66,0l0,20z" fill="#0000ff"/>
        </g>
        <g id="right-sleeve">
            <path fill="#0000ff" d="m379.92691,458.49199l66,0l0,20l-66,0l0,-20z"/>
        </g>
    </g>
    <g id="collar">
        <path  d="m289.98107,310.12734l-68.32193,0l-18.46245,4.04303c2.07528,27.20205 0.03106,48.70569 52.62342,48.70569s50.54813,-21.50364 52.62342,-48.70569l-18.46245,-4.04303l-0.00001,0z" fill="#ffffff"/>
    </g>
     <g>
        <path d="m152.84197,395.87766c-0.28028,0.03515 -0.54956,0.91572 -1.09138,1.37486c-0.39593,0.33045 -0.89054,0.31064 -1.15308,0.71971c-0.09967,0.15212 -0.0677,0.41354 -0.18036,0.66325c-0.22182,0.50154 -0.9997,0.54607 -0.9997,1.09192c-0.0025,0.58953 0.64823,0.70181 1.21328,1.1209c0.4409,0.3362 0.48336,0.56822 1.01669,0.73207c0.45613,0.13146 1.13409,-0.29998 1.74435,-0.14467c0.50035,0.12677 0.97996,0.21838 1.09362,0.65728c0.09967,0.40524 -0.00724,1.03184 -0.61501,0.9594c-0.20459,-0.02003 -1.09337,-0.27442 -2.18325,-0.17535c-1.31719,0.12783 -2.81899,0.49387 -2.96587,1.74622c-0.08118,0.69883 0.934,1.524 1.91397,1.35632c0.67696,-0.11292 0.35696,-0.79492 0.72467,-1.12558c0.48411,-0.42462 3.22517,1.48011 5.77187,1.48011c1.07264,0 1.8705,-0.23138 2.66262,-0.93894c0.07394,-0.05433 0.16437,-0.16981 0.27853,-0.17748c0.10841,0.00767 0.29676,0.09822 0.35921,0.13678c2.05061,1.40639 3.60236,4.22834 11.14307,4.26072c1.0609,0.00511 2.26818,0.43741 3.25539,1.20463c0.87955,0.6935 1.39338,1.77392 1.89398,2.86861c0.75514,1.6431 2.10681,3.24146 4.15767,5.02027c0.11166,0.09524 1.80031,1.21464 1.9357,1.29816c0.02048,0.01278 0.14488,0.26483 0.10167,0.40545c-0.04971,1.06742 -0.23206,4.16826 2.47901,4.30909c0.66247,0.02855 0.48961,-0.36859 0.48961,-0.64216c-0.00175,-0.5401 -0.11741,-1.07722 0.21633,-1.63053c0.45613,-0.7604 -0.96822,-1.11024 -0.92676,-2.75505c0.02948,-1.22636 -1.17856,-1.01714 -1.79056,-1.95161c-0.35322,-0.54117 -0.66722,-0.82773 -0.64448,-1.48991c0.13814,-3.7251 -0.92975,-6.17334 -1.46158,-6.77459c-0.41542,-0.4536 -0.75914,-0.63363 -0.3797,-0.84328c2.26294,-1.27558 2.77553,-2.4606 2.77553,-2.4606c1.20329,-2.41202 2.28492,-4.61504 3.77697,-5.58509c0.30026,-0.2007 1.07114,-0.69137 1.54376,-0.88355c1.39238,-0.5597 2.1248,-0.89953 2.52972,-1.23488c0.63924,-0.53115 1.14558,-1.64054 0.53182,-2.31253c-0.76314,-0.82986 -2.08158,-0.17151 -2.66287,0.12293c-4.15942,2.10522 -4.77218,5.81903 -6.21327,7.95173c-1.14958,1.70403 -3.01808,2.95575 -4.68924,3.05801c-1.2515,0.07926 -2.60291,-0.137 -3.94684,-0.64045c-3.26988,-1.22252 -5.0582,-2.80107 -5.48186,-3.08017c-0.87805,-0.57824 -7.69708,-6.2886 -13.22315,-6.52169c0,0 -0.68595,-1.17182 -0.85856,-1.19014c-0.40368,-0.04474 -0.81759,0.69883 -1.11411,0.78576c-0.27728,0.07819 -0.7459,-0.80514 -1.02743,-0.76594" fill="#ffffff" id="animal"/>
    </g>
    
  <g id="crest">
   <text fill="#ffffff" x="307.10062" y="407.81758" font-size="75" font-family="'Simonetta', serif" transform="matrix(0.5615237090023946,0,0,0.4673531208043208,148.36174230027697,226.90644324570502) ">T</text>
   <text fill="#ffffff" x="313.10062" y="401.81758" font-size="55" font-family="'Simonetta', serif" transform="matrix(0.5615237090023946,0,0,0.4673531208043208,148.36174230027697,226.90644324570502) ">R</text>
   <text fill="#ffffff" x="302.10062" y="392.81758" font-size="30" font-family="'Simonetta', serif" transform="matrix(0.5615237090023946,0,0,0.4673531208043208,148.36174230027697,226.90644324570502) ">F</text>
   <text fill="#ffffff" x="339.10062" y="392.81758" font-size="30" font-family="'Simonetta', serif" transform="matrix(0.5615237090023946,0,0,0.4673531208043208,148.36174230027697,226.90644324570502) ">C</text>
  </g>
    
  <rect stroke="#ffffff" transform="rotate(20.074995040893555 259.4108886718753,462.0998229980468) " height="56.13659" width="57.98316" y="434.03156" x="230.41931" stroke-width="1.5" fill="none"/>
  <text stroke="#ffffff" font-weight="bold" font-style="italic" xml:space="preserve" text-anchor="start" font-family="Arvo, sans-serif" font-size="20" y="469.54818" x="233.89133" stroke-width="0" fill="#ffffff">B&amp;M</text>
  <path stroke="#ffffff" d="m254.04593,447.51269c-1.92342,-0.62295 1.60743,-0.62832 2.4175,-0.67113c2.10384,-0.02401 2.38895,-1.56219 2.17264,-2.54128c-0.30775,-0.4013 -0.00666,-1.27247 -1.09064,-1.14233c-2.1658,-0.0612 -4.30821,-0.38953 -6.19268,-1.04432c-0.11566,1.10059 -1.02395,2.10756 -1.62801,3.14849c-0.79444,0.52692 2.01955,2.40805 0.06085,1.56767c-1.26875,-0.7184 0.00915,0.74729 -1.56613,0.33463c-2.13765,-0.02686 -4.35234,0.20572 -6.44062,-0.10642c-0.70178,-0.17928 -2.899,0.04433 -1.29835,-0.55475c0.90907,-0.10098 1.70535,0.38277 2.39239,-0.17411c1.62653,0.40954 4.21526,0.41235 4.80586,-0.87831c0.9828,-0.97685 1.58498,-2.07199 1.62167,-3.21952c-1.15092,-0.53984 -2.06255,-1.23785 -2.58599,-2.0685c-1.21043,-1.21517 -3.41941,-1.88152 -5.2304,-2.72331c-2.40292,-0.95304 -5.16967,-2.05044 -5.64046,-3.93023c-0.57239,-1.39449 0.0031,-2.92155 1.6264,-3.97918c1.09478,-0.9543 3.13013,-1.84123 2.66435,-3.15137c-1.18352,-1.28236 -3.74284,0.16594 -4.90508,0.78897c-1.40001,0.60336 -2.90641,2.06505 -4.81767,1.40938c-0.24089,-0.99253 1.92234,-1.61537 2.45465,-2.54126c1.1024,-1.04221 1.75499,-2.25354 2.65906,-3.32609c1.63528,-0.92712 4.33911,-0.93279 5.95516,0.02437c2.06224,0.97797 3.34828,2.52406 3.14634,4.13121c0.19882,1.1098 -0.58119,2.55588 1.15796,3.32635c2.51392,0.85107 5.47789,1.05524 8.03313,1.87095c3.19557,0.89863 5.5929,2.52024 8.28229,3.85477c1.65481,0.91568 3.35605,1.80429 4.92932,2.77214c-1.0517,-0.19161 -2.02433,-0.51766 -3.03115,-0.78245c1.30296,1.03213 1.8884,2.30186 2.19692,3.57033c0.50723,1.34444 1.9265,2.65876 1.21446,4.08198c-0.62093,1.1835 -2.59919,-0.73058 -3.56651,-1.06559c-1.10563,-0.63472 -2.19934,-1.42055 -3.80219,-1.53009c-0.28925,1.14125 -0.58651,2.32844 -0.25744,3.47164c0.19286,1.01244 3.51005,0.40488 3.02946,1.15442c-2.77889,-0.18469 -5.56895,-0.02904 -8.35459,-0.05115l-0.41251,-0.02591l0,0l0,0l0.00001,-0.00001z" stroke-width="1.5" fill="#0000ff"/>
  <text xml:space="preserve" text-anchor="start" font-family="Arvo, sans-serif" font-size="6" x="238.81241" y="480.64434"  fill-opacity="null" stroke-width="0" stroke="#ffffff" fill="#ffffff">Waste Services</text>
</svg>