<svg width="512" height="512" xmlns="http://www.w3.org/2000/svg">
    <defs>
        <radialGradient r="0.4348" cy="0.5" cx="0.5" spreadMethod="pad" id="svg_78">
            <stop offset="0.12891" stop-opacity="0.99219" stop-color="#ffffff"/>
            <stop offset="0.66797" stop-opacity="0.99219" stop-color="#007f00"/>
        </radialGradient>
        <radialGradient r="0.69925" cy="0.51563" cx="0.48047" spreadMethod="pad" id="svg_84">
            <stop offset="0.75391" stop-color="#0000ff"/>
            <stop offset="1" stop-opacity="0.99219" stop-color="#ffffff"/>
        </radialGradient>
    </defs>
   <g id="shirt">
        <g id="chest">
            <path fill="#faeb46" d="m255.74181,313.00899l44,0l98.846,21.665c27.533,6.035 47.154,30.421 47.154,58.609l0,85.726l-66,0l0,33l-124,0l-124,0l0,-33l-66,0l0,-85.726c0,-28.187 19.621,-52.574 47.154,-58.609l98.846,-21.665l44,0z"/>
        </g>
        <g id="left-sleeve">
            <path d="m131.9286,479.52537l-66,0l0,-20l66,0l0,20z" fill="#faeb46"/>
        </g>
        <g id="right-sleeve">
            <path fill="#faeb46" d="m379.92691,458.49199l66,0l0,20l-66,0l0,-20z"/>
        </g>
        <line fill="none" stroke-width="8" x1="65" y1="475.45313" x2="131" y2="475.45313"  stroke="#000000"/>
        <line fill="none" stroke-width="8" x1="380" y1="475.45313" x2="446" y2="475.45313"  stroke="#000000"/>
    </g>
    <g id="collar">
        <path id="svg_12" d="m289.98107,310.12734l-68.32193,0l-18.46245,4.04303c2.07528,27.20205 0.03106,48.70569 52.62342,48.70569s50.54813,-21.50364 52.62342,-48.70569l-18.46245,-4.04303l-0.00001,0z" fill="#000000"/>
    </g>

    <g id="crest">
        <text fill="#000000" x="307.10062" y="407.81758" font-size="75" font-family="'Simonetta', serif" transform="matrix(0.5615237090023946,0,0,0.4673531208043208,148.36174230027697,226.90644324570502) ">T</text>
        <text fill="#000000" x="313.10062" y="401.81758" font-size="55" font-family="'Simonetta', serif" transform="matrix(0.5615237090023946,0,0,0.4673531208043208,148.36174230027697,226.90644324570502) ">R</text>
        <text fill="#000000" x="302.10062" y="392.81758" font-size="30" font-family="'Simonetta', serif" transform="matrix(0.5615237090023946,0,0,0.4673531208043208,148.36174230027697,226.90644324570502) ">F</text>
        <text fill="#000000" x="339.10062" y="392.81758" font-size="30" font-family="'Simonetta', serif" transform="matrix(0.5615237090023946,0,0,0.4673531208043208,148.36174230027697,226.90644324570502) ">C</text>
    </g>


    <g id="sponsor">
        <path fill="#FFA500" d="m322.60465,429.18959c1.93315,-2.40229 3.98712,-4.62328 6.00082,-6.8896c0,4.80459 0,9.60917 0,14.36843c-2.09425,-0.04533 -4.14822,-0.04533 -6.24247,-0.04533c0,-2.31164 -0.04027,-4.62328 -0.04027,-6.93492c-0.04027,-0.22663 0.1611,-0.31728 0.28192,-0.49859z"/>
        <path fill="#FFA500" d="m329.97479,438.07354c4.18849,0.04533 8.37699,0.04533 12.5252,0.04533c-1.77205,1.99436 -3.54411,3.98871 -5.27589,6.0284c-0.36247,0.40794 -0.76521,0.90653 -1.32904,0.8612c-2.0137,0.04533 -3.98712,0 -6.00082,0c-0.04027,-2.31164 -0.08055,-4.62328 0.08055,-6.93492z"/>
        <path fill="#ff0000" d="m314.67068,438.11887c4.30931,0 8.6589,0 12.96822,0c-1.97342,2.31164 -4.0274,4.4873 -5.92027,6.84427c-4.38986,0.13598 -8.77973,0.09065 -13.16959,0.04533c1.93315,-2.35697 4.0274,-4.66861 6.12164,-6.8896z"/>
        <path fill="#ff0000" d="m322.28246,446.23228c2.05397,-2.40229 4.18849,-4.75926 6.28274,-7.16155c0.04027,4.89524 0.04027,9.79048 0.04027,14.68572c-2.09425,2.35697 -4.14822,4.75926 -6.28274,7.0709c0,-4.84991 0.04027,-9.69983 -0.04027,-14.59507z"/>
        <path d="m195.5,451.89806c7.00767,0 14.01534,0 21.06329,0.04533c0.04027,1.54109 0.04027,3.03686 0,4.57796c-4.9537,0 -9.9074,0 -14.8611,0c0,1.35979 0,2.67425 0,4.03404c4.99397,0 9.94767,0 14.94164,0c0,1.45044 -0.04027,2.85556 0,4.306c-4.9537,0 -9.94767,0 -14.90137,0c0,1.35979 -0.04027,2.7649 -0.04027,4.12469c4.99397,0 9.94767,0 14.94164,0.04533c0,1.54109 0,3.08219 0,4.62328c-7.04794,0 -14.05562,0 -21.10356,0c-0.04027,-7.25221 -0.04027,-14.50441 -0.04027,-21.75662z"/>
        <path d="m223.16822,452.306c1.32904,-0.40794 2.69836,-0.40794 4.06767,-0.45326c4.43014,0 8.90055,0 13.33068,0c0,1.54109 0,3.08219 0,4.57796c-3.90658,0 -7.77288,0 -11.67945,0c-0.72493,0.04533 -1.53041,0 -2.09425,0.58924c-0.88603,0.95185 -0.36247,3.03686 0.88603,3.17284c3.42329,0.40794 6.92712,-0.31728 10.31014,0.49859c0.96658,0.22663 1.8526,0.81587 2.49699,1.67707c1.0874,1.49577 1.44986,3.53545 1.28877,5.39383c-0.1611,1.58642 -0.68466,3.30882 -1.89288,4.26067c-1.40959,1.17848 -3.18164,1.45044 -4.87315,1.49577c-4.99397,0 -9.94767,0 -14.94164,0.04533c0,-1.58642 0,-3.17284 0,-4.75926c4.55096,0 9.06164,0.09065 13.6126,-0.09065c0.96658,-0.09065 1.44986,-1.40511 1.24849,-2.35697c-0.12082,-0.77055 -0.68466,-1.40511 -1.36931,-1.45044c-3.14137,-0.40794 -6.32301,0.18131 -9.46438,-0.36261c-0.88603,-0.18131 -1.77205,-0.36261 -2.49699,-1.0425c-1.24849,-0.99718 -1.89288,-2.71958 -2.05397,-4.39665c-0.20137,-1.9037 0.20137,-3.89806 1.32904,-5.39383c0.56384,-0.58924 1.40959,-1.08783 2.29562,-1.40511z"/>
        <path d="m244.95644,453.1672c1.36931,-0.99718 3.06082,-1.26914 4.67178,-1.26914c4.7926,0 9.62548,-0.04533 14.41808,0c-0.04027,1.54109 0,3.08219 0,4.62328c-4.30931,0 -8.61863,-0.04533 -12.92794,0.09065c-1.57068,0.09065 -1.8526,3.12751 -0.32219,3.58078c3.66493,0.77055 7.49096,-0.45326 11.07534,0.81587c1.20822,0.36261 2.17479,1.40511 2.69836,2.67425c0.64438,1.54109 0.68466,3.30882 0.48329,4.94057c-0.20137,1.22381 -0.64438,2.49295 -1.53041,3.30882c-1.32904,1.26914 -3.1011,1.67707 -4.7926,1.7224c-5.07452,0.04533 -10.18931,0.09065 -15.26383,-0.04533c0.04027,-1.54109 0.04027,-3.08219 -0.04027,-4.62328c4.34959,-0.22663 8.73945,0.04533 13.08904,-0.13598c0.40274,0 0.80548,0 1.12767,-0.27196c1.00685,-0.81587 0.88603,-2.90088 -0.28192,-3.4448c-0.9263,-0.27196 -1.8526,-0.22663 -2.7789,-0.27196c-2.89973,-0.04533 -5.88,0.36261 -8.6589,-0.67989c-1.69151,-0.63457 -2.65808,-2.5836 -2.89973,-4.44198c-0.1611,-1.40511 -0.04027,-2.85556 0.36247,-4.21534c0.20137,-0.95185 0.76521,-1.81305 1.57068,-2.35697z"/>
        <path d="m273.99397,451.89806c3.02055,-0.04533 6.0411,0 9.06164,-0.04533c0.56384,-0.04533 0.72493,0.63457 0.9263,1.08783c2.69836,6.8896 5.43699,13.82452 8.13534,20.71411c-2.37616,0 -4.71205,0 -7.08822,-0.04533c-0.44301,-1.35979 -0.96658,-2.71958 -1.49014,-4.03404c-3.30247,0 -6.60493,0 -9.9074,0c-0.60411,1.31446 -1.0874,2.71958 -1.61096,4.07937c-2.21507,0 -4.43014,0 -6.64521,0c2.94,-7.25221 5.79945,-14.45909 8.61863,-21.75662m4.59123,4.26067c-1.0874,2.81023 -2.09425,5.66579 -3.18164,8.47602c2.13452,0 4.22877,0 6.36329,0c-1.04712,-2.81023 -2.09425,-5.66579 -3.18164,-8.47602z"/>
        <path d="m294.01013,451.89806c5.51753,0 10.99479,-0.04533 16.51233,0.04533c1.73178,0.04533 3.62466,0.54392 4.83288,2.08501c0.9263,1.17848 1.00685,2.85556 1.0874,4.39665c0.08055,2.13034 -0.64438,4.44198 -2.33589,5.57513c-0.28192,0.09065 0,0.27196 0.12082,0.31728c0.9263,0.58924 1.61096,1.63175 1.8526,2.7649c0.52356,2.13034 0.20137,4.39665 0.24164,6.57231c-2.13452,0 -4.26904,0 -6.40356,0c-0.1611,-1.81305 0.28192,-3.67143 -0.08055,-5.43915c-0.20137,-0.72522 -0.52356,-1.54109 -1.24849,-1.7224c-2.73863,-0.54392 -5.51753,-0.22663 -8.25616,-0.22663c-0.04027,2.49295 0,4.94057 -0.04027,7.43351c-2.09425,0 -4.18849,0 -6.28274,0c0,-7.29753 0,-14.54974 0,-21.80195m6.32301,4.57796c-0.12082,1.67707 -0.08055,3.39947 0,5.07654c2.73863,-0.18131 5.47726,0.27196 8.21589,-0.27196c1.81233,-0.54392 1.77205,-4.03404 -0.04027,-4.57796c-2.73863,-0.40794 -5.43699,-0.09065 -8.17562,-0.22663z"/>
    </g>
    <g id="kitmaker">
        <g id="svg_67" fill="#000000" transform="translate(0 181) scale(0.05 -0.05)" stroke="null">
            <path id="svg_68" d="m3124.2423,-4132.62862l-67.67088,-37.9077l0,-85.37065l0,-85.214l19.51031,-14.88112l19.51031,-14.88112l-1.05461,80.35806c-0.70307,52.63218 0.17577,79.88813 2.46076,79.10491c1.93345,-0.78322 18.983,-10.65175 37.79023,-22.24336l34.27486,-20.83357l0,-30.85875l0,-30.7021l12.12803,-8.3021c14.58879,-9.86853 15.29186,-9.86853 27.77143,0c10.01881,7.67553 10.19457,8.3021 9.4915,38.84756c-0.52731,31.01539 -0.52731,31.01539 9.31573,35.55805c5.44882,2.50629 22.14683,12.53147 37.08716,22.08672c15.11609,9.71189 28.29873,17.54406 29.35334,17.54406c1.05461,0 1.40615,-36.02798 0.70307,-79.88813c-0.52731,-44.01679 -0.17577,-79.57484 1.05461,-79.10491c1.23038,0.46993 10.37034,7.36224 20.21338,15.35105l18.10416,14.56783l0,84.90072l0,84.74407l-9.66727,4.54266c-5.27306,2.34965 -36.20832,19.26714 -68.72549,37.59441c-32.34141,18.32728 -60.11284,33.2084 -61.51898,33.05175c-1.40615,0 -32.86871,-17.23077 -70.13164,-38.06434l-0.00001,0zm85.95081,2.34965c1.58192,-1.56643 0.87884,-1.72308 -1.58192,-0.46993c-2.46076,1.25315 -4.39421,0.78322 -4.39421,-0.93986c0,-4.6993 6.1519,-7.2056 8.78843,-3.44615c3.51537,5.01259 8.78843,0.46993 6.32767,-5.63916c-1.23038,-2.97622 -1.05461,-4.38601 0.35154,-3.28951c7.20651,5.79581 71.88933,-31.79861 69.60434,-40.41399c-0.52731,-2.19301 2.28499,-3.91608 6.1519,-3.91608c4.04268,0 7.20651,-1.0965 7.20651,-2.50629c0,-1.40979 -5.62459,-2.50629 -12.47957,-2.50629c-7.03074,0 -13.88571,-1.72308 -15.29186,-3.91608c-1.40615,-2.03636 -5.27306,-2.97622 -8.26112,-1.87972c-5.97613,2.03636 -22.14683,-4.07273 -18.80723,-7.04895c1.05461,-1.0965 4.39421,0 7.38228,2.19301c3.16383,2.34965 5.27306,2.66294 5.27306,0.62657c0,-3.75944 -13.35841,-8.45874 -20.56492,-7.36224c-2.63653,0.46993 -3.69114,-0.62657 -2.46076,-2.50629c1.40615,-2.03636 -1.23038,-3.28951 -6.85497,-3.28951c-5.27306,0 -8.26112,-1.40979 -7.03074,-3.13287c1.23038,-1.72308 -0.52731,-3.13287 -3.86691,-3.13287c-3.3396,0 -5.09729,-0.78322 -4.04268,-1.87972c2.98806,-2.66294 -15.11609,-20.05035 -20.74069,-20.05035c-2.63653,0 -4.74575,1.56643 -4.74575,3.28951c0,1.87972 -1.40615,2.50629 -3.3396,1.56643c-1.75769,-0.93986 -4.21844,1.0965 -5.44882,4.54266c-1.23038,3.44615 -3.69114,5.48252 -5.44882,4.54266c-1.93345,-0.93986 -3.3396,0.46993 -3.3396,3.28951c0,2.81958 -1.58192,4.22937 -3.51537,3.13287c-1.93345,-1.0965 -3.51537,-0.46993 -3.51537,1.40979c0,1.72308 -3.16383,3.28951 -7.20651,3.28951c-6.1519,0 -6.50344,0.93986 -3.16383,6.57902c2.98806,5.01259 2.98806,6.10909 0,4.54266c-2.10922,-1.25315 -6.1519,-0.78322 -8.61266,1.25315c-2.63653,1.87972 -7.20651,2.50629 -10.01881,1.56643c-2.98806,-0.93986 -6.50344,-0.31329 -7.73382,1.56643c-1.23038,1.72308 -0.35154,3.44615 2.28499,3.44615c2.46076,0.15664 1.40615,1.40979 -2.46076,2.81958c-3.86691,1.40979 -8.78843,1.40979 -10.72188,-0.15664c-2.28499,-1.56643 -5.62459,-0.15664 -8.61266,3.44615c-3.51537,4.38601 -6.32767,5.16923 -10.89765,2.97622c-7.90958,-3.75944 -10.19457,-3.75944 -10.19457,0.15664c0,1.72308 2.46076,3.13287 5.62459,3.13287c3.51537,0 4.92152,1.72308 3.69114,4.38601c-1.75769,4.22937 7.55805,14.41119 13.18264,14.41119c1.40615,0 8.26112,3.6028 15.46763,7.83217c7.03074,4.38601 15.6434,7.83217 18.983,7.83217c3.86691,0 5.44882,1.72308 4.21844,4.54266c-1.40615,3.28951 0.17577,3.91608 6.1519,2.81958c5.97613,-1.25315 6.85497,-0.78322 3.51537,1.40979c-3.16383,1.87972 -3.51537,3.75944 -1.23038,5.01259c2.10922,1.0965 4.74575,0.62657 5.97613,-1.25315c3.69114,-5.32588 8.78843,-3.44615 8.78843,2.97622c0,4.22937 1.75769,5.63916 5.27306,4.38601c3.86691,-1.25315 4.74575,-0.31329 3.16383,3.13287c-2.28499,5.48252 23.55298,6.10909 29.17758,0.62657l-0.00002,0z" fill="#000000" stroke="null"/>
            <path id="svg_69" d="m3112.81735,-4323.89019l0,-60.62099l22.84991,-19.89371c26.18951,-22.71329 30.05642,-22.55665 21.7953,0.93986c-4.56998,12.68811 -5.97613,28.66574 -5.97613,66.57344l-0.17577,49.8126l-14.58879,9.3986c-8.08535,5.16923 -16.69801,10.49511 -19.33454,11.9049c-3.69114,2.03636 -4.56998,-8.77203 -4.56998,-58.1147z" fill="#000000" stroke="null"/>
            <path id="svg_70" d="m3255.89293,-4275.48738l-17.04955,-11.59161l-1.58192,-53.25875c-1.05461,-31.64196 -3.86691,-59.36784 -6.6792,-68.13987c-6.1519,-18.79721 -5.80036,-18.64056 21.97107,3.6028l23.02568,18.64056l0.35154,61.24756c0.17577,33.83497 -0.35154,61.40421 -1.40615,61.24756c-0.87884,-0.15664 -9.31573,-5.32588 -18.63146,-11.74825l-0.00001,0z" fill="#000000" stroke="null"/>
        </g>
        <text fill="#000000" stroke-width="0" x="5.89013" y="460.11767" id="svg_77" font-size="15" font-family="'Open Sans'" text-anchor="start" xml:space="preserve" font-weight="bold" font-style="normal" stroke="#0000ff" transform="matrix(0.301333 0 0 0.326453 151.501 259.61)">MILLS</text>
    </g>
</svg>