<svg width="512" height="512" xmlns="http://www.w3.org/2000/svg">
    <g id="shirt">
        <g id="chest">
            <path fill="#009933" d="m255.74181,313.00899l44,0l98.846,21.665c27.533,6.035 47.154,30.421 47.154,58.609l0,85.726l-66,0l0,33l-124,0l-124,0l0,-33l-66,0l0,-85.726c0,-28.187 19.621,-52.574 47.154,-58.609l98.846,-21.665l44,0z"/>
        </g>
        <g id="left-sleeve">
            <path d="m131.9286,479.52537l-66,0l0,-20l66,0l0,20z" fill="#009933"/>
        </g>
        <g id="right-sleeve">
            <path fill="#009933" d="m379.92691,458.49199l66,0l0,20l-66,0l0,-20z"/>
        </g>
    </g>
    <g  id="shoulders">

        <path stroke="#009933" d="m393.52393,339.93948l-96.76503,-24.35928l-43.07368,0l-43.07368,0l-96.76503,24.35928c-26.95336,6.78551 -46.16128,34.20418 -46.16128,65.89767l0,73.89975l19.57895,0l0,-73.89975c0,-20.96709 12.94266,-39.44258 30.77419,-43.93216l94.69358,-23.83757l81.90657,0l94.69358,23.83757c17.83153,4.48845 30.77419,22.96508 30.77419,43.93216l0,73.89975l19.57895,0l0,-73.89975c0,-31.69349 -19.20793,-59.11216 -46.16128,-65.89767l-0.00003,0z" fill="#000000"/>
        <path stroke="#009933" d="m389.01299,344.77668l-93.64357,-23.33866l-41.68421,0l-41.68421,0l-93.64357,23.33866c-26.0839,6.50121 -44.67221,32.77108 -44.67221,63.13665l0,70.80346l18.94737,0l0,-70.80346c0,-20.08859 12.52515,-37.78999 29.78147,-42.09146l91.63895,-22.83882l79.26442,0l91.63895,22.83882c17.25632,4.30039 29.78147,22.00286 29.78147,42.09146l0,70.80346l18.94737,0l0,-70.80346c0,-30.36558 -18.58832,-56.63543 -44.67221,-63.13665l-0.00003,0l0.00001,0z" fill="#009933"/>
    </g>
</svg>