<svg width="512" height="512" xmlns="http://www.w3.org/2000/svg">
    <g>
        <title>background</title>
        <rect x="-1" y="-1" width="514" height="514" id="canvas_background" fill="none"/>
    </g>

    <g>
        <title>Layer 1</title>
        <ellipse stroke="null" fill="#ffd3b3" stroke-width="1.5" cx="255.5" cy="129.45313" id="svg_49" rx="90" ry="70"/>
        <g id="svg_1" stroke="null">
            <g id="svg_2" stroke="null">
                <path d="m256,312l44,0l98.846,21.55613c27.533,6.00467 47.154,30.26813 47.154,58.31448l0,85.29521l-66,0l0,32.83417l-124,0l-124,0l0,-32.83417l-66,0l0,-85.29521c0,-28.04536 19.621,-52.30981 47.154,-58.31448l98.846,-21.55613l44,0z" fill="#ffffff" id="svg_3" stroke="null"/>
            </g>
            <!-- Sleeve Piping -->
            <g id="svg_6" stroke="null">
                <path d="m356.24767,351.25856l-70.75293,-22.25856l-31.49474,0l-31.49473,0l-70.75293,22.25856c-19.70783,6.20034 -33.75234,31.25445 -33.75234,60.21472l0,67.52671l14.31579,0l0,-67.52671c0,-19.1589 9.46345,-36.04109 22.50156,-40.14349l69.23832,-21.78185l59.88867,0l69.23832,21.78185c13.03811,4.10137 22.50156,20.98459 22.50156,40.14349l0,67.52671l14.31579,0l0,-67.52671c0,-28.96027 -14.04451,-54.01438 -33.75234,-60.21472z" fill="#ffffff" id="svg_51" stroke="null"/>
                <path d="m353.6169,353.69114l-68.41398,-20.58155l-30.45359,0l-30.45358,0l-68.41398,20.58155c-19.05633,5.7332 -32.63655,28.89966 -32.63655,55.67799l0,62.43908l13.84254,0l0,-62.43908c0,-17.71542 9.15061,-33.32567 21.7577,-37.11898l66.94945,-20.14076l57.90888,0l66.94944,20.14076c12.60709,3.79236 21.75771,19.40356 21.75771,37.11898l0,62.43908l13.84254,0l0,-62.43908c0,-26.77834 -13.58022,-49.94481 -32.63655,-55.67799l-0.00003,0z" fill="#0061ff" id="svg_52" stroke="null"/>
                <path stroke="null" d="m350.95753,355.75273l-66.66051,-20.39656l-29.67305,0l-29.67305,0l-66.66051,20.39656c-18.56791,5.68166 -31.80006,28.63992 -31.80006,55.17758l0,61.8779l13.48775,0l0,-61.8779c0,-17.55621 8.91609,-33.02615 21.20005,-36.78537l65.2335,-19.95973l56.42465,0l65.2335,19.95973c12.28397,3.75828 21.20005,19.22916 21.20005,36.78537l0,61.8779l13.48775,0l0,-61.8779c0,-26.53766 -13.23215,-49.49592 -31.80006,-55.17758l-0.00001,0z" fill="#ffffff" id="svg_53"/>
            </g>
            <!-- Left Sleeve -->
            <!-- Collar -->
        </g>
        <g id="skin-light">
            <title>Skin</title>
            <g id="svg_8" stroke="null">
                <title>Bottom Neck</title>
                <path d="m211.25968,315.84762l0,18.9c0,12.75803 19.699,23.1 44,23.1s44,-10.34198 44,-23.1l0,-18.9l-88,0z" fill="#ffd3b3" id="svg_9" stroke="null"/>
            </g>
            <g id="svg_10">
                <title>Top Neck</title>
                <path d="m211.25968,315.03562c13.499,5.851 28.376,9.812 44,9.812s30.501,-3.961 44,-9.812l0,-18.188l-88,0l0,18.188z" fill="#fcb98b" id="svg_14"/>
            </g>
            <g id="svg_15" stroke="null">
                <title>Face</title>
                <path d="m346.25968,125.84762l0,93.85185c0,48.13068 -40.742,87.14815 -91,87.14815c-50.258,0 -91,-39.01747 -91,-87.14815l0,-93.85185l182,0z" fill="#ffd3b3" id="svg_16" stroke="null"/>
            </g>
            <g id="svg_17">
                <title>Left Ear</title>
                <path d="m150.25968,179.84762l14,0l0,-50l-14,0c-5.523,0 -10,4.477 -10,10l0,30c0,5.523 4.477,10 10,10z" fill="#ffd3b3" id="svg_18"/>
            </g>
            <g id="svg_19">
                <title>Right Ear</title>
                <path d="m360.25968,179.84762l-14,0l0,-50l14,0c5.523,0 10,4.477 10,10l0,30c0,5.523 -4.477,10 -10,10z" fill="#ffd3b3" id="svg_20"/>
            </g>
            <g id="svg_21">
                <title>Left Arm</title>
                <path d="m131.25968,505.84762l-66,0l0,-33l66,0l0,33z" fill="#ffd3b3" id="svg_22"/>
            </g>
            <g id="svg_24">
                <title>Right Arm</title>
                <path d="m379.25968,472.84762l66,0l0,33l-66,0l0,-33z" fill="#ffd3b3" id="svg_25"/>
            </g>
        </g>
        <g id="svg_23">
            <title>Wirral Logo</title>
            <g id="svg_2" fill="#000000" transform="translate(0,117) scale(0.10000000149011612,-0.10000000149011612) " stroke="null">
                <path id="svg_3" d="m1625.15652,-3077.13651c-8.43752,-4.2114 -10.78128,-10.2277 -10.78128,-27.67495l0,-22.26028l-10.78128,12.63421c-21.56256,26.47169 -42.18762,9.62607 -29.06258,-22.86191l7.96877,-19.25214l-18.2813,4.2114c-16.4063,3.00815 -18.75005,2.40652 -23.90632,-12.03259c-6.09377,-17.44725 -7.50002,-16.24399 43.12512,-36.69938c26.71882,-10.82933 27.18758,-10.82933 33.75009,0c3.28126,6.61792 5.15626,14.4391 3.28126,17.44725c-1.87501,3.60978 0,4.81303 4.68751,2.40652c18.2813,-9.02444 22.03131,0.60163 22.03131,56.55315c0,56.55315 -0.9375,58.35804 -22.03131,47.52871l0.00001,0.00001zm17.3438,-50.53686c0,-33.69124 -1.87501,-45.12219 -7.03127,-47.52871c-3.75001,-2.40652 -7.96877,-1.20326 -9.37503,1.80489c-1.40625,3.60978 -7.03127,8.42281 -11.71878,12.03259c-8.43752,5.41466 -8.43752,4.81303 -3.75001,-12.63421c2.81251,-10.2277 3.28126,-20.45539 0.9375,-23.46354c-4.68751,-6.01629 -67.50019,16.24399 -67.50019,23.46354c0.46875,14.4391 7.96877,18.04888 24.84382,11.43096c9.37503,-3.60978 18.2813,-5.41466 19.68755,-3.60978c1.40625,1.80489 -0.9375,13.23584 -5.15626,25.26843c-11.71878,31.28472 -3.28126,40.30916 18.2813,19.25214l16.4063,-16.24399l2.81251,27.67495c2.81251,21.65865 5.15626,27.07332 12.65629,27.07332c7.96877,0 8.90627,-4.2114 8.90627,-44.52057l0,-0.00002z" stroke="null" fill="#0061ff"/>
                <path id="svg_4" d="m1657.96911,-3089.1691c1.87501,-10.82933 3.28126,-35.49613 3.28126,-55.34989l0,-36.09776l14.06254,2.40652c9.37503,1.80489 13.59379,0.60163 12.65629,-4.2114c-1.40625,-3.60978 0.46875,-10.82933 3.28126,-16.24399c5.15626,-9.62607 8.43752,-9.02444 38.43761,4.81303c17.81255,8.42281 35.15635,16.24399 38.43761,17.44725c4.68751,2.40652 4.21876,6.61792 -1.40625,21.05702c-7.03127,18.04888 -7.50002,18.04888 -21.56256,8.42281c-17.81255,-11.43096 -19.68755,-9.62607 -13.12504,15.04073c3.75001,14.4391 3.75001,21.05702 -0.46875,27.67495c-8.43752,12.63421 -14.06254,11.43096 -29.06258,-7.21955l-13.12504,-16.24399l0,25.26843c0,16.24399 -2.34376,25.26843 -5.62502,25.26843c-3.28126,0 -11.25003,1.80489 -17.3438,4.2114c-10.78128,3.60978 -11.25003,2.40652 -8.43752,-16.24399l-0.00001,0z" stroke="null" fill="#0061ff"/>
                <path id="svg_11" d="m1735.31307,-3207.69006c-20.15631,-7.82118 -36.5626,-17.44725 -36.5626,-21.05702c0,-3.60978 3.28126,-12.03259 7.96877,-18.04888c6.56252,-9.62607 6.56252,-10.82933 0.46875,-10.82933c-4.21876,0 -9.84378,-4.2114 -13.12504,-9.02444c-4.68751,-7.21955 -1.40625,-16.24399 19.2188,-51.13849l25.31257,-42.11405l11.25003,14.4391l11.25003,14.4391l-10.78128,17.44725l-10.31253,16.84562l19.2188,1.80489c10.78128,1.20326 19.2188,4.2114 19.2188,7.21955c0,2.40652 1.40625,9.02444 2.81251,14.4391c1.87501,6.01629 -2.34376,12.03259 -13.12504,19.25214l-15.46879,10.2277l15.46879,9.62607c12.18753,7.21955 15.00004,12.03259 14.06254,24.06517c-0.9375,7.82118 -3.28126,15.04073 -6.09377,16.24399c-2.34376,0.60163 -21.09381,-5.41466 -40.78136,-13.83747l0.00002,0z" stroke="null" fill="#0061ff"/>
                <path id="svg_12" d="m1530,-3215.51124c0,-15.64236 2.34376,-18.65051 14.06254,-21.65865c17.81255,-4.81303 17.81255,-10.2277 0,-26.47169c-12.18753,-10.82933 -13.12504,-14.4391 -8.43752,-27.07332c4.21876,-12.03259 7.50002,-13.83747 20.62506,-10.82933c16.87505,3.60978 20.62506,-3.60978 8.90627,-16.24399c-3.75001,-4.2114 -7.03127,-10.82933 -7.03127,-15.04073c0,-7.82118 17.81255,-30.68309 20.62506,-26.47169c0.9375,1.20326 11.71878,19.85377 23.90632,40.91079c17.3438,30.08146 21.09381,40.91079 17.3438,48.13034c-2.34376,5.41466 -8.43752,8.42281 -13.12504,7.82118c-7.03127,-1.80489 -7.50002,-0.60163 -2.34376,7.21955c11.71878,18.04888 3.75001,28.27658 -32.34384,43.31731c-19.2188,7.82118 -36.5626,14.4391 -38.43761,14.4391c-2.34376,0 -3.75001,-8.42281 -3.75001,-18.04888l0,0.00001z" stroke="null" fill="#0061ff"/>
                <path id="svg_13" d="m1666.40663,-3293.12142c-7.96877,-10.2277 -9.84378,-10.82933 -15.00004,-3.00815c-2.81251,4.81303 -7.96877,8.42281 -10.78128,8.42281c-6.09377,0 -49.68764,-72.79714 -49.68764,-82.42321c0,-5.41466 23.43757,-22.26028 25.78132,-18.65051c0.9375,1.20326 5.62502,10.82933 10.78128,22.26028l9.37503,20.45539l5.62502,-25.26843c4.68751,-21.65865 6.56252,-24.6668 18.75005,-24.6668c13.12504,0 14.06254,1.80489 14.06254,21.05702c0,24.6668 5.15626,27.07332 15.93754,6.01629c8.43752,-16.84562 15.93754,-18.65051 28.12508,-7.21955c7.96877,7.82118 7.03127,10.82933 -15.93754,51.13849c-13.59379,24.06517 -25.31257,43.31731 -26.25007,43.31731c-0.9375,0 -6.09377,-5.41466 -10.78128,-11.43096l-0.00001,0.00002z" stroke="null" fill="#0061ff"/>
            </g>
            <text font-weight="bold" xml:space="preserve" text-anchor="start" font-family="Helvetica, Arial, sans-serif" font-size="39" id="svg_38" y="454.85312" x="184.2" stroke-opacity="null" stroke-width="0" fill="#0061ff">WIRRAL</text>
        </g>
        <g id="svg_31" fill="#000000" transform="translate(0,217) scale(0.10000000149011612,-0.10000000149011612) ">
            <title>Tranmere Logo</title>
            <path fill="#0061ff" id="svg_33" d="m3284.22923,-1706.05119l0.42201,-113.63103l43.1854,-26.01832c23.6324,-14.15963 47.54614,-28.49626 53.03224,-31.68217l9.9875,-5.84085l52.7509,32.56715l52.7509,32.56715l0,112.74605l0,112.92306l-106.20515,0l-106.20514,0l0.28134,-113.63104l0,0zm209.31557,55.22256l0,-54.86857l-30.9472,0l-30.94719,0l-2.67271,6.72583c-3.23539,8.14178 -13.22289,20.00048 -19.41233,23.18639l-4.64208,2.30094l0,38.76199l0,38.76199l44.31075,0l44.31076,0l0,-54.86857l0,0zm-118.44335,14.69062l0.28133,-35.75307l-4.22007,-2.83193c-7.03345,-4.60188 -14.77025,-14.33662 -17.58363,-22.12442l-2.53205,-7.07981l-30.10317,0l-29.96251,0l0,52.21363l0,52.21364l41.91938,-0.35399l41.77871,-0.53099l0.422,-35.75306l0,0l0.00001,0zm22.22571,30.79719c3.37605,-3.7169 3.65739,-4.95587 2.81338,-10.79672c-0.98469,-6.90282 -4.22007,-8.14178 -4.50141,-1.76995c-0.14067,1.76995 -0.28134,4.42488 -0.42201,5.66385c-0.14067,3.18592 -7.17412,1.94695 -9.00282,-1.59296c-2.39137,-4.77887 0,-11.68169 4.64208,-13.62864l4.22007,-1.94695l0,-20.35447l0,-20.53146l-4.22007,0l-4.22007,0l0,17.52254c0,17.16855 -0.14067,17.69954 -4.22007,22.8324c-11.25353,14.33663 2.81338,37.52302 14.91092,24.60236l0,0zm11.11285,-73.45308c6.61145,-4.24789 14.91092,-14.69062 18.28698,-23.18639c3.23539,-8.14179 4.36074,-24.77936 2.11004,-34.33711c-2.67271,-12.03568 -10.83152,-24.24836 -20.25635,-30.26621c-15.75493,-10.26573 -33.6199,-6.01784 -45.85811,10.61973c-7.7368,10.61972 -10.26884,18.58451 -10.40951,32.74414c0,20.35447 10.26884,39.82396 25.03909,46.54978c8.01814,3.8939 23.77307,2.65494 31.08786,-2.12394zm-55.98628,-66.72726c2.39137,-8.67277 10.55018,-19.46949 17.58363,-23.36339l5.34542,-3.00892l0,-49.02772l0,-49.20471l-30.52518,18.58451c-16.88029,10.26573 -36.8553,22.30142 -44.31076,26.7263l-13.78556,8.14179l0,39.64696l0,39.46997l31.7912,-0.35399l31.93188,-0.53098l1.96937,-7.07982l0,0zm139.68438,-30.08921l0,-38.05401l-43.60741,-27.43428l-43.60741,-27.43429l0,47.43476l0,47.43477l4.64208,2.12394c7.45546,3.36291 16.03627,13.80564 19.975,24.24837l3.6574,9.73474l29.39983,0l29.54051,0l0,-38.054l0,0zm-97.34299,-43.71786c-0.28134,-32.39016 -0.84402,-44.07185 -2.39138,-47.25777c-3.93873,-8.84977 -5.06408,0.35399 -5.48609,46.37279l-0.42201,43.71786l4.36074,0l4.36074,0l-0.422,-42.83288l0,0z"/>
            <path fill="#0061ff" id="svg_34" d="m3409.14336,-1635.60703l0,-34.3371l6.18944,-4.60188c6.47077,-4.77887 14.20757,-14.69062 16.59895,-21.59344l1.54736,-4.24789l28.69648,0l28.55582,0l0,49.55871l0,49.55871l-40.79402,0l-40.79403,0l0,-34.33711l0,0zm49.79685,19.1155c1.26602,-0.53098 2.2507,-2.12394 2.2507,-3.5399c0,-1.41597 1.40669,-2.47794 3.23539,-2.47794c3.51673,0 6.75211,-6.54883 8.58081,-17.16855c0.84402,-4.77888 0.56268,-5.66385 -2.11003,-6.72583c-2.81339,-1.23896 -2.81339,-1.41596 -0.84402,-3.00892c3.37606,-2.30094 3.09472,-8.49577 -0.42201,-8.49577c-1.68802,0 -2.81338,1.23896 -2.95404,3.18591c0,2.30094 -0.28134,2.12395 -1.26603,-0.88497c-1.12535,-3.36292 -2.39137,-4.0709 -7.45546,-4.0709c-3.79806,0 -6.89278,1.06197 -8.01813,2.65493c-0.98469,1.41597 -2.39138,2.65493 -3.23539,2.65493c-2.11004,0 4.78275,-6.37183 8.58081,-7.78779c1.68803,-0.70798 3.09472,-2.12395 3.09472,-3.18592c0,-1.06197 -0.98468,-1.23897 -2.39137,-0.53099c-1.40669,0.88498 -5.62676,1.59296 -9.5655,1.94695c-4.22007,0.35399 -7.59613,1.59296 -8.58081,3.18592c-1.12535,2.12395 -1.8287,2.30094 -3.23539,0.53099c-1.40669,-1.59296 -2.39137,-1.06198 -5.06409,2.83192c-1.82869,2.65493 -3.09472,6.01785 -2.67271,7.43381c0.98469,3.00892 4.22007,3.53991 5.4861,0.88498c0.422,-0.88498 1.82869,-1.76996 2.95404,-1.76996c1.4067,0 1.26603,0.88498 -0.84401,3.53991c-1.54736,1.94695 -3.65739,3.53991 -4.78275,3.53991c-1.12535,0 -2.39137,1.23896 -2.81338,2.83192c-0.98468,3.36291 1.40669,9.55775 3.93874,9.55775c1.12535,0 1.68802,1.41597 1.26602,4.0709c-0.98469,6.01784 3.79806,10.44272 10.40951,9.73474c4.0794,-0.35399 5.34542,-1.23897 5.20475,-3.53991c-0.28133,-3.5399 -0.28133,-3.5399 2.95405,-2.12394c1.68803,0.88498 1.8287,1.59296 0.70335,2.47793c-4.22007,3.36292 2.2507,6.90282 7.59613,4.24789l0,0z"/>
            <path fill="#0061ff" id="svg_35" d="m3333.18206,-1611.88965c-1.12535,-0.88497 -4.22007,-2.47793 -6.75211,-3.7169c-3.51673,-1.59296 -4.50141,-3.00892 -4.0794,-5.48686c0.56267,-2.12394 0,-3.18591 -1.54736,-3.18591c-1.40669,-0.177 -0.56268,-1.23897 1.82869,-2.47794c3.79807,-2.12394 3.93874,-2.47793 1.54736,-3.7169c-3.93873,-2.12395 -9.56549,7.07981 -8.44014,13.80564c0.56268,3.7169 0.28134,4.77887 -1.54736,4.77887c-1.26602,0 -1.8287,-0.88497 -1.26602,-1.94694c0.56267,-1.41597 -0.14067,-1.59296 -2.25071,-0.70799c-2.2507,0.88498 -2.95405,0.70799 -2.53204,-1.06197c0.42201,-1.41596 -0.28134,-3.53991 -1.54736,-4.60188c-1.96937,-1.94695 -1.8287,-2.30094 0.98468,-3.36291c2.11004,-0.70798 3.09472,-2.47794 3.09472,-5.30986c0,-2.30094 1.26602,-5.66385 2.81338,-7.25681c3.37606,-3.71691 3.51673,-6.37184 0.70335,-9.38076c-1.68803,-1.76995 -2.53204,-1.76995 -4.22007,0c-2.67272,2.83193 -5.62677,0.53099 -3.37606,-2.83192c1.12535,-1.76996 1.12535,-2.47794 0,-2.47794c-0.84401,0 -1.54736,-1.23897 -1.54736,-2.65493c0,-1.41596 0.84401,-2.65493 1.96937,-2.65493c1.12535,0 2.2507,-0.88498 2.53204,-1.94695c0.28134,-1.06197 2.81338,-0.35399 6.47078,2.12395c5.76743,3.89389 5.9081,3.89389 7.87746,0.70798c1.68803,-3.00892 1.68803,-3.71691 -0.28133,-5.48686c-1.40669,-1.23897 -1.8287,-3.36291 -1.12536,-6.54883c0.98469,-5.30986 -0.70334,-6.19484 -3.37605,-2.12394c-2.25071,3.36291 -4.22007,3.36291 -4.22007,0.17699c0,-1.41596 -0.84402,-3.00892 -1.68803,-3.53991c-1.40669,-0.88497 -1.40669,-1.23896 -0.14067,-2.12394c0.98468,-0.53099 1.40669,-1.94695 0.98468,-3.18592c-0.56268,-1.59296 1.68803,-2.12394 8.58081,-2.12394c8.86215,0.17699 9.28416,0.35399 8.44015,4.24789c-0.98469,5.30986 1.26602,4.95587 3.23539,-0.53099c0.84401,-2.47794 2.2507,-4.42488 3.09471,-4.42488c0.70335,0 1.4067,-0.70799 1.4067,-1.59296c0,-0.88498 -1.96937,-1.41597 -4.50141,-1.23897c-3.6574,0.17699 -4.50141,-0.53099 -4.64208,-3.36291c0,-1.94695 0.56267,-3.71691 1.26602,-3.8939c0.70334,-0.177 1.68803,-1.23897 2.39137,-2.47794c0.84402,-1.94694 1.8287,-1.41596 4.50141,1.59296c1.8287,2.12395 3.79807,3.36291 4.22007,2.65493c0.56268,-0.53098 0.98469,0.177 0.98469,1.76996c0,1.59296 0.70334,3.00892 1.40669,3.00892c0.84401,0 1.26602,2.47793 1.12535,5.30986c-0.14067,3.00892 -1.12535,5.30986 -2.11004,5.30986c-0.98468,0 -1.82869,0.70798 -1.82869,1.76995c0,0.88498 1.82869,1.23897 3.93873,0.70799c5.20476,-1.41597 6.89278,1.59295 7.31479,12.56667c0.42201,12.21268 0.28134,13.27465 -2.2507,13.27465c-3.09472,0 -1.96937,7.7878 1.26602,8.49578c1.8287,0.53098 2.2507,-0.35399 2.11003,-3.53991c-0.28133,-3.00892 0.28134,-4.07089 2.39138,-4.07089c2.39137,0 2.81338,1.23897 2.95405,9.38075c0.28134,6.01785 -0.14067,8.84977 -1.12535,8.14179c-2.11004,-1.76996 -3.93874,2.83193 -3.93874,10.44273c0,4.07089 -0.56267,6.37183 -1.40669,5.66385c-0.70334,-0.53099 -1.40669,-2.65493 -1.40669,-4.60188c0,-2.30094 -0.56268,-3.18592 -1.68803,-2.30094c-1.12535,0.88497 -1.26602,-0.35399 -0.70334,-4.24789c0.70334,-4.42489 0.422,-5.66385 -1.26603,-5.66385c-1.12535,0 -1.68802,-0.88498 -1.26602,-1.76996c0.42201,-1.06197 0.14067,-4.42488 -0.84401,-7.78779c-1.40669,-5.13287 -1.40669,-7.25681 0.56267,-13.80564c1.26603,-4.24789 2.39138,-9.55775 2.39138,-11.85869c0,-3.53991 -0.28134,-3.71691 -2.11004,-1.94695c-1.12535,1.23897 -2.11003,3.00892 -2.11003,4.07089c0,1.06197 -1.68803,4.24789 -3.79807,7.07982c-2.67271,3.5399 -3.37606,5.48685 -2.11003,6.01784c0.84401,0.53099 1.68802,2.30094 1.68802,4.07089c0,1.76996 0.70335,3.53991 1.54736,3.8939c2.39138,1.06197 1.8287,14.86761 -0.98468,21.94743c-2.95405,7.25681 -4.36074,8.31878 -7.59613,6.01784l0.00001,0l-0.00001,0z"/>
            <path fill="#0061ff" id="svg_36" d="m3379.04018,-1679.85587c-20.53768,-9.73475 -29.96251,-39.11598 -20.39702,-63.36435c3.6574,-9.02676 11.67554,-18.40752 18.99033,-21.94743c9.56549,-4.60188 23.77307,-2.83192 32.35388,3.8939c8.29948,6.37184 15.33293,20.17748 16.73962,32.56715c1.96937,18.05353 -6.33011,37.87701 -19.553,46.37279c-7.31479,4.77888 -20.81902,5.84085 -28.13381,2.47794l0,0zm4.92342,-3.71691c0,-0.88497 -1.12536,-2.12394 -2.53205,-2.65493c-1.40669,-0.53098 -2.53204,-2.12394 -2.53204,-3.5399c0,-1.59296 -0.98468,-2.47794 -2.67271,-2.12395c-1.54736,0.35399 -2.11004,-0.17699 -1.54736,-1.41596c0.56267,-1.06197 -0.14067,-3.8939 -1.26602,-6.19484c-1.26603,-2.47793 -1.8287,-4.42488 -1.26603,-4.42488c0.70335,0 1.96937,1.59295 2.95405,3.7169c1.26603,2.47793 2.81338,3.36291 4.64208,2.83193c2.25071,-0.70799 2.53205,-0.53099 1.26602,1.41596c-1.96936,2.83192 0.70335,5.48686 4.92342,4.77887c2.39138,-0.35399 2.39138,-0.17699 0.70335,1.41597c-1.8287,1.41596 -1.8287,1.94694 -0.14067,3.36291c1.12535,0.88497 2.81338,1.23897 3.93873,0.70798c1.12535,-0.53099 1.8287,0 1.54736,1.41596c-0.70334,3.8939 7.87747,4.0709 13.92624,0c2.95405,-1.76995 7.17412,-5.66385 9.28416,-8.67277l3.93873,-5.13287l-4.22007,-5.48685c-2.25071,-3.18592 -5.20476,-5.66386 -6.75212,-5.66386c-1.40669,0 -3.51672,-0.88497 -4.64208,-1.94694c-1.54736,-1.23897 -0.70334,-1.41597 2.95405,-0.70799c7.7368,1.76996 9.00282,-1.41596 9.00282,-23.71738l0,-18.58451l-6.89278,-5.30986c-5.34542,-4.24789 -8.86215,-5.48686 -16.17694,-6.01785c-8.01814,-0.53098 -10.26884,0 -16.88029,4.42489c-4.0794,2.65493 -9.14349,7.6108 -11.11285,10.79672l-3.51673,5.66385l4.78275,-1.23897c2.67271,-0.88498 8.1588,-1.41596 12.2382,-1.23897c6.33011,0.177 7.45546,-0.35399 8.01814,-3.53991c0.28134,-2.12394 0.84401,-5.30986 1.12535,-7.25681c0.42201,-2.12394 0.70335,-1.41596 0.84402,2.12395c0.28133,10.26573 -0.56268,11.15071 -11.3942,11.15071c-10.12817,0 -17.02095,3.00892 -18.56831,7.96479c-0.42201,1.59296 -0.84402,7.96479 -0.84402,14.15963l0,11.15071l5.34543,-0.35399c2.95405,-0.177 6.89278,-1.59296 8.72148,-3.36292c1.8287,-1.59295 4.78275,-3.00892 6.33011,-3.00892c2.11003,0.177 1.68803,0.70798 -1.54736,2.47794c-2.53205,1.41596 -4.92342,3.36291 -5.34543,4.42488c-0.56267,1.06197 -3.09472,1.94695 -5.62676,1.94695c-6.04877,0 -6.75211,1.23897 -4.36074,6.90282c4.92342,12.03569 23.35106,26.7263 23.35106,18.76151l0.00001,0z"/>
            <path fill="#0061ff" id="svg_37" d="m3289.57466,-1777.91131l0,-34.86809l39.528,-23.89438c21.80371,-13.09765 40.09068,-24.07137 40.79403,-24.42536c0.70334,-0.35399 1.26602,17.69954 1.26602,42.47889l0,43.18687l-5.48609,3.8939c-6.61145,4.60188 -13.78557,14.69062 -16.45828,22.83241l-1.96937,5.84084l-28.83716,0l-28.83715,0l0,-35.04508l0,0zm35.87061,18.76151c0,-6.54883 0.422,-7.6108 3.23538,-8.14179c1.8287,-0.35399 4.92342,1.23897 7.45546,3.8939c2.95405,3.18592 5.90811,4.60188 9.70617,4.60188c6.04877,0 8.58081,-2.65493 4.22007,-4.42488c-7.17412,-2.83193 -6.47078,-15.5756 0.98469,-17.87654c5.06408,-1.41596 10.26884,-7.4338 10.26884,-11.5047c0,-2.83192 -0.56268,-3.00892 -3.6574,-1.41596c-2.95405,1.23897 -4.36074,1.06197 -6.33011,-1.23897c-2.2507,-2.47793 -2.53204,-4.60188 -1.68803,-12.56667c0.98469,-10.97371 -0.84401,-16.81456 -6.18944,-19.82348c-4.64208,-2.65493 -4.50141,-2.83193 -3.65739,5.13286c0.70334,6.19484 0.422,7.25681 -2.67271,9.02677c-2.95405,1.59296 -4.50141,1.23897 -9.28416,-1.76996c-6.47078,-4.24789 -14.62958,-4.77887 -16.88029,-1.41596c-1.12535,1.76995 -0.84401,2.83193 1.26602,4.42488c4.36074,3.36292 3.23539,8.67278 -2.81338,14.15963c-5.76743,4.95588 -9.56549,12.74367 -7.87747,16.10658c0.56268,1.41597 1.54736,1.06198 2.95405,-0.70798c4.92342,-6.19484 11.3942,0.177 9.42483,9.38076c-1.12535,5.84084 1.96937,15.2216 6.33011,18.40752c2.11004,1.76995 4.0794,3.18591 4.50141,3.18591c0.42201,0 0.70334,-3.36291 0.70334,-7.4338l0.00001,0z"/>
            <path fill="#0061ff" id="svg_38" d="m3470.75641,-1742.33524c2.95405,-1.41596 1.82869,-4.24789 -1.40669,-3.18592c-4.36075,1.23897 -7.03346,-1.41596 -6.47078,-6.37183c0.28134,-3.18592 1.40669,-4.42489 4.36074,-4.77888c2.11004,-0.35399 3.79806,-1.41596 3.79806,-2.30094c0,-0.88497 0.70335,-1.59295 1.54736,-1.59295c0.70335,0 0.98469,0.88497 0.56268,1.76995c-0.42201,1.06197 0.42201,1.76995 1.96937,1.76995c2.95405,0 4.0794,-4.24788 1.54736,-6.19483c-2.25071,-1.76996 -13.22289,3.00892 -15.61427,6.72582c-1.26602,1.94695 -1.96937,4.95587 -1.54736,6.90282c0.42201,2.65493 0,3.00892 -2.67271,2.47794c-1.8287,-0.53099 -4.50141,-0.88498 -6.04877,-0.88498c-1.8287,-0.177 -2.39137,-1.06197 -1.8287,-3.7169c0.42201,-1.94695 0,-3.53991 -0.84401,-3.53991c-1.26602,0 -1.26602,-0.35399 0,-1.41597c0.98468,-0.70798 1.26602,-2.30094 0.56267,-3.7169c-1.40669,-2.83192 -4.36074,-1.06197 -4.36074,2.65493c0,1.41597 -1.26602,2.47794 -2.95405,2.47794c-1.54736,0 -2.39137,-0.70798 -1.96936,-1.76996c0.422,-0.88497 0.14067,-1.76995 -0.84402,-1.76995c-1.12535,0 -0.84401,-1.06197 0.56268,-3.18592c1.40669,-1.76995 2.39137,-4.24789 2.39137,-5.48686c0,-1.06197 1.54736,-3.00892 3.51673,-4.07089c1.96937,-1.06197 3.51673,-2.47793 3.51673,-3.00892c-0.14067,-3.00892 -2.53205,-5.48686 -4.50141,-4.60188c-2.39138,1.23897 -4.22008,-2.83193 -2.67272,-5.84085c1.68803,-3.5399 11.11286,1.23897 12.09754,6.19484c0.56268,3.36291 1.54736,4.24789 4.64208,3.7169c4.64208,-0.70798 5.20476,-5.84084 0.70335,-5.84084c-3.79807,0 -5.76743,-2.47794 -3.37606,-4.24789c2.81338,-2.12395 11.25353,1.59296 12.23821,5.48686c0.42201,2.12394 1.68803,3.00892 2.95405,2.47793c1.12535,-0.53099 2.67271,-1.06197 3.37606,-1.06197c0.84401,0 1.12535,-0.70798 0.56267,-1.76996c-0.42201,-0.88497 -1.8287,-1.06197 -3.09472,-0.53098c-1.40669,0.70798 -1.96936,0.35399 -1.40669,-0.70798c0.56268,-1.06198 0.28134,-2.30094 -0.56267,-2.65494c-0.98469,-0.35399 -0.70335,-1.59295 0.70334,-3.00892c1.54736,-1.59295 2.25071,-1.76995 2.25071,-0.35399c0,1.06197 1.26602,1.94695 2.67271,1.94695c2.67271,0 4.36074,3.18592 4.36074,8.14179c0,1.41596 -0.98468,2.47793 -2.11004,2.47793c-1.26602,0 -2.67271,1.76996 -3.37605,4.0709c-0.98469,3.18591 -0.56268,4.07089 2.11003,5.30986c1.8287,0.88498 3.51673,2.30094 3.6574,3.18592c0.70334,5.48685 0,6.01784 -7.31479,6.90282c-6.61145,0.70798 -7.7368,1.41596 -7.7368,4.42488c0,4.07089 3.65739,4.77887 4.64208,1.06197c0.422,-1.41596 0,-1.94695 -0.98469,-1.23897c-0.84401,0.70799 -1.54736,0.35399 -1.54736,-0.53098c0,-2.47794 3.79807,-2.47794 4.92342,-0.177c0.56268,1.06197 2.11004,1.41597 3.6574,0.88498c3.23539,-1.41596 5.34542,3.53991 2.81338,6.72582c-1.12535,1.41597 -1.54736,1.23897 -1.54736,-1.06197c0,-1.59296 -0.56268,-3.00892 -1.40669,-3.00892c-0.70335,0 -1.40669,1.59296 -1.40669,3.53991c0,2.30094 -0.84402,3.53991 -2.39138,3.36291c-1.54736,0 -1.8287,-0.53099 -0.70334,-1.06197l0,0z"/>
            <path fill="#0061ff" id="svg_39" d="m3426.02365,-1797.5578c-4.50141,-0.88497 -4.92342,-1.59296 -4.92342,-7.07981c0,-3.36292 -0.84402,-6.37184 -1.68803,-6.72583c-1.12535,-0.53098 -1.8287,0.70798 -1.8287,2.83193c0,4.42488 -4.92342,5.13286 -6.18944,1.06197c-1.12535,-3.7169 3.51673,-13.27465 7.17412,-14.33663c2.67272,-0.88497 2.95405,-1.59295 1.68803,-4.60188c-0.84401,-1.94694 -2.39137,-3.00892 -3.37605,-2.47793c-1.96937,0.88498 -4.07941,-3.53991 -2.81338,-6.01784c0.422,-0.70799 3.23538,-0.53099 6.3301,0.35399c3.23539,1.06197 5.34543,2.30094 5.06409,2.83192c-0.42201,0.35399 -0.14067,2.30094 0.70334,4.24789c1.8287,4.24789 7.31479,3.53991 8.01814,-1.06197c0.42201,-2.65493 0,-3.18592 -2.39137,-2.30094c-3.37606,1.06197 -5.06409,-1.23897 -3.37606,-4.77887c1.68803,-3.53991 13.78557,3.18591 12.51955,7.07981c-0.70335,2.12395 -0.28134,2.65493 1.40669,1.76996c1.12535,-0.53099 2.81338,-1.06198 3.51672,-1.06198c0.70335,0 1.26603,-0.88497 1.26603,-1.94695c0,-1.06197 -0.84402,-1.59295 -1.96937,-1.06197c-2.11004,1.06197 -4.22007,-3.18591 -2.95405,-5.84084c0.98468,-2.12395 5.76743,-0.177 8.44014,3.5399c2.67271,3.53991 1.54736,8.14179 -2.2507,9.38076c-4.07941,1.41596 -3.37606,7.7878 0.98468,9.02676c2.67271,0.88498 3.51673,2.12395 3.09472,5.13287c-0.42201,3.36291 -1.40669,3.8939 -7.45546,4.42488c-8.15881,0.70798 -10.40951,2.47794 -7.7368,6.54883c1.26602,1.94695 1.26602,2.65493 0.14067,2.65493c-2.53204,0 -3.51673,-5.13286 -1.54736,-7.96479c0.98468,-1.41596 2.81338,-2.65493 4.22007,-2.65493c1.40669,0 2.81338,-1.23897 3.37606,-2.65493c0.42201,-1.41596 1.40669,-2.65493 2.11004,-2.65493c0.84401,0 1.12535,1.23897 0.56267,2.83192c-0.56267,2.12395 -0.14067,2.65493 1.8287,2.12395c1.40669,-0.35399 2.67271,-1.76996 2.67271,-3.18592c0,-2.65493 -0.42201,-2.65493 -11.53486,-1.23897c-1.8287,0.177 -3.23539,0.88498 -3.23539,1.41597c0,0.53098 -1.26602,2.65493 -2.81338,4.77887c-1.68803,2.12395 -2.25071,4.07089 -1.40669,4.77888c1.68803,1.23896 1.96937,4.60188 0.42201,4.24788c-0.70335,-0.17699 -3.37606,-0.70798 -6.04877,-1.41596z"/>
            <path fill="#0061ff" id="svg_40" d="m3274.10106,-1845.52355c-1.54736,-3.7169 -2.81338,-9.20376 -2.81338,-12.21268c0,-5.84084 -1.96937,-7.25681 -9.9875,-7.25681l-5.62677,0l2.39138,-5.66385c4.0794,-9.73475 18.84965,-26.7263 28.69649,-32.92114c5.06408,-3.18592 17.30229,-9.38075 27.43046,-13.80564c21.80371,-9.73475 36.57396,-18.58451 51.48488,-30.97419c18.99032,-15.57559 28.41515,-16.81456 43.1854,-5.48686c28.41515,21.94743 34.18258,25.48734 64.28576,38.93899c20.53768,9.20376 29.25917,14.86761 37.69931,24.77935c6.18944,7.4338 15.05159,21.59343 15.05159,24.07137c0,0.53099 -2.53204,1.06197 -5.48609,1.06197c-8.01814,0 -9.98751,1.41596 -9.98751,7.25681c0,6.01785 -3.23538,16.46057 -5.48609,18.23053c-0.84401,0.70798 -4.78275,-3.00892 -9.00282,-8.84977c-11.39419,-15.75259 -20.67835,-22.30142 -46.42079,-32.74415c-26.02378,-10.44272 -31.08786,-13.27465 -41.77871,-23.71738c-15.05159,-14.69061 -17.86497,-14.69061 -33.76058,0.177c-12.51954,11.85869 -16.31761,13.98263 -39.38733,22.8324c-24.47642,9.20376 -35.16727,16.46057 -46.8428,31.15119c-5.20475,6.72582 -9.70616,12.21268 -10.12817,12.21268c-0.28134,0 -1.96937,-3.18592 -3.51673,-7.07982l0,0zm19.41233,-18.23052c9.84683,-9.02676 16.45828,-12.74367 38.54332,-21.77043c23.49173,-9.55775 27.71181,-12.03569 42.06005,-24.77935c5.76743,-5.13287 12.23821,-9.91175 14.20758,-10.44273c4.78274,-1.59296 11.95687,2.47793 22.22571,12.38967c10.55018,10.08874 18.70898,14.86762 39.80934,22.83241c23.35107,8.84977 30.94719,13.98263 43.1854,28.85025c5.76744,7.07981 10.55018,12.92066 10.69085,12.92066c0.98469,0 3.37606,-12.21268 3.37606,-16.81456c0,-6.37184 1.8287,-7.96479 8.58081,-7.96479c2.25071,0 4.07941,-0.88498 4.07941,-1.76996c0,-3.53991 -11.95687,-18.23052 -20.11568,-24.95635c-7.87747,-6.37183 -18.28698,-12.03568 -51.48488,-27.25728c-8.01813,-3.71691 -19.975,-11.15071 -26.72712,-16.46057c-27.57113,-22.12443 -33.33857,-22.65541 -54.15759,-5.66386c-15.33292,12.56667 -26.58645,19.2925 -51.48487,30.97419c-11.95687,5.66386 -25.4611,12.56668 -30.10318,15.5756c-7.87747,5.30986 -24.75776,24.07137 -24.75776,27.78827c0,0.88498 1.8287,1.76996 4.07941,1.76996c6.89278,0 8.58081,1.59295 8.58081,8.31878c0,3.36291 0.98468,8.49578 2.2507,11.3277l2.11004,5.48686l4.22007,-7.25681c2.39138,-3.8939 7.17412,-9.73475 10.83152,-13.09766l0,0z"/>
        </g>
        <g id="svg_7" stroke="null">
            <title>Vandanel</title>
            <g transform="translate(0,500) scale(0.10000000149011612,-0.10000000149011612) " fill="#0061ff" id="svg_26">
                <path d="m1690.02542,1196.25683c-5.76827,-0.41648 -6.50075,-0.91625 -7.78259,-4.24809c-1.64808,-4.49798 -0.82404,-5.74742 3.75396,-6.0806l3.93708,-0.24989l1.00716,-4.58127c0.64092,-2.49888 1.8312,-8.49618 2.7468,-13.32734c2.56368,-13.74382 2.92992,-14.90997 6.22607,-16.74248c2.65524,-1.41603 4.39488,-1.58262 17.5795,-1.41603l14.64959,0.24989l7.32479,8.41289c21.15034,24.23911 30.03165,34.98428 30.12321,36.15042c0.09156,1.08285 -2.7468,1.24944 -21.51658,1.49933c-24.26338,0.24989 -23.34778,0.41648 -24.26338,-5.99731l-0.64092,-3.83161l8.88131,0c6.04295,0 8.78975,-0.33318 8.78975,-0.99955c0,-0.74966 -6.95855,-8.91266 -15.74831,-18.57499c-0.82404,-0.91625 -2.38056,-2.58217 -3.38772,-3.74832c-3.11304,-3.58172 -2.92992,-3.9982 -9.79691,25.82173c-0.82404,3.41513 -1.73964,6.49708 -2.01432,6.74697c-0.73248,0.66637 -15.47363,1.33273 -19.8685,0.91625l0.00001,0z" id="svg_27" stroke="null"/>
                <path d="m1767.21043,1187.26088c-9.24755,-10.66188 -9.43067,-11.07836 -7.69103,-11.66143c1.09872,-0.41648 37.17333,15.74293 40.6526,18.2418c2.56368,1.83251 0.4578,2.24899 -12.17747,2.24899l-13.18463,0l-7.59947,-8.82937l0,0.00001z" id="svg_28" stroke="null"/>
                <path d="m1859.68595,1191.25908c-3.47928,-0.24989 -6.22607,-2.49888 -6.22607,-5.08105c0,-0.66637 -0.82404,-4.1648 -1.92276,-7.74652l-1.92276,-6.49708l-7.05011,-0.0833c-3.84552,0 -8.42351,-0.41648 -10.16315,-0.99955c-8.42351,-2.66547 -12.08591,-17.49214 -5.0358,-20.4075c1.3734,-0.58307 6.95855,-0.99955 13.27619,-0.99955c9.33911,0 11.26187,0.24989 12.63527,1.49933c1.00716,0.91625 3.38772,8.0797 6.50075,19.74113c2.7468,10.0788 5.12736,18.74158 5.31048,19.24135c0.4578,1.24944 -1.19028,1.66592 -5.40204,1.33273l0,0.00001z" id="svg_29" stroke="null"/>
                <path d="m1979.99568,1190.34282c-1.55652,-0.83296 -10.43783,-34.5678 -10.07159,-37.98293l0.27468,-2.49888l6.31763,0l6.31763,0l1.19028,3.74832c1.19028,3.49843 1.09872,3.83161 -0.73248,5.08105l-2.01432,1.41603l1.73964,6.49708c0.82404,3.66502 2.56368,9.99551 3.75396,14.07701c3.02148,10.32869 3.02148,10.41199 -1.64808,10.41199c-2.19744,0 -4.48644,-0.33318 -5.12736,-0.74966l0.00001,-0.00001z" id="svg_30" stroke="null"/>
                <path d="m1761.16748,1171.10147c-8.69819,-1.83251 -14.46647,-14.57678 -8.88131,-19.57454c1.92276,-1.83251 3.02148,-2.0824 8.97287,-2.0824c4.1202,0 7.14167,0.41648 7.87415,1.08285c1.00716,0.83296 1.28184,0.83296 1.64808,0c0.27468,-0.66637 1.92276,-1.08285 3.93708,-1.08285c2.56368,0 3.93708,0.49978 5.21892,1.91581c1.92276,2.24899 6.22607,17.49214 5.40204,19.32465c-0.36624,0.99955 -2.47212,1.24944 -10.80407,1.16614c-5.67671,-0.0833 -11.71967,-0.41648 -13.36775,-0.74966l-0.00001,0z" id="svg_32" stroke="null"/>
                <path d="m1793.03033,1170.85158c-1.8312,-0.83296 -2.65524,-2.33229 -4.30332,-8.0797c-2.7468,-9.82892 -2.65524,-12.32779 0.09156,-12.99416c5.21892,-1.16614 6.31763,-0.33318 8.14883,6.33049c0.9156,3.41513 2.10588,6.66367 2.65524,7.24674c1.09872,1.24944 9.52223,1.49933 10.25471,0.33318c0.36624,-0.41648 -0.09156,-3.16524 -0.82404,-6.0806c-2.01432,-7.66322 -1.92276,-8.163 1.64808,-8.163c5.31048,0 6.59231,1.58262 9.24755,11.66143c1.3734,4.99775 2.19744,9.49573 1.92276,9.99551c-0.82404,1.24944 -26.00302,1.08285 -28.84137,-0.24989z" id="svg_41" stroke="null"/>
                <path d="m1871.6803,1171.10147c-6.59231,-1.83251 -10.89563,-7.24674 -10.89563,-13.91042c0,-6.0806 2.289,-7.74652 10.43783,-7.74652c3.38772,0 6.95855,0.41648 7.87415,0.83296c1.19028,0.58307 1.92276,0.58307 2.289,0c0.9156,-1.41603 6.77543,-0.91625 8.51507,0.66637c1.8312,1.66592 6.95855,18.90817 6.13451,20.2409c-0.64092,0.91625 -20.96722,0.91625 -24.35494,-0.0833l0.00001,0.00001z" id="svg_42" stroke="null"/>
                <path d="m1902.90223,1170.85158c-1.8312,-0.83296 -2.65524,-2.33229 -4.30332,-8.0797c-2.7468,-9.74562 -2.7468,-12.32779 0.09156,-12.99416c5.0358,-1.16614 6.31763,-0.24989 7.87415,5.49753c2.38056,8.49618 2.92992,9.16255 8.24039,9.16255c2.47212,0 4.66956,-0.24989 4.85268,-0.58307c0.27468,-0.41648 -0.09156,-3.24854 -0.82404,-6.49708c-1.64808,-8.0797 -1.73964,-7.91311 1.8312,-7.91311c5.0358,0 6.59231,1.9991 9.24755,11.57813c1.28184,4.74787 2.19744,9.16255 1.92276,9.74562c-0.64092,1.58262 -25.54522,1.66592 -28.93293,0.0833l0,-0.00001z" id="svg_43" stroke="null"/>
                <path d="m1941.90675,1171.10147c-4.1202,-1.16614 -5.76827,-3.08195 -7.41635,-8.74607c-1.73964,-5.83071 -1.3734,-8.74607 1.3734,-11.24495c1.64808,-1.49933 3.11304,-1.66592 14.10023,-1.66592c13.27619,0 15.65675,0.66637 15.01583,4.49798c-0.27468,1.66592 -0.9156,1.74921 -10.34627,1.9991c-13.09307,0.33318 -15.19895,1.83251 -2.47212,1.83251c13.00151,0 14.00867,0.58307 16.57235,9.57903c0.73248,2.41558 0.64092,3.41513 -0.18312,3.91491c-1.46496,0.83296 -23.25622,0.74966 -26.64394,-0.16659l-0.00001,0z" id="svg_44" stroke="null"/>
                <path d="m1694.96966,1134.86775c-1.73964,-0.83296 -3.11304,-3.16524 -5.76827,-9.57903c-4.94424,-12.07791 -5.0358,-11.99461 6.95855,-12.49439c12.54371,-0.49978 12.08591,-0.0833 14.92427,-13.74382c0.73248,-3.66502 3.57084,-18.65828 6.40919,-33.31836c2.7468,-14.66008 5.76827,-28.07072 6.59231,-29.73664c1.64808,-3.49843 6.77543,-8.57948 10.34627,-10.2454c5.12736,-2.41558 12.45215,-2.91536 41.01884,-2.91536c25.91146,0 29.39073,0.16659 32.04597,1.49933c1.73964,0.83296 7.50791,6.74697 14.37491,14.74338c6.31763,7.33004 13.27619,15.40974 15.38207,17.90862c2.19744,2.49888 14.64959,17.07566 27.74265,32.40211c13.00151,15.24315 26.46082,30.98608 29.84853,34.98428c6.50075,7.57993 7.32479,9.49573 4.48644,10.91176c-2.38056,1.08285 -98.79315,1.16614 -102.08931,0c-3.2046,-1.08285 -4.66956,-3.41513 -7.59947,-11.91131c-1.8312,-5.49753 -2.19744,-7.74652 -1.46496,-8.74607c0.82404,-1.24944 3.47928,-1.41603 22.34062,-1.66592c11.71967,-0.0833 21.79126,-0.58307 22.24906,-0.99955c1.09872,-0.99955 -0.09156,-2.58217 -17.5795,-22.4066c-30.94725,-34.98428 -36.89865,-41.14818 -38.18049,-39.98203c-0.64092,0.66637 -2.92992,8.49618 -5.0358,17.40884c-2.10588,8.91266 -4.39488,18.49169 -5.12736,21.24046c-0.64092,2.74876 -3.29616,13.99371 -5.85983,24.98877c-3.6624,16.2427 -4.94424,20.2409 -6.50075,21.49034c-1.73964,1.24944 -4.578,1.41603 -29.57385,1.41603c-21.79126,-0.0833 -28.01733,-0.33318 -29.94009,-1.24944z" id="svg_45" stroke="null"/>
                <path d="m1913.34006,1135.36753c-2.19744,-0.83296 -4.66956,-3.41513 -14.55803,-14.99326c-4.02864,-4.74787 -12.54371,-14.66008 -18.9529,-22.07341c-11.07875,-12.74427 -13.00151,-15.49304 -10.71251,-15.49304c0.9156,0 29.66541,13.24405 56.21779,25.82173c5.58515,2.66547 19.59382,9.16255 31.13037,14.57678c22.43218,10.41199 23.62246,11.07836 22.88998,12.07791c-0.64092,0.91625 -63.54258,0.91625 -66.0147,0.0833l0,-0.00001z" id="svg_46" stroke="null"/>
            </g>
        </g>
        <g id="svg_47">
            <title>V Collar</title>
            <line transform="rotate(-2.1129188537597656 228.55555725097602,346.3420104980466) " id="svg_35" y2="379.34202" x2="256.05555" y1="313.34202" x1="201.05555" stroke-width="19" fill="none" stroke="#0061ff"/>
            <line stroke="#0061ff" transform="rotate(6.419910430908203 277.38888549804767,346.61981201171864) " id="svg_36" y2="378.79818" x2="249.69835" y1="314.44141" x1="305.07942" stroke-width="19" fill="none"/>
        </g>
        <g stroke-width="1.5" fill="#ffd3b3" id="svg_55">
            <title id="svg_50">Simple Hair</title>
            <path stroke="null" id="svg_54" fill="#ffd3b3" d="m166,101.30723l0,35.69278l27.23077,-33.31326s33.06593,5.71085 61.26923,5.71085s61.26922,-5.71085 61.26922,-5.71085l27.23077,33.31326l0,-35.69278c0,-23.91796 -39.62271,-43.30723 -88.49999,-43.30723c-48.87729,0 -88.5,19.38927 -88.5,43.30723z"/>
        </g>
        <g stroke="null" fill-opacity="0.4" id="svg_4">
            <title>Simple Hair</title>
            <path stroke="null" id="svg_5" fill="#b7a53e" d="m167,99.30723l0,35.69278l27.23077,-33.31326s33.06593,5.71084 61.26923,5.71084s61.26923,-5.71084 61.26923,-5.71084l27.23077,33.31326l0,-35.69278c0,-23.91797 -39.62272,-43.30723 -88.5,-43.30723c-48.87728,0 -88.5,19.38927 -88.5,43.30723z"/>
        </g>
        <ellipse fill="#ffd3b3" stroke-width="1.5" cx="256.5" cy="118.45313" id="svg_48" rx="70" ry="38"/>
        <path stroke="null" transform="rotate(2.7969911098480225 250.50714111328224,96.73480987548847) " fill-opacity="0.4" d="m228.50357,86.30691c0.88014,1 0.75053,1.1731 1.76029,2c1.59658,1.30745 2.64043,2 2.64043,2c0.88014,0 0.88014,1 0.88014,1c0,0 0,1 0,1c0.88014,1 0.25779,1.29289 0.88014,2c0.62236,0.70711 1.13793,0.29289 1.76029,1c0.62236,0.70711 0.13145,1.47427 0.88014,2c1.67413,1.17557 0.88014,2 1.76029,3c0,0 0,0 0.88014,1c0,0 0.25779,-0.70711 0.88014,0c0.62236,0.70711 0.25779,1.29289 0.88014,2c0.62236,0.70711 0.88014,1 0.88014,1c0.88014,0 0.88014,1 0.88014,1c0,1 0.54332,1.07612 0.88014,2c0.47633,1.30656 1.28395,0.69344 1.76029,2c0.33682,0.92388 -0.62236,1.29289 0,2c0.62236,0.70711 0.88014,0 0.88014,0c0,0 0.88014,0 1.76029,0c0,0 0.25779,0.29289 0.88014,1c0.62236,0.70711 0.88014,0 1.76029,0c0.88014,0 0.88014,0 1.76029,0c0,0 0,0 0.88014,0c0,0 -0.26982,0.4588 0.88014,1c0.81314,0.38268 0.88014,0 1.76029,0c0.88014,0 1.76029,0 1.76029,0c0.88014,0 0.88014,0 0.88014,0c0.88014,0 0.88014,0 0.88014,0c0.88014,0 0.88014,0 0.88014,0c0.88014,-1 0.88014,-1 0.88014,-1c0.88014,-1 0.88014,-1 0.88014,-1c0,0 -0.62234,-0.29289 0,-1c0.62234,-0.70711 0.88014,0 1.76029,-1c0,0 0,0 0,-1c0,0 -0.62234,-0.29289 0,-1c0.62234,-0.70711 0.88014,0 0.88014,0c0,-1 0.40381,-1.69344 0.88014,-3c0.33682,-0.92388 0.88014,-2 0.88014,-2c0,0 0,-1 0,-1c0.88014,-1 0.88014,-2 0.88014,-2c0,-1 0.88014,-1 0.88014,-2c0,0 0,-1 0,-1c0.88014,0 0.88014,-1 0.88014,-1c0,0 0,-1 0,-1c0,-1 0,-2 0,-3c0,-1 0,-1 0.88014,-2c0,0 0,-1 0,-1c0,-1 0,-2 0,-2c0,0 0,-1 0,-1c0,0 0.88014,0 0.88014,0c0,-1 0,-1 0,-1c0,0 0.88014,-1 0.88014,-1c0,0 0,-1 0,-1c-0.88014,0 -0.88014,0 -0.88014,0c-0.88014,0 -0.88014,-1 -2.64043,-1c-0.88014,0 -0.88014,0 -1.76029,-1c0,0 0,0 -0.88014,0c0,0 -1.76029,0 -2.64043,0c-0.88014,0 -1.76029,0 -1.76029,0c-0.88014,0 -0.88014,0 -0.88014,0c-0.88014,0 -0.88014,0 -1.76029,0c0,0 -0.88014,0 -0.88014,0c-0.88014,0 -0.88014,0 -1.76029,0c-0.88014,0 -0.88014,0 -0.88014,0c-0.88014,0 -0.88014,0 -0.88014,0c-0.88014,0 -0.88014,0 -1.76029,0c0,0 0,0 -0.88014,0c0,0 -0.25779,-0.70711 -0.88014,0c-0.62236,0.70711 0,1 -0.88014,1c0,0 -0.88014,0 -0.88014,0c-0.88014,0 -0.88014,0 -0.88014,0c-0.88014,0 -0.88014,0 -1.76029,0c0,0 -0.88014,0 -0.88014,0c0,0 -0.88014,0 -0.88014,0c0,0 -0.88014,0 -0.88014,0c0,0 -0.88014,0 -0.88014,0c0,0 0,1 -0.88014,1c0,0 -0.88014,0 -0.88014,0c0,0 -0.88014,0 -0.88014,0c-0.88014,0 -0.88014,0 -0.88014,0c-0.88014,0 -0.88014,0 -0.88014,0c-0.88014,0 -0.88014,0 -0.88014,0c-0.88014,0 -0.88014,0 -1.76029,0c0,0 0,0 -0.88014,0c-0.88014,0 -0.88014,1 -0.88014,1c-0.88014,0 -0.88014,0 -0.88014,0c-0.88014,0 -0.88014,0 -0.88014,0c0,1 -0.88014,1 -0.88014,1c-0.88014,0 -0.88014,1 -1.76029,1l0,0l-0.88014,1l0,0" id="svg_56" stroke-width="1.5" fill="#b7a53e"/>
    </g>
</svg>