<svg width="512" height="512" xmlns="http://www.w3.org/2000/svg">
    <g stroke="null">
        <title>background</title>
        <rect x="-1" y="-1" width="514" height="514" id="canvas_background" fill="none" stroke="null"/>
    </g>

    <g stroke="null">
        <g id="shirt" stroke="null">
            <title>Shirt</title>
            <g id="svg_1" stroke="null">
                <g id="svg_2" stroke="null">
                    <title>Chest</title>
                    <path d="m254.5811,306.84727l44,0l98.846,21.665c27.533,6.035 47.154,30.421 47.154,58.609l0,85.726l-66,0l0,33l-124,0l-124,0l0,-33l-66,0l0,-85.726c0,-28.187 19.621,-52.574 47.154,-58.609l98.846,-21.665l44,0z" fill="#ffffff" id="svg_3" stroke="null"/>
                </g>
                <g id="svg_4" stroke="null">
                    <title>Left Sleeve</title>
                    <path fill="#0000ff" d="m130.70544,473.19159l-66,0l0,-20l66,0l0,20z" id="svg_5" stroke="null"/>
                </g>
                <g id="svg_46" stroke="null">
                    <title>Collar</title>
                    <path d="m298.2023,306.84792l-88,0l-23.78,3.52577c2.673,23.72179 0.04,42.47424 67.78,42.47424s65.107,-18.75244 67.78,-42.47424l-23.78,-3.52577z" fill="#0000ff" id="svg_47" stroke="null"/>
                </g>
                <g id="svg_8" stroke="null">
                    <title>Right Sleeve</title>
                    <path d="m378.70469,452.50267l66,0l0,20l-66,0l0,-20z" fill="#0000ff" id="svg_29" stroke="null"/>
                </g>
                <text font-weight="bold" xml:space="preserve" text-anchor="start" font-family="Arial, sans-serif" font-size="39" id="svg_6" y="472.06842" x="177.22575" stroke-width="0" fill="#000000" stroke="#000">ESSAR</text>
                <path id="svg_7" d="m306.9671,434.65911l6.94029,0l0,-6.6098l7.11942,0l0,6.6098l6.94029,0l0,6.7804l-6.94029,0l0,6.6098l-7.11942,0l0,-6.6098l-6.94029,0l0,-6.7804z" stroke-width="1.5" fill="#ff0000" stroke="#ff0000"/>
            </g>
        </g>
        <g id="skin-light" stroke="null">
            <title>Skin</title>
            <g id="svg_10" stroke="null">
                <title>Bottom Neck</title>
                <path d="m210.25968,269.84762l0,36c0,24.301 19.699,44 44,44s44,-19.699 44,-44l0,-36l-88,0z" fill="#7f3f00" id="svg_12" stroke="null"/>
            </g>
            <g id="svg_13" stroke="null">
                <title>Top Neck</title>
                <path d="m210.25968,288.03562c13.499,5.851 28.376,9.812 44,9.812s30.501,-3.961 44,-9.812l0,-18.188l-88,0l0,18.188z" fill="#5b2d01" id="svg_14" stroke="null"/>
            </g>
            <g id="svg_15">
                <title>Face</title>
                <path d="m345.25968,79.84762l0,104.74074c0,53.7149 -40.742,97.25926 -91,97.25926c-50.258,0 -91,-43.54436 -91,-97.25926l0,-104.74074l182,0z" fill="#7f3f00" id="svg_16"/>
            </g>
            <g id="svg_17" stroke="null">
                <title>Left Ear</title>
                <path d="m149.25968,178.84762l14,0l0,-50l-14,0c-5.523,0 -10,4.477 -10,10l0,30c0,5.523 4.477,10 10,10z" fill="#7f3f00" id="svg_18" stroke="null"/>
            </g>
            <g id="svg_19" stroke="null">
                <title>Right Ear</title>
                <path d="m359.25968,178.84762l-14,0l0,-50l14,0c5.523,0 10,4.477 10,10l0,30c0,5.523 -4.477,10 -10,10z" fill="#7f3f00" id="svg_20" stroke="null"/>
            </g>
            <g id="svg_21" stroke="null">
                <title>Left Arm</title>
                <path d="m130.25968,504.84762l-66,0l0,-33l66,0l0,33z" fill="#7f3f00" id="svg_22" stroke="null"/>
            </g>
            <g id="svg_23" stroke="null">
                <title>Right Arm</title>
                <path d="m378.25968,471.84762l66,0l0,33l-66,0l0,-33z" fill="#7f3f00" id="svg_24" stroke="null"/>
            </g>
        </g>
        <g id="svg_9" stroke="null">
            <path id="animal" fill="#0000ff" d="m164.84197,395.87766c-0.28028,0.03515 -0.54956,0.91572 -1.09138,1.37486c-0.39593,0.33045 -0.89054,0.31064 -1.15308,0.71971c-0.09967,0.15212 -0.0677,0.41354 -0.18036,0.66325c-0.22182,0.50154 -0.9997,0.54607 -0.9997,1.09192c-0.0025,0.58953 0.64823,0.70181 1.21328,1.1209c0.4409,0.3362 0.48336,0.56822 1.01669,0.73207c0.45613,0.13146 1.13409,-0.29998 1.74435,-0.14467c0.50035,0.12677 0.97996,0.21838 1.09362,0.65728c0.09967,0.40524 -0.00724,1.03184 -0.61501,0.9594c-0.20459,-0.02003 -1.09337,-0.27442 -2.18325,-0.17535c-1.31719,0.12783 -2.81899,0.49387 -2.96587,1.74622c-0.08118,0.69883 0.934,1.524 1.91397,1.35632c0.67696,-0.11292 0.35696,-0.79492 0.72467,-1.12558c0.48411,-0.42462 3.22517,1.48011 5.77187,1.48011c1.07264,0 1.8705,-0.23138 2.66262,-0.93894c0.07394,-0.05433 0.16437,-0.16981 0.27853,-0.17748c0.10841,0.00767 0.29676,0.09822 0.35921,0.13678c2.05061,1.40639 3.60236,4.22834 11.14307,4.26072c1.0609,0.00511 2.26818,0.43741 3.25539,1.20463c0.87955,0.6935 1.39338,1.77392 1.89398,2.86861c0.75514,1.6431 2.10681,3.24146 4.15767,5.02027c0.11166,0.09524 1.80031,1.21464 1.9357,1.29816c0.02048,0.01278 0.14488,0.26483 0.10167,0.40545c-0.04971,1.06742 -0.23206,4.16826 2.47901,4.30909c0.66247,0.02855 0.48961,-0.36859 0.48961,-0.64216c-0.00175,-0.5401 -0.11741,-1.07722 0.21633,-1.63053c0.45613,-0.7604 -0.96822,-1.11024 -0.92676,-2.75505c0.02948,-1.22636 -1.17856,-1.01714 -1.79056,-1.95161c-0.35322,-0.54117 -0.66722,-0.82773 -0.64448,-1.48991c0.13814,-3.7251 -0.92975,-6.17334 -1.46158,-6.77459c-0.41542,-0.4536 -0.75914,-0.63363 -0.3797,-0.84328c2.26294,-1.27558 2.77553,-2.4606 2.77553,-2.4606c1.20329,-2.41202 2.28492,-4.61504 3.77697,-5.58509c0.30026,-0.2007 1.07114,-0.69137 1.54376,-0.88355c1.39238,-0.5597 2.1248,-0.89953 2.52972,-1.23488c0.63924,-0.53115 1.14558,-1.64054 0.53182,-2.31253c-0.76314,-0.82986 -2.08158,-0.17151 -2.66287,0.12293c-4.15942,2.10522 -4.77218,5.81903 -6.21327,7.95173c-1.14958,1.70403 -3.01808,2.95575 -4.68924,3.05801c-1.2515,0.07926 -2.60291,-0.137 -3.94684,-0.64045c-3.26988,-1.22252 -5.0582,-2.80107 -5.48186,-3.08017c-0.87805,-0.57824 -7.69708,-6.2886 -13.22315,-6.52169c0,0 -0.68595,-1.17182 -0.85856,-1.19014c-0.40368,-0.04474 -0.81759,0.69883 -1.11411,0.78576c-0.27728,0.07819 -0.7459,-0.80514 -1.02743,-0.76594" stroke="null"/>
        </g>
        <g id="svg_31" fill="#000000" transform="translate(0,217) scale(0.10000000149011612,-0.10000000149011612) ">
            <title>Tranmere Logo</title>
            <path fill="#0000ff" id="svg_33" d="m3204.22923,-1826.05119l0.42201,-113.63103l43.1854,-26.01832c23.6324,-14.15963 47.54614,-28.49626 53.03224,-31.68217l9.9875,-5.84085l52.7509,32.56715l52.7509,32.56715l0,112.74605l0,112.92306l-106.20515,0l-106.20514,0l0.28134,-113.63104l0,0zm209.31557,55.22256l0,-54.86857l-30.9472,0l-30.94719,0l-2.67271,6.72583c-3.23539,8.14178 -13.22289,20.00048 -19.41233,23.18639l-4.64208,2.30094l0,38.76199l0,38.76199l44.31075,0l44.31076,0l0,-54.86857l0,0zm-118.44335,14.69062l0.28133,-35.75307l-4.22007,-2.83193c-7.03345,-4.60188 -14.77025,-14.33662 -17.58363,-22.12442l-2.53205,-7.07981l-30.10317,0l-29.96251,0l0,52.21363l0,52.21364l41.91938,-0.35399l41.77871,-0.53099l0.422,-35.75306l0,0l0.00001,0zm22.22571,30.79719c3.37605,-3.7169 3.65739,-4.95587 2.81338,-10.79672c-0.98469,-6.90282 -4.22007,-8.14178 -4.50141,-1.76995c-0.14067,1.76995 -0.28134,4.42488 -0.42201,5.66385c-0.14067,3.18592 -7.17412,1.94695 -9.00282,-1.59296c-2.39137,-4.77887 0,-11.68169 4.64208,-13.62864l4.22007,-1.94695l0,-20.35447l0,-20.53146l-4.22007,0l-4.22007,0l0,17.52254c0,17.16855 -0.14067,17.69954 -4.22007,22.8324c-11.25353,14.33663 2.81338,37.52302 14.91092,24.60236l0,0zm11.11285,-73.45308c6.61145,-4.24789 14.91092,-14.69062 18.28698,-23.18639c3.23539,-8.14179 4.36074,-24.77936 2.11004,-34.33711c-2.67271,-12.03568 -10.83152,-24.24836 -20.25635,-30.26621c-15.75493,-10.26573 -33.6199,-6.01784 -45.85811,10.61973c-7.7368,10.61972 -10.26884,18.58451 -10.40951,32.74414c0,20.35447 10.26884,39.82396 25.03909,46.54978c8.01814,3.8939 23.77307,2.65494 31.08786,-2.12394zm-55.98628,-66.72726c2.39137,-8.67277 10.55018,-19.46949 17.58363,-23.36339l5.34542,-3.00892l0,-49.02772l0,-49.20471l-30.52518,18.58451c-16.88029,10.26573 -36.8553,22.30142 -44.31076,26.7263l-13.78556,8.14179l0,39.64696l0,39.46997l31.7912,-0.35399l31.93188,-0.53098l1.96937,-7.07982l0,0zm139.68438,-30.08921l0,-38.05401l-43.60741,-27.43428l-43.60741,-27.43429l0,47.43476l0,47.43477l4.64208,2.12394c7.45546,3.36291 16.03627,13.80564 19.975,24.24837l3.6574,9.73474l29.39983,0l29.54051,0l0,-38.054l0,0zm-97.34299,-43.71786c-0.28134,-32.39016 -0.84402,-44.07185 -2.39138,-47.25777c-3.93873,-8.84977 -5.06408,0.35399 -5.48609,46.37279l-0.42201,43.71786l4.36074,0l4.36074,0l-0.422,-42.83288l0,0z"/>
            <path fill="#0000ff" id="svg_34" d="m3329.14336,-1755.60703l0,-34.3371l6.18944,-4.60188c6.47077,-4.77887 14.20757,-14.69062 16.59895,-21.59344l1.54736,-4.24789l28.69648,0l28.55582,0l0,49.55871l0,49.55871l-40.79402,0l-40.79403,0l0,-34.33711l0,0zm49.79685,19.1155c1.26602,-0.53098 2.2507,-2.12394 2.2507,-3.5399c0,-1.41597 1.40669,-2.47794 3.23539,-2.47794c3.51673,0 6.75211,-6.54883 8.58081,-17.16855c0.84402,-4.77888 0.56268,-5.66385 -2.11003,-6.72583c-2.81339,-1.23896 -2.81339,-1.41596 -0.84402,-3.00892c3.37606,-2.30094 3.09472,-8.49577 -0.42201,-8.49577c-1.68802,0 -2.81338,1.23896 -2.95404,3.18591c0,2.30094 -0.28134,2.12395 -1.26603,-0.88497c-1.12535,-3.36292 -2.39137,-4.0709 -7.45546,-4.0709c-3.79806,0 -6.89278,1.06197 -8.01813,2.65493c-0.98469,1.41597 -2.39138,2.65493 -3.23539,2.65493c-2.11004,0 4.78275,-6.37183 8.58081,-7.78779c1.68803,-0.70798 3.09472,-2.12395 3.09472,-3.18592c0,-1.06197 -0.98468,-1.23897 -2.39137,-0.53099c-1.40669,0.88498 -5.62676,1.59296 -9.5655,1.94695c-4.22007,0.35399 -7.59613,1.59296 -8.58081,3.18592c-1.12535,2.12395 -1.8287,2.30094 -3.23539,0.53099c-1.40669,-1.59296 -2.39137,-1.06198 -5.06409,2.83192c-1.82869,2.65493 -3.09472,6.01785 -2.67271,7.43381c0.98469,3.00892 4.22007,3.53991 5.4861,0.88498c0.422,-0.88498 1.82869,-1.76996 2.95404,-1.76996c1.4067,0 1.26603,0.88498 -0.84401,3.53991c-1.54736,1.94695 -3.65739,3.53991 -4.78275,3.53991c-1.12535,0 -2.39137,1.23896 -2.81338,2.83192c-0.98468,3.36291 1.40669,9.55775 3.93874,9.55775c1.12535,0 1.68802,1.41597 1.26602,4.0709c-0.98469,6.01784 3.79806,10.44272 10.40951,9.73474c4.0794,-0.35399 5.34542,-1.23897 5.20475,-3.53991c-0.28133,-3.5399 -0.28133,-3.5399 2.95405,-2.12394c1.68803,0.88498 1.8287,1.59296 0.70335,2.47793c-4.22007,3.36292 2.2507,6.90282 7.59613,4.24789l0,0z"/>
            <path fill="#0000ff" id="svg_35" d="m3253.18206,-1731.88965c-1.12535,-0.88497 -4.22007,-2.47793 -6.75211,-3.7169c-3.51673,-1.59296 -4.50141,-3.00892 -4.0794,-5.48686c0.56267,-2.12394 0,-3.18591 -1.54736,-3.18591c-1.40669,-0.177 -0.56268,-1.23897 1.82869,-2.47794c3.79807,-2.12394 3.93874,-2.47793 1.54736,-3.7169c-3.93873,-2.12395 -9.56549,7.07981 -8.44014,13.80564c0.56268,3.7169 0.28134,4.77887 -1.54736,4.77887c-1.26602,0 -1.8287,-0.88497 -1.26602,-1.94694c0.56267,-1.41597 -0.14067,-1.59296 -2.25071,-0.70799c-2.2507,0.88498 -2.95405,0.70799 -2.53204,-1.06197c0.42201,-1.41596 -0.28134,-3.53991 -1.54736,-4.60188c-1.96937,-1.94695 -1.8287,-2.30094 0.98468,-3.36291c2.11004,-0.70798 3.09472,-2.47794 3.09472,-5.30986c0,-2.30094 1.26602,-5.66385 2.81338,-7.25681c3.37606,-3.71691 3.51673,-6.37184 0.70335,-9.38076c-1.68803,-1.76995 -2.53204,-1.76995 -4.22007,0c-2.67272,2.83193 -5.62677,0.53099 -3.37606,-2.83192c1.12535,-1.76996 1.12535,-2.47794 0,-2.47794c-0.84401,0 -1.54736,-1.23897 -1.54736,-2.65493c0,-1.41596 0.84401,-2.65493 1.96937,-2.65493c1.12535,0 2.2507,-0.88498 2.53204,-1.94695c0.28134,-1.06197 2.81338,-0.35399 6.47078,2.12395c5.76743,3.89389 5.9081,3.89389 7.87746,0.70798c1.68803,-3.00892 1.68803,-3.71691 -0.28133,-5.48686c-1.40669,-1.23897 -1.8287,-3.36291 -1.12536,-6.54883c0.98469,-5.30986 -0.70334,-6.19484 -3.37605,-2.12394c-2.25071,3.36291 -4.22007,3.36291 -4.22007,0.17699c0,-1.41596 -0.84402,-3.00892 -1.68803,-3.53991c-1.40669,-0.88497 -1.40669,-1.23896 -0.14067,-2.12394c0.98468,-0.53099 1.40669,-1.94695 0.98468,-3.18592c-0.56268,-1.59296 1.68803,-2.12394 8.58081,-2.12394c8.86215,0.17699 9.28416,0.35399 8.44015,4.24789c-0.98469,5.30986 1.26602,4.95587 3.23539,-0.53099c0.84401,-2.47794 2.2507,-4.42488 3.09471,-4.42488c0.70335,0 1.4067,-0.70799 1.4067,-1.59296c0,-0.88498 -1.96937,-1.41597 -4.50141,-1.23897c-3.6574,0.17699 -4.50141,-0.53099 -4.64208,-3.36291c0,-1.94695 0.56267,-3.71691 1.26602,-3.8939c0.70334,-0.177 1.68803,-1.23897 2.39137,-2.47794c0.84402,-1.94694 1.8287,-1.41596 4.50141,1.59296c1.8287,2.12395 3.79807,3.36291 4.22007,2.65493c0.56268,-0.53098 0.98469,0.177 0.98469,1.76996c0,1.59296 0.70334,3.00892 1.40669,3.00892c0.84401,0 1.26602,2.47793 1.12535,5.30986c-0.14067,3.00892 -1.12535,5.30986 -2.11004,5.30986c-0.98468,0 -1.82869,0.70798 -1.82869,1.76995c0,0.88498 1.82869,1.23897 3.93873,0.70799c5.20476,-1.41597 6.89278,1.59295 7.31479,12.56667c0.42201,12.21268 0.28134,13.27465 -2.2507,13.27465c-3.09472,0 -1.96937,7.7878 1.26602,8.49578c1.8287,0.53098 2.2507,-0.35399 2.11003,-3.53991c-0.28133,-3.00892 0.28134,-4.07089 2.39138,-4.07089c2.39137,0 2.81338,1.23897 2.95405,9.38075c0.28134,6.01785 -0.14067,8.84977 -1.12535,8.14179c-2.11004,-1.76996 -3.93874,2.83193 -3.93874,10.44273c0,4.07089 -0.56267,6.37183 -1.40669,5.66385c-0.70334,-0.53099 -1.40669,-2.65493 -1.40669,-4.60188c0,-2.30094 -0.56268,-3.18592 -1.68803,-2.30094c-1.12535,0.88497 -1.26602,-0.35399 -0.70334,-4.24789c0.70334,-4.42489 0.422,-5.66385 -1.26603,-5.66385c-1.12535,0 -1.68802,-0.88498 -1.26602,-1.76996c0.42201,-1.06197 0.14067,-4.42488 -0.84401,-7.78779c-1.40669,-5.13287 -1.40669,-7.25681 0.56267,-13.80564c1.26603,-4.24789 2.39138,-9.55775 2.39138,-11.85869c0,-3.53991 -0.28134,-3.71691 -2.11004,-1.94695c-1.12535,1.23897 -2.11003,3.00892 -2.11003,4.07089c0,1.06197 -1.68803,4.24789 -3.79807,7.07982c-2.67271,3.5399 -3.37606,5.48685 -2.11003,6.01784c0.84401,0.53099 1.68802,2.30094 1.68802,4.07089c0,1.76996 0.70335,3.53991 1.54736,3.8939c2.39138,1.06197 1.8287,14.86761 -0.98468,21.94743c-2.95405,7.25681 -4.36074,8.31878 -7.59613,6.01784l0.00001,0l-0.00001,0z"/>
            <path fill="#0000ff" id="svg_36" d="m3299.04018,-1799.85587c-20.53768,-9.73475 -29.96251,-39.11598 -20.39702,-63.36435c3.6574,-9.02676 11.67554,-18.40752 18.99033,-21.94743c9.56549,-4.60188 23.77307,-2.83192 32.35388,3.8939c8.29948,6.37184 15.33293,20.17748 16.73962,32.56715c1.96937,18.05353 -6.33011,37.87701 -19.553,46.37279c-7.31479,4.77888 -20.81902,5.84085 -28.13381,2.47794l0,0zm4.92342,-3.71691c0,-0.88497 -1.12536,-2.12394 -2.53205,-2.65493c-1.40669,-0.53098 -2.53204,-2.12394 -2.53204,-3.5399c0,-1.59296 -0.98468,-2.47794 -2.67271,-2.12395c-1.54736,0.35399 -2.11004,-0.17699 -1.54736,-1.41596c0.56267,-1.06197 -0.14067,-3.8939 -1.26602,-6.19484c-1.26603,-2.47793 -1.8287,-4.42488 -1.26603,-4.42488c0.70335,0 1.96937,1.59295 2.95405,3.7169c1.26603,2.47793 2.81338,3.36291 4.64208,2.83193c2.25071,-0.70799 2.53205,-0.53099 1.26602,1.41596c-1.96936,2.83192 0.70335,5.48686 4.92342,4.77887c2.39138,-0.35399 2.39138,-0.17699 0.70335,1.41597c-1.8287,1.41596 -1.8287,1.94694 -0.14067,3.36291c1.12535,0.88497 2.81338,1.23897 3.93873,0.70798c1.12535,-0.53099 1.8287,0 1.54736,1.41596c-0.70334,3.8939 7.87747,4.0709 13.92624,0c2.95405,-1.76995 7.17412,-5.66385 9.28416,-8.67277l3.93873,-5.13287l-4.22007,-5.48685c-2.25071,-3.18592 -5.20476,-5.66386 -6.75212,-5.66386c-1.40669,0 -3.51672,-0.88497 -4.64208,-1.94694c-1.54736,-1.23897 -0.70334,-1.41597 2.95405,-0.70799c7.7368,1.76996 9.00282,-1.41596 9.00282,-23.71738l0,-18.58451l-6.89278,-5.30986c-5.34542,-4.24789 -8.86215,-5.48686 -16.17694,-6.01785c-8.01814,-0.53098 -10.26884,0 -16.88029,4.42489c-4.0794,2.65493 -9.14349,7.6108 -11.11285,10.79672l-3.51673,5.66385l4.78275,-1.23897c2.67271,-0.88498 8.1588,-1.41596 12.2382,-1.23897c6.33011,0.177 7.45546,-0.35399 8.01814,-3.53991c0.28134,-2.12394 0.84401,-5.30986 1.12535,-7.25681c0.42201,-2.12394 0.70335,-1.41596 0.84402,2.12395c0.28133,10.26573 -0.56268,11.15071 -11.3942,11.15071c-10.12817,0 -17.02095,3.00892 -18.56831,7.96479c-0.42201,1.59296 -0.84402,7.96479 -0.84402,14.15963l0,11.15071l5.34543,-0.35399c2.95405,-0.177 6.89278,-1.59296 8.72148,-3.36292c1.8287,-1.59295 4.78275,-3.00892 6.33011,-3.00892c2.11003,0.177 1.68803,0.70798 -1.54736,2.47794c-2.53205,1.41596 -4.92342,3.36291 -5.34543,4.42488c-0.56267,1.06197 -3.09472,1.94695 -5.62676,1.94695c-6.04877,0 -6.75211,1.23897 -4.36074,6.90282c4.92342,12.03569 23.35106,26.7263 23.35106,18.76151l0.00001,0z"/>
            <path fill="#0000ff" id="svg_37" d="m3209.57466,-1897.91131l0,-34.86809l39.528,-23.89438c21.80371,-13.09765 40.09068,-24.07137 40.79403,-24.42536c0.70334,-0.35399 1.26602,17.69954 1.26602,42.47889l0,43.18687l-5.48609,3.8939c-6.61145,4.60188 -13.78557,14.69062 -16.45828,22.83241l-1.96937,5.84084l-28.83716,0l-28.83715,0l0,-35.04508l0,0zm35.87061,18.76151c0,-6.54883 0.422,-7.6108 3.23538,-8.14179c1.8287,-0.35399 4.92342,1.23897 7.45546,3.8939c2.95405,3.18592 5.90811,4.60188 9.70617,4.60188c6.04877,0 8.58081,-2.65493 4.22007,-4.42488c-7.17412,-2.83193 -6.47078,-15.5756 0.98469,-17.87654c5.06408,-1.41596 10.26884,-7.4338 10.26884,-11.5047c0,-2.83192 -0.56268,-3.00892 -3.6574,-1.41596c-2.95405,1.23897 -4.36074,1.06197 -6.33011,-1.23897c-2.2507,-2.47793 -2.53204,-4.60188 -1.68803,-12.56667c0.98469,-10.97371 -0.84401,-16.81456 -6.18944,-19.82348c-4.64208,-2.65493 -4.50141,-2.83193 -3.65739,5.13286c0.70334,6.19484 0.422,7.25681 -2.67271,9.02677c-2.95405,1.59296 -4.50141,1.23897 -9.28416,-1.76996c-6.47078,-4.24789 -14.62958,-4.77887 -16.88029,-1.41596c-1.12535,1.76995 -0.84401,2.83193 1.26602,4.42488c4.36074,3.36292 3.23539,8.67278 -2.81338,14.15963c-5.76743,4.95588 -9.56549,12.74367 -7.87747,16.10658c0.56268,1.41597 1.54736,1.06198 2.95405,-0.70798c4.92342,-6.19484 11.3942,0.177 9.42483,9.38076c-1.12535,5.84084 1.96937,15.2216 6.33011,18.40752c2.11004,1.76995 4.0794,3.18591 4.50141,3.18591c0.42201,0 0.70334,-3.36291 0.70334,-7.4338l0.00001,0z"/>
            <path fill="#0000ff" id="svg_38" d="m3390.75641,-1862.33524c2.95405,-1.41596 1.82869,-4.24789 -1.40669,-3.18592c-4.36075,1.23897 -7.03346,-1.41596 -6.47078,-6.37183c0.28134,-3.18592 1.40669,-4.42489 4.36074,-4.77888c2.11004,-0.35399 3.79806,-1.41596 3.79806,-2.30094c0,-0.88497 0.70335,-1.59295 1.54736,-1.59295c0.70335,0 0.98469,0.88497 0.56268,1.76995c-0.42201,1.06197 0.42201,1.76995 1.96937,1.76995c2.95405,0 4.0794,-4.24788 1.54736,-6.19483c-2.25071,-1.76996 -13.22289,3.00892 -15.61427,6.72582c-1.26602,1.94695 -1.96937,4.95587 -1.54736,6.90282c0.42201,2.65493 0,3.00892 -2.67271,2.47794c-1.8287,-0.53099 -4.50141,-0.88498 -6.04877,-0.88498c-1.8287,-0.177 -2.39137,-1.06197 -1.8287,-3.7169c0.42201,-1.94695 0,-3.53991 -0.84401,-3.53991c-1.26602,0 -1.26602,-0.35399 0,-1.41597c0.98468,-0.70798 1.26602,-2.30094 0.56267,-3.7169c-1.40669,-2.83192 -4.36074,-1.06197 -4.36074,2.65493c0,1.41597 -1.26602,2.47794 -2.95405,2.47794c-1.54736,0 -2.39137,-0.70798 -1.96936,-1.76996c0.422,-0.88497 0.14067,-1.76995 -0.84402,-1.76995c-1.12535,0 -0.84401,-1.06197 0.56268,-3.18592c1.40669,-1.76995 2.39137,-4.24789 2.39137,-5.48686c0,-1.06197 1.54736,-3.00892 3.51673,-4.07089c1.96937,-1.06197 3.51673,-2.47793 3.51673,-3.00892c-0.14067,-3.00892 -2.53205,-5.48686 -4.50141,-4.60188c-2.39138,1.23897 -4.22008,-2.83193 -2.67272,-5.84085c1.68803,-3.5399 11.11286,1.23897 12.09754,6.19484c0.56268,3.36291 1.54736,4.24789 4.64208,3.7169c4.64208,-0.70798 5.20476,-5.84084 0.70335,-5.84084c-3.79807,0 -5.76743,-2.47794 -3.37606,-4.24789c2.81338,-2.12395 11.25353,1.59296 12.23821,5.48686c0.42201,2.12394 1.68803,3.00892 2.95405,2.47793c1.12535,-0.53099 2.67271,-1.06197 3.37606,-1.06197c0.84401,0 1.12535,-0.70798 0.56267,-1.76996c-0.42201,-0.88497 -1.8287,-1.06197 -3.09472,-0.53098c-1.40669,0.70798 -1.96936,0.35399 -1.40669,-0.70798c0.56268,-1.06198 0.28134,-2.30094 -0.56267,-2.65494c-0.98469,-0.35399 -0.70335,-1.59295 0.70334,-3.00892c1.54736,-1.59295 2.25071,-1.76995 2.25071,-0.35399c0,1.06197 1.26602,1.94695 2.67271,1.94695c2.67271,0 4.36074,3.18592 4.36074,8.14179c0,1.41596 -0.98468,2.47793 -2.11004,2.47793c-1.26602,0 -2.67271,1.76996 -3.37605,4.0709c-0.98469,3.18591 -0.56268,4.07089 2.11003,5.30986c1.8287,0.88498 3.51673,2.30094 3.6574,3.18592c0.70334,5.48685 0,6.01784 -7.31479,6.90282c-6.61145,0.70798 -7.7368,1.41596 -7.7368,4.42488c0,4.07089 3.65739,4.77887 4.64208,1.06197c0.422,-1.41596 0,-1.94695 -0.98469,-1.23897c-0.84401,0.70799 -1.54736,0.35399 -1.54736,-0.53098c0,-2.47794 3.79807,-2.47794 4.92342,-0.177c0.56268,1.06197 2.11004,1.41597 3.6574,0.88498c3.23539,-1.41596 5.34542,3.53991 2.81338,6.72582c-1.12535,1.41597 -1.54736,1.23897 -1.54736,-1.06197c0,-1.59296 -0.56268,-3.00892 -1.40669,-3.00892c-0.70335,0 -1.40669,1.59296 -1.40669,3.53991c0,2.30094 -0.84402,3.53991 -2.39138,3.36291c-1.54736,0 -1.8287,-0.53099 -0.70334,-1.06197l0,0z"/>
            <path fill="#0000ff" id="svg_39" d="m3346.02365,-1917.5578c-4.50141,-0.88497 -4.92342,-1.59296 -4.92342,-7.07981c0,-3.36292 -0.84402,-6.37184 -1.68803,-6.72583c-1.12535,-0.53098 -1.8287,0.70798 -1.8287,2.83193c0,4.42488 -4.92342,5.13286 -6.18944,1.06197c-1.12535,-3.7169 3.51673,-13.27465 7.17412,-14.33663c2.67272,-0.88497 2.95405,-1.59295 1.68803,-4.60188c-0.84401,-1.94694 -2.39137,-3.00892 -3.37605,-2.47793c-1.96937,0.88498 -4.07941,-3.53991 -2.81338,-6.01784c0.422,-0.70799 3.23538,-0.53099 6.3301,0.35399c3.23539,1.06197 5.34543,2.30094 5.06409,2.83192c-0.42201,0.35399 -0.14067,2.30094 0.70334,4.24789c1.8287,4.24789 7.31479,3.53991 8.01814,-1.06197c0.42201,-2.65493 0,-3.18592 -2.39137,-2.30094c-3.37606,1.06197 -5.06409,-1.23897 -3.37606,-4.77887c1.68803,-3.53991 13.78557,3.18591 12.51955,7.07981c-0.70335,2.12395 -0.28134,2.65493 1.40669,1.76996c1.12535,-0.53099 2.81338,-1.06198 3.51672,-1.06198c0.70335,0 1.26603,-0.88497 1.26603,-1.94695c0,-1.06197 -0.84402,-1.59295 -1.96937,-1.06197c-2.11004,1.06197 -4.22007,-3.18591 -2.95405,-5.84084c0.98468,-2.12395 5.76743,-0.177 8.44014,3.5399c2.67271,3.53991 1.54736,8.14179 -2.2507,9.38076c-4.07941,1.41596 -3.37606,7.7878 0.98468,9.02676c2.67271,0.88498 3.51673,2.12395 3.09472,5.13287c-0.42201,3.36291 -1.40669,3.8939 -7.45546,4.42488c-8.15881,0.70798 -10.40951,2.47794 -7.7368,6.54883c1.26602,1.94695 1.26602,2.65493 0.14067,2.65493c-2.53204,0 -3.51673,-5.13286 -1.54736,-7.96479c0.98468,-1.41596 2.81338,-2.65493 4.22007,-2.65493c1.40669,0 2.81338,-1.23897 3.37606,-2.65493c0.42201,-1.41596 1.40669,-2.65493 2.11004,-2.65493c0.84401,0 1.12535,1.23897 0.56267,2.83192c-0.56267,2.12395 -0.14067,2.65493 1.8287,2.12395c1.40669,-0.35399 2.67271,-1.76996 2.67271,-3.18592c0,-2.65493 -0.42201,-2.65493 -11.53486,-1.23897c-1.8287,0.177 -3.23539,0.88498 -3.23539,1.41597c0,0.53098 -1.26602,2.65493 -2.81338,4.77887c-1.68803,2.12395 -2.25071,4.07089 -1.40669,4.77888c1.68803,1.23896 1.96937,4.60188 0.42201,4.24788c-0.70335,-0.17699 -3.37606,-0.70798 -6.04877,-1.41596z"/>
            <path fill="#0000ff" id="svg_40" d="m3194.10106,-1965.52355c-1.54736,-3.7169 -2.81338,-9.20376 -2.81338,-12.21268c0,-5.84084 -1.96937,-7.25681 -9.9875,-7.25681l-5.62677,0l2.39138,-5.66385c4.0794,-9.73475 18.84965,-26.7263 28.69649,-32.92114c5.06408,-3.18592 17.30229,-9.38075 27.43046,-13.80564c21.80371,-9.73475 36.57396,-18.58451 51.48488,-30.97419c18.99032,-15.57559 28.41515,-16.81456 43.1854,-5.48686c28.41515,21.94743 34.18258,25.48734 64.28576,38.93899c20.53768,9.20376 29.25917,14.86761 37.69931,24.77935c6.18944,7.4338 15.05159,21.59343 15.05159,24.07137c0,0.53099 -2.53204,1.06197 -5.48609,1.06197c-8.01814,0 -9.98751,1.41596 -9.98751,7.25681c0,6.01785 -3.23538,16.46057 -5.48609,18.23053c-0.84401,0.70798 -4.78275,-3.00892 -9.00282,-8.84977c-11.39419,-15.75259 -20.67835,-22.30142 -46.42079,-32.74415c-26.02378,-10.44272 -31.08786,-13.27465 -41.77871,-23.71738c-15.05159,-14.69061 -17.86497,-14.69061 -33.76058,0.177c-12.51954,11.85869 -16.31761,13.98263 -39.38733,22.8324c-24.47642,9.20376 -35.16727,16.46057 -46.8428,31.15119c-5.20475,6.72582 -9.70616,12.21268 -10.12817,12.21268c-0.28134,0 -1.96937,-3.18592 -3.51673,-7.07982l0,0zm19.41233,-18.23052c9.84683,-9.02676 16.45828,-12.74367 38.54332,-21.77043c23.49173,-9.55775 27.71181,-12.03569 42.06005,-24.77935c5.76743,-5.13287 12.23821,-9.91175 14.20758,-10.44273c4.78274,-1.59296 11.95687,2.47793 22.22571,12.38967c10.55018,10.08874 18.70898,14.86762 39.80934,22.83241c23.35107,8.84977 30.94719,13.98263 43.1854,28.85025c5.76744,7.07981 10.55018,12.92066 10.69085,12.92066c0.98469,0 3.37606,-12.21268 3.37606,-16.81456c0,-6.37184 1.8287,-7.96479 8.58081,-7.96479c2.25071,0 4.07941,-0.88498 4.07941,-1.76996c0,-3.53991 -11.95687,-18.23052 -20.11568,-24.95635c-7.87747,-6.37183 -18.28698,-12.03568 -51.48488,-27.25728c-8.01813,-3.71691 -19.975,-11.15071 -26.72712,-16.46057c-27.57113,-22.12443 -33.33857,-22.65541 -54.15759,-5.66386c-15.33292,12.56667 -26.58645,19.2925 -51.48487,30.97419c-11.95687,5.66386 -25.4611,12.56668 -30.10318,15.5756c-7.87747,5.30986 -24.75776,24.07137 -24.75776,27.78827c0,0.88498 1.8287,1.76996 4.07941,1.76996c6.89278,0 8.58081,1.59295 8.58081,8.31878c0,3.36291 0.98468,8.49578 2.2507,11.3277l2.11004,5.48686l4.22007,-7.25681c2.39138,-3.8939 7.17412,-9.73475 10.83152,-13.09766l0,0z"/>
        </g>
        <rect id="svg_42" height="46" width="134.00001" y="96.45312" x="189" stroke-width="null" fill="#7f3f00"/>
        <ellipse ry="17.5" rx="65.5" id="svg_25" cy="95.95313" cx="256.5" stroke-width="null" fill="#7f3f00"/>
    </g>
    <g>
        <title>Simple Hair</title>
        <path stroke="null" id="svg_11" fill="#000000" d="m164,77.68675l0,53.31325l28,-49.75904s34,8.53012 63,8.53012s63,-8.53012 63,-8.53012l28,49.75904l0,-53.31325c0,-35.72557 -40.742,-64.68675 -91,-64.68675c-50.258,0 -91,28.96118 -91,64.68675z"/>
    </g>
</svg>