<svg width="512" height="512" xmlns="http://www.w3.org/2000/svg">
    <g stroke="null">
        <title>background</title>
        <rect stroke="null" x="-1" y="-1" width="514" height="514" id="canvas_background" fill="none"/>
    </g>

    <g stroke="null">
        <ellipse fill="#7f3f00" stroke-width="19" stroke-opacity="null" fill-opacity="null" cx="249" cy="171.45313" id="svg_40" rx="103.5" ry="100" stroke="null"/>
        <path fill="#7f3f00" stroke="null" stroke-width="19" id="svg_37" d="m174.5,221.45313c0,0 0,1 0,2c0,2 0,3 0,5c0,1 0,2 0,3c0,1 0,2 0,3c0,1 -0.4588,1.69343 -1,3c-0.38268,0.92387 -0.29289,1.29289 -1,2c-0.70711,0.7071 -2.29289,0.29289 -3,1c-0.70711,0.7071 -1,1 -2,2c0,0 -0.07612,0.6173 -1,1c-1.30656,0.54119 -2,1 -2,1c0,0 -0.29289,0.29289 -1,1c-0.70711,0.7071 -2.07612,0.6173 -3,1c-1.30656,0.54119 -1.69344,1.4588 -3,2c-0.92388,0.38269 -2,1 -3,1c0,0 -1.70711,0.29289 -1,1c0.70711,0.7071 1,0 1,0c0,0 2,0 2,0c1,0 3,0 4,0c0,0 1,0 2,0c0,0 1,0 1,0c1,0 2,0 3,0c2,0 3,0 5,0c1,0 3.0535,0.4595 5,0c2.17625,-0.51375 3,-1 4,-2c2,-2 3.15224,-2.23464 5,-3c1.30656,-0.5412 2.1731,-1.85274 3,-3c1.30745,-1.814 3,-4 4,-5c1,-1 2.4588,-0.69344 3,-2c0.38268,-0.92388 1.4588,-1.69344 2,-3c0.76537,-1.84777 1.4588,-2.69344 2,-4c0.38268,-0.92388 1,-2 1,-3l0,-1l0,-1l0,0" transform="rotate(-27.94554328918457 176.91421508789074,236.1102600097656) "/>
        <ellipse fill="#7f3f00" stroke-width="19" stroke-opacity="null" cx="252" cy="112.45312" id="svg_28" rx="108.5" ry="89" stroke="null"/>
        <g stroke="null" id="shirt">
            <title>Shirt</title>
            <g stroke="null" id="svg_1">
                <g stroke="null" id="svg_2">
                    <title>Chest</title>
                    <path stroke="null" d="m249.74181,298.00899l44,0l98.846,22.96233c27.533,6.39638 47.154,32.24265 47.154,62.11859l0,90.8594l-66,0l0,34.97609l-124,0l-124,0l0,-34.97609l-66,0l0,-90.8594c0,-29.87488 19.621,-55.72221 47.154,-62.11859l98.846,-22.96233l44,0z" fill="#0000ff" id="svg_3"/>
                </g>
                <g stroke="null" id="svg_6">
                    <title>Right Sleeve</title>
                </g>
                <g stroke="null" id="svg_6">
                    <path stroke="null" id="svg_7" fill="#ffffff" d="m385.58324,329.20839l-95.2043,-24.84965l-42.37894,0l-42.37894,0l-95.2043,24.84965c-26.51862,6.92211 -45.41674,34.89273 -45.41674,67.22423l0,75.38739l19.26316,0l0,-75.38739c0,-21.38916 12.73391,-40.23658 30.27783,-44.81653l93.16626,-24.31744l80.58549,0l93.16626,24.31744c17.54392,4.5788 30.27783,23.42737 30.27783,44.81653l0,75.38739l19.26316,0l0,-75.38739c0,-32.33149 -18.89812,-60.30211 -45.41674,-67.22423l-0.00003,0z"/>
                    <path stroke="null" id="svg_5" fill="#0000ff" d="m380.94824,333.44792l-92.34297,-24.84964l-41.10527,0l-41.10527,0l-92.34297,24.84964c-25.72161,6.92212 -44.05177,34.89274 -44.05177,67.22423l0,75.38739l18.68422,0l0,-75.38739c0,-21.38916 12.35119,-40.23659 29.36784,-44.81654l90.36618,-24.31744l78.16353,0l90.36618,24.31744c17.01664,4.5788 29.36784,23.42738 29.36784,44.81654l0,75.38739l18.68421,0l0,-75.38739c0,-32.33149 -18.33014,-60.30211 -44.05176,-67.22423l0.00001,0z"/>
                </g>
            </g>
            <path stroke="null" id="svg_11" fill="#0000ff" d="m332.89,356.83666c0.0606,0.02629 0.15985,0.02629 0.22049,0l3.0909,-1.37c0.0441,-0.02046 0.0441,-0.05112 0,-0.07011l-3.0909,-1.37149c-0.0606,-0.02629 -0.15985,-0.02629 -0.22049,0l-3.0923,1.37149c-0.0427,0.01899 -0.0427,0.04966 0,0.07011l3.0923,1.37zm6.6118,-1.72347c0.11438,0.05404 0.19293,0.17526 0.19293,0.31694c0,0.14314 -0.0799,0.26436 -0.19431,0.31841l-6.259,2.7736c-0.13229,0.05988 -0.35002,0.05988 -0.48369,0l-6.2577,-2.7736c-0.11576,-0.05404 -0.19568,-0.17526 -0.19568,-0.31841c0,-0.14167 0.0799,-0.26436 0.19568,-0.31694l6.2577,-2.7736c0.13367,-0.05988 0.3514,-0.05988 0.48369,0l6.26038,2.7736zm7.0928,-0.34761c0.24115,0.11393 0.40514,0.36805 0.40514,0.66456c0,0.29795 -0.16674,0.55209 -0.4079,0.66601l-13.086,5.79988c-0.27837,0.12269 -0.7345,0.12269 -1.0129,0l-13.084,-5.79988c-0.24116,-0.11246 -0.40928,-0.36805 -0.40928,-0.66601c0,-0.29649 0.16812,-0.55209 0.40928,-0.66456l13.084,-5.79988c0.27836,-0.12268 0.73449,-0.12268 1.0129,0l13.08876,5.79988zm-13.969,-4.11298l-10.512,4.65913c-0.14745,0.06572 -0.14745,0.17235 0,0.23807l10.512,4.65913c0.20671,0.09202 0.54295,0.09202 0.74827,0l10.513,-4.65913c0.14745,-0.06573 0.14745,-0.17235 0,-0.23807l-10.513,-4.65913c-0.20532,-0.09056 -0.54156,-0.09056 -0.74827,0"/>
            <path stroke="null" id="svg_23" fill-rule="evenodd" fill="#0000ff" d="m322,365.2606l0,2.16746c0,1.22692 0.81441,1.74976 1.8686,1.74976c1.0542,0 1.87,-0.52288 1.87,-1.74976l0,-2.16746l-1.2471,0l0,2.06083c0,0.47176 -0.10887,0.89532 -0.62287,0.89532c-0.51263,0 -0.62288,-0.42356 -0.62288,-0.89532l0,-2.06083l-1.2457,0m19.013,1.92792c0,-0.66602 0.35278,-1.15241 0.87505,-1.15241c0.55397,0 0.86679,0.50389 0.86679,1.09104c0,0.70982 -0.32935,1.18601 -0.86679,1.18601c-0.47542,0 -0.87505,-0.4776 -0.87505,-1.12464m0.88746,-2.01558c-1.1934,0 -2.1029,0.73467 -2.1029,2.00678c0,1.26338 0.9095,1.99947 2.1029,1.99947c1.192,0 2.1015,-0.73612 2.1015,-1.99947c0,-1.27218 -0.9095,-2.00678 -2.1015,-2.00678m-10.815,-0.00148c-0.51263,0 -0.99081,0.22054 -1.283,0.73612c-0.1943,-0.50097 -0.61736,-0.73612 -1.13,-0.73612c-0.56913,0 -1.068,0.24391 -1.3188,0.79454l-0.0138,0l0,-0.70545l-1.1369,0l0,3.82956l1.2485,0l0,-1.61685c0,-0.82376 0.26321,-1.19915 0.70693,-1.19915c0.35416,0 0.50023,0.32424 0.50023,0.75803l0,2.05797l1.2485,0l0,-1.61685c0,-0.82376 0.26321,-1.19915 0.70694,-1.19915c0.35416,0 0.50023,0.32424 0.50023,0.75803l0,2.05797l1.2485,0l0,-2.25659c0,-1.037 -0.23702,-1.66211 -1.2774,-1.66211m3.7304,3.04525c-0.43546,0 -0.79788,-0.43817 -0.79788,-1.02239c0,-0.60029 0.31832,-1.04575 0.79788,-1.04575c0.50712,0 0.79099,0.46154 0.79099,0.99172c0,0.63826 -0.29765,1.07642 -0.79099,1.07642m0.49472,-3.04674c-0.50023,0 -0.92329,0.15336 -1.2416,0.57984l-0.0138,0l0,-1.84759l-1.2554,0l0,5.18494l1.1507,0l0,-0.68354l0.0138,0c0.15985,0.42649 0.66559,0.77263 1.2416,0.77263c1.0749,0 1.6509,-0.94205 1.6509,-2.07398c0,-0.926 -0.54846,-1.93227 -1.5462,-1.93227m2.989,0.796l-0.0138,0l0,-0.70545l-1.1383,0l0,3.82956l1.2485,0l0,-1.61685c0,-0.75072 0.32659,-1.19915 0.9095,-1.19915c0.14607,0 0.28112,0 0.4203,0.04528l0.001,-1.11436c-0.11162,-0.01753 -0.2384,-0.03211 -0.35967,-0.03211c-0.54157,0 -0.853,0.30818 -1.068,0.79309"/>
            <text stroke="#0000ff" fill="#0000ff" stroke-width="0" x="192.5" y="442.45313" id="svg_41" font-size="29" font-family="'Trebuchet MS', Gadget, sans-serif" text-anchor="start" xml:space="preserve" transform="matrix(0.6395249438817685,-0.8148054289425966,0.7687703468221319,0.6778206240304389,-236.7981968714223,363.0724312160472) " font-weight="bold">STORETON</text>
        </g>
        <g stroke="null" id="skin-light">
            <title>Skin</title>
            <g stroke="null" id="svg_8">
                <title>Bottom Neck</title>
                <path stroke="null" d="m205.50529,267.84762l0,36c0,24.301 19.699,44 44,44s44,-19.699 44,-44l0,-36l-88,0z" fill="#ffd3b3" id="svg_9"/>
            </g>
            <g stroke="null" id="svg_10">
                <title>Top Neck</title>
                <path stroke="null" d="m205.50529,292.03562c13.499,5.851 28.376,9.812 44,9.812s30.501,-3.961 44,-9.812l0,-18.188l-88,0l0,18.188z" fill="#fcb98b" id="svg_12"/>
            </g>
            <g stroke="null" id="svg_19">
                <title>Left Arm</title>
                <path stroke="null" d="m125.50529,508.84762l-66,0l0,-33l66,0l0,33z" fill="#ffd3b3" id="svg_20"/>
            </g>
            <g stroke="null" id="svg_21">
                <title>Right Arm</title>
                <path stroke="null" d="m371.75091,475.84762l66,0l0,33l-66,0l0,-33z" fill="#ffd3b3" id="svg_22"/>
            </g>
            <g id="svg_15" stroke="null">
                <title>Left Ear</title>
                <path d="m150.25968,178.84762l14,0l0,-50l-14,0c-5.523,0 -10,4.477 -10,10l0,30c0,5.523 4.477,10 10,10z" fill="#ffd3b3" id="svg_16" stroke="null"/>
            </g>
            <g stroke="null" id="svg_13">
                <title>Face</title>
                <path stroke="null" d="m340.50529,84.84763l0,104.22221c0,53.44898 -40.742,96.77778 -91,96.77778c-50.258,0 -91,-43.32879 -91,-96.77778l0,-104.22221l182,0z" fill="#ffd3b3" id="svg_14"/>
            </g>
            <g id="svg_17" stroke="null">
                <title transform="translate(-6,0) ">Right Ear</title>
                <path d="m348.25968,178.84762l-14,0l0,-50l14,0c5.523,0 10,4.477 10,10l0,30c0,5.523 -4.477,10 -10,10z" fill="#ffd3b3" id="svg_18" stroke="null"/>
            </g>
        </g>
        <text stroke="#0000ff" fill="#000000" stroke-width="0" stroke-opacity="null" fill-opacity="null" x="54.5" y="232.45313" id="svg_7" font-size="24" font-family="Helvetica, Arial, sans-serif" text-anchor="start" xml:space="preserve"/>
        <text stroke="#0000ff" fill="#0000ff" stroke-width="0" x="147.5" y="381.45313" id="svg_24" font-size="17" font-family="'Palatino Linotype', 'Book Antiqua', Palatino, serif" text-anchor="start" xml:space="preserve" font-style="italic">T</text>
        <text stroke="#0000ff" fill="#0000ff" stroke-width="0" x="155.5" y="391.45313" id="svg_30" font-size="17" font-family="'Palatino Linotype', 'Book Antiqua', Palatino, serif" text-anchor="start" xml:space="preserve" font-style="italic">R</text>
        <text stroke="#0000ff" fill="#0000ff" stroke-width="0" x="163.5" y="401.45313" id="svg_31" font-size="17" font-family="'Palatino Linotype', 'Book Antiqua', Palatino, serif" text-anchor="start" xml:space="preserve" font-style="italic">F</text>
        <text stroke="#0000ff" fill="#0000ff" stroke-width="0" x="172.5" y="410.45313" id="svg_32" font-size="17" font-family="'Palatino Linotype', 'Book Antiqua', Palatino, serif" text-anchor="start" xml:space="preserve" font-style="italic">C</text>
        <line stroke="null" fill="none" stroke-width="3" stroke-opacity="null" x1="28.5" y1="305.45313" x2="93.5" y2="211.45313" id="svg_35"/>
        <line stroke="null" fill="none" stroke-width="3" stroke-opacity="null" x1="48.5" y1="160.45313" x2="110.5" y2="81.45313" id="svg_36"/>
        <rect stroke="#0000ff" fill="#ffffff" stroke-width="0" stroke-opacity="null" x="57.82456" y="459.02906" width="67.91228" height="17.54386" id="svg_45"/>
        <rect stroke="#0000ff" fill="#ffffff" stroke-width="0" stroke-opacity="null" x="371.10526" y="458.15187" width="68.91228" height="17.54386" id="svg_46"/>
        <line stroke="#ffffff" fill="none" stroke-width="19" x1="198.98079" y1="302.39596" x2="251.13031" y2="364.28808" id="svg_35"/>
        <line stroke="#ffffff" fill="none" stroke-width="19" x1="296.80302" y1="300.50046" x2="242.97475" y2="365.73914" id="svg_36" transform="rotate(6.419910430908203 269.88888549804744,333.11981201171875) "/>
        <text font-style="italic" xml:space="preserve" text-anchor="start" font-family="'Palatino Linotype', 'Book Antiqua', Palatino, serif" font-size="17" id="svg_24" y="387.45313" x="299.5" stroke-width="0" fill="#ffffff" stroke="#ffffff">T</text>
        <text font-style="italic" xml:space="preserve" text-anchor="start" font-family="'Palatino Linotype', 'Book Antiqua', Palatino, serif" font-size="17" id="svg_30" y="399.45313" x="309.5" stroke-width="0" fill="#ffffff" stroke="#ffffff">R</text>
        <text font-style="italic" xml:space="preserve" text-anchor="start" font-family="'Palatino Linotype', 'Book Antiqua', Palatino, serif" font-size="17" id="svg_31" y="406.45313" x="321.5" stroke-width="0" fill="#ffffff" stroke="#ffffff">F</text>
        <text font-style="italic" xml:space="preserve" text-anchor="start" font-family="'Palatino Linotype', 'Book Antiqua', Palatino, serif" font-size="17" id="svg_32" y="416.45313" x="328.5" stroke-width="0" fill="#ffffff" stroke="#ffffff">C</text>
        <text xml:space="preserve" text-anchor="start" font-family="'Trebuchet MS', Gadget, sans-serif" font-size="29" id="svg_4" y="466.45313" x="174.5" fill-opacity="null" stroke-opacity="null" stroke-width="0" stroke="#ffffff" fill="#ffffff">CATHEDRAL</text>
        <g id="XMLID_1_" stroke="null">
            <path id="XMLID_11_" d="m181.54822,397.81831c-0.15671,0.24789 -0.43452,0.59155 -0.69096,0.79437l-20.61479,0c-0.14959,-0.16338 -0.50575,-0.52958 -0.66247,-0.79437l21.96822,0m-1.53863,1.62254c-0.25644,0.28169 -0.6411,0.55211 -1.05425,0.73239l-16.88219,0c-0.33479,-0.18028 -0.66959,-0.4507 -0.98301,-0.73239l18.91945,0m-2.33644,1.50423c-1.82356,1.07606 -3.82521,1.62254 -5.34247,1.70141c0,-0.44507 0,-1.05352 0.15671,-1.70141l5.18575,0m5.79836,-8.44507c0.15671,1.31831 -0.38466,2.92394 -1.41041,4.54648l-7.59342,0c0.27781,-0.3831 0.6411,-0.7493 1.04712,-1.12113c2.20822,-2.03944 5.5989,-3.30704 7.95671,-3.42535m-14.73096,10.15211c-1.46027,-0.07887 -3.46904,-0.62535 -5.30685,-1.70141l5.23562,0c0.09973,0.64225 0.09973,1.25634 0.07123,1.70141m1.82356,0.12394c-0.59123,-0.44507 -1.10411,-1.05352 -1.63836,-1.82535l3.25534,0c-0.51288,0.7662 -1.07562,1.38028 -1.61699,1.82535m-3.87507,-5.72958l-7.62192,0c-1.03288,-1.62254 -1.53863,-3.22817 -1.38904,-4.54648c2.33644,0.11831 5.75562,1.38028 7.96384,3.42535c0.37753,0.37183 0.76219,0.73803 1.04712,1.12113m7.1589,0l-6.57479,0c-0.09973,-0.46761 -0.09973,-0.91268 -0.09973,-1.44225c0,-2.84507 1.58849,-5.78592 3.38356,-7.10423c1.7737,1.31831 3.39068,4.26479 3.39068,7.10423c0.00712,0.52958 -0.04986,0.98028 -0.09973,1.44225" fill="#ffffff" stroke="null"/>
            <path id="XMLID_16_" d="m182.90877,403.80704c0.31342,0 0.56274,0.20282 0.56274,0.46761c0,0.24225 -0.24932,0.44507 -0.56274,0.44507c-0.31342,0 -0.56274,-0.20282 -0.56274,-0.44507c0,-0.26479 0.25644,-0.46761 0.56274,-0.46761zm0,0.06197c-0.28493,0 -0.48438,0.18028 -0.48438,0.40563c0,0.20282 0.20658,0.3831 0.48438,0.3831c0.25644,0 0.48438,-0.18028 0.48438,-0.3831c0.00712,-0.21972 -0.22795,-0.40563 -0.48438,-0.40563zm0.12822,0.41127c0.02849,0 0.09973,0.0169 0.09973,0.10141l0,0.14085l-0.09973,0l0,-0.06197c0,-0.10141 -0.02849,-0.14648 -0.09973,-0.14648l-0.12822,0l0,0.20282l-0.09973,0l0,-0.50704l0.20658,0c0.12822,0 0.22795,0.06197 0.22795,0.14648c0,0.05634 -0.05699,0.12394 -0.10685,0.12394l0,-0.00001zm-0.22795,-0.18592l0,0.14085l0.09973,0c0.04986,0 0.12822,-0.02254 0.12822,-0.06197c0,-0.04507 -0.05699,-0.07887 -0.09973,-0.07887l-0.12822,0" fill="#ffffff" stroke="null"/>
            <path id="XMLID_17_" d="m181.51973,408.5c1.07562,0 1.98027,-0.34366 1.98027,-1.19437c0,-0.48451 -0.43452,-0.81127 -1.1326,-0.95775c-0.71945,-0.14085 -1.63836,-0.11831 -1.63836,-0.48451c0.04986,-0.24225 0.33479,-0.30423 0.76932,-0.30423c0.66959,0 0.69808,0.28169 0.72658,0.46761l1.09699,0c-0.07836,-0.67042 -0.76932,-1.13803 -1.87342,-1.13803c-1.15397,0 -1.82356,0.48451 -1.82356,1.12113c0,0.3662 0.22795,0.69296 0.6126,0.8507c0.27781,0.10141 0.66247,0.18028 1.1326,0.24789c0.48438,0.03944 0.9189,0.07887 0.9474,0.34366c0,0.18028 -0.22795,0.40563 -0.74795,0.40563c-0.74795,0 -0.89753,-0.32676 -0.89753,-0.54648l-1.15397,0c0.02849,0.69859 0.76932,1.18873 2.00164,1.18873" fill="#ffffff" stroke="null"/>
            <path id="XMLID_20_" d="m176.69726,408.5c0.49151,0 0.92603,-0.12394 1.28931,-0.30423l0,0.22535l1.10411,0l0,-3.49296l-1.11123,0l0,0.26479c-0.35616,-0.20282 -0.79068,-0.30423 -1.28931,-0.30423c-1.2537,0 -2.30795,0.79437 -2.30795,1.80845c0.00712,0.99155 1.06137,1.80282 2.31507,1.80282l0,0.00001zm-1.22521,-1.80845c0,-0.55211 0.59123,-1.01972 1.28219,-1.01972c0.66959,0 1.23233,0.46761 1.23233,1.01972c0,0.52394 -0.56274,0.99718 -1.23233,0.99718c-0.69808,0 -1.28219,-0.47324 -1.28219,-0.99718" fill="#ffffff" stroke="null"/>
            <path id="XMLID_23_" d="m172.95041,403.72817l0,1.45915c-0.38466,-0.20282 -0.81918,-0.30423 -1.31068,-0.30423c-1.26082,0 -2.28658,0.79437 -2.28658,1.80845c0,0.99718 1.02575,1.80282 2.28658,1.80282c0.48438,0 0.9474,-0.12394 1.31068,-0.30423l0,0.22535l1.07562,0l0,-4.69296l-1.07562,0l0,0.00563l0,0.00002zm-2.53589,2.96338c0,-0.55211 0.59123,-1.01972 1.2537,-1.01972c0.69808,0 1.28931,0.46761 1.28931,1.01972c0,0.52394 -0.59123,0.99718 -1.28931,0.99718c-0.66959,0 -1.2537,-0.47324 -1.2537,-0.99718" fill="#ffffff" stroke="null"/>
            <path id="XMLID_26_" d="m167.82164,408.41549l1.07562,0l0,-3.49296l-1.07562,0l0,3.49296zm0,-3.81408l1.07562,0l0,-0.87324l-1.07562,0l0,0.87324" fill="#ffffff" stroke="null"/>
            <path id="XMLID_29_" d="m164.86548,408.5c0.48438,0 0.9189,-0.12394 1.31068,-0.30423l0,0.22535l1.10411,0l0,-4.69296l-1.10411,0l0,1.45915c-0.38466,-0.20282 -0.81918,-0.30423 -1.31068,-0.30423c-1.26082,0 -2.30795,0.79437 -2.30795,1.80845c0,0.99718 1.04712,1.80845 2.30795,1.80845l0,0.00002zm-1.26082,-1.80845c0,-0.55211 0.59123,-1.01972 1.31068,-1.01972c0.66959,0 1.26082,0.46761 1.26082,1.01972c0,0.52394 -0.59123,0.99718 -1.26082,0.99718c-0.71945,0 -1.31068,-0.47324 -1.31068,-0.99718" fill="#ffffff" stroke="null"/>
            <path id="XMLID_32_" d="m159.77945,408.5c0.51288,0 0.9474,-0.12394 1.33205,-0.30423l0,0.22535l1.07562,0l0,-3.49296l-1.07562,0l0,0.26479c-0.38466,-0.20282 -0.84767,-0.30423 -1.33205,-0.30423c-1.26082,0 -2.27945,0.79437 -2.27945,1.80845c0,0.99155 1.02575,1.80282 2.27945,1.80282l0,0.00001zm-1.23233,-1.80845c0,-0.55211 0.59123,-1.01972 1.26082,-1.01972c0.71945,0 1.31068,0.46761 1.31068,1.01972c0,0.52394 -0.59123,0.99718 -1.31068,0.99718c-0.66959,0 -1.26082,-0.47324 -1.26082,-0.99718" fill="#ffffff" stroke="null"/>
        </g>
        <path id="svg_15" d="m186.06312,306.61718l0,-12.73779l18.51334,12.73779l-18.51334,0z" stroke-width="19" fill="#ffffff"/>
        <path transform="rotate(-132.70880126953125 304.1722717285156,300.27319335937494) " id="svg_16" d="m294.91562,294.18581l0,12.17472l18.51334,-12.17472l-18.51334,0z" stroke-width="19" fill="#ffffff"/>
        <g id="svg_17" stroke="null">
            <title>Other Hair</title>
            <g id="svg_18" stroke="null">
                <path id="svg_25" d="m308.15622,88.05832s-8.54573,24.69515 -130.62387,24.69515l-19.53237,23.42853l0,-32.29373l0,-20.89532c0,-20.98319 32.79361,-37.99295 73.2477,-37.99295l45.16752,0c17.52945,0 31.73998,7.37088 31.73998,16.46325l0,26.59506l0.00103,0l0,0.00001l0.00001,0z" fill="#7f3f00" stroke="null"/>
            </g>
            <g id="svg_26" stroke="null">
                <path id="svg_27" d="m308.15622,81.07159s-2.44194,19.75359 25.63618,25.67938l12.20761,24.36229l0,-33.58081l0,-23.70374c0,-11.27328 -16.94376,-20.41157 -37.84379,-20.41157l0,27.65447l0,-0.00001l0,-0.00001z" fill="#7f3f00" stroke="null"/>
            </g>
            <path fill="#7f3f00" stroke="null" stroke-width="19" id="svg_42" d="m307.5,85.45313c0,0 0,1 0,2c0,2 0,3 0,5c0,1 0,2 0,3c0,1 0,2 0,3c0,1 -0.4588,1.69343 -1,3c-0.38268,0.92387 -0.29289,1.29289 -1,2c-0.70711,0.7071 -2.29289,0.29289 -3,1c-0.70711,0.7071 -1,1 -2,2c0,0 -0.07612,0.6173 -1,1c-1.30656,0.54119 -2,1 -2,1c0,0 -0.29289,0.29289 -1,1c-0.70711,0.7071 -2.07612,0.6173 -3,1c-1.30656,0.54119 -1.69344,1.4588 -3,2c-0.92388,0.38269 -2,1 -3,1c0,0 -1.70711,0.29289 -1,1c0.70711,0.7071 1,0 1,0c0,0 2,0 2,0c1,0 3,0 4,0c0,0 1,0 2,0c0,0 1,0 1,0c1,0 2,0 3,0c2,0 3,0 5,0c1,0 3.0535,0.4595 5,0c2.17625,-0.51375 3,-1 4,-2c2,-2 3.15224,-2.23464 5,-3c1.30656,-0.5412 2.1731,-1.85274 3,-3c1.30745,-1.814 3,-4 4,-5c1,-1 2.4588,-0.69344 3,-2c0.38268,-0.92388 1.4588,-1.69344 2,-3c0.76537,-1.84777 1.4588,-2.69344 2,-4c0.38268,-0.92388 1,-2 1,-3l0,-1l0,-1l0,0" transform="rotate(-27.94554328918457 309.9142150878907,100.11026000976571) "/>
            <path stroke="null" fill="#7f3f00" stroke-width="19" id="svg_43" d="m235.81586,85.36126c0,0 0,1 0,2c0,2 0,3 0,5c0,1 0,2 0,3c0,1 0,2 0,3c0,1 0.36215,1.69343 0.78933,3c0.30206,0.92387 0.23119,1.29289 0.78933,2c0.55814,0.7071 1.80985,0.29289 2.368,1c0.55814,0.7071 0.78933,1 1.57866,2c0,0 0.06008,0.6173 0.78933,1c1.03131,0.54119 1.57866,1 1.57866,1c0,0 0.23119,0.29289 0.78933,1c0.55814,0.7071 1.63875,0.6173 2.368,1c1.03131,0.54119 1.33669,1.4588 2.368,2c0.72925,0.38269 1.57866,1 2.368,1c0,0 1.34748,0.29289 0.78933,1c-0.55814,0.7071 -0.78933,0 -0.78933,0c0,0 -1.57866,0 -1.57866,0c-0.78933,0 -2.368,0 -3.15733,0c0,0 -0.78933,0 -1.57866,0c0,0 -0.78933,0 -0.78933,0c-0.78933,0 -1.57866,0 -2.368,0c-1.57866,0 -2.368,0 -3.94666,0c-0.78933,0 -2.41023,0.4595 -3.94666,0c-1.71778,-0.51375 -2.368,-1 -3.15733,-2c-1.57866,-2 -2.48816,-2.23464 -3.94666,-3c-1.03131,-0.5412 -1.7153,-1.85274 -2.368,-3c-1.03201,-1.814 -2.368,-4 -3.15733,-5c-0.78933,-1 -1.94081,-0.69344 -2.368,-2c-0.30206,-0.92388 -1.15148,-1.69344 -1.57866,-3c-0.60413,-1.84777 -1.15148,-2.69344 -1.57866,-4c-0.30206,-0.92388 -0.78933,-2 -0.78933,-3l0,-1l0,-1l0,0" transform="rotate(5.563987731933594 233.91024780273446,100.0183944702147) "/>
        </g>
        <path fill="#7f3f00" stroke-width="null" stroke-opacity="null" id="svg_58" d="m198.03928,220.6986c0,-0.51429 0,-0.51429 0,-0.51429c0,-0.51427 0.91578,-0.51427 0.91578,-1.02856c0,0 0.26823,-0.15061 0.91579,-0.51427c0.64757,-0.36366 0,-0.51429 0,-0.51429c0.91578,-0.51429 0.91578,-0.51429 0.91578,-0.51429c0,-0.51427 0,-0.51427 0.91579,-0.51427c0,0 0,0 0,0c0.91579,0 0.91579,0 0.91579,0c0.91578,0 0.91578,-0.51429 0.91578,-0.51429c0.91579,-0.51427 0.91579,-0.51427 0.91579,-0.51427c0.91578,-0.51429 0.91578,-0.51429 0.91578,-0.51429c0.91579,-0.51427 0.91579,-0.51427 0.91579,-0.51427c0,0 0.91578,0 0.91578,0c0,0 0.91579,0 0.91579,0c0.91579,-0.51429 0.9855,-0.31749 1.83158,-0.51429c1.19654,-0.27833 0.91578,-0.51429 0.91578,-0.51429c0.91578,0 0.91578,0 0.91578,0c0,-0.51427 0,-0.51427 0.91578,-0.51427c0,0 0,-0.51429 0.91579,-0.51429c0,0 0,0 0,0c0,-0.51427 0,-0.51427 0,-0.51427c0,0 0.91578,-0.51429 0.91578,-0.51429c0,0 0.91578,0 0.91578,0c0,0 0.26823,0.36366 0.91579,0c0.64755,-0.36364 0,-0.51427 0.91578,-0.51427c0,0 0.91578,0 0.91578,0c0,0 0.91578,0 1.83158,-0.51429c0,0 0.91578,0 0.91578,0c0.91578,0 0.91578,-0.51429 0.91578,-0.51429c0,0 0.91579,0 0.91579,0c0.91578,0 0.91578,0 0.91578,-0.51427c0,0 0.91578,0 0.91578,0c0,0 0,0 0.91578,0c0,0 0,0 0.91579,0c0,0 0.26823,0.36366 0.91578,0c0.64756,-0.36365 0,-0.51428 0.91578,-0.51428c0,0 0.91579,0 0.91579,0c0.91578,0 0.91578,0 0.91578,0c0.91578,0 0.91578,-0.51428 1.83157,-0.51428c0,0 0,0 0.91579,0c0,0 0.91578,0 0.91578,0c0.91578,0 0.91578,-0.51429 0.91578,-0.51429c0.91579,0 0.91579,0 0.91579,0c0,0 0.91578,0 0.91578,0c0.91578,0 0.91578,0 0.91578,0c0.91579,0 0.63505,-0.23596 1.83158,-0.51428c0.84608,-0.19681 0.91578,0 1.83157,0c0,0 0,0 0.91579,0c0,0 0,0 0.91578,0c0,0 0,0 0.91578,0c0,0 0,0 0.91579,0c0,0 0,0 0.91578,0c0,0 0,0 0.91578,0c0,0 0,0 0.91578,0c0,0 0.91579,0 0.91579,0c0.91578,0 0.91578,0 0.91578,0c0.91578,0 0.91578,0 1.83158,0c0,0 0,0 0.91578,0c0,0 0.91578,0 0.91578,0c0,0 0.91578,0 0.91578,0c0.91579,0 0.91579,0 0.91579,0c0.91578,0 0.91578,0 0.91578,0c0.91578,0 0.91578,0 0.91578,0c0.91579,0 0.91579,0 1.83158,0c0.91578,0 0.91578,0 1.83157,0c0.91579,0 0.91579,0.51428 0.91579,0.51428c0.91578,0 0.91578,0 1.83157,0c0,0 0.91579,0 0.91579,0c0,0 0,0 0,0c0.91578,0 0.91578,0 0.91578,0c0.91578,0.51429 1.83157,0.51429 1.83157,0.51429c0.91579,0 0.91579,0 1.83158,0.51428c0,0 0,0 0.91578,0c0,0 0,0 0.91579,0.51428c0,0 0.91578,0 0.91578,0c0.91578,0 0.91578,0 0.91578,0c0.91578,0.51427 0.91578,0.51427 0.91578,0.51427c0.91579,0 0.91579,0 0.91579,0c0.91578,0 0.91578,0 0.91578,0c0,0 0.91578,0 0.91578,0c0,0.51429 0.91579,0.51429 0.91579,0.51429c0,0 0.91578,0 0.91578,0c0.91578,0.51429 0.91578,0.51429 1.83157,0.51429c0,0 0.91579,0.51427 0.91579,0.51427c0,0 0.91578,0 0.91578,0c0,0.51429 0.91578,0.51429 0.91578,0.51429c0,0 0,0 0.91579,0c0,0 0,0 0.91578,0c0,0 0,0.51427 0.91578,0.51427c0,0 0,0 0,0c0.91578,0 0.91578,0 0.91578,0c0,0.51429 0.91579,0.51429 0.91579,0.51429c0,0 0.26823,-0.36366 0.91578,0c0.64755,0.36364 0,0.51427 0.91579,0.51427c0,0 0,0 0,0c0.91578,0 0.91578,0.51429 0.91578,0.51429c0,0 0.91578,0 0.91578,0.51429c0,0 0.91578,0 0.91578,0.51427c0,0 0.91578,0 0.91578,0c0,0 0,0 0.91578,0.51429c0,0 0.26823,-0.36366 0.9158,0c0.64754,0.36364 0,0.51427 0,0.51427c0.91578,0 0.91578,0 0.91578,0c0,0.51429 0.26823,0.15063 0.91578,0.51429c0.64754,0.36364 0,0.51427 0,0.51427c0,0 0.91578,0 0.91578,0.51429c0,0 0,0 0,0.51429c0,0 0.91578,0 0.91578,0c0,0.51427 0,0.51427 0,0.51427c0,0 0,0.51429 0,0.51429c0,0 0,0 0,0.51427c0,0 0,0 0,0c0.91578,0 0.91578,0.51429 0.91578,0.51429l0,0l0,0.51427l0,0" stroke="null"/>
    </g>
</svg>