<svg width="512" height="512" xmlns="http://www.w3.org/2000/svg">
    <g stroke="null">
        <title>background</title>
        <rect stroke="null" x="-1" y="-1" width="514" height="514" id="canvas_background" fill="none"/>
    </g>

    <g stroke="null">
        <g stroke="null" id="shirt">
            <title>Shirt</title>
            <g stroke="null" id="svg_1">
                <g stroke="null" id="svg_2">
                    <title>Chest</title>
                    <path stroke="null" d="m248.74181,310.00899l44,0l98.846,21.665c27.533,6.035 47.154,30.421 47.154,58.609l0,85.726l-66,0l0,33l-124,0l-124,0l0,-33l-66,0l0,-85.726c0,-28.187 19.621,-52.574 47.154,-58.609l98.846,-21.665l44,0z" fill="#ffffff" id="svg_3"/>
                </g>
            </g>
            <path stroke="null" id="svg_11" fill="#ffffff" d="m329.89,362.513c0.0606,0.0248 0.15985,0.0248 0.22049,0l3.0909,-1.2926c0.0441,-0.0193 0.0441,-0.04823 0,-0.06615l-3.0909,-1.294c-0.0606,-0.0248 -0.15985,-0.0248 -0.22049,0l-3.0923,1.294c-0.0427,0.01792 -0.0427,0.04685 0,0.06615l3.0923,1.2926zm6.6118,-1.6261c0.11438,0.05099 0.19293,0.16536 0.19293,0.29903c0,0.13505 -0.0799,0.24942 -0.19431,0.30042l-6.259,2.6169c-0.13229,0.0565 -0.35002,0.0565 -0.48369,0l-6.2577,-2.6169c-0.11576,-0.05099 -0.19568,-0.16536 -0.19568,-0.30042c0,-0.13367 0.0799,-0.24942 0.19568,-0.29903l6.2577,-2.6169c0.13367,-0.0565 0.3514,-0.0565 0.48369,0l6.26038,2.6169zm7.0928,-0.32797c0.24115,0.10749 0.40514,0.34726 0.40514,0.62701c0,0.28112 -0.16674,0.5209 -0.4079,0.62838l-13.086,5.4722c-0.27837,0.11576 -0.7345,0.11576 -1.0129,0l-13.084,-5.4722c-0.24116,-0.10611 -0.40928,-0.34726 -0.40928,-0.62838c0,-0.27974 0.16812,-0.5209 0.40928,-0.62701l13.084,-5.4722c0.27836,-0.11575 0.73449,-0.11575 1.0129,0l13.08876,5.4722zm-13.969,-3.8806l-10.512,4.3959c-0.14745,0.06201 -0.14745,0.16261 0,0.22462l10.512,4.3959c0.20671,0.08682 0.54295,0.08682 0.74827,0l10.513,-4.3959c0.14745,-0.06202 0.14745,-0.16261 0,-0.22462l-10.513,-4.3959c-0.20532,-0.08544 -0.54156,-0.08544 -0.74827,0"/>
            <path stroke="null" id="svg_23" fill-rule="evenodd" fill="#ffffff" d="m319,370.461l0,2.045c0,1.1576 0.81441,1.6509 1.8686,1.6509c1.0542,0 1.87,-0.49334 1.87,-1.6509l0,-2.045l-1.2471,0l0,1.9444c0,0.44511 -0.10887,0.84474 -0.62287,0.84474c-0.51263,0 -0.62288,-0.39963 -0.62288,-0.84474l0,-1.9444l-1.2457,0m19.013,1.819c0,-0.62839 0.35278,-1.0873 0.87505,-1.0873c0.55397,0 0.86679,0.47542 0.86679,1.0294c0,0.66972 -0.32935,1.119 -0.86679,1.119c-0.47542,0 -0.87505,-0.45062 -0.87505,-1.0611m0.88746,-1.9017c-1.1934,0 -2.1029,0.69316 -2.1029,1.8934c0,1.192 0.9095,1.8865 2.1029,1.8865c1.192,0 2.1015,-0.69453 2.1015,-1.8865c0,-1.2003 -0.9095,-1.8934 -2.1015,-1.8934m-10.815,-0.0014c-0.51263,0 -0.99081,0.20808 -1.283,0.69453c-0.1943,-0.47267 -0.61736,-0.69453 -1.13,-0.69453c-0.56913,0 -1.068,0.23013 -1.3188,0.74965l-0.0138,0l0,-0.66559l-1.1369,0l0,3.6132l1.2485,0l0,-1.5255c0,-0.77722 0.26321,-1.1314 0.70693,-1.1314c0.35416,0 0.50023,0.30592 0.50023,0.7152l0,1.9417l1.2485,0l0,-1.5255c0,-0.77722 0.26321,-1.1314 0.70694,-1.1314c0.35416,0 0.50023,0.30592 0.50023,0.7152l0,1.9417l1.2485,0l0,-2.1291c0,-0.97841 -0.23702,-1.5682 -1.2774,-1.5682m3.7304,2.8732c-0.43546,0 -0.79788,-0.41341 -0.79788,-0.96463c0,-0.56637 0.31832,-0.98667 0.79788,-0.98667c0.50712,0 0.79099,0.43546 0.79099,0.93569c0,0.6022 -0.29765,1.0156 -0.79099,1.0156m0.49472,-2.8746c-0.50023,0 -0.92329,0.1447 -1.2416,0.54708l-0.0138,0l0,-1.7432l-1.2554,0l0,4.892l1.1507,0l0,-0.64492l0.0138,0c0.15985,0.40239 0.66559,0.72898 1.2416,0.72898c1.0749,0 1.6509,-0.88883 1.6509,-1.9568c0,-0.87368 -0.54846,-1.8231 -1.5462,-1.8231m2.989,0.75103l-0.0138,0l0,-0.66559l-1.1383,0l0,3.6132l1.2485,0l0,-1.5255c0,-0.70831 0.32659,-1.1314 0.9095,-1.1314c0.14607,0 0.28112,0 0.4203,0.04272l0.001,-1.0514c-0.11162,-0.01654 -0.2384,-0.0303 -0.35967,-0.0303c-0.54157,0 -0.853,0.29077 -1.068,0.74828"/>
        </g>
        <g stroke="null" id="svg_24">
            <title>Collar</title>
            <path stroke="null" id="svg_47" fill="#0000ff" d="m283.81576,307.84792l-67.22691,0l-18.16655,4.13894c2.04202,27.84732 0.03056,49.86106 51.78,49.86106s49.73798,-22.01374 51.78,-49.86106l-18.16655,-4.13894l0.00001,0z"/>
        </g>
        <ellipse ry="95" rx="107.00001" id="svg_38" cy="124.45312" cx="251.5" stroke-opacity="null" stroke-width="0" fill="#000000" stroke="#0000ff"/>
        <g stroke="null" id="skin-light">
            <title>Skin</title>
            <g stroke="null" id="svg_8">
                <title>Bottom Neck</title>
                <path stroke="null" d="m205.50529,273.84762l0,36c0,24.301 19.699,44 44,44s44,-19.699 44,-44l0,-36l-88,0z" fill="#ffd3b3" id="svg_9"/>
            </g>
            <g stroke="null" id="svg_10">
                <title>Top Neck</title>
                <path stroke="null" d="m205.50529,292.03562c13.499,5.851 28.376,9.812 44,9.812s30.501,-3.961 44,-9.812l0,-18.188l-88,0l0,18.188z" fill="#fcb98b" id="svg_12"/>
            </g>
            <g id="svg_15">
                <title>Left Ear</title>
                <path d="m149.25968,187.84762l14,0l0,-50l-14,0c-5.523,0 -10,4.477 -10,10l0,30c0,5.523 4.477,10 10,10z" fill="#ffd3b3" id="svg_16"/>
            </g>
            <g id="svg_17">
                <title>Right Ear</title>
                <path d="m354.25968,187.84762l-14,0l0,-50l14,0c5.523,0 10,4.477 10,10l0,30c0,5.523 -4.477,10 -10,10z" fill="#ffd3b3" id="svg_18"/>
            </g>
            <g stroke="null" id="svg_13">
                <title>Face</title>
                <path stroke="null" d="m340.50529,82.84763l0,105.25925c0,53.98081 -40.742,97.74074 -91,97.74074c-50.258,0 -91,-43.75992 -91,-97.74074l0,-105.25925l182,0z" fill="#ffd3b3" id="svg_14"/>
            </g>
            <g stroke="null" id="svg_19">
                <title>Left Arm</title>
                <path stroke="null" d="m125.50529,508.84762l-66,0l0,-33l66,0l0,33z" fill="#ffd3b3" id="svg_20"/>
            </g>
            <g stroke="null" id="svg_21">
                <title>Right Arm</title>
                <path stroke="null" d="m371.75091,475.84762l66,0l0,33l-66,0l0,-33z" fill="#ffd3b3" id="svg_22"/>
            </g>
        </g>
        <text stroke="#0000ff" fill="#000000" stroke-width="0" stroke-opacity="null" fill-opacity="null" x="54.5" y="232.45313" id="svg_7" font-size="24" font-family="Helvetica, Arial, sans-serif" text-anchor="start" xml:space="preserve" transform="rotate(34.41077423095703 61.179687499999986,224.203125) "/>
        <g id="svg_33" stroke="null">
            <path d="m157.73683,91.61772l0,52.19586l19.11679,-28.82433c61.76233,-8.86938 72.88321,-30.38265 72.88321,-30.38265s11.12088,21.51327 72.88322,30.38265l19.11679,28.82433l0,-52.19586c0,-33.12949 -41.18972,-59.98614 -92.00001,-59.98614c-50.81028,0 -92,26.85665 -92,59.98614z" fill="#000000" id="svg_34" stroke="null"/>
        </g>
        <line stroke="null" fill="none" stroke-width="3" stroke-opacity="null" x1="28.5" y1="305.45313" x2="93.5" y2="211.45313" id="svg_35"/>
        <line stroke="null" fill="none" stroke-width="3" stroke-opacity="null" x1="48.5" y1="160.45313" x2="110.5" y2="81.45313" id="svg_36"/>
        <rect stroke="#0000ff" fill="#0000ff" stroke-width="0" stroke-opacity="null" x="58.82456" y="459.02906" width="66.91228" height="17.54386" id="svg_45"/>
        <rect stroke="#0000ff" fill="#0000ff" stroke-width="0" stroke-opacity="null" x="373.10526" y="458.15187" width="64.91228" height="17.54386" id="svg_46"/>
        <rect stroke="null" id="svg_66" height="43" width="164" y="80.45313" x="172.5" stroke-width="0" fill="#000000"/>
        <ellipse ry="38" rx="95.50001" id="svg_65" cy="139.45312" cx="251.00001" stroke-width="0" fill="#ffd3b3" stroke="null"/>
        <path stroke="null" d="m237.5,123.45313c1,0 1,0 3,0c0,0 1,0 2,0c0,0 0.69344,-0.4588 2,-1c0.92388,-0.38269 3,-2 4,-3c1,-1 1,-2 2,-3c1,-1 1,-2 2,-3c1,-1 1,-3 2,-4c1,-1 1.61732,-3.07613 2,-4c0.54119,-1.30656 2.48626,-1.82375 3,-4c0.22975,-0.97325 0.83982,-3.01291 1,-4c0.50654,-3.12144 1.48626,-3.82375 2,-6c0.45951,-1.9465 0.45881,-2.69344 1,-4c0.38268,-0.92388 0,-2 0,-2c0,-1 0,-1 0,-1c0,0 -0.70711,0.29289 0,1c0.70711,0.70711 0.69255,1.186 2,3c0.8269,1.14727 1.61732,2.07612 2,3c0.5412,1.30656 0.61732,1.07612 1,2c0.5412,1.30656 1.4588,1.69344 2,3c0.38268,0.92388 0.61732,2.07612 1,3c0.5412,1.30656 1,2 1,2c1,1 1,2 1,2c1,1 1,2 1,2c1,1 1,2 2,3c1,1 1,1 1,2c0,0 1,1 1,1c0,0 0,1 1,1c0,0 0,1 0,1c0,0 1,0 1,1c0,0 1,1 1,1c1,0 1,0 0,0c0,0 0,0 -2,0c-1,0 -5,0 -8,0c-5,0 -9,0 -12,0c-3,0 -7,0 -9,0c-1,0 -2.69344,-0.4588 -4,-1c-0.92388,-0.38269 -2,0 -3,-1l0,0" id="svg_47" stroke-width="0" fill="#ffd3b3"/>
    </g>
</svg>