<svg width="512" height="512" xmlns="http://www.w3.org/2000/svg">

    <g id="shirt">
        <title>Shirt</title>
        <g transform="rotate(-0.06285365670919418 255.25967407231212,259.8476257324358) ">
            <g>
                <title>Chest</title>
                <path d="m255.25968,306.84762l44,0l98.846,21.665c27.533,6.035 47.154,30.421 47.154,58.609l0,85.726l-66,0l0,33l-124,0l-124,0l0,-33l-66,0l0,-85.726c0,-28.187 19.621,-52.574 47.154,-58.609l98.846,-21.665l44,0z"
                      fill="#ffffff" id="svg_3"/>
            </g>
            <g>
                <title>Left Sleeve</title>
                <path fill="#ffffff" d="m131.25968,472.84762l-66,0l0,-20l66,0l0,20z"/>
            </g>

            <g>
                <title>Right Sleeve</title>
                <path d="m379.25968,452.84762l66,0l0,20l-66,0l0,-20z" fill="#ffffff" id="svg_29"/>
            </g>

        </g>
    </g>


</svg>