 <svg width="512" height="512" xmlns="http://www.w3.org/2000/svg">
    <g id="shirt">
        <g id="chest">
            <path fill="#ffffff" d="m255.74181,313.00899l44,0l98.846,21.665c27.533,6.035 47.154,30.421 47.154,58.609l0,85.726l-66,0l0,33l-124,0l-124,0l0,-33l-66,0l0,-85.726c0,-28.187 19.621,-52.574 47.154,-58.609l98.846,-21.665l44,0z"/>
        </g>
        <g id="left-sleeve">
            <path d="m131.9286,479.52537l-66,0l0,-20l66,0l0,20z" fill="#ffffff"/>
        </g>
        <g id="right-sleeve">
            <path fill="#ffffff" d="m379.92691,458.49199l66,0l0,20l-66,0l0,-20z"/>
        </g>
    </g>
  <g id="shoulders">
   <path fill="#0000ff" d="m398.5978,332.77168l-99.36623,-22.02808l-44.23158,0l-44.23158,0l-99.36623,22.02808c-27.67791,6.13614 -47.40218,30.93082 -47.40218,59.59122l0,66.82749l20.10526,0l0,-66.82749c0,-18.96052 13.29058,-35.6679 31.60145,-39.72782l97.2391,-21.5563l84.10835,0l97.2391,21.5563c18.31087,4.0589 31.60145,20.7673 31.60145,39.72782l0,66.82749l20.10526,0l0,-66.82749c0,-28.6604 -19.72427,-53.45508 -47.40218,-59.59122l0.00001,0z" stroke="null"/>
   <path fill="#ffffff" d="m392.67631,339.88899l-94.92091,-22.02808l-42.2528,0l-42.25279,0l-94.92091,22.02808c-26.43969,6.13614 -45.28155,30.93082 -45.28155,59.59122l0,66.82749l19.20582,0l0,-66.82749c0,-18.96052 12.696,-35.6679 30.1877,-39.72782l92.88893,-21.5563l80.3456,0l92.88893,21.5563c17.4917,4.0589 30.1877,20.7673 30.1877,39.72782l0,66.82749l19.20582,0l0,-66.82749c0,-28.6604 -18.84187,-53.45508 -45.28155,-59.59122l0.00001,0z" stroke="null"/>
   <path fill="#0000ff" d="m389.02217,342.29638l-92.04451,-20.36843l-40.97241,0l-40.9724,0l-92.04451,20.36843c-25.63848,5.67383 -43.90938,28.60041 -43.90938,55.10146l0,61.79254l18.62382,0l0,-61.79254c0,-17.53198 12.31128,-32.9806 29.27292,-36.73462l90.07412,-19.9322l77.91089,0l90.07411,19.9322c16.96164,3.75309 29.27293,19.20264 29.27293,36.73462l0,61.79254l18.62382,0l0,-61.79254c0,-26.50106 -18.2709,-49.42764 -43.90938,-55.10146l-0.00002,0z" stroke="null"/>
   <path fill="#ffffff" d="m384.73699,350.0893l-88.38366,-19.01053l-39.34282,0l-39.34282,0l-88.38366,19.01053c-24.61877,5.29557 -42.16299,26.69372 -42.16299,51.42804l0,57.67304l17.8831,0l0,-57.67304c0,-16.36319 11.82163,-30.78188 28.10866,-34.28565l86.49162,-18.60338l74.81216,0l86.49162,18.60338c16.28704,3.50289 28.10866,17.92246 28.10866,34.28565l0,57.67304l17.8831,0l0,-57.67304c0,-24.73432 -17.54421,-46.13246 -42.16299,-51.42804l0.00002,0z" stroke="null"/>
  </g>



 <text stroke="#0000ff" fill="#0000ff" stroke-width="0" x="315.5" y="398.45313" font-size="17" font-family="'Palatino Linotype', 'Book Antiqua', Palatino, serif" text-anchor="start" xml:space="preserve" font-style="italic">T</text>
  <text stroke="#0000ff" fill="#0000ff" stroke-width="0" x="324.5" y="406.45313" font-size="17" font-family="'Palatino Linotype', 'Book Antiqua', Palatino, serif" text-anchor="start" xml:space="preserve" font-style="italic">R</text>
  <text stroke="#0000ff" fill="#0000ff" stroke-width="0" x="337.5" y="412.45313" font-size="17" font-family="'Palatino Linotype', 'Book Antiqua', Palatino, serif" text-anchor="start" xml:space="preserve" font-style="italic">F</text>
  <text stroke="#0000ff" fill="#0000ff" stroke-width="0" x="343.5" y="418.45313" font-size="17" font-family="'Palatino Linotype', 'Book Antiqua', Palatino, serif" text-anchor="start" xml:space="preserve" font-style="italic">C</text>
  <rect fill="#0000ff" stroke-width="0" stroke-opacity="null" x="64.82456" y="459.02906" width="64.91228" height="19.54386" stroke="#0000ff"/>
  <rect fill="#0000ff" stroke-width="0" stroke-opacity="null" x="379.10526" y="459.15187" width="67.91228" height="19.54386" stroke="#0000ff"/>
  <path stroke="null" fill="#0000ff" d="m160.89,399.513c0.0606,0.0248 0.15985,0.0248 0.22049,0l3.0909,-1.2926c0.0441,-0.0193 0.0441,-0.04823 0,-0.06615l-3.0909,-1.294c-0.0606,-0.0248 -0.15985,-0.0248 -0.22049,0l-3.0923,1.294c-0.0427,0.01792 -0.0427,0.04685 0,0.06615l3.0923,1.2926zm6.6118,-1.6261c0.11438,0.05099 0.19293,0.16536 0.19293,0.29903c0,0.13505 -0.0799,0.24942 -0.19431,0.30042l-6.259,2.6169c-0.13229,0.0565 -0.35002,0.0565 -0.48369,0l-6.2577,-2.6169c-0.11576,-0.05099 -0.19568,-0.16536 -0.19568,-0.30042c0,-0.13367 0.0799,-0.24942 0.19568,-0.29903l6.2577,-2.6169c0.13367,-0.0565 0.3514,-0.0565 0.48369,0l6.26038,2.6169zm7.0928,-0.32797c0.24115,0.10749 0.40514,0.34726 0.40514,0.62701c0,0.28112 -0.16674,0.5209 -0.4079,0.62838l-13.086,5.4722c-0.27837,0.11576 -0.7345,0.11576 -1.0129,0l-13.084,-5.4722c-0.24116,-0.10611 -0.40928,-0.34726 -0.40928,-0.62838c0,-0.27974 0.16812,-0.5209 0.40928,-0.62701l13.084,-5.4722c0.27836,-0.11575 0.73449,-0.11575 1.0129,0l13.08876,5.4722zm-13.969,-3.8806l-10.512,4.3959c-0.14745,0.06201 -0.14745,0.16261 0,0.22462l10.512,4.3959c0.20671,0.08682 0.54295,0.08682 0.74827,0l10.513,-4.3959c0.14745,-0.06202 0.14745,-0.16261 0,-0.22462l-10.513,-4.3959c-0.20532,-0.08544 -0.54156,-0.08544 -0.74827,0"/>
  <path stroke="null" fill-rule="evenodd" fill="#0000ff" d="m152,407.461l0,2.045c0,1.1576 0.81441,1.6509 1.8686,1.6509c1.0542,0 1.87,-0.49334 1.87,-1.6509l0,-2.045l-1.2471,0l0,1.9444c0,0.44511 -0.10887,0.84474 -0.62287,0.84474c-0.51263,0 -0.62288,-0.39963 -0.62288,-0.84474l0,-1.9444l-1.2457,0m19.013,1.819c0,-0.62839 0.35278,-1.0873 0.87505,-1.0873c0.55397,0 0.86679,0.47542 0.86679,1.0294c0,0.66972 -0.32935,1.119 -0.86679,1.119c-0.47542,0 -0.87505,-0.45062 -0.87505,-1.0611m0.88746,-1.9017c-1.1934,0 -2.1029,0.69316 -2.1029,1.8934c0,1.192 0.9095,1.8865 2.1029,1.8865c1.192,0 2.1015,-0.69453 2.1015,-1.8865c0,-1.2003 -0.9095,-1.8934 -2.1015,-1.8934m-10.815,-0.0014c-0.51263,0 -0.99081,0.20808 -1.283,0.69453c-0.1943,-0.47267 -0.61736,-0.69453 -1.13,-0.69453c-0.56913,0 -1.068,0.23013 -1.3188,0.74965l-0.0138,0l0,-0.66559l-1.1369,0l0,3.6132l1.2485,0l0,-1.5255c0,-0.77722 0.26321,-1.1314 0.70693,-1.1314c0.35416,0 0.50023,0.30592 0.50023,0.7152l0,1.9417l1.2485,0l0,-1.5255c0,-0.77722 0.26321,-1.1314 0.70694,-1.1314c0.35416,0 0.50023,0.30592 0.50023,0.7152l0,1.9417l1.2485,0l0,-2.1291c0,-0.97841 -0.23702,-1.5682 -1.2774,-1.5682m3.7304,2.8732c-0.43546,0 -0.79788,-0.41341 -0.79788,-0.96463c0,-0.56637 0.31832,-0.98667 0.79788,-0.98667c0.50712,0 0.79099,0.43546 0.79099,0.93569c0,0.6022 -0.29765,1.0156 -0.79099,1.0156m0.49472,-2.8746c-0.50023,0 -0.92329,0.1447 -1.2416,0.54708l-0.0138,0l0,-1.7432l-1.2554,0l0,4.892l1.1507,0l0,-0.64492l0.0138,0c0.15985,0.40239 0.66559,0.72898 1.2416,0.72898c1.0749,0 1.6509,-0.88883 1.6509,-1.9568c0,-0.87368 -0.54846,-1.8231 -1.5462,-1.8231m2.989,0.75103l-0.0138,0l0,-0.66559l-1.1383,0l0,3.6132l1.2485,0l0,-1.5255c0,-0.70831 0.32659,-1.1314 0.9095,-1.1314c0.14607,0 0.28112,0 0.4203,0.04272l0.001,-1.0514c-0.11162,-0.01654 -0.2384,-0.0303 -0.35967,-0.0303c-0.54157,0 -0.853,0.29077 -1.068,0.74828"/>
 </svg>
