 <svg width="512" height="512" xmlns="http://www.w3.org/2000/svg">
    <g id="shirt">
        <g id="chest">
            <path fill="#6db2b0"  d="M 255.742 313.009 L 299.742 313.009 L 398.588 334.674 C 426.121 340.709 445.742 365.095 445.742 393.283 L 445.742 479.009 L 444.612 510.582 L 379.742 512.009 L 255.742 512.009 L 131.742 512.009 L 65.784 511.981 L 65.742 479.009 L 65.742 393.283 C 65.742 365.096 85.363 340.709 112.896 334.674 L 211.742 313.009 L 255.742 313.009 Z"/>
        </g>
    </g>
    <g id="shoulders">
        <path fill="#000000" d="m398.5978,332.77168l-99.36623,-22.02808l-44.23158,0l-44.23158,0l-99.36623,22.02808c-27.67791,6.13614 -47.40218,30.93082 -47.40218,59.59122l0,66.82749l20.10526,0l0,-66.82749c0,-18.96052 13.29058,-35.6679 31.60145,-39.72782l97.2391,-21.5563l84.10835,0l97.2391,21.5563c18.31087,4.0589 31.60145,20.7673 31.60145,39.72782l0,66.82749l20.10526,0l0,-66.82749c0,-28.6604 -19.72427,-53.45508 -47.40218,-59.59122l0.00001,0z" stroke="null"/>
        <path fill="#6db2b0" d="m392.67631,339.88899l-94.92091,-22.02808l-42.2528,0l-42.25279,0l-94.92091,22.02808c-26.43969,6.13614 -45.28155,30.93082 -45.28155,59.59122l0,66.82749l19.20582,0l0,-66.82749c0,-18.96052 12.696,-35.6679 30.1877,-39.72782l92.88893,-21.5563l80.3456,0l92.88893,21.5563c17.4917,4.0589 30.1877,20.7673 30.1877,39.72782l0,66.82749l19.20582,0l0,-66.82749c0,-28.6604 -18.84187,-53.45508 -45.28155,-59.59122l0.00001,0z" stroke="null"/>
        <path fill="#000000" d="m389.02217,342.29638l-92.04451,-20.36843l-40.97241,0l-40.9724,0l-92.04451,20.36843c-25.63848,5.67383 -43.90938,28.60041 -43.90938,55.10146l0,61.79254l18.62382,0l0,-61.79254c0,-17.53198 12.31128,-32.9806 29.27292,-36.73462l90.07412,-19.9322l77.91089,0l90.07411,19.9322c16.96164,3.75309 29.27293,19.20264 29.27293,36.73462l0,61.79254l18.62382,0l0,-61.79254c0,-26.50106 -18.2709,-49.42764 -43.90938,-55.10146l-0.00002,0z" stroke="null"/>
        <path fill="#6db2b0" d="m384.73699,350.0893l-88.38366,-19.01053l-39.34282,0l-39.34282,0l-88.38366,19.01053c-24.61877,5.29557 -42.16299,26.69372 -42.16299,51.42804l0,57.67304l17.8831,0l0,-57.67304c0,-16.36319 11.82163,-30.78188 28.10866,-34.28565l86.49162,-18.60338l74.81216,0l86.49162,18.60338c16.28704,3.50289 28.10866,17.92246 28.10866,34.28565l0,57.67304l17.8831,0l0,-57.67304c0,-24.73432 -17.54421,-46.13246 -42.16299,-51.42804l0.00002,0z" stroke="null"/>
    </g>
  <g id="collar">
   <path stroke="null" fill="#000000" d="m289.98107,310.12734l-68.32193,0l-18.46245,5.65262c2.07528,38.03157 0.03106,68.09611 52.62342,68.09611s50.54813,-30.06454 52.62342,-68.09611l-18.46245,-5.65262l-0.00001,0z" id="svg_12"/>
  </g>
  <rect fill="#6db2b0" stroke-width="null" stroke-dasharray="null" opacity="undefined" x="237.5" y="351.5" width="36" height="38" id="svg_55"/>
  <g id="logo" transform="translate(0,500) scale(0.10000000149011612,-0.10000000149011612) " fill="#000000">
   <path d="m2451.82474,1394.79609c-3.53222,-1.10802 -3.20617,-3.9207 1.63026,-12.78489c6.57537,-11.93256 12.00955,-25.56977 14.45494,-36.39431l0.92381,-4.26163l7.98826,-0.2557l7.98826,-0.2557l-0.43474,1.96035c-2.11933,10.73931 -11.14008,29.49047 -20.32386,42.19013c-5.97761,8.26756 -9.12944,10.82454 -12.22692,9.80175l-0.00001,0z" fill="#ffffff" id="svg_27"/>
   <path d="m2469.21414,1394.88133c-1.19552,-0.42616 -2.44538,-2.55698 -2.44538,-4.1764c0,-0.5114 1.35855,-3.4093 3.04315,-6.30721c6.84708,-12.01779 13.31376,-28.04152 15.48744,-38.09896l1.14118,-5.36965l7.82523,0c6.79273,0 7.82523,0.17047 7.82523,1.36372c0,2.21605 -4.12998,13.97814 -7.17313,20.37059c-3.74959,7.92663 -15.81349,26.84826 -18.91097,29.57571c-2.55407,2.30128 -4.99945,3.23884 -6.79273,2.64221l-0.00002,-0.00001z" fill="#ffffff" id="svg_39"/>
   <path d="m2486.49486,1393.17667c-0.10868,-0.5114 1.30421,-4.00593 3.20617,-7.75616c6.57537,-13.04058 13.3681,-33.07024 14.34626,-42.10489l0.32605,-3.15361l32.71381,-0.34093c29.0729,-0.2557 33.0942,-0.5114 36.40906,-1.87512c5.05379,-1.96035 7.93391,-6.05151 8.31431,-11.5064c0.43474,-6.73337 -1.24986,-10.22791 -6.358,-12.95535c-1.35855,-0.68186 -12.22692,-1.10802 -37.22419,-1.44895l-35.32222,-0.5114l-3.04315,-2.21605c-1.6846,-1.27849 -3.47788,-3.15361 -3.96696,-4.26163c-0.48908,-1.10802 -8.20562,-20.62628 -17.11769,-43.38338c-8.91207,-22.7571 -17.82414,-45.42897 -19.78044,-50.45769l-3.64091,-9.20512l27.93172,0l27.93172,0l11.08574,29.23477l11.08574,29.14954l20.86728,0.5114c16.51993,0.42616 22.00846,0.85233 26.0841,2.04558c23.47569,6.73337 37.4959,23.35373 41.89759,49.60536c1.52157,8.86419 1.63026,24.71745 0.27171,32.64408c-1.79328,10.56884 -4.45603,17.64314 -9.83588,25.99594c-5.37985,8.52326 -10.92272,13.72245 -18.85663,17.81361c-9.12944,4.60256 -10.97706,4.77302 -60.97159,5.02872c-34.61578,0.08523 -46.1906,-0.08523 -46.35362,-0.85233l0.00002,0.00001z" fill="#ffffff" id="svg_40"/>
  </g>
    <use x="-78" y="21"  href="#simple-crest" />

    <line stroke-linecap="null" stroke-linejoin="null" id="svg_48" y2="512.5" x2="69.5" y1="450.5" x1="68.5" opacity="undefined" fill-opacity="null" stroke-dasharray="null" stroke-width="8" stroke="#000000" fill="none"/>
    <line stroke-linecap="null" stroke-linejoin="null" id="svg_49" y2="512.5" x2="84.5" y1="450.5" x1="83.5" opacity="undefined" fill-opacity="null" stroke-dasharray="null" stroke-width="8" stroke="#000000" fill="none"/>
    <line stroke="#000000" stroke-linecap="null" stroke-linejoin="null" id="svg_50" y2="518.5" x2="430.07143" y1="448.5" x1="430.07143" opacity="undefined" fill-opacity="null" stroke-dasharray="null" stroke-width="6" fill="none"/>
    <line stroke="#000000" stroke-linecap="null" stroke-linejoin="null" id="svg_51" y2="513.5" x2="443.07143" y1="444.5" x1="442.07143" opacity="undefined" fill-opacity="null" stroke-dasharray="null" stroke-width="8" fill="none"/>
    <line stroke-linecap="null" stroke-linejoin="null" id="svg_29" y2="518.5" x2="372.5" y1="452.5" x1="371.5" opacity="undefined" fill-opacity="null" stroke-dasharray="null" stroke-width="null" stroke="#000000" fill="none"/>
    <line stroke-linecap="null" stroke-linejoin="null" id="svg_37" y2="520.5" x2="140.5" y1="454.5" x1="139.5" opacity="undefined" fill-opacity="null" stroke-dasharray="null" stroke-width="null" stroke="#000000" fill="none"/>
    <use href="#wirral" fill="#fff" />
 </svg>
