<svg width="512" height="512" xmlns="http://www.w3.org/2000/svg">

    <g id="shirt">
        <g>
            <path d="m254.5811,312.84727l44,0l98.846,21.665c27.533,6.035 47.154,30.421 47.154,58.609l0,85.726l-66,0l0,33l-124,0l-124,0l0,-33l-66,0l0,-85.726c0,-28.187 19.621,-52.574 47.154,-58.609l98.846,-21.665l44,0z" fill="#000000"/>
        </g>
    </g>

    <g id="logo">
        <path id="animal" fill="#ffffff" d="m164.84197,395.87766c-0.28028,0.03515 -0.54956,0.91572 -1.09138,1.37486c-0.39593,0.33045 -0.89054,0.31064 -1.15308,0.71971c-0.09967,0.15212 -0.0677,0.41354 -0.18036,0.66325c-0.22182,0.50154 -0.9997,0.54607 -0.9997,1.09192c-0.0025,0.58953 0.64823,0.70181 1.21328,1.1209c0.4409,0.3362 0.48336,0.56822 1.01669,0.73207c0.45613,0.13146 1.13409,-0.29998 1.74435,-0.14467c0.50035,0.12677 0.97996,0.21838 1.09362,0.65728c0.09967,0.40524 -0.00724,1.03184 -0.61501,0.9594c-0.20459,-0.02003 -1.09337,-0.27442 -2.18325,-0.17535c-1.31719,0.12783 -2.81899,0.49387 -2.96587,1.74622c-0.08118,0.69883 0.934,1.524 1.91397,1.35632c0.67696,-0.11292 0.35696,-0.79492 0.72467,-1.12558c0.48411,-0.42462 3.22517,1.48011 5.77187,1.48011c1.07264,0 1.8705,-0.23138 2.66262,-0.93894c0.07394,-0.05433 0.16437,-0.16981 0.27853,-0.17748c0.10841,0.00767 0.29676,0.09822 0.35921,0.13678c2.05061,1.40639 3.60236,4.22834 11.14307,4.26072c1.0609,0.00511 2.26818,0.43741 3.25539,1.20463c0.87955,0.6935 1.39338,1.77392 1.89398,2.86861c0.75514,1.6431 2.10681,3.24146 4.15767,5.02027c0.11166,0.09524 1.80031,1.21464 1.9357,1.29816c0.02048,0.01278 0.14488,0.26483 0.10167,0.40545c-0.04971,1.06742 -0.23206,4.16826 2.47901,4.30909c0.66247,0.02855 0.48961,-0.36859 0.48961,-0.64216c-0.00175,-0.5401 -0.11741,-1.07722 0.21633,-1.63053c0.45613,-0.7604 -0.96822,-1.11024 -0.92676,-2.75505c0.02948,-1.22636 -1.17856,-1.01714 -1.79056,-1.95161c-0.35322,-0.54117 -0.66722,-0.82773 -0.64448,-1.48991c0.13814,-3.7251 -0.92975,-6.17334 -1.46158,-6.77459c-0.41542,-0.4536 -0.75914,-0.63363 -0.3797,-0.84328c2.26294,-1.27558 2.77553,-2.4606 2.77553,-2.4606c1.20329,-2.41202 2.28492,-4.61504 3.77697,-5.58509c0.30026,-0.2007 1.07114,-0.69137 1.54376,-0.88355c1.39238,-0.5597 2.1248,-0.89953 2.52972,-1.23488c0.63924,-0.53115 1.14558,-1.64054 0.53182,-2.31253c-0.76314,-0.82986 -2.08158,-0.17151 -2.66287,0.12293c-4.15942,2.10522 -4.77218,5.81903 -6.21327,7.95173c-1.14958,1.70403 -3.01808,2.95575 -4.68924,3.05801c-1.2515,0.07926 -2.60291,-0.137 -3.94684,-0.64045c-3.26988,-1.22252 -5.0582,-2.80107 -5.48186,-3.08017c-0.87805,-0.57824 -7.69708,-6.2886 -13.22315,-6.52169c0,0 -0.68595,-1.17182 -0.85856,-1.19014c-0.40368,-0.04474 -0.81759,0.69883 -1.11411,0.78576c-0.27728,0.07819 -0.7459,-0.80514 -1.02743,-0.76594"/>
    </g>
    <g id="crest">
        <text fill="#ffffff" x="307.10062" y="407.81758" font-size="75" font-family="'Simonetta', serif" transform="matrix(0.5615237090023946,0,0,0.4673531208043208,148.36174230027697,226.90644324570502) ">T</text>
        <text fill="#ffffff" x="313.10062" y="401.81758" font-size="55" font-family="'Simonetta', serif" transform="matrix(0.5615237090023946,0,0,0.4673531208043208,148.36174230027697,226.90644324570502) ">R</text>
        <text fill="#ffffff" x="302.10062" y="392.81758" font-size="30" font-family="'Simonetta', serif" transform="matrix(0.5615237090023946,0,0,0.4673531208043208,148.36174230027697,226.90644324570502) ">F</text>
        <text fill="#ffffff" x="339.10062" y="392.81758" font-size="30" font-family="'Simonetta', serif" transform="matrix(0.5615237090023946,0,0,0.4673531208043208,148.36174230027697,226.90644324570502) ">C</text>
    </g>
    <g id="sponsor">
        <path fill="#ff0000" d="m322.60465,429.18959c1.93315,-2.40229 3.98712,-4.62328 6.00082,-6.8896c0,4.80459 0,9.60917 0,14.36843c-2.09425,-0.04533 -4.14822,-0.04533 -6.24247,-0.04533c0,-2.31164 -0.04027,-4.62328 -0.04027,-6.93492c-0.04027,-0.22663 0.1611,-0.31728 0.28192,-0.49859z"/>
        <path fill="#ff0000" d="m329.97479,438.07354c4.18849,0.04533 8.37699,0.04533 12.5252,0.04533c-1.77205,1.99436 -3.54411,3.98871 -5.27589,6.0284c-0.36247,0.40794 -0.76521,0.90653 -1.32904,0.8612c-2.0137,0.04533 -3.98712,0 -6.00082,0c-0.04027,-2.31164 -0.08055,-4.62328 0.08055,-6.93492z"/>
        <path fill="#ff0000" d="m314.67068,438.11887c4.30931,0 8.6589,0 12.96822,0c-1.97342,2.31164 -4.0274,4.4873 -5.92027,6.84427c-4.38986,0.13598 -8.77973,0.09065 -13.16959,0.04533c1.93315,-2.35697 4.0274,-4.66861 6.12164,-6.8896z"/>
        <path fill="#ff0000" d="m322.28246,446.23228c2.05397,-2.40229 4.18849,-4.75926 6.28274,-7.16155c0.04027,4.89524 0.04027,9.79048 0.04027,14.68572c-2.09425,2.35697 -4.14822,4.75926 -6.28274,7.0709c0,-4.84991 0.04027,-9.69983 -0.04027,-14.59507z"/>
        <path fill="#ffffff" d="m195.5,451.89806c7.00767,0 14.01534,0 21.06329,0.04533c0.04027,1.54109 0.04027,3.03686 0,4.57796c-4.9537,0 -9.9074,0 -14.8611,0c0,1.35979 0,2.67425 0,4.03404c4.99397,0 9.94767,0 14.94164,0c0,1.45044 -0.04027,2.85556 0,4.306c-4.9537,0 -9.94767,0 -14.90137,0c0,1.35979 -0.04027,2.7649 -0.04027,4.12469c4.99397,0 9.94767,0 14.94164,0.04533c0,1.54109 0,3.08219 0,4.62328c-7.04794,0 -14.05562,0 -21.10356,0c-0.04027,-7.25221 -0.04027,-14.50441 -0.04027,-21.75662z"/>
        <path fill="#ffffff" d="m223.16822,452.306c1.32904,-0.40794 2.69836,-0.40794 4.06767,-0.45326c4.43014,0 8.90055,0 13.33068,0c0,1.54109 0,3.08219 0,4.57796c-3.90658,0 -7.77288,0 -11.67945,0c-0.72493,0.04533 -1.53041,0 -2.09425,0.58924c-0.88603,0.95185 -0.36247,3.03686 0.88603,3.17284c3.42329,0.40794 6.92712,-0.31728 10.31014,0.49859c0.96658,0.22663 1.8526,0.81587 2.49699,1.67707c1.0874,1.49577 1.44986,3.53545 1.28877,5.39383c-0.1611,1.58642 -0.68466,3.30882 -1.89288,4.26067c-1.40959,1.17848 -3.18164,1.45044 -4.87315,1.49577c-4.99397,0 -9.94767,0 -14.94164,0.04533c0,-1.58642 0,-3.17284 0,-4.75926c4.55096,0 9.06164,0.09065 13.6126,-0.09065c0.96658,-0.09065 1.44986,-1.40511 1.24849,-2.35697c-0.12082,-0.77055 -0.68466,-1.40511 -1.36931,-1.45044c-3.14137,-0.40794 -6.32301,0.18131 -9.46438,-0.36261c-0.88603,-0.18131 -1.77205,-0.36261 -2.49699,-1.0425c-1.24849,-0.99718 -1.89288,-2.71958 -2.05397,-4.39665c-0.20137,-1.9037 0.20137,-3.89806 1.32904,-5.39383c0.56384,-0.58924 1.40959,-1.08783 2.29562,-1.40511z"/>
        <path fill="#ffffff" d="m244.95644,453.1672c1.36931,-0.99718 3.06082,-1.26914 4.67178,-1.26914c4.7926,0 9.62548,-0.04533 14.41808,0c-0.04027,1.54109 0,3.08219 0,4.62328c-4.30931,0 -8.61863,-0.04533 -12.92794,0.09065c-1.57068,0.09065 -1.8526,3.12751 -0.32219,3.58078c3.66493,0.77055 7.49096,-0.45326 11.07534,0.81587c1.20822,0.36261 2.17479,1.40511 2.69836,2.67425c0.64438,1.54109 0.68466,3.30882 0.48329,4.94057c-0.20137,1.22381 -0.64438,2.49295 -1.53041,3.30882c-1.32904,1.26914 -3.1011,1.67707 -4.7926,1.7224c-5.07452,0.04533 -10.18931,0.09065 -15.26383,-0.04533c0.04027,-1.54109 0.04027,-3.08219 -0.04027,-4.62328c4.34959,-0.22663 8.73945,0.04533 13.08904,-0.13598c0.40274,0 0.80548,0 1.12767,-0.27196c1.00685,-0.81587 0.88603,-2.90088 -0.28192,-3.4448c-0.9263,-0.27196 -1.8526,-0.22663 -2.7789,-0.27196c-2.89973,-0.04533 -5.88,0.36261 -8.6589,-0.67989c-1.69151,-0.63457 -2.65808,-2.5836 -2.89973,-4.44198c-0.1611,-1.40511 -0.04027,-2.85556 0.36247,-4.21534c0.20137,-0.95185 0.76521,-1.81305 1.57068,-2.35697z"/>
        <path fill="#ffffff" d="m273.99397,451.89806c3.02055,-0.04533 6.0411,0 9.06164,-0.04533c0.56384,-0.04533 0.72493,0.63457 0.9263,1.08783c2.69836,6.8896 5.43699,13.82452 8.13534,20.71411c-2.37616,0 -4.71205,0 -7.08822,-0.04533c-0.44301,-1.35979 -0.96658,-2.71958 -1.49014,-4.03404c-3.30247,0 -6.60493,0 -9.9074,0c-0.60411,1.31446 -1.0874,2.71958 -1.61096,4.07937c-2.21507,0 -4.43014,0 -6.64521,0c2.94,-7.25221 5.79945,-14.45909 8.61863,-21.75662m4.59123,4.26067c-1.0874,2.81023 -2.09425,5.66579 -3.18164,8.47602c2.13452,0 4.22877,0 6.36329,0c-1.04712,-2.81023 -2.09425,-5.66579 -3.18164,-8.47602z"/>
        <path fill="#ffffff" d="m294.01013,451.89806c5.51753,0 10.99479,-0.04533 16.51233,0.04533c1.73178,0.04533 3.62466,0.54392 4.83288,2.08501c0.9263,1.17848 1.00685,2.85556 1.0874,4.39665c0.08055,2.13034 -0.64438,4.44198 -2.33589,5.57513c-0.28192,0.09065 0,0.27196 0.12082,0.31728c0.9263,0.58924 1.61096,1.63175 1.8526,2.7649c0.52356,2.13034 0.20137,4.39665 0.24164,6.57231c-2.13452,0 -4.26904,0 -6.40356,0c-0.1611,-1.81305 0.28192,-3.67143 -0.08055,-5.43915c-0.20137,-0.72522 -0.52356,-1.54109 -1.24849,-1.7224c-2.73863,-0.54392 -5.51753,-0.22663 -8.25616,-0.22663c-0.04027,2.49295 0,4.94057 -0.04027,7.43351c-2.09425,0 -4.18849,0 -6.28274,0c0,-7.29753 0,-14.54974 0,-21.80195m6.32301,4.57796c-0.12082,1.67707 -0.08055,3.39947 0,5.07654c2.73863,-0.18131 5.47726,0.27196 8.21589,-0.27196c1.81233,-0.54392 1.77205,-4.03404 -0.04027,-4.57796c-2.73863,-0.40794 -5.43699,-0.09065 -8.17562,-0.22663z"/>
    </g>

    <g>
        <path fill="#0000ff" stroke="#0000ff" stroke-width="0" stroke-opacity="null" fill-opacity="null" d="m183.35295,318.58818l3.41173,8.82353l-90.58823,12.94118l87.1765,-21.76471z" id="svg_32"/>
        <path stroke="#0000ff" fill="#0000ff" stroke-width="0" stroke-opacity="null" fill-opacity="null" d="m330.36607,319.9444l-3.44972,8.82353l91.59695,12.94118l-88.14722,-21.76471l-0.00001,0z" id="svg_44" transform="rotate(1.2250925302505493 372.714843750001,330.8267517089844) "/>        
    </g>
</svg>    