<svg width="512" height="512" xmlns="http://www.w3.org/2000/svg">
    <g id="shirt">
        <g id="chest">
            <path fill="#ffffff" d="m255.74181,313.00899l44,0l98.846,21.665c27.533,6.035 47.154,30.421 47.154,58.609l0,85.726l-66,0l0,33l-124,0l-124,0l0,-33l-66,0l0,-85.726c0,-28.187 19.621,-52.574 47.154,-58.609l98.846,-21.665l44,0z"/>
        </g>
        <g id="left-sleeve">
            <path d="m131.9286,479.52537l-66,0l0,-20l66,0l0,20z" fill="#ffffff"/>
        </g>
        <g id="right-sleeve">
            <path fill="#ffffff" d="m379.92691,458.49199l66,0l0,20l-66,0l0,-20z"/>
        </g>
    </g>
</svg>