<svg width="512" height="512" xmlns="http://www.w3.org/2000/svg">
  <rect height="198.49689" width="22" y="329.0031" x="138.76191" opacity="undefined" fill="#0000bf"/>
  <rect height="237.03926" width="22" y="318.98454" x="184.33335" opacity="undefined" fill="#0000bf"/>
  <rect height="247.95025" width="22" y="318.54974" x="304.52379" opacity="undefined" fill="#0000bf"/>
  <rect height="224.39958" width="22" y="329.10041" x="351.0476" opacity="undefined" fill="#0000bf"/>
  <path fill="#0000bf" d="m160.76213,328.96914l0,-5.14284l-21.52377,5.14284l21.52377,0z"/>
  <path fill="#0000bf" d="m206.4143,319.18653l0,-5.14284l-22.17594,5.14284l22.17594,0z"/>
  <path fill="#0000bf" d="m351.19693,329.18653l0,-5.14284l22.82407,5.14284l-22.82407,0z"/>
  <path fill="#0000bf" d="m304.4578,318.75175l0,-5.14284l22.82407,5.14284l-22.82407,0z"/>
  <path d="m211.35617,360.02365l0,-46.98411l49.52381,46.98411l-49.52381,0z" opacity="undefined" stroke-width="3.5" fill="#0000ff"/>
  <path d="m299.61013,360.65857l0,-46.98411l-47.93648,46.98411l47.93648,0z" opacity="undefined" stroke-width="3.5" fill="#0000ff"/>
  <rect height="228.80947" width="22" y="358.07147" x="244.25397" opacity="undefined" fill="#0000bf"/>
  <line stroke="#ffffff" y2="362.86582" x2="256.7619" y1="314.99282" x1="208.12698" stroke-width="4.5" fill="none"/>
  <line stroke="#ffffff" y2="314.58011" x2="303.14286" y1="363.54837" x1="254.50794" stroke-width="3.5" fill="none"/>

    <text fill="#ffffff" stroke="#ffffff" stroke-width="0" x="324.5" y="398.45313" font-size="17" font-family="'Palatino Linotype', 'Book Antiqua', Palatino, serif" text-anchor="start" xml:space="preserve" font-style="italic">T</text>
    <text fill="#ffffff" stroke="#ffffff" stroke-width="0" x="332.5" y="408.45313" font-size="17" font-family="'Simonetta', serif" text-anchor="start" xml:space="preserve" font-style="italic">R</text>
    <text fill="#ffffff" stroke="#ffffff" stroke-width="0" x="340.5" y="418.45313" font-size="17" font-family="'Simonetta', serif" text-anchor="start" xml:space="preserve" font-style="italic">F</text>
    <text fill="#ffffff" stroke="#ffffff" stroke-width="0" x="349.5" y="427.45313" font-size="17" font-family="'Simonetta', serif" text-anchor="start" xml:space="preserve" font-style="italic">C</text>
  <text font-style="normal" font-weight="normal" fill="#ffffff" stroke-width="0" x="169" y="470.5" font-size="30" font-family="'Calistoga'" text-anchor="start" xml:space="preserve">STAIRWAYS</text>
  <g fill="#000000" transform="translate(0,543) scale(0.10000000149011612,-0.10000000149011612) ">
   <path fill="#ffffff" d="m1773.34219,1461.921c-42.46249,-65.01995 -77.18765,-118.56256 -77.18765,-118.89205c0,-0.43932 41.34832,-0.60407 154.7467,-0.60407c85.11069,0 154.7467,0.16475 154.7467,0.38441c0,1.09831 -31.07314,49.09445 -81.58246,125.97615c-27.17352,41.4612 -48.09527,73.47693 -67.40766,103.46079c-2.72354,4.17358 -5.19949,7.68817 -5.50898,7.798c-0.37139,0.10983 -35.34415,-53.04837 -77.80664,-118.12323zm119.03116,37.28762c22.59302,-34.70659 53.29476,-81.93392 68.27424,-104.8886c14.97948,-22.95468 27.35922,-42.01035 27.48301,-42.39476c0.24759,-0.54915 -12.99872,-0.7139 -66.54108,-0.7139l-66.91247,0l-2.29025,3.62442c-5.19949,8.23732 -6.87075,16.20007 -4.95189,23.50383c2.78544,10.37903 11.32746,17.84754 22.53112,19.60483c3.03304,0.49424 4.7662,0.43932 8.54202,-0.27458c12.75113,-2.30645 21.97403,-12.63056 21.16935,-23.72349c-0.1238,-1.92204 0,-3.51459 0.30949,-3.51459c1.36177,0 6.87075,5.87596 8.66582,9.2258c1.85696,3.51459 1.98076,4.00883 1.98076,10.2692c0,6.0407 -0.1238,6.86444 -1.67126,9.77496c-3.59012,6.75461 -12.19404,12.57565 -19.62188,13.39938c-2.97114,0.27458 -3.21873,0.38441 -1.85696,0.87865c2.78544,0.93356 10.52278,0.60407 14.2986,-0.65899c9.2848,-3.13018 15.41277,-12.02649 14.42239,-20.9228l-0.37139,-3.56951l1.23797,1.37289c1.79506,1.97696 3.65202,6.53494 4.4567,10.9831c1.42367,8.34716 -1.91886,17.13363 -8.91341,23.33909c-6.12797,5.43663 -12.99872,7.96275 -21.72644,7.96275c-4.7043,0.05492 -4.89,0.10983 -3.46633,0.82373c0.86658,0.43932 3.46633,1.31797 5.81848,1.97696c3.46633,0.98848 5.26139,1.15323 10.08948,0.93356c5.26139,-0.27458 6.31367,-0.49424 10.95607,-2.52611c4.95189,-2.19662 8.66582,-5.10714 12.56543,-9.72004l1.36177,-1.64746l0,3.34985c0.1857,14.49769 -13.24632,29.70928 -29.52567,33.38862c-20.61226,4.72273 -40.97693,-4.17358 -48.59046,-21.19738c-0.92848,-1.97696 -1.85696,-4.94239 -2.16645,-6.58986c-0.37139,-2.63594 -0.61899,-2.91052 -2.16645,-3.07527c-2.53785,-0.27458 -5.32329,1.81221 -7.11835,5.27189c-2.29025,4.50307 -2.04266,9.44547 1.11418,21.80145c3.83772,14.99193 5.01379,21.36213 5.01379,27.45775c0,11.53225 -4.14721,18.45161 -13.24632,22.29569c-4.7662,1.97696 -5.81848,2.08679 -4.5186,0.38441c2.29025,-2.91052 0.0619,-7.57834 -3.65202,-7.57834c-2.16645,0 -1.91886,-0.54915 1.11418,-2.4712c3.89962,-2.52611 5.69468,-5.76613 5.63278,-10.15937c0,-6.0407 -1.17607,-7.52342 -16.65074,-21.14247c-18.26011,-16.09024 -20.36467,-19.05568 -20.30277,-28.83064c0,-9.06106 -0.74278,-7.68817 29.83516,-53.81719l19.80758,-29.92895l-64.43653,-0.16475c-35.46794,-0.05492 -64.56032,0 -64.68412,0.10983c-0.1857,0.16475 92.84802,143.27453 134.87722,207.52566c1.36177,2.08679 2.53785,3.67934 2.66164,3.56951c0.0619,-0.10983 18.6315,-28.55606 41.16262,-63.31757z"/>
   <path fill="#ffffff" d="m1826.63695,1522.38296c-1.29987,-2.19662 -0.86658,-6.53494 1.11418,-9.66513c2.10456,-3.51459 4.33291,-5.21697 9.2229,-7.24885c11.51315,-4.83256 29.21618,-2.30645 37.82009,5.27189c1.48557,1.37289 2.72354,2.63594 2.72354,2.91052c0,0.27458 -4.5186,0.65899 -10.02759,0.82373c-14.051,0.49424 -23.89289,2.4712 -34.97275,6.97427l-5.13759,2.1417l-0.74278,-1.20814z"/>
   <path fill="#ffffff" d="m1820.69468,1489.65332c-2.16645,-3.13018 -5.57088,-5.54647 -11.07986,-7.85292c-4.14721,-1.7573 -4.4567,-2.30645 -2.97114,-4.83256c2.10456,-3.56951 7.92303,-3.29493 12.93682,0.60407c3.28063,2.58103 5.13759,5.43663 5.63278,8.56682c0.30949,2.19662 -0.80468,5.71121 -1.91886,6.0407c-0.37139,0.10983 -1.54747,-1.04339 -2.59974,-2.52611z"/>
   <path fill="#ffffff" d="m1988.6258,1339.40453c-2.97114,-0.93356 -5.13759,-3.1851 -5.57088,-5.76613c-0.1857,-1.04339 -0.49519,-2.69086 -0.68089,-3.67934c-0.24759,-1.4278 -0.61899,-1.7573 -1.98076,-1.92204c-1.60937,-0.16475 -1.67126,-0.32949 -1.85696,-3.56951l-0.1857,-3.45968l1.91886,0l1.85696,0l0,-11.80683l0,-11.80683l4.95189,0l4.95189,0l0,11.80683l0,11.80683l3.09493,0l3.15683,0l-0.1857,3.45968l-0.1857,3.40476l-2.90924,0.16475c-3.15683,0.16475 -3.46633,0.54915 -2.41405,3.02035c0.43329,1.04339 1.23797,1.48272 3.15683,1.7573l2.53785,0.38441l-0.1857,3.34985l-0.1857,3.40476l-3.40443,0.10983c-1.85696,0.10983 -4.5186,-0.21966 -5.88037,-0.65899z"/>
   <path fill="#ffffff" d="m1704.82035,1317.98748l0,-20.59331l4.95189,0l4.95189,0l0,20.59331l0,20.59331l-4.95189,0l-4.95189,0l0,-20.59331z"/>
   <path fill="#ffffff" d="m1967.88974,1334.18756l0,-4.39324l4.95189,0l4.95189,0l0,4.39324l0,4.39324l-4.95189,0l-4.95189,0l0,-4.39324z"/>
   <path fill="#ffffff" d="m1953.40545,1334.62688c-0.24759,-1.59255 -0.99038,-3.78917 -1.67126,-4.83256c-1.17607,-1.86713 -1.23797,-2.80069 -1.05228,-14.55261c0.1857,-14.00345 0.43329,-14.93701 4.20911,-17.13363c1.85696,-1.15323 2.72354,-1.26306 7.11835,-1.15323l4.95189,0.16475l0.1857,3.62442l0.1857,3.56951l-2.04266,-0.21966c-1.17607,-0.10983 -2.59974,0.16475 -3.28063,0.65899c-1.11418,0.7139 -1.23797,1.53763 -1.42367,8.5119l-0.24759,7.74308l3.15683,0l3.15683,0l0,3.62442l0,3.62442l-3.09493,-0.21966l-3.09493,-0.16475l0,4.83256l0,4.77765l-3.34253,0l-3.28063,0l-0.43329,-2.85561z"/>
   <path fill="#ffffff" d="m1725.9897,1328.20177c-3.71392,-0.87865 -6.68506,-3.07527 -8.60392,-6.48003c-1.60937,-2.96544 -1.73316,-3.67934 -1.73316,-9.50038c0,-5.98579 0.1238,-6.48003 1.85696,-9.28072c2.59974,-4.22849 5.50898,-5.76613 11.20366,-5.98579c5.32329,-0.27458 8.04683,0.43932 10.64657,2.69086c1.60937,1.37289 4.95189,7.46851 4.33291,7.90783c-0.1238,0.05492 -2.16645,0.27458 -4.5805,0.43932l-4.39481,0.32949l-0.74278,-2.1417c-0.49519,-1.48272 -1.23797,-2.25154 -2.47595,-2.74577c-3.34253,-1.20814 -5.63278,0.98848 -5.63278,5.54647l0,2.1417l8.97531,0l8.97531,0l0,1.48272c0,3.40476 -1.48557,8.5119 -3.09493,10.81835c-2.84734,3.95392 -9.161,5.98579 -14.73189,4.77765z"/>
   <path fill="#ffffff" d="m1761.21005,1327.92719c-3.46633,-1.04339 -6.56126,-3.67934 -7.92303,-6.86444c-1.36177,-3.1851 -1.54747,-13.50921 -0.24759,-16.69431c1.05228,-2.74577 4.14721,-5.82104 6.68506,-6.75461c2.59974,-0.98848 9.5943,-0.98848 12.13214,0c3.77582,1.4278 7.24215,6.15054 7.24215,9.9397c0,1.37289 -1.85696,1.92204 -6.43746,1.92204c-2.53785,0 -2.59974,-0.05492 -3.34253,-2.4712c-0.55709,-1.92204 -1.05228,-2.52611 -2.35215,-2.80069c-2.47595,-0.54915 -3.89962,1.15323 -4.5805,5.3268c-1.05228,6.69969 0.92848,12.24616 4.20911,11.91666c1.36177,-0.10983 1.85696,-0.60407 2.59974,-2.74577l0.92848,-2.63594l4.5186,0l4.4567,0l0,1.92204c0,3.73425 -2.72354,7.74308 -6.31367,9.39055c-2.53785,1.15323 -8.41822,1.4278 -11.57505,0.54915z"/>
   <path fill="#ffffff" d="m1789.93104,1328.20177c-7.55164,-1.64746 -10.64657,-6.91935 -10.08948,-17.3533c0.1857,-4.33832 0.49519,-5.60138 2.04266,-8.29224c2.47595,-4.22849 5.50898,-5.71121 11.69885,-5.71121c10.08948,0.05492 13.9891,4.39324 13.9891,15.70583c0,9.17089 -2.59974,13.67396 -8.97531,15.37634c-3.15683,0.82373 -5.69468,0.87865 -8.66582,0.27458zm5.50898,-6.80952c1.36177,-0.87865 2.41405,-7.24885 1.91886,-11.64209c-0.68089,-5.87596 -2.16645,-7.68817 -5.01379,-6.0407c-1.79506,1.04339 -2.29025,3.84408 -1.98076,10.87327c0.1238,4.17358 0.43329,5.43663 1.36177,6.3702c1.36177,1.31797 2.16645,1.4278 3.71392,0.43932z"/>
   <path fill="#ffffff" d="m1856.78161,1328.20177c-6.93265,-1.53763 -10.52278,-7.24885 -8.10873,-12.85023c1.23797,-2.85561 3.40443,-4.39324 8.91341,-6.20545c4.95189,-1.70238 5.69468,-2.19662 5.69468,-3.73425c0,-1.64746 -1.11418,-2.52611 -3.21873,-2.52611c-1.98076,0 -4.8281,2.1417 -4.8281,3.62442c0,0.7139 -0.43329,0.82373 -2.29025,0.54915c-5.44708,-0.82373 -5.75658,-0.93356 -5.75658,-2.03187c0,-2.03187 1.73316,-4.72273 4.08531,-6.31528c1.98076,-1.37289 2.97114,-1.59255 6.93265,-1.81221c5.38519,-0.21966 8.60392,0.49424 11.32746,2.52611c2.41405,1.81221 3.65202,4.33832 3.65202,7.30376c0,4.28341 -2.72354,7.0841 -8.91341,9.11597c-2.41405,0.82373 -4.89,1.86713 -5.50898,2.30645c-1.54747,1.20814 -1.11418,3.45968 0.68089,4.00883c1.17607,0.38441 1.79506,0.21966 3.15683,-1.04339c0.92848,-0.82373 1.85696,-1.81221 1.98076,-2.25154c0.24759,-0.54915 0.92848,-0.54915 3.83772,0.21966c3.77582,0.98848 4.14721,1.48272 2.59974,4.06375c-2.41405,4.22849 -8.29442,6.31528 -14.2367,5.05223z"/>
   <path fill="#ffffff" d="m1912.36663,1328.20177c-4.08531,-0.93356 -7.36594,-3.899 -8.91341,-8.01766c-0.99038,-2.69086 -1.05228,-11.80683 -0.0619,-14.8821c1.85696,-5.71121 6.18987,-8.45699 13.24632,-8.45699c5.13759,0 7.61354,0.82373 10.21328,3.45968c2.90924,2.91052 3.59012,5.3268 3.59012,12.46582c0,5.6563 -0.1857,6.64478 -1.60937,9.39055c-1.29987,2.41628 -2.29025,3.45968 -4.39481,4.55799c-3.03304,1.59255 -8.66582,2.25154 -12.07024,1.48272zm6.31367,-7.19393c1.48557,-1.4278 2.10456,-11.91666 0.92848,-15.04685c-1.29987,-3.51459 -4.14721,-3.84408 -5.69468,-0.7139c-1.29987,2.74577 -1.11418,13.50921 0.30949,15.37634c1.29987,1.7573 2.90924,1.92204 4.4567,0.38441z"/>
   <path fill="#ffffff" d="m1814.87621,1327.15837c-4.33291,-2.52611 -6.06607,-6.58986 -6.06607,-14.38786c0,-8.18241 2.16645,-12.96006 6.87075,-15.10176c2.41405,-1.15323 6.06607,-1.04339 8.48012,0.27458l1.98076,1.09831l0,-6.0407l0,-6.0407l4.95189,0l4.95189,0l0,16.91397c0,9.28072 0.1857,18.50652 0.43329,20.59331l0.37139,3.67934l-3.09493,0c-2.90924,0 -3.21873,-0.10983 -3.89962,-1.64746c-0.86658,-1.86713 -1.36177,-2.03187 -2.53785,-0.76882c-2.29025,2.4712 -9.2848,3.29493 -12.44163,1.4278zm10.46088,-6.69969c0.49519,-0.87865 0.80468,-3.67934 0.80468,-7.68817c0,-7.13901 -0.68089,-8.95123 -3.21873,-9.2258c-2.90924,-0.32949 -3.65202,1.53763 -3.65202,9.2258c0,5.27189 0.1857,6.97427 0.99038,8.01766c1.29987,1.81221 3.96152,1.64746 5.07569,-0.32949z"/>
   <path fill="#ffffff" d="m1873.80375,1307.55354l0,-20.59331l4.95189,0l4.95189,0l0,5.71121l0,5.76613l2.16645,-0.82373c1.17607,-0.38441 3.09493,-0.76882 4.33291,-0.76882c7.73734,0 11.82265,6.20545 11.32746,17.24347c-0.43329,9.66513 -3.77582,14.05837 -10.83227,14.05837c-2.72354,0 -3.59012,-0.27458 -5.44708,-1.70238l-2.16645,-1.70238l0,1.37289c0,1.70238 -0.92848,2.03187 -5.63278,2.03187l-3.65202,0l0,-20.59331zm16.52695,12.90514c1.17607,-2.08679 1.05228,-13.34447 -0.1857,-15.43125c-0.80468,-1.37289 -1.23797,-1.64746 -2.90924,-1.48272c-3.03304,0.27458 -3.59012,1.81221 -3.40443,9.5553c0.1857,5.71121 0.37139,6.86444 1.36177,7.85292c1.60937,1.59255 4.08531,1.31797 5.13759,-0.49424z"/>
   <path fill="#ffffff" d="m1932.1742,1327.76244c-0.61899,-0.16475 -0.80468,-3.78917 -0.80468,-15.32142l0,-15.04685l4.89,0c3.89962,0 4.95189,0.16475 5.26139,0.87865c0.1857,0.49424 0.37139,4.28341 0.37139,8.45699c0,4.17358 0.24759,8.23732 0.55709,8.95123c0.92848,2.19662 3.15683,3.67934 5.44708,3.67934l2.04266,0l0,4.39324l0,4.39324l-1.98076,0c-2.59974,-0.05492 -4.5805,-1.04339 -6.12797,-3.07527l-1.17607,-1.59255l0,1.97696c0,1.31797 -0.30949,2.1417 -0.99038,2.36137c-1.11418,0.38441 -6.37556,0.38441 -7.48974,-0.05492z"/>
   <path fill="#ffffff" d="m1967.88974,1312.77051l0,-15.37634l4.95189,0l4.95189,0l-0.1238,15.26651l-0.1857,15.21159l-4.7662,0.16475l-4.8281,0.16475l0,-15.43125z"/>
  </g>
</svg>          