<svg width="512" height="512" xmlns="http://www.w3.org/2000/svg">
    <g stroke="null">
        <title>background</title>
        <rect x="-1" y="-1" width="355.10314" height="355.10314" id="canvas_background" fill="none" stroke="null"/>
    </g>

    <g stroke="null">
        <path fill="#000000" stroke-width="4" stroke-opacity="null" id="svg_55" d="m338.65957,200.45313c0,0 -0.87296,2.07217 0,6c1.17526,5.28799 5.71855,8.54914 6.92435,12c1.00328,2.87127 0,4 0,4c0,0 0,1 0,2c0,1 -0.44163,3.07612 0,4c1.24914,2.61312 2.30812,3 3.46217,4c1.15406,1 1.68354,0.69343 2.30812,2c0.44163,0.92387 0.88891,2.02674 1.15406,3c0.59289,2.17625 1.55358,3.70545 3.46217,6c1.50887,1.81399 2.30812,3 2.30812,4c0,1 1.15406,1 1.15406,1c0,0 0.35379,1.4588 -1.15406,2c-1.06621,0.38269 -2.30812,1 -3.46217,1c-1.15406,0 -2.30812,0 -3.46217,0c0,0 -1.15406,0 -1.15406,0c0,0 -1.15406,0 -1.15406,0c-1.15406,-1 -1.15406,-2 -3.46217,-3c-2.30812,-1 -3.25877,-1.48626 -5.77029,-2c-2.24637,-0.45951 -3.46217,0 -4.61623,0c-1.15406,0 -2.30812,0 -3.46217,0c0,0 0,0 -1.15406,0c-1.15406,0 -0.80027,0.4588 -2.30812,1c-2.13242,0.76536 -3.46217,0 -4.61623,0c-1.15406,0 -3.46217,0 -4.61623,0c-1.15406,0 -2.30812,0 -2.30812,0c-1.15406,0 -1.15406,0 -2.30812,0c0,0 0,0 0,0c-1.15406,0 -1.15406,0 -2.30812,0c-1.15406,0 -2.30812,0 -2.30812,0c-1.15406,0 -1.15406,0 -1.15406,0l-1.15406,0" stroke="#000000"/>
        <path fill="#000000" stroke="#000000" stroke-width="4" stroke-opacity="null" id="svg_54" d="m161.5,195.45313c0,0 0.75643,2.07217 0,6c-1.01837,5.28799 -4.95517,8.54915 -6,12c-0.86935,2.87128 0,4 0,4c0,0 0,1 0,2c0,1 0.38268,3.07613 0,4c-1.08239,2.61313 -2,3 -3,4c-1,1 -1.4588,0.69344 -2,2c-0.38268,0.92387 -0.77025,2.02675 -1,3c-0.51374,2.17625 -1.34619,3.70546 -3,6c-1.30745,1.814 -2,3 -2,4c0,1 -1,1 -1,1c0,0 -0.30656,1.4588 1,2c0.92388,0.38269 2,1 3,1c1,0 2,0 3,0c0,0 1,0 1,0c0,0 1,0 1,0c1,-1 1,-2 3,-3c2,-1 2.82375,-1.48625 5,-2c1.9465,-0.4595 3,0 4,0c1,0 2,0 3,0c0,0 0,0 1,0c1,0 0.69344,0.4588 2,1c1.84776,0.76537 3,0 4,0c1,0 3,0 4,0c1,0 2,0 2,0c1,0 1,0 2,0c0,0 0,0 0,0c1,0 1,0 2,0c1,0 2,0 2,0c1,0 1,0 1,0l1,0"/>
        <g id="shirt" stroke="null">
            <title>Shirt</title>
            <g id="svg_1" stroke="null">
                <g id="svg_2" stroke="null">
                    <title>Chest</title>
                    <path d="m255.74181,307.00899l44,0l98.846,21.665c27.533,6.035 47.154,30.421 47.154,58.609l0,85.726l-66,0l0,33l-124,0l-124,0l0,-33l-66,0l0,-85.726c0,-28.187 19.621,-52.574 47.154,-58.609l98.846,-21.665l44,0z" fill="#0000ff" id="svg_3" stroke="null"/>
                </g>
                <g id="svg_4" stroke="null">
                    <title>Left Sleeve</title>
                    <path fill="#ff0000" d="m131.9286,473.52537l-66,0l0,-20l66,0l0,20z" id="svg_5" stroke="null"/>
                </g>
                <g id="svg_6" stroke="null">
                    <title>Right Sleeve</title>
                    <path d="m379.92691,452.49199l66,0l0,20l-66,0l0,-20z" fill="#ff0000" id="svg_29" stroke="null"/>
                </g>
            </g>
        </g>
        <g id="skin-light" stroke="null">
            <title>Skin</title>
            <g id="svg_8" stroke="null">
                <title>Bottom Neck</title>
                <path d="m211.25968,269.84762l0,36c0,24.301 19.699,44 44,44s44,-19.699 44,-44l0,-36l-88,0z" fill="#ffd3b3" id="svg_9" stroke="null"/>
            </g>
            <g id="svg_10" stroke="null">
                <title>Top Neck</title>
                <path d="m211.25968,288.03562c13.499,5.851 28.376,9.812 44,9.812s30.501,-3.961 44,-9.812l0,-18.188l-88,0l0,18.188z" fill="#fcb98b" id="svg_12" stroke="null"/>
            </g>
            <g id="svg_13" stroke="null">
                <title>Face</title>
                <path d="m346.25968,92.84762l0,98c0,50.258 -40.742,91 -91,91c-50.258,0 -91,-40.742 -91,-91l0,-98l182,0z" fill="#ffd3b3" id="svg_14" stroke="null"/>
            </g>
            <g id="svg_15" stroke="null">
                <title>Left Ear</title>
                <path d="m150.25968,178.84762l14,0l0,-50l-14,0c-5.523,0 -10,4.477 -10,10l0,30c0,5.523 4.477,10 10,10z" fill="#ffd3b3" id="svg_16" stroke="null"/>
            </g>
            <g id="svg_17" stroke="null">
                <title>Right Ear</title>
                <path d="m360.25968,178.84762l-14,0l0,-50l14,0c5.523,0 10,4.477 10,10l0,30c0,5.523 -4.477,10 -10,10z" fill="#ffd3b3" id="svg_18" stroke="null"/>
            </g>
            <g id="svg_19" stroke="null">
                <title>Left Arm</title>
                <path d="m131.25968,504.84762l-66,0l0,-33l66,0l0,33z" fill="#ffd3b3" id="svg_20" stroke="null"/>
            </g>
            <g id="svg_21" stroke="null">
                <title>Right Arm</title>
                <path d="m379.25968,471.84762l66,0l0,33l-66,0l0,-33z" fill="#ffd3b3" id="svg_22" stroke="null"/>
            </g>
        </g>
        <g id="svg_4" stroke="null">
            <title>Simple Hair</title>
            <path d="m165,90.04217l0,51.95783l28.30769,-48.49398s34.37363,8.31325 63.69231,8.31325s63.69231,-8.31325 63.69231,-8.31325l28.30769,48.49398l0,-51.95783c0,-34.81729 -41.18972,-63.04217 -92.00001,-63.04217c-50.81029,0 -92.00001,28.22488 -92.00001,63.04217l0.00002,0z" fill="#000000" id="svg_5" stroke="null"/>
        </g>
        <line id="svg_11" y2="505.45313" x2="153.5" y1="323.45312" x1="154.5" stroke-width="4" fill="none" stroke="#ff0000"/>
        <line id="svg_23" y2="504.45313" x2="186.5" y1="315.45312" x1="187.5" stroke-width="4" fill="none" stroke="#ff0000"/>
        <line id="svg_24" y2="504.45313" x2="218.5" y1="322.45312" x1="219.5" stroke-width="4" fill="none" stroke="#ff0000"/>
        <line stroke="#ff0000" id="svg_25" y2="504.56425" x2="255.5" y1="354.45312" x1="255.5" stroke-width="4" fill="none"/>
        <line id="svg_26" y2="505.45313" x2="323.5" y1="316.45312" x1="324.5" stroke-width="4" fill="none" stroke="#ff0000"/>
        <line id="svg_27" y2="506.45313" x2="362.16666" y1="323.45312" x1="363.16666" stroke-width="4" fill="none" stroke="#ff0000"/>
        <rect stroke="null" id="svg_47" height="47.44444" width="32.11111" y="365.89757" x="327.50001" stroke-opacity="null" stroke-width="null" fill="#ffffff"/>
        <line stroke="#ff0000" id="svg_28" y2="504.67535" x2="290.5" y1="321.78644" x1="291.5" stroke-width="4" fill="none"/>
        <line id="svg_30" y2="505.45313" x2="153.5" y1="323.45312" x1="154.5" stroke-width="4" fill="none" stroke="#ff0000"/>
        <line id="svg_31" y2="453.45313" x2="118.5" y1="330.45312" x1="120.5" stroke-width="4" fill="none" stroke="#ff0000"/>
        <line id="svg_32" y2="455.45313" x2="81.5" y1="349.45312" x1="83.5" stroke-width="4" fill="none" stroke="#ff0000"/>
        <line id="svg_33" y2="451.45313" x2="393.5" y1="331.45312" x1="394.5" stroke-width="4" fill="none" stroke="#ff0000"/>
        <line id="svg_34" y2="451.45313" x2="430.5" y1="353.45312" x1="431.5" stroke-width="4" fill="none" stroke="#ff0000"/>
        <line transform="rotate(-2.1129188537597656 231.55555725097554,336.3420104980465) " id="svg_35" y2="369.34202" x2="259.05555" y1="303.34202" x1="204.05555" stroke-width="19" fill="none" stroke="#ffffff"/>
        <line stroke="#ffffff" transform="rotate(6.419910430908203 280.38888549804574,336.6198120117189) " id="svg_36" y2="368.79818" x2="252.69835" y1="304.44141" x1="308.07942" stroke-width="19" fill="none"/>
        <text style="cursor: move;" xml:space="preserve" text-anchor="start" font-family="'Times New Roman', Times, serif" font-size="20" id="svg_37" y="441.45313" x="165.5" stroke-width="0" fill="#ffffff" stroke="#ffffff">HUGH FOULERTON</text>
        <text style="cursor: move;" xml:space="preserve" text-anchor="start" font-family="'Times New Roman', Times, serif" font-size="20" id="svg_38" y="468.45313" x="206.5" stroke-width="0" fill="#ffffff" stroke="#ffffff">CUTLERY</text>
        <g stroke="null" transform="translate(0,263) scale(0.10000000149011612,-0.10000000149011612) " fill="#0000ff" id="svg_7">
            <path stroke="null" d="m3267.57835,-1262.03057l0,-240.85844l170.09973,0l170.09973,0l0,240.6451l0,240.85844l-170.09973,0.21334l-170.09973,0l0,-240.85844l0,0.00001l0,-0.00001zm325.6843,216.53792c0.6804,-5.33345 0.9072,-33.92072 0,-63.36135c-0.9072,-29.65396 -2.04119,-106.45559 -2.49479,-170.88362c-1.134,-104.96223 -1.58759,-117.7625 -4.98959,-121.1759c-2.04119,-2.13338 -4.536,-3.84008 -5.66999,-3.84008c-2.72159,0 -32.43235,-16.21368 -36.28794,-19.84042c-1.58759,-1.49336 -6.35039,-3.84008 -10.43279,-5.33345c-4.0824,-1.28003 -11.79358,-5.54679 -17.00997,-9.38687c-5.21639,-3.84008 -11.11318,-7.8935 -13.38118,-9.17353c-2.04119,-1.06669 -17.00997,-10.45356 -33.11275,-20.69377c-16.32958,-10.45356 -31.29835,-18.77373 -33.33955,-18.77373c-2.04119,0 -7.03079,1.7067 -10.88638,3.84008c-8.16478,4.26676 -7.25759,3.62674 -26.53556,16.85369c-8.16478,5.76012 -19.73157,13.01361 -26.08196,16.42702c-6.12359,3.41341 -16.55638,9.81354 -23.13356,14.29364c-6.57719,4.69343 -12.70078,8.32018 -13.83477,8.32018c-1.134,0 -3.402,1.49336 -5.21639,3.41341c-1.58759,1.7067 -6.57719,5.12011 -10.88638,7.25349c-4.536,2.13338 -10.20599,5.54679 -12.70078,7.46682c-2.49479,1.7067 -9.52559,6.40013 -15.87598,10.24022l-11.33998,6.82681l-0.4536,171.73697c-0.2268,94.50867 0,173.87035 0.4536,176.4304c1.134,4.4801 2.04119,4.69343 21.09237,3.84008c22.67997,-1.06669 132.451,-1.28003 162.61535,-0.21334c96.16306,2.98673 118.16261,3.84008 118.84302,4.69343c0.4536,0.42667 2.72159,0.85335 4.98959,0.85335c2.9484,0 4.3092,-2.34672 5.66999,-9.81354l-0.00003,0.00001z" id="svg_39"/>
            <path stroke="null" d="m3294.11391,-1054.23949c-0.6804,-0.85335 -1.58759,-36.26744 -2.04119,-78.29499l-0.6804,-76.80163l6.12359,-1.49336c3.402,-0.85335 23.81396,-1.28003 45.35993,-1.28003l39.23634,0.42667l0.6804,5.33345c2.49479,19.84042 17.23677,40.32085 34.47355,48.21436c4.98959,2.13338 9.52559,5.54679 9.97919,7.25349c0.6804,1.7067 1.3608,23.89384 1.81439,49.0677l0.6804,45.86764l-62.36991,0.21334c-34.24675,0.21334 -64.6379,0.85335 -67.3595,1.7067c-2.72159,0.85335 -5.44319,0.64002 -5.89679,-0.21334zm99.56504,-41.17421c4.3092,-13.44028 4.0824,-19.2004 -0.9072,-19.2004c-2.49479,0 -5.66999,2.98673 -7.93798,7.68016c-3.6288,7.04015 -4.536,7.46682 -11.33998,6.1868c-3.8556,-0.85335 -7.71118,-1.92004 -8.39158,-2.56005c-0.4536,-0.42667 -1.3608,-17.92038 -1.81439,-39.04083l-0.9072,-37.97414l5.89679,-3.62674c5.89679,-3.62674 7.93798,-10.24022 3.8556,-12.58694c-1.134,-0.64002 -9.97919,-0.64002 -19.50477,0.21334c-18.59757,1.49336 -24.04076,5.12011 -15.64918,10.45356c2.26799,1.49336 5.44319,3.62674 6.57719,4.69343c2.72159,2.13338 4.536,78.50833 1.81439,80.0017c-0.9072,0.42667 -4.98959,0.64002 -8.61838,0c-4.98959,-0.64002 -7.93798,-2.77339 -9.97919,-7.25349c-1.81439,-3.84008 -4.536,-6.1868 -7.48439,-6.1868c-4.0824,0 -4.3092,0.85335 -2.9484,11.30691c2.9484,19.62709 1.134,18.77373 40.14354,18.13371l34.24675,-0.64002l2.9484,-9.6002l-0.00002,0z" id="svg_40"/>
            <path stroke="null" d="m3464.44045,-1054.45284l-22.22637,-0.64002l0,-7.8935c0,-4.26676 -0.6804,-26.24055 -1.134,-48.64103l-1.134,-40.96087l8.84519,-3.20007c11.79358,-4.4801 24.49436,-15.14699 29.93755,-25.3872c4.3092,-8.10684 4.536,-8.10684 9.97919,-4.69343c5.66999,3.41341 5.66999,3.62674 5.66999,37.97414c0,18.77373 0.6804,37.97414 1.3608,42.2409c1.3608,7.25349 0.9072,8.32018 -4.3092,10.02687c-7.48439,2.77339 -9.52559,5.97346 -6.12359,9.81354c4.0824,4.69343 38.78274,4.26676 49.21553,-0.21334c10.88638,-4.90677 18.82437,-16.64035 18.82437,-27.73392c0,-11.30691 -4.98959,-22.82715 -12.47398,-28.1606l-5.89679,-4.4801l7.48439,-12.37359c8.84519,-14.93365 9.97919,-16.42702 19.50477,-24.74719c3.8556,-3.62674 7.25759,-7.68016 7.25759,-9.17353c0,-3.20007 -9.75239,-5.54679 -16.78318,-3.84008c-5.66999,1.28003 -15.19558,12.58694 -19.27797,22.61381c-1.134,2.98673 -6.12359,10.66689 -10.88638,16.85369l-8.39158,11.30691l-1.58759,-6.61348c-0.6804,-3.41341 -0.9072,-11.94692 -0.2268,-18.5604c0.9072,-10.45356 1.81439,-12.58694 6.35039,-14.0803c7.25759,-2.77339 7.03079,-9.81354 -0.2268,-11.52025c-2.9484,-0.64002 -11.33998,-0.64002 -18.37077,0l-12.92758,1.49336l1.3608,-8.10684c0.6804,-4.26676 2.04119,-8.53351 2.72159,-9.38687c1.81439,-1.49336 85.27667,-3.84008 86.18387,-2.34672c0.4536,0.64002 0.9072,33.2807 1.134,72.53487c0.2268,39.25416 0.6804,75.30827 0.6804,80.0017l0.2268,8.53351l-46.26713,0c-25.62836,0 -56.47312,-0.21334 -68.4935,-0.64002l0,0.00003l-0.00001,0.00002z" id="svg_41"/>
            <path stroke="null" d="m3512.29517,-1109.70734c0,-6.82681 -0.4536,-14.93365 -0.9072,-18.13371c-0.6804,-5.54679 -0.2268,-5.97346 6.57719,-5.97346c11.56678,0 15.42238,4.05341 16.78318,17.49371c0.9072,10.45356 0.4536,12.16025 -4.3092,15.36033c-2.9484,1.92004 -8.16478,3.41341 -11.56678,3.41341c-6.12359,0 -6.35039,-0.21334 -6.57719,-12.16025l0,-0.00001l0,-0.00002z" id="svg_42"/>
            <path stroke="null" d="m3409.78174,-1176.69543c-4.536,-4.90677 -3.8556,-7.8935 3.6288,-18.34706c2.9484,-4.05341 7.03079,-7.04015 9.52559,-7.04015c2.72159,0 5.89679,-1.06669 7.25759,-2.34672c1.58759,-1.49336 3.8556,-0.21334 7.25759,5.12011c2.49479,4.05341 4.76279,7.8935 4.76279,8.53351c0,1.92004 -9.52559,10.88023 -15.87598,14.93365c-7.25759,4.69343 -11.79358,4.4801 -16.55638,-0.85335l0,0.00001z" id="svg_43"/>
            <path stroke="null" d="m3462.39925,-1188.64234c-9.07199,-5.33345 -24.26756,-26.02722 -29.03036,-40.10752c-2.49479,-7.04015 -5.21639,-18.77373 -6.12359,-26.02722c-1.3608,-12.80027 -1.3608,-13.44028 4.3092,-15.787c4.536,-1.92004 7.48439,-1.92004 13.38118,0.21334c17.46357,6.61348 28.34996,19.2004 32.43235,38.18747l1.58759,7.46682l-10.65959,-8.96019c-5.89679,-4.69343 -14.28837,-9.81354 -18.82437,-11.30691c-7.03079,-2.13338 -8.39158,-1.92004 -11.11318,1.49336c-1.58759,2.13338 -2.9484,4.4801 -2.9484,5.33345c0,0.64002 6.35039,4.26676 14.28837,7.8935c10.20599,4.69343 16.32958,9.38687 21.77277,16.42702l7.25759,9.6002l-4.536,9.6002c-2.49479,5.33345 -4.76279,9.6002 -5.21639,9.38687c-0.4536,0 -3.402,-1.7067 -6.57719,-3.41341l0.00001,0.00001l0.00001,0.00001z" id="svg_44"/>
            <path stroke="null" d="m3292.29951,-1226.61648c0,0 -0.2268,-34.34739 -0.4536,-76.16161c-0.4536,-79.57502 -0.4536,-80.42837 9.29879,-85.76181c7.03079,-3.84008 31.97876,-19.41374 53.07112,-33.2807c10.88638,-7.04015 20.41197,-12.80027 21.31917,-12.80027c0.6804,0 8.61838,-5.12011 17.69037,-11.30691c15.87598,-11.30691 31.29835,-20.69377 33.79315,-20.69377c0.6804,0 1.3608,40.74753 1.3608,90.66859l0.2268,90.88193l-9.75239,3.84008c-17.46357,7.04015 -28.34996,20.90711 -33.79315,42.66757l-2.49479,10.88023l-17.23677,0c-9.52559,0 -29.71075,0.42667 -45.13313,0.64002c-15.19558,0.21334 -27.66956,0.42667 -27.89636,0.42667l0,-0.00001l-0.00001,-0.00001zm97.52385,-49.49438c1.134,-2.13338 2.72159,-8.32018 3.6288,-13.86696c1.3608,-8.32018 0.9072,-10.24022 -1.81439,-10.24022c-1.81439,0 -4.98959,2.34672 -6.80399,5.12011c-3.8556,5.54679 -12.92758,7.8935 -22.67997,6.1868c-6.35039,-1.28003 -6.35039,-1.28003 -5.66999,-15.36033l0.6804,-14.0803l7.48439,-0.64002c6.12359,-0.64002 7.71118,0.21334 9.52559,4.69343c2.49479,6.1868 7.93798,7.25349 9.97919,2.13338c2.26799,-5.33345 1.58759,-27.30724 -0.9072,-30.72065c-2.04119,-2.77339 -2.9484,-2.56005 -6.35039,1.28003c-2.04119,2.56005 -7.71118,5.12011 -12.24718,5.76012l-8.61838,1.28003l0,-16.42702c0,-15.14699 0.4536,-16.64035 6.12359,-20.90711c4.0824,-2.98673 5.44319,-5.54679 4.536,-8.10684c-1.3608,-2.98673 -4.3092,-3.41341 -20.18516,-2.98673c-17.00997,0.64002 -18.82437,1.06669 -18.82437,4.90677c0,2.34672 2.26799,5.12011 5.21639,6.40013c4.536,1.92004 4.98959,3.62674 5.44319,21.33379c0.9072,45.01429 -0.4536,61.4413 -5.21639,65.70806c-4.98959,4.4801 -5.21639,6.1868 -1.58759,9.6002c1.81439,1.7067 11.56678,2.56005 29.48395,2.56005c22.90677,0 26.98916,-0.42667 28.80356,-3.62674l-0.00003,0.00003l-0.00002,-0.00001z" id="svg_45"/>
            <path stroke="null" d="m3488.70801,-1232.16327c-0.9072,-2.34672 -0.9072,-4.90677 -0.2268,-5.54679c1.81439,-1.7067 -7.03079,-17.28037 -16.55638,-28.80061c-5.66999,-6.82681 -11.33998,-11.30691 -18.37077,-13.86696c-5.66999,-1.92004 -10.88638,-4.69343 -11.79358,-5.76012c-2.49479,-3.20007 -2.26799,-180.48383 0,-180.48383c2.04119,0 17.00997,8.74685 36.74154,21.54712c6.80399,4.4801 31.07155,18.77373 53.75151,31.78734c22.90677,13.01361 41.95793,24.53386 42.63833,25.3872c0.4536,1.06669 1.58759,36.69411 2.04119,79.36168l1.134,77.65498l-20.86557,0.42667c-11.56678,0.21334 -31.29835,0.85335 -43.99914,1.49336c-21.99957,1.28003 -23.13356,1.06669 -24.49436,-3.20007l0.00002,0.00002l0.00001,0.00001zm48.76192,-46.50765c7.48439,-3.41341 9.29879,-3.62674 11.56678,-1.06669c4.536,5.33345 6.57719,0.85335 6.57719,-15.36033c0,-12.58694 -0.6804,-15.787 -3.402,-15.787c-1.81439,0 -4.76279,3.20007 -6.35039,7.04015c-3.8556,8.10684 -7.93798,11.73358 -16.78318,14.0803c-17.23677,4.69343 -31.52515,-16.42702 -29.71075,-44.16093c1.3608,-23.46717 11.33998,-35.62742 29.25715,-35.62742c7.71118,0 10.43279,1.28003 15.87598,7.04015c9.97919,10.45356 18.14397,8.96019 12.02038,-2.13338c-9.29879,-16.85369 -21.54597,-23.04048 -38.78274,-18.98707c-14.28837,3.41341 -21.77277,9.38687 -29.25715,23.46717c-5.44319,10.02687 -6.57719,14.50697 -6.57719,27.94726c0.2268,21.54712 5.89679,36.48077 18.37077,48.42769c8.39158,7.8935 11.11318,9.17353 19.05117,9.17353c5.21639,0 13.38118,-1.92004 18.14397,-4.05341l0.00001,-0.00002z" id="svg_46"/>
        </g>
        <ellipse stroke="#ffffff" ry="16.38886" rx="14.72219" id="svg_48" cy="390.8326" cx="171.8335" fill-opacity="null" stroke-width="4" fill="none"/>
        <text stroke="#ffffff" transform="matrix(0.8002500534057617,0,0,0.7351994514465332,33.38008873164654,106.73117110133171) " xml:space="preserve" text-anchor="start" font-family="Helvetica, Arial, sans-serif" font-size="20" id="svg_51" y="395.30997" x="168.49974" fill-opacity="null" stroke-opacity="null" stroke-width="0" fill="#ffffff">L</text>
        <path fill="#000000" stroke-width="4" stroke-opacity="null" id="svg_52" d="m290.41036,103.84785c1,1.18501 1.69255,2.59043 3,4.74004c1.65381,2.71905 3.19028,5.78464 5,9.48007c1.12234,2.2918 2.48626,5.71618 3,8.29506c0.4595,2.30662 1.5405,5.98844 2,8.29506c0.51374,2.57888 1.48626,4.53117 2,7.11005c0.22975,1.15331 0,2.37002 0,4.74004c0,1.18501 -0.48626,3.34616 -1,5.92504c-0.4595,2.30662 -1.61732,4.83025 -2,5.92504c-0.5412,1.54829 -1,2.37002 -1,2.37002c0,1.18501 0,1.18501 0,1.18501c0,0 0,0 1,0c0,0 0.61732,-0.09021 1,-1.18501c1.08239,-3.09658 3.45049,-4.08886 6,-7.11005c2.54951,-3.0212 4.1731,-6.93555 5,-8.29506c1.30745,-2.1496 2,-4.74004 3,-7.11005c1,-2.37002 1,-4.74004 2,-5.92504c1,-1.18501 2.4588,-3.19174 3,-4.74004c0.38268,-1.0948 0.4588,-3.19174 1,-4.74004c0.76537,-2.18962 -0.32037,-3.58562 0,-5.92504c0.50654,-3.69894 1,-5.92504 1,-8.29506c0,-2.37002 0,-4.74004 0,-7.11005c0,-2.37002 0,-3.55503 -1,-4.74004c-1,-1.18501 -2,-1.18501 -2,-1.18501c-1,-1.18501 -1,-1.18501 -2,-2.37002c-1,-1.18501 -2.4588,-3.19174 -3,-4.74004c-0.38268,-1.0948 -1,-2.37002 -1,-2.37002l0,-1.18501l-1,0" transform="rotate(29.325122833251953 307.4103698730469,123.40048980712892) " stroke="#000000"/>
        <path fill="#000000" stroke-width="4" stroke-opacity="null" id="svg_53" d="m229.47302,103.29389c0,1.03699 0,1.03699 0,2.07398c0,2.07398 0,3.11097 0,5.18495c0,1.03699 -0.4336,1.51276 1.41438,2.07398c1.30671,0.39685 2.82876,0 4.24314,0c1.41438,0 1.41438,0 2.82876,0c0,0 1.08942,2.10172 1.41438,3.11097c0.72663,2.25676 1.41438,3.11097 2.82876,4.14796c1.41438,1.03699 2.39516,2.54975 4.24314,3.11097c1.30671,0.39685 2.82876,1.03699 4.24314,2.07398c0,0 0.41426,1.34072 1.41438,2.07398c1.00012,0.73326 1.41438,0 1.41438,0c1.41438,0 2.82876,0 2.82876,0c1.41438,0 1.41438,1.03699 1.41438,1.03699c1.41438,1.03699 1.08942,2.10172 1.41438,3.11097c0.72662,2.25676 2.82876,3.11097 2.82876,3.11097c1.41438,1.03699 1.41438,2.07398 2.82876,3.11097c0,0 0,1.03699 1.41438,1.03699c0,0 0,1.03699 0,1.03699c1.41438,1.03699 1.41438,2.07398 2.82876,2.07398c0,0 0,1.03699 0,1.03699c1.41438,0 2.82876,0 4.24314,-1.03699c1.41438,-1.03699 1.41438,-3.11097 1.41438,-4.14796c0,-1.03699 0,-1.03699 0,-1.03699c0,-1.03699 -0.54126,-1.11593 0,-2.07398c0.76546,-1.3549 3.47768,-1.75608 4.24314,-3.11097c0.54126,-0.95805 1.41438,-1.03699 1.41438,-2.07398c0,0 -0.32496,-0.02774 0,-1.03699c0.72662,-2.25676 2.10214,-2.9282 2.82876,-5.18495c0.64991,-2.01851 0,-2.07398 0,-3.11097c0,0 0,0 0,-1.03699c0,-1.03699 0,-3.11097 0,-3.11097c0,-1.03699 0,-1.03699 0,-1.03699c0,-1.03699 0,-1.03699 0,-2.07398c0,-1.03699 0,-1.03699 0,-1.03699c0,-1.03699 -0.67967,-3.15115 0,-6.22195c0.71644,-3.23691 3.51652,-5.00218 4.24314,-7.25894c0.32496,-1.00925 0,-1.03699 0,-2.07398c0,0 1.41438,-1.03699 2.82876,-2.07398c1.41438,-1.03699 2.82876,-2.07398 4.24314,-3.11097l0,0l0,0l0,0" transform="rotate(12.913919448852539 261.98165893554676,116.77476501464845) " stroke="#000000"/>
        <path fill="#000000" stroke="#000000" stroke-width="4" stroke-opacity="null" id="svg_56" d="m185.43104,107.76345c0,1 0,3 0,4c0,2 0,3 0,4c0,1 0,2 0,3c0,1 0,2 0,4c0,1 -0.22975,2.02675 0,3c0.51374,2.17625 2,4 3,5c1,1 2,2 3,3c1,1 1.29289,1.29289 2,2c0.70711,0.70711 2,1 3,1c2,0 3.29289,0.29289 4,1c0.70711,0.70711 0.29289,1.29289 1,2c0.70711,0.70711 2.07612,0.61731 3,1c1.30656,0.5412 2.07612,1.61731 3,2c1.30656,0.5412 3,1 3,1c1,0 2,0 2,0c0,0 1,0 1,0c0,0 1,0 1,0c0,-1 -0.82443,-2.09789 -2,-4c-0.52573,-0.85065 -1,-2 -2,-3c0,0 0,0 0,0c-1,-1 -1.69255,-2.186 -3,-4c-0.8269,-1.14726 -1,-2 -2,-2c0,0 0,-1 0,-1c-1,-1 -1.186,-2.69255 -3,-4c-1.14727,-0.8269 -2,-2 -2,-3c0,0 0.38268,-0.07613 0,-1c-0.5412,-1.30656 -1.34619,-2.70546 -3,-5c-1.30745,-1.814 -2,-3 -2,-4c0,0 0,-1 0,-1c0,-1 0,-1 0,-1c0,-1 0,-1 0,-2c0,0 0,-2 0,-3l0,0l0,-1l0,0" transform="rotate(14.734225273132324 199.87997436523438,124.26345062255854) "/>
        <path fill="#000000" stroke="#000000" stroke-width="4" stroke-opacity="null" id="svg_57" d="m311.5,38.45313c0,1 0,3 0,4c0,2 0,3 0,4c0,1 0,2 0,3c0,1 0,2 0,4c0,1 -0.22975,2.02674 0,3c0.51374,2.17625 2,4 3,5c1,1 2,2 3,3c1,1 1.29289,1.29289 2,2c0.70711,0.7071 2,1 3,1c2,0 3.29289,0.29289 4,1c0.70711,0.7071 0.29289,1.29289 1,2c0.70711,0.7071 2.07612,0.6173 3,1c1.30656,0.54119 2.07612,1.6173 3,2c1.30656,0.54119 3,1 3,1c1,0 2,0 2,0c0,0 1,0 1,0c0,0 1,0 1,0c0,-1 -0.82443,-2.09789 -2,-4c-0.52573,-0.85065 -1,-2 -2,-3c0,0 0,0 0,0c-1,-1 -1.69255,-2.18601 -3,-4c-0.8269,-1.14727 -1,-2 -2,-2c0,0 0,-1 0,-1c-1,-1 -1.186,-2.69256 -3,-4c-1.14727,-0.82691 -2,-2 -2,-3c0,0 0.38268,-0.07613 0,-1c-0.5412,-1.30657 -1.34619,-2.70546 -3,-5c-1.30745,-1.814 -2,-3 -2,-4c0,0 0,-1 0,-1c0,-1 0,-1 0,-1c0,-1 0,-1 0,-2c0,0 0,-2 0,-3l0,0l0,-1l0,0" transform="rotate(-117.92601776123047 325.9489440917969,54.95313262939453) "/>
        <path fill="#000000" stroke="#000000" stroke-width="4" stroke-opacity="null" id="svg_58" d="m169.5,43.45313c0,1 0,3 0,4c0,2 0,3 0,4c0,1 0,2 0,3c0,1 0,2 0,4c0,1 -0.22975,2.02674 0,3c0.51374,2.17625 2,4 3,5c1,1 2,2 3,3c1,1 1.29289,1.29289 2,2c0.70711,0.7071 2,1 3,1c2,0 3.29289,0.29289 4,1c0.70711,0.7071 0.29289,1.29289 1,2c0.70711,0.7071 2.07612,0.6173 3,1c1.30656,0.54119 2.07612,1.6173 3,2c1.30656,0.54119 3,1 3,1c1,0 2,0 2,0c0,0 1,0 1,0c0,0 1,0 1,0c0,-1 -0.82443,-2.09789 -2,-4c-0.52573,-0.85065 -1,-2 -2,-3c0,0 0,0 0,0c-1,-1 -1.69255,-2.18601 -3,-4c-0.8269,-1.14727 -1,-2 -2,-2c0,0 0,-1 0,-1c-1,-1 -1.186,-2.69256 -3,-4c-1.14727,-0.82691 -2,-2 -2,-3c0,0 0.38268,-0.07613 0,-1c-0.5412,-1.30657 -1.34619,-2.70546 -3,-5c-1.30745,-1.814 -2,-3 -2,-4c0,0 0,-1 0,-1c0,-1 0,-1 0,-1c0,-1 0,-1 0,-2c0,0 0,-2 0,-3l0,0l0,-1l0,0" transform="rotate(-168.76031494140625 183.94894409179688,59.953132629394524) "/>
        <path fill="#000000" stroke="#000000" stroke-width="4" stroke-opacity="null" id="svg_59" d="m249.5,19.45313c0,1 0,3 0,4c0,2 0,3 0,4c0,1 0,2 0,3c0,1 0,2 0,4c0,1 -0.22975,2.02674 0,3c0.51374,2.17625 2,4 3,5c1,1 2,2 3,3c1,1 1.29289,1.29289 2,2c0.70711,0.7071 2,1 3,1c2,0 3.29289,0.29289 4,1c0.70711,0.7071 0.29289,1.29289 1,2c0.70711,0.7071 2.07612,0.6173 3,1c1.30656,0.54119 2.07612,1.6173 3,2c1.30656,0.54119 3,1 3,1c1,0 2,0 2,0c0,0 1,0 1,0c0,0 1,0 1,0c0,-1 -0.82443,-2.09789 -2,-4c-0.52573,-0.85065 -1,-2 -2,-3c0,0 0,0 0,0c-1,-1 -1.69255,-2.18601 -3,-4c-0.8269,-1.14727 -1,-2 -2,-2c0,0 0,-1 0,-1c-1,-1 -1.186,-2.69256 -3,-4c-1.14727,-0.82691 -2,-2 -2,-3c0,0 0.38268,-0.07613 0,-1c-0.5412,-1.30657 -1.34619,-2.70546 -3,-5c-1.30745,-1.814 -2,-3 -2,-4c0,0 0,-1 0,-1c0,-1 0,-1 0,-1c0,-1 0,-1 0,-2c0,0 0,-2 0,-3l0,0l0,-1l0,0" transform="rotate(-168.76031494140625 263.9489440917969,35.953132629394524) "/>
        <path fill="#000000" stroke-width="4" stroke-opacity="null" id="svg_60" d="m158.22841,72.4186c0,1.57785 0,4.73355 0,6.3114c0,3.1557 0,4.73355 0,6.3114c0,1.57785 0,3.1557 0,4.73355c0,1.57785 0,3.1557 0,6.3114c0,1.57785 -0.21022,3.19789 0,4.73355c0.47006,3.4338 1.82996,6.3114 2.74495,7.88925c0.91498,1.57785 1.82996,3.1557 2.74495,4.73355c0.91498,1.57785 1.18297,2.03999 1.82996,3.1557c0.64699,1.1157 1.82996,1.57785 2.74495,1.57785c1.82996,0 3.01294,0.46214 3.65993,1.57785c0.64699,1.1157 0.26799,2.03999 0.91498,3.1557c0.64699,1.1157 1.89961,0.97401 2.74495,1.57785c1.19548,0.85392 1.89961,2.55186 2.74495,3.1557c1.19548,0.85392 2.74495,1.57785 2.74495,1.57785c0.91498,0 1.82996,0 1.82996,0c0,0 0.91498,0 0.91498,0c0,0 0.91498,0 0.91498,0c0,-1.57785 -0.75434,-3.31016 -1.82996,-6.3114c-0.48103,-1.3422 -0.91498,-3.1557 -1.82996,-4.73355c0,0 0,0 0,0c-0.91498,-1.57785 -1.54865,-3.4492 -2.74495,-6.3114c-0.7566,-1.81022 -0.91498,-3.1557 -1.82996,-3.1557c0,0 0,-1.57785 0,-1.57785c-0.91498,-1.57785 -1.08517,-4.24846 -2.74495,-6.3114c-1.04973,-1.30474 -1.82996,-3.1557 -1.82996,-4.73355c0,0 0.35015,-0.12012 0,-1.57785c-0.49519,-2.06157 -1.23174,-4.26881 -2.74495,-7.88925c-1.19629,-2.86222 -1.82996,-4.73355 -1.82996,-6.3114c0,0 0,-1.57785 0,-1.57785c0,-1.57785 0,-1.57785 0,-1.57785c0,-1.57785 0,-1.57785 0,-3.1557c0,0 0,-3.1557 0,-4.73355l0,0l0,-1.57785l0,0" transform="rotate(35.158390045166016 171.44894409179693,98.45313262939449) " stroke="#000000"/>
        <path fill="#000000" stroke-width="4" stroke-opacity="null" id="svg_61" d="m376.54068,98.37198c0,1.27765 0,3.83294 0,5.11059c0,2.55529 0,3.83294 0,5.11059c0,1.27765 0,2.55529 0,3.83294c0,1.27765 0,2.55529 0,5.11059c0,1.27765 0.66132,2.58946 0,3.83294c-1.47884,2.78048 -5.75707,5.11059 -8.63558,6.38823c-2.87852,1.27765 -5.75707,2.55529 -8.63558,3.83294c-2.87852,1.27765 -3.72161,1.65186 -5.75703,2.5553c-2.03546,0.90342 -5.75707,1.27765 -8.63558,1.27765c-5.75707,0 -9.47868,0.3742 -11.5141,1.27765c-2.03542,0.90342 -0.84309,1.65185 -2.87852,2.55529c-2.03546,0.90342 -5.97618,0.78869 -8.63558,1.27765c-3.76097,0.69144 -5.97615,2.06633 -8.63558,2.55529c-3.76097,0.69144 -8.63555,1.27765 -8.63555,1.27765c-2.87855,0 -5.75707,0 -5.75707,0c0,0 -2.87852,0 -2.87852,0c0,0 -2.87852,0 -2.87852,0c0,-1.27765 2.37311,-2.68037 5.75703,-5.11059c1.51332,-1.08683 2.87852,-2.55529 5.75707,-3.83294c0,0 0,0 0,0c2.87852,-1.27765 4.87204,-2.79295 8.63555,-5.11059c2.38026,-1.46581 2.87855,-2.55529 5.75707,-2.55529c0,0 0,-1.27765 0,-1.27765c2.87852,-1.27765 3.41393,-3.44013 8.63555,-5.11059c3.30247,-1.0565 5.75707,-2.55529 5.75707,-3.83294c0,0 -1.10157,-0.09727 0,-1.27765c1.55786,-1.66933 3.87504,-3.45662 8.63558,-6.38823c3.76352,-2.31765 5.75703,-3.83294 5.75703,-5.11059c0,0 0,-1.27765 0,-1.27765c0,-1.27765 0,-1.27765 0,-1.27765c0,-1.27765 0,-1.27765 0,-2.55529c0,0 0,-2.55529 0,-3.83294l0,0l0,-1.27765l0,0" transform="rotate(-51.575862884521484 334.9490356445313,119.4531402587891) " stroke="#000000"/>
        <path fill="#000000" stroke-width="4" stroke-opacity="null" id="svg_62" d="m197.98965,158.58706c0,-1.59447 0,-4.78342 0,-6.37789c0,-3.18896 0,-4.78342 0,-6.3779c0,-1.59447 0,-3.18894 0,-4.78342c0,-1.59447 0,-3.18894 0,-6.37789c0,-1.59448 0.26562,-3.23159 0,-4.78342c-0.59397,-3.46998 -2.31232,-6.3779 -3.46848,-7.97237c-1.15615,-1.59448 -2.31232,-3.18896 -3.46847,-4.78342c-1.15615,-1.59449 -1.49478,-2.06148 -2.31231,-3.18896c-0.81754,-1.12745 -2.31232,-1.59448 -3.46848,-1.59448c-2.31232,0 -3.8071,-0.46699 -4.62463,-1.59448c-0.81752,-1.12744 -0.33863,-2.06147 -1.15615,-3.18894c-0.81754,-1.12745 -2.40033,-0.98427 -3.46847,-1.59448c-1.51059,-0.8629 -2.40032,-2.57873 -3.46847,-3.18894c-1.51059,-0.8629 -3.46846,-1.59448 -3.46846,-1.59448c-1.15616,0 -2.31232,0 -2.31232,0c0,0 -1.15615,0 -1.15615,0c0,0 -1.15615,0 -1.15615,0c0,1.59448 0.95316,3.34504 2.31231,6.3779c0.60782,1.35634 1.15615,3.18894 2.31232,4.78342c0,0 0,0 0,0c1.15615,1.59448 1.95685,3.48554 3.46846,6.3779c0.95603,1.8293 1.15617,3.18896 2.31232,3.18896c0,0 0,1.59447 0,1.59447c1.15615,1.59448 1.37121,4.29322 3.46846,6.3779c1.32643,1.31849 2.31232,3.18894 2.31232,4.78342c0,0 -0.44244,0.12138 0,1.59447c0.62571,2.0833 1.55641,4.31378 3.46848,7.97238c1.51161,2.89238 2.31231,4.78341 2.31231,6.37789c0,0 0,1.59448 0,1.59448c0,1.59447 0,1.59447 0,1.59447c0,1.59448 0,1.59448 0,3.18896c0,0 0,3.18894 0,4.78342l0,0l0,1.59447l0,0" transform="rotate(-150.38027954101562 181.28439331054685,132.27822875976562) " stroke="#000000"/>
        <path fill="#000000" stroke="#000000" stroke-width="4" stroke-opacity="null" id="svg_63" d="m159.8449,69.79791c0,1 0,3 0,4c0,2 0,3 0,4c0,1 0,2 0,3c0,1 0,2 0,4c0,1 -0.22975,2.02674 0,3c0.51374,2.17625 2,4 3,5c1,1 2,2 3,3c1,1 1.29289,1.29289 2,2c0.70711,0.7071 2,1 3,1c2,0 3.29289,0.29289 4,1c0.70711,0.7071 0.29289,1.29289 1,2c0.70711,0.7071 2.07612,0.6173 3,1c1.30656,0.54119 2.07612,1.6173 3,2c1.30656,0.54119 3,1 3,1c1,0 2,0 2,0c0,0 1,0 1,0c0,0 1,0 1,0c0,-1 -0.82443,-2.09789 -2,-4c-0.52573,-0.85065 -1,-2 -2,-3c0,0 0,0 0,0c-1,-1 -1.69255,-2.18601 -3,-4c-0.8269,-1.14727 -1,-2 -2,-2c0,0 0,-1 0,-1c-1,-1 -1.186,-2.69256 -3,-4c-1.14727,-0.82691 -2,-2 -2,-3c0,0 0.38268,-0.07613 0,-1c-0.5412,-1.30657 -1.34619,-2.70546 -3,-5c-1.30745,-1.814 -2,-3 -2,-4c0,0 0,-1 0,-1c0,-1 0,-1 0,-1c0,-1 0,-1 0,-2c0,0 0,-2 0,-3l0,0l0,-1l0,0" transform="rotate(-168.76031494140625 174.2938537597656,86.29791259765625) "/>
        <path fill="#000000" stroke="#000000" stroke-width="4" stroke-opacity="null" id="svg_64" d="m294.32755,32.55657c0,1 0,3 0,4c0,2 0,3 0,4c0,1 0,2 0,3c0,1 0,2 0,4c0,1 -0.22975,2.02674 0,3c0.51374,2.17625 2,4 3,5c1,1 2,2 3,3c1,1 1.29289,1.29289 2,2c0.70711,0.7071 2,1 3,1c2,0 3.29289,0.29289 4,1c0.70711,0.7071 0.29289,1.29289 1,2c0.70711,0.7071 2.07612,0.6173 3,1c1.30656,0.54119 2.07612,1.6173 3,2c1.30656,0.54119 3,1 3,1c1,0 2,0 2,0c0,0 1,0 1,0c0,0 1,0 1,0c0,-1 -0.82443,-2.09789 -2,-4c-0.52573,-0.85065 -1,-2 -2,-3c0,0 0,0 0,0c-1,-1 -1.69255,-2.18601 -3,-4c-0.8269,-1.14727 -1,-2 -2,-2c0,0 0,-1 0,-1c-1,-1 -1.186,-2.69256 -3,-4c-1.14727,-0.82691 -2,-2 -2,-3c0,0 0.38268,-0.07613 0,-1c-0.5412,-1.30657 -1.34619,-2.70546 -3,-5c-1.30745,-1.814 -2,-3 -2,-4c0,0 0,-1 0,-1c0,-1 0,-1 0,-1c0,-1 0,-1 0,-2c0,0 0,-2 0,-3l0,0l0,-1l0,0" transform="rotate(-168.76031494140625 308.7764892578125,49.05657196044921) "/>
        <ellipse fill="#000000" stroke-width="4" stroke-opacity="null" cx="252.55174" cy="87.93096" id="svg_65" rx="75.862" ry="32.06894" stroke="#000000"/>
    </g>
</svg>