<svg width="512" height="512" xmlns="http://www.w3.org/2000/svg">
 <g>
  <title>background</title>
  <rect x="-1" y="-1" width="514" height="514" id="canvas_background" fill="none"/>
 </g>

 <g>
  <title>Layer 1</title>
  <g id="svg_1">
   <g id="svg_2">
    <path d="m262.42039,305.84753l44,0l98.846,21.665c27.533,6.035 47.154,30.421 47.154,58.609l0,85.726l-66,0l0,33l-124,0l-124,0l0,-33l-66,0l0,-85.726c0,-28.187 19.621,-52.574 47.154,-58.609l98.846,-21.665l44,0z" fill="#ffffff" id="svg_3" transform="rotate(-0.06285365670919418 262.4203796387507,405.347534179689) "/>
   </g>
   <g id="svg_4">
    <path d="m405.23732,327.51255l-98.846,-21.665l-44,0l-44,0l-98.846,21.665c-27.533,6.035 -47.154,30.421 -47.154,58.609l0,65.726l20,0l0,-65.726c0,-18.648 13.221,-35.08 31.436,-39.073l96.73,-21.201l83.668,0l96.73,21.201c18.215,3.992 31.436,20.425 31.436,39.073l0,65.726l20,0l0,-65.726c0,-28.188 -19.621,-52.574 -47.154,-58.609z" fill="#ff7b7b" id="svg_5"/>
   </g>
   <g id="svg_6" transform="rotate(-0.06285365670919418 262.3913269043726,378.84756469724954) ">
    <path d="m405.23732,327.51255l-98.846,-21.665l-44,0l-44,0l-98.846,21.665c-27.533,6.035 -47.154,30.421 -47.154,58.609l0,65.726l20,0l0,-65.726c0,-18.648 13.221,-35.08 31.436,-39.073l96.73,-21.201l83.668,0l96.73,21.201c18.215,3.992 31.436,20.425 31.436,39.073l0,65.726l20,0l0,-65.726c0,-28.188 -19.621,-52.574 -47.154,-58.609z" fill="#ffffff" id="svg_7"/>
   </g>
   <g id="svg_8" transform="rotate(-0.06285365670919418 105.51152801508795,488.5197143554775) ">
    <path d="m138.51154,505.01971l-66,0l0,-33l66,0l0,33z" fill="#ffd3b3" id="svg_9"/>
   </g>
   <g id="svg_12" transform="rotate(-0.06285365670919418 419.51135253908274,488.1752624512016) ">
    <path d="m386.51135,471.67525l66,0l0,33l-66,0l0,-33z" fill="#ffd3b3" id="svg_13"/>
   </g>
   <g id="svg_10" transform="rotate(-0.06285365670919418 105.48246002203503,462.01974487305006) ">
    <!-- Left Sleeve -->
    <path id="svg_11" fill="#ffffff" d="m138.48247,472.01973l-66,0l0,-20l66,0l0,20z"/>
   </g>
   <!--
Collar-->
   <g id="svg_14" transform="rotate(-0.06285365670919418 259.14086914062403,343.8511047363524) ">
    <path d="m303.14087,309.85109l-88,0l-23.78,5.212c2.673,35.067 32.04,62.788 67.78,62.788s65.107,-27.721 67.78,-62.788l-23.78,-5.212z" fill="#0000ff" id="svg_15"/>
   </g>
   <g id="svg_16" transform="rotate(-0.06285365670919418 262.3156127930152,309.847595214828) ">
    <path d="m218.31563,269.84759l0,36c0,24.301 19.699,44 44,44s44,-19.699 44,-44l0,-36l-88,0z" fill="#ffd3b3" id="svg_17"/>
   </g>
   <g id="svg_18" transform="rotate(-0.06285365670919418 262.2871093749877,283.8476257324036) ">
    <path d="m218.2871,288.0356c13.499,5.851 28.37601,9.812 44,9.812s30.501,-3.961 44,-9.812l0,-18.188l-88,0l0,18.188z" fill="#fcb98b" id="svg_19"/>
   </g>
   <g id="svg_20" transform="rotate(-0.06285365670919418 262.6812438965047,187.34710693358204) ">
    <path d="m344.18125,92.84711l0,98c0,50.258 -36.48872,91 -81.5,91c-45.01129,0 -81.5,-40.742 -81.5,-91l0,-98l163.00001,0z" fill="#ffd3b3" id="svg_21"/>
   </g>
   <g id="svg_24" transform="rotate(-0.06285365670919418 171.14454650882612,153.96067810057409) ">
    <path d="m169.14456,178.96067l14,0l0,-50l-14,0c-5.523,0 -10,4.477 -10,10l0,30c0,5.523 4.477,10 10,10z" fill="#ffd3b3" id="svg_25"/>
   </g>
   <g id="svg_26" transform="rotate(-0.06285365670919418 356.1444396973186,153.7346954346111) ">
    <path d="m358.14443,178.73469l-14,0l0,-50l14,0c5.523,0 10,4.477 10,10l0,30c0,5.523 -4.477,10 -10,10z" fill="#ffd3b3" id="svg_27"/>
   </g>
   <g id="svg_28" transform="rotate(-0.06285365670919418 419.4822692870783,461.675262451183) ">
    <!-- Right Sleeve -->
    <path d="m386.48228,451.67527l66,0l0,20l-66,0l0,-20z" fill="#ffffff" id="svg_29"/>
   </g>
  </g>
  <text transform="matrix(0.801245885957119,0,0,0.7244940805840585,52.182838277747734,127.87108704232459) " fill="#0000ff" stroke-width="0" stroke-opacity="null" x="188.74269" y="456.29774" id="svg_31" font-size="39" font-family="Helvetica, Arial, sans-serif" text-anchor="start" xml:space="preserve" font-weight="bold">WIRRAL</text>
  <path stroke="#0000ff" transform="rotate(41.7635498046875 323.2682495117188,375.7119140625) " id="svg_59" d="m297.20819,385.99215l0,-20.56044l52.12014,20.56044l-52.12014,0z" stroke-width="6" fill="#0000ff"/>
  <path stroke="#0000ff" transform="rotate(-40.26166915893555 198.1822357177734,366.87814331054693) " id="svg_60" d="m222.65679,377.15835l0,-20.56043l-48.94911,20.56043l48.94911,0z" stroke-width="6" fill="#0000ff"/>
  <g id="svg_31" fill="#000000" transform="translate(0,217) scale(0.10000000149011612,-0.10000000149011612) ">
   <title>Tranmere Logo</title>
   <path fill="#0000ff" id="svg_33" d="m2484.22923,-1876.05119l0.42201,-113.63103l43.1854,-26.01832c23.6324,-14.15963 47.54614,-28.49626 53.03224,-31.68217l9.9875,-5.84085l52.7509,32.56715l52.7509,32.56715l0,112.74605l0,112.92306l-106.20515,0l-106.20514,0l0.28134,-113.63104l0,0zm209.31557,55.22256l0,-54.86857l-30.9472,0l-30.94719,0l-2.67271,6.72583c-3.23539,8.14178 -13.22289,20.00048 -19.41233,23.18639l-4.64208,2.30094l0,38.76199l0,38.76199l44.31075,0l44.31076,0l0,-54.86857l0,0zm-118.44335,14.69062l0.28133,-35.75307l-4.22007,-2.83193c-7.03345,-4.60188 -14.77025,-14.33662 -17.58363,-22.12442l-2.53205,-7.07981l-30.10317,0l-29.96251,0l0,52.21363l0,52.21364l41.91938,-0.35399l41.77871,-0.53099l0.422,-35.75306l0,0l0.00001,0zm22.22571,30.79719c3.37605,-3.7169 3.65739,-4.95587 2.81338,-10.79672c-0.98469,-6.90282 -4.22007,-8.14178 -4.50141,-1.76995c-0.14067,1.76995 -0.28134,4.42488 -0.42201,5.66385c-0.14067,3.18592 -7.17412,1.94695 -9.00282,-1.59296c-2.39137,-4.77887 0,-11.68169 4.64208,-13.62864l4.22007,-1.94695l0,-20.35447l0,-20.53146l-4.22007,0l-4.22007,0l0,17.52254c0,17.16855 -0.14067,17.69954 -4.22007,22.8324c-11.25353,14.33663 2.81338,37.52302 14.91092,24.60236l0,0zm11.11285,-73.45308c6.61145,-4.24789 14.91092,-14.69062 18.28698,-23.18639c3.23539,-8.14179 4.36074,-24.77936 2.11004,-34.33711c-2.67271,-12.03568 -10.83152,-24.24836 -20.25635,-30.26621c-15.75493,-10.26573 -33.6199,-6.01784 -45.85811,10.61973c-7.7368,10.61972 -10.26884,18.58451 -10.40951,32.74414c0,20.35447 10.26884,39.82396 25.03909,46.54978c8.01814,3.8939 23.77307,2.65494 31.08786,-2.12394zm-55.98628,-66.72726c2.39137,-8.67277 10.55018,-19.46949 17.58363,-23.36339l5.34542,-3.00892l0,-49.02772l0,-49.20471l-30.52518,18.58451c-16.88029,10.26573 -36.8553,22.30142 -44.31076,26.7263l-13.78556,8.14179l0,39.64696l0,39.46997l31.7912,-0.35399l31.93188,-0.53098l1.96937,-7.07982l0,0zm139.68438,-30.08921l0,-38.05401l-43.60741,-27.43428l-43.60741,-27.43429l0,47.43476l0,47.43477l4.64208,2.12394c7.45546,3.36291 16.03627,13.80564 19.975,24.24837l3.6574,9.73474l29.39983,0l29.54051,0l0,-38.054l0,0zm-97.34299,-43.71786c-0.28134,-32.39016 -0.84402,-44.07185 -2.39138,-47.25777c-3.93873,-8.84977 -5.06408,0.35399 -5.48609,46.37279l-0.42201,43.71786l4.36074,0l4.36074,0l-0.422,-42.83288l0,0z"/>
   <path fill="#0000ff" id="svg_34" d="m2609.14336,-1805.60703l0,-34.3371l6.18944,-4.60188c6.47077,-4.77887 14.20757,-14.69062 16.59895,-21.59344l1.54736,-4.24789l28.69648,0l28.55582,0l0,49.55871l0,49.55871l-40.79402,0l-40.79403,0l0,-34.33711l0,0zm49.79685,19.1155c1.26602,-0.53098 2.2507,-2.12394 2.2507,-3.5399c0,-1.41597 1.40669,-2.47794 3.23539,-2.47794c3.51673,0 6.75211,-6.54883 8.58081,-17.16855c0.84402,-4.77888 0.56268,-5.66385 -2.11003,-6.72583c-2.81339,-1.23896 -2.81339,-1.41596 -0.84402,-3.00892c3.37606,-2.30094 3.09472,-8.49577 -0.42201,-8.49577c-1.68802,0 -2.81338,1.23896 -2.95404,3.18591c0,2.30094 -0.28134,2.12395 -1.26603,-0.88497c-1.12535,-3.36292 -2.39137,-4.0709 -7.45546,-4.0709c-3.79806,0 -6.89278,1.06197 -8.01813,2.65493c-0.98469,1.41597 -2.39138,2.65493 -3.23539,2.65493c-2.11004,0 4.78275,-6.37183 8.58081,-7.78779c1.68803,-0.70798 3.09472,-2.12395 3.09472,-3.18592c0,-1.06197 -0.98468,-1.23897 -2.39137,-0.53099c-1.40669,0.88498 -5.62676,1.59296 -9.5655,1.94695c-4.22007,0.35399 -7.59613,1.59296 -8.58081,3.18592c-1.12535,2.12395 -1.8287,2.30094 -3.23539,0.53099c-1.40669,-1.59296 -2.39137,-1.06198 -5.06409,2.83192c-1.82869,2.65493 -3.09472,6.01785 -2.67271,7.43381c0.98469,3.00892 4.22007,3.53991 5.4861,0.88498c0.422,-0.88498 1.82869,-1.76996 2.95404,-1.76996c1.4067,0 1.26603,0.88498 -0.84401,3.53991c-1.54736,1.94695 -3.65739,3.53991 -4.78275,3.53991c-1.12535,0 -2.39137,1.23896 -2.81338,2.83192c-0.98468,3.36291 1.40669,9.55775 3.93874,9.55775c1.12535,0 1.68802,1.41597 1.26602,4.0709c-0.98469,6.01784 3.79806,10.44272 10.40951,9.73474c4.0794,-0.35399 5.34542,-1.23897 5.20475,-3.53991c-0.28133,-3.5399 -0.28133,-3.5399 2.95405,-2.12394c1.68803,0.88498 1.8287,1.59296 0.70335,2.47793c-4.22007,3.36292 2.2507,6.90282 7.59613,4.24789l0,0z"/>
   <path fill="#0000ff" id="svg_35" d="m2533.18206,-1781.88965c-1.12535,-0.88497 -4.22007,-2.47793 -6.75211,-3.7169c-3.51673,-1.59296 -4.50141,-3.00892 -4.0794,-5.48686c0.56267,-2.12394 0,-3.18591 -1.54736,-3.18591c-1.40669,-0.177 -0.56268,-1.23897 1.82869,-2.47794c3.79807,-2.12394 3.93874,-2.47793 1.54736,-3.7169c-3.93873,-2.12395 -9.56549,7.07981 -8.44014,13.80564c0.56268,3.7169 0.28134,4.77887 -1.54736,4.77887c-1.26602,0 -1.8287,-0.88497 -1.26602,-1.94694c0.56267,-1.41597 -0.14067,-1.59296 -2.25071,-0.70799c-2.2507,0.88498 -2.95405,0.70799 -2.53204,-1.06197c0.42201,-1.41596 -0.28134,-3.53991 -1.54736,-4.60188c-1.96937,-1.94695 -1.8287,-2.30094 0.98468,-3.36291c2.11004,-0.70798 3.09472,-2.47794 3.09472,-5.30986c0,-2.30094 1.26602,-5.66385 2.81338,-7.25681c3.37606,-3.71691 3.51673,-6.37184 0.70335,-9.38076c-1.68803,-1.76995 -2.53204,-1.76995 -4.22007,0c-2.67272,2.83193 -5.62677,0.53099 -3.37606,-2.83192c1.12535,-1.76996 1.12535,-2.47794 0,-2.47794c-0.84401,0 -1.54736,-1.23897 -1.54736,-2.65493c0,-1.41596 0.84401,-2.65493 1.96937,-2.65493c1.12535,0 2.2507,-0.88498 2.53204,-1.94695c0.28134,-1.06197 2.81338,-0.35399 6.47078,2.12395c5.76743,3.89389 5.9081,3.89389 7.87746,0.70798c1.68803,-3.00892 1.68803,-3.71691 -0.28133,-5.48686c-1.40669,-1.23897 -1.8287,-3.36291 -1.12536,-6.54883c0.98469,-5.30986 -0.70334,-6.19484 -3.37605,-2.12394c-2.25071,3.36291 -4.22007,3.36291 -4.22007,0.17699c0,-1.41596 -0.84402,-3.00892 -1.68803,-3.53991c-1.40669,-0.88497 -1.40669,-1.23896 -0.14067,-2.12394c0.98468,-0.53099 1.40669,-1.94695 0.98468,-3.18592c-0.56268,-1.59296 1.68803,-2.12394 8.58081,-2.12394c8.86215,0.17699 9.28416,0.35399 8.44015,4.24789c-0.98469,5.30986 1.26602,4.95587 3.23539,-0.53099c0.84401,-2.47794 2.2507,-4.42488 3.09471,-4.42488c0.70335,0 1.4067,-0.70799 1.4067,-1.59296c0,-0.88498 -1.96937,-1.41597 -4.50141,-1.23897c-3.6574,0.17699 -4.50141,-0.53099 -4.64208,-3.36291c0,-1.94695 0.56267,-3.71691 1.26602,-3.8939c0.70334,-0.177 1.68803,-1.23897 2.39137,-2.47794c0.84402,-1.94694 1.8287,-1.41596 4.50141,1.59296c1.8287,2.12395 3.79807,3.36291 4.22007,2.65493c0.56268,-0.53098 0.98469,0.177 0.98469,1.76996c0,1.59296 0.70334,3.00892 1.40669,3.00892c0.84401,0 1.26602,2.47793 1.12535,5.30986c-0.14067,3.00892 -1.12535,5.30986 -2.11004,5.30986c-0.98468,0 -1.82869,0.70798 -1.82869,1.76995c0,0.88498 1.82869,1.23897 3.93873,0.70799c5.20476,-1.41597 6.89278,1.59295 7.31479,12.56667c0.42201,12.21268 0.28134,13.27465 -2.2507,13.27465c-3.09472,0 -1.96937,7.7878 1.26602,8.49578c1.8287,0.53098 2.2507,-0.35399 2.11003,-3.53991c-0.28133,-3.00892 0.28134,-4.07089 2.39138,-4.07089c2.39137,0 2.81338,1.23897 2.95405,9.38075c0.28134,6.01785 -0.14067,8.84977 -1.12535,8.14179c-2.11004,-1.76996 -3.93874,2.83193 -3.93874,10.44273c0,4.07089 -0.56267,6.37183 -1.40669,5.66385c-0.70334,-0.53099 -1.40669,-2.65493 -1.40669,-4.60188c0,-2.30094 -0.56268,-3.18592 -1.68803,-2.30094c-1.12535,0.88497 -1.26602,-0.35399 -0.70334,-4.24789c0.70334,-4.42489 0.422,-5.66385 -1.26603,-5.66385c-1.12535,0 -1.68802,-0.88498 -1.26602,-1.76996c0.42201,-1.06197 0.14067,-4.42488 -0.84401,-7.78779c-1.40669,-5.13287 -1.40669,-7.25681 0.56267,-13.80564c1.26603,-4.24789 2.39138,-9.55775 2.39138,-11.85869c0,-3.53991 -0.28134,-3.71691 -2.11004,-1.94695c-1.12535,1.23897 -2.11003,3.00892 -2.11003,4.07089c0,1.06197 -1.68803,4.24789 -3.79807,7.07982c-2.67271,3.5399 -3.37606,5.48685 -2.11003,6.01784c0.84401,0.53099 1.68802,2.30094 1.68802,4.07089c0,1.76996 0.70335,3.53991 1.54736,3.8939c2.39138,1.06197 1.8287,14.86761 -0.98468,21.94743c-2.95405,7.25681 -4.36074,8.31878 -7.59613,6.01784l0.00001,0l-0.00001,0z"/>
   <path fill="#0000ff" id="svg_36" d="m2579.04018,-1849.85587c-20.53768,-9.73475 -29.96251,-39.11598 -20.39702,-63.36435c3.6574,-9.02676 11.67554,-18.40752 18.99033,-21.94743c9.56549,-4.60188 23.77307,-2.83192 32.35388,3.8939c8.29948,6.37184 15.33293,20.17748 16.73962,32.56715c1.96937,18.05353 -6.33011,37.87701 -19.553,46.37279c-7.31479,4.77888 -20.81902,5.84085 -28.13381,2.47794l0,0zm4.92342,-3.71691c0,-0.88497 -1.12536,-2.12394 -2.53205,-2.65493c-1.40669,-0.53098 -2.53204,-2.12394 -2.53204,-3.5399c0,-1.59296 -0.98468,-2.47794 -2.67271,-2.12395c-1.54736,0.35399 -2.11004,-0.17699 -1.54736,-1.41596c0.56267,-1.06197 -0.14067,-3.8939 -1.26602,-6.19484c-1.26603,-2.47793 -1.8287,-4.42488 -1.26603,-4.42488c0.70335,0 1.96937,1.59295 2.95405,3.7169c1.26603,2.47793 2.81338,3.36291 4.64208,2.83193c2.25071,-0.70799 2.53205,-0.53099 1.26602,1.41596c-1.96936,2.83192 0.70335,5.48686 4.92342,4.77887c2.39138,-0.35399 2.39138,-0.17699 0.70335,1.41597c-1.8287,1.41596 -1.8287,1.94694 -0.14067,3.36291c1.12535,0.88497 2.81338,1.23897 3.93873,0.70798c1.12535,-0.53099 1.8287,0 1.54736,1.41596c-0.70334,3.8939 7.87747,4.0709 13.92624,0c2.95405,-1.76995 7.17412,-5.66385 9.28416,-8.67277l3.93873,-5.13287l-4.22007,-5.48685c-2.25071,-3.18592 -5.20476,-5.66386 -6.75212,-5.66386c-1.40669,0 -3.51672,-0.88497 -4.64208,-1.94694c-1.54736,-1.23897 -0.70334,-1.41597 2.95405,-0.70799c7.7368,1.76996 9.00282,-1.41596 9.00282,-23.71738l0,-18.58451l-6.89278,-5.30986c-5.34542,-4.24789 -8.86215,-5.48686 -16.17694,-6.01785c-8.01814,-0.53098 -10.26884,0 -16.88029,4.42489c-4.0794,2.65493 -9.14349,7.6108 -11.11285,10.79672l-3.51673,5.66385l4.78275,-1.23897c2.67271,-0.88498 8.1588,-1.41596 12.2382,-1.23897c6.33011,0.177 7.45546,-0.35399 8.01814,-3.53991c0.28134,-2.12394 0.84401,-5.30986 1.12535,-7.25681c0.42201,-2.12394 0.70335,-1.41596 0.84402,2.12395c0.28133,10.26573 -0.56268,11.15071 -11.3942,11.15071c-10.12817,0 -17.02095,3.00892 -18.56831,7.96479c-0.42201,1.59296 -0.84402,7.96479 -0.84402,14.15963l0,11.15071l5.34543,-0.35399c2.95405,-0.177 6.89278,-1.59296 8.72148,-3.36292c1.8287,-1.59295 4.78275,-3.00892 6.33011,-3.00892c2.11003,0.177 1.68803,0.70798 -1.54736,2.47794c-2.53205,1.41596 -4.92342,3.36291 -5.34543,4.42488c-0.56267,1.06197 -3.09472,1.94695 -5.62676,1.94695c-6.04877,0 -6.75211,1.23897 -4.36074,6.90282c4.92342,12.03569 23.35106,26.7263 23.35106,18.76151l0.00001,0z"/>
   <path fill="#0000ff" id="svg_37" d="m2489.57466,-1947.91131l0,-34.86809l39.528,-23.89438c21.80371,-13.09765 40.09068,-24.07137 40.79403,-24.42536c0.70334,-0.35399 1.26602,17.69954 1.26602,42.47889l0,43.18687l-5.48609,3.8939c-6.61145,4.60188 -13.78557,14.69062 -16.45828,22.83241l-1.96937,5.84084l-28.83716,0l-28.83715,0l0,-35.04508l0,0zm35.87061,18.76151c0,-6.54883 0.422,-7.6108 3.23538,-8.14179c1.8287,-0.35399 4.92342,1.23897 7.45546,3.8939c2.95405,3.18592 5.90811,4.60188 9.70617,4.60188c6.04877,0 8.58081,-2.65493 4.22007,-4.42488c-7.17412,-2.83193 -6.47078,-15.5756 0.98469,-17.87654c5.06408,-1.41596 10.26884,-7.4338 10.26884,-11.5047c0,-2.83192 -0.56268,-3.00892 -3.6574,-1.41596c-2.95405,1.23897 -4.36074,1.06197 -6.33011,-1.23897c-2.2507,-2.47793 -2.53204,-4.60188 -1.68803,-12.56667c0.98469,-10.97371 -0.84401,-16.81456 -6.18944,-19.82348c-4.64208,-2.65493 -4.50141,-2.83193 -3.65739,5.13286c0.70334,6.19484 0.422,7.25681 -2.67271,9.02677c-2.95405,1.59296 -4.50141,1.23897 -9.28416,-1.76996c-6.47078,-4.24789 -14.62958,-4.77887 -16.88029,-1.41596c-1.12535,1.76995 -0.84401,2.83193 1.26602,4.42488c4.36074,3.36292 3.23539,8.67278 -2.81338,14.15963c-5.76743,4.95588 -9.56549,12.74367 -7.87747,16.10658c0.56268,1.41597 1.54736,1.06198 2.95405,-0.70798c4.92342,-6.19484 11.3942,0.177 9.42483,9.38076c-1.12535,5.84084 1.96937,15.2216 6.33011,18.40752c2.11004,1.76995 4.0794,3.18591 4.50141,3.18591c0.42201,0 0.70334,-3.36291 0.70334,-7.4338l0.00001,0z"/>
   <path fill="#0000ff" id="svg_38" d="m2670.75641,-1912.33524c2.95405,-1.41596 1.82869,-4.24789 -1.40669,-3.18592c-4.36075,1.23897 -7.03346,-1.41596 -6.47078,-6.37183c0.28134,-3.18592 1.40669,-4.42489 4.36074,-4.77888c2.11004,-0.35399 3.79806,-1.41596 3.79806,-2.30094c0,-0.88497 0.70335,-1.59295 1.54736,-1.59295c0.70335,0 0.98469,0.88497 0.56268,1.76995c-0.42201,1.06197 0.42201,1.76995 1.96937,1.76995c2.95405,0 4.0794,-4.24788 1.54736,-6.19483c-2.25071,-1.76996 -13.22289,3.00892 -15.61427,6.72582c-1.26602,1.94695 -1.96937,4.95587 -1.54736,6.90282c0.42201,2.65493 0,3.00892 -2.67271,2.47794c-1.8287,-0.53099 -4.50141,-0.88498 -6.04877,-0.88498c-1.8287,-0.177 -2.39137,-1.06197 -1.8287,-3.7169c0.42201,-1.94695 0,-3.53991 -0.84401,-3.53991c-1.26602,0 -1.26602,-0.35399 0,-1.41597c0.98468,-0.70798 1.26602,-2.30094 0.56267,-3.7169c-1.40669,-2.83192 -4.36074,-1.06197 -4.36074,2.65493c0,1.41597 -1.26602,2.47794 -2.95405,2.47794c-1.54736,0 -2.39137,-0.70798 -1.96936,-1.76996c0.422,-0.88497 0.14067,-1.76995 -0.84402,-1.76995c-1.12535,0 -0.84401,-1.06197 0.56268,-3.18592c1.40669,-1.76995 2.39137,-4.24789 2.39137,-5.48686c0,-1.06197 1.54736,-3.00892 3.51673,-4.07089c1.96937,-1.06197 3.51673,-2.47793 3.51673,-3.00892c-0.14067,-3.00892 -2.53205,-5.48686 -4.50141,-4.60188c-2.39138,1.23897 -4.22008,-2.83193 -2.67272,-5.84085c1.68803,-3.5399 11.11286,1.23897 12.09754,6.19484c0.56268,3.36291 1.54736,4.24789 4.64208,3.7169c4.64208,-0.70798 5.20476,-5.84084 0.70335,-5.84084c-3.79807,0 -5.76743,-2.47794 -3.37606,-4.24789c2.81338,-2.12395 11.25353,1.59296 12.23821,5.48686c0.42201,2.12394 1.68803,3.00892 2.95405,2.47793c1.12535,-0.53099 2.67271,-1.06197 3.37606,-1.06197c0.84401,0 1.12535,-0.70798 0.56267,-1.76996c-0.42201,-0.88497 -1.8287,-1.06197 -3.09472,-0.53098c-1.40669,0.70798 -1.96936,0.35399 -1.40669,-0.70798c0.56268,-1.06198 0.28134,-2.30094 -0.56267,-2.65494c-0.98469,-0.35399 -0.70335,-1.59295 0.70334,-3.00892c1.54736,-1.59295 2.25071,-1.76995 2.25071,-0.35399c0,1.06197 1.26602,1.94695 2.67271,1.94695c2.67271,0 4.36074,3.18592 4.36074,8.14179c0,1.41596 -0.98468,2.47793 -2.11004,2.47793c-1.26602,0 -2.67271,1.76996 -3.37605,4.0709c-0.98469,3.18591 -0.56268,4.07089 2.11003,5.30986c1.8287,0.88498 3.51673,2.30094 3.6574,3.18592c0.70334,5.48685 0,6.01784 -7.31479,6.90282c-6.61145,0.70798 -7.7368,1.41596 -7.7368,4.42488c0,4.07089 3.65739,4.77887 4.64208,1.06197c0.422,-1.41596 0,-1.94695 -0.98469,-1.23897c-0.84401,0.70799 -1.54736,0.35399 -1.54736,-0.53098c0,-2.47794 3.79807,-2.47794 4.92342,-0.177c0.56268,1.06197 2.11004,1.41597 3.6574,0.88498c3.23539,-1.41596 5.34542,3.53991 2.81338,6.72582c-1.12535,1.41597 -1.54736,1.23897 -1.54736,-1.06197c0,-1.59296 -0.56268,-3.00892 -1.40669,-3.00892c-0.70335,0 -1.40669,1.59296 -1.40669,3.53991c0,2.30094 -0.84402,3.53991 -2.39138,3.36291c-1.54736,0 -1.8287,-0.53099 -0.70334,-1.06197l0,0z" transform="rotate(70.50337982177734 31.132812499999993,321.1171875) "/>
   <path fill="#0000ff" id="svg_39" d="m2626.02365,-1967.5578c-4.50141,-0.88497 -4.92342,-1.59296 -4.92342,-7.07981c0,-3.36292 -0.84402,-6.37184 -1.68803,-6.72583c-1.12535,-0.53098 -1.8287,0.70798 -1.8287,2.83193c0,4.42488 -4.92342,5.13286 -6.18944,1.06197c-1.12535,-3.7169 3.51673,-13.27465 7.17412,-14.33663c2.67272,-0.88497 2.95405,-1.59295 1.68803,-4.60188c-0.84401,-1.94694 -2.39137,-3.00892 -3.37605,-2.47793c-1.96937,0.88498 -4.07941,-3.53991 -2.81338,-6.01784c0.422,-0.70799 3.23538,-0.53099 6.3301,0.35399c3.23539,1.06197 5.34543,2.30094 5.06409,2.83192c-0.42201,0.35399 -0.14067,2.30094 0.70334,4.24789c1.8287,4.24789 7.31479,3.53991 8.01814,-1.06197c0.42201,-2.65493 0,-3.18592 -2.39137,-2.30094c-3.37606,1.06197 -5.06409,-1.23897 -3.37606,-4.77887c1.68803,-3.53991 13.78557,3.18591 12.51955,7.07981c-0.70335,2.12395 -0.28134,2.65493 1.40669,1.76996c1.12535,-0.53099 2.81338,-1.06198 3.51672,-1.06198c0.70335,0 1.26603,-0.88497 1.26603,-1.94695c0,-1.06197 -0.84402,-1.59295 -1.96937,-1.06197c-2.11004,1.06197 -4.22007,-3.18591 -2.95405,-5.84084c0.98468,-2.12395 5.76743,-0.177 8.44014,3.5399c2.67271,3.53991 1.54736,8.14179 -2.2507,9.38076c-4.07941,1.41596 -3.37606,7.7878 0.98468,9.02676c2.67271,0.88498 3.51673,2.12395 3.09472,5.13287c-0.42201,3.36291 -1.40669,3.8939 -7.45546,4.42488c-8.15881,0.70798 -10.40951,2.47794 -7.7368,6.54883c1.26602,1.94695 1.26602,2.65493 0.14067,2.65493c-2.53204,0 -3.51673,-5.13286 -1.54736,-7.96479c0.98468,-1.41596 2.81338,-2.65493 4.22007,-2.65493c1.40669,0 2.81338,-1.23897 3.37606,-2.65493c0.42201,-1.41596 1.40669,-2.65493 2.11004,-2.65493c0.84401,0 1.12535,1.23897 0.56267,2.83192c-0.56267,2.12395 -0.14067,2.65493 1.8287,2.12395c1.40669,-0.35399 2.67271,-1.76996 2.67271,-3.18592c0,-2.65493 -0.42201,-2.65493 -11.53486,-1.23897c-1.8287,0.177 -3.23539,0.88498 -3.23539,1.41597c0,0.53098 -1.26602,2.65493 -2.81338,4.77887c-1.68803,2.12395 -2.25071,4.07089 -1.40669,4.77888c1.68803,1.23896 1.96937,4.60188 0.42201,4.24788c-0.70335,-0.17699 -3.37606,-0.70798 -6.04877,-1.41596z" transform="rotate(130.42855834960938 107.43750000000001,267.9453125) "/>
   <path fill="#0000ff" id="svg_40" d="m2474.10106,-2015.52355c-1.54736,-3.7169 -2.81338,-9.20376 -2.81338,-12.21268c0,-5.84084 -1.96937,-7.25681 -9.9875,-7.25681l-5.62677,0l2.39138,-5.66385c4.0794,-9.73475 18.84965,-26.7263 28.69649,-32.92114c5.06408,-3.18592 17.30229,-9.38075 27.43046,-13.80564c21.80371,-9.73475 36.57396,-18.58451 51.48488,-30.97419c18.99032,-15.57559 28.41515,-16.81456 43.1854,-5.48686c28.41515,21.94743 34.18258,25.48734 64.28576,38.93899c20.53768,9.20376 29.25917,14.86761 37.69931,24.77935c6.18944,7.4338 15.05159,21.59343 15.05159,24.07137c0,0.53099 -2.53204,1.06197 -5.48609,1.06197c-8.01814,0 -9.98751,1.41596 -9.98751,7.25681c0,6.01785 -3.23538,16.46057 -5.48609,18.23053c-0.84401,0.70798 -4.78275,-3.00892 -9.00282,-8.84977c-11.39419,-15.75259 -20.67835,-22.30142 -46.42079,-32.74415c-26.02378,-10.44272 -31.08786,-13.27465 -41.77871,-23.71738c-15.05159,-14.69061 -17.86497,-14.69061 -33.76058,0.177c-12.51954,11.85869 -16.31761,13.98263 -39.38733,22.8324c-24.47642,9.20376 -35.16727,16.46057 -46.8428,31.15119c-5.20475,6.72582 -9.70616,12.21268 -10.12817,12.21268c-0.28134,0 -1.96937,-3.18592 -3.51673,-7.07982l0,0zm19.41233,-18.23052c9.84683,-9.02676 16.45828,-12.74367 38.54332,-21.77043c23.49173,-9.55775 27.71181,-12.03569 42.06005,-24.77935c5.76743,-5.13287 12.23821,-9.91175 14.20758,-10.44273c4.78274,-1.59296 11.95687,2.47793 22.22571,12.38967c10.55018,10.08874 18.70898,14.86762 39.80934,22.83241c23.35107,8.84977 30.94719,13.98263 43.1854,28.85025c5.76744,7.07981 10.55018,12.92066 10.69085,12.92066c0.98469,0 3.37606,-12.21268 3.37606,-16.81456c0,-6.37184 1.8287,-7.96479 8.58081,-7.96479c2.25071,0 4.07941,-0.88498 4.07941,-1.76996c0,-3.53991 -11.95687,-18.23052 -20.11568,-24.95635c-7.87747,-6.37183 -18.28698,-12.03568 -51.48488,-27.25728c-8.01813,-3.71691 -19.975,-11.15071 -26.72712,-16.46057c-27.57113,-22.12443 -33.33857,-22.65541 -54.15759,-5.66386c-15.33292,12.56668 -26.58645,19.2925 -51.48487,30.97419c-11.95687,5.66386 -25.4611,12.56668 -30.10318,15.5756c-7.87747,5.30986 -24.75776,24.07137 -24.75776,27.78827c0,0.88498 1.8287,1.76996 4.07941,1.76996c6.89278,0 8.58081,1.59295 8.58081,8.31878c0,3.36291 0.98468,8.49578 2.2507,11.3277l2.11004,5.48686l4.22007,-7.25681c2.39138,-3.8939 7.17412,-9.73475 10.83152,-13.09766l0,0z" transform="rotate(162.73011779785156 64.8046875,191.0078125) "/>
  </g>
  <text font-style="italic" xml:space="preserve" text-anchor="start" font-family="Helvetica, Arial, sans-serif" font-size="8" id="svg_30" y="388.45313" x="241" stroke-opacity="null" stroke-width="0" stroke="#0000ff" fill="#0000ff">Vandanel</text>
  <ellipse ry="58.5" rx="80.5" id="svg_22" cy="95.95312" cx="262.5" stroke-width="1.5" fill="#ffd3b3"/>
  <g fill-opacity="0.2" id="svg_4">
   <title>Simple Hair</title>
   <path id="svg_5" fill="#bf5f00" d="m180,96.20482l0,48.79518l25.53846,-45.54217s31.01099,7.80723 57.46154,7.80723s57.46154,-7.80723 57.46154,-7.80723l25.53846,45.54217l0,-48.79518c0,-32.69798 -37.16029,-59.20482 -83,-59.20482c-45.83971,0 -83,26.50684 -83,59.20482z"/>
  </g>
  <g id="svg_23">
   <title>Wirral Logo</title>
   <g stroke="null" transform="translate(0,117) scale(0.10000000149011612,-0.10000000149011612) " fill="#000000" id="svg_2">
    <path fill="#0000ff" stroke="null" d="m1765.15652,-3167.13651c-8.43752,-4.2114 -10.78128,-10.2277 -10.78128,-27.67495l0,-22.26028l-10.78128,12.63421c-21.56256,26.47169 -42.18762,9.62607 -29.06258,-22.86191l7.96877,-19.25214l-18.2813,4.2114c-16.4063,3.00815 -18.75005,2.40652 -23.90632,-12.03259c-6.09377,-17.44725 -7.50002,-16.24399 43.12512,-36.69938c26.71882,-10.82933 27.18758,-10.82933 33.75009,0c3.28126,6.61792 5.15626,14.4391 3.28126,17.44725c-1.87501,3.60978 0,4.81303 4.68751,2.40652c18.2813,-9.02444 22.03131,0.60163 22.03131,56.55315c0,56.55315 -0.9375,58.35804 -22.03131,47.52871l0.00001,0.00001zm17.3438,-50.53686c0,-33.69124 -1.87501,-45.12219 -7.03127,-47.52871c-3.75001,-2.40652 -7.96877,-1.20326 -9.37503,1.80489c-1.40625,3.60978 -7.03127,8.42281 -11.71878,12.03259c-8.43752,5.41466 -8.43752,4.81303 -3.75001,-12.63421c2.81251,-10.2277 3.28126,-20.45539 0.9375,-23.46354c-4.68751,-6.01629 -67.50019,16.24399 -67.50019,23.46354c0.46875,14.4391 7.96877,18.04888 24.84382,11.43096c9.37503,-3.60978 18.2813,-5.41466 19.68755,-3.60978c1.40625,1.80489 -0.9375,13.23584 -5.15626,25.26843c-11.71878,31.28472 -3.28126,40.30916 18.2813,19.25214l16.4063,-16.24399l2.81251,27.67495c2.81251,21.65865 5.15626,27.07332 12.65629,27.07332c7.96877,0 8.90627,-4.2114 8.90627,-44.52057l0,-0.00002z" id="svg_3"/>
    <path fill="#0000ff" stroke="null" d="m1797.96911,-3179.1691c1.87501,-10.82933 3.28126,-35.49613 3.28126,-55.34989l0,-36.09776l14.06254,2.40652c9.37503,1.80489 13.59379,0.60163 12.65629,-4.2114c-1.40625,-3.60978 0.46875,-10.82933 3.28126,-16.24399c5.15626,-9.62607 8.43752,-9.02444 38.43761,4.81303c17.81255,8.42281 35.15635,16.24399 38.43761,17.44725c4.68751,2.40652 4.21876,6.61792 -1.40625,21.05702c-7.03127,18.04888 -7.50002,18.04888 -21.56256,8.42281c-17.81255,-11.43096 -19.68755,-9.62607 -13.12504,15.04073c3.75001,14.4391 3.75001,21.05702 -0.46875,27.67495c-8.43752,12.63421 -14.06254,11.43096 -29.06258,-7.21955l-13.12504,-16.24399l0,25.26843c0,16.24399 -2.34376,25.26843 -5.62502,25.26843c-3.28126,0 -11.25003,1.80489 -17.3438,4.2114c-10.78128,3.60978 -11.25003,2.40652 -8.43752,-16.24399l-0.00001,0z" id="svg_4"/>
    <path fill="#0000ff" stroke="null" d="m1875.31307,-3297.69006c-20.15631,-7.82118 -36.5626,-17.44725 -36.5626,-21.05702c0,-3.60978 3.28126,-12.03259 7.96877,-18.04888c6.56252,-9.62607 6.56252,-10.82933 0.46875,-10.82933c-4.21876,0 -9.84378,-4.2114 -13.12504,-9.02444c-4.68751,-7.21955 -1.40625,-16.24399 19.2188,-51.13849l25.31257,-42.11405l11.25003,14.4391l11.25003,14.4391l-10.78128,17.44725l-10.31253,16.84562l19.2188,1.80489c10.78128,1.20326 19.2188,4.2114 19.2188,7.21955c0,2.40652 1.40625,9.02444 2.81251,14.4391c1.87501,6.01629 -2.34376,12.03259 -13.12504,19.25214l-15.46879,10.2277l15.46879,9.62607c12.18753,7.21955 15.00004,12.03259 14.06254,24.06517c-0.9375,7.82118 -3.28126,15.04073 -6.09377,16.24399c-2.34376,0.60163 -21.09381,-5.41466 -40.78136,-13.83747l0.00002,0z" id="svg_11"/>
    <path fill="#0000ff" stroke="null" d="m1670,-3305.51124c0,-15.64236 2.34376,-18.65051 14.06254,-21.65865c17.81255,-4.81303 17.81255,-10.2277 0,-26.47169c-12.18753,-10.82933 -13.12504,-14.4391 -8.43752,-27.07332c4.21876,-12.03259 7.50002,-13.83747 20.62506,-10.82933c16.87505,3.60978 20.62506,-3.60978 8.90627,-16.24399c-3.75001,-4.2114 -7.03127,-10.82933 -7.03127,-15.04073c0,-7.82118 17.81255,-30.68309 20.62506,-26.47169c0.9375,1.20326 11.71878,19.85377 23.90632,40.91079c17.3438,30.08146 21.09381,40.91079 17.3438,48.13034c-2.34376,5.41466 -8.43752,8.42281 -13.12504,7.82118c-7.03127,-1.80489 -7.50002,-0.60163 -2.34376,7.21955c11.71878,18.04888 3.75001,28.27658 -32.34384,43.31731c-19.2188,7.82118 -36.5626,14.4391 -38.43761,14.4391c-2.34376,0 -3.75001,-8.42281 -3.75001,-18.04888l0,0.00001z" id="svg_12"/>
    <path fill="#0000ff" stroke="null" d="m1806.40663,-3383.12142c-7.96877,-10.2277 -9.84378,-10.82933 -15.00004,-3.00815c-2.81251,4.81303 -7.96877,8.42281 -10.78128,8.42281c-6.09377,0 -49.68764,-72.79714 -49.68764,-82.42321c0,-5.41466 23.43757,-22.26028 25.78132,-18.65051c0.9375,1.20326 5.62502,10.82933 10.78128,22.26028l9.37503,20.45539l5.62502,-25.26843c4.68751,-21.65865 6.56252,-24.6668 18.75005,-24.6668c13.12504,0 14.06254,1.80489 14.06254,21.05702c0,24.6668 5.15626,27.07332 15.93754,6.01629c8.43752,-16.84562 15.93754,-18.65051 28.12508,-7.21955c7.96877,7.82118 7.03127,10.82933 -15.93754,51.13849c-13.59379,24.06517 -25.31257,43.31731 -26.25007,43.31731c-0.9375,0 -6.09377,-5.41466 -10.78128,-11.43096l-0.00001,0.00002z" id="svg_13"/>
   </g>
  </g>
 </g>
</svg>