<svg width="512" height="512" xmlns="http://www.w3.org/2000/svg">
 <g>
  <title>background</title>
  <rect x="-1" y="-1" width="514" height="514" id="canvas_background" fill="none"/>
 </g>

 <g>
  <title>Layer 1</title>
  <g id="svg_1" transform="rotate(-0.06285365670919418 261.2596740724044,256.84762573239874) ">
   <g id="svg_2">
    <path d="m261.25968,303.84762l44,0l98.846,21.665c27.533,6.035 47.154,30.421 47.154,58.609l0,85.726l-66,0l0,33l-124,0l-124,0l0,-33l-66,0l0,-85.726c0,-28.187 19.621,-52.574 47.154,-58.609l98.846,-21.665l44,0z" fill="#ffffff" id="svg_3"/>
   </g>
   <g id="svg_4">
    <path d="m404.10568,325.51262l-98.846,-21.665l-44,0l-44,0l-98.846,21.665c-27.533,6.035 -47.154,30.421 -47.154,58.609l0,65.726l20,0l0,-65.726c0,-18.648 13.221,-35.08 31.436,-39.073l96.73,-21.201l83.668,0l96.73,21.201c18.215,3.992 31.436,20.425 31.436,39.073l0,65.726l20,0l0,-65.726c0,-28.188 -19.621,-52.574 -47.154,-58.609z" fill="#ff7b7b" id="svg_5"/>
   </g>
   <g id="svg_6">
    <path d="m404.10568,325.51262l-98.846,-21.665l-44,0l-44,0l-98.846,21.665c-27.533,6.035 -47.154,30.421 -47.154,58.609l0,65.726l20,0l0,-65.726c0,-18.648 13.221,-35.08 31.436,-39.073l96.73,-21.201l83.668,0l96.73,21.201c18.215,3.992 31.436,20.425 31.436,39.073l0,65.726l20,0l0,-65.726c0,-28.188 -19.621,-52.574 -47.154,-58.609z" fill="#ffffff" id="svg_7"/>
   </g>
   <g id="svg_8">
    <path d="m137.25968,502.84762l-66,0l0,-33l66,0l0,33z" fill="#ffd3b3" id="svg_9"/>
   </g>
   <g id="svg_12">
    <path d="m385.25968,469.84762l66,0l0,33l-66,0l0,-33z" fill="#ffd3b3" id="svg_13"/>
   </g>
   <g id="svg_10">
    <!-- Left Sleeve -->
    <path id="svg_11" fill="#ffffff" d="m137.25968,469.84762l-66,0l0,-20l66,0l0,20z"/>
   </g>
   <!--
Collar-->
   <g id="svg_14">
    <path d="m302.04762,307.84762l-88,0l-23.78,5.212c2.673,35.067 32.04,62.788 67.78,62.788s65.107,-27.721 67.78,-62.788l-23.78,-5.212z" fill="#ffffff" id="svg_15"/>
   </g>
   <g id="svg_16">
    <path d="m217.25968,267.84762l0,36c0,24.301 19.699,44 44,44s44,-19.699 44,-44l0,-36l-88,0z" fill="#ffd3b3" id="svg_17"/>
   </g>
   <g id="svg_18">
    <path d="m217.25968,286.03562c13.499,5.851 28.376,9.812 44,9.812s30.501,-3.961 44,-9.812l0,-18.188l-88,0l0,18.188z" fill="#fcb98b" id="svg_19"/>
   </g>
   <g id="svg_20">
    <path d="m352.25968,90.84762l0,98c0,50.258 -40.742,91 -91,91c-50.258,0 -91,-40.742 -91,-91l0,-98l182,0z" fill="#ffd3b3" id="svg_21"/>
   </g>
   <g id="svg_22">
    <path d="m170.25968,176.84762l0,-97c0,-20.987 17.013,-38 38,-38l0,57.382c0,4.999 -1.249,9.919 -3.634,14.313l-34.366,63.305z" fill="#754100" id="svg_23"/>
   </g>
   <g id="svg_24">
    <path d="m156.25968,176.84762l14,0l0,-50l-14,0c-5.523,0 -10,4.477 -10,10l0,30c0,5.523 4.477,10 10,10z" fill="#ffd3b3" id="svg_25"/>
   </g>
   <g id="svg_26">
    <path d="m366.25968,176.84762l-14,0l0,-50l14,0c5.523,0 10,4.477 10,10l0,30c0,5.523 -4.477,10 -10,10z" fill="#ffd3b3" id="svg_27"/>
   </g>
   <g id="svg_28">
    <!-- Right Sleeve -->
    <path d="m385.25968,449.84762l66,0l0,20l-66,0l0,-20z" fill="#ffffff" id="svg_29"/>
   </g>
   <!--
   Badge

   <g id="svg_42">
    <path id="svg_43" fill="#0000ff" d="m305,430l0,36c0,13.255 10.745,24 24,24s24,-10.745 24,-24l0,-36l-48,0z"/>
   </g>
-->
   <g id="svg_33">
    <path d="m352.25968,176.84762l0,-97c0,-20.987 -17.013,-38 -38,-38l0,57.382c0,4.999 1.249,9.919 3.634,14.313l34.366,63.305z" fill="#754100" id="svg_34"/>
   </g>
   <g id="svg_35">
    <path d="m290.25968,116.84762l-86,0c-33.137,0 -60,-26.863 -60,-60l0,-46l140,0c16.569,0 30,13.431 30,30l0,52c0,13.255 -10.745,24 -24,24z" fill="#754100" id="svg_36"/>
   </g>
  </g>
  <text transform="matrix(0.9360794184298495,0,0,0.9704021027077064,26.22125831186339,20.464570839112355) " fill="#0000ff" stroke-width="0" stroke-opacity="null" x="188.742693" y="456.297736" id="svg_31" font-size="39" font-family="Helvetica, Arial, sans-serif" text-anchor="start" xml:space="preserve" font-weight="bold">WIRRAL</text>
  <text fill="#0000ff" stroke-width="0" stroke-opacity="null" x="172.19556" y="465.00901" id="svg_40" font-size="14" font-family="Arvo, sans-serif" text-anchor="start" xml:space="preserve" font-weight="bold" stroke="null">W</text>
  <text fill="#0000ff" stroke-width="0" stroke-opacity="null" x="159.97334" y="457.73631" id="svg_41" font-size="14" font-family="Arvo, sans-serif" text-anchor="start" xml:space="preserve" font-weight="bold" transform="rotate(-126.6180648803711 166.578125,452.7421875) ">W</text>
  <text fill="#0000ff" stroke-width="0" stroke-opacity="null" x="180.83175" y="444.94837" id="svg_39" font-size="14" font-family="Arvo, sans-serif" text-anchor="start" xml:space="preserve" font-weight="bold">W</text>
  <text fill="#0000ff" stroke-width="0" stroke-opacity="null" x="185.52159" y="458.12298" id="svg_38" font-size="14" font-family="Arvo, sans-serif" text-anchor="start" xml:space="preserve" font-weight="bold" stroke="null">W</text>
  <text fill="#0000ff" stroke-width="0" stroke-opacity="null" x="165.61969" y="443.79694" id="svg_42" font-size="14" font-family="Arvo, sans-serif" text-anchor="start" xml:space="preserve" font-weight="bold" transform="rotate(-33.5821533203125 172.22656250000006,438.80468750000006) ">W</text>
  <text fill="#0000ff" stroke-width="0" stroke-opacity="null" x="167.86828" y="444.05091" id="svg_43" font-size="12" font-family="Arvo, sans-serif" text-anchor="start" xml:space="preserve" font-weight="normal" transform="rotate(-33.5821533203125 173.5312500000001,440.0546875) ">W</text>
  <rect id="svg_32" height="76" width="67" y="392" x="382.5" fill-opacity="null" stroke-opacity="null" stroke-width="6" stroke="#0000ff" fill="#0000ff"/>
  <rect stroke="#0000ff" id="svg_37" height="180.000009" width="27" y="320.999991" x="356.5" fill-opacity="null" stroke-opacity="null" stroke-width="6" fill="#0000ff"/>
  <rect id="svg_44" height="27" width="44" y="360" x="378.5" fill-opacity="null" stroke-opacity="null" stroke-width="6" stroke="#0000ff" fill="#0000ff"/>
  <ellipse stroke="#0000ff" ry="37.999999" rx="37.5" id="svg_46" cy="365.999999" cx="394" fill-opacity="null" stroke-opacity="null" stroke-width="6" fill="#0000ff"/>
  <ellipse stroke="#0000ff" ry="37.999999" rx="37.5" id="svg_48" cy="383.999999" cx="412" fill-opacity="null" stroke-opacity="null" stroke-width="6" fill="#0000ff"/>
  <ellipse stroke="#0000ff" ry="37.999999" rx="37.5" id="svg_49" cy="365.999999" cx="394" fill-opacity="null" stroke-opacity="null" stroke-width="6" fill="#0000ff"/>
  <ellipse stroke="#0000ff" ry="37.999999" rx="37.5" id="svg_50" cy="372.666668" cx="403.333337" fill-opacity="null" stroke-opacity="null" stroke-width="6" fill="#0000ff"/>
  <ellipse stroke="#0000ff" ry="39" rx="35" id="svg_51" cy="359.666663" cx="394.5" fill-opacity="null" stroke-opacity="null" stroke-width="6" fill="#0000ff"/>
  <g id="svg_31" fill="#000000" transform="translate(0,217) scale(0.10000000149011612,-0.10000000149011612) ">
   <title transform="translate(-720,70) ">Tranmere Logo</title>
   <path fill="#0000ff" id="svg_33" d="m2484.229232,-1756.051188l0.422007,-113.631033l43.185402,-26.018321c23.632402,-14.15963 47.546143,-28.496256 53.032236,-31.682173l9.987503,-5.840847l52.750898,32.56715l52.750898,32.56715l0,112.746056l0,112.923052l-106.205141,0l-106.205141,0l0.281338,-113.631033l0,-0.000001zm209.315563,55.222558l0,-54.868567l-30.947193,0l-30.947193,0l-2.672712,6.725824c-3.235388,8.141787 -13.222892,20.000478 -19.41233,23.186395l-4.642079,2.30094l0,38.761988l0,38.761988l44.310754,0l44.310754,0l0,-54.868567l-0.000001,-0.000001zm-118.44335,14.690616l0.281338,-35.753066l-4.220072,-2.831926c-7.033453,-4.60188 -14.770251,-14.336626 -17.583633,-22.124422l-2.532043,-7.079815l-30.103179,0l-29.96251,0l0,52.213637l0,52.213637l41.91938,-0.353991l41.778711,-0.530986l0.422007,-35.753066l0.000001,-0.000002zm22.225712,30.797196c3.376057,-3.716903 3.657396,-4.955871 2.813381,-10.796718c-0.984683,-6.90282 -4.220072,-8.141787 -4.50141,-1.769954c-0.140669,1.769954 -0.281338,4.424884 -0.422007,5.663852c-0.140669,3.185917 -7.174122,1.946949 -9.00282,-1.592958c-2.391374,-4.778875 0,-11.681695 4.642079,-13.628644l4.220072,-1.946949l0,-20.354469l0,-20.531464l-4.220072,0l-4.220072,0l0,17.522542c0,17.168552 -0.140669,17.699538 -4.220072,22.832404c-11.253525,14.336626 2.813381,37.52302 14.91092,24.602358l0.000001,0zm11.112856,-73.453082c6.611446,-4.247889 14.91092,-14.690616 18.286978,-23.186395c3.235388,-8.141787 4.360741,-24.779353 2.110036,-34.337103c-2.672712,-12.035686 -10.831518,-24.248367 -20.256345,-30.26621c-15.754935,-10.265732 -33.619906,-6.017843 -45.858114,10.619723c-7.736798,10.619723 -10.268841,18.584515 -10.409511,32.744145c0,20.354469 10.268841,39.82396 25.039093,46.549785c8.018136,3.893898 23.773071,2.654931 31.087863,-2.123945zm-55.986286,-66.727258c2.391374,-8.672774 10.55018,-19.469492 17.583633,-23.36339l5.345424,-3.008921l0,-49.02772l0,-49.204715l-30.525186,18.584515c-16.880287,10.265732 -36.855294,22.301418 -44.310754,26.726302l-13.785568,8.141787l0,39.646965l0,39.469969l31.791208,-0.353991l31.931877,-0.530986l1.969367,-7.079815l-0.000001,0zm139.684378,-30.089214l0,-38.054006l-43.607409,-27.434284l-43.607409,-27.434284l0,47.434761l0,47.434761l4.642079,2.123945c7.45546,3.362912 16.036273,13.80564 19.975007,24.248367l3.657396,9.734746l29.399834,0l29.540503,0l0,-38.054006l-0.000001,0zm-97.34299,-43.717859c-0.281338,-32.390154 -0.844014,-44.071849 -2.391374,-47.257766c-3.938734,-8.849769 -5.064086,0.353991 -5.486093,46.372789l-0.422007,43.717859l4.360741,0l4.360741,0l-0.422007,-42.832882l-0.000001,0z"/>
   <path fill="#0000ff" id="svg_34" d="m2609.143358,-1685.607027l0,-34.337103l6.189439,-4.60188c6.470777,-4.778875 14.207575,-14.690616 16.598949,-21.593436l1.54736,-4.247889l28.696488,0l28.555819,0l0,49.558706l0,49.558706l-40.794028,0l-40.794028,0l0,-34.337103l0.000001,-0.000001zm49.796848,19.115501c1.266022,-0.530986 2.250705,-2.123945 2.250705,-3.539908c0,-1.415963 1.406691,-2.477935 3.235388,-2.477935c3.516727,0 6.752115,-6.548829 8.580813,-17.168552c0.844014,-4.778875 0.562676,-5.663852 -2.110036,-6.725824c-2.813381,-1.238968 -2.813381,-1.415963 -0.844014,-3.008921c3.376057,-2.30094 3.094719,-8.495778 -0.422007,-8.495778c-1.688029,0 -2.813381,1.238968 -2.95405,3.185917c0,2.30094 -0.281338,2.123945 -1.266022,-0.884977c-1.125352,-3.362912 -2.391374,-4.070894 -7.45546,-4.070894c-3.798065,0 -6.892784,1.061972 -8.018136,2.654931c-0.984683,1.415963 -2.391374,2.654931 -3.235388,2.654931c-2.110036,0 4.782748,-6.371834 8.580813,-7.787797c1.688029,-0.707982 3.094719,-2.123945 3.094719,-3.185917c0,-1.061972 -0.984683,-1.238968 -2.391374,-0.530986c-1.406691,0.884977 -5.626762,1.592958 -9.565496,1.946949c-4.220072,0.353991 -7.596129,1.592958 -8.580813,3.185917c-1.125352,2.123945 -1.828698,2.30094 -3.235388,0.530986c-1.406691,-1.592958 -2.391374,-1.061972 -5.064086,2.831926c-1.828698,2.654931 -3.094719,6.017843 -2.672712,7.433806c0.984683,3.008921 4.220072,3.539908 5.486093,0.884977c0.422007,-0.884977 1.828698,-1.769954 2.95405,-1.769954c1.406691,0 1.266022,0.884977 -0.844014,3.539908c-1.54736,1.946949 -3.657396,3.539908 -4.782748,3.539908c-1.125352,0 -2.391374,1.238968 -2.813381,2.831926c-0.984683,3.362912 1.406691,9.55775 3.938734,9.55775c1.125352,0 1.688029,1.415963 1.266022,4.070894c-0.984683,6.017843 3.798065,10.442727 10.409511,9.734746c4.079403,-0.353991 5.345424,-1.238968 5.204755,-3.539908c-0.281338,-3.539908 -0.281338,-3.539908 2.95405,-2.123945c1.688029,0.884977 1.828698,1.592958 0.703345,2.477935c-4.220072,3.362912 2.250705,6.90282 7.596129,4.247889l-0.000002,0z"/>
   <path fill="#0000ff" id="svg_35" d="m2533.182065,-1661.889646c-1.125352,-0.884977 -4.220072,-2.477935 -6.752115,-3.716903c-3.516727,-1.592958 -4.50141,-3.008921 -4.079403,-5.486857c0.562676,-2.123945 0,-3.185917 -1.54736,-3.185917c-1.406691,-0.176995 -0.562676,-1.238968 1.828698,-2.477935c3.798065,-2.123945 3.938734,-2.477935 1.54736,-3.716903c-3.938734,-2.123945 -9.565496,7.079815 -8.440144,13.80564c0.562676,3.716903 0.281338,4.778875 -1.54736,4.778875c-1.266022,0 -1.828698,-0.884977 -1.266022,-1.946949c0.562676,-1.415963 -0.140669,-1.592958 -2.250705,-0.707982c-2.250705,0.884977 -2.95405,0.707982 -2.532043,-1.061972c0.422007,-1.415963 -0.281338,-3.539908 -1.54736,-4.60188c-1.969367,-1.946949 -1.828698,-2.30094 0.984683,-3.362912c2.110036,-0.707982 3.094719,-2.477935 3.094719,-5.309861c0,-2.30094 1.266022,-5.663852 2.813381,-7.256811c3.376057,-3.716903 3.516727,-6.371834 0.703345,-9.380755c-1.688029,-1.769954 -2.532043,-1.769954 -4.220072,0c-2.672712,2.831926 -5.626762,0.530986 -3.376057,-2.831926c1.125352,-1.769954 1.125352,-2.477935 0,-2.477935c-0.844014,0 -1.54736,-1.238968 -1.54736,-2.654931c0,-1.415963 0.844014,-2.654931 1.969367,-2.654931c1.125352,0 2.250705,-0.884977 2.532043,-1.946949c0.281338,-1.061972 2.813381,-0.353991 6.470777,2.123945c5.767432,3.893898 5.908101,3.893898 7.877467,0.707982c1.688029,-3.008921 1.688029,-3.716903 -0.281338,-5.486857c-1.406691,-1.238968 -1.828698,-3.362912 -1.125352,-6.548829c0.984683,-5.309861 -0.703345,-6.194838 -3.376057,-2.123945c-2.250705,3.362912 -4.220072,3.362912 -4.220072,0.176995c0,-1.415963 -0.844014,-3.008921 -1.688029,-3.539908c-1.406691,-0.884977 -1.406691,-1.238968 -0.140669,-2.123945c0.984683,-0.530986 1.406691,-1.946949 0.984683,-3.185917c-0.562676,-1.592958 1.688029,-2.123945 8.580813,-2.123945c8.862151,0.176995 9.284158,0.353991 8.440144,4.247889c-0.984683,5.309861 1.266022,4.955871 3.235388,-0.530986c0.844014,-2.477935 2.250705,-4.424884 3.094719,-4.424884c0.703345,0 1.406691,-0.707982 1.406691,-1.592958c0,-0.884977 -1.969367,-1.415963 -4.50141,-1.238968c-3.657396,0.176995 -4.50141,-0.530986 -4.642079,-3.362912c0,-1.946949 0.562676,-3.716903 1.266022,-3.893898c0.703345,-0.176995 1.688029,-1.238968 2.391374,-2.477935c0.844014,-1.946949 1.828698,-1.415963 4.50141,1.592958c1.828698,2.123945 3.798065,3.362912 4.220072,2.654931c0.562676,-0.530986 0.984683,0.176995 0.984683,1.769954c0,1.592958 0.703345,3.008921 1.406691,3.008921c0.844014,0 1.266022,2.477935 1.125352,5.309861c-0.140669,3.008921 -1.125352,5.309861 -2.110036,5.309861c-0.984683,0 -1.828698,0.707982 -1.828698,1.769954c0,0.884977 1.828698,1.238968 3.938734,0.707982c5.204755,-1.415963 6.892784,1.592958 7.314791,12.566672c0.422007,12.212681 0.281338,13.274653 -2.250705,13.274653c-3.094719,0 -1.969367,7.787797 1.266022,8.495778c1.828698,0.530986 2.250705,-0.353991 2.110036,-3.539908c-0.281338,-3.008921 0.281338,-4.070894 2.391374,-4.070894c2.391374,0 2.813381,1.238968 2.95405,9.380755c0.281338,6.017843 -0.140669,8.849769 -1.125352,8.141787c-2.110036,-1.769954 -3.938734,2.831926 -3.938734,10.442727c0,4.070894 -0.562676,6.371834 -1.406691,5.663852c-0.703345,-0.530986 -1.406691,-2.654931 -1.406691,-4.60188c0,-2.30094 -0.562676,-3.185917 -1.688029,-2.30094c-1.125352,0.884977 -1.266022,-0.353991 -0.703345,-4.247889c0.703345,-4.424884 0.422007,-5.663852 -1.266022,-5.663852c-1.125352,0 -1.688029,-0.884977 -1.266022,-1.769954c0.422007,-1.061972 0.140669,-4.424884 -0.844014,-7.787797c-1.406691,-5.132866 -1.406691,-7.256811 0.562676,-13.80564c1.266022,-4.247889 2.391374,-9.55775 2.391374,-11.85869c0,-3.539908 -0.281338,-3.716903 -2.110036,-1.946949c-1.125352,1.238968 -2.110036,3.008921 -2.110036,4.070894c0,1.061972 -1.688029,4.247889 -3.798065,7.079815c-2.672712,3.539908 -3.376057,5.486857 -2.110036,6.017843c0.844014,0.530986 1.688029,2.30094 1.688029,4.070894c0,1.769954 0.703345,3.539908 1.54736,3.893898c2.391374,1.061972 1.828698,14.867612 -0.984683,21.947427c-2.95405,7.256811 -4.360741,8.318783 -7.596129,6.017843l0.000003,0.000003z"/>
   <path fill="#0000ff" id="svg_36" d="m2579.040179,-1729.855872c-20.537683,-9.734746 -29.96251,-39.115979 -20.397014,-63.364346c3.657396,-9.026764 11.675532,-18.407519 18.990323,-21.947427c9.565496,-4.60188 23.773071,-2.831926 32.353884,3.893898c8.299475,6.371834 15.332928,20.177473 16.739618,32.56715c1.969367,18.053529 -6.330108,37.877011 -19.553,46.372789c-7.314791,4.778875 -20.819021,5.840847 -28.133812,2.477935l0.000001,0.000001zm4.923417,-3.716903c0,-0.884977 -1.125352,-2.123945 -2.532043,-2.654931c-1.406691,-0.530986 -2.532043,-2.123945 -2.532043,-3.539908c0,-1.592958 -0.984683,-2.477935 -2.672712,-2.123945c-1.54736,0.353991 -2.110036,-0.176995 -1.54736,-1.415963c0.562676,-1.061972 -0.140669,-3.893898 -1.266022,-6.194838c-1.266022,-2.477935 -1.828698,-4.424884 -1.266022,-4.424884c0.703345,0 1.969367,1.592958 2.95405,3.716903c1.266022,2.477935 2.813381,3.362912 4.642079,2.831926c2.250705,-0.707982 2.532043,-0.530986 1.266022,1.415963c-1.969367,2.831926 0.703345,5.486857 4.923417,4.778875c2.391374,-0.353991 2.391374,-0.176995 0.703345,1.415963c-1.828698,1.415963 -1.828698,1.946949 -0.140669,3.362912c1.125352,0.884977 2.813381,1.238968 3.938734,0.707982c1.125352,-0.530986 1.828698,0 1.54736,1.415963c-0.703345,3.893898 7.877467,4.070894 13.926237,0c2.95405,-1.769954 7.174122,-5.663852 9.284158,-8.672774l3.938734,-5.132866l-4.220072,-5.486857c-2.250705,-3.185917 -5.204755,-5.663852 -6.752115,-5.663852c-1.406691,0 -3.516727,-0.884977 -4.642079,-1.946949c-1.54736,-1.238968 -0.703345,-1.415963 2.95405,-0.707982c7.736798,1.769954 9.00282,-1.415963 9.00282,-23.717381l0,-18.584515l-6.892784,-5.309861c-5.345424,-4.247889 -8.862151,-5.486857 -16.176942,-6.017843c-8.018136,-0.530986 -10.268841,0 -16.880287,4.424884c-4.079403,2.654931 -9.143489,7.610801 -11.112856,10.796718l-3.516727,5.663852l4.782748,-1.238968c2.672712,-0.884977 8.158806,-1.415963 12.238208,-1.238968c6.330108,0.176995 7.45546,-0.353991 8.018136,-3.539908c0.281338,-2.123945 0.844014,-5.309861 1.125352,-7.256811c0.422007,-2.123945 0.703345,-1.415963 0.844014,2.123945c0.281338,10.265732 -0.562676,11.150709 -11.394194,11.150709c-10.128172,0 -17.020956,3.008921 -18.568316,7.964792c-0.422007,1.592958 -0.844014,7.964792 -0.844014,14.15963l0,11.150709l5.345424,-0.353991c2.95405,-0.176995 6.892784,-1.592958 8.721482,-3.362912c1.828698,-1.592958 4.782748,-3.008921 6.330108,-3.008921c2.110036,0.176995 1.688029,0.707982 -1.54736,2.477935c-2.532043,1.415963 -4.923417,3.362912 -5.345424,4.424884c-0.562676,1.061972 -3.094719,1.946949 -5.626762,1.946949c-6.04877,0 -6.752115,1.238968 -4.360741,6.90282c4.923417,12.035686 23.351064,26.726302 23.351064,18.76151l0.000002,0.000004z"/>
   <path fill="#0000ff" id="svg_37" d="m2489.574656,-1827.911311l0,-34.86809l39.528006,-23.894376c21.803704,-13.097658 40.090682,-24.071371 40.794028,-24.425362c0.703345,-0.353991 1.266022,17.699538 1.266022,42.478891l0,43.186872l-5.486093,3.893898c-6.611446,4.60188 -13.785568,14.690616 -16.45828,22.832404l-1.969367,5.840847l-28.837158,0l-28.837158,0l0,-35.045085l0,0.000001zm35.870611,18.76151c0,-6.548829 0.422007,-7.610801 3.235388,-8.141787c1.828698,-0.353991 4.923417,1.238968 7.45546,3.893898c2.95405,3.185917 5.908101,4.60188 9.706165,4.60188c6.04877,0 8.580813,-2.654931 4.220072,-4.424884c-7.174122,-2.831926 -6.470777,-15.575593 0.984683,-17.876533c5.064086,-1.415963 10.268841,-7.433806 10.268841,-11.5047c0,-2.831926 -0.562676,-3.008921 -3.657396,-1.415963c-2.95405,1.238968 -4.360741,1.061972 -6.330108,-1.238968c-2.250705,-2.477935 -2.532043,-4.60188 -1.688029,-12.566672c0.984683,-10.973713 -0.844014,-16.814561 -6.189439,-19.823482c-4.642079,-2.654931 -4.50141,-2.831926 -3.657396,5.132866c0.703345,6.194838 0.422007,7.256811 -2.672712,9.026764c-2.95405,1.592958 -4.50141,1.238968 -9.284158,-1.769954c-6.470777,-4.247889 -14.629582,-4.778875 -16.880287,-1.415963c-1.125352,1.769954 -0.844014,2.831926 1.266022,4.424884c4.360741,3.362912 3.235388,8.672774 -2.813381,14.15963c-5.767432,4.955871 -9.565496,12.743667 -7.877467,16.106579c0.562676,1.415963 1.54736,1.061972 2.95405,-0.707982c4.923417,-6.194838 11.394194,0.176995 9.424827,9.380755c-1.125352,5.840847 1.969367,15.221603 6.330108,18.407519c2.110036,1.769954 4.079403,3.185917 4.50141,3.185917c0.422007,0 0.703345,-3.362912 0.703345,-7.433806l0.000002,0.000002z"/>
   <path fill="#0000ff" id="svg_38" d="m2670.756407,-1792.33524c2.95405,-1.415963 1.828698,-4.247889 -1.406691,-3.185917c-4.360741,1.238968 -7.033453,-1.415963 -6.470777,-6.371834c0.281338,-3.185917 1.406691,-4.424884 4.360741,-4.778875c2.110036,-0.353991 3.798065,-1.415963 3.798065,-2.30094c0,-0.884977 0.703345,-1.592958 1.54736,-1.592958c0.703345,0 0.984683,0.884977 0.562676,1.769954c-0.422007,1.061972 0.422007,1.769954 1.969367,1.769954c2.95405,0 4.079403,-4.247889 1.54736,-6.194838c-2.250705,-1.769954 -13.222892,3.008921 -15.614266,6.725824c-1.266022,1.946949 -1.969367,4.955871 -1.54736,6.90282c0.422007,2.654931 0,3.008921 -2.672712,2.477935c-1.828698,-0.530986 -4.50141,-0.884977 -6.04877,-0.884977c-1.828698,-0.176995 -2.391374,-1.061972 -1.828698,-3.716903c0.422007,-1.946949 0,-3.539908 -0.844014,-3.539908c-1.266022,0 -1.266022,-0.353991 0,-1.415963c0.984683,-0.707982 1.266022,-2.30094 0.562676,-3.716903c-1.406691,-2.831926 -4.360741,-1.061972 -4.360741,2.654931c0,1.415963 -1.266022,2.477935 -2.95405,2.477935c-1.54736,0 -2.391374,-0.707982 -1.969367,-1.769954c0.422007,-0.884977 0.140669,-1.769954 -0.844014,-1.769954c-1.125352,0 -0.844014,-1.061972 0.562676,-3.185917c1.406691,-1.769954 2.391374,-4.247889 2.391374,-5.486857c0,-1.061972 1.54736,-3.008921 3.516727,-4.070894c1.969367,-1.061972 3.516727,-2.477935 3.516727,-3.008921c-0.140669,-3.008921 -2.532043,-5.486857 -4.50141,-4.60188c-2.391374,1.238968 -4.220072,-2.831926 -2.672712,-5.840847c1.688029,-3.539908 11.112856,1.238968 12.097539,6.194838c0.562676,3.362912 1.54736,4.247889 4.642079,3.716903c4.642079,-0.707982 5.204755,-5.840847 0.703345,-5.840847c-3.798065,0 -5.767432,-2.477935 -3.376057,-4.247889c2.813381,-2.123945 11.253525,1.592958 12.238208,5.486857c0.422007,2.123945 1.688029,3.008921 2.95405,2.477935c1.125352,-0.530986 2.672712,-1.061972 3.376057,-1.061972c0.844014,0 1.125352,-0.707982 0.562676,-1.769954c-0.422007,-0.884977 -1.828698,-1.061972 -3.094719,-0.530986c-1.406691,0.707982 -1.969367,0.353991 -1.406691,-0.707982c0.562676,-1.061972 0.281338,-2.30094 -0.562676,-2.654931c-0.984683,-0.353991 -0.703345,-1.592958 0.703345,-3.008921c1.54736,-1.592958 2.250705,-1.769954 2.250705,-0.353991c0,1.061972 1.266022,1.946949 2.672712,1.946949c2.672712,0 4.360741,3.185917 4.360741,8.141787c0,1.415963 -0.984683,2.477935 -2.110036,2.477935c-1.266022,0 -2.672712,1.769954 -3.376057,4.070894c-0.984683,3.185917 -0.562676,4.070894 2.110036,5.309861c1.828698,0.884977 3.516727,2.30094 3.657396,3.185917c0.703345,5.486857 0,6.017843 -7.314791,6.90282c-6.611446,0.707982 -7.736798,1.415963 -7.736798,4.424884c0,4.070894 3.657396,4.778875 4.642079,1.061972c0.422007,-1.415963 0,-1.946949 -0.984683,-1.238968c-0.844014,0.707982 -1.54736,0.353991 -1.54736,-0.530986c0,-2.477935 3.798065,-2.477935 4.923417,-0.176995c0.562676,1.061972 2.110036,1.415963 3.657396,0.884977c3.235388,-1.415963 5.345424,3.539908 2.813381,6.725824c-1.125352,1.415963 -1.54736,1.238968 -1.54736,-1.061972c0,-1.592958 -0.562676,-3.008921 -1.406691,-3.008921c-0.703345,0 -1.406691,1.592958 -1.406691,3.539908c0,2.30094 -0.844014,3.539908 -2.391374,3.362912c-1.54736,0 -1.828698,-0.530986 -0.703345,-1.061972l0,0.000001z"/>
   <path fill="#0000ff" id="svg_39" d="m2626.023645,-1847.557798c-4.50141,-0.884977 -4.923417,-1.592958 -4.923417,-7.079815c0,-3.362912 -0.844014,-6.371834 -1.688029,-6.725824c-1.125352,-0.530986 -1.828698,0.707982 -1.828698,2.831926c0,4.424884 -4.923417,5.132866 -6.189439,1.061972c-1.125352,-3.716903 3.516727,-13.274653 7.174122,-14.336626c2.672712,-0.884977 2.95405,-1.592958 1.688029,-4.60188c-0.844014,-1.946949 -2.391374,-3.008921 -3.376057,-2.477935c-1.969367,0.884977 -4.079403,-3.539908 -2.813381,-6.017843c0.422007,-0.707982 3.235388,-0.530986 6.330108,0.353991c3.235388,1.061972 5.345424,2.30094 5.064086,2.831926c-0.422007,0.353991 -0.140669,2.30094 0.703345,4.247889c1.828698,4.247889 7.314791,3.539908 8.018136,-1.061972c0.422007,-2.654931 0,-3.185917 -2.391374,-2.30094c-3.376057,1.061972 -5.064086,-1.238968 -3.376057,-4.778875c1.688029,-3.539908 13.785568,3.185917 12.519546,7.079815c-0.703345,2.123945 -0.281338,2.654931 1.406691,1.769954c1.125352,-0.530986 2.813381,-1.061972 3.516727,-1.061972c0.703345,0 1.266022,-0.884977 1.266022,-1.946949c0,-1.061972 -0.844014,-1.592958 -1.969367,-1.061972c-2.110036,1.061972 -4.220072,-3.185917 -2.95405,-5.840847c0.984683,-2.123945 5.767432,-0.176995 8.440144,3.539908c2.672712,3.539908 1.54736,8.141787 -2.250705,9.380755c-4.079403,1.415963 -3.376057,7.787797 0.984683,9.026764c2.672712,0.884977 3.516727,2.123945 3.094719,5.132866c-0.422007,3.362912 -1.406691,3.893898 -7.45546,4.424884c-8.158806,0.707982 -10.409511,2.477935 -7.736798,6.548829c1.266022,1.946949 1.266022,2.654931 0.140669,2.654931c-2.532043,0 -3.516727,-5.132866 -1.54736,-7.964792c0.984683,-1.415963 2.813381,-2.654931 4.220072,-2.654931c1.406691,0 2.813381,-1.238968 3.376057,-2.654931c0.422007,-1.415963 1.406691,-2.654931 2.110036,-2.654931c0.844014,0 1.125352,1.238968 0.562676,2.831926c-0.562676,2.123945 -0.140669,2.654931 1.828698,2.123945c1.406691,-0.353991 2.672712,-1.769954 2.672712,-3.185917c0,-2.654931 -0.422007,-2.654931 -11.534863,-1.238968c-1.828698,0.176995 -3.235388,0.884977 -3.235388,1.415963c0,0.530986 -1.266022,2.654931 -2.813381,4.778875c-1.688029,2.123945 -2.250705,4.070894 -1.406691,4.778875c1.688029,1.238968 1.969367,4.60188 0.422007,4.247889c-0.703345,-0.176995 -3.376057,-0.707982 -6.04877,-1.415963z"/>
   <path fill="#0000ff" id="svg_40" d="m2474.101059,-1895.523546c-1.54736,-3.716903 -2.813381,-9.20376 -2.813381,-12.212681c0,-5.840847 -1.969367,-7.256811 -9.987503,-7.256811l-5.626762,0l2.391374,-5.663852c4.079403,-9.734746 18.849654,-26.726302 28.696488,-32.92114c5.064086,-3.185917 17.302295,-9.380755 27.430467,-13.80564c21.803704,-9.734746 36.573956,-18.584515 51.484876,-30.974191c18.990323,-15.575593 28.41515,-16.814561 43.185402,-5.486857c28.41515,21.947427 34.182582,25.487335 64.285761,38.938983c20.537683,9.20376 29.259165,14.867612 37.699308,24.779353c6.189439,7.433806 15.05159,21.593436 15.05159,24.071371c0,0.530986 -2.532043,1.061972 -5.486093,1.061972c-8.018136,0 -9.987503,1.415963 -9.987503,7.256811c0,6.017843 -3.235388,16.46057 -5.486093,18.230524c-0.844014,0.707982 -4.782748,-3.008921 -9.00282,-8.849769c-11.394194,-15.752589 -20.678352,-22.301418 -46.42079,-32.744145c-26.023776,-10.442727 -31.087863,-13.274653 -41.778711,-23.717381c-15.05159,-14.690616 -17.864971,-14.690616 -33.760575,0.176995c-12.519546,11.85869 -16.317611,13.982635 -39.387337,22.832404c-24.476417,9.20376 -35.167265,16.46057 -46.842797,31.151187c-5.204755,6.725824 -9.706165,12.212681 -10.128172,12.212681c-0.281338,0 -1.969367,-3.185917 -3.516727,-7.079815l-0.000002,0.000001zm19.41233,-18.230524c9.846834,-9.026764 16.45828,-12.743667 38.543323,-21.770432c23.491733,-9.55775 27.711805,-12.035686 42.060049,-24.779353c5.767432,-5.132866 12.238208,-9.911741 14.207575,-10.442727c4.782748,-1.592958 11.95687,2.477935 22.225712,12.389676c10.55018,10.088737 18.708985,14.867612 39.809344,22.832404c23.351064,8.849769 30.947193,13.982635 43.185402,28.850247c5.767432,7.079815 10.55018,12.920663 10.690849,12.920663c0.984683,0 3.376057,-12.212681 3.376057,-16.814561c0,-6.371834 1.828698,-7.964792 8.580813,-7.964792c2.250705,0 4.079403,-0.884977 4.079403,-1.769954c0,-3.539908 -11.95687,-18.230524 -20.115676,-24.956348c-7.877467,-6.371834 -18.286978,-12.035686 -51.484876,-27.257288c-8.018136,-3.716903 -19.975007,-11.150709 -26.727122,-16.46057c-27.571136,-22.124422 -33.338568,-22.655408 -54.157589,-5.663852c-15.332928,12.566672 -26.586453,19.292496 -51.484876,30.974191c-11.95687,5.663852 -25.4611,12.566672 -30.103179,15.575593c-7.877467,5.309861 -24.757755,24.071371 -24.757755,27.788274c0,0.884977 1.828698,1.769954 4.079403,1.769954c6.892784,0 8.580813,1.592958 8.580813,8.318783c0,3.362912 0.984683,8.495778 2.250705,11.327704l2.110036,5.486857l4.220072,-7.256811c2.391374,-3.893898 7.174122,-9.734746 10.831518,-13.097658l-0.000001,0z"/>
  </g>
  <text font-style="italic" xml:space="preserve" text-anchor="start" font-family="Helvetica, Arial, sans-serif" font-size="8" id="svg_30" y="373.453125" x="239" stroke-opacity="null" stroke-width="0" stroke="#0000ff" fill="#0000ff">Vandanel</text>
 </g>
</svg>