<svg width="512" height="512" xmlns="http://www.w3.org/2000/svg">
    <g>
        <title>background</title>
        <rect x="-1" y="-1" width="514" height="514" id="canvas_background" fill="none"/>
    </g>

    <g>

        <!--
        <g transform="rotate(-177.4999237060547 258.6205749511718,177.52922058105466)" >
            <title>Dreads</title>
            <path  fill="#000000" d="m153.12058,27.99035l0,57.51495c0,52.18715 13.86108,99.01391 35.82015,130.98264c1.5141,61.49307 32.12301,110.58017 69.67985,110.58017c37.55568,0 68.16575,-49.0871 69.67869,-110.57825c21.96023,-31.97065 35.82131,-78.79741 35.82131,-130.98456l0,-57.51495l-210.99999,0z"/>
        </g>
        -->

        <g id="shirt">
            <title>Shirt</title>
            <g transform="rotate(-0.06285365670919418 255.25967407231212,259.8476257324358) ">
                <g>
                    <title>Chest</title>
                    <path d="m255.25968,306.84762l44,0l98.846,21.665c27.533,6.035 47.154,30.421 47.154,58.609l0,85.726l-66,0l0,33l-124,0l-124,0l0,-33l-66,0l0,-85.726c0,-28.187 19.621,-52.574 47.154,-58.609l98.846,-21.665l44,0z"
                          fill="#ffffff" id="svg_3"/>
                </g>
                <!--
                <g>
                    <title>Shoulders</title>
                    <path d="m398.10568,328.51262l-98.846,-21.665l-44,0l-44,0l-98.846,21.665c-27.533,6.035 -47.154,30.421 -47.154,58.609l0,65.726l20,0l0,-65.726c0,-18.648 13.221,-35.08 31.436,-39.073l96.73,-21.201l83.668,0l96.73,21.201c18.215,3.992 31.436,20.425 31.436,39.073l0,65.726l20,0l0,-65.726c0,-28.188 -19.621,-52.574 -47.154,-58.609z"
                          fill="#0000ff"/>
                </g>
                -->
                <g>
                    <title>Left Sleeve</title>
                    <path fill="#ffffff" d="m131.25968,472.84762l-66,0l0,-20l66,0l0,20z"/>
                </g>
                <!--
                <g>
                    <title>Collar</title>
                    <path d="m296.04762,310.84762l-88,0l-23.78,5.212c2.673,35.067 .04,62.788 67.78,62.788s65.107,-27.721 67.78,-62.788l-23.78,-5.212z"
                          fill="#0000ff"/>
                </g>
                -->
                <g>
                    <title>Right Sleeve</title>
                    <path d="m379.25968,452.84762l66,0l0,20l-66,0l0,-20z" fill="#ffffff" id="svg_29"/>
                </g>

                <!--
                <g>
                    <title>Large Badge</title>
                    <path  fill="#0000ff"
                          d="m305,430l0,36c0,13.255 10.745,24 24,24s24,-10.745 24,-24l0,-36l-48,0z"/>
                </g>
                -->
                <g transform="rotate(-0.12570731341838837 345.27273559571455,411.87985229490795) " id="svg_11">
                    <title>Right Breast Badge</title>
                    <path fill="#ffffff" stroke="#0000ff" stroke-width="6" d="m354.16789,395.97966c-2.68586,2.23962 -6.39822,2.26136 -9.10448,0.06678c-2.60283,2.11147 -6.1378,2.17191 -8.79398,0.18125l-4.77619,5.29154c2.93803,3.31391 2.92095,8.63828 -0.0502,11.92947c-0.39433,1.12368 -0.601,1.0695 -0.64401,2.20109c-0.10117,2.7244 0.49128,5.26592 2.34705,7.18005c1.65775,1.70986 3.90738,2.43505 6.06833,2.1763c3.60852,0.20655 5.33847,1.93796 6.06436,2.97353c0.98019,-1.1065 2.50446,-2.88531 7.13719,-3.10706c2.76555,-0.44223 3.76495,-1.15665 5.06288,-2.47748c1.74698,-1.80189 2.35784,-4.08363 2.30635,-6.61886c-0.02138,-1.0525 -0.13763,-1.41842 -0.71165,-2.76228c-2.98493,-3.30646 -2.9871,-8.66535 -0.00792,-11.97581l-4.89773,-5.05852z" id="svg_30"/>
                </g>
                <!--
                <g>
                    <title>Central Badge</title>
                    <path
                          d="m259.87472,390.16586c-2.68586,2.23962 -6.39822,2.26136 -9.10448,0.06678c-2.60283,2.11147 -6.1378,2.17191 -8.79398,0.18125l-4.77619,5.29154c2.93803,3.31391 2.92095,8.63828 -0.0502,11.92947c-0.39433,1.12368 -0.601,1.0695 -0.64401,2.20109c-0.10117,2.7244 0.49128,5.26592 2.34705,7.18005c1.65775,1.70986 3.90738,2.43505 6.06833,2.1763c3.60852,0.20655 5.33847,1.93796 6.06436,2.97353c0.98019,-1.1065 2.50446,-2.88531 7.13719,-3.10706c2.76555,-0.44223 3.76495,-1.15665 5.06288,-2.47748c1.74698,-1.80189 2.35784,-4.08363 2.30635,-6.61886c-0.02138,-1.0525 -0.13763,-1.41842 -0.71165,-2.76228c-2.98493,-3.30646 -2.9871,-8.66535 -0.00792,-11.97581l-4.89773,-5.05852z"
                          stroke-width="6" stroke="#0000ff" fill="#ffffff"/>
                </g>
                -->
                <g>
                    <title>Sponsor</title>
                    <text stroke="null"
                          transform="matrix(0.801245885957119,0,0,0.7244940805840585,52.182838277747734,127.87108704232459) "
                          fill="#0000ff" stroke-width="0" stroke-opacity="null" x="180.0063" y="457.67801" id="svg_31"
                          font-size="39" font-family="Helvetica, Arial, sans-serif" text-anchor="start"
                          xml:space="preserve" font-weight="bold">WIRRAL</text>
                    <text fill="#0000ff" stroke-width="0" stroke-opacity="null" x="165.19556" y="466.00901" id="svg_40"
                          font-size="14" font-family="Arvo, sans-serif" text-anchor="start" xml:space="preserve"
                          font-weight="bold" transform="rotate(175.54901123046875 171.8046875,461.00781249999994) "
                          stroke="null">W</text>
                    <text fill="#0000ff" stroke-width="0" stroke-opacity="null" x="152.97334"
                          y="458.73631" id="svg_41" font-size="14" font-family="Arvo, sans-serif" text-anchor="start"
                          xml:space="preserve" font-weight="bold"
                          transform="rotate(-126.6180648803711 159.578125,453.7421875) ">W</text>
                    <text fill="#0000ff" stroke-width="0" stroke-opacity="null" x="173.83175"
                          y="445.94837" id="svg_39" font-size="14" font-family="Arvo, sans-serif" text-anchor="start"
                          xml:space="preserve" font-weight="bold"
                          transform="rotate(38.108097076416016 180.43750000000026,440.94531249999994) ">W</text>
                    <text fill="#0000ff" stroke-width="0" stroke-opacity="null" x="178.52159" y="459.12298" id="svg_38"
                          font-size="14" font-family="Arvo, sans-serif" text-anchor="start" xml:space="preserve"
                          font-weight="bold"
                          transform="rotate(114.04414367675781 185.13281250000006,454.11718749999994) "
                          stroke="null">W</text>
                    <text fill="#0000ff" stroke-width="0" stroke-opacity="null" x="158.61969"
                          y="444.79694" id="svg_42" font-size="14" font-family="Arvo, sans-serif" text-anchor="start"
                          xml:space="preserve" font-weight="bold"
                          transform="rotate(-33.5821533203125 165.22656250000014,439.8046875) ">W</text>
                    <text fill="#0000ff" stroke-width="0" stroke-opacity="null" x="160.86828"
                          y="445.05091" id="svg_43" font-size="12" font-family="Arvo, sans-serif" text-anchor="start"
                          xml:space="preserve" font-weight="normal"
                          transform="rotate(-33.5821533203125 166.53124999999986,441.05468749999994) ">W</text>
                </g>
            </g>
        </g>

        <!--
        <g id="skin-dark">
            <title>Skin</title>
            <g>
                <title>Bottom Neck</title>
                <path d="m211.25968,270.84762l0,36c0,24.301 19.699,44 44,44s44,-19.699 44,-44l0,-36l-88,0z"
                      fill="#7f3f00"/>
            </g>
            <g>
                <title>Top Neck</title>
                <path d="m211.25968,289.03562c13.499,5.851 28.376,9.812 44,9.812s30.501,-3.961 44,-9.812l0,-18.188l-88,0l0,18.188z"
                      fill="#5b2d01"/>
            </g>
            <g>
                <title>Face</title>
                <path d="m346.25968,93.84762l0,98c0,50.258 -40.742,91 -91,91c-50.258,0 -91,-40.742 -91,-91l0,-98l182,0z"
                      fill="#7f3f00"/>
            </g>
            <g>
                <title>Left Ear</title>
                <path d="m150.25968,179.84762l14,0l0,-50l-14,0c-5.523,0 -10,4.477 -10,10l0,30c0,5.523 4.477,10 10,10z"
                      fill="#7f3f00"/>
            </g>
            <g>
                <title>Right Ear</title>
                <path d="m360.25968,179.84762l-14,0l0,-50l14,0c5.523,0 10,4.477 10,10l0,30c0,5.523 -4.477,10 -10,10z"
                      fill="#7f3f00"/>
            </g>
            <g>
                <title>Left Arm</title>
                <path d="m131.25968,505.84762l-66,0l0,-33l66,0l0,33z" fill="#7f3f00"/>
            </g>
            <g>
                <title>Right Arm</title>
                <path d="m379.25968,472.84762l66,0l0,33l-66,0l0,-33z" fill="#7f3f00"/>
            </g>
        </g>
        -->

        <g id="skin-light">
            <title>Skin</title>
            <g>
                <title>Bottom Neck</title>
                <path d="m211.25968,270.84762l0,36c0,24.301 19.699,44 44,44s44,-19.699 44,-44l0,-36l-88,0z"
                      fill="#ffd3b3"/>
            </g>
            <g>
                <title>Top Neck</title>
                <path d="m211.25968,289.03562c13.499,5.851 28.376,9.812 44,9.812s30.501,-3.961 44,-9.812l0,-18.188l-88,0l0,18.188z"
                      fill="#fcb98b"/>
            </g>
            <g>
                <title>Face</title>
                <path d="m346.25968,93.84762l0,98c0,50.258 -40.742,91 -91,91c-50.258,0 -91,-40.742 -91,-91l0,-98l182,0z"
                      fill="#ffd3b3"/>
            </g>
            <g>
                <title>Left Ear</title>
                <path d="m150.25968,179.84762l14,0l0,-50l-14,0c-5.523,0 -10,4.477 -10,10l0,30c0,5.523 4.477,10 10,10z"
                      fill="#ffd3b3"/>
            </g>
            <g>
                <title>Right Ear</title>
                <path d="m360.25968,179.84762l-14,0l0,-50l14,0c5.523,0 10,4.477 10,10l0,30c0,5.523 -4.477,10 -10,10z"
                      fill="#ffd3b3"/>
            </g>
            <g>
                <title>Left Arm</title>
                <path d="m131.25968,505.84762l-66,0l0,-33l66,0l0,33z" fill="#ffd3b3"/>
            </g>
            <g>
                <title>Right Arm</title>
                <path d="m379.25968,472.84762l66,0l0,33l-66,0l0,-33z" fill="#ffd3b3"/>
            </g>
        </g>

        <!--
        <g id="hair-black">
            <title>Hair</title>
            <g>
                <title>Left Sideburn</title>
                <path d="m164.25968,179.84762l0,-97c0,-20.987 17.013,-38 38,-38l0,57.382c0,4.999 -1.249,9.919 -3.634,14.313l-34.366,63.305z"
                      fill="#000000" id="svg_23"/>
            </g>
            <g>
                <title>Right Sideburn</title>
                <path d="m346.25968,179.84762l0,-97c0,-20.987 -17.013,-38 -38,-38l0,57.382c0,4.999 1.249,9.919 3.634,14.313l34.366,63.305z"
                      fill="#000000" id="svg_34"/>
            </g>
            <g>
                <title>Quiff</title>
                <path d="m284.25968,119.84762l-86,0c-33.137,0 -60,-26.863 -60,-60l0,-46l140,0c16.569,0 30,13.431 30,30l0,52c0,13.255 -10.745,24 -24,24z"
                      fill="#000000" id="svg_36"/>
            </g>
        </g>
        -->
        <!--
        <g>
            <title>Simple Hair</title>
            <path d="m165 101v75l28-70s34 12 63 12 63-12 63-12l28 70v-75c0-50.258-40.742-91-91-91-50.258 0-91 40.742-91 91z"
                  fill="#000000"/>
        </g>
        -->

        <g>
            <title>Other Hair</title>
            <g>
                <path fill="#000000" d="m308.364,97.03063s-8.273,39.59099 -126.455,39.59099l-18.909,37.56038l0,-51.77297l0,-33.49915c0,-33.64002 31.747,-60.90988 70.91,-60.90988l43.726,0c16.97,0 30.727,11.81691 30.727,26.39371l0,42.63692l0.001,0z"/>
            </g>
            <g>
                <path fill="#000000" d="m308.364,97.03063s-2.364,30.45494 24.818,39.59099l11.818,37.56038l0,-51.77297l0,-36.54507c0,-17.38049 -16.403,-31.46939 -36.636,-31.46939l0,42.63606z"/>
            </g>
        </g>

        <!--
        <g id="hair-brown">
            <title>Hair</title>
            <g>
                <title>Left Sideburn</title>
                <path d="m164.25968,179.84762l0,-97c0,-20.987 17.013,-38 38,-38l0,57.382c0,4.999 -1.249,9.919 -3.634,14.313l-34.366,63.305z"
                      fill="#754100"/>
            </g>
            <g>
                <title>Right Sideburn</title>
                <path d="m346.25968,179.84762l0,-97c0,-20.987 -17.013,-38 -38,-38l0,57.382c0,4.999 1.249,9.919 3.634,14.313l34.366,63.305z"
                      fill="#754100"/>
            </g>
            <g>
                <title>Quiff</title>
                <path d="m284.25968,119.84762l-86,0c-33.137,0 -60,-26.863 -60,-60l0,-46l140,0c16.569,0 30,13.431 30,30l0,52c0,13.255 -10.745,24 -24,24z"
                      fill="#754100"/>
            </g>
        </g>
        -->
        <!--
        <g>
            <title>Simple Collar</title>
            <g>
                <path d="m256 347-30 30-31.996-70.056 17.996-11.944z" fill="#edeff1"/>
            </g>
            <g>
                <path d="m256 347 30 30 31.996-70.056-17.996-11.944z" fill="#edeff1"/>
            </g>
        </g>
        -->

        <g>
            <title>V Collar</title>
            <g>
                <path d="m256 347-51 40-10.996-80.056 17.996-11.944z" fill="#0000ff"/>
            </g>
            <g>
                <path d="m256 347 51 40 10.996-80.056-17.996-11.944z" fill="#0000ff"/>
            </g>
            <g>
                <path d="m249 347h14v59h-14z" fill="#466089"/>
            </g>
        </g>

        <!--

        <line transform="rotate(-5.19442892074585 136.99999999999895,469.4531249999997) " stroke="#0000ff" stroke-linecap="undefined" stroke-linejoin="undefined" id="svg_27" y2="502.45313" x2="137" y1="436.45312" x1="137" stroke-width="6" fill="none"/>
        <line transform="rotate(5.079607963562012 370.9999999999993,469.45312500000034) " stroke="#0000ff" stroke-linecap="undefined" stroke-linejoin="undefined" id="svg_28" y2="502.45313" x2="371" y1="436.45312" x1="371" stroke-width="6" fill="none"/>
        -->
    </g>
</svg>